<?xml version="1.0" encoding="utf-8" standalone="no"?>
<!DOCTYPE svg PUBLIC "-//W3C//DTD SVG 1.1//EN"
  "http://www.w3.org/Graphics/SVG/1.1/DTD/svg11.dtd">
<svg height="345.6pt" version="1.1" viewBox="0 0 460.8 345.6" width="460.8pt" xmlns="http://www.w3.org/2000/svg" xmlns:xlink="http://www.w3.org/1999/xlink">
 <metadata>
  <rdf:RDF xmlns:cc="http://creativecommons.org/ns#" xmlns:dc="http://purl.org/dc/elements/1.1/" xmlns:rdf="http://www.w3.org/1999/02/22-rdf-syntax-ns#">
   <cc:Work>
    <dc:type rdf:resource="http://purl.org/dc/dcmitype/StillImage"/>
    <dc:date>2023-08-13T10:25:51.951353</dc:date>
    <dc:format>image/svg+xml</dc:format>
    <dc:creator>
     <cc:Agent>
      <dc:title>Matplotlib v3.4.3, https://matplotlib.org/</dc:title>
     </cc:Agent>
    </dc:creator>
   </cc:Work>
  </rdf:RDF>
 </metadata>
 <defs>
  <style type="text/css">*{stroke-linecap:butt;stroke-linejoin:round;}</style>
 </defs>
 <g id="figure_1">
  <g id="patch_1">
   <path d="M 0 345.6 
L 460.8 345.6 
L 460.8 0 
L 0 0 
z
" style="fill:#ffffff;"/>
  </g>
  <g id="axes_1">
   <g id="patch_2">
    <path d="M 57.6 307.584 
L 414.72 307.584 
L 414.72 41.472 
L 57.6 41.472 
z
" style="fill:#ffffff;"/>
   </g>
   <g id="matplotlib.axis_1">
    <g id="xtick_1">
     <g id="line2d_1">
      <defs>
       <path d="M 0 0 
L 0 3.5 
" id="m0e5de99635" style="stroke:#000000;stroke-width:0.8;"/>
      </defs>
      <g>
       <use style="stroke:#000000;stroke-width:0.8;" x="73.832727" xlink:href="#m0e5de99635" y="307.584"/>
      </g>
     </g>
     <g id="text_1">
      <!-- 1 -->
      <g transform="translate(70.651477 322.182437)scale(0.1 -0.1)">
       <defs>
        <path d="M 794 531 
L 1825 531 
L 1825 4091 
L 703 3866 
L 703 4441 
L 1819 4666 
L 2450 4666 
L 2450 531 
L 3481 531 
L 3481 0 
L 794 0 
L 794 531 
z
" id="DejaVuSans-31" transform="scale(0.015625)"/>
       </defs>
       <use xlink:href="#DejaVuSans-31"/>
      </g>
     </g>
    </g>
    <g id="xtick_2">
     <g id="line2d_2">
      <g>
       <use style="stroke:#000000;stroke-width:0.8;" x="109.710992" xlink:href="#m0e5de99635" y="307.584"/>
      </g>
     </g>
     <g id="text_2">
      <!-- 42 -->
      <g transform="translate(103.348492 322.182437)scale(0.1 -0.1)">
       <defs>
        <path d="M 2419 4116 
L 825 1625 
L 2419 1625 
L 2419 4116 
z
M 2253 4666 
L 3047 4666 
L 3047 1625 
L 3713 1625 
L 3713 1100 
L 3047 1100 
L 3047 0 
L 2419 0 
L 2419 1100 
L 313 1100 
L 313 1709 
L 2253 4666 
z
" id="DejaVuSans-34" transform="scale(0.015625)"/>
        <path d="M 1228 531 
L 3431 531 
L 3431 0 
L 469 0 
L 469 531 
Q 828 903 1448 1529 
Q 2069 2156 2228 2338 
Q 2531 2678 2651 2914 
Q 2772 3150 2772 3378 
Q 2772 3750 2511 3984 
Q 2250 4219 1831 4219 
Q 1534 4219 1204 4116 
Q 875 4013 500 3803 
L 500 4441 
Q 881 4594 1212 4672 
Q 1544 4750 1819 4750 
Q 2544 4750 2975 4387 
Q 3406 4025 3406 3419 
Q 3406 3131 3298 2873 
Q 3191 2616 2906 2266 
Q 2828 2175 2409 1742 
Q 1991 1309 1228 531 
z
" id="DejaVuSans-32" transform="scale(0.015625)"/>
       </defs>
       <use xlink:href="#DejaVuSans-34"/>
       <use x="63.623047" xlink:href="#DejaVuSans-32"/>
      </g>
     </g>
    </g>
    <g id="xtick_3">
     <g id="line2d_3">
      <g>
       <use style="stroke:#000000;stroke-width:0.8;" x="145.589258" xlink:href="#m0e5de99635" y="307.584"/>
      </g>
     </g>
     <g id="text_3">
      <!-- 83 -->
      <g transform="translate(139.226758 322.182437)scale(0.1 -0.1)">
       <defs>
        <path d="M 2034 2216 
Q 1584 2216 1326 1975 
Q 1069 1734 1069 1313 
Q 1069 891 1326 650 
Q 1584 409 2034 409 
Q 2484 409 2743 651 
Q 3003 894 3003 1313 
Q 3003 1734 2745 1975 
Q 2488 2216 2034 2216 
z
M 1403 2484 
Q 997 2584 770 2862 
Q 544 3141 544 3541 
Q 544 4100 942 4425 
Q 1341 4750 2034 4750 
Q 2731 4750 3128 4425 
Q 3525 4100 3525 3541 
Q 3525 3141 3298 2862 
Q 3072 2584 2669 2484 
Q 3125 2378 3379 2068 
Q 3634 1759 3634 1313 
Q 3634 634 3220 271 
Q 2806 -91 2034 -91 
Q 1263 -91 848 271 
Q 434 634 434 1313 
Q 434 1759 690 2068 
Q 947 2378 1403 2484 
z
M 1172 3481 
Q 1172 3119 1398 2916 
Q 1625 2713 2034 2713 
Q 2441 2713 2670 2916 
Q 2900 3119 2900 3481 
Q 2900 3844 2670 4047 
Q 2441 4250 2034 4250 
Q 1625 4250 1398 4047 
Q 1172 3844 1172 3481 
z
" id="DejaVuSans-38" transform="scale(0.015625)"/>
        <path d="M 2597 2516 
Q 3050 2419 3304 2112 
Q 3559 1806 3559 1356 
Q 3559 666 3084 287 
Q 2609 -91 1734 -91 
Q 1441 -91 1130 -33 
Q 819 25 488 141 
L 488 750 
Q 750 597 1062 519 
Q 1375 441 1716 441 
Q 2309 441 2620 675 
Q 2931 909 2931 1356 
Q 2931 1769 2642 2001 
Q 2353 2234 1838 2234 
L 1294 2234 
L 1294 2753 
L 1863 2753 
Q 2328 2753 2575 2939 
Q 2822 3125 2822 3475 
Q 2822 3834 2567 4026 
Q 2313 4219 1838 4219 
Q 1578 4219 1281 4162 
Q 984 4106 628 3988 
L 628 4550 
Q 988 4650 1302 4700 
Q 1616 4750 1894 4750 
Q 2613 4750 3031 4423 
Q 3450 4097 3450 3541 
Q 3450 3153 3228 2886 
Q 3006 2619 2597 2516 
z
" id="DejaVuSans-33" transform="scale(0.015625)"/>
       </defs>
       <use xlink:href="#DejaVuSans-38"/>
       <use x="63.623047" xlink:href="#DejaVuSans-33"/>
      </g>
     </g>
    </g>
    <g id="xtick_4">
     <g id="line2d_4">
      <g>
       <use style="stroke:#000000;stroke-width:0.8;" x="181.467523" xlink:href="#m0e5de99635" y="307.584"/>
      </g>
     </g>
     <g id="text_4">
      <!-- 124 -->
      <g transform="translate(171.923773 322.182437)scale(0.1 -0.1)">
       <use xlink:href="#DejaVuSans-31"/>
       <use x="63.623047" xlink:href="#DejaVuSans-32"/>
       <use x="127.246094" xlink:href="#DejaVuSans-34"/>
      </g>
     </g>
    </g>
    <g id="xtick_5">
     <g id="line2d_5">
      <g>
       <use style="stroke:#000000;stroke-width:0.8;" x="217.345788" xlink:href="#m0e5de99635" y="307.584"/>
      </g>
     </g>
     <g id="text_5">
      <!-- 165 -->
      <g transform="translate(207.802038 322.182437)scale(0.1 -0.1)">
       <defs>
        <path d="M 2113 2584 
Q 1688 2584 1439 2293 
Q 1191 2003 1191 1497 
Q 1191 994 1439 701 
Q 1688 409 2113 409 
Q 2538 409 2786 701 
Q 3034 994 3034 1497 
Q 3034 2003 2786 2293 
Q 2538 2584 2113 2584 
z
M 3366 4563 
L 3366 3988 
Q 3128 4100 2886 4159 
Q 2644 4219 2406 4219 
Q 1781 4219 1451 3797 
Q 1122 3375 1075 2522 
Q 1259 2794 1537 2939 
Q 1816 3084 2150 3084 
Q 2853 3084 3261 2657 
Q 3669 2231 3669 1497 
Q 3669 778 3244 343 
Q 2819 -91 2113 -91 
Q 1303 -91 875 529 
Q 447 1150 447 2328 
Q 447 3434 972 4092 
Q 1497 4750 2381 4750 
Q 2619 4750 2861 4703 
Q 3103 4656 3366 4563 
z
" id="DejaVuSans-36" transform="scale(0.015625)"/>
        <path d="M 691 4666 
L 3169 4666 
L 3169 4134 
L 1269 4134 
L 1269 2991 
Q 1406 3038 1543 3061 
Q 1681 3084 1819 3084 
Q 2600 3084 3056 2656 
Q 3513 2228 3513 1497 
Q 3513 744 3044 326 
Q 2575 -91 1722 -91 
Q 1428 -91 1123 -41 
Q 819 9 494 109 
L 494 744 
Q 775 591 1075 516 
Q 1375 441 1709 441 
Q 2250 441 2565 725 
Q 2881 1009 2881 1497 
Q 2881 1984 2565 2268 
Q 2250 2553 1709 2553 
Q 1456 2553 1204 2497 
Q 953 2441 691 2322 
L 691 4666 
z
" id="DejaVuSans-35" transform="scale(0.015625)"/>
       </defs>
       <use xlink:href="#DejaVuSans-31"/>
       <use x="63.623047" xlink:href="#DejaVuSans-36"/>
       <use x="127.246094" xlink:href="#DejaVuSans-35"/>
      </g>
     </g>
    </g>
    <g id="xtick_6">
     <g id="line2d_6">
      <g>
       <use style="stroke:#000000;stroke-width:0.8;" x="254.099133" xlink:href="#m0e5de99635" y="307.584"/>
      </g>
     </g>
     <g id="text_6">
      <!-- 207 -->
      <g transform="translate(244.555383 322.182437)scale(0.1 -0.1)">
       <defs>
        <path d="M 2034 4250 
Q 1547 4250 1301 3770 
Q 1056 3291 1056 2328 
Q 1056 1369 1301 889 
Q 1547 409 2034 409 
Q 2525 409 2770 889 
Q 3016 1369 3016 2328 
Q 3016 3291 2770 3770 
Q 2525 4250 2034 4250 
z
M 2034 4750 
Q 2819 4750 3233 4129 
Q 3647 3509 3647 2328 
Q 3647 1150 3233 529 
Q 2819 -91 2034 -91 
Q 1250 -91 836 529 
Q 422 1150 422 2328 
Q 422 3509 836 4129 
Q 1250 4750 2034 4750 
z
" id="DejaVuSans-30" transform="scale(0.015625)"/>
        <path d="M 525 4666 
L 3525 4666 
L 3525 4397 
L 1831 0 
L 1172 0 
L 2766 4134 
L 525 4134 
L 525 4666 
z
" id="DejaVuSans-37" transform="scale(0.015625)"/>
       </defs>
       <use xlink:href="#DejaVuSans-32"/>
       <use x="63.623047" xlink:href="#DejaVuSans-30"/>
       <use x="127.246094" xlink:href="#DejaVuSans-37"/>
      </g>
     </g>
    </g>
    <g id="xtick_7">
     <g id="line2d_7">
      <g>
       <use style="stroke:#000000;stroke-width:0.8;" x="289.977398" xlink:href="#m0e5de99635" y="307.584"/>
      </g>
     </g>
     <g id="text_7">
      <!-- 248 -->
      <g transform="translate(280.433648 322.182437)scale(0.1 -0.1)">
       <use xlink:href="#DejaVuSans-32"/>
       <use x="63.623047" xlink:href="#DejaVuSans-34"/>
       <use x="127.246094" xlink:href="#DejaVuSans-38"/>
      </g>
     </g>
    </g>
    <g id="xtick_8">
     <g id="line2d_8">
      <g>
       <use style="stroke:#000000;stroke-width:0.8;" x="325.855663" xlink:href="#m0e5de99635" y="307.584"/>
      </g>
     </g>
     <g id="text_8">
      <!-- 289 -->
      <g transform="translate(316.311913 322.182437)scale(0.1 -0.1)">
       <defs>
        <path d="M 703 97 
L 703 672 
Q 941 559 1184 500 
Q 1428 441 1663 441 
Q 2288 441 2617 861 
Q 2947 1281 2994 2138 
Q 2813 1869 2534 1725 
Q 2256 1581 1919 1581 
Q 1219 1581 811 2004 
Q 403 2428 403 3163 
Q 403 3881 828 4315 
Q 1253 4750 1959 4750 
Q 2769 4750 3195 4129 
Q 3622 3509 3622 2328 
Q 3622 1225 3098 567 
Q 2575 -91 1691 -91 
Q 1453 -91 1209 -44 
Q 966 3 703 97 
z
M 1959 2075 
Q 2384 2075 2632 2365 
Q 2881 2656 2881 3163 
Q 2881 3666 2632 3958 
Q 2384 4250 1959 4250 
Q 1534 4250 1286 3958 
Q 1038 3666 1038 3163 
Q 1038 2656 1286 2365 
Q 1534 2075 1959 2075 
z
" id="DejaVuSans-39" transform="scale(0.015625)"/>
       </defs>
       <use xlink:href="#DejaVuSans-32"/>
       <use x="63.623047" xlink:href="#DejaVuSans-38"/>
       <use x="127.246094" xlink:href="#DejaVuSans-39"/>
      </g>
     </g>
    </g>
    <g id="xtick_9">
     <g id="line2d_9">
      <g>
       <use style="stroke:#000000;stroke-width:0.8;" x="361.733928" xlink:href="#m0e5de99635" y="307.584"/>
      </g>
     </g>
     <g id="text_9">
      <!-- 330 -->
      <g transform="translate(352.190178 322.182437)scale(0.1 -0.1)">
       <use xlink:href="#DejaVuSans-33"/>
       <use x="63.623047" xlink:href="#DejaVuSans-33"/>
       <use x="127.246094" xlink:href="#DejaVuSans-30"/>
      </g>
     </g>
    </g>
    <g id="xtick_10">
     <g id="line2d_10">
      <g>
       <use style="stroke:#000000;stroke-width:0.8;" x="398.487273" xlink:href="#m0e5de99635" y="307.584"/>
      </g>
     </g>
     <g id="text_10">
      <!-- 372 -->
      <g transform="translate(388.943523 322.182437)scale(0.1 -0.1)">
       <use xlink:href="#DejaVuSans-33"/>
       <use x="63.623047" xlink:href="#DejaVuSans-37"/>
       <use x="127.246094" xlink:href="#DejaVuSans-32"/>
      </g>
     </g>
    </g>
    <g id="text_11">
     <!-- Epochs -->
     <g transform="translate(218.244375 335.860562)scale(0.1 -0.1)">
      <defs>
       <path d="M 628 4666 
L 3578 4666 
L 3578 4134 
L 1259 4134 
L 1259 2753 
L 3481 2753 
L 3481 2222 
L 1259 2222 
L 1259 531 
L 3634 531 
L 3634 0 
L 628 0 
L 628 4666 
z
" id="DejaVuSans-45" transform="scale(0.015625)"/>
       <path d="M 1159 525 
L 1159 -1331 
L 581 -1331 
L 581 3500 
L 1159 3500 
L 1159 2969 
Q 1341 3281 1617 3432 
Q 1894 3584 2278 3584 
Q 2916 3584 3314 3078 
Q 3713 2572 3713 1747 
Q 3713 922 3314 415 
Q 2916 -91 2278 -91 
Q 1894 -91 1617 61 
Q 1341 213 1159 525 
z
M 3116 1747 
Q 3116 2381 2855 2742 
Q 2594 3103 2138 3103 
Q 1681 3103 1420 2742 
Q 1159 2381 1159 1747 
Q 1159 1113 1420 752 
Q 1681 391 2138 391 
Q 2594 391 2855 752 
Q 3116 1113 3116 1747 
z
" id="DejaVuSans-70" transform="scale(0.015625)"/>
       <path d="M 1959 3097 
Q 1497 3097 1228 2736 
Q 959 2375 959 1747 
Q 959 1119 1226 758 
Q 1494 397 1959 397 
Q 2419 397 2687 759 
Q 2956 1122 2956 1747 
Q 2956 2369 2687 2733 
Q 2419 3097 1959 3097 
z
M 1959 3584 
Q 2709 3584 3137 3096 
Q 3566 2609 3566 1747 
Q 3566 888 3137 398 
Q 2709 -91 1959 -91 
Q 1206 -91 779 398 
Q 353 888 353 1747 
Q 353 2609 779 3096 
Q 1206 3584 1959 3584 
z
" id="DejaVuSans-6f" transform="scale(0.015625)"/>
       <path d="M 3122 3366 
L 3122 2828 
Q 2878 2963 2633 3030 
Q 2388 3097 2138 3097 
Q 1578 3097 1268 2742 
Q 959 2388 959 1747 
Q 959 1106 1268 751 
Q 1578 397 2138 397 
Q 2388 397 2633 464 
Q 2878 531 3122 666 
L 3122 134 
Q 2881 22 2623 -34 
Q 2366 -91 2075 -91 
Q 1284 -91 818 406 
Q 353 903 353 1747 
Q 353 2603 823 3093 
Q 1294 3584 2113 3584 
Q 2378 3584 2631 3529 
Q 2884 3475 3122 3366 
z
" id="DejaVuSans-63" transform="scale(0.015625)"/>
       <path d="M 3513 2113 
L 3513 0 
L 2938 0 
L 2938 2094 
Q 2938 2591 2744 2837 
Q 2550 3084 2163 3084 
Q 1697 3084 1428 2787 
Q 1159 2491 1159 1978 
L 1159 0 
L 581 0 
L 581 4863 
L 1159 4863 
L 1159 2956 
Q 1366 3272 1645 3428 
Q 1925 3584 2291 3584 
Q 2894 3584 3203 3211 
Q 3513 2838 3513 2113 
z
" id="DejaVuSans-68" transform="scale(0.015625)"/>
       <path d="M 2834 3397 
L 2834 2853 
Q 2591 2978 2328 3040 
Q 2066 3103 1784 3103 
Q 1356 3103 1142 2972 
Q 928 2841 928 2578 
Q 928 2378 1081 2264 
Q 1234 2150 1697 2047 
L 1894 2003 
Q 2506 1872 2764 1633 
Q 3022 1394 3022 966 
Q 3022 478 2636 193 
Q 2250 -91 1575 -91 
Q 1294 -91 989 -36 
Q 684 19 347 128 
L 347 722 
Q 666 556 975 473 
Q 1284 391 1588 391 
Q 1994 391 2212 530 
Q 2431 669 2431 922 
Q 2431 1156 2273 1281 
Q 2116 1406 1581 1522 
L 1381 1569 
Q 847 1681 609 1914 
Q 372 2147 372 2553 
Q 372 3047 722 3315 
Q 1072 3584 1716 3584 
Q 2034 3584 2315 3537 
Q 2597 3491 2834 3397 
z
" id="DejaVuSans-73" transform="scale(0.015625)"/>
      </defs>
      <use xlink:href="#DejaVuSans-45"/>
      <use x="63.183594" xlink:href="#DejaVuSans-70"/>
      <use x="126.660156" xlink:href="#DejaVuSans-6f"/>
      <use x="187.841797" xlink:href="#DejaVuSans-63"/>
      <use x="242.822266" xlink:href="#DejaVuSans-68"/>
      <use x="306.201172" xlink:href="#DejaVuSans-73"/>
     </g>
    </g>
   </g>
   <g id="matplotlib.axis_2">
    <g id="ytick_1">
     <g id="line2d_11">
      <defs>
       <path d="M 0 0 
L -3.5 0 
" id="md8a654a3c8" style="stroke:#000000;stroke-width:0.8;"/>
      </defs>
      <g>
       <use style="stroke:#000000;stroke-width:0.8;" x="57.6" xlink:href="#md8a654a3c8" y="276.452807"/>
      </g>
     </g>
     <g id="text_12">
      <!-- 20 -->
      <g transform="translate(37.875 280.252026)scale(0.1 -0.1)">
       <use xlink:href="#DejaVuSans-32"/>
       <use x="63.623047" xlink:href="#DejaVuSans-30"/>
      </g>
     </g>
    </g>
    <g id="ytick_2">
     <g id="line2d_12">
      <g>
       <use style="stroke:#000000;stroke-width:0.8;" x="57.6" xlink:href="#md8a654a3c8" y="218.770403"/>
      </g>
     </g>
     <g id="text_13">
      <!-- 40 -->
      <g transform="translate(37.875 222.569622)scale(0.1 -0.1)">
       <use xlink:href="#DejaVuSans-34"/>
       <use x="63.623047" xlink:href="#DejaVuSans-30"/>
      </g>
     </g>
    </g>
    <g id="ytick_3">
     <g id="line2d_13">
      <g>
       <use style="stroke:#000000;stroke-width:0.8;" x="57.6" xlink:href="#md8a654a3c8" y="161.088"/>
      </g>
     </g>
     <g id="text_14">
      <!-- 60 -->
      <g transform="translate(37.875 164.887219)scale(0.1 -0.1)">
       <use xlink:href="#DejaVuSans-36"/>
       <use x="63.623047" xlink:href="#DejaVuSans-30"/>
      </g>
     </g>
    </g>
    <g id="ytick_4">
     <g id="line2d_14">
      <g>
       <use style="stroke:#000000;stroke-width:0.8;" x="57.6" xlink:href="#md8a654a3c8" y="103.405597"/>
      </g>
     </g>
     <g id="text_15">
      <!-- 80 -->
      <g transform="translate(37.875 107.204815)scale(0.1 -0.1)">
       <use xlink:href="#DejaVuSans-38"/>
       <use x="63.623047" xlink:href="#DejaVuSans-30"/>
      </g>
     </g>
    </g>
    <g id="ytick_5">
     <g id="line2d_15">
      <g>
       <use style="stroke:#000000;stroke-width:0.8;" x="57.6" xlink:href="#md8a654a3c8" y="45.723193"/>
      </g>
     </g>
     <g id="text_16">
      <!-- 100 -->
      <g transform="translate(31.5125 49.522412)scale(0.1 -0.1)">
       <use xlink:href="#DejaVuSans-31"/>
       <use x="63.623047" xlink:href="#DejaVuSans-30"/>
       <use x="127.246094" xlink:href="#DejaVuSans-30"/>
      </g>
     </g>
    </g>
    <g id="text_17">
     <!-- Accuracy -->
     <g transform="translate(25.432812 197.356125)rotate(-90)scale(0.1 -0.1)">
      <defs>
       <path d="M 2188 4044 
L 1331 1722 
L 3047 1722 
L 2188 4044 
z
M 1831 4666 
L 2547 4666 
L 4325 0 
L 3669 0 
L 3244 1197 
L 1141 1197 
L 716 0 
L 50 0 
L 1831 4666 
z
" id="DejaVuSans-41" transform="scale(0.015625)"/>
       <path d="M 544 1381 
L 544 3500 
L 1119 3500 
L 1119 1403 
Q 1119 906 1312 657 
Q 1506 409 1894 409 
Q 2359 409 2629 706 
Q 2900 1003 2900 1516 
L 2900 3500 
L 3475 3500 
L 3475 0 
L 2900 0 
L 2900 538 
Q 2691 219 2414 64 
Q 2138 -91 1772 -91 
Q 1169 -91 856 284 
Q 544 659 544 1381 
z
M 1991 3584 
L 1991 3584 
z
" id="DejaVuSans-75" transform="scale(0.015625)"/>
       <path d="M 2631 2963 
Q 2534 3019 2420 3045 
Q 2306 3072 2169 3072 
Q 1681 3072 1420 2755 
Q 1159 2438 1159 1844 
L 1159 0 
L 581 0 
L 581 3500 
L 1159 3500 
L 1159 2956 
Q 1341 3275 1631 3429 
Q 1922 3584 2338 3584 
Q 2397 3584 2469 3576 
Q 2541 3569 2628 3553 
L 2631 2963 
z
" id="DejaVuSans-72" transform="scale(0.015625)"/>
       <path d="M 2194 1759 
Q 1497 1759 1228 1600 
Q 959 1441 959 1056 
Q 959 750 1161 570 
Q 1363 391 1709 391 
Q 2188 391 2477 730 
Q 2766 1069 2766 1631 
L 2766 1759 
L 2194 1759 
z
M 3341 1997 
L 3341 0 
L 2766 0 
L 2766 531 
Q 2569 213 2275 61 
Q 1981 -91 1556 -91 
Q 1019 -91 701 211 
Q 384 513 384 1019 
Q 384 1609 779 1909 
Q 1175 2209 1959 2209 
L 2766 2209 
L 2766 2266 
Q 2766 2663 2505 2880 
Q 2244 3097 1772 3097 
Q 1472 3097 1187 3025 
Q 903 2953 641 2809 
L 641 3341 
Q 956 3463 1253 3523 
Q 1550 3584 1831 3584 
Q 2591 3584 2966 3190 
Q 3341 2797 3341 1997 
z
" id="DejaVuSans-61" transform="scale(0.015625)"/>
       <path d="M 2059 -325 
Q 1816 -950 1584 -1140 
Q 1353 -1331 966 -1331 
L 506 -1331 
L 506 -850 
L 844 -850 
Q 1081 -850 1212 -737 
Q 1344 -625 1503 -206 
L 1606 56 
L 191 3500 
L 800 3500 
L 1894 763 
L 2988 3500 
L 3597 3500 
L 2059 -325 
z
" id="DejaVuSans-79" transform="scale(0.015625)"/>
      </defs>
      <use xlink:href="#DejaVuSans-41"/>
      <use x="66.658203" xlink:href="#DejaVuSans-63"/>
      <use x="121.638672" xlink:href="#DejaVuSans-63"/>
      <use x="176.619141" xlink:href="#DejaVuSans-75"/>
      <use x="239.998047" xlink:href="#DejaVuSans-72"/>
      <use x="281.111328" xlink:href="#DejaVuSans-61"/>
      <use x="342.390625" xlink:href="#DejaVuSans-63"/>
      <use x="397.371094" xlink:href="#DejaVuSans-79"/>
     </g>
    </g>
   </g>
   <g id="line2d_16">
    <path clip-path="url(#p05bd7f0631)" d="M 73.832727 257.517597 
L 74.707807 254.819983 
L 75.582887 216.89188 
L 76.457966 194.614936 
L 77.333046 190.752137 
L 78.208125 185.514575 
L 79.083205 169.027021 
L 80.833364 155.031348 
L 81.708444 149.782249 
L 82.583524 149.98606 
L 83.458603 142.564258 
L 84.333683 143.031485 
L 85.208763 167.117734 
L 86.083842 160.547708 
L 86.958922 154.91406 
L 87.834001 156.269597 
L 88.709081 144.986918 
L 89.584161 140.378094 
L 90.45924 134.602163 
L 91.33432 135.907708 
L 92.2094 138.293837 
L 93.084479 138.449579 
L 93.959559 128.474369 
L 94.834639 127.791794 
L 95.709718 129.668395 
L 97.459877 125.75176 
L 98.334957 120.231554 
L 99.210037 117.928103 
L 100.085116 119.564361 
L 100.960196 120.450747 
L 101.835276 117.805047 
L 102.710355 114.496 
L 103.585435 112.417511 
L 104.460515 107.201099 
L 105.335594 115.345854 
L 106.210674 128.212876 
L 107.085753 127.795639 
L 107.960833 129.366524 
L 108.835913 125.805597 
L 109.710992 123.43485 
L 110.586072 125.34606 
L 111.461152 121.458266 
L 112.336231 121.652464 
L 113.211311 118.460704 
L 114.086391 120.668017 
L 115.83655 118.226129 
L 116.71163 118.872172 
L 117.586709 113.819193 
L 118.461789 112.817442 
L 119.336868 109.717974 
L 121.087028 108.341288 
L 121.962107 111.452292 
L 122.837187 109.873717 
L 123.712267 110.44285 
L 124.587346 111.396532 
L 125.462426 108.425888 
L 126.337506 114.332567 
L 127.212585 112.404052 
L 128.087665 108.175931 
L 128.962744 109.858335 
L 129.837824 111.898369 
L 130.712904 104.763056 
L 131.587983 102.155811 
L 132.463063 107.070352 
L 134.213222 102.367313 
L 135.088302 104.511176 
L 135.963382 101.180979 
L 136.838461 96.852876 
L 137.713541 101.711657 
L 138.58862 103.409442 
L 139.4637 98.277631 
L 140.33878 98.300704 
L 141.213859 101.061768 
L 142.088939 100.39073 
L 142.964019 101.440549 
L 143.839098 96.333734 
L 144.714178 100.10424 
L 145.589258 98.589116 
L 146.464337 99.896584 
L 147.339417 99.971571 
L 148.214496 104.997631 
L 149.089576 115.701562 
L 149.964656 115.043983 
L 150.839735 123.342558 
L 151.714815 109.398798 
L 152.589895 112.95588 
L 153.464974 110.315948 
L 154.340054 103.286386 
L 155.215134 109.577614 
L 156.090213 108.752755 
L 156.965293 111.048515 
L 157.840372 104.720755 
L 158.715452 104.449648 
L 160.465611 114.847863 
L 161.340691 106.860773 
L 162.215771 104.053562 
L 163.09085 108.016343 
L 163.96593 102.088515 
L 164.84101 107.024206 
L 165.716089 109.008481 
L 166.591169 107.679863 
L 167.466248 108.348979 
L 168.341328 102.936446 
L 169.216408 104.09394 
L 170.091487 103.930506 
L 170.966567 95.655004 
L 171.841647 99.429356 
L 172.716726 108.631622 
L 173.591806 105.268738 
L 174.466886 107.497202 
L 175.341965 93.532292 
L 176.217045 104.415039 
L 177.092124 101.452086 
L 177.967204 99.540876 
L 178.842284 98.100738 
L 179.717363 96.018403 
L 180.592443 101.673202 
L 181.467523 95.251227 
L 182.342602 96.227983 
L 183.217682 98.754472 
L 184.092762 94.322541 
L 184.967841 97.550833 
L 185.842921 97.022077 
L 186.718 96.987468 
L 187.59308 97.831554 
L 188.46816 100.850266 
L 190.218319 91.346129 
L 191.093399 96.406798 
L 191.968478 98.425682 
L 192.843558 98.256481 
L 193.718638 95.612704 
L 194.593717 91.794129 
L 195.468797 92.97085 
L 196.343877 97.010541 
L 197.218956 93.514987 
L 198.094036 90.542421 
L 198.969115 96.016481 
L 199.844195 91.736446 
L 200.719275 92.180601 
L 201.594354 97.179742 
L 202.469434 90.682781 
L 203.344514 88.944618 
L 204.219593 91.17885 
L 205.094673 87.256446 
L 205.969753 91.075021 
L 206.844832 85.641339 
L 207.719912 93.718798 
L 208.594991 84.497305 
L 209.470071 89.504137 
L 210.345151 89.857923 
L 211.22023 93.266953 
L 212.09531 90.00982 
L 212.97039 87.871725 
L 213.845469 86.835365 
L 214.720549 91.301906 
L 215.595629 86.400824 
L 216.470708 90.790455 
L 217.345788 90.000206 
L 219.971027 83.658987 
L 220.846106 93.251571 
L 221.721186 88.212052 
L 222.596266 88.683124 
L 223.471345 86.733459 
L 224.346425 85.227948 
L 225.221505 87.96594 
L 226.096584 94.174489 
L 226.971664 88.98115 
L 227.846743 86.996876 
L 228.721823 89.244567 
L 230.471982 84.474232 
L 231.347062 85.041442 
L 232.222142 101.377099 
L 233.097221 94.753236 
L 233.972301 109.221906 
L 234.847381 91.480721 
L 235.72246 94.560961 
L 236.59754 94.930129 
L 237.472619 100.186918 
L 238.347699 97.998833 
L 239.222779 97.593133 
L 240.097858 93.807245 
L 240.972938 95.958798 
L 241.848018 100.977167 
L 242.723097 99.054421 
L 243.598177 99.052498 
L 244.473257 90.027124 
L 245.348336 101.134833 
L 246.223416 92.495931 
L 247.098495 98.798695 
L 247.973575 97.952687 
L 248.848655 96.756738 
L 249.723734 98.769854 
L 250.598814 99.933116 
L 251.473894 90.986575 
L 252.348973 98.977511 
L 253.224053 98.398764 
L 254.099133 100.623382 
L 254.974212 88.433167 
L 255.849292 95.987639 
L 256.724371 90.898129 
L 257.599451 92.167142 
L 258.474531 100.123468 
L 259.34961 90.532807 
L 260.22469 95.460807 
L 261.09977 87.2103 
L 261.974849 96.208755 
L 262.849929 93.176584 
L 263.725009 91.78067 
L 264.600088 97.239348 
L 265.475168 91.444189 
L 266.350247 100.250369 
L 267.225327 97.185511 
L 268.100407 92.405562 
L 268.975486 93.261185 
L 269.850566 88.338953 
L 270.725646 86.646936 
L 271.600725 94.795536 
L 272.475805 92.707433 
L 273.350885 95.297373 
L 274.225964 95.143554 
L 275.101044 89.144584 
L 275.976123 91.66915 
L 276.851203 89.682953 
L 277.726283 87.202609 
L 278.601362 95.789597 
L 279.476442 86.737305 
L 280.351522 89.292635 
L 281.226601 85.216412 
L 282.101681 92.274815 
L 282.976761 95.489648 
L 283.85184 90.627021 
L 284.72692 95.381974 
L 285.602 91.434575 
L 286.477079 94.83976 
L 287.352159 90.819296 
L 288.227238 89.119588 
L 289.102318 88.715811 
L 289.977398 85.47406 
L 290.852477 91.809511 
L 291.727557 88.656206 
L 292.602637 87.825579 
L 293.477716 87.933253 
L 294.352796 90.705854 
L 295.227876 89.35224 
L 296.102955 87.771742 
L 296.978035 96.143382 
L 297.853114 84.914541 
L 298.728194 85.06067 
L 299.603274 85.093356 
L 300.478353 96.574077 
L 301.353433 91.769133 
L 302.228513 89.413768 
L 303.103592 87.416034 
L 303.978672 83.370575 
L 304.853752 85.972052 
L 305.728831 88.065923 
L 306.603911 87.446798 
L 307.47899 82.318833 
L 308.35407 82.389974 
L 309.22915 94.612876 
L 310.104229 85.683639 
L 310.979309 85.604807 
L 311.854389 91.96333 
L 312.729468 88.608137 
L 313.604548 86.104721 
L 314.479628 85.720172 
L 315.354707 86.887279 
L 316.229787 89.861768 
L 317.104866 84.32618 
L 317.979946 82.018884 
L 318.855026 87.48333 
L 319.730105 86.908429 
L 320.605185 89.819468 
L 321.480265 86.89497 
L 322.355344 86.170094 
L 323.230424 83.687828 
L 324.105504 84.647279 
L 324.980583 85.852841 
L 325.855663 85.591348 
L 326.730742 87.950558 
L 327.605822 85.914369 
L 328.480902 85.935519 
L 329.355981 87.990936 
L 330.231061 82.030421 
L 331.106141 78.959794 
L 331.98122 81.511279 
L 332.8563 81.195948 
L 333.73138 81.861219 
L 334.606459 86.120103 
L 335.481539 83.266747 
L 336.356618 77.240858 
L 337.231698 83.910867 
L 338.106778 80.945991 
L 338.981857 79.776961 
L 339.856937 77.323536 
L 340.732017 78.725219 
L 341.607096 82.297682 
L 342.482176 85.400996 
L 343.357256 82.924498 
L 344.232335 78.863657 
L 345.107415 77.165871 
L 345.982494 82.090026 
L 346.857574 79.626987 
L 347.732654 87.635227 
L 348.607733 80.030764 
L 349.482813 82.253459 
L 350.357893 78.175313 
L 351.232972 79.192446 
L 352.108052 83.047554 
L 352.983132 82.90527 
L 353.858211 82.499571 
L 354.733291 79.62891 
L 355.60837 77.665785 
L 356.48345 77.142798 
L 357.35853 83.739742 
L 358.233609 84.635742 
L 359.108689 81.532429 
L 359.983769 85.056824 
L 360.858848 75.977614 
L 361.733928 77.827296 
L 362.609008 78.38297 
L 363.484087 81.859296 
L 364.359167 75.714197 
L 365.234247 75.362335 
L 366.109326 78.32721 
L 366.984406 80.37109 
L 367.859485 80.307639 
L 368.734565 79.830798 
L 369.609645 77.806146 
L 370.484724 71.076532 
L 371.359804 76.298712 
L 372.234884 77.206249 
L 373.109963 82.630318 
L 373.985043 85.90091 
L 374.860123 84.453082 
L 375.735202 78.573322 
L 376.610282 73.474197 
L 377.485361 81.117116 
L 378.360441 79.311657 
L 379.235521 79.955777 
L 380.1106 82.334215 
L 380.98568 77.356223 
L 381.86076 73.091571 
L 382.735839 73.549185 
L 383.610919 79.80388 
L 384.485999 82.745682 
L 385.361078 77.194712 
L 386.236158 82.138094 
L 387.111237 83.820498 
L 387.986317 75.63921 
L 388.861397 79.253974 
L 389.736476 83.555159 
L 390.611556 78.217614 
L 391.486636 77.012052 
L 392.361715 76.950524 
L 393.236795 79.348189 
L 394.111875 78.044567 
L 394.986954 74.385579 
L 395.862034 83.320584 
L 396.737113 74.966249 
L 397.612193 78.388738 
L 398.487273 75.858403 
L 398.487273 75.858403 
" style="fill:none;stroke:#1f77b4;stroke-linecap:square;stroke-width:1.5;"/>
   </g>
   <g id="line2d_17">
    <path clip-path="url(#p05bd7f0631)" d="M 73.832727 207.926112 
L 74.707807 205.647657 
L 75.582887 163.914438 
L 76.457966 153.762335 
L 77.333046 146.292464 
L 78.208125 148.85933 
L 79.083205 126.680446 
L 79.958285 126.853494 
L 80.833364 111.279245 
L 81.708444 101.877013 
L 83.458603 93.16697 
L 84.333683 88.984996 
L 85.208763 116.21109 
L 86.083842 119.729717 
L 86.958922 100.781047 
L 87.834001 104.963021 
L 88.709081 100.261906 
L 89.584161 101.386712 
L 90.45924 92.965082 
L 92.2094 87.081476 
L 93.084479 85.466369 
L 93.959559 81.572807 
L 94.834639 82.755296 
L 95.709718 77.679245 
L 96.584798 74.737442 
L 97.459877 75.718043 
L 98.334957 72.228258 
L 99.210037 72.862764 
L 100.085116 69.978644 
L 100.960196 70.786197 
L 101.835276 68.421219 
L 102.710355 68.392378 
L 103.585435 67.844395 
L 105.335594 67.527142 
L 106.210674 88.984996 
L 107.085753 83.216755 
L 107.960833 78.256069 
L 108.835913 85.927828 
L 109.710992 80.707571 
L 110.586072 76.323708 
L 111.461152 79.553923 
L 112.336231 81.16903 
L 113.211311 73.526112 
L 114.086391 81.082506 
L 114.96147 71.247657 
L 115.83655 71.882163 
L 116.71163 68.824996 
L 117.586709 69.978644 
L 118.461789 70.036326 
L 119.336868 71.680275 
L 120.211948 72.747399 
L 121.087028 68.248172 
L 121.962107 70.036326 
L 123.712267 66.05624 
L 124.587346 65.219845 
L 125.462426 66.748429 
L 126.337506 64.441133 
L 127.212585 63.575897 
L 128.087665 63.518215 
L 128.962744 62.595296 
L 129.837824 62.912549 
L 130.712904 62.68182 
L 131.587983 61.528172 
L 132.463063 62.191519 
L 133.338143 62.249202 
L 134.213222 61.095554 
L 135.088302 61.701219 
L 135.963382 60.201476 
L 136.838461 59.740017 
L 138.58862 59.711176 
L 139.4637 60.143794 
L 141.213859 59.134352 
L 142.088939 59.018987 
L 142.964019 59.134352 
L 143.839098 58.903622 
L 144.714178 58.932464 
L 145.589258 58.701734 
L 147.339417 58.61521 
L 148.214496 67.844395 
L 149.089576 68.882678 
L 149.964656 295.488 
L 150.839735 71.651433 
L 151.714815 65.508258 
L 152.589895 66.315811 
L 153.464974 66.200446 
L 154.340054 70.699674 
L 155.215134 66.921476 
L 156.090213 65.364052 
L 156.965293 66.027399 
L 157.840372 67.296412 
L 158.715452 71.795639 
L 159.590532 67.354094 
L 160.465611 64.296927 
L 161.340691 64.181562 
L 162.215771 64.643021 
L 163.09085 61.412807 
L 163.96593 64.758386 
L 164.84101 63.17212 
L 165.716089 62.624137 
L 166.591169 64.556498 
L 167.466248 63.720103 
L 168.341328 63.229803 
L 169.216408 62.422249 
L 170.091487 62.479931 
L 170.966567 64.527657 
L 171.841647 62.508773 
L 172.716726 60.980189 
L 173.591806 60.028429 
L 175.341965 62.162678 
L 176.217045 60.922506 
L 177.092124 62.133837 
L 177.967204 61.701219 
L 178.842284 61.931948 
L 179.717363 60.489888 
L 180.592443 61.643536 
L 181.467523 59.941906 
L 182.342602 60.7783 
L 183.217682 60.288 
L 184.092762 59.307399 
L 184.967841 60.605253 
L 185.842921 59.018987 
L 186.718 59.682335 
L 187.59308 58.990146 
L 188.46816 59.509288 
L 189.343239 59.134352 
L 190.218319 59.855382 
L 191.093399 59.07667 
L 192.843558 58.644052 
L 194.593717 58.038386 
L 195.468797 59.018987 
L 196.343877 57.807657 
L 197.218956 57.951863 
L 198.094036 58.240275 
L 198.969115 56.884738 
L 199.844195 56.711691 
L 200.719275 57.201991 
L 201.594354 58.326798 
L 203.344514 57.028944 
L 204.219593 57.201991 
L 205.094673 57.086627 
L 205.969753 56.596326 
L 206.844832 56.884738 
L 207.719912 56.769373 
L 208.594991 56.538644 
L 209.470071 57.000103 
L 210.345151 56.596326 
L 211.22023 56.942421 
L 212.09531 56.480961 
L 212.97039 56.798215 
L 213.845469 55.759931 
L 215.595629 56.538644 
L 216.470708 56.077185 
L 217.345788 56.307914 
L 218.220867 55.673408 
L 219.095947 56.192549 
L 219.971027 55.759931 
L 220.846106 56.740532 
L 221.721186 55.759931 
L 222.596266 55.356155 
L 223.471345 55.702249 
L 224.346425 55.500361 
L 225.221505 55.673408 
L 226.096584 55.298472 
L 226.971664 55.356155 
L 227.846743 55.702249 
L 228.721823 55.500361 
L 229.596903 55.471519 
L 230.471982 55.846455 
L 231.347062 55.154266 
L 232.222142 61.903107 
L 233.097221 64.441133 
L 233.972301 60.662936 
L 234.847381 63.40285 
L 235.72246 62.393408 
L 237.472619 60.922506 
L 238.347699 60.605253 
L 239.222779 63.17212 
L 240.097858 59.7977 
L 240.972938 59.999588 
L 241.848018 60.807142 
L 242.723097 59.855382 
L 243.598177 60.086112 
L 244.473257 61.672378 
L 245.348336 59.740017 
L 246.223416 59.509288 
L 247.098495 61.49933 
L 247.973575 60.864824 
L 248.848655 62.047313 
L 249.723734 63.921991 
L 250.598814 60.980189 
L 251.473894 64.037356 
L 252.348973 58.644052 
L 253.224053 65.219845 
L 254.099133 59.653494 
L 254.974212 60.576412 
L 255.849292 60.51873 
L 256.724371 60.114953 
L 257.599451 58.61521 
L 258.474531 58.961305 
L 259.34961 60.835983 
L 260.22469 59.768858 
L 261.09977 59.56697 
L 261.974849 59.711176 
L 262.849929 61.643536 
L 263.725009 58.499845 
L 264.600088 59.278558 
L 265.475168 59.105511 
L 266.350247 60.7783 
L 267.225327 57.086627 
L 268.100407 59.884223 
L 268.975486 63.720103 
L 269.850566 58.84594 
L 270.725646 59.163193 
L 271.600725 58.701734 
L 272.475805 59.220876 
L 273.350885 58.903622 
L 274.225964 60.951348 
L 275.101044 60.201476 
L 275.976123 58.211433 
L 276.851203 58.84594 
L 277.726283 58.153751 
L 278.601362 58.759416 
L 279.476442 57.807657 
L 280.351522 58.182592 
L 281.226601 57.288515 
L 282.976761 59.249717 
L 283.85184 58.759416 
L 284.72692 58.413322 
L 285.602 58.557528 
L 286.477079 58.586369 
L 287.352159 57.634609 
L 288.227238 58.240275 
L 289.102318 57.807657 
L 289.977398 59.56697 
L 290.852477 57.115468 
L 291.727557 57.115468 
L 292.602637 58.442163 
L 293.477716 58.874781 
L 294.352796 57.980704 
L 295.227876 58.326798 
L 296.102955 58.297957 
L 296.978035 59.393923 
L 297.853114 56.740532 
L 298.728194 57.548086 
L 299.603274 59.163193 
L 300.478353 57.201991 
L 301.353433 57.201991 
L 302.228513 56.942421 
L 303.103592 57.519245 
L 303.978672 57.519245 
L 304.853752 56.596326 
L 305.728831 57.057785 
L 306.603911 56.394438 
L 307.47899 56.913579 
L 308.35407 56.827056 
L 309.22915 55.932979 
L 310.104229 56.942421 
L 310.979309 57.115468 
L 311.854389 56.798215 
L 312.729468 57.086627 
L 313.604548 55.846455 
L 314.479628 57.028944 
L 315.354707 55.702249 
L 316.229787 55.904137 
L 317.104866 56.538644 
L 317.979946 56.971262 
L 318.855026 55.73109 
L 319.730105 56.163708 
L 320.605185 56.307914 
L 321.480265 56.307914 
L 322.355344 55.702249 
L 323.230424 55.875296 
L 324.105504 55.875296 
L 324.980583 56.596326 
L 325.855663 56.221391 
L 326.730742 57.749974 
L 327.605822 55.327313 
L 328.480902 56.365597 
L 329.355981 56.250232 
L 330.231061 56.654009 
L 331.98122 55.298472 
L 332.8563 54.750489 
L 333.73138 56.336755 
L 335.481539 55.038901 
L 336.356618 55.558043 
L 337.231698 55.759931 
L 338.106778 56.336755 
L 338.981857 55.356155 
L 339.856937 55.384996 
L 340.732017 55.183107 
L 341.607096 55.846455 
L 342.482176 55.932979 
L 344.232335 55.558043 
L 345.107415 54.433236 
L 345.982494 54.548601 
L 346.857574 55.817614 
L 350.357893 54.894695 
L 351.232972 55.154266 
L 352.108052 54.51976 
L 352.983132 54.923536 
L 353.858211 54.837013 
L 354.733291 55.24079 
L 355.60837 55.269631 
L 356.48345 55.01006 
L 357.35853 55.038901 
L 358.233609 54.635124 
L 359.108689 55.01006 
L 359.983769 54.548601 
L 360.858848 54.77933 
L 361.733928 54.490918 
L 362.609008 54.462077 
L 363.484087 54.663966 
L 364.359167 54.231348 
L 365.234247 54.231348 
L 366.109326 54.000618 
L 366.984406 54.77933 
L 367.859485 54.375554 
L 368.734565 54.808172 
L 370.484724 54.029459 
L 371.359804 54.404395 
L 372.234884 54.260189 
L 373.109963 54.837013 
L 373.985043 54.77933 
L 374.860123 54.894695 
L 375.735202 54.692807 
L 376.610282 54.260189 
L 377.485361 54.77933 
L 378.360441 53.971777 
L 379.235521 54.404395 
L 380.1106 53.971777 
L 380.98568 53.914094 
L 382.735839 54.404395 
L 383.610919 54.0583 
L 386.236158 53.856412 
L 387.986317 54.260189 
L 388.861397 53.914094 
L 389.736476 54.635124 
L 390.611556 53.942936 
L 391.486636 53.568 
L 393.236795 54.548601 
L 394.111875 54.721648 
L 394.986954 54.260189 
L 395.862034 54.317871 
L 396.737113 54.144824 
L 397.612193 54.087142 
L 398.487273 53.914094 
L 398.487273 53.914094 
" style="fill:none;stroke:#ff7f0e;stroke-linecap:square;stroke-width:1.5;"/>
   </g>
   <g id="patch_3">
    <path d="M 57.6 307.584 
L 57.6 41.472 
" style="fill:none;stroke:#000000;stroke-linecap:square;stroke-linejoin:miter;stroke-width:0.8;"/>
   </g>
   <g id="patch_4">
    <path d="M 414.72 307.584 
L 414.72 41.472 
" style="fill:none;stroke:#000000;stroke-linecap:square;stroke-linejoin:miter;stroke-width:0.8;"/>
   </g>
   <g id="patch_5">
    <path d="M 57.6 307.584 
L 414.72 307.584 
" style="fill:none;stroke:#000000;stroke-linecap:square;stroke-linejoin:miter;stroke-width:0.8;"/>
   </g>
   <g id="patch_6">
    <path d="M 57.6 41.472 
L 414.72 41.472 
" style="fill:none;stroke:#000000;stroke-linecap:square;stroke-linejoin:miter;stroke-width:0.8;"/>
   </g>
   <g id="text_18">
    <!-- Training and Validation Accuracy -->
    <g transform="translate(138.4575 35.472)scale(0.12 -0.12)">
     <defs>
      <path d="M -19 4666 
L 3928 4666 
L 3928 4134 
L 2272 4134 
L 2272 0 
L 1638 0 
L 1638 4134 
L -19 4134 
L -19 4666 
z
" id="DejaVuSans-54" transform="scale(0.015625)"/>
      <path d="M 603 3500 
L 1178 3500 
L 1178 0 
L 603 0 
L 603 3500 
z
M 603 4863 
L 1178 4863 
L 1178 4134 
L 603 4134 
L 603 4863 
z
" id="DejaVuSans-69" transform="scale(0.015625)"/>
      <path d="M 3513 2113 
L 3513 0 
L 2938 0 
L 2938 2094 
Q 2938 2591 2744 2837 
Q 2550 3084 2163 3084 
Q 1697 3084 1428 2787 
Q 1159 2491 1159 1978 
L 1159 0 
L 581 0 
L 581 3500 
L 1159 3500 
L 1159 2956 
Q 1366 3272 1645 3428 
Q 1925 3584 2291 3584 
Q 2894 3584 3203 3211 
Q 3513 2838 3513 2113 
z
" id="DejaVuSans-6e" transform="scale(0.015625)"/>
      <path d="M 2906 1791 
Q 2906 2416 2648 2759 
Q 2391 3103 1925 3103 
Q 1463 3103 1205 2759 
Q 947 2416 947 1791 
Q 947 1169 1205 825 
Q 1463 481 1925 481 
Q 2391 481 2648 825 
Q 2906 1169 2906 1791 
z
M 3481 434 
Q 3481 -459 3084 -895 
Q 2688 -1331 1869 -1331 
Q 1566 -1331 1297 -1286 
Q 1028 -1241 775 -1147 
L 775 -588 
Q 1028 -725 1275 -790 
Q 1522 -856 1778 -856 
Q 2344 -856 2625 -561 
Q 2906 -266 2906 331 
L 2906 616 
Q 2728 306 2450 153 
Q 2172 0 1784 0 
Q 1141 0 747 490 
Q 353 981 353 1791 
Q 353 2603 747 3093 
Q 1141 3584 1784 3584 
Q 2172 3584 2450 3431 
Q 2728 3278 2906 2969 
L 2906 3500 
L 3481 3500 
L 3481 434 
z
" id="DejaVuSans-67" transform="scale(0.015625)"/>
      <path id="DejaVuSans-20" transform="scale(0.015625)"/>
      <path d="M 2906 2969 
L 2906 4863 
L 3481 4863 
L 3481 0 
L 2906 0 
L 2906 525 
Q 2725 213 2448 61 
Q 2172 -91 1784 -91 
Q 1150 -91 751 415 
Q 353 922 353 1747 
Q 353 2572 751 3078 
Q 1150 3584 1784 3584 
Q 2172 3584 2448 3432 
Q 2725 3281 2906 2969 
z
M 947 1747 
Q 947 1113 1208 752 
Q 1469 391 1925 391 
Q 2381 391 2643 752 
Q 2906 1113 2906 1747 
Q 2906 2381 2643 2742 
Q 2381 3103 1925 3103 
Q 1469 3103 1208 2742 
Q 947 2381 947 1747 
z
" id="DejaVuSans-64" transform="scale(0.015625)"/>
      <path d="M 1831 0 
L 50 4666 
L 709 4666 
L 2188 738 
L 3669 4666 
L 4325 4666 
L 2547 0 
L 1831 0 
z
" id="DejaVuSans-56" transform="scale(0.015625)"/>
      <path d="M 603 4863 
L 1178 4863 
L 1178 0 
L 603 0 
L 603 4863 
z
" id="DejaVuSans-6c" transform="scale(0.015625)"/>
      <path d="M 1172 4494 
L 1172 3500 
L 2356 3500 
L 2356 3053 
L 1172 3053 
L 1172 1153 
Q 1172 725 1289 603 
Q 1406 481 1766 481 
L 2356 481 
L 2356 0 
L 1766 0 
Q 1100 0 847 248 
Q 594 497 594 1153 
L 594 3053 
L 172 3053 
L 172 3500 
L 594 3500 
L 594 4494 
L 1172 4494 
z
" id="DejaVuSans-74" transform="scale(0.015625)"/>
     </defs>
     <use xlink:href="#DejaVuSans-54"/>
     <use x="46.333984" xlink:href="#DejaVuSans-72"/>
     <use x="87.447266" xlink:href="#DejaVuSans-61"/>
     <use x="148.726562" xlink:href="#DejaVuSans-69"/>
     <use x="176.509766" xlink:href="#DejaVuSans-6e"/>
     <use x="239.888672" xlink:href="#DejaVuSans-69"/>
     <use x="267.671875" xlink:href="#DejaVuSans-6e"/>
     <use x="331.050781" xlink:href="#DejaVuSans-67"/>
     <use x="394.527344" xlink:href="#DejaVuSans-20"/>
     <use x="426.314453" xlink:href="#DejaVuSans-61"/>
     <use x="487.59375" xlink:href="#DejaVuSans-6e"/>
     <use x="550.972656" xlink:href="#DejaVuSans-64"/>
     <use x="614.449219" xlink:href="#DejaVuSans-20"/>
     <use x="646.236328" xlink:href="#DejaVuSans-56"/>
     <use x="706.894531" xlink:href="#DejaVuSans-61"/>
     <use x="768.173828" xlink:href="#DejaVuSans-6c"/>
     <use x="795.957031" xlink:href="#DejaVuSans-69"/>
     <use x="823.740234" xlink:href="#DejaVuSans-64"/>
     <use x="887.216797" xlink:href="#DejaVuSans-61"/>
     <use x="948.496094" xlink:href="#DejaVuSans-74"/>
     <use x="987.705078" xlink:href="#DejaVuSans-69"/>
     <use x="1015.488281" xlink:href="#DejaVuSans-6f"/>
     <use x="1076.669922" xlink:href="#DejaVuSans-6e"/>
     <use x="1140.048828" xlink:href="#DejaVuSans-20"/>
     <use x="1171.835938" xlink:href="#DejaVuSans-41"/>
     <use x="1238.494141" xlink:href="#DejaVuSans-63"/>
     <use x="1293.474609" xlink:href="#DejaVuSans-63"/>
     <use x="1348.455078" xlink:href="#DejaVuSans-75"/>
     <use x="1411.833984" xlink:href="#DejaVuSans-72"/>
     <use x="1452.947266" xlink:href="#DejaVuSans-61"/>
     <use x="1514.226562" xlink:href="#DejaVuSans-63"/>
     <use x="1569.207031" xlink:href="#DejaVuSans-79"/>
    </g>
   </g>
   <g id="legend_1">
    <g id="patch_7">
     <path d="M 277.504375 302.584 
L 407.72 302.584 
Q 409.72 302.584 409.72 300.584 
L 409.72 272.22775 
Q 409.72 270.22775 407.72 270.22775 
L 277.504375 270.22775 
Q 275.504375 270.22775 275.504375 272.22775 
L 275.504375 300.584 
Q 275.504375 302.584 277.504375 302.584 
z
" style="fill:#ffffff;opacity:0.8;stroke:#cccccc;stroke-linejoin:miter;"/>
    </g>
    <g id="line2d_18">
     <path d="M 279.504375 278.326187 
L 299.504375 278.326187 
" style="fill:none;stroke:#1f77b4;stroke-linecap:square;stroke-width:1.5;"/>
    </g>
    <g id="line2d_19"/>
    <g id="text_19">
     <!-- Train Accuracy -->
     <g transform="translate(307.504375 281.826187)scale(0.1 -0.1)">
      <use xlink:href="#DejaVuSans-54"/>
      <use x="46.333984" xlink:href="#DejaVuSans-72"/>
      <use x="87.447266" xlink:href="#DejaVuSans-61"/>
      <use x="148.726562" xlink:href="#DejaVuSans-69"/>
      <use x="176.509766" xlink:href="#DejaVuSans-6e"/>
      <use x="239.888672" xlink:href="#DejaVuSans-20"/>
      <use x="271.675781" xlink:href="#DejaVuSans-41"/>
      <use x="338.333984" xlink:href="#DejaVuSans-63"/>
      <use x="393.314453" xlink:href="#DejaVuSans-63"/>
      <use x="448.294922" xlink:href="#DejaVuSans-75"/>
      <use x="511.673828" xlink:href="#DejaVuSans-72"/>
      <use x="552.787109" xlink:href="#DejaVuSans-61"/>
      <use x="614.066406" xlink:href="#DejaVuSans-63"/>
      <use x="669.046875" xlink:href="#DejaVuSans-79"/>
     </g>
    </g>
    <g id="line2d_20">
     <path d="M 279.504375 293.004312 
L 299.504375 293.004312 
" style="fill:none;stroke:#ff7f0e;stroke-linecap:square;stroke-width:1.5;"/>
    </g>
    <g id="line2d_21"/>
    <g id="text_20">
     <!-- Validation Accuracy -->
     <g transform="translate(307.504375 296.504312)scale(0.1 -0.1)">
      <use xlink:href="#DejaVuSans-56"/>
      <use x="60.658203" xlink:href="#DejaVuSans-61"/>
      <use x="121.9375" xlink:href="#DejaVuSans-6c"/>
      <use x="149.720703" xlink:href="#DejaVuSans-69"/>
      <use x="177.503906" xlink:href="#DejaVuSans-64"/>
      <use x="240.980469" xlink:href="#DejaVuSans-61"/>
      <use x="302.259766" xlink:href="#DejaVuSans-74"/>
      <use x="341.46875" xlink:href="#DejaVuSans-69"/>
      <use x="369.251953" xlink:href="#DejaVuSans-6f"/>
      <use x="430.433594" xlink:href="#DejaVuSans-6e"/>
      <use x="493.8125" xlink:href="#DejaVuSans-20"/>
      <use x="525.599609" xlink:href="#DejaVuSans-41"/>
      <use x="592.257812" xlink:href="#DejaVuSans-63"/>
      <use x="647.238281" xlink:href="#DejaVuSans-63"/>
      <use x="702.21875" xlink:href="#DejaVuSans-75"/>
      <use x="765.597656" xlink:href="#DejaVuSans-72"/>
      <use x="806.710938" xlink:href="#DejaVuSans-61"/>
      <use x="867.990234" xlink:href="#DejaVuSans-63"/>
      <use x="922.970703" xlink:href="#DejaVuSans-79"/>
     </g>
    </g>
   </g>
  </g>
 </g>
 <defs>
  <clipPath id="p05bd7f0631">
   <rect height="266.112" width="357.12" x="57.6" y="41.472"/>
  </clipPath>
 </defs>
</svg>
