<?xml version="1.0" encoding="utf-8" standalone="no"?>
<!DOCTYPE svg PUBLIC "-//W3C//DTD SVG 1.1//EN"
  "http://www.w3.org/Graphics/SVG/1.1/DTD/svg11.dtd">
<svg height="345.6pt" version="1.1" viewBox="0 0 460.8 345.6" width="460.8pt" xmlns="http://www.w3.org/2000/svg" xmlns:xlink="http://www.w3.org/1999/xlink">
 <metadata>
  <rdf:RDF xmlns:cc="http://creativecommons.org/ns#" xmlns:dc="http://purl.org/dc/elements/1.1/" xmlns:rdf="http://www.w3.org/1999/02/22-rdf-syntax-ns#">
   <cc:Work>
    <dc:type rdf:resource="http://purl.org/dc/dcmitype/StillImage"/>
    <dc:date>2023-08-18T14:48:34.989501</dc:date>
    <dc:format>image/svg+xml</dc:format>
    <dc:creator>
     <cc:Agent>
      <dc:title>Matplotlib v3.4.3, https://matplotlib.org/</dc:title>
     </cc:Agent>
    </dc:creator>
   </cc:Work>
  </rdf:RDF>
 </metadata>
 <defs>
  <style type="text/css">*{stroke-linecap:butt;stroke-linejoin:round;}</style>
 </defs>
 <g id="figure_1">
  <g id="patch_1">
   <path d="M 0 345.6 
L 460.8 345.6 
L 460.8 0 
L 0 0 
z
" style="fill:#ffffff;"/>
  </g>
  <g id="axes_1">
   <g id="patch_2">
    <path d="M 57.6 307.584 
L 414.72 307.584 
L 414.72 41.472 
L 57.6 41.472 
z
" style="fill:#ffffff;"/>
   </g>
   <g id="matplotlib.axis_1">
    <g id="xtick_1">
     <g id="line2d_1">
      <defs>
       <path d="M 0 0 
L 0 3.5 
" id="mfb883b96d4" style="stroke:#000000;stroke-width:0.8;"/>
      </defs>
      <g>
       <use style="stroke:#000000;stroke-width:0.8;" x="73.832727" xlink:href="#mfb883b96d4" y="307.584"/>
      </g>
     </g>
     <g id="text_1">
      <!-- 1 -->
      <g transform="translate(70.651477 322.182437)scale(0.1 -0.1)">
       <defs>
        <path d="M 794 531 
L 1825 531 
L 1825 4091 
L 703 3866 
L 703 4441 
L 1819 4666 
L 2450 4666 
L 2450 531 
L 3481 531 
L 3481 0 
L 794 0 
L 794 531 
z
" id="DejaVuSans-31" transform="scale(0.015625)"/>
       </defs>
       <use xlink:href="#DejaVuSans-31"/>
      </g>
     </g>
    </g>
    <g id="xtick_2">
     <g id="line2d_2">
      <g>
       <use style="stroke:#000000;stroke-width:0.8;" x="109.555234" xlink:href="#mfb883b96d4" y="307.584"/>
      </g>
     </g>
     <g id="text_2">
      <!-- 35 -->
      <g transform="translate(103.192734 322.182437)scale(0.1 -0.1)">
       <defs>
        <path d="M 2597 2516 
Q 3050 2419 3304 2112 
Q 3559 1806 3559 1356 
Q 3559 666 3084 287 
Q 2609 -91 1734 -91 
Q 1441 -91 1130 -33 
Q 819 25 488 141 
L 488 750 
Q 750 597 1062 519 
Q 1375 441 1716 441 
Q 2309 441 2620 675 
Q 2931 909 2931 1356 
Q 2931 1769 2642 2001 
Q 2353 2234 1838 2234 
L 1294 2234 
L 1294 2753 
L 1863 2753 
Q 2328 2753 2575 2939 
Q 2822 3125 2822 3475 
Q 2822 3834 2567 4026 
Q 2313 4219 1838 4219 
Q 1578 4219 1281 4162 
Q 984 4106 628 3988 
L 628 4550 
Q 988 4650 1302 4700 
Q 1616 4750 1894 4750 
Q 2613 4750 3031 4423 
Q 3450 4097 3450 3541 
Q 3450 3153 3228 2886 
Q 3006 2619 2597 2516 
z
" id="DejaVuSans-33" transform="scale(0.015625)"/>
        <path d="M 691 4666 
L 3169 4666 
L 3169 4134 
L 1269 4134 
L 1269 2991 
Q 1406 3038 1543 3061 
Q 1681 3084 1819 3084 
Q 2600 3084 3056 2656 
Q 3513 2228 3513 1497 
Q 3513 744 3044 326 
Q 2575 -91 1722 -91 
Q 1428 -91 1123 -41 
Q 819 9 494 109 
L 494 744 
Q 775 591 1075 516 
Q 1375 441 1709 441 
Q 2250 441 2565 725 
Q 2881 1009 2881 1497 
Q 2881 1984 2565 2268 
Q 2250 2553 1709 2553 
Q 1456 2553 1204 2497 
Q 953 2441 691 2322 
L 691 4666 
z
" id="DejaVuSans-35" transform="scale(0.015625)"/>
       </defs>
       <use xlink:href="#DejaVuSans-33"/>
       <use x="63.623047" xlink:href="#DejaVuSans-35"/>
      </g>
     </g>
    </g>
    <g id="xtick_3">
     <g id="line2d_3">
      <g>
       <use style="stroke:#000000;stroke-width:0.8;" x="145.277741" xlink:href="#mfb883b96d4" y="307.584"/>
      </g>
     </g>
     <g id="text_3">
      <!-- 69 -->
      <g transform="translate(138.915241 322.182437)scale(0.1 -0.1)">
       <defs>
        <path d="M 2113 2584 
Q 1688 2584 1439 2293 
Q 1191 2003 1191 1497 
Q 1191 994 1439 701 
Q 1688 409 2113 409 
Q 2538 409 2786 701 
Q 3034 994 3034 1497 
Q 3034 2003 2786 2293 
Q 2538 2584 2113 2584 
z
M 3366 4563 
L 3366 3988 
Q 3128 4100 2886 4159 
Q 2644 4219 2406 4219 
Q 1781 4219 1451 3797 
Q 1122 3375 1075 2522 
Q 1259 2794 1537 2939 
Q 1816 3084 2150 3084 
Q 2853 3084 3261 2657 
Q 3669 2231 3669 1497 
Q 3669 778 3244 343 
Q 2819 -91 2113 -91 
Q 1303 -91 875 529 
Q 447 1150 447 2328 
Q 447 3434 972 4092 
Q 1497 4750 2381 4750 
Q 2619 4750 2861 4703 
Q 3103 4656 3366 4563 
z
" id="DejaVuSans-36" transform="scale(0.015625)"/>
        <path d="M 703 97 
L 703 672 
Q 941 559 1184 500 
Q 1428 441 1663 441 
Q 2288 441 2617 861 
Q 2947 1281 2994 2138 
Q 2813 1869 2534 1725 
Q 2256 1581 1919 1581 
Q 1219 1581 811 2004 
Q 403 2428 403 3163 
Q 403 3881 828 4315 
Q 1253 4750 1959 4750 
Q 2769 4750 3195 4129 
Q 3622 3509 3622 2328 
Q 3622 1225 3098 567 
Q 2575 -91 1691 -91 
Q 1453 -91 1209 -44 
Q 966 3 703 97 
z
M 1959 2075 
Q 2384 2075 2632 2365 
Q 2881 2656 2881 3163 
Q 2881 3666 2632 3958 
Q 2384 4250 1959 4250 
Q 1534 4250 1286 3958 
Q 1038 3666 1038 3163 
Q 1038 2656 1286 2365 
Q 1534 2075 1959 2075 
z
" id="DejaVuSans-39" transform="scale(0.015625)"/>
       </defs>
       <use xlink:href="#DejaVuSans-36"/>
       <use x="63.623047" xlink:href="#DejaVuSans-39"/>
      </g>
     </g>
    </g>
    <g id="xtick_4">
     <g id="line2d_4">
      <g>
       <use style="stroke:#000000;stroke-width:0.8;" x="182.050909" xlink:href="#mfb883b96d4" y="307.584"/>
      </g>
     </g>
     <g id="text_4">
      <!-- 104 -->
      <g transform="translate(172.507159 322.182437)scale(0.1 -0.1)">
       <defs>
        <path d="M 2034 4250 
Q 1547 4250 1301 3770 
Q 1056 3291 1056 2328 
Q 1056 1369 1301 889 
Q 1547 409 2034 409 
Q 2525 409 2770 889 
Q 3016 1369 3016 2328 
Q 3016 3291 2770 3770 
Q 2525 4250 2034 4250 
z
M 2034 4750 
Q 2819 4750 3233 4129 
Q 3647 3509 3647 2328 
Q 3647 1150 3233 529 
Q 2819 -91 2034 -91 
Q 1250 -91 836 529 
Q 422 1150 422 2328 
Q 422 3509 836 4129 
Q 1250 4750 2034 4750 
z
" id="DejaVuSans-30" transform="scale(0.015625)"/>
        <path d="M 2419 4116 
L 825 1625 
L 2419 1625 
L 2419 4116 
z
M 2253 4666 
L 3047 4666 
L 3047 1625 
L 3713 1625 
L 3713 1100 
L 3047 1100 
L 3047 0 
L 2419 0 
L 2419 1100 
L 313 1100 
L 313 1709 
L 2253 4666 
z
" id="DejaVuSans-34" transform="scale(0.015625)"/>
       </defs>
       <use xlink:href="#DejaVuSans-31"/>
       <use x="63.623047" xlink:href="#DejaVuSans-30"/>
       <use x="127.246094" xlink:href="#DejaVuSans-34"/>
      </g>
     </g>
    </g>
    <g id="xtick_5">
     <g id="line2d_5">
      <g>
       <use style="stroke:#000000;stroke-width:0.8;" x="217.773416" xlink:href="#mfb883b96d4" y="307.584"/>
      </g>
     </g>
     <g id="text_5">
      <!-- 138 -->
      <g transform="translate(208.229666 322.182437)scale(0.1 -0.1)">
       <defs>
        <path d="M 2034 2216 
Q 1584 2216 1326 1975 
Q 1069 1734 1069 1313 
Q 1069 891 1326 650 
Q 1584 409 2034 409 
Q 2484 409 2743 651 
Q 3003 894 3003 1313 
Q 3003 1734 2745 1975 
Q 2488 2216 2034 2216 
z
M 1403 2484 
Q 997 2584 770 2862 
Q 544 3141 544 3541 
Q 544 4100 942 4425 
Q 1341 4750 2034 4750 
Q 2731 4750 3128 4425 
Q 3525 4100 3525 3541 
Q 3525 3141 3298 2862 
Q 3072 2584 2669 2484 
Q 3125 2378 3379 2068 
Q 3634 1759 3634 1313 
Q 3634 634 3220 271 
Q 2806 -91 2034 -91 
Q 1263 -91 848 271 
Q 434 634 434 1313 
Q 434 1759 690 2068 
Q 947 2378 1403 2484 
z
M 1172 3481 
Q 1172 3119 1398 2916 
Q 1625 2713 2034 2713 
Q 2441 2713 2670 2916 
Q 2900 3119 2900 3481 
Q 2900 3844 2670 4047 
Q 2441 4250 2034 4250 
Q 1625 4250 1398 4047 
Q 1172 3844 1172 3481 
z
" id="DejaVuSans-38" transform="scale(0.015625)"/>
       </defs>
       <use xlink:href="#DejaVuSans-31"/>
       <use x="63.623047" xlink:href="#DejaVuSans-33"/>
       <use x="127.246094" xlink:href="#DejaVuSans-38"/>
      </g>
     </g>
    </g>
    <g id="xtick_6">
     <g id="line2d_6">
      <g>
       <use style="stroke:#000000;stroke-width:0.8;" x="253.495922" xlink:href="#mfb883b96d4" y="307.584"/>
      </g>
     </g>
     <g id="text_6">
      <!-- 172 -->
      <g transform="translate(243.952172 322.182437)scale(0.1 -0.1)">
       <defs>
        <path d="M 525 4666 
L 3525 4666 
L 3525 4397 
L 1831 0 
L 1172 0 
L 2766 4134 
L 525 4134 
L 525 4666 
z
" id="DejaVuSans-37" transform="scale(0.015625)"/>
        <path d="M 1228 531 
L 3431 531 
L 3431 0 
L 469 0 
L 469 531 
Q 828 903 1448 1529 
Q 2069 2156 2228 2338 
Q 2531 2678 2651 2914 
Q 2772 3150 2772 3378 
Q 2772 3750 2511 3984 
Q 2250 4219 1831 4219 
Q 1534 4219 1204 4116 
Q 875 4013 500 3803 
L 500 4441 
Q 881 4594 1212 4672 
Q 1544 4750 1819 4750 
Q 2544 4750 2975 4387 
Q 3406 4025 3406 3419 
Q 3406 3131 3298 2873 
Q 3191 2616 2906 2266 
Q 2828 2175 2409 1742 
Q 1991 1309 1228 531 
z
" id="DejaVuSans-32" transform="scale(0.015625)"/>
       </defs>
       <use xlink:href="#DejaVuSans-31"/>
       <use x="63.623047" xlink:href="#DejaVuSans-37"/>
       <use x="127.246094" xlink:href="#DejaVuSans-32"/>
      </g>
     </g>
    </g>
    <g id="xtick_7">
     <g id="line2d_7">
      <g>
       <use style="stroke:#000000;stroke-width:0.8;" x="290.269091" xlink:href="#mfb883b96d4" y="307.584"/>
      </g>
     </g>
     <g id="text_7">
      <!-- 207 -->
      <g transform="translate(280.725341 322.182437)scale(0.1 -0.1)">
       <use xlink:href="#DejaVuSans-32"/>
       <use x="63.623047" xlink:href="#DejaVuSans-30"/>
       <use x="127.246094" xlink:href="#DejaVuSans-37"/>
      </g>
     </g>
    </g>
    <g id="xtick_8">
     <g id="line2d_8">
      <g>
       <use style="stroke:#000000;stroke-width:0.8;" x="325.991598" xlink:href="#mfb883b96d4" y="307.584"/>
      </g>
     </g>
     <g id="text_8">
      <!-- 241 -->
      <g transform="translate(316.447848 322.182437)scale(0.1 -0.1)">
       <use xlink:href="#DejaVuSans-32"/>
       <use x="63.623047" xlink:href="#DejaVuSans-34"/>
       <use x="127.246094" xlink:href="#DejaVuSans-31"/>
      </g>
     </g>
    </g>
    <g id="xtick_9">
     <g id="line2d_9">
      <g>
       <use style="stroke:#000000;stroke-width:0.8;" x="361.714104" xlink:href="#mfb883b96d4" y="307.584"/>
      </g>
     </g>
     <g id="text_9">
      <!-- 275 -->
      <g transform="translate(352.170354 322.182437)scale(0.1 -0.1)">
       <use xlink:href="#DejaVuSans-32"/>
       <use x="63.623047" xlink:href="#DejaVuSans-37"/>
       <use x="127.246094" xlink:href="#DejaVuSans-35"/>
      </g>
     </g>
    </g>
    <g id="xtick_10">
     <g id="line2d_10">
      <g>
       <use style="stroke:#000000;stroke-width:0.8;" x="398.487273" xlink:href="#mfb883b96d4" y="307.584"/>
      </g>
     </g>
     <g id="text_10">
      <!-- 310 -->
      <g transform="translate(388.943523 322.182437)scale(0.1 -0.1)">
       <use xlink:href="#DejaVuSans-33"/>
       <use x="63.623047" xlink:href="#DejaVuSans-31"/>
       <use x="127.246094" xlink:href="#DejaVuSans-30"/>
      </g>
     </g>
    </g>
    <g id="text_11">
     <!-- Epochs -->
     <g transform="translate(218.244375 335.860562)scale(0.1 -0.1)">
      <defs>
       <path d="M 628 4666 
L 3578 4666 
L 3578 4134 
L 1259 4134 
L 1259 2753 
L 3481 2753 
L 3481 2222 
L 1259 2222 
L 1259 531 
L 3634 531 
L 3634 0 
L 628 0 
L 628 4666 
z
" id="DejaVuSans-45" transform="scale(0.015625)"/>
       <path d="M 1159 525 
L 1159 -1331 
L 581 -1331 
L 581 3500 
L 1159 3500 
L 1159 2969 
Q 1341 3281 1617 3432 
Q 1894 3584 2278 3584 
Q 2916 3584 3314 3078 
Q 3713 2572 3713 1747 
Q 3713 922 3314 415 
Q 2916 -91 2278 -91 
Q 1894 -91 1617 61 
Q 1341 213 1159 525 
z
M 3116 1747 
Q 3116 2381 2855 2742 
Q 2594 3103 2138 3103 
Q 1681 3103 1420 2742 
Q 1159 2381 1159 1747 
Q 1159 1113 1420 752 
Q 1681 391 2138 391 
Q 2594 391 2855 752 
Q 3116 1113 3116 1747 
z
" id="DejaVuSans-70" transform="scale(0.015625)"/>
       <path d="M 1959 3097 
Q 1497 3097 1228 2736 
Q 959 2375 959 1747 
Q 959 1119 1226 758 
Q 1494 397 1959 397 
Q 2419 397 2687 759 
Q 2956 1122 2956 1747 
Q 2956 2369 2687 2733 
Q 2419 3097 1959 3097 
z
M 1959 3584 
Q 2709 3584 3137 3096 
Q 3566 2609 3566 1747 
Q 3566 888 3137 398 
Q 2709 -91 1959 -91 
Q 1206 -91 779 398 
Q 353 888 353 1747 
Q 353 2609 779 3096 
Q 1206 3584 1959 3584 
z
" id="DejaVuSans-6f" transform="scale(0.015625)"/>
       <path d="M 3122 3366 
L 3122 2828 
Q 2878 2963 2633 3030 
Q 2388 3097 2138 3097 
Q 1578 3097 1268 2742 
Q 959 2388 959 1747 
Q 959 1106 1268 751 
Q 1578 397 2138 397 
Q 2388 397 2633 464 
Q 2878 531 3122 666 
L 3122 134 
Q 2881 22 2623 -34 
Q 2366 -91 2075 -91 
Q 1284 -91 818 406 
Q 353 903 353 1747 
Q 353 2603 823 3093 
Q 1294 3584 2113 3584 
Q 2378 3584 2631 3529 
Q 2884 3475 3122 3366 
z
" id="DejaVuSans-63" transform="scale(0.015625)"/>
       <path d="M 3513 2113 
L 3513 0 
L 2938 0 
L 2938 2094 
Q 2938 2591 2744 2837 
Q 2550 3084 2163 3084 
Q 1697 3084 1428 2787 
Q 1159 2491 1159 1978 
L 1159 0 
L 581 0 
L 581 4863 
L 1159 4863 
L 1159 2956 
Q 1366 3272 1645 3428 
Q 1925 3584 2291 3584 
Q 2894 3584 3203 3211 
Q 3513 2838 3513 2113 
z
" id="DejaVuSans-68" transform="scale(0.015625)"/>
       <path d="M 2834 3397 
L 2834 2853 
Q 2591 2978 2328 3040 
Q 2066 3103 1784 3103 
Q 1356 3103 1142 2972 
Q 928 2841 928 2578 
Q 928 2378 1081 2264 
Q 1234 2150 1697 2047 
L 1894 2003 
Q 2506 1872 2764 1633 
Q 3022 1394 3022 966 
Q 3022 478 2636 193 
Q 2250 -91 1575 -91 
Q 1294 -91 989 -36 
Q 684 19 347 128 
L 347 722 
Q 666 556 975 473 
Q 1284 391 1588 391 
Q 1994 391 2212 530 
Q 2431 669 2431 922 
Q 2431 1156 2273 1281 
Q 2116 1406 1581 1522 
L 1381 1569 
Q 847 1681 609 1914 
Q 372 2147 372 2553 
Q 372 3047 722 3315 
Q 1072 3584 1716 3584 
Q 2034 3584 2315 3537 
Q 2597 3491 2834 3397 
z
" id="DejaVuSans-73" transform="scale(0.015625)"/>
      </defs>
      <use xlink:href="#DejaVuSans-45"/>
      <use x="63.183594" xlink:href="#DejaVuSans-70"/>
      <use x="126.660156" xlink:href="#DejaVuSans-6f"/>
      <use x="187.841797" xlink:href="#DejaVuSans-63"/>
      <use x="242.822266" xlink:href="#DejaVuSans-68"/>
      <use x="306.201172" xlink:href="#DejaVuSans-73"/>
     </g>
    </g>
   </g>
   <g id="matplotlib.axis_2">
    <g id="ytick_1">
     <g id="line2d_11">
      <defs>
       <path d="M 0 0 
L -3.5 0 
" id="m5aebe15384" style="stroke:#000000;stroke-width:0.8;"/>
      </defs>
      <g>
       <use style="stroke:#000000;stroke-width:0.8;" x="57.6" xlink:href="#m5aebe15384" y="286.768512"/>
      </g>
     </g>
     <g id="text_12">
      <!-- 30 -->
      <g transform="translate(37.875 290.567731)scale(0.1 -0.1)">
       <use xlink:href="#DejaVuSans-33"/>
       <use x="63.623047" xlink:href="#DejaVuSans-30"/>
      </g>
     </g>
    </g>
    <g id="ytick_2">
     <g id="line2d_12">
      <g>
       <use style="stroke:#000000;stroke-width:0.8;" x="57.6" xlink:href="#m5aebe15384" y="251.552488"/>
      </g>
     </g>
     <g id="text_13">
      <!-- 40 -->
      <g transform="translate(37.875 255.351707)scale(0.1 -0.1)">
       <use xlink:href="#DejaVuSans-34"/>
       <use x="63.623047" xlink:href="#DejaVuSans-30"/>
      </g>
     </g>
    </g>
    <g id="ytick_3">
     <g id="line2d_13">
      <g>
       <use style="stroke:#000000;stroke-width:0.8;" x="57.6" xlink:href="#m5aebe15384" y="216.336464"/>
      </g>
     </g>
     <g id="text_14">
      <!-- 50 -->
      <g transform="translate(37.875 220.135683)scale(0.1 -0.1)">
       <use xlink:href="#DejaVuSans-35"/>
       <use x="63.623047" xlink:href="#DejaVuSans-30"/>
      </g>
     </g>
    </g>
    <g id="ytick_4">
     <g id="line2d_14">
      <g>
       <use style="stroke:#000000;stroke-width:0.8;" x="57.6" xlink:href="#m5aebe15384" y="181.12044"/>
      </g>
     </g>
     <g id="text_15">
      <!-- 60 -->
      <g transform="translate(37.875 184.919658)scale(0.1 -0.1)">
       <use xlink:href="#DejaVuSans-36"/>
       <use x="63.623047" xlink:href="#DejaVuSans-30"/>
      </g>
     </g>
    </g>
    <g id="ytick_5">
     <g id="line2d_15">
      <g>
       <use style="stroke:#000000;stroke-width:0.8;" x="57.6" xlink:href="#m5aebe15384" y="145.904416"/>
      </g>
     </g>
     <g id="text_16">
      <!-- 70 -->
      <g transform="translate(37.875 149.703634)scale(0.1 -0.1)">
       <use xlink:href="#DejaVuSans-37"/>
       <use x="63.623047" xlink:href="#DejaVuSans-30"/>
      </g>
     </g>
    </g>
    <g id="ytick_6">
     <g id="line2d_16">
      <g>
       <use style="stroke:#000000;stroke-width:0.8;" x="57.6" xlink:href="#m5aebe15384" y="110.688391"/>
      </g>
     </g>
     <g id="text_17">
      <!-- 80 -->
      <g transform="translate(37.875 114.48761)scale(0.1 -0.1)">
       <use xlink:href="#DejaVuSans-38"/>
       <use x="63.623047" xlink:href="#DejaVuSans-30"/>
      </g>
     </g>
    </g>
    <g id="ytick_7">
     <g id="line2d_17">
      <g>
       <use style="stroke:#000000;stroke-width:0.8;" x="57.6" xlink:href="#m5aebe15384" y="75.472367"/>
      </g>
     </g>
     <g id="text_18">
      <!-- 90 -->
      <g transform="translate(37.875 79.271586)scale(0.1 -0.1)">
       <use xlink:href="#DejaVuSans-39"/>
       <use x="63.623047" xlink:href="#DejaVuSans-30"/>
      </g>
     </g>
    </g>
    <g id="text_19">
     <!-- Accuracy -->
     <g transform="translate(31.795312 197.356125)rotate(-90)scale(0.1 -0.1)">
      <defs>
       <path d="M 2188 4044 
L 1331 1722 
L 3047 1722 
L 2188 4044 
z
M 1831 4666 
L 2547 4666 
L 4325 0 
L 3669 0 
L 3244 1197 
L 1141 1197 
L 716 0 
L 50 0 
L 1831 4666 
z
" id="DejaVuSans-41" transform="scale(0.015625)"/>
       <path d="M 544 1381 
L 544 3500 
L 1119 3500 
L 1119 1403 
Q 1119 906 1312 657 
Q 1506 409 1894 409 
Q 2359 409 2629 706 
Q 2900 1003 2900 1516 
L 2900 3500 
L 3475 3500 
L 3475 0 
L 2900 0 
L 2900 538 
Q 2691 219 2414 64 
Q 2138 -91 1772 -91 
Q 1169 -91 856 284 
Q 544 659 544 1381 
z
M 1991 3584 
L 1991 3584 
z
" id="DejaVuSans-75" transform="scale(0.015625)"/>
       <path d="M 2631 2963 
Q 2534 3019 2420 3045 
Q 2306 3072 2169 3072 
Q 1681 3072 1420 2755 
Q 1159 2438 1159 1844 
L 1159 0 
L 581 0 
L 581 3500 
L 1159 3500 
L 1159 2956 
Q 1341 3275 1631 3429 
Q 1922 3584 2338 3584 
Q 2397 3584 2469 3576 
Q 2541 3569 2628 3553 
L 2631 2963 
z
" id="DejaVuSans-72" transform="scale(0.015625)"/>
       <path d="M 2194 1759 
Q 1497 1759 1228 1600 
Q 959 1441 959 1056 
Q 959 750 1161 570 
Q 1363 391 1709 391 
Q 2188 391 2477 730 
Q 2766 1069 2766 1631 
L 2766 1759 
L 2194 1759 
z
M 3341 1997 
L 3341 0 
L 2766 0 
L 2766 531 
Q 2569 213 2275 61 
Q 1981 -91 1556 -91 
Q 1019 -91 701 211 
Q 384 513 384 1019 
Q 384 1609 779 1909 
Q 1175 2209 1959 2209 
L 2766 2209 
L 2766 2266 
Q 2766 2663 2505 2880 
Q 2244 3097 1772 3097 
Q 1472 3097 1187 3025 
Q 903 2953 641 2809 
L 641 3341 
Q 956 3463 1253 3523 
Q 1550 3584 1831 3584 
Q 2591 3584 2966 3190 
Q 3341 2797 3341 1997 
z
" id="DejaVuSans-61" transform="scale(0.015625)"/>
       <path d="M 2059 -325 
Q 1816 -950 1584 -1140 
Q 1353 -1331 966 -1331 
L 506 -1331 
L 506 -850 
L 844 -850 
Q 1081 -850 1212 -737 
Q 1344 -625 1503 -206 
L 1606 56 
L 191 3500 
L 800 3500 
L 1894 763 
L 2988 3500 
L 3597 3500 
L 2059 -325 
z
" id="DejaVuSans-79" transform="scale(0.015625)"/>
      </defs>
      <use xlink:href="#DejaVuSans-41"/>
      <use x="66.658203" xlink:href="#DejaVuSans-63"/>
      <use x="121.638672" xlink:href="#DejaVuSans-63"/>
      <use x="176.619141" xlink:href="#DejaVuSans-75"/>
      <use x="239.998047" xlink:href="#DejaVuSans-72"/>
      <use x="281.111328" xlink:href="#DejaVuSans-61"/>
      <use x="342.390625" xlink:href="#DejaVuSans-63"/>
      <use x="397.371094" xlink:href="#DejaVuSans-79"/>
     </g>
    </g>
   </g>
   <g id="line2d_18">
    <path clip-path="url(#p9f24b541a0)" d="M 73.832727 295.488 
L 74.883389 251.07355 
L 75.934051 226.042 
L 76.984713 205.172984 
L 78.035375 193.213622 
L 79.086037 183.113667 
L 80.136699 171.450119 
L 81.187361 161.631892 
L 83.288685 151.405158 
L 84.339347 180.240039 
L 85.390009 171.421947 
L 86.440671 161.448769 
L 87.491333 157.01155 
L 88.541995 153.447688 
L 89.592657 148.693525 
L 90.643319 144.826805 
L 92.744643 137.973767 
L 93.795305 133.832362 
L 94.845966 131.444716 
L 95.896628 128.099194 
L 96.94729 123.380246 
L 97.997952 121.020773 
L 99.048614 119.281101 
L 100.099276 116.42156 
L 101.149938 115.12561 
L 102.2006 112.75205 
L 103.251262 111.230718 
L 104.301924 109.336096 
L 105.352586 137.579347 
L 106.403248 133.93801 
L 107.45391 133.642196 
L 108.504572 130.782655 
L 109.555234 128.775341 
L 110.605896 126.394738 
L 111.656558 124.880449 
L 112.70722 124.028221 
L 113.757882 121.654661 
L 114.808544 119.710737 
L 115.859206 119.076848 
L 116.909868 118.259836 
L 117.96053 116.322955 
L 120.061853 113.618365 
L 122.163177 110.55457 
L 123.213839 110.117892 
L 124.264501 107.399215 
L 125.315163 106.617419 
L 126.365825 105.293296 
L 127.416487 104.236816 
L 129.517811 101.053287 
L 130.568473 99.327702 
L 131.619135 97.904974 
L 132.669797 97.940191 
L 133.720459 95.686365 
L 134.771121 94.742576 
L 135.821783 92.946558 
L 136.872445 92.911342 
L 137.923107 91.629479 
L 138.973769 91.199843 
L 140.024431 89.58695 
L 143.176417 87.93884 
L 144.227079 87.650068 
L 145.277741 87.685284 
L 146.328402 86.473853 
L 147.379064 113.759229 
L 148.429726 113.32255 
L 149.480388 111.540619 
L 150.53105 112.068859 
L 151.581712 111.413841 
L 152.632374 110.160151 
L 153.683036 109.145929 
L 155.78436 107.582338 
L 156.835022 107.82885 
L 157.885684 107.194962 
L 158.936346 105.096087 
L 159.987008 105.45529 
L 161.03767 104.772099 
L 162.088332 103.912828 
L 163.138994 103.363458 
L 164.189656 101.799867 
L 165.240318 101.349102 
L 166.29098 102.271761 
L 167.341642 102.00412 
L 168.392304 100.898337 
L 169.442966 100.715213 
L 170.493628 99.877072 
L 171.544289 99.644646 
L 172.594951 98.644511 
L 173.645613 98.214876 
L 174.696275 96.735802 
L 175.746937 96.933012 
L 176.797599 96.841451 
L 177.848261 95.439853 
L 178.898923 95.094736 
L 179.949585 94.517193 
L 181.000247 94.355199 
L 182.050909 93.418453 
L 183.101571 92.86204 
L 184.152233 91.826689 
L 185.202895 91.706954 
L 187.304219 90.805424 
L 188.354881 89.382697 
L 189.405543 88.340302 
L 190.456205 88.579771 
L 191.506867 88.614987 
L 193.608191 86.058304 
L 194.658853 86.509069 
L 195.709515 85.184947 
L 196.760177 84.62149 
L 197.810838 84.64262 
L 199.912162 82.149325 
L 202.013486 81.142147 
L 204.11481 81.311184 
L 205.165472 79.85324 
L 206.216134 79.867327 
L 207.266796 79.381346 
L 208.317458 79.022142 
L 209.36812 77.613501 
L 210.418782 77.493767 
L 211.469444 77.261341 
L 212.520106 76.909181 
L 213.570768 76.20486 
L 214.62143 76.676755 
L 215.672092 75.430108 
L 216.722754 75.070904 
L 217.773416 74.20459 
L 218.824078 75.063861 
L 219.87474 74.852565 
L 220.925402 73.711566 
L 221.976064 73.267844 
L 223.026726 72.9509 
L 224.077387 73.598875 
L 225.128049 73.225585 
L 226.178711 73.267844 
L 228.280035 72.507178 
L 229.330697 72.802992 
L 230.381359 73.380535 
L 231.432021 101.243454 
L 232.482683 101.616743 
L 233.533345 100.849034 
L 234.584007 100.433485 
L 235.634669 101.08146 
L 236.685331 99.510825 
L 237.735993 98.306437 
L 238.786655 99.503782 
L 239.837317 97.820456 
L 240.887979 97.024574 
L 241.938641 97.552814 
L 242.989303 98.306437 
L 244.039965 96.799191 
L 245.090627 96.566766 
L 246.141289 97.940191 
L 247.191951 96.101914 
L 248.242613 96.15826 
L 249.293274 96.989358 
L 250.343936 95.78497 
L 251.394598 96.228692 
L 252.44526 94.897526 
L 253.495922 94.615798 
L 254.546584 93.862175 
L 255.597246 94.080514 
L 256.647908 95.03839 
L 257.69857 93.186027 
L 258.749232 93.545231 
L 259.799894 93.122638 
L 261.901218 93.080379 
L 262.95188 93.664965 
L 264.002542 93.355064 
L 265.053204 91.713997 
L 266.103866 93.094466 
L 267.154528 91.36888 
L 268.20519 91.516788 
L 269.255852 91.305492 
L 270.306514 90.713862 
L 271.357176 91.573133 
L 273.4585 90.460307 
L 274.509162 89.601036 
L 275.559823 90.64343 
L 276.610485 90.439177 
L 277.661147 89.608079 
L 278.711809 89.460172 
L 279.762471 89.868678 
L 280.813133 89.122098 
L 281.863795 89.910937 
L 282.914457 90.002499 
L 283.965119 88.854456 
L 285.015781 87.889537 
L 287.117105 88.086747 
L 288.167767 87.54442 
L 289.218429 88.086747 
L 290.269091 87.769803 
L 292.370415 85.656841 
L 293.421077 85.832921 
L 294.471739 85.396243 
L 296.573063 86.163952 
L 298.674387 84.825743 
L 299.725049 83.529793 
L 300.775711 85.290595 
L 301.826372 83.727003 
L 302.877034 85.184947 
L 303.927696 83.057899 
L 304.978358 83.205806 
L 306.02902 83.501621 
L 307.079682 83.057899 
L 308.130344 83.424145 
L 309.181006 82.26906 
L 310.231668 81.670387 
L 311.28233 82.494442 
L 312.332992 81.980288 
L 313.383654 80.811116 
L 314.434316 80.881548 
L 315.484978 81.261881 
L 316.53564 80.092709 
L 317.586302 80.487129 
L 318.636964 79.867327 
L 319.687626 79.923673 
L 320.738288 79.740549 
L 321.78895 78.627723 
L 322.839612 77.930446 
L 324.940936 77.923402 
L 325.991598 78.092439 
L 327.042259 77.268384 
L 328.092921 77.226125 
L 329.143583 76.40207 
L 330.194245 76.923267 
L 331.244907 76.430243 
L 332.295569 76.465459 
L 333.346231 75.768182 
L 334.396893 76.690842 
L 335.447555 76.233033 
L 336.498217 74.831435 
L 337.548879 74.155288 
L 338.599541 74.570837 
L 339.650203 74.782133 
L 340.700865 74.796219 
L 341.751527 73.549572 
L 342.802189 73.549572 
L 343.852851 72.450832 
L 344.903513 73.169239 
L 345.954175 73.232628 
L 347.004837 72.3804 
L 348.055499 72.633956 
L 349.106161 72.20432 
L 350.156823 71.239401 
L 351.207485 71.718339 
L 352.258147 71.436611 
L 353.308808 70.563253 
L 354.35947 71.415481 
L 355.410132 71.415481 
L 356.460794 70.225179 
L 357.511456 69.520859 
L 358.562118 70.359 
L 359.61278 69.612421 
L 360.663442 69.626507 
L 362.764766 69.091223 
L 363.815428 68.119261 
L 364.86609 67.893879 
L 365.916752 68.084045 
L 366.967414 67.175472 
L 368.018076 67.43607 
L 369.068738 68.541853 
L 370.1194 67.034608 
L 371.170062 67.753015 
L 372.220724 66.92896 
L 374.322048 67.231817 
L 375.37271 67.175472 
L 376.423372 66.083775 
L 377.474034 65.802047 
L 379.575357 66.893744 
L 380.626019 66.266898 
L 381.676681 65.964041 
L 382.727343 66.118991 
L 383.778005 65.618923 
L 385.879329 66.288028 
L 386.929991 65.837263 
L 387.980653 66.020386 
L 389.031315 65.795004 
L 390.081977 65.421714 
L 391.132639 65.252677 
L 393.233963 65.738658 
L 394.284625 65.407627 
L 395.335287 65.999257 
L 396.385949 65.316066 
L 397.436611 64.865301 
L 398.487273 65.527362 
L 398.487273 65.527362 
" style="fill:none;stroke:#1f77b4;stroke-linecap:square;stroke-width:1.5;"/>
   </g>
   <g id="line2d_19">
    <path clip-path="url(#p9f24b541a0)" d="M 73.832727 250.073415 
L 74.883389 227.499944 
L 75.934051 221.301923 
L 76.984713 172.915106 
L 79.086037 153.616725 
L 80.136699 139.882475 
L 81.187361 139.178155 
L 82.238023 116.569467 
L 83.288685 114.77345 
L 84.339347 142.030653 
L 85.390009 148.756913 
L 86.440671 133.367511 
L 87.491333 124.211345 
L 88.541995 126.042578 
L 89.592657 133.825319 
L 90.643319 114.667802 
L 91.693981 98.574079 
L 92.744643 105.194692 
L 93.795305 92.869083 
L 94.845966 91.319578 
L 95.896628 97.41195 
L 96.94729 84.628533 
L 97.997952 87.058439 
L 99.048614 83.290324 
L 100.099276 82.233844 
L 101.149938 84.382021 
L 102.2006 79.944802 
L 103.251262 78.993969 
L 104.301924 78.360081 
L 105.352586 125.690418 
L 106.403248 107.518949 
L 107.45391 101.673089 
L 108.504572 107.061141 
L 109.555234 111.040552 
L 110.605896 96.566766 
L 111.656558 90.791338 
L 112.70722 95.017261 
L 114.808544 83.008596 
L 115.859206 80.860419 
L 116.909868 82.762084 
L 117.96053 91.883034 
L 119.011192 77.690977 
L 120.061853 82.409924 
L 121.112515 80.789987 
L 122.163177 80.367394 
L 123.213839 87.727543 
L 124.264501 74.662399 
L 125.315163 77.338816 
L 126.365825 74.275022 
L 127.416487 75.894959 
L 128.467149 72.655085 
L 129.517811 74.134158 
L 130.568473 69.908235 
L 131.619135 68.746106 
L 132.669797 68.746106 
L 133.720459 66.140121 
L 134.771121 69.027835 
L 135.821783 69.168699 
L 136.872445 67.090953 
L 137.923107 65.330152 
L 138.973769 64.977992 
L 140.024431 64.379319 
L 141.075093 64.590616 
L 142.125755 65.541448 
L 143.176417 63.886295 
L 144.227079 64.027159 
L 145.277741 64.73148 
L 146.328402 63.639783 
L 147.379064 89.206617 
L 149.480388 79.627858 
L 150.53105 92.09433 
L 151.581712 76.141472 
L 152.632374 83.888997 
L 153.683036 80.613907 
L 154.733698 80.649123 
L 155.78436 83.712917 
L 156.835022 76.071039 
L 157.885684 74.838479 
L 158.936346 78.219217 
L 159.987008 80.473043 
L 162.088332 71.563388 
L 163.138994 77.831841 
L 164.189656 76.317552 
L 165.240318 79.275698 
L 166.29098 72.021197 
L 167.341642 73.077677 
L 168.392304 72.091629 
L 169.442966 72.091629 
L 170.493628 71.704252 
L 171.544289 70.542124 
L 172.594951 73.465054 
L 173.645613 70.225179 
L 174.696275 70.57734 
L 175.746937 67.372681 
L 176.797599 71.246444 
L 177.848261 70.330828 
L 178.898923 65.154072 
L 179.949585 76.634496 
L 181.000247 64.977992 
L 182.050909 70.647772 
L 183.101571 67.47833 
L 184.152233 66.914873 
L 185.202895 69.239131 
L 186.253557 63.252407 
L 187.304219 69.415211 
L 188.354881 64.484968 
L 189.405543 64.590616 
L 190.456205 63.745431 
L 191.506867 63.851079 
L 192.557529 66.140121 
L 193.608191 62.724166 
L 194.658853 62.372006 
L 195.709515 63.886295 
L 196.760177 62.653734 
L 197.810838 62.86503 
L 198.8615 62.724166 
L 199.912162 61.702902 
L 200.962824 60.857717 
L 202.013486 61.033797 
L 203.064148 59.167348 
L 204.11481 61.245093 
L 205.165472 60.012532 
L 206.216134 59.519508 
L 207.266796 59.695588 
L 208.317458 58.463027 
L 209.36812 58.427811 
L 211.469444 57.476979 
L 212.520106 57.371331 
L 213.570768 58.110867 
L 214.62143 57.512195 
L 217.773416 57.688275 
L 218.824078 57.230467 
L 219.87474 56.983954 
L 220.925402 57.547411 
L 221.976064 57.441763 
L 223.026726 56.737442 
L 224.077387 56.807874 
L 225.128049 56.455714 
L 226.178711 56.737442 
L 229.330697 57.124818 
L 230.381359 56.807874 
L 231.432021 80.578691 
L 232.482683 76.035823 
L 233.533345 79.733506 
L 234.584007 76.071039 
L 235.634669 69.239131 
L 236.685331 75.542799 
L 237.735993 78.043137 
L 238.786655 69.802587 
L 239.837317 74.063726 
L 240.887979 74.02851 
L 241.938641 71.28166 
L 242.989303 73.007245 
L 244.039965 72.443789 
L 245.090627 75.120207 
L 246.141289 68.35873 
L 247.191951 71.63382 
L 248.242613 72.338141 
L 249.293274 70.295612 
L 250.343936 67.443114 
L 251.394598 68.816538 
L 252.44526 71.211228 
L 253.495922 68.851755 
L 254.546584 66.844441 
L 255.597246 74.063726 
L 256.647908 68.71089 
L 257.69857 67.971354 
L 258.749232 70.260395 
L 259.799894 69.943451 
L 260.850556 66.457065 
L 261.901218 68.429162 
L 262.95188 68.781322 
L 264.002542 68.35873 
L 265.053204 66.280985 
L 266.103866 68.71089 
L 267.154528 65.224504 
L 268.20519 67.372681 
L 269.255852 65.400584 
L 270.306514 67.548762 
L 271.357176 65.893608 
L 272.407838 65.506232 
L 273.4585 66.597929 
L 274.509162 66.633145 
L 275.559823 67.302249 
L 276.610485 66.985305 
L 277.661147 65.893608 
L 278.711809 65.893608 
L 279.762471 70.75342 
L 280.813133 64.625832 
L 281.863795 68.35873 
L 282.914457 64.696264 
L 283.965119 63.815863 
L 285.015781 67.020521 
L 286.066443 68.077002 
L 287.117105 64.414535 
L 288.167767 67.407898 
L 289.218429 62.583302 
L 290.269091 66.879657 
L 291.319753 62.266358 
L 292.370415 63.181975 
L 293.421077 62.900246 
L 294.471739 68.393946 
L 295.522401 63.146759 
L 296.573063 62.900246 
L 297.623725 62.16071 
L 298.674387 62.970678 
L 299.725049 63.252407 
L 300.775711 65.61188 
L 301.826372 62.618518 
L 302.877034 62.372006 
L 303.927696 63.710215 
L 304.978358 64.414535 
L 306.02902 63.181975 
L 307.079682 62.970678 
L 308.130344 63.217191 
L 309.181006 68.393946 
L 310.231668 62.724166 
L 311.28233 62.618518 
L 312.332992 61.597254 
L 313.383654 63.252407 
L 314.434316 64.168023 
L 315.484978 60.787285 
L 316.53564 63.639783 
L 317.586302 60.822501 
L 318.636964 60.259045 
L 319.687626 59.9421 
L 320.738288 60.435125 
L 321.78895 60.329477 
L 322.839612 61.421173 
L 323.890274 59.272996 
L 324.940936 59.272996 
L 327.042259 61.702902 
L 328.092921 59.343428 
L 329.143583 60.822501 
L 330.194245 58.216515 
L 331.244907 58.498243 
L 333.346231 58.286947 
L 334.396893 59.202564 
L 335.447555 58.392595 
L 336.498217 58.040435 
L 337.548879 59.0617 
L 338.599541 57.864355 
L 339.650203 58.533459 
L 340.700865 57.970003 
L 341.751527 57.230467 
L 343.852851 57.476979 
L 344.903513 58.005219 
L 345.954175 57.547411 
L 347.004837 57.547411 
L 348.055499 58.357379 
L 349.106161 57.336115 
L 350.156823 57.300899 
L 352.258147 56.913522 
L 353.308808 56.455714 
L 354.35947 55.680961 
L 355.410132 56.033122 
L 356.460794 55.892258 
L 357.511456 55.399233 
L 358.562118 55.680961 
L 359.61278 55.469665 
L 362.764766 55.96269 
L 363.815428 55.434449 
L 365.916752 54.835777 
L 366.967414 55.540097 
L 368.018076 55.117505 
L 369.068738 55.328801 
L 370.1194 54.870993 
L 371.170062 54.976641 
L 372.220724 54.906209 
L 373.271386 54.589265 
L 374.322048 54.765345 
L 375.37271 54.27232 
L 376.423372 54.483617 
L 377.474034 53.955376 
L 381.676681 54.166672 
L 382.727343 54.061024 
L 385.879329 54.448401 
L 387.980653 53.814512 
L 389.031315 53.849728 
L 390.081977 53.568 
L 393.233963 53.884944 
L 395.335287 53.92016 
L 396.385949 53.849728 
L 397.436611 54.061024 
L 398.487273 53.74408 
L 398.487273 53.74408 
" style="fill:none;stroke:#ff7f0e;stroke-linecap:square;stroke-width:1.5;"/>
   </g>
   <g id="patch_3">
    <path d="M 57.6 307.584 
L 57.6 41.472 
" style="fill:none;stroke:#000000;stroke-linecap:square;stroke-linejoin:miter;stroke-width:0.8;"/>
   </g>
   <g id="patch_4">
    <path d="M 414.72 307.584 
L 414.72 41.472 
" style="fill:none;stroke:#000000;stroke-linecap:square;stroke-linejoin:miter;stroke-width:0.8;"/>
   </g>
   <g id="patch_5">
    <path d="M 57.6 307.584 
L 414.72 307.584 
" style="fill:none;stroke:#000000;stroke-linecap:square;stroke-linejoin:miter;stroke-width:0.8;"/>
   </g>
   <g id="patch_6">
    <path d="M 57.6 41.472 
L 414.72 41.472 
" style="fill:none;stroke:#000000;stroke-linecap:square;stroke-linejoin:miter;stroke-width:0.8;"/>
   </g>
   <g id="text_20">
    <!-- Training and Validation Accuracy -->
    <g transform="translate(138.4575 35.472)scale(0.12 -0.12)">
     <defs>
      <path d="M -19 4666 
L 3928 4666 
L 3928 4134 
L 2272 4134 
L 2272 0 
L 1638 0 
L 1638 4134 
L -19 4134 
L -19 4666 
z
" id="DejaVuSans-54" transform="scale(0.015625)"/>
      <path d="M 603 3500 
L 1178 3500 
L 1178 0 
L 603 0 
L 603 3500 
z
M 603 4863 
L 1178 4863 
L 1178 4134 
L 603 4134 
L 603 4863 
z
" id="DejaVuSans-69" transform="scale(0.015625)"/>
      <path d="M 3513 2113 
L 3513 0 
L 2938 0 
L 2938 2094 
Q 2938 2591 2744 2837 
Q 2550 3084 2163 3084 
Q 1697 3084 1428 2787 
Q 1159 2491 1159 1978 
L 1159 0 
L 581 0 
L 581 3500 
L 1159 3500 
L 1159 2956 
Q 1366 3272 1645 3428 
Q 1925 3584 2291 3584 
Q 2894 3584 3203 3211 
Q 3513 2838 3513 2113 
z
" id="DejaVuSans-6e" transform="scale(0.015625)"/>
      <path d="M 2906 1791 
Q 2906 2416 2648 2759 
Q 2391 3103 1925 3103 
Q 1463 3103 1205 2759 
Q 947 2416 947 1791 
Q 947 1169 1205 825 
Q 1463 481 1925 481 
Q 2391 481 2648 825 
Q 2906 1169 2906 1791 
z
M 3481 434 
Q 3481 -459 3084 -895 
Q 2688 -1331 1869 -1331 
Q 1566 -1331 1297 -1286 
Q 1028 -1241 775 -1147 
L 775 -588 
Q 1028 -725 1275 -790 
Q 1522 -856 1778 -856 
Q 2344 -856 2625 -561 
Q 2906 -266 2906 331 
L 2906 616 
Q 2728 306 2450 153 
Q 2172 0 1784 0 
Q 1141 0 747 490 
Q 353 981 353 1791 
Q 353 2603 747 3093 
Q 1141 3584 1784 3584 
Q 2172 3584 2450 3431 
Q 2728 3278 2906 2969 
L 2906 3500 
L 3481 3500 
L 3481 434 
z
" id="DejaVuSans-67" transform="scale(0.015625)"/>
      <path id="DejaVuSans-20" transform="scale(0.015625)"/>
      <path d="M 2906 2969 
L 2906 4863 
L 3481 4863 
L 3481 0 
L 2906 0 
L 2906 525 
Q 2725 213 2448 61 
Q 2172 -91 1784 -91 
Q 1150 -91 751 415 
Q 353 922 353 1747 
Q 353 2572 751 3078 
Q 1150 3584 1784 3584 
Q 2172 3584 2448 3432 
Q 2725 3281 2906 2969 
z
M 947 1747 
Q 947 1113 1208 752 
Q 1469 391 1925 391 
Q 2381 391 2643 752 
Q 2906 1113 2906 1747 
Q 2906 2381 2643 2742 
Q 2381 3103 1925 3103 
Q 1469 3103 1208 2742 
Q 947 2381 947 1747 
z
" id="DejaVuSans-64" transform="scale(0.015625)"/>
      <path d="M 1831 0 
L 50 4666 
L 709 4666 
L 2188 738 
L 3669 4666 
L 4325 4666 
L 2547 0 
L 1831 0 
z
" id="DejaVuSans-56" transform="scale(0.015625)"/>
      <path d="M 603 4863 
L 1178 4863 
L 1178 0 
L 603 0 
L 603 4863 
z
" id="DejaVuSans-6c" transform="scale(0.015625)"/>
      <path d="M 1172 4494 
L 1172 3500 
L 2356 3500 
L 2356 3053 
L 1172 3053 
L 1172 1153 
Q 1172 725 1289 603 
Q 1406 481 1766 481 
L 2356 481 
L 2356 0 
L 1766 0 
Q 1100 0 847 248 
Q 594 497 594 1153 
L 594 3053 
L 172 3053 
L 172 3500 
L 594 3500 
L 594 4494 
L 1172 4494 
z
" id="DejaVuSans-74" transform="scale(0.015625)"/>
     </defs>
     <use xlink:href="#DejaVuSans-54"/>
     <use x="46.333984" xlink:href="#DejaVuSans-72"/>
     <use x="87.447266" xlink:href="#DejaVuSans-61"/>
     <use x="148.726562" xlink:href="#DejaVuSans-69"/>
     <use x="176.509766" xlink:href="#DejaVuSans-6e"/>
     <use x="239.888672" xlink:href="#DejaVuSans-69"/>
     <use x="267.671875" xlink:href="#DejaVuSans-6e"/>
     <use x="331.050781" xlink:href="#DejaVuSans-67"/>
     <use x="394.527344" xlink:href="#DejaVuSans-20"/>
     <use x="426.314453" xlink:href="#DejaVuSans-61"/>
     <use x="487.59375" xlink:href="#DejaVuSans-6e"/>
     <use x="550.972656" xlink:href="#DejaVuSans-64"/>
     <use x="614.449219" xlink:href="#DejaVuSans-20"/>
     <use x="646.236328" xlink:href="#DejaVuSans-56"/>
     <use x="706.894531" xlink:href="#DejaVuSans-61"/>
     <use x="768.173828" xlink:href="#DejaVuSans-6c"/>
     <use x="795.957031" xlink:href="#DejaVuSans-69"/>
     <use x="823.740234" xlink:href="#DejaVuSans-64"/>
     <use x="887.216797" xlink:href="#DejaVuSans-61"/>
     <use x="948.496094" xlink:href="#DejaVuSans-74"/>
     <use x="987.705078" xlink:href="#DejaVuSans-69"/>
     <use x="1015.488281" xlink:href="#DejaVuSans-6f"/>
     <use x="1076.669922" xlink:href="#DejaVuSans-6e"/>
     <use x="1140.048828" xlink:href="#DejaVuSans-20"/>
     <use x="1171.835938" xlink:href="#DejaVuSans-41"/>
     <use x="1238.494141" xlink:href="#DejaVuSans-63"/>
     <use x="1293.474609" xlink:href="#DejaVuSans-63"/>
     <use x="1348.455078" xlink:href="#DejaVuSans-75"/>
     <use x="1411.833984" xlink:href="#DejaVuSans-72"/>
     <use x="1452.947266" xlink:href="#DejaVuSans-61"/>
     <use x="1514.226562" xlink:href="#DejaVuSans-63"/>
     <use x="1569.207031" xlink:href="#DejaVuSans-79"/>
    </g>
   </g>
   <g id="legend_1">
    <g id="patch_7">
     <path d="M 277.504375 302.584 
L 407.72 302.584 
Q 409.72 302.584 409.72 300.584 
L 409.72 272.22775 
Q 409.72 270.22775 407.72 270.22775 
L 277.504375 270.22775 
Q 275.504375 270.22775 275.504375 272.22775 
L 275.504375 300.584 
Q 275.504375 302.584 277.504375 302.584 
z
" style="fill:#ffffff;opacity:0.8;stroke:#cccccc;stroke-linejoin:miter;"/>
    </g>
    <g id="line2d_20">
     <path d="M 279.504375 278.326187 
L 299.504375 278.326187 
" style="fill:none;stroke:#1f77b4;stroke-linecap:square;stroke-width:1.5;"/>
    </g>
    <g id="line2d_21"/>
    <g id="text_21">
     <!-- Train Accuracy -->
     <g transform="translate(307.504375 281.826187)scale(0.1 -0.1)">
      <use xlink:href="#DejaVuSans-54"/>
      <use x="46.333984" xlink:href="#DejaVuSans-72"/>
      <use x="87.447266" xlink:href="#DejaVuSans-61"/>
      <use x="148.726562" xlink:href="#DejaVuSans-69"/>
      <use x="176.509766" xlink:href="#DejaVuSans-6e"/>
      <use x="239.888672" xlink:href="#DejaVuSans-20"/>
      <use x="271.675781" xlink:href="#DejaVuSans-41"/>
      <use x="338.333984" xlink:href="#DejaVuSans-63"/>
      <use x="393.314453" xlink:href="#DejaVuSans-63"/>
      <use x="448.294922" xlink:href="#DejaVuSans-75"/>
      <use x="511.673828" xlink:href="#DejaVuSans-72"/>
      <use x="552.787109" xlink:href="#DejaVuSans-61"/>
      <use x="614.066406" xlink:href="#DejaVuSans-63"/>
      <use x="669.046875" xlink:href="#DejaVuSans-79"/>
     </g>
    </g>
    <g id="line2d_22">
     <path d="M 279.504375 293.004312 
L 299.504375 293.004312 
" style="fill:none;stroke:#ff7f0e;stroke-linecap:square;stroke-width:1.5;"/>
    </g>
    <g id="line2d_23"/>
    <g id="text_22">
     <!-- Validation Accuracy -->
     <g transform="translate(307.504375 296.504312)scale(0.1 -0.1)">
      <use xlink:href="#DejaVuSans-56"/>
      <use x="60.658203" xlink:href="#DejaVuSans-61"/>
      <use x="121.9375" xlink:href="#DejaVuSans-6c"/>
      <use x="149.720703" xlink:href="#DejaVuSans-69"/>
      <use x="177.503906" xlink:href="#DejaVuSans-64"/>
      <use x="240.980469" xlink:href="#DejaVuSans-61"/>
      <use x="302.259766" xlink:href="#DejaVuSans-74"/>
      <use x="341.46875" xlink:href="#DejaVuSans-69"/>
      <use x="369.251953" xlink:href="#DejaVuSans-6f"/>
      <use x="430.433594" xlink:href="#DejaVuSans-6e"/>
      <use x="493.8125" xlink:href="#DejaVuSans-20"/>
      <use x="525.599609" xlink:href="#DejaVuSans-41"/>
      <use x="592.257812" xlink:href="#DejaVuSans-63"/>
      <use x="647.238281" xlink:href="#DejaVuSans-63"/>
      <use x="702.21875" xlink:href="#DejaVuSans-75"/>
      <use x="765.597656" xlink:href="#DejaVuSans-72"/>
      <use x="806.710938" xlink:href="#DejaVuSans-61"/>
      <use x="867.990234" xlink:href="#DejaVuSans-63"/>
      <use x="922.970703" xlink:href="#DejaVuSans-79"/>
     </g>
    </g>
   </g>
  </g>
 </g>
 <defs>
  <clipPath id="p9f24b541a0">
   <rect height="266.112" width="357.12" x="57.6" y="41.472"/>
  </clipPath>
 </defs>
</svg>
