<?xml version="1.0" encoding="utf-8" standalone="no"?>
<!DOCTYPE svg PUBLIC "-//W3C//DTD SVG 1.1//EN"
  "http://www.w3.org/Graphics/SVG/1.1/DTD/svg11.dtd">
<svg height="345.6pt" version="1.1" viewBox="0 0 460.8 345.6" width="460.8pt" xmlns="http://www.w3.org/2000/svg" xmlns:xlink="http://www.w3.org/1999/xlink">
 <metadata>
  <rdf:RDF xmlns:cc="http://creativecommons.org/ns#" xmlns:dc="http://purl.org/dc/elements/1.1/" xmlns:rdf="http://www.w3.org/1999/02/22-rdf-syntax-ns#">
   <cc:Work>
    <dc:type rdf:resource="http://purl.org/dc/dcmitype/StillImage"/>
    <dc:date>2023-08-30T16:40:29.451101</dc:date>
    <dc:format>image/svg+xml</dc:format>
    <dc:creator>
     <cc:Agent>
      <dc:title>Matplotlib v3.4.3, https://matplotlib.org/</dc:title>
     </cc:Agent>
    </dc:creator>
   </cc:Work>
  </rdf:RDF>
 </metadata>
 <defs>
  <style type="text/css">*{stroke-linecap:butt;stroke-linejoin:round;}</style>
 </defs>
 <g id="figure_1">
  <g id="patch_1">
   <path d="M 0 345.6 
L 460.8 345.6 
L 460.8 0 
L 0 0 
z
" style="fill:#ffffff;"/>
  </g>
  <g id="axes_1">
   <g id="patch_2">
    <path d="M 57.6 307.584 
L 414.72 307.584 
L 414.72 41.472 
L 57.6 41.472 
z
" style="fill:#ffffff;"/>
   </g>
   <g id="matplotlib.axis_1">
    <g id="xtick_1">
     <g id="line2d_1">
      <defs>
       <path d="M 0 0 
L 0 3.5 
" id="m7d3cc97400" style="stroke:#000000;stroke-width:0.8;"/>
      </defs>
      <g>
       <use style="stroke:#000000;stroke-width:0.8;" x="73.832727" xlink:href="#m7d3cc97400" y="307.584"/>
      </g>
     </g>
     <g id="text_1">
      <!-- 1 -->
      <g transform="translate(70.651477 322.182437)scale(0.1 -0.1)">
       <defs>
        <path d="M 794 531 
L 1825 531 
L 1825 4091 
L 703 3866 
L 703 4441 
L 1819 4666 
L 2450 4666 
L 2450 531 
L 3481 531 
L 3481 0 
L 794 0 
L 794 531 
z
" id="DejaVuSans-31" transform="scale(0.015625)"/>
       </defs>
       <use xlink:href="#DejaVuSans-31"/>
      </g>
     </g>
    </g>
    <g id="xtick_2">
     <g id="line2d_2">
      <g>
       <use style="stroke:#000000;stroke-width:0.8;" x="109.710992" xlink:href="#m7d3cc97400" y="307.584"/>
      </g>
     </g>
     <g id="text_2">
      <!-- 42 -->
      <g transform="translate(103.348492 322.182437)scale(0.1 -0.1)">
       <defs>
        <path d="M 2419 4116 
L 825 1625 
L 2419 1625 
L 2419 4116 
z
M 2253 4666 
L 3047 4666 
L 3047 1625 
L 3713 1625 
L 3713 1100 
L 3047 1100 
L 3047 0 
L 2419 0 
L 2419 1100 
L 313 1100 
L 313 1709 
L 2253 4666 
z
" id="DejaVuSans-34" transform="scale(0.015625)"/>
        <path d="M 1228 531 
L 3431 531 
L 3431 0 
L 469 0 
L 469 531 
Q 828 903 1448 1529 
Q 2069 2156 2228 2338 
Q 2531 2678 2651 2914 
Q 2772 3150 2772 3378 
Q 2772 3750 2511 3984 
Q 2250 4219 1831 4219 
Q 1534 4219 1204 4116 
Q 875 4013 500 3803 
L 500 4441 
Q 881 4594 1212 4672 
Q 1544 4750 1819 4750 
Q 2544 4750 2975 4387 
Q 3406 4025 3406 3419 
Q 3406 3131 3298 2873 
Q 3191 2616 2906 2266 
Q 2828 2175 2409 1742 
Q 1991 1309 1228 531 
z
" id="DejaVuSans-32" transform="scale(0.015625)"/>
       </defs>
       <use xlink:href="#DejaVuSans-34"/>
       <use x="63.623047" xlink:href="#DejaVuSans-32"/>
      </g>
     </g>
    </g>
    <g id="xtick_3">
     <g id="line2d_3">
      <g>
       <use style="stroke:#000000;stroke-width:0.8;" x="145.589258" xlink:href="#m7d3cc97400" y="307.584"/>
      </g>
     </g>
     <g id="text_3">
      <!-- 83 -->
      <g transform="translate(139.226758 322.182437)scale(0.1 -0.1)">
       <defs>
        <path d="M 2034 2216 
Q 1584 2216 1326 1975 
Q 1069 1734 1069 1313 
Q 1069 891 1326 650 
Q 1584 409 2034 409 
Q 2484 409 2743 651 
Q 3003 894 3003 1313 
Q 3003 1734 2745 1975 
Q 2488 2216 2034 2216 
z
M 1403 2484 
Q 997 2584 770 2862 
Q 544 3141 544 3541 
Q 544 4100 942 4425 
Q 1341 4750 2034 4750 
Q 2731 4750 3128 4425 
Q 3525 4100 3525 3541 
Q 3525 3141 3298 2862 
Q 3072 2584 2669 2484 
Q 3125 2378 3379 2068 
Q 3634 1759 3634 1313 
Q 3634 634 3220 271 
Q 2806 -91 2034 -91 
Q 1263 -91 848 271 
Q 434 634 434 1313 
Q 434 1759 690 2068 
Q 947 2378 1403 2484 
z
M 1172 3481 
Q 1172 3119 1398 2916 
Q 1625 2713 2034 2713 
Q 2441 2713 2670 2916 
Q 2900 3119 2900 3481 
Q 2900 3844 2670 4047 
Q 2441 4250 2034 4250 
Q 1625 4250 1398 4047 
Q 1172 3844 1172 3481 
z
" id="DejaVuSans-38" transform="scale(0.015625)"/>
        <path d="M 2597 2516 
Q 3050 2419 3304 2112 
Q 3559 1806 3559 1356 
Q 3559 666 3084 287 
Q 2609 -91 1734 -91 
Q 1441 -91 1130 -33 
Q 819 25 488 141 
L 488 750 
Q 750 597 1062 519 
Q 1375 441 1716 441 
Q 2309 441 2620 675 
Q 2931 909 2931 1356 
Q 2931 1769 2642 2001 
Q 2353 2234 1838 2234 
L 1294 2234 
L 1294 2753 
L 1863 2753 
Q 2328 2753 2575 2939 
Q 2822 3125 2822 3475 
Q 2822 3834 2567 4026 
Q 2313 4219 1838 4219 
Q 1578 4219 1281 4162 
Q 984 4106 628 3988 
L 628 4550 
Q 988 4650 1302 4700 
Q 1616 4750 1894 4750 
Q 2613 4750 3031 4423 
Q 3450 4097 3450 3541 
Q 3450 3153 3228 2886 
Q 3006 2619 2597 2516 
z
" id="DejaVuSans-33" transform="scale(0.015625)"/>
       </defs>
       <use xlink:href="#DejaVuSans-38"/>
       <use x="63.623047" xlink:href="#DejaVuSans-33"/>
      </g>
     </g>
    </g>
    <g id="xtick_4">
     <g id="line2d_4">
      <g>
       <use style="stroke:#000000;stroke-width:0.8;" x="181.467523" xlink:href="#m7d3cc97400" y="307.584"/>
      </g>
     </g>
     <g id="text_4">
      <!-- 124 -->
      <g transform="translate(171.923773 322.182437)scale(0.1 -0.1)">
       <use xlink:href="#DejaVuSans-31"/>
       <use x="63.623047" xlink:href="#DejaVuSans-32"/>
       <use x="127.246094" xlink:href="#DejaVuSans-34"/>
      </g>
     </g>
    </g>
    <g id="xtick_5">
     <g id="line2d_5">
      <g>
       <use style="stroke:#000000;stroke-width:0.8;" x="217.345788" xlink:href="#m7d3cc97400" y="307.584"/>
      </g>
     </g>
     <g id="text_5">
      <!-- 165 -->
      <g transform="translate(207.802038 322.182437)scale(0.1 -0.1)">
       <defs>
        <path d="M 2113 2584 
Q 1688 2584 1439 2293 
Q 1191 2003 1191 1497 
Q 1191 994 1439 701 
Q 1688 409 2113 409 
Q 2538 409 2786 701 
Q 3034 994 3034 1497 
Q 3034 2003 2786 2293 
Q 2538 2584 2113 2584 
z
M 3366 4563 
L 3366 3988 
Q 3128 4100 2886 4159 
Q 2644 4219 2406 4219 
Q 1781 4219 1451 3797 
Q 1122 3375 1075 2522 
Q 1259 2794 1537 2939 
Q 1816 3084 2150 3084 
Q 2853 3084 3261 2657 
Q 3669 2231 3669 1497 
Q 3669 778 3244 343 
Q 2819 -91 2113 -91 
Q 1303 -91 875 529 
Q 447 1150 447 2328 
Q 447 3434 972 4092 
Q 1497 4750 2381 4750 
Q 2619 4750 2861 4703 
Q 3103 4656 3366 4563 
z
" id="DejaVuSans-36" transform="scale(0.015625)"/>
        <path d="M 691 4666 
L 3169 4666 
L 3169 4134 
L 1269 4134 
L 1269 2991 
Q 1406 3038 1543 3061 
Q 1681 3084 1819 3084 
Q 2600 3084 3056 2656 
Q 3513 2228 3513 1497 
Q 3513 744 3044 326 
Q 2575 -91 1722 -91 
Q 1428 -91 1123 -41 
Q 819 9 494 109 
L 494 744 
Q 775 591 1075 516 
Q 1375 441 1709 441 
Q 2250 441 2565 725 
Q 2881 1009 2881 1497 
Q 2881 1984 2565 2268 
Q 2250 2553 1709 2553 
Q 1456 2553 1204 2497 
Q 953 2441 691 2322 
L 691 4666 
z
" id="DejaVuSans-35" transform="scale(0.015625)"/>
       </defs>
       <use xlink:href="#DejaVuSans-31"/>
       <use x="63.623047" xlink:href="#DejaVuSans-36"/>
       <use x="127.246094" xlink:href="#DejaVuSans-35"/>
      </g>
     </g>
    </g>
    <g id="xtick_6">
     <g id="line2d_6">
      <g>
       <use style="stroke:#000000;stroke-width:0.8;" x="254.099133" xlink:href="#m7d3cc97400" y="307.584"/>
      </g>
     </g>
     <g id="text_6">
      <!-- 207 -->
      <g transform="translate(244.555383 322.182437)scale(0.1 -0.1)">
       <defs>
        <path d="M 2034 4250 
Q 1547 4250 1301 3770 
Q 1056 3291 1056 2328 
Q 1056 1369 1301 889 
Q 1547 409 2034 409 
Q 2525 409 2770 889 
Q 3016 1369 3016 2328 
Q 3016 3291 2770 3770 
Q 2525 4250 2034 4250 
z
M 2034 4750 
Q 2819 4750 3233 4129 
Q 3647 3509 3647 2328 
Q 3647 1150 3233 529 
Q 2819 -91 2034 -91 
Q 1250 -91 836 529 
Q 422 1150 422 2328 
Q 422 3509 836 4129 
Q 1250 4750 2034 4750 
z
" id="DejaVuSans-30" transform="scale(0.015625)"/>
        <path d="M 525 4666 
L 3525 4666 
L 3525 4397 
L 1831 0 
L 1172 0 
L 2766 4134 
L 525 4134 
L 525 4666 
z
" id="DejaVuSans-37" transform="scale(0.015625)"/>
       </defs>
       <use xlink:href="#DejaVuSans-32"/>
       <use x="63.623047" xlink:href="#DejaVuSans-30"/>
       <use x="127.246094" xlink:href="#DejaVuSans-37"/>
      </g>
     </g>
    </g>
    <g id="xtick_7">
     <g id="line2d_7">
      <g>
       <use style="stroke:#000000;stroke-width:0.8;" x="289.977398" xlink:href="#m7d3cc97400" y="307.584"/>
      </g>
     </g>
     <g id="text_7">
      <!-- 248 -->
      <g transform="translate(280.433648 322.182437)scale(0.1 -0.1)">
       <use xlink:href="#DejaVuSans-32"/>
       <use x="63.623047" xlink:href="#DejaVuSans-34"/>
       <use x="127.246094" xlink:href="#DejaVuSans-38"/>
      </g>
     </g>
    </g>
    <g id="xtick_8">
     <g id="line2d_8">
      <g>
       <use style="stroke:#000000;stroke-width:0.8;" x="325.855663" xlink:href="#m7d3cc97400" y="307.584"/>
      </g>
     </g>
     <g id="text_8">
      <!-- 289 -->
      <g transform="translate(316.311913 322.182437)scale(0.1 -0.1)">
       <defs>
        <path d="M 703 97 
L 703 672 
Q 941 559 1184 500 
Q 1428 441 1663 441 
Q 2288 441 2617 861 
Q 2947 1281 2994 2138 
Q 2813 1869 2534 1725 
Q 2256 1581 1919 1581 
Q 1219 1581 811 2004 
Q 403 2428 403 3163 
Q 403 3881 828 4315 
Q 1253 4750 1959 4750 
Q 2769 4750 3195 4129 
Q 3622 3509 3622 2328 
Q 3622 1225 3098 567 
Q 2575 -91 1691 -91 
Q 1453 -91 1209 -44 
Q 966 3 703 97 
z
M 1959 2075 
Q 2384 2075 2632 2365 
Q 2881 2656 2881 3163 
Q 2881 3666 2632 3958 
Q 2384 4250 1959 4250 
Q 1534 4250 1286 3958 
Q 1038 3666 1038 3163 
Q 1038 2656 1286 2365 
Q 1534 2075 1959 2075 
z
" id="DejaVuSans-39" transform="scale(0.015625)"/>
       </defs>
       <use xlink:href="#DejaVuSans-32"/>
       <use x="63.623047" xlink:href="#DejaVuSans-38"/>
       <use x="127.246094" xlink:href="#DejaVuSans-39"/>
      </g>
     </g>
    </g>
    <g id="xtick_9">
     <g id="line2d_9">
      <g>
       <use style="stroke:#000000;stroke-width:0.8;" x="361.733928" xlink:href="#m7d3cc97400" y="307.584"/>
      </g>
     </g>
     <g id="text_9">
      <!-- 330 -->
      <g transform="translate(352.190178 322.182437)scale(0.1 -0.1)">
       <use xlink:href="#DejaVuSans-33"/>
       <use x="63.623047" xlink:href="#DejaVuSans-33"/>
       <use x="127.246094" xlink:href="#DejaVuSans-30"/>
      </g>
     </g>
    </g>
    <g id="xtick_10">
     <g id="line2d_10">
      <g>
       <use style="stroke:#000000;stroke-width:0.8;" x="398.487273" xlink:href="#m7d3cc97400" y="307.584"/>
      </g>
     </g>
     <g id="text_10">
      <!-- 372 -->
      <g transform="translate(388.943523 322.182437)scale(0.1 -0.1)">
       <use xlink:href="#DejaVuSans-33"/>
       <use x="63.623047" xlink:href="#DejaVuSans-37"/>
       <use x="127.246094" xlink:href="#DejaVuSans-32"/>
      </g>
     </g>
    </g>
    <g id="text_11">
     <!-- Epochs -->
     <g transform="translate(218.244375 335.860562)scale(0.1 -0.1)">
      <defs>
       <path d="M 628 4666 
L 3578 4666 
L 3578 4134 
L 1259 4134 
L 1259 2753 
L 3481 2753 
L 3481 2222 
L 1259 2222 
L 1259 531 
L 3634 531 
L 3634 0 
L 628 0 
L 628 4666 
z
" id="DejaVuSans-45" transform="scale(0.015625)"/>
       <path d="M 1159 525 
L 1159 -1331 
L 581 -1331 
L 581 3500 
L 1159 3500 
L 1159 2969 
Q 1341 3281 1617 3432 
Q 1894 3584 2278 3584 
Q 2916 3584 3314 3078 
Q 3713 2572 3713 1747 
Q 3713 922 3314 415 
Q 2916 -91 2278 -91 
Q 1894 -91 1617 61 
Q 1341 213 1159 525 
z
M 3116 1747 
Q 3116 2381 2855 2742 
Q 2594 3103 2138 3103 
Q 1681 3103 1420 2742 
Q 1159 2381 1159 1747 
Q 1159 1113 1420 752 
Q 1681 391 2138 391 
Q 2594 391 2855 752 
Q 3116 1113 3116 1747 
z
" id="DejaVuSans-70" transform="scale(0.015625)"/>
       <path d="M 1959 3097 
Q 1497 3097 1228 2736 
Q 959 2375 959 1747 
Q 959 1119 1226 758 
Q 1494 397 1959 397 
Q 2419 397 2687 759 
Q 2956 1122 2956 1747 
Q 2956 2369 2687 2733 
Q 2419 3097 1959 3097 
z
M 1959 3584 
Q 2709 3584 3137 3096 
Q 3566 2609 3566 1747 
Q 3566 888 3137 398 
Q 2709 -91 1959 -91 
Q 1206 -91 779 398 
Q 353 888 353 1747 
Q 353 2609 779 3096 
Q 1206 3584 1959 3584 
z
" id="DejaVuSans-6f" transform="scale(0.015625)"/>
       <path d="M 3122 3366 
L 3122 2828 
Q 2878 2963 2633 3030 
Q 2388 3097 2138 3097 
Q 1578 3097 1268 2742 
Q 959 2388 959 1747 
Q 959 1106 1268 751 
Q 1578 397 2138 397 
Q 2388 397 2633 464 
Q 2878 531 3122 666 
L 3122 134 
Q 2881 22 2623 -34 
Q 2366 -91 2075 -91 
Q 1284 -91 818 406 
Q 353 903 353 1747 
Q 353 2603 823 3093 
Q 1294 3584 2113 3584 
Q 2378 3584 2631 3529 
Q 2884 3475 3122 3366 
z
" id="DejaVuSans-63" transform="scale(0.015625)"/>
       <path d="M 3513 2113 
L 3513 0 
L 2938 0 
L 2938 2094 
Q 2938 2591 2744 2837 
Q 2550 3084 2163 3084 
Q 1697 3084 1428 2787 
Q 1159 2491 1159 1978 
L 1159 0 
L 581 0 
L 581 4863 
L 1159 4863 
L 1159 2956 
Q 1366 3272 1645 3428 
Q 1925 3584 2291 3584 
Q 2894 3584 3203 3211 
Q 3513 2838 3513 2113 
z
" id="DejaVuSans-68" transform="scale(0.015625)"/>
       <path d="M 2834 3397 
L 2834 2853 
Q 2591 2978 2328 3040 
Q 2066 3103 1784 3103 
Q 1356 3103 1142 2972 
Q 928 2841 928 2578 
Q 928 2378 1081 2264 
Q 1234 2150 1697 2047 
L 1894 2003 
Q 2506 1872 2764 1633 
Q 3022 1394 3022 966 
Q 3022 478 2636 193 
Q 2250 -91 1575 -91 
Q 1294 -91 989 -36 
Q 684 19 347 128 
L 347 722 
Q 666 556 975 473 
Q 1284 391 1588 391 
Q 1994 391 2212 530 
Q 2431 669 2431 922 
Q 2431 1156 2273 1281 
Q 2116 1406 1581 1522 
L 1381 1569 
Q 847 1681 609 1914 
Q 372 2147 372 2553 
Q 372 3047 722 3315 
Q 1072 3584 1716 3584 
Q 2034 3584 2315 3537 
Q 2597 3491 2834 3397 
z
" id="DejaVuSans-73" transform="scale(0.015625)"/>
      </defs>
      <use xlink:href="#DejaVuSans-45"/>
      <use x="63.183594" xlink:href="#DejaVuSans-70"/>
      <use x="126.660156" xlink:href="#DejaVuSans-6f"/>
      <use x="187.841797" xlink:href="#DejaVuSans-63"/>
      <use x="242.822266" xlink:href="#DejaVuSans-68"/>
      <use x="306.201172" xlink:href="#DejaVuSans-73"/>
     </g>
    </g>
   </g>
   <g id="matplotlib.axis_2">
    <g id="ytick_1">
     <g id="line2d_11">
      <defs>
       <path d="M 0 0 
L -3.5 0 
" id="m30934dc132" style="stroke:#000000;stroke-width:0.8;"/>
      </defs>
      <g>
       <use style="stroke:#000000;stroke-width:0.8;" x="57.6" xlink:href="#m30934dc132" y="299.595895"/>
      </g>
     </g>
     <g id="text_12">
      <!-- 20 -->
      <g transform="translate(37.875 303.395114)scale(0.1 -0.1)">
       <use xlink:href="#DejaVuSans-32"/>
       <use x="63.623047" xlink:href="#DejaVuSans-30"/>
      </g>
     </g>
    </g>
    <g id="ytick_2">
     <g id="line2d_12">
      <g>
       <use style="stroke:#000000;stroke-width:0.8;" x="57.6" xlink:href="#m30934dc132" y="267.751746"/>
      </g>
     </g>
     <g id="text_13">
      <!-- 30 -->
      <g transform="translate(37.875 271.550965)scale(0.1 -0.1)">
       <use xlink:href="#DejaVuSans-33"/>
       <use x="63.623047" xlink:href="#DejaVuSans-30"/>
      </g>
     </g>
    </g>
    <g id="ytick_3">
     <g id="line2d_13">
      <g>
       <use style="stroke:#000000;stroke-width:0.8;" x="57.6" xlink:href="#m30934dc132" y="235.907597"/>
      </g>
     </g>
     <g id="text_14">
      <!-- 40 -->
      <g transform="translate(37.875 239.706816)scale(0.1 -0.1)">
       <use xlink:href="#DejaVuSans-34"/>
       <use x="63.623047" xlink:href="#DejaVuSans-30"/>
      </g>
     </g>
    </g>
    <g id="ytick_4">
     <g id="line2d_14">
      <g>
       <use style="stroke:#000000;stroke-width:0.8;" x="57.6" xlink:href="#m30934dc132" y="204.063448"/>
      </g>
     </g>
     <g id="text_15">
      <!-- 50 -->
      <g transform="translate(37.875 207.862667)scale(0.1 -0.1)">
       <use xlink:href="#DejaVuSans-35"/>
       <use x="63.623047" xlink:href="#DejaVuSans-30"/>
      </g>
     </g>
    </g>
    <g id="ytick_5">
     <g id="line2d_15">
      <g>
       <use style="stroke:#000000;stroke-width:0.8;" x="57.6" xlink:href="#m30934dc132" y="172.219299"/>
      </g>
     </g>
     <g id="text_16">
      <!-- 60 -->
      <g transform="translate(37.875 176.018518)scale(0.1 -0.1)">
       <use xlink:href="#DejaVuSans-36"/>
       <use x="63.623047" xlink:href="#DejaVuSans-30"/>
      </g>
     </g>
    </g>
    <g id="ytick_6">
     <g id="line2d_16">
      <g>
       <use style="stroke:#000000;stroke-width:0.8;" x="57.6" xlink:href="#m30934dc132" y="140.37515"/>
      </g>
     </g>
     <g id="text_17">
      <!-- 70 -->
      <g transform="translate(37.875 144.174369)scale(0.1 -0.1)">
       <use xlink:href="#DejaVuSans-37"/>
       <use x="63.623047" xlink:href="#DejaVuSans-30"/>
      </g>
     </g>
    </g>
    <g id="ytick_7">
     <g id="line2d_17">
      <g>
       <use style="stroke:#000000;stroke-width:0.8;" x="57.6" xlink:href="#m30934dc132" y="108.531001"/>
      </g>
     </g>
     <g id="text_18">
      <!-- 80 -->
      <g transform="translate(37.875 112.33022)scale(0.1 -0.1)">
       <use xlink:href="#DejaVuSans-38"/>
       <use x="63.623047" xlink:href="#DejaVuSans-30"/>
      </g>
     </g>
    </g>
    <g id="ytick_8">
     <g id="line2d_18">
      <g>
       <use style="stroke:#000000;stroke-width:0.8;" x="57.6" xlink:href="#m30934dc132" y="76.686852"/>
      </g>
     </g>
     <g id="text_19">
      <!-- 90 -->
      <g transform="translate(37.875 80.486071)scale(0.1 -0.1)">
       <use xlink:href="#DejaVuSans-39"/>
       <use x="63.623047" xlink:href="#DejaVuSans-30"/>
      </g>
     </g>
    </g>
    <g id="ytick_9">
     <g id="line2d_19">
      <g>
       <use style="stroke:#000000;stroke-width:0.8;" x="57.6" xlink:href="#m30934dc132" y="44.842703"/>
      </g>
     </g>
     <g id="text_20">
      <!-- 100 -->
      <g transform="translate(31.5125 48.641922)scale(0.1 -0.1)">
       <use xlink:href="#DejaVuSans-31"/>
       <use x="63.623047" xlink:href="#DejaVuSans-30"/>
       <use x="127.246094" xlink:href="#DejaVuSans-30"/>
      </g>
     </g>
    </g>
    <g id="text_21">
     <!-- Accuracy -->
     <g transform="translate(25.432812 197.356125)rotate(-90)scale(0.1 -0.1)">
      <defs>
       <path d="M 2188 4044 
L 1331 1722 
L 3047 1722 
L 2188 4044 
z
M 1831 4666 
L 2547 4666 
L 4325 0 
L 3669 0 
L 3244 1197 
L 1141 1197 
L 716 0 
L 50 0 
L 1831 4666 
z
" id="DejaVuSans-41" transform="scale(0.015625)"/>
       <path d="M 544 1381 
L 544 3500 
L 1119 3500 
L 1119 1403 
Q 1119 906 1312 657 
Q 1506 409 1894 409 
Q 2359 409 2629 706 
Q 2900 1003 2900 1516 
L 2900 3500 
L 3475 3500 
L 3475 0 
L 2900 0 
L 2900 538 
Q 2691 219 2414 64 
Q 2138 -91 1772 -91 
Q 1169 -91 856 284 
Q 544 659 544 1381 
z
M 1991 3584 
L 1991 3584 
z
" id="DejaVuSans-75" transform="scale(0.015625)"/>
       <path d="M 2631 2963 
Q 2534 3019 2420 3045 
Q 2306 3072 2169 3072 
Q 1681 3072 1420 2755 
Q 1159 2438 1159 1844 
L 1159 0 
L 581 0 
L 581 3500 
L 1159 3500 
L 1159 2956 
Q 1341 3275 1631 3429 
Q 1922 3584 2338 3584 
Q 2397 3584 2469 3576 
Q 2541 3569 2628 3553 
L 2631 2963 
z
" id="DejaVuSans-72" transform="scale(0.015625)"/>
       <path d="M 2194 1759 
Q 1497 1759 1228 1600 
Q 959 1441 959 1056 
Q 959 750 1161 570 
Q 1363 391 1709 391 
Q 2188 391 2477 730 
Q 2766 1069 2766 1631 
L 2766 1759 
L 2194 1759 
z
M 3341 1997 
L 3341 0 
L 2766 0 
L 2766 531 
Q 2569 213 2275 61 
Q 1981 -91 1556 -91 
Q 1019 -91 701 211 
Q 384 513 384 1019 
Q 384 1609 779 1909 
Q 1175 2209 1959 2209 
L 2766 2209 
L 2766 2266 
Q 2766 2663 2505 2880 
Q 2244 3097 1772 3097 
Q 1472 3097 1187 3025 
Q 903 2953 641 2809 
L 641 3341 
Q 956 3463 1253 3523 
Q 1550 3584 1831 3584 
Q 2591 3584 2966 3190 
Q 3341 2797 3341 1997 
z
" id="DejaVuSans-61" transform="scale(0.015625)"/>
       <path d="M 2059 -325 
Q 1816 -950 1584 -1140 
Q 1353 -1331 966 -1331 
L 506 -1331 
L 506 -850 
L 844 -850 
Q 1081 -850 1212 -737 
Q 1344 -625 1503 -206 
L 1606 56 
L 191 3500 
L 800 3500 
L 1894 763 
L 2988 3500 
L 3597 3500 
L 2059 -325 
z
" id="DejaVuSans-79" transform="scale(0.015625)"/>
      </defs>
      <use xlink:href="#DejaVuSans-41"/>
      <use x="66.658203" xlink:href="#DejaVuSans-63"/>
      <use x="121.638672" xlink:href="#DejaVuSans-63"/>
      <use x="176.619141" xlink:href="#DejaVuSans-75"/>
      <use x="239.998047" xlink:href="#DejaVuSans-72"/>
      <use x="281.111328" xlink:href="#DejaVuSans-61"/>
      <use x="342.390625" xlink:href="#DejaVuSans-63"/>
      <use x="397.371094" xlink:href="#DejaVuSans-79"/>
     </g>
    </g>
   </g>
   <g id="line2d_20">
    <path clip-path="url(#pbca741ed63)" d="M 73.832727 289.558619 
L 74.707807 253.368806 
L 75.582887 224.267499 
L 76.457966 211.629618 
L 77.333046 197.331595 
L 79.083205 177.004413 
L 79.958285 169.431875 
L 80.833364 165.750691 
L 81.708444 153.369686 
L 82.583524 155.632743 
L 83.458603 154.573395 
L 84.333683 177.329224 
L 85.208763 169.571989 
L 86.083842 174.883593 
L 86.958922 158.452012 
L 87.834001 161.56637 
L 88.709081 153.414268 
L 89.584161 153.269908 
L 90.45924 155.237876 
L 91.33432 145.973352 
L 92.2094 143.623253 
L 93.084479 143.672081 
L 93.959559 146.574145 
L 94.834639 139.413457 
L 95.709718 134.11459 
L 96.584798 139.309433 
L 97.459877 133.81101 
L 98.334957 125.378679 
L 99.210037 129.855966 
L 100.085116 129.023773 
L 100.960196 123.478645 
L 101.835276 120.786753 
L 102.710355 128.333816 
L 103.585435 117.672395 
L 104.460515 118.780571 
L 105.335594 138.371092 
L 106.210674 139.211777 
L 107.085753 134.543425 
L 107.960833 131.92159 
L 108.835913 137.950749 
L 109.710992 125.739579 
L 110.586072 134.488229 
L 111.461152 137.912536 
L 112.336231 125.293761 
L 113.211311 130.242342 
L 114.086391 123.12199 
L 114.96147 120.78463 
L 116.71163 128.85606 
L 117.586709 121.875823 
L 118.461789 125.947628 
L 119.336868 122.587009 
L 120.211948 124.73755 
L 121.962107 118.40481 
L 122.837187 113.772548 
L 123.712267 129.272157 
L 124.587346 114.352112 
L 125.462426 114.838266 
L 126.337506 122.113592 
L 127.212585 113.176001 
L 128.087665 111.759998 
L 128.962744 110.861993 
L 129.837824 108.932237 
L 130.712904 113.798023 
L 131.587983 112.396881 
L 132.463063 111.541335 
L 133.338143 109.163638 
L 134.213222 114.161047 
L 135.088302 104.102542 
L 135.963382 103.157832 
L 136.838461 108.906762 
L 138.58862 104.784006 
L 139.4637 103.529347 
L 140.33878 103.058053 
L 141.213859 104.374278 
L 142.088939 100.958463 
L 142.964019 104.232041 
L 143.839098 108.567091 
L 144.714178 106.456886 
L 145.589258 102.663186 
L 146.464337 100.028613 
L 147.339417 122.765336 
L 148.214496 118.277434 
L 149.089576 120.232664 
L 149.964656 117.06311 
L 150.839735 116.700087 
L 151.714815 110.293044 
L 152.589895 113.878695 
L 153.464974 109.830242 
L 154.340054 109.762308 
L 155.215134 114.324513 
L 156.090213 117.767927 
L 156.965293 118.411179 
L 157.840372 107.488636 
L 158.715452 116.235162 
L 159.590532 116.632153 
L 160.465611 109.785661 
L 161.340691 111.687818 
L 162.215771 113.203599 
L 163.09085 112.713199 
L 163.96593 104.435844 
L 164.84101 112.055087 
L 165.716089 111.484015 
L 166.591169 105.374185 
L 167.466248 109.887562 
L 168.341328 107.450423 
L 169.216408 103.380741 
L 170.091487 110.267569 
L 170.966567 106.212747 
L 171.841647 108.698714 
L 172.716726 109.558506 
L 173.591806 101.53378 
L 174.466886 107.397349 
L 175.341965 110.169913 
L 176.217045 107.947192 
L 177.092124 115.640738 
L 177.967204 105.686257 
L 178.842284 108.038478 
L 179.717363 103.334036 
L 180.592443 108.405748 
L 181.467523 98.992617 
L 182.342602 100.854438 
L 183.217682 98.977756 
L 184.092762 99.988277 
L 184.967841 97.334598 
L 185.842921 107.021589 
L 186.718 97.814384 
L 187.59308 99.332288 
L 188.46816 96.481175 
L 189.343239 102.27681 
L 190.218319 99.238879 
L 191.093399 91.823438 
L 191.968478 95.254114 
L 192.843558 99.837549 
L 193.718638 99.226141 
L 194.593717 98.279308 
L 195.468797 96.907887 
L 196.343877 91.84679 
L 197.218956 92.630156 
L 198.094036 97.61695 
L 198.969115 95.85703 
L 199.844195 97.623319 
L 200.719275 93.872078 
L 201.594354 99.941573 
L 202.469434 93.419891 
L 203.344514 98.130702 
L 204.219593 90.57727 
L 205.094673 97.031018 
L 205.969753 93.371063 
L 206.844832 88.934112 
L 207.719912 88.380024 
L 208.594991 86.575522 
L 209.470071 96.789002 
L 210.345151 86.108474 
L 211.22023 88.292983 
L 212.09531 91.819192 
L 212.97039 91.721536 
L 213.845469 91.158956 
L 214.720549 95.090647 
L 215.595629 93.046253 
L 216.470708 95.426072 
L 217.345788 90.21637 
L 218.220867 92.978319 
L 219.095947 92.693844 
L 219.971027 88.101918 
L 220.846106 93.925152 
L 221.721186 95.570433 
L 222.596266 85.138289 
L 224.346425 92.702336 
L 225.221505 91.01035 
L 226.096584 88.804612 
L 226.971664 88.422483 
L 227.846743 83.650106 
L 228.721823 84.79225 
L 229.596903 82.817912 
L 230.471982 82.363602 
L 231.347062 105.221333 
L 232.222142 103.660969 
L 233.097221 104.435844 
L 233.972301 105.495192 
L 234.847381 101.718476 
L 235.72246 99.338657 
L 236.59754 98.638086 
L 237.472619 100.735554 
L 238.347699 101.971106 
L 239.222779 101.935016 
L 240.097858 106.408058 
L 240.972938 99.699557 
L 241.848018 99.790844 
L 242.723097 107.575677 
L 243.598177 100.51689 
L 244.473257 101.117683 
L 245.348336 103.357388 
L 246.223416 103.017718 
L 247.098495 99.750508 
L 247.973575 103.002857 
L 248.848655 108.061831 
L 249.723734 97.243312 
L 250.598814 96.876043 
L 251.473894 96.014128 
L 252.348973 104.225672 
L 254.099133 91.318177 
L 254.974212 95.218024 
L 255.849292 96.25402 
L 256.724371 100.298227 
L 257.599451 97.97785 
L 258.474531 97.40041 
L 259.34961 97.808015 
L 260.22469 99.916097 
L 261.09977 98.784569 
L 261.974849 104.266008 
L 262.849929 94.693657 
L 263.725009 94.016438 
L 264.600088 101.436125 
L 265.475168 98.786692 
L 266.350247 100.330071 
L 267.225327 100.918127 
L 268.975486 89.825748 
L 269.850566 93.878447 
L 270.725646 97.389795 
L 271.600725 95.92921 
L 272.475805 100.349178 
L 273.350885 92.963458 
L 274.225964 91.286333 
L 275.101044 92.341436 
L 275.976123 96.922747 
L 276.851203 92.653508 
L 277.726283 96.901518 
L 278.601362 100.049843 
L 279.476442 93.360449 
L 280.351522 95.750883 
L 281.226601 91.90411 
L 282.101681 99.185805 
L 282.976761 94.63846 
L 283.85184 90.834146 
L 284.72692 90.498721 
L 285.602 93.574866 
L 286.477079 95.49613 
L 287.352159 93.148154 
L 288.227238 88.868301 
L 289.102318 93.88057 
L 289.977398 95.158582 
L 290.852477 83.599155 
L 291.727557 93.114187 
L 292.602637 92.763902 
L 293.477716 94.281806 
L 294.352796 92.795746 
L 295.227876 94.226609 
L 296.102955 93.349834 
L 296.978035 94.477117 
L 297.853114 95.975915 
L 299.603274 84.949347 
L 300.478353 92.746918 
L 301.353433 94.559912 
L 302.228513 91.203538 
L 303.103592 89.195234 
L 303.978672 93.509055 
L 304.853752 88.21868 
L 305.728831 93.78716 
L 306.603911 88.57958 
L 307.47899 89.759937 
L 308.35407 95.048188 
L 309.22915 94.271191 
L 310.104229 94.521699 
L 310.979309 92.281993 
L 311.854389 87.808952 
L 312.729468 95.566187 
L 313.604548 92.7915 
L 314.479628 87.781354 
L 315.354707 95.25836 
L 316.229787 86.654071 
L 317.104866 86.006573 
L 317.979946 88.895899 
L 318.855026 84.928118 
L 319.730105 85.745451 
L 320.605185 89.991338 
L 321.480265 80.480552 
L 322.355344 88.222926 
L 323.230424 85.843106 
L 324.105504 89.4882 
L 324.980583 87.645485 
L 325.855663 91.840421 
L 326.730742 82.72238 
L 327.605822 88.199574 
L 328.480902 84.681857 
L 329.355981 84.917503 
L 330.231061 96.230668 
L 331.106141 89.17825 
L 331.98122 89.944633 
L 332.8563 87.895993 
L 333.73138 91.823438 
L 334.606459 88.131639 
L 336.356618 81.56113 
L 337.231698 86.45876 
L 338.106778 81.134418 
L 338.981857 89.203726 
L 339.856937 82.372094 
L 340.732017 80.527257 
L 341.607096 88.299352 
L 342.482176 93.207597 
L 343.357256 88.082812 
L 344.232335 79.247122 
L 345.107415 86.656194 
L 346.857574 84.524759 
L 347.732654 85.4631 
L 348.607733 79.782103 
L 349.482813 90.912695 
L 350.357893 83.482394 
L 351.232972 79.153712 
L 352.108052 79.531596 
L 352.983132 83.64586 
L 353.858211 90.927556 
L 354.733291 86.397195 
L 355.60837 82.968641 
L 356.48345 76.608303 
L 357.35853 78.969016 
L 358.233609 77.037138 
L 359.108689 81.055869 
L 359.983769 77.595472 
L 360.858848 82.843388 
L 361.733928 80.822346 
L 362.609008 78.047659 
L 363.484087 81.145033 
L 364.359167 77.111441 
L 365.234247 88.161361 
L 366.109326 82.465504 
L 366.984406 83.045067 
L 367.859485 86.473621 
L 368.734565 79.134606 
L 369.609645 86.352613 
L 370.484724 84.02799 
L 371.359804 81.246934 
L 372.234884 76.069076 
L 373.109963 83.270099 
L 373.985043 80.138758 
L 374.860123 82.144939 
L 375.735202 77.510554 
L 376.610282 73.714732 
L 377.485361 82.01544 
L 378.360441 80.542117 
L 379.235521 75.094645 
L 380.1106 76.903392 
L 380.98568 82.473996 
L 381.86076 79.892497 
L 383.610919 79.087901 
L 384.485999 76.241034 
L 385.361078 78.707894 
L 386.236158 81.947506 
L 387.111237 77.194236 
L 387.986317 81.527163 
L 388.861397 78.678173 
L 389.736476 77.907545 
L 390.611556 77.361948 
L 391.486636 80.873296 
L 393.236795 77.631562 
L 394.111875 78.451018 
L 394.986954 84.809233 
L 395.862034 81.769178 
L 396.737113 76.338689 
L 397.612193 78.990246 
L 398.487273 79.05818 
L 398.487273 79.05818 
" style="fill:none;stroke:#1f77b4;stroke-linecap:square;stroke-width:1.5;"/>
   </g>
   <g id="line2d_21">
    <path clip-path="url(#pbca741ed63)" d="M 73.832727 236.448948 
L 74.707807 201.834358 
L 75.582887 192.94984 
L 76.457966 163.844288 
L 77.333046 143.527721 
L 78.208125 151.775356 
L 79.083205 131.3951 
L 81.708444 103.690691 
L 82.583524 99.328042 
L 83.458603 97.098952 
L 84.333683 125.917907 
L 85.208763 295.488 
L 86.083842 136.45832 
L 88.709081 101.270535 
L 89.584161 102.639834 
L 90.45924 90.316148 
L 91.33432 99.009601 
L 92.2094 87.959681 
L 93.084479 92.831836 
L 93.959559 82.673552 
L 94.834639 87.577551 
L 95.709718 79.648358 
L 96.584798 80.380773 
L 97.459877 76.049969 
L 98.334957 77.451112 
L 99.210037 74.871736 
L 100.085116 73.566126 
L 100.960196 72.515269 
L 101.835276 70.795685 
L 102.710355 71.018594 
L 103.585435 70.031425 
L 104.460515 69.681139 
L 105.335594 104.263885 
L 106.210674 88.437343 
L 107.085753 99.136977 
L 107.960833 89.4882 
L 108.835913 87.80046 
L 109.710992 84.170227 
L 110.586072 89.965862 
L 111.461152 80.348929 
L 112.336231 76.018125 
L 113.211311 79.266228 
L 114.086391 84.966331 
L 114.96147 77.13267 
L 115.83655 77.642177 
L 116.71163 75.667839 
L 117.586709 76.018125 
L 118.461789 73.438749 
L 120.211948 83.5015 
L 121.087028 75.763372 
L 121.962107 69.776672 
L 122.837187 70.381711 
L 123.712267 69.681139 
L 125.462426 70.381711 
L 126.337506 69.872204 
L 127.212585 67.420205 
L 128.087665 66.369348 
L 128.962744 66.528569 
L 129.837824 66.942543 
L 130.712904 66.114595 
L 131.587983 64.490543 
L 132.463063 64.490543 
L 133.338143 63.789972 
L 134.213222 63.344154 
L 135.088302 64.331322 
L 135.963382 62.484362 
L 136.838461 62.229609 
L 137.713541 62.516206 
L 138.58862 62.420673 
L 139.4637 61.974855 
L 140.33878 60.987687 
L 141.213859 61.274284 
L 142.088939 61.274284 
L 142.964019 60.828466 
L 143.839098 61.337972 
L 144.714178 61.146907 
L 145.589258 61.146907 
L 146.464337 60.637401 
L 147.339417 73.502437 
L 148.214496 76.75054 
L 149.089576 71.751009 
L 149.964656 69.935893 
L 150.839735 73.120307 
L 151.714815 76.782385 
L 152.589895 71.241503 
L 153.464974 73.21584 
L 154.340054 69.776672 
L 155.215134 72.45158 
L 156.090213 70.540931 
L 156.965293 67.356517 
L 157.840372 71.050438 
L 158.715452 67.515737 
L 159.590532 66.687789 
L 160.465611 67.260984 
L 161.340691 69.935893 
L 162.215771 67.61127 
L 163.09085 64.586076 
L 163.96593 65.605088 
L 164.84101 68.120776 
L 165.716089 65.668777 
L 166.591169 65.095582 
L 167.466248 63.949193 
L 168.341328 65.477712 
L 169.216408 64.203946 
L 170.091487 63.981037 
L 170.966567 66.878854 
L 171.841647 62.452518 
L 172.716726 65.350335 
L 173.591806 64.172102 
L 174.466886 64.872673 
L 175.341965 64.395011 
L 176.217045 65.127426 
L 177.092124 64.363167 
L 177.967204 63.025712 
L 178.842284 63.439686 
L 179.717363 64.61792 
L 180.592443 61.62457 
L 182.342602 62.54805 
L 183.217682 67.515737 
L 184.092762 62.770959 
L 184.967841 63.567063 
L 185.842921 63.630751 
L 186.718 61.847479 
L 187.59308 60.955843 
L 188.46816 61.306128 
L 189.343239 60.955843 
L 190.218319 61.497193 
L 191.093399 61.019531 
L 191.968478 60.31896 
L 192.843558 60.796622 
L 193.718638 59.5547 
L 194.593717 60.032362 
L 195.468797 59.299947 
L 196.343877 60.31896 
L 197.218956 59.841297 
L 198.094036 58.440155 
L 198.969115 59.586544 
L 199.844195 58.854129 
L 200.719275 59.904986 
L 201.594354 58.185402 
L 202.469434 58.758596 
L 203.344514 57.707739 
L 204.219593 58.981505 
L 205.094673 58.058025 
L 205.969753 58.408311 
L 206.844832 57.32561 
L 207.719912 57.707739 
L 208.594991 56.816103 
L 209.470071 58.058025 
L 210.345151 57.803272 
L 211.22023 57.962493 
L 212.97039 57.86696 
L 213.845469 57.134545 
L 214.720549 58.217246 
L 215.595629 57.548519 
L 216.470708 56.720571 
L 217.345788 56.752415 
L 218.220867 56.94348 
L 219.095947 56.975324 
L 219.971027 57.166389 
L 220.846106 57.612207 
L 221.721186 57.261921 
L 222.596266 56.720571 
L 223.471345 57.039012 
L 224.346425 56.720571 
L 225.221505 56.529506 
L 226.096584 56.752415 
L 226.971664 56.147376 
L 227.846743 56.019999 
L 228.721823 56.784259 
L 229.596903 56.147376 
L 230.471982 56.402129 
L 231.347062 69.681139 
L 232.222142 64.363167 
L 233.097221 64.872673 
L 233.972301 62.993868 
L 234.847381 65.796153 
L 235.72246 63.439686 
L 236.59754 63.567063 
L 237.472619 65.668777 
L 238.347699 64.713452 
L 239.222779 67.038075 
L 240.097858 62.898336 
L 240.972938 65.827997 
L 241.848018 65.15927 
L 242.723097 63.31231 
L 243.598177 66.114595 
L 244.473257 63.567063 
L 245.348336 62.356985 
L 246.223416 64.044725 
L 247.098495 61.560881 
L 247.973575 63.630751 
L 248.848655 61.401661 
L 249.723734 63.789972 
L 250.598814 61.751946 
L 251.473894 65.859842 
L 252.348973 62.54805 
L 253.224053 60.923998 
L 254.099133 60.892154 
L 254.974212 82.641708 
L 255.849292 62.325141 
L 256.724371 62.102232 
L 257.599451 62.54805 
L 258.474531 62.16592 
L 259.34961 61.051375 
L 260.22469 60.923998 
L 261.09977 62.325141 
L 261.974849 61.337972 
L 262.849929 62.356985 
L 263.725009 61.911167 
L 264.600088 60.732934 
L 265.475168 59.904986 
L 266.350247 60.701089 
L 267.225327 61.019531 
L 268.100407 62.866492 
L 268.975486 60.510024 
L 269.850566 60.191583 
L 270.725646 60.000518 
L 271.600725 60.605557 
L 272.475805 59.204414 
L 273.350885 59.395479 
L 274.225964 60.382648 
L 275.101044 62.962024 
L 275.976123 60.096051 
L 276.851203 60.701089 
L 277.726283 60.096051 
L 278.601362 59.713921 
L 279.476442 61.62457 
L 280.351522 59.586544 
L 281.226601 59.618388 
L 282.101681 60.796622 
L 282.976761 60.032362 
L 283.85184 59.522856 
L 284.72692 59.777609 
L 285.602 58.694908 
L 286.477079 59.268103 
L 287.352159 59.204414 
L 288.227238 59.777609 
L 289.102318 57.644051 
L 289.977398 58.026181 
L 290.852477 62.866492 
L 291.727557 57.803272 
L 292.602637 58.535687 
L 293.477716 57.994337 
L 294.352796 58.217246 
L 295.227876 59.809453 
L 296.102955 60.573713 
L 296.978035 58.153557 
L 297.853114 58.503843 
L 298.728194 57.516674 
L 299.603274 61.465349 
L 300.478353 58.408311 
L 301.353433 58.535687 
L 302.228513 58.503843 
L 303.103592 58.217246 
L 303.978672 58.153557 
L 304.853752 59.809453 
L 305.728831 57.548519 
L 306.603911 58.440155 
L 307.47899 58.185402 
L 308.35407 58.440155 
L 309.22915 56.465818 
L 310.104229 58.026181 
L 310.979309 58.153557 
L 311.854389 58.026181 
L 312.729468 56.879791 
L 313.604548 57.452986 
L 314.479628 58.217246 
L 315.354707 57.198233 
L 316.229787 57.389298 
L 317.104866 55.446805 
L 317.979946 58.503843 
L 318.855026 56.879791 
L 319.730105 57.039012 
L 320.605185 57.612207 
L 322.355344 56.847947 
L 323.230424 58.917817 
L 324.105504 57.994337 
L 324.980583 57.771428 
L 325.855663 56.911636 
L 327.605822 56.752415 
L 328.480902 56.94348 
L 329.355981 56.338441 
L 331.106141 56.433973 
L 331.98122 56.720571 
L 332.8563 56.433973 
L 333.73138 57.134545 
L 334.606459 55.63787 
L 335.481539 56.433973 
L 336.356618 56.083688 
L 337.231698 56.688727 
L 338.106778 55.128363 
L 338.981857 55.701558 
L 339.856937 57.357454 
L 340.732017 56.242909 
L 341.607096 56.306597 
L 342.482176 55.765246 
L 343.357256 55.765246 
L 344.232335 55.000987 
L 345.107415 55.192052 
L 345.982494 55.988155 
L 346.857574 55.860779 
L 347.732654 55.064675 
L 348.607733 56.274753 
L 349.482813 56.051844 
L 350.357893 55.606026 
L 351.232972 55.733402 
L 352.108052 55.478649 
L 352.983132 55.79709 
L 353.858211 55.733402 
L 355.60837 55.287584 
L 356.48345 54.841766 
L 357.35853 55.542337 
L 358.233609 54.905454 
L 359.108689 54.778078 
L 359.983769 54.427792 
L 360.858848 55.160207 
L 361.733928 54.714389 
L 362.609008 54.809922 
L 363.484087 54.587013 
L 364.359167 54.778078 
L 365.234247 55.924467 
L 366.109326 55.446805 
L 366.984406 54.682545 
L 367.859485 54.49148 
L 368.734565 54.905454 
L 369.609645 54.778078 
L 370.484724 55.383116 
L 371.359804 54.809922 
L 372.234884 54.650701 
L 373.109963 54.809922 
L 374.860123 53.886441 
L 375.735202 54.204883 
L 376.610282 53.854597 
L 377.485361 53.790909 
L 378.360441 54.523324 
L 379.235521 54.555169 
L 380.98568 53.918286 
L 381.86076 54.141195 
L 383.610919 53.981974 
L 384.485999 54.300415 
L 385.361078 54.204883 
L 386.236158 53.759065 
L 387.111237 54.141195 
L 387.986317 53.981974 
L 388.861397 53.981974 
L 389.736476 54.268571 
L 390.611556 53.854597 
L 391.486636 54.523324 
L 392.361715 53.886441 
L 393.236795 53.918286 
L 394.111875 53.568 
L 394.986954 54.300415 
L 395.862034 53.981974 
L 396.737113 54.268571 
L 397.612193 54.33226 
L 398.487273 54.045662 
L 398.487273 54.045662 
" style="fill:none;stroke:#ff7f0e;stroke-linecap:square;stroke-width:1.5;"/>
   </g>
   <g id="patch_3">
    <path d="M 57.6 307.584 
L 57.6 41.472 
" style="fill:none;stroke:#000000;stroke-linecap:square;stroke-linejoin:miter;stroke-width:0.8;"/>
   </g>
   <g id="patch_4">
    <path d="M 414.72 307.584 
L 414.72 41.472 
" style="fill:none;stroke:#000000;stroke-linecap:square;stroke-linejoin:miter;stroke-width:0.8;"/>
   </g>
   <g id="patch_5">
    <path d="M 57.6 307.584 
L 414.72 307.584 
" style="fill:none;stroke:#000000;stroke-linecap:square;stroke-linejoin:miter;stroke-width:0.8;"/>
   </g>
   <g id="patch_6">
    <path d="M 57.6 41.472 
L 414.72 41.472 
" style="fill:none;stroke:#000000;stroke-linecap:square;stroke-linejoin:miter;stroke-width:0.8;"/>
   </g>
   <g id="text_22">
    <!-- Training and Validation Accuracy -->
    <g transform="translate(138.4575 35.472)scale(0.12 -0.12)">
     <defs>
      <path d="M -19 4666 
L 3928 4666 
L 3928 4134 
L 2272 4134 
L 2272 0 
L 1638 0 
L 1638 4134 
L -19 4134 
L -19 4666 
z
" id="DejaVuSans-54" transform="scale(0.015625)"/>
      <path d="M 603 3500 
L 1178 3500 
L 1178 0 
L 603 0 
L 603 3500 
z
M 603 4863 
L 1178 4863 
L 1178 4134 
L 603 4134 
L 603 4863 
z
" id="DejaVuSans-69" transform="scale(0.015625)"/>
      <path d="M 3513 2113 
L 3513 0 
L 2938 0 
L 2938 2094 
Q 2938 2591 2744 2837 
Q 2550 3084 2163 3084 
Q 1697 3084 1428 2787 
Q 1159 2491 1159 1978 
L 1159 0 
L 581 0 
L 581 3500 
L 1159 3500 
L 1159 2956 
Q 1366 3272 1645 3428 
Q 1925 3584 2291 3584 
Q 2894 3584 3203 3211 
Q 3513 2838 3513 2113 
z
" id="DejaVuSans-6e" transform="scale(0.015625)"/>
      <path d="M 2906 1791 
Q 2906 2416 2648 2759 
Q 2391 3103 1925 3103 
Q 1463 3103 1205 2759 
Q 947 2416 947 1791 
Q 947 1169 1205 825 
Q 1463 481 1925 481 
Q 2391 481 2648 825 
Q 2906 1169 2906 1791 
z
M 3481 434 
Q 3481 -459 3084 -895 
Q 2688 -1331 1869 -1331 
Q 1566 -1331 1297 -1286 
Q 1028 -1241 775 -1147 
L 775 -588 
Q 1028 -725 1275 -790 
Q 1522 -856 1778 -856 
Q 2344 -856 2625 -561 
Q 2906 -266 2906 331 
L 2906 616 
Q 2728 306 2450 153 
Q 2172 0 1784 0 
Q 1141 0 747 490 
Q 353 981 353 1791 
Q 353 2603 747 3093 
Q 1141 3584 1784 3584 
Q 2172 3584 2450 3431 
Q 2728 3278 2906 2969 
L 2906 3500 
L 3481 3500 
L 3481 434 
z
" id="DejaVuSans-67" transform="scale(0.015625)"/>
      <path id="DejaVuSans-20" transform="scale(0.015625)"/>
      <path d="M 2906 2969 
L 2906 4863 
L 3481 4863 
L 3481 0 
L 2906 0 
L 2906 525 
Q 2725 213 2448 61 
Q 2172 -91 1784 -91 
Q 1150 -91 751 415 
Q 353 922 353 1747 
Q 353 2572 751 3078 
Q 1150 3584 1784 3584 
Q 2172 3584 2448 3432 
Q 2725 3281 2906 2969 
z
M 947 1747 
Q 947 1113 1208 752 
Q 1469 391 1925 391 
Q 2381 391 2643 752 
Q 2906 1113 2906 1747 
Q 2906 2381 2643 2742 
Q 2381 3103 1925 3103 
Q 1469 3103 1208 2742 
Q 947 2381 947 1747 
z
" id="DejaVuSans-64" transform="scale(0.015625)"/>
      <path d="M 1831 0 
L 50 4666 
L 709 4666 
L 2188 738 
L 3669 4666 
L 4325 4666 
L 2547 0 
L 1831 0 
z
" id="DejaVuSans-56" transform="scale(0.015625)"/>
      <path d="M 603 4863 
L 1178 4863 
L 1178 0 
L 603 0 
L 603 4863 
z
" id="DejaVuSans-6c" transform="scale(0.015625)"/>
      <path d="M 1172 4494 
L 1172 3500 
L 2356 3500 
L 2356 3053 
L 1172 3053 
L 1172 1153 
Q 1172 725 1289 603 
Q 1406 481 1766 481 
L 2356 481 
L 2356 0 
L 1766 0 
Q 1100 0 847 248 
Q 594 497 594 1153 
L 594 3053 
L 172 3053 
L 172 3500 
L 594 3500 
L 594 4494 
L 1172 4494 
z
" id="DejaVuSans-74" transform="scale(0.015625)"/>
     </defs>
     <use xlink:href="#DejaVuSans-54"/>
     <use x="46.333984" xlink:href="#DejaVuSans-72"/>
     <use x="87.447266" xlink:href="#DejaVuSans-61"/>
     <use x="148.726562" xlink:href="#DejaVuSans-69"/>
     <use x="176.509766" xlink:href="#DejaVuSans-6e"/>
     <use x="239.888672" xlink:href="#DejaVuSans-69"/>
     <use x="267.671875" xlink:href="#DejaVuSans-6e"/>
     <use x="331.050781" xlink:href="#DejaVuSans-67"/>
     <use x="394.527344" xlink:href="#DejaVuSans-20"/>
     <use x="426.314453" xlink:href="#DejaVuSans-61"/>
     <use x="487.59375" xlink:href="#DejaVuSans-6e"/>
     <use x="550.972656" xlink:href="#DejaVuSans-64"/>
     <use x="614.449219" xlink:href="#DejaVuSans-20"/>
     <use x="646.236328" xlink:href="#DejaVuSans-56"/>
     <use x="706.894531" xlink:href="#DejaVuSans-61"/>
     <use x="768.173828" xlink:href="#DejaVuSans-6c"/>
     <use x="795.957031" xlink:href="#DejaVuSans-69"/>
     <use x="823.740234" xlink:href="#DejaVuSans-64"/>
     <use x="887.216797" xlink:href="#DejaVuSans-61"/>
     <use x="948.496094" xlink:href="#DejaVuSans-74"/>
     <use x="987.705078" xlink:href="#DejaVuSans-69"/>
     <use x="1015.488281" xlink:href="#DejaVuSans-6f"/>
     <use x="1076.669922" xlink:href="#DejaVuSans-6e"/>
     <use x="1140.048828" xlink:href="#DejaVuSans-20"/>
     <use x="1171.835938" xlink:href="#DejaVuSans-41"/>
     <use x="1238.494141" xlink:href="#DejaVuSans-63"/>
     <use x="1293.474609" xlink:href="#DejaVuSans-63"/>
     <use x="1348.455078" xlink:href="#DejaVuSans-75"/>
     <use x="1411.833984" xlink:href="#DejaVuSans-72"/>
     <use x="1452.947266" xlink:href="#DejaVuSans-61"/>
     <use x="1514.226562" xlink:href="#DejaVuSans-63"/>
     <use x="1569.207031" xlink:href="#DejaVuSans-79"/>
    </g>
   </g>
   <g id="legend_1">
    <g id="patch_7">
     <path d="M 277.504375 302.584 
L 407.72 302.584 
Q 409.72 302.584 409.72 300.584 
L 409.72 272.22775 
Q 409.72 270.22775 407.72 270.22775 
L 277.504375 270.22775 
Q 275.504375 270.22775 275.504375 272.22775 
L 275.504375 300.584 
Q 275.504375 302.584 277.504375 302.584 
z
" style="fill:#ffffff;opacity:0.8;stroke:#cccccc;stroke-linejoin:miter;"/>
    </g>
    <g id="line2d_22">
     <path d="M 279.504375 278.326187 
L 299.504375 278.326187 
" style="fill:none;stroke:#1f77b4;stroke-linecap:square;stroke-width:1.5;"/>
    </g>
    <g id="line2d_23"/>
    <g id="text_23">
     <!-- Train Accuracy -->
     <g transform="translate(307.504375 281.826187)scale(0.1 -0.1)">
      <use xlink:href="#DejaVuSans-54"/>
      <use x="46.333984" xlink:href="#DejaVuSans-72"/>
      <use x="87.447266" xlink:href="#DejaVuSans-61"/>
      <use x="148.726562" xlink:href="#DejaVuSans-69"/>
      <use x="176.509766" xlink:href="#DejaVuSans-6e"/>
      <use x="239.888672" xlink:href="#DejaVuSans-20"/>
      <use x="271.675781" xlink:href="#DejaVuSans-41"/>
      <use x="338.333984" xlink:href="#DejaVuSans-63"/>
      <use x="393.314453" xlink:href="#DejaVuSans-63"/>
      <use x="448.294922" xlink:href="#DejaVuSans-75"/>
      <use x="511.673828" xlink:href="#DejaVuSans-72"/>
      <use x="552.787109" xlink:href="#DejaVuSans-61"/>
      <use x="614.066406" xlink:href="#DejaVuSans-63"/>
      <use x="669.046875" xlink:href="#DejaVuSans-79"/>
     </g>
    </g>
    <g id="line2d_24">
     <path d="M 279.504375 293.004312 
L 299.504375 293.004312 
" style="fill:none;stroke:#ff7f0e;stroke-linecap:square;stroke-width:1.5;"/>
    </g>
    <g id="line2d_25"/>
    <g id="text_24">
     <!-- Validation Accuracy -->
     <g transform="translate(307.504375 296.504312)scale(0.1 -0.1)">
      <use xlink:href="#DejaVuSans-56"/>
      <use x="60.658203" xlink:href="#DejaVuSans-61"/>
      <use x="121.9375" xlink:href="#DejaVuSans-6c"/>
      <use x="149.720703" xlink:href="#DejaVuSans-69"/>
      <use x="177.503906" xlink:href="#DejaVuSans-64"/>
      <use x="240.980469" xlink:href="#DejaVuSans-61"/>
      <use x="302.259766" xlink:href="#DejaVuSans-74"/>
      <use x="341.46875" xlink:href="#DejaVuSans-69"/>
      <use x="369.251953" xlink:href="#DejaVuSans-6f"/>
      <use x="430.433594" xlink:href="#DejaVuSans-6e"/>
      <use x="493.8125" xlink:href="#DejaVuSans-20"/>
      <use x="525.599609" xlink:href="#DejaVuSans-41"/>
      <use x="592.257812" xlink:href="#DejaVuSans-63"/>
      <use x="647.238281" xlink:href="#DejaVuSans-63"/>
      <use x="702.21875" xlink:href="#DejaVuSans-75"/>
      <use x="765.597656" xlink:href="#DejaVuSans-72"/>
      <use x="806.710938" xlink:href="#DejaVuSans-61"/>
      <use x="867.990234" xlink:href="#DejaVuSans-63"/>
      <use x="922.970703" xlink:href="#DejaVuSans-79"/>
     </g>
    </g>
   </g>
  </g>
 </g>
 <defs>
  <clipPath id="pbca741ed63">
   <rect height="266.112" width="357.12" x="57.6" y="41.472"/>
  </clipPath>
 </defs>
</svg>
