<?xml version="1.0" encoding="utf-8" standalone="no"?>
<!DOCTYPE svg PUBLIC "-//W3C//DTD SVG 1.1//EN"
  "http://www.w3.org/Graphics/SVG/1.1/DTD/svg11.dtd">
<svg height="345.6pt" version="1.1" viewBox="0 0 460.8 345.6" width="460.8pt" xmlns="http://www.w3.org/2000/svg" xmlns:xlink="http://www.w3.org/1999/xlink">
 <metadata>
  <rdf:RDF xmlns:cc="http://creativecommons.org/ns#" xmlns:dc="http://purl.org/dc/elements/1.1/" xmlns:rdf="http://www.w3.org/1999/02/22-rdf-syntax-ns#">
   <cc:Work>
    <dc:type rdf:resource="http://purl.org/dc/dcmitype/StillImage"/>
    <dc:date>2023-08-15T12:53:27.160306</dc:date>
    <dc:format>image/svg+xml</dc:format>
    <dc:creator>
     <cc:Agent>
      <dc:title>Matplotlib v3.4.3, https://matplotlib.org/</dc:title>
     </cc:Agent>
    </dc:creator>
   </cc:Work>
  </rdf:RDF>
 </metadata>
 <defs>
  <style type="text/css">*{stroke-linecap:butt;stroke-linejoin:round;}</style>
 </defs>
 <g id="figure_1">
  <g id="patch_1">
   <path d="M 0 345.6 
L 460.8 345.6 
L 460.8 0 
L 0 0 
z
" style="fill:#ffffff;"/>
  </g>
  <g id="axes_1">
   <g id="patch_2">
    <path d="M 57.6 307.584 
L 414.72 307.584 
L 414.72 41.472 
L 57.6 41.472 
z
" style="fill:#ffffff;"/>
   </g>
   <g id="matplotlib.axis_1">
    <g id="xtick_1">
     <g id="line2d_1">
      <defs>
       <path d="M 0 0 
L 0 3.5 
" id="mba88621447" style="stroke:#000000;stroke-width:0.8;"/>
      </defs>
      <g>
       <use style="stroke:#000000;stroke-width:0.8;" x="73.832727" xlink:href="#mba88621447" y="307.584"/>
      </g>
     </g>
     <g id="text_1">
      <!-- 1 -->
      <g transform="translate(70.651477 322.182437)scale(0.1 -0.1)">
       <defs>
        <path d="M 794 531 
L 1825 531 
L 1825 4091 
L 703 3866 
L 703 4441 
L 1819 4666 
L 2450 4666 
L 2450 531 
L 3481 531 
L 3481 0 
L 794 0 
L 794 531 
z
" id="DejaVuSans-31" transform="scale(0.015625)"/>
       </defs>
       <use xlink:href="#DejaVuSans-31"/>
      </g>
     </g>
    </g>
    <g id="xtick_2">
     <g id="line2d_2">
      <g>
       <use style="stroke:#000000;stroke-width:0.8;" x="109.555234" xlink:href="#mba88621447" y="307.584"/>
      </g>
     </g>
     <g id="text_2">
      <!-- 35 -->
      <g transform="translate(103.192734 322.182437)scale(0.1 -0.1)">
       <defs>
        <path d="M 2597 2516 
Q 3050 2419 3304 2112 
Q 3559 1806 3559 1356 
Q 3559 666 3084 287 
Q 2609 -91 1734 -91 
Q 1441 -91 1130 -33 
Q 819 25 488 141 
L 488 750 
Q 750 597 1062 519 
Q 1375 441 1716 441 
Q 2309 441 2620 675 
Q 2931 909 2931 1356 
Q 2931 1769 2642 2001 
Q 2353 2234 1838 2234 
L 1294 2234 
L 1294 2753 
L 1863 2753 
Q 2328 2753 2575 2939 
Q 2822 3125 2822 3475 
Q 2822 3834 2567 4026 
Q 2313 4219 1838 4219 
Q 1578 4219 1281 4162 
Q 984 4106 628 3988 
L 628 4550 
Q 988 4650 1302 4700 
Q 1616 4750 1894 4750 
Q 2613 4750 3031 4423 
Q 3450 4097 3450 3541 
Q 3450 3153 3228 2886 
Q 3006 2619 2597 2516 
z
" id="DejaVuSans-33" transform="scale(0.015625)"/>
        <path d="M 691 4666 
L 3169 4666 
L 3169 4134 
L 1269 4134 
L 1269 2991 
Q 1406 3038 1543 3061 
Q 1681 3084 1819 3084 
Q 2600 3084 3056 2656 
Q 3513 2228 3513 1497 
Q 3513 744 3044 326 
Q 2575 -91 1722 -91 
Q 1428 -91 1123 -41 
Q 819 9 494 109 
L 494 744 
Q 775 591 1075 516 
Q 1375 441 1709 441 
Q 2250 441 2565 725 
Q 2881 1009 2881 1497 
Q 2881 1984 2565 2268 
Q 2250 2553 1709 2553 
Q 1456 2553 1204 2497 
Q 953 2441 691 2322 
L 691 4666 
z
" id="DejaVuSans-35" transform="scale(0.015625)"/>
       </defs>
       <use xlink:href="#DejaVuSans-33"/>
       <use x="63.623047" xlink:href="#DejaVuSans-35"/>
      </g>
     </g>
    </g>
    <g id="xtick_3">
     <g id="line2d_3">
      <g>
       <use style="stroke:#000000;stroke-width:0.8;" x="145.277741" xlink:href="#mba88621447" y="307.584"/>
      </g>
     </g>
     <g id="text_3">
      <!-- 69 -->
      <g transform="translate(138.915241 322.182437)scale(0.1 -0.1)">
       <defs>
        <path d="M 2113 2584 
Q 1688 2584 1439 2293 
Q 1191 2003 1191 1497 
Q 1191 994 1439 701 
Q 1688 409 2113 409 
Q 2538 409 2786 701 
Q 3034 994 3034 1497 
Q 3034 2003 2786 2293 
Q 2538 2584 2113 2584 
z
M 3366 4563 
L 3366 3988 
Q 3128 4100 2886 4159 
Q 2644 4219 2406 4219 
Q 1781 4219 1451 3797 
Q 1122 3375 1075 2522 
Q 1259 2794 1537 2939 
Q 1816 3084 2150 3084 
Q 2853 3084 3261 2657 
Q 3669 2231 3669 1497 
Q 3669 778 3244 343 
Q 2819 -91 2113 -91 
Q 1303 -91 875 529 
Q 447 1150 447 2328 
Q 447 3434 972 4092 
Q 1497 4750 2381 4750 
Q 2619 4750 2861 4703 
Q 3103 4656 3366 4563 
z
" id="DejaVuSans-36" transform="scale(0.015625)"/>
        <path d="M 703 97 
L 703 672 
Q 941 559 1184 500 
Q 1428 441 1663 441 
Q 2288 441 2617 861 
Q 2947 1281 2994 2138 
Q 2813 1869 2534 1725 
Q 2256 1581 1919 1581 
Q 1219 1581 811 2004 
Q 403 2428 403 3163 
Q 403 3881 828 4315 
Q 1253 4750 1959 4750 
Q 2769 4750 3195 4129 
Q 3622 3509 3622 2328 
Q 3622 1225 3098 567 
Q 2575 -91 1691 -91 
Q 1453 -91 1209 -44 
Q 966 3 703 97 
z
M 1959 2075 
Q 2384 2075 2632 2365 
Q 2881 2656 2881 3163 
Q 2881 3666 2632 3958 
Q 2384 4250 1959 4250 
Q 1534 4250 1286 3958 
Q 1038 3666 1038 3163 
Q 1038 2656 1286 2365 
Q 1534 2075 1959 2075 
z
" id="DejaVuSans-39" transform="scale(0.015625)"/>
       </defs>
       <use xlink:href="#DejaVuSans-36"/>
       <use x="63.623047" xlink:href="#DejaVuSans-39"/>
      </g>
     </g>
    </g>
    <g id="xtick_4">
     <g id="line2d_4">
      <g>
       <use style="stroke:#000000;stroke-width:0.8;" x="182.050909" xlink:href="#mba88621447" y="307.584"/>
      </g>
     </g>
     <g id="text_4">
      <!-- 104 -->
      <g transform="translate(172.507159 322.182437)scale(0.1 -0.1)">
       <defs>
        <path d="M 2034 4250 
Q 1547 4250 1301 3770 
Q 1056 3291 1056 2328 
Q 1056 1369 1301 889 
Q 1547 409 2034 409 
Q 2525 409 2770 889 
Q 3016 1369 3016 2328 
Q 3016 3291 2770 3770 
Q 2525 4250 2034 4250 
z
M 2034 4750 
Q 2819 4750 3233 4129 
Q 3647 3509 3647 2328 
Q 3647 1150 3233 529 
Q 2819 -91 2034 -91 
Q 1250 -91 836 529 
Q 422 1150 422 2328 
Q 422 3509 836 4129 
Q 1250 4750 2034 4750 
z
" id="DejaVuSans-30" transform="scale(0.015625)"/>
        <path d="M 2419 4116 
L 825 1625 
L 2419 1625 
L 2419 4116 
z
M 2253 4666 
L 3047 4666 
L 3047 1625 
L 3713 1625 
L 3713 1100 
L 3047 1100 
L 3047 0 
L 2419 0 
L 2419 1100 
L 313 1100 
L 313 1709 
L 2253 4666 
z
" id="DejaVuSans-34" transform="scale(0.015625)"/>
       </defs>
       <use xlink:href="#DejaVuSans-31"/>
       <use x="63.623047" xlink:href="#DejaVuSans-30"/>
       <use x="127.246094" xlink:href="#DejaVuSans-34"/>
      </g>
     </g>
    </g>
    <g id="xtick_5">
     <g id="line2d_5">
      <g>
       <use style="stroke:#000000;stroke-width:0.8;" x="217.773416" xlink:href="#mba88621447" y="307.584"/>
      </g>
     </g>
     <g id="text_5">
      <!-- 138 -->
      <g transform="translate(208.229666 322.182437)scale(0.1 -0.1)">
       <defs>
        <path d="M 2034 2216 
Q 1584 2216 1326 1975 
Q 1069 1734 1069 1313 
Q 1069 891 1326 650 
Q 1584 409 2034 409 
Q 2484 409 2743 651 
Q 3003 894 3003 1313 
Q 3003 1734 2745 1975 
Q 2488 2216 2034 2216 
z
M 1403 2484 
Q 997 2584 770 2862 
Q 544 3141 544 3541 
Q 544 4100 942 4425 
Q 1341 4750 2034 4750 
Q 2731 4750 3128 4425 
Q 3525 4100 3525 3541 
Q 3525 3141 3298 2862 
Q 3072 2584 2669 2484 
Q 3125 2378 3379 2068 
Q 3634 1759 3634 1313 
Q 3634 634 3220 271 
Q 2806 -91 2034 -91 
Q 1263 -91 848 271 
Q 434 634 434 1313 
Q 434 1759 690 2068 
Q 947 2378 1403 2484 
z
M 1172 3481 
Q 1172 3119 1398 2916 
Q 1625 2713 2034 2713 
Q 2441 2713 2670 2916 
Q 2900 3119 2900 3481 
Q 2900 3844 2670 4047 
Q 2441 4250 2034 4250 
Q 1625 4250 1398 4047 
Q 1172 3844 1172 3481 
z
" id="DejaVuSans-38" transform="scale(0.015625)"/>
       </defs>
       <use xlink:href="#DejaVuSans-31"/>
       <use x="63.623047" xlink:href="#DejaVuSans-33"/>
       <use x="127.246094" xlink:href="#DejaVuSans-38"/>
      </g>
     </g>
    </g>
    <g id="xtick_6">
     <g id="line2d_6">
      <g>
       <use style="stroke:#000000;stroke-width:0.8;" x="253.495922" xlink:href="#mba88621447" y="307.584"/>
      </g>
     </g>
     <g id="text_6">
      <!-- 172 -->
      <g transform="translate(243.952172 322.182437)scale(0.1 -0.1)">
       <defs>
        <path d="M 525 4666 
L 3525 4666 
L 3525 4397 
L 1831 0 
L 1172 0 
L 2766 4134 
L 525 4134 
L 525 4666 
z
" id="DejaVuSans-37" transform="scale(0.015625)"/>
        <path d="M 1228 531 
L 3431 531 
L 3431 0 
L 469 0 
L 469 531 
Q 828 903 1448 1529 
Q 2069 2156 2228 2338 
Q 2531 2678 2651 2914 
Q 2772 3150 2772 3378 
Q 2772 3750 2511 3984 
Q 2250 4219 1831 4219 
Q 1534 4219 1204 4116 
Q 875 4013 500 3803 
L 500 4441 
Q 881 4594 1212 4672 
Q 1544 4750 1819 4750 
Q 2544 4750 2975 4387 
Q 3406 4025 3406 3419 
Q 3406 3131 3298 2873 
Q 3191 2616 2906 2266 
Q 2828 2175 2409 1742 
Q 1991 1309 1228 531 
z
" id="DejaVuSans-32" transform="scale(0.015625)"/>
       </defs>
       <use xlink:href="#DejaVuSans-31"/>
       <use x="63.623047" xlink:href="#DejaVuSans-37"/>
       <use x="127.246094" xlink:href="#DejaVuSans-32"/>
      </g>
     </g>
    </g>
    <g id="xtick_7">
     <g id="line2d_7">
      <g>
       <use style="stroke:#000000;stroke-width:0.8;" x="290.269091" xlink:href="#mba88621447" y="307.584"/>
      </g>
     </g>
     <g id="text_7">
      <!-- 207 -->
      <g transform="translate(280.725341 322.182437)scale(0.1 -0.1)">
       <use xlink:href="#DejaVuSans-32"/>
       <use x="63.623047" xlink:href="#DejaVuSans-30"/>
       <use x="127.246094" xlink:href="#DejaVuSans-37"/>
      </g>
     </g>
    </g>
    <g id="xtick_8">
     <g id="line2d_8">
      <g>
       <use style="stroke:#000000;stroke-width:0.8;" x="325.991598" xlink:href="#mba88621447" y="307.584"/>
      </g>
     </g>
     <g id="text_8">
      <!-- 241 -->
      <g transform="translate(316.447848 322.182437)scale(0.1 -0.1)">
       <use xlink:href="#DejaVuSans-32"/>
       <use x="63.623047" xlink:href="#DejaVuSans-34"/>
       <use x="127.246094" xlink:href="#DejaVuSans-31"/>
      </g>
     </g>
    </g>
    <g id="xtick_9">
     <g id="line2d_9">
      <g>
       <use style="stroke:#000000;stroke-width:0.8;" x="361.714104" xlink:href="#mba88621447" y="307.584"/>
      </g>
     </g>
     <g id="text_9">
      <!-- 275 -->
      <g transform="translate(352.170354 322.182437)scale(0.1 -0.1)">
       <use xlink:href="#DejaVuSans-32"/>
       <use x="63.623047" xlink:href="#DejaVuSans-37"/>
       <use x="127.246094" xlink:href="#DejaVuSans-35"/>
      </g>
     </g>
    </g>
    <g id="xtick_10">
     <g id="line2d_10">
      <g>
       <use style="stroke:#000000;stroke-width:0.8;" x="398.487273" xlink:href="#mba88621447" y="307.584"/>
      </g>
     </g>
     <g id="text_10">
      <!-- 310 -->
      <g transform="translate(388.943523 322.182437)scale(0.1 -0.1)">
       <use xlink:href="#DejaVuSans-33"/>
       <use x="63.623047" xlink:href="#DejaVuSans-31"/>
       <use x="127.246094" xlink:href="#DejaVuSans-30"/>
      </g>
     </g>
    </g>
    <g id="text_11">
     <!-- Epochs -->
     <g transform="translate(218.244375 335.860562)scale(0.1 -0.1)">
      <defs>
       <path d="M 628 4666 
L 3578 4666 
L 3578 4134 
L 1259 4134 
L 1259 2753 
L 3481 2753 
L 3481 2222 
L 1259 2222 
L 1259 531 
L 3634 531 
L 3634 0 
L 628 0 
L 628 4666 
z
" id="DejaVuSans-45" transform="scale(0.015625)"/>
       <path d="M 1159 525 
L 1159 -1331 
L 581 -1331 
L 581 3500 
L 1159 3500 
L 1159 2969 
Q 1341 3281 1617 3432 
Q 1894 3584 2278 3584 
Q 2916 3584 3314 3078 
Q 3713 2572 3713 1747 
Q 3713 922 3314 415 
Q 2916 -91 2278 -91 
Q 1894 -91 1617 61 
Q 1341 213 1159 525 
z
M 3116 1747 
Q 3116 2381 2855 2742 
Q 2594 3103 2138 3103 
Q 1681 3103 1420 2742 
Q 1159 2381 1159 1747 
Q 1159 1113 1420 752 
Q 1681 391 2138 391 
Q 2594 391 2855 752 
Q 3116 1113 3116 1747 
z
" id="DejaVuSans-70" transform="scale(0.015625)"/>
       <path d="M 1959 3097 
Q 1497 3097 1228 2736 
Q 959 2375 959 1747 
Q 959 1119 1226 758 
Q 1494 397 1959 397 
Q 2419 397 2687 759 
Q 2956 1122 2956 1747 
Q 2956 2369 2687 2733 
Q 2419 3097 1959 3097 
z
M 1959 3584 
Q 2709 3584 3137 3096 
Q 3566 2609 3566 1747 
Q 3566 888 3137 398 
Q 2709 -91 1959 -91 
Q 1206 -91 779 398 
Q 353 888 353 1747 
Q 353 2609 779 3096 
Q 1206 3584 1959 3584 
z
" id="DejaVuSans-6f" transform="scale(0.015625)"/>
       <path d="M 3122 3366 
L 3122 2828 
Q 2878 2963 2633 3030 
Q 2388 3097 2138 3097 
Q 1578 3097 1268 2742 
Q 959 2388 959 1747 
Q 959 1106 1268 751 
Q 1578 397 2138 397 
Q 2388 397 2633 464 
Q 2878 531 3122 666 
L 3122 134 
Q 2881 22 2623 -34 
Q 2366 -91 2075 -91 
Q 1284 -91 818 406 
Q 353 903 353 1747 
Q 353 2603 823 3093 
Q 1294 3584 2113 3584 
Q 2378 3584 2631 3529 
Q 2884 3475 3122 3366 
z
" id="DejaVuSans-63" transform="scale(0.015625)"/>
       <path d="M 3513 2113 
L 3513 0 
L 2938 0 
L 2938 2094 
Q 2938 2591 2744 2837 
Q 2550 3084 2163 3084 
Q 1697 3084 1428 2787 
Q 1159 2491 1159 1978 
L 1159 0 
L 581 0 
L 581 4863 
L 1159 4863 
L 1159 2956 
Q 1366 3272 1645 3428 
Q 1925 3584 2291 3584 
Q 2894 3584 3203 3211 
Q 3513 2838 3513 2113 
z
" id="DejaVuSans-68" transform="scale(0.015625)"/>
       <path d="M 2834 3397 
L 2834 2853 
Q 2591 2978 2328 3040 
Q 2066 3103 1784 3103 
Q 1356 3103 1142 2972 
Q 928 2841 928 2578 
Q 928 2378 1081 2264 
Q 1234 2150 1697 2047 
L 1894 2003 
Q 2506 1872 2764 1633 
Q 3022 1394 3022 966 
Q 3022 478 2636 193 
Q 2250 -91 1575 -91 
Q 1294 -91 989 -36 
Q 684 19 347 128 
L 347 722 
Q 666 556 975 473 
Q 1284 391 1588 391 
Q 1994 391 2212 530 
Q 2431 669 2431 922 
Q 2431 1156 2273 1281 
Q 2116 1406 1581 1522 
L 1381 1569 
Q 847 1681 609 1914 
Q 372 2147 372 2553 
Q 372 3047 722 3315 
Q 1072 3584 1716 3584 
Q 2034 3584 2315 3537 
Q 2597 3491 2834 3397 
z
" id="DejaVuSans-73" transform="scale(0.015625)"/>
      </defs>
      <use xlink:href="#DejaVuSans-45"/>
      <use x="63.183594" xlink:href="#DejaVuSans-70"/>
      <use x="126.660156" xlink:href="#DejaVuSans-6f"/>
      <use x="187.841797" xlink:href="#DejaVuSans-63"/>
      <use x="242.822266" xlink:href="#DejaVuSans-68"/>
      <use x="306.201172" xlink:href="#DejaVuSans-73"/>
     </g>
    </g>
   </g>
   <g id="matplotlib.axis_2">
    <g id="ytick_1">
     <g id="line2d_11">
      <defs>
       <path d="M 0 0 
L -3.5 0 
" id="mbf70dc4636" style="stroke:#000000;stroke-width:0.8;"/>
      </defs>
      <g>
       <use style="stroke:#000000;stroke-width:0.8;" x="57.6" xlink:href="#mbf70dc4636" y="303.454647"/>
      </g>
     </g>
     <g id="text_12">
      <!-- 20 -->
      <g transform="translate(37.875 307.253865)scale(0.1 -0.1)">
       <use xlink:href="#DejaVuSans-32"/>
       <use x="63.623047" xlink:href="#DejaVuSans-30"/>
      </g>
     </g>
    </g>
    <g id="ytick_2">
     <g id="line2d_12">
      <g>
       <use style="stroke:#000000;stroke-width:0.8;" x="57.6" xlink:href="#mbf70dc4636" y="270.955408"/>
      </g>
     </g>
     <g id="text_13">
      <!-- 30 -->
      <g transform="translate(37.875 274.754627)scale(0.1 -0.1)">
       <use xlink:href="#DejaVuSans-33"/>
       <use x="63.623047" xlink:href="#DejaVuSans-30"/>
      </g>
     </g>
    </g>
    <g id="ytick_3">
     <g id="line2d_13">
      <g>
       <use style="stroke:#000000;stroke-width:0.8;" x="57.6" xlink:href="#mbf70dc4636" y="238.456169"/>
      </g>
     </g>
     <g id="text_14">
      <!-- 40 -->
      <g transform="translate(37.875 242.255388)scale(0.1 -0.1)">
       <use xlink:href="#DejaVuSans-34"/>
       <use x="63.623047" xlink:href="#DejaVuSans-30"/>
      </g>
     </g>
    </g>
    <g id="ytick_4">
     <g id="line2d_14">
      <g>
       <use style="stroke:#000000;stroke-width:0.8;" x="57.6" xlink:href="#mbf70dc4636" y="205.95693"/>
      </g>
     </g>
     <g id="text_15">
      <!-- 50 -->
      <g transform="translate(37.875 209.756149)scale(0.1 -0.1)">
       <use xlink:href="#DejaVuSans-35"/>
       <use x="63.623047" xlink:href="#DejaVuSans-30"/>
      </g>
     </g>
    </g>
    <g id="ytick_5">
     <g id="line2d_15">
      <g>
       <use style="stroke:#000000;stroke-width:0.8;" x="57.6" xlink:href="#mbf70dc4636" y="173.457692"/>
      </g>
     </g>
     <g id="text_16">
      <!-- 60 -->
      <g transform="translate(37.875 177.25691)scale(0.1 -0.1)">
       <use xlink:href="#DejaVuSans-36"/>
       <use x="63.623047" xlink:href="#DejaVuSans-30"/>
      </g>
     </g>
    </g>
    <g id="ytick_6">
     <g id="line2d_16">
      <g>
       <use style="stroke:#000000;stroke-width:0.8;" x="57.6" xlink:href="#mbf70dc4636" y="140.958453"/>
      </g>
     </g>
     <g id="text_17">
      <!-- 70 -->
      <g transform="translate(37.875 144.757672)scale(0.1 -0.1)">
       <use xlink:href="#DejaVuSans-37"/>
       <use x="63.623047" xlink:href="#DejaVuSans-30"/>
      </g>
     </g>
    </g>
    <g id="ytick_7">
     <g id="line2d_17">
      <g>
       <use style="stroke:#000000;stroke-width:0.8;" x="57.6" xlink:href="#mbf70dc4636" y="108.459214"/>
      </g>
     </g>
     <g id="text_18">
      <!-- 80 -->
      <g transform="translate(37.875 112.258433)scale(0.1 -0.1)">
       <use xlink:href="#DejaVuSans-38"/>
       <use x="63.623047" xlink:href="#DejaVuSans-30"/>
      </g>
     </g>
    </g>
    <g id="ytick_8">
     <g id="line2d_18">
      <g>
       <use style="stroke:#000000;stroke-width:0.8;" x="57.6" xlink:href="#mbf70dc4636" y="75.959975"/>
      </g>
     </g>
     <g id="text_19">
      <!-- 90 -->
      <g transform="translate(37.875 79.759194)scale(0.1 -0.1)">
       <use xlink:href="#DejaVuSans-39"/>
       <use x="63.623047" xlink:href="#DejaVuSans-30"/>
      </g>
     </g>
    </g>
    <g id="ytick_9">
     <g id="line2d_19">
      <g>
       <use style="stroke:#000000;stroke-width:0.8;" x="57.6" xlink:href="#mbf70dc4636" y="43.460737"/>
      </g>
     </g>
     <g id="text_20">
      <!-- 100 -->
      <g transform="translate(31.5125 47.259955)scale(0.1 -0.1)">
       <use xlink:href="#DejaVuSans-31"/>
       <use x="63.623047" xlink:href="#DejaVuSans-30"/>
       <use x="127.246094" xlink:href="#DejaVuSans-30"/>
      </g>
     </g>
    </g>
    <g id="text_21">
     <!-- Accuracy -->
     <g transform="translate(25.432812 197.356125)rotate(-90)scale(0.1 -0.1)">
      <defs>
       <path d="M 2188 4044 
L 1331 1722 
L 3047 1722 
L 2188 4044 
z
M 1831 4666 
L 2547 4666 
L 4325 0 
L 3669 0 
L 3244 1197 
L 1141 1197 
L 716 0 
L 50 0 
L 1831 4666 
z
" id="DejaVuSans-41" transform="scale(0.015625)"/>
       <path d="M 544 1381 
L 544 3500 
L 1119 3500 
L 1119 1403 
Q 1119 906 1312 657 
Q 1506 409 1894 409 
Q 2359 409 2629 706 
Q 2900 1003 2900 1516 
L 2900 3500 
L 3475 3500 
L 3475 0 
L 2900 0 
L 2900 538 
Q 2691 219 2414 64 
Q 2138 -91 1772 -91 
Q 1169 -91 856 284 
Q 544 659 544 1381 
z
M 1991 3584 
L 1991 3584 
z
" id="DejaVuSans-75" transform="scale(0.015625)"/>
       <path d="M 2631 2963 
Q 2534 3019 2420 3045 
Q 2306 3072 2169 3072 
Q 1681 3072 1420 2755 
Q 1159 2438 1159 1844 
L 1159 0 
L 581 0 
L 581 3500 
L 1159 3500 
L 1159 2956 
Q 1341 3275 1631 3429 
Q 1922 3584 2338 3584 
Q 2397 3584 2469 3576 
Q 2541 3569 2628 3553 
L 2631 2963 
z
" id="DejaVuSans-72" transform="scale(0.015625)"/>
       <path d="M 2194 1759 
Q 1497 1759 1228 1600 
Q 959 1441 959 1056 
Q 959 750 1161 570 
Q 1363 391 1709 391 
Q 2188 391 2477 730 
Q 2766 1069 2766 1631 
L 2766 1759 
L 2194 1759 
z
M 3341 1997 
L 3341 0 
L 2766 0 
L 2766 531 
Q 2569 213 2275 61 
Q 1981 -91 1556 -91 
Q 1019 -91 701 211 
Q 384 513 384 1019 
Q 384 1609 779 1909 
Q 1175 2209 1959 2209 
L 2766 2209 
L 2766 2266 
Q 2766 2663 2505 2880 
Q 2244 3097 1772 3097 
Q 1472 3097 1187 3025 
Q 903 2953 641 2809 
L 641 3341 
Q 956 3463 1253 3523 
Q 1550 3584 1831 3584 
Q 2591 3584 2966 3190 
Q 3341 2797 3341 1997 
z
" id="DejaVuSans-61" transform="scale(0.015625)"/>
       <path d="M 2059 -325 
Q 1816 -950 1584 -1140 
Q 1353 -1331 966 -1331 
L 506 -1331 
L 506 -850 
L 844 -850 
Q 1081 -850 1212 -737 
Q 1344 -625 1503 -206 
L 1606 56 
L 191 3500 
L 800 3500 
L 1894 763 
L 2988 3500 
L 3597 3500 
L 2059 -325 
z
" id="DejaVuSans-79" transform="scale(0.015625)"/>
      </defs>
      <use xlink:href="#DejaVuSans-41"/>
      <use x="66.658203" xlink:href="#DejaVuSans-63"/>
      <use x="121.638672" xlink:href="#DejaVuSans-63"/>
      <use x="176.619141" xlink:href="#DejaVuSans-75"/>
      <use x="239.998047" xlink:href="#DejaVuSans-72"/>
      <use x="281.111328" xlink:href="#DejaVuSans-61"/>
      <use x="342.390625" xlink:href="#DejaVuSans-63"/>
      <use x="397.371094" xlink:href="#DejaVuSans-79"/>
     </g>
    </g>
   </g>
   <g id="line2d_20">
    <path clip-path="url(#p62f9931efe)" d="M 73.832727 295.488 
L 74.883389 283.838106 
L 75.934051 247.302462 
L 78.035375 207.432396 
L 79.086037 207.068404 
L 80.136699 195.949332 
L 82.238023 175.565809 
L 83.288685 168.431143 
L 84.339347 165.774872 
L 85.390009 190.753787 
L 86.440671 182.186987 
L 88.541995 168.641305 
L 89.592657 164.416404 
L 90.643319 161.608469 
L 91.693981 162.332119 
L 92.744643 159.959675 
L 93.795305 151.947529 
L 94.845966 152.201023 
L 95.896628 158.45171 
L 96.94729 142.308255 
L 97.997952 140.590128 
L 99.048614 140.611794 
L 100.099276 141.144782 
L 101.149938 135.585246 
L 102.2006 128.608742 
L 103.251262 129.672551 
L 104.301924 139.495987 
L 105.352586 134.41094 
L 106.403248 149.726748 
L 107.45391 146.563488 
L 108.504572 150.569561 
L 109.555234 144.022048 
L 110.605896 143.675389 
L 111.656558 147.120309 
L 112.70722 143.274565 
L 113.757882 137.738862 
L 114.808544 136.525557 
L 115.859206 131.525007 
L 117.96053 134.495438 
L 119.011192 139.567486 
L 121.112515 128.420247 
L 122.163177 119.359459 
L 123.213839 135.028425 
L 124.264501 128.233918 
L 125.315163 123.944018 
L 127.416487 122.134894 
L 128.467149 131.475175 
L 129.517811 130.463365 
L 130.568473 122.219392 
L 131.619135 118.349816 
L 132.669797 118.577311 
L 133.720459 117.628333 
L 134.771121 118.358482 
L 135.821783 114.497573 
L 136.872445 112.896444 
L 137.923107 117.645666 
L 138.973769 111.984298 
L 140.024431 116.73352 
L 141.075093 115.266721 
L 142.125755 115.674045 
L 143.176417 110.653996 
L 144.227079 107.20691 
L 145.277741 112.673282 
L 146.328402 126.214632 
L 147.379064 107.668399 
L 148.429726 122.280057 
L 149.480388 133.308132 
L 150.53105 128.298916 
L 151.581712 121.695071 
L 152.632374 126.901449 
L 153.683036 120.923756 
L 154.733698 123.068705 
L 155.78436 131.8175 
L 156.835022 127.488602 
L 157.885684 122.687381 
L 158.936346 123.855187 
L 159.987008 122.509718 
L 161.03767 120.930255 
L 162.088332 116.230866 
L 163.138994 122.098061 
L 164.189656 119.888113 
L 165.240318 126.00447 
L 166.29098 119.365959 
L 167.341642 116.480026 
L 168.392304 121.569407 
L 169.442966 123.278867 
L 170.493628 114.727234 
L 171.544289 115.474717 
L 172.594951 116.415028 
L 173.645613 113.015608 
L 174.696275 112.824945 
L 175.746937 125.029493 
L 176.797599 118.819972 
L 177.848261 118.453813 
L 178.898923 106.868918 
L 179.949585 115.801876 
L 181.000247 113.009108 
L 182.050909 111.579141 
L 183.101571 114.913563 
L 184.152233 110.032177 
L 185.202895 119.15363 
L 186.253557 109.213197 
L 187.304219 106.652257 
L 188.354881 116.142034 
L 189.405543 112.400289 
L 190.456205 103.66016 
L 191.506867 112.902943 
L 192.557529 113.444597 
L 193.608191 108.086556 
L 194.658853 100.763395 
L 195.709515 110.368003 
L 196.760177 110.149175 
L 197.810838 112.343957 
L 198.8615 102.672183 
L 199.912162 104.097816 
L 200.962824 99.290096 
L 202.013486 111.444811 
L 203.064148 104.95363 
L 204.11481 114.60157 
L 205.165472 107.009748 
L 207.266796 102.089363 
L 208.317458 101.692873 
L 209.36812 108.125555 
L 210.418782 101.872702 
L 211.469444 100.763395 
L 212.520106 100.187075 
L 213.570768 104.355644 
L 214.62143 101.552043 
L 215.672092 102.310358 
L 216.722754 99.251097 
L 217.773416 97.873129 
L 218.824078 102.039531 
L 219.87474 98.438616 
L 220.925402 102.401356 
L 221.976064 97.155979 
L 223.026726 92.714416 
L 224.077387 98.219787 
L 225.128049 95.303522 
L 226.178711 99.023602 
L 227.229373 93.97322 
L 228.280035 95.450852 
L 229.330697 94.97853 
L 230.381359 92.807581 
L 231.432021 89.479659 
L 232.482683 113.258268 
L 233.533345 115.327387 
L 234.584007 115.186557 
L 235.634669 112.434954 
L 236.685331 112.339623 
L 237.735993 112.60395 
L 238.786655 113.927753 
L 239.837317 112.796779 
L 240.887979 109.555522 
L 241.938641 116.867851 
L 242.989303 110.976822 
L 244.039965 111.230316 
L 245.090627 115.598214 
L 246.141289 119.155797 
L 247.191951 120.245605 
L 248.242613 116.209199 
L 249.293274 109.62052 
L 250.343936 110.450334 
L 251.394598 112.946276 
L 252.44526 104.979629 
L 253.495922 110.818659 
L 254.546584 107.098579 
L 255.597246 113.652593 
L 256.647908 112.772947 
L 257.69857 102.585518 
L 258.749232 106.955583 
L 259.799894 106.112769 
L 260.850556 108.129889 
L 261.901218 101.779537 
L 262.95188 106.145268 
L 264.002542 105.098793 
L 265.053204 105.922107 
L 266.103866 113.732757 
L 267.154528 108.491713 
L 268.20519 106.686922 
L 269.255852 109.553355 
L 270.306514 102.880178 
L 271.357176 106.847252 
L 272.407838 109.917347 
L 273.4585 106.383596 
L 274.509162 106.671756 
L 275.559823 109.419025 
L 276.610485 109.20453 
L 277.661147 111.028821 
L 278.711809 105.345787 
L 279.762471 104.931964 
L 280.813133 102.678683 
L 281.863795 114.395742 
L 282.914457 101.814203 
L 283.965119 102.763181 
L 285.015781 98.494948 
L 286.066443 106.556925 
L 287.117105 104.914631 
L 288.167767 102.080697 
L 289.218429 108.652043 
L 290.269091 104.459641 
L 291.319753 100.960557 
L 292.370415 103.229003 
L 293.421077 104.754301 
L 294.471739 100.440569 
L 295.522401 98.601112 
L 296.573063 95.123693 
L 297.623725 105.677279 
L 298.674387 102.691683 
L 299.725049 103.073007 
L 300.775711 104.622137 
L 301.826372 96.064005 
L 303.927696 102.505354 
L 304.978358 99.894582 
L 306.02902 99.0951 
L 307.079682 92.25726 
L 308.130344 96.178835 
L 309.181006 101.705872 
L 310.231668 95.736846 
L 311.28233 100.477401 
L 312.332992 95.743345 
L 313.383654 102.451188 
L 314.434316 101.627874 
L 315.484978 97.747465 
L 316.53564 91.745939 
L 317.586302 96.038005 
L 318.636964 97.175479 
L 319.687626 99.190431 
L 320.738288 93.884389 
L 321.78895 92.866079 
L 322.839612 98.945604 
L 323.890274 95.071694 
L 324.940936 96.783321 
L 325.991598 92.822747 
L 327.042259 93.093574 
L 329.143583 102.505354 
L 330.194245 89.620489 
L 331.244907 100.453568 
L 332.295569 94.012219 
L 333.346231 98.583779 
L 334.396893 95.437853 
L 335.447555 91.69394 
L 336.498217 91.678774 
L 337.548879 94.930864 
L 338.599541 100.143742 
L 339.650203 100.496901 
L 340.700865 87.811365 
L 341.751527 91.583443 
L 342.802189 100.11991 
L 343.852851 86.502729 
L 344.903513 91.180452 
L 345.954175 85.779079 
L 347.004837 90.640965 
L 348.055499 93.4294 
L 349.106161 92.71875 
L 350.156823 91.836937 
L 351.207485 87.525371 
L 353.308808 88.541514 
L 354.35947 89.993147 
L 355.410132 86.946885 
L 356.460794 90.192475 
L 357.511456 92.382924 
L 358.562118 97.977126 
L 359.61278 88.472182 
L 360.663442 92.415423 
L 361.714104 90.686464 
L 362.764766 86.569894 
L 363.815428 92.376424 
L 364.86609 93.299403 
L 365.916752 91.925768 
L 366.967414 87.02055 
L 368.018076 89.258664 
L 369.068738 92.694917 
L 370.1194 91.797938 
L 371.170062 86.491895 
L 372.220724 91.9886 
L 373.271386 84.134617 
L 375.37271 91.223785 
L 376.423372 83.872457 
L 377.474034 90.014813 
L 378.524695 88.392018 
L 379.575357 89.817651 
L 380.626019 85.044596 
L 381.676681 82.945145 
L 382.727343 95.336022 
L 383.778005 85.729247 
L 384.828667 93.249571 
L 385.879329 82.895313 
L 386.929991 85.503919 
L 387.980653 90.13181 
L 389.031315 89.891316 
L 390.081977 89.336662 
L 391.132639 86.383565 
L 392.183301 82.325493 
L 393.233963 83.909289 
L 394.284625 83.369802 
L 395.335287 89.889149 
L 396.385949 86.491895 
L 397.436611 92.39809 
L 398.487273 78.61408 
L 398.487273 78.61408 
" style="fill:none;stroke:#1f77b4;stroke-linecap:square;stroke-width:1.5;"/>
   </g>
   <g id="line2d_21">
    <path clip-path="url(#p62f9931efe)" d="M 73.832727 234.263767 
L 74.883389 235.076248 
L 75.934051 238.911159 
L 76.984713 188.342343 
L 78.035375 170.857753 
L 79.086037 161.270477 
L 81.187361 128.316249 
L 82.238023 113.659092 
L 83.288685 108.816706 
L 84.339347 107.77673 
L 85.390009 142.225923 
L 87.491333 116.811519 
L 88.541995 121.263914 
L 89.592657 119.411458 
L 90.643319 99.131933 
L 91.693981 104.266812 
L 93.795305 92.989577 
L 94.845966 90.71463 
L 95.896628 92.762082 
L 96.94729 91.819604 
L 97.997952 83.272304 
L 99.048614 84.864767 
L 100.099276 78.039927 
L 101.149938 77.48744 
L 102.2006 77.974928 
L 103.251262 76.219969 
L 104.301924 76.18747 
L 105.352586 75.504986 
L 106.403248 102.771847 
L 107.45391 92.85958 
L 108.504572 92.274593 
L 109.555234 91.267117 
L 110.605896 86.749723 
L 111.656558 92.989577 
L 113.757882 78.007428 
L 114.808544 84.052286 
L 116.909868 76.447464 
L 117.96053 83.824791 
L 119.011192 79.664889 
L 120.061853 77.422441 
L 121.112515 78.852408 
L 122.163177 75.537485 
L 123.213839 75.244992 
L 124.264501 77.03245 
L 125.315163 72.742551 
L 126.365825 71.377583 
L 127.416487 71.995068 
L 128.467149 69.330131 
L 129.517811 71.93007 
L 130.568473 69.427629 
L 131.619135 70.045114 
L 132.669797 66.145205 
L 133.720459 69.720122 
L 134.771121 67.802667 
L 135.821783 66.405199 
L 137.923107 64.487744 
L 138.973769 64.390247 
L 141.075093 63.870259 
L 142.125755 63.090277 
L 143.176417 63.285272 
L 144.227079 62.635288 
L 145.277741 62.635288 
L 146.328402 63.480268 
L 147.379064 63.025278 
L 148.429726 78.267421 
L 149.480388 83.629796 
L 150.53105 84.994764 
L 151.581712 80.47737 
L 152.632374 73.19754 
L 153.683036 79.859884 
L 154.733698 78.397418 
L 155.78436 75.374989 
L 156.835022 74.465011 
L 157.885684 72.742551 
L 158.936346 73.782527 
L 159.987008 71.08509 
L 161.03767 71.312584 
L 162.088332 72.35256 
L 163.138994 70.955093 
L 164.189656 74.07502 
L 165.240318 74.725004 
L 166.29098 70.597601 
L 167.341642 70.987592 
L 169.442966 67.867665 
L 170.493628 70.987592 
L 171.544289 70.077613 
L 172.594951 71.150088 
L 173.645613 66.242703 
L 174.696275 68.51765 
L 175.746937 66.957686 
L 176.797599 66.79519 
L 177.848261 64.910234 
L 178.898923 67.67267 
L 179.949585 71.117589 
L 181.000247 64.520243 
L 182.050909 64.357747 
L 183.101571 64.422746 
L 184.152233 62.765285 
L 185.202895 61.790307 
L 186.253557 63.447769 
L 187.304219 63.285272 
L 188.354881 61.595312 
L 189.405543 61.432816 
L 190.456205 64.032755 
L 191.506867 63.512767 
L 192.557529 61.855306 
L 194.658853 60.360341 
L 195.709515 61.595312 
L 196.760177 63.415269 
L 197.810838 61.367817 
L 198.8615 60.750332 
L 199.912162 61.27032 
L 202.013486 59.742855 
L 203.064148 60.750332 
L 204.11481 60.197845 
L 205.165472 58.832877 
L 206.216134 59.612858 
L 207.266796 58.70288 
L 208.317458 58.410387 
L 209.36812 59.255367 
L 210.418782 58.215391 
L 211.469444 57.727903 
L 212.520106 59.157869 
L 213.570768 58.930374 
L 214.62143 57.8254 
L 215.672092 57.045419 
L 216.722754 57.532907 
L 218.824078 57.922898 
L 219.87474 57.175416 
L 220.925402 56.785425 
L 221.976064 56.655428 
L 223.026726 56.13544 
L 224.077387 57.077918 
L 225.128049 56.752925 
L 226.178711 56.55793 
L 227.229373 56.102941 
L 228.280035 56.070441 
L 229.330697 56.200438 
L 230.381359 56.492931 
L 231.432021 56.427933 
L 232.482683 67.932664 
L 233.533345 66.827689 
L 234.584007 65.982709 
L 235.634669 74.172517 
L 236.685331 66.242703 
L 237.735993 69.102636 
L 238.786655 65.267726 
L 239.837317 63.252773 
L 240.887979 63.38277 
L 241.938641 66.340201 
L 242.989303 69.655123 
L 244.039965 64.26025 
L 245.090627 63.122776 
L 246.141289 63.870259 
L 247.191951 65.300225 
L 248.242613 62.927781 
L 249.293274 65.072731 
L 250.343936 61.855306 
L 251.394598 64.162752 
L 252.44526 63.090277 
L 253.495922 63.740262 
L 254.546584 65.040231 
L 255.597246 63.155275 
L 256.647908 61.822807 
L 257.69857 63.480268 
L 258.749232 65.592718 
L 259.799894 63.642764 
L 260.850556 66.340201 
L 262.95188 63.610265 
L 264.002542 62.862782 
L 265.053204 61.497814 
L 266.103866 61.400317 
L 267.154528 63.350271 
L 268.20519 63.025278 
L 269.255852 62.830283 
L 270.306514 62.212798 
L 271.357176 61.952804 
L 272.407838 61.367817 
L 273.4585 61.465315 
L 274.509162 62.375294 
L 275.559823 61.302819 
L 276.610485 59.645358 
L 277.661147 64.195251 
L 278.711809 62.505291 
L 279.762471 60.100347 
L 280.813133 63.155275 
L 281.863795 62.407793 
L 282.914457 62.050301 
L 283.965119 60.132846 
L 285.015781 62.53779 
L 286.066443 60.165345 
L 287.117105 61.335318 
L 288.167767 61.530313 
L 289.218429 61.010326 
L 290.269091 59.157869 
L 291.319753 59.255367 
L 292.370415 62.245297 
L 293.421077 60.295342 
L 294.471739 60.945327 
L 296.573063 61.205321 
L 297.623725 60.945327 
L 298.674387 60.555336 
L 299.725049 58.442886 
L 300.775711 60.360341 
L 301.826372 59.060371 
L 302.877034 59.060371 
L 303.927696 61.042825 
L 304.978358 59.417863 
L 306.02902 59.872852 
L 307.079682 61.985303 
L 308.130344 57.922898 
L 309.181006 59.710356 
L 310.231668 59.092871 
L 311.28233 57.955397 
L 312.332992 57.890399 
L 313.383654 57.695403 
L 314.434316 58.117893 
L 315.484978 59.97035 
L 316.53564 58.70288 
L 317.586302 59.12537 
L 318.636964 59.352864 
L 319.687626 57.8579 
L 320.738288 59.060371 
L 321.78895 56.622928 
L 323.890274 58.800377 
L 324.940936 57.240414 
L 325.991598 58.605382 
L 327.042259 57.012919 
L 328.092921 58.897875 
L 329.143583 56.297936 
L 331.244907 56.590429 
L 332.295569 56.55793 
L 333.346231 56.102941 
L 334.396893 57.272913 
L 335.447555 57.045419 
L 336.498217 58.312889 
L 337.548879 56.55793 
L 338.599541 55.745449 
L 339.650203 56.590429 
L 340.700865 56.102941 
L 341.751527 55.940444 
L 342.802189 57.40291 
L 343.852851 55.062965 
L 344.903513 56.265437 
L 345.954175 56.005443 
L 347.004837 56.167939 
L 348.055499 55.842947 
L 349.106161 56.13544 
L 350.156823 55.160463 
L 351.207485 55.907945 
L 352.258147 55.485455 
L 353.308808 55.680451 
L 354.35947 56.070441 
L 355.410132 54.997967 
L 357.511456 54.607976 
L 358.562118 54.997967 
L 359.61278 54.510478 
L 360.663442 54.672974 
L 361.714104 55.680451 
L 362.764766 55.127963 
L 364.86609 54.86797 
L 365.916752 54.445479 
L 366.967414 54.575476 
L 368.018076 54.152986 
L 369.068738 54.932968 
L 370.1194 55.387957 
L 371.170062 54.737973 
L 373.271386 54.055489 
L 374.322048 54.672974 
L 375.37271 53.697997 
L 376.423372 53.665498 
L 377.474034 54.022989 
L 378.524695 53.600499 
L 379.575357 53.860493 
L 380.626019 53.827994 
L 381.676681 53.568 
L 382.727343 53.925492 
L 383.778005 53.568 
L 384.828667 53.697997 
L 386.929991 53.795495 
L 387.980653 53.925492 
L 389.031315 54.217985 
L 390.081977 53.892992 
L 391.132639 53.925492 
L 393.233963 53.762995 
L 394.284625 54.250484 
L 395.335287 54.315482 
L 396.385949 53.697997 
L 397.436611 54.120487 
L 398.487273 53.600499 
L 398.487273 53.600499 
" style="fill:none;stroke:#ff7f0e;stroke-linecap:square;stroke-width:1.5;"/>
   </g>
   <g id="patch_3">
    <path d="M 57.6 307.584 
L 57.6 41.472 
" style="fill:none;stroke:#000000;stroke-linecap:square;stroke-linejoin:miter;stroke-width:0.8;"/>
   </g>
   <g id="patch_4">
    <path d="M 414.72 307.584 
L 414.72 41.472 
" style="fill:none;stroke:#000000;stroke-linecap:square;stroke-linejoin:miter;stroke-width:0.8;"/>
   </g>
   <g id="patch_5">
    <path d="M 57.6 307.584 
L 414.72 307.584 
" style="fill:none;stroke:#000000;stroke-linecap:square;stroke-linejoin:miter;stroke-width:0.8;"/>
   </g>
   <g id="patch_6">
    <path d="M 57.6 41.472 
L 414.72 41.472 
" style="fill:none;stroke:#000000;stroke-linecap:square;stroke-linejoin:miter;stroke-width:0.8;"/>
   </g>
   <g id="text_22">
    <!-- Training and Validation Accuracy -->
    <g transform="translate(138.4575 35.472)scale(0.12 -0.12)">
     <defs>
      <path d="M -19 4666 
L 3928 4666 
L 3928 4134 
L 2272 4134 
L 2272 0 
L 1638 0 
L 1638 4134 
L -19 4134 
L -19 4666 
z
" id="DejaVuSans-54" transform="scale(0.015625)"/>
      <path d="M 603 3500 
L 1178 3500 
L 1178 0 
L 603 0 
L 603 3500 
z
M 603 4863 
L 1178 4863 
L 1178 4134 
L 603 4134 
L 603 4863 
z
" id="DejaVuSans-69" transform="scale(0.015625)"/>
      <path d="M 3513 2113 
L 3513 0 
L 2938 0 
L 2938 2094 
Q 2938 2591 2744 2837 
Q 2550 3084 2163 3084 
Q 1697 3084 1428 2787 
Q 1159 2491 1159 1978 
L 1159 0 
L 581 0 
L 581 3500 
L 1159 3500 
L 1159 2956 
Q 1366 3272 1645 3428 
Q 1925 3584 2291 3584 
Q 2894 3584 3203 3211 
Q 3513 2838 3513 2113 
z
" id="DejaVuSans-6e" transform="scale(0.015625)"/>
      <path d="M 2906 1791 
Q 2906 2416 2648 2759 
Q 2391 3103 1925 3103 
Q 1463 3103 1205 2759 
Q 947 2416 947 1791 
Q 947 1169 1205 825 
Q 1463 481 1925 481 
Q 2391 481 2648 825 
Q 2906 1169 2906 1791 
z
M 3481 434 
Q 3481 -459 3084 -895 
Q 2688 -1331 1869 -1331 
Q 1566 -1331 1297 -1286 
Q 1028 -1241 775 -1147 
L 775 -588 
Q 1028 -725 1275 -790 
Q 1522 -856 1778 -856 
Q 2344 -856 2625 -561 
Q 2906 -266 2906 331 
L 2906 616 
Q 2728 306 2450 153 
Q 2172 0 1784 0 
Q 1141 0 747 490 
Q 353 981 353 1791 
Q 353 2603 747 3093 
Q 1141 3584 1784 3584 
Q 2172 3584 2450 3431 
Q 2728 3278 2906 2969 
L 2906 3500 
L 3481 3500 
L 3481 434 
z
" id="DejaVuSans-67" transform="scale(0.015625)"/>
      <path id="DejaVuSans-20" transform="scale(0.015625)"/>
      <path d="M 2906 2969 
L 2906 4863 
L 3481 4863 
L 3481 0 
L 2906 0 
L 2906 525 
Q 2725 213 2448 61 
Q 2172 -91 1784 -91 
Q 1150 -91 751 415 
Q 353 922 353 1747 
Q 353 2572 751 3078 
Q 1150 3584 1784 3584 
Q 2172 3584 2448 3432 
Q 2725 3281 2906 2969 
z
M 947 1747 
Q 947 1113 1208 752 
Q 1469 391 1925 391 
Q 2381 391 2643 752 
Q 2906 1113 2906 1747 
Q 2906 2381 2643 2742 
Q 2381 3103 1925 3103 
Q 1469 3103 1208 2742 
Q 947 2381 947 1747 
z
" id="DejaVuSans-64" transform="scale(0.015625)"/>
      <path d="M 1831 0 
L 50 4666 
L 709 4666 
L 2188 738 
L 3669 4666 
L 4325 4666 
L 2547 0 
L 1831 0 
z
" id="DejaVuSans-56" transform="scale(0.015625)"/>
      <path d="M 603 4863 
L 1178 4863 
L 1178 0 
L 603 0 
L 603 4863 
z
" id="DejaVuSans-6c" transform="scale(0.015625)"/>
      <path d="M 1172 4494 
L 1172 3500 
L 2356 3500 
L 2356 3053 
L 1172 3053 
L 1172 1153 
Q 1172 725 1289 603 
Q 1406 481 1766 481 
L 2356 481 
L 2356 0 
L 1766 0 
Q 1100 0 847 248 
Q 594 497 594 1153 
L 594 3053 
L 172 3053 
L 172 3500 
L 594 3500 
L 594 4494 
L 1172 4494 
z
" id="DejaVuSans-74" transform="scale(0.015625)"/>
     </defs>
     <use xlink:href="#DejaVuSans-54"/>
     <use x="46.333984" xlink:href="#DejaVuSans-72"/>
     <use x="87.447266" xlink:href="#DejaVuSans-61"/>
     <use x="148.726562" xlink:href="#DejaVuSans-69"/>
     <use x="176.509766" xlink:href="#DejaVuSans-6e"/>
     <use x="239.888672" xlink:href="#DejaVuSans-69"/>
     <use x="267.671875" xlink:href="#DejaVuSans-6e"/>
     <use x="331.050781" xlink:href="#DejaVuSans-67"/>
     <use x="394.527344" xlink:href="#DejaVuSans-20"/>
     <use x="426.314453" xlink:href="#DejaVuSans-61"/>
     <use x="487.59375" xlink:href="#DejaVuSans-6e"/>
     <use x="550.972656" xlink:href="#DejaVuSans-64"/>
     <use x="614.449219" xlink:href="#DejaVuSans-20"/>
     <use x="646.236328" xlink:href="#DejaVuSans-56"/>
     <use x="706.894531" xlink:href="#DejaVuSans-61"/>
     <use x="768.173828" xlink:href="#DejaVuSans-6c"/>
     <use x="795.957031" xlink:href="#DejaVuSans-69"/>
     <use x="823.740234" xlink:href="#DejaVuSans-64"/>
     <use x="887.216797" xlink:href="#DejaVuSans-61"/>
     <use x="948.496094" xlink:href="#DejaVuSans-74"/>
     <use x="987.705078" xlink:href="#DejaVuSans-69"/>
     <use x="1015.488281" xlink:href="#DejaVuSans-6f"/>
     <use x="1076.669922" xlink:href="#DejaVuSans-6e"/>
     <use x="1140.048828" xlink:href="#DejaVuSans-20"/>
     <use x="1171.835938" xlink:href="#DejaVuSans-41"/>
     <use x="1238.494141" xlink:href="#DejaVuSans-63"/>
     <use x="1293.474609" xlink:href="#DejaVuSans-63"/>
     <use x="1348.455078" xlink:href="#DejaVuSans-75"/>
     <use x="1411.833984" xlink:href="#DejaVuSans-72"/>
     <use x="1452.947266" xlink:href="#DejaVuSans-61"/>
     <use x="1514.226562" xlink:href="#DejaVuSans-63"/>
     <use x="1569.207031" xlink:href="#DejaVuSans-79"/>
    </g>
   </g>
   <g id="legend_1">
    <g id="patch_7">
     <path d="M 277.504375 302.584 
L 407.72 302.584 
Q 409.72 302.584 409.72 300.584 
L 409.72 272.22775 
Q 409.72 270.22775 407.72 270.22775 
L 277.504375 270.22775 
Q 275.504375 270.22775 275.504375 272.22775 
L 275.504375 300.584 
Q 275.504375 302.584 277.504375 302.584 
z
" style="fill:#ffffff;opacity:0.8;stroke:#cccccc;stroke-linejoin:miter;"/>
    </g>
    <g id="line2d_22">
     <path d="M 279.504375 278.326187 
L 299.504375 278.326187 
" style="fill:none;stroke:#1f77b4;stroke-linecap:square;stroke-width:1.5;"/>
    </g>
    <g id="line2d_23"/>
    <g id="text_23">
     <!-- Train Accuracy -->
     <g transform="translate(307.504375 281.826187)scale(0.1 -0.1)">
      <use xlink:href="#DejaVuSans-54"/>
      <use x="46.333984" xlink:href="#DejaVuSans-72"/>
      <use x="87.447266" xlink:href="#DejaVuSans-61"/>
      <use x="148.726562" xlink:href="#DejaVuSans-69"/>
      <use x="176.509766" xlink:href="#DejaVuSans-6e"/>
      <use x="239.888672" xlink:href="#DejaVuSans-20"/>
      <use x="271.675781" xlink:href="#DejaVuSans-41"/>
      <use x="338.333984" xlink:href="#DejaVuSans-63"/>
      <use x="393.314453" xlink:href="#DejaVuSans-63"/>
      <use x="448.294922" xlink:href="#DejaVuSans-75"/>
      <use x="511.673828" xlink:href="#DejaVuSans-72"/>
      <use x="552.787109" xlink:href="#DejaVuSans-61"/>
      <use x="614.066406" xlink:href="#DejaVuSans-63"/>
      <use x="669.046875" xlink:href="#DejaVuSans-79"/>
     </g>
    </g>
    <g id="line2d_24">
     <path d="M 279.504375 293.004312 
L 299.504375 293.004312 
" style="fill:none;stroke:#ff7f0e;stroke-linecap:square;stroke-width:1.5;"/>
    </g>
    <g id="line2d_25"/>
    <g id="text_24">
     <!-- Validation Accuracy -->
     <g transform="translate(307.504375 296.504312)scale(0.1 -0.1)">
      <use xlink:href="#DejaVuSans-56"/>
      <use x="60.658203" xlink:href="#DejaVuSans-61"/>
      <use x="121.9375" xlink:href="#DejaVuSans-6c"/>
      <use x="149.720703" xlink:href="#DejaVuSans-69"/>
      <use x="177.503906" xlink:href="#DejaVuSans-64"/>
      <use x="240.980469" xlink:href="#DejaVuSans-61"/>
      <use x="302.259766" xlink:href="#DejaVuSans-74"/>
      <use x="341.46875" xlink:href="#DejaVuSans-69"/>
      <use x="369.251953" xlink:href="#DejaVuSans-6f"/>
      <use x="430.433594" xlink:href="#DejaVuSans-6e"/>
      <use x="493.8125" xlink:href="#DejaVuSans-20"/>
      <use x="525.599609" xlink:href="#DejaVuSans-41"/>
      <use x="592.257812" xlink:href="#DejaVuSans-63"/>
      <use x="647.238281" xlink:href="#DejaVuSans-63"/>
      <use x="702.21875" xlink:href="#DejaVuSans-75"/>
      <use x="765.597656" xlink:href="#DejaVuSans-72"/>
      <use x="806.710938" xlink:href="#DejaVuSans-61"/>
      <use x="867.990234" xlink:href="#DejaVuSans-63"/>
      <use x="922.970703" xlink:href="#DejaVuSans-79"/>
     </g>
    </g>
   </g>
  </g>
 </g>
 <defs>
  <clipPath id="p62f9931efe">
   <rect height="266.112" width="357.12" x="57.6" y="41.472"/>
  </clipPath>
 </defs>
</svg>
