<?xml version="1.0" encoding="utf-8" standalone="no"?>
<!DOCTYPE svg PUBLIC "-//W3C//DTD SVG 1.1//EN"
  "http://www.w3.org/Graphics/SVG/1.1/DTD/svg11.dtd">
<svg height="345.6pt" version="1.1" viewBox="0 0 460.8 345.6" width="460.8pt" xmlns="http://www.w3.org/2000/svg" xmlns:xlink="http://www.w3.org/1999/xlink">
 <metadata>
  <rdf:RDF xmlns:cc="http://creativecommons.org/ns#" xmlns:dc="http://purl.org/dc/elements/1.1/" xmlns:rdf="http://www.w3.org/1999/02/22-rdf-syntax-ns#">
   <cc:Work>
    <dc:type rdf:resource="http://purl.org/dc/dcmitype/StillImage"/>
    <dc:date>2023-08-17T16:52:27.330658</dc:date>
    <dc:format>image/svg+xml</dc:format>
    <dc:creator>
     <cc:Agent>
      <dc:title>Matplotlib v3.4.3, https://matplotlib.org/</dc:title>
     </cc:Agent>
    </dc:creator>
   </cc:Work>
  </rdf:RDF>
 </metadata>
 <defs>
  <style type="text/css">*{stroke-linecap:butt;stroke-linejoin:round;}</style>
 </defs>
 <g id="figure_1">
  <g id="patch_1">
   <path d="M 0 345.6 
L 460.8 345.6 
L 460.8 0 
L 0 0 
z
" style="fill:#ffffff;"/>
  </g>
  <g id="axes_1">
   <g id="patch_2">
    <path d="M 57.6 307.584 
L 414.72 307.584 
L 414.72 41.472 
L 57.6 41.472 
z
" style="fill:#ffffff;"/>
   </g>
   <g id="matplotlib.axis_1">
    <g id="xtick_1">
     <g id="line2d_1">
      <defs>
       <path d="M 0 0 
L 0 3.5 
" id="m3ef7435bed" style="stroke:#000000;stroke-width:0.8;"/>
      </defs>
      <g>
       <use style="stroke:#000000;stroke-width:0.8;" x="73.832727" xlink:href="#m3ef7435bed" y="307.584"/>
      </g>
     </g>
     <g id="text_1">
      <!-- 1 -->
      <g transform="translate(70.651477 322.182437)scale(0.1 -0.1)">
       <defs>
        <path d="M 794 531 
L 1825 531 
L 1825 4091 
L 703 3866 
L 703 4441 
L 1819 4666 
L 2450 4666 
L 2450 531 
L 3481 531 
L 3481 0 
L 794 0 
L 794 531 
z
" id="DejaVuSans-31" transform="scale(0.015625)"/>
       </defs>
       <use xlink:href="#DejaVuSans-31"/>
      </g>
     </g>
    </g>
    <g id="xtick_2">
     <g id="line2d_2">
      <g>
       <use style="stroke:#000000;stroke-width:0.8;" x="109.555234" xlink:href="#m3ef7435bed" y="307.584"/>
      </g>
     </g>
     <g id="text_2">
      <!-- 35 -->
      <g transform="translate(103.192734 322.182437)scale(0.1 -0.1)">
       <defs>
        <path d="M 2597 2516 
Q 3050 2419 3304 2112 
Q 3559 1806 3559 1356 
Q 3559 666 3084 287 
Q 2609 -91 1734 -91 
Q 1441 -91 1130 -33 
Q 819 25 488 141 
L 488 750 
Q 750 597 1062 519 
Q 1375 441 1716 441 
Q 2309 441 2620 675 
Q 2931 909 2931 1356 
Q 2931 1769 2642 2001 
Q 2353 2234 1838 2234 
L 1294 2234 
L 1294 2753 
L 1863 2753 
Q 2328 2753 2575 2939 
Q 2822 3125 2822 3475 
Q 2822 3834 2567 4026 
Q 2313 4219 1838 4219 
Q 1578 4219 1281 4162 
Q 984 4106 628 3988 
L 628 4550 
Q 988 4650 1302 4700 
Q 1616 4750 1894 4750 
Q 2613 4750 3031 4423 
Q 3450 4097 3450 3541 
Q 3450 3153 3228 2886 
Q 3006 2619 2597 2516 
z
" id="DejaVuSans-33" transform="scale(0.015625)"/>
        <path d="M 691 4666 
L 3169 4666 
L 3169 4134 
L 1269 4134 
L 1269 2991 
Q 1406 3038 1543 3061 
Q 1681 3084 1819 3084 
Q 2600 3084 3056 2656 
Q 3513 2228 3513 1497 
Q 3513 744 3044 326 
Q 2575 -91 1722 -91 
Q 1428 -91 1123 -41 
Q 819 9 494 109 
L 494 744 
Q 775 591 1075 516 
Q 1375 441 1709 441 
Q 2250 441 2565 725 
Q 2881 1009 2881 1497 
Q 2881 1984 2565 2268 
Q 2250 2553 1709 2553 
Q 1456 2553 1204 2497 
Q 953 2441 691 2322 
L 691 4666 
z
" id="DejaVuSans-35" transform="scale(0.015625)"/>
       </defs>
       <use xlink:href="#DejaVuSans-33"/>
       <use x="63.623047" xlink:href="#DejaVuSans-35"/>
      </g>
     </g>
    </g>
    <g id="xtick_3">
     <g id="line2d_3">
      <g>
       <use style="stroke:#000000;stroke-width:0.8;" x="145.277741" xlink:href="#m3ef7435bed" y="307.584"/>
      </g>
     </g>
     <g id="text_3">
      <!-- 69 -->
      <g transform="translate(138.915241 322.182437)scale(0.1 -0.1)">
       <defs>
        <path d="M 2113 2584 
Q 1688 2584 1439 2293 
Q 1191 2003 1191 1497 
Q 1191 994 1439 701 
Q 1688 409 2113 409 
Q 2538 409 2786 701 
Q 3034 994 3034 1497 
Q 3034 2003 2786 2293 
Q 2538 2584 2113 2584 
z
M 3366 4563 
L 3366 3988 
Q 3128 4100 2886 4159 
Q 2644 4219 2406 4219 
Q 1781 4219 1451 3797 
Q 1122 3375 1075 2522 
Q 1259 2794 1537 2939 
Q 1816 3084 2150 3084 
Q 2853 3084 3261 2657 
Q 3669 2231 3669 1497 
Q 3669 778 3244 343 
Q 2819 -91 2113 -91 
Q 1303 -91 875 529 
Q 447 1150 447 2328 
Q 447 3434 972 4092 
Q 1497 4750 2381 4750 
Q 2619 4750 2861 4703 
Q 3103 4656 3366 4563 
z
" id="DejaVuSans-36" transform="scale(0.015625)"/>
        <path d="M 703 97 
L 703 672 
Q 941 559 1184 500 
Q 1428 441 1663 441 
Q 2288 441 2617 861 
Q 2947 1281 2994 2138 
Q 2813 1869 2534 1725 
Q 2256 1581 1919 1581 
Q 1219 1581 811 2004 
Q 403 2428 403 3163 
Q 403 3881 828 4315 
Q 1253 4750 1959 4750 
Q 2769 4750 3195 4129 
Q 3622 3509 3622 2328 
Q 3622 1225 3098 567 
Q 2575 -91 1691 -91 
Q 1453 -91 1209 -44 
Q 966 3 703 97 
z
M 1959 2075 
Q 2384 2075 2632 2365 
Q 2881 2656 2881 3163 
Q 2881 3666 2632 3958 
Q 2384 4250 1959 4250 
Q 1534 4250 1286 3958 
Q 1038 3666 1038 3163 
Q 1038 2656 1286 2365 
Q 1534 2075 1959 2075 
z
" id="DejaVuSans-39" transform="scale(0.015625)"/>
       </defs>
       <use xlink:href="#DejaVuSans-36"/>
       <use x="63.623047" xlink:href="#DejaVuSans-39"/>
      </g>
     </g>
    </g>
    <g id="xtick_4">
     <g id="line2d_4">
      <g>
       <use style="stroke:#000000;stroke-width:0.8;" x="182.050909" xlink:href="#m3ef7435bed" y="307.584"/>
      </g>
     </g>
     <g id="text_4">
      <!-- 104 -->
      <g transform="translate(172.507159 322.182437)scale(0.1 -0.1)">
       <defs>
        <path d="M 2034 4250 
Q 1547 4250 1301 3770 
Q 1056 3291 1056 2328 
Q 1056 1369 1301 889 
Q 1547 409 2034 409 
Q 2525 409 2770 889 
Q 3016 1369 3016 2328 
Q 3016 3291 2770 3770 
Q 2525 4250 2034 4250 
z
M 2034 4750 
Q 2819 4750 3233 4129 
Q 3647 3509 3647 2328 
Q 3647 1150 3233 529 
Q 2819 -91 2034 -91 
Q 1250 -91 836 529 
Q 422 1150 422 2328 
Q 422 3509 836 4129 
Q 1250 4750 2034 4750 
z
" id="DejaVuSans-30" transform="scale(0.015625)"/>
        <path d="M 2419 4116 
L 825 1625 
L 2419 1625 
L 2419 4116 
z
M 2253 4666 
L 3047 4666 
L 3047 1625 
L 3713 1625 
L 3713 1100 
L 3047 1100 
L 3047 0 
L 2419 0 
L 2419 1100 
L 313 1100 
L 313 1709 
L 2253 4666 
z
" id="DejaVuSans-34" transform="scale(0.015625)"/>
       </defs>
       <use xlink:href="#DejaVuSans-31"/>
       <use x="63.623047" xlink:href="#DejaVuSans-30"/>
       <use x="127.246094" xlink:href="#DejaVuSans-34"/>
      </g>
     </g>
    </g>
    <g id="xtick_5">
     <g id="line2d_5">
      <g>
       <use style="stroke:#000000;stroke-width:0.8;" x="217.773416" xlink:href="#m3ef7435bed" y="307.584"/>
      </g>
     </g>
     <g id="text_5">
      <!-- 138 -->
      <g transform="translate(208.229666 322.182437)scale(0.1 -0.1)">
       <defs>
        <path d="M 2034 2216 
Q 1584 2216 1326 1975 
Q 1069 1734 1069 1313 
Q 1069 891 1326 650 
Q 1584 409 2034 409 
Q 2484 409 2743 651 
Q 3003 894 3003 1313 
Q 3003 1734 2745 1975 
Q 2488 2216 2034 2216 
z
M 1403 2484 
Q 997 2584 770 2862 
Q 544 3141 544 3541 
Q 544 4100 942 4425 
Q 1341 4750 2034 4750 
Q 2731 4750 3128 4425 
Q 3525 4100 3525 3541 
Q 3525 3141 3298 2862 
Q 3072 2584 2669 2484 
Q 3125 2378 3379 2068 
Q 3634 1759 3634 1313 
Q 3634 634 3220 271 
Q 2806 -91 2034 -91 
Q 1263 -91 848 271 
Q 434 634 434 1313 
Q 434 1759 690 2068 
Q 947 2378 1403 2484 
z
M 1172 3481 
Q 1172 3119 1398 2916 
Q 1625 2713 2034 2713 
Q 2441 2713 2670 2916 
Q 2900 3119 2900 3481 
Q 2900 3844 2670 4047 
Q 2441 4250 2034 4250 
Q 1625 4250 1398 4047 
Q 1172 3844 1172 3481 
z
" id="DejaVuSans-38" transform="scale(0.015625)"/>
       </defs>
       <use xlink:href="#DejaVuSans-31"/>
       <use x="63.623047" xlink:href="#DejaVuSans-33"/>
       <use x="127.246094" xlink:href="#DejaVuSans-38"/>
      </g>
     </g>
    </g>
    <g id="xtick_6">
     <g id="line2d_6">
      <g>
       <use style="stroke:#000000;stroke-width:0.8;" x="253.495922" xlink:href="#m3ef7435bed" y="307.584"/>
      </g>
     </g>
     <g id="text_6">
      <!-- 172 -->
      <g transform="translate(243.952172 322.182437)scale(0.1 -0.1)">
       <defs>
        <path d="M 525 4666 
L 3525 4666 
L 3525 4397 
L 1831 0 
L 1172 0 
L 2766 4134 
L 525 4134 
L 525 4666 
z
" id="DejaVuSans-37" transform="scale(0.015625)"/>
        <path d="M 1228 531 
L 3431 531 
L 3431 0 
L 469 0 
L 469 531 
Q 828 903 1448 1529 
Q 2069 2156 2228 2338 
Q 2531 2678 2651 2914 
Q 2772 3150 2772 3378 
Q 2772 3750 2511 3984 
Q 2250 4219 1831 4219 
Q 1534 4219 1204 4116 
Q 875 4013 500 3803 
L 500 4441 
Q 881 4594 1212 4672 
Q 1544 4750 1819 4750 
Q 2544 4750 2975 4387 
Q 3406 4025 3406 3419 
Q 3406 3131 3298 2873 
Q 3191 2616 2906 2266 
Q 2828 2175 2409 1742 
Q 1991 1309 1228 531 
z
" id="DejaVuSans-32" transform="scale(0.015625)"/>
       </defs>
       <use xlink:href="#DejaVuSans-31"/>
       <use x="63.623047" xlink:href="#DejaVuSans-37"/>
       <use x="127.246094" xlink:href="#DejaVuSans-32"/>
      </g>
     </g>
    </g>
    <g id="xtick_7">
     <g id="line2d_7">
      <g>
       <use style="stroke:#000000;stroke-width:0.8;" x="290.269091" xlink:href="#m3ef7435bed" y="307.584"/>
      </g>
     </g>
     <g id="text_7">
      <!-- 207 -->
      <g transform="translate(280.725341 322.182437)scale(0.1 -0.1)">
       <use xlink:href="#DejaVuSans-32"/>
       <use x="63.623047" xlink:href="#DejaVuSans-30"/>
       <use x="127.246094" xlink:href="#DejaVuSans-37"/>
      </g>
     </g>
    </g>
    <g id="xtick_8">
     <g id="line2d_8">
      <g>
       <use style="stroke:#000000;stroke-width:0.8;" x="325.991598" xlink:href="#m3ef7435bed" y="307.584"/>
      </g>
     </g>
     <g id="text_8">
      <!-- 241 -->
      <g transform="translate(316.447848 322.182437)scale(0.1 -0.1)">
       <use xlink:href="#DejaVuSans-32"/>
       <use x="63.623047" xlink:href="#DejaVuSans-34"/>
       <use x="127.246094" xlink:href="#DejaVuSans-31"/>
      </g>
     </g>
    </g>
    <g id="xtick_9">
     <g id="line2d_9">
      <g>
       <use style="stroke:#000000;stroke-width:0.8;" x="361.714104" xlink:href="#m3ef7435bed" y="307.584"/>
      </g>
     </g>
     <g id="text_9">
      <!-- 275 -->
      <g transform="translate(352.170354 322.182437)scale(0.1 -0.1)">
       <use xlink:href="#DejaVuSans-32"/>
       <use x="63.623047" xlink:href="#DejaVuSans-37"/>
       <use x="127.246094" xlink:href="#DejaVuSans-35"/>
      </g>
     </g>
    </g>
    <g id="xtick_10">
     <g id="line2d_10">
      <g>
       <use style="stroke:#000000;stroke-width:0.8;" x="398.487273" xlink:href="#m3ef7435bed" y="307.584"/>
      </g>
     </g>
     <g id="text_10">
      <!-- 310 -->
      <g transform="translate(388.943523 322.182437)scale(0.1 -0.1)">
       <use xlink:href="#DejaVuSans-33"/>
       <use x="63.623047" xlink:href="#DejaVuSans-31"/>
       <use x="127.246094" xlink:href="#DejaVuSans-30"/>
      </g>
     </g>
    </g>
    <g id="text_11">
     <!-- Epochs -->
     <g transform="translate(218.244375 335.860562)scale(0.1 -0.1)">
      <defs>
       <path d="M 628 4666 
L 3578 4666 
L 3578 4134 
L 1259 4134 
L 1259 2753 
L 3481 2753 
L 3481 2222 
L 1259 2222 
L 1259 531 
L 3634 531 
L 3634 0 
L 628 0 
L 628 4666 
z
" id="DejaVuSans-45" transform="scale(0.015625)"/>
       <path d="M 1159 525 
L 1159 -1331 
L 581 -1331 
L 581 3500 
L 1159 3500 
L 1159 2969 
Q 1341 3281 1617 3432 
Q 1894 3584 2278 3584 
Q 2916 3584 3314 3078 
Q 3713 2572 3713 1747 
Q 3713 922 3314 415 
Q 2916 -91 2278 -91 
Q 1894 -91 1617 61 
Q 1341 213 1159 525 
z
M 3116 1747 
Q 3116 2381 2855 2742 
Q 2594 3103 2138 3103 
Q 1681 3103 1420 2742 
Q 1159 2381 1159 1747 
Q 1159 1113 1420 752 
Q 1681 391 2138 391 
Q 2594 391 2855 752 
Q 3116 1113 3116 1747 
z
" id="DejaVuSans-70" transform="scale(0.015625)"/>
       <path d="M 1959 3097 
Q 1497 3097 1228 2736 
Q 959 2375 959 1747 
Q 959 1119 1226 758 
Q 1494 397 1959 397 
Q 2419 397 2687 759 
Q 2956 1122 2956 1747 
Q 2956 2369 2687 2733 
Q 2419 3097 1959 3097 
z
M 1959 3584 
Q 2709 3584 3137 3096 
Q 3566 2609 3566 1747 
Q 3566 888 3137 398 
Q 2709 -91 1959 -91 
Q 1206 -91 779 398 
Q 353 888 353 1747 
Q 353 2609 779 3096 
Q 1206 3584 1959 3584 
z
" id="DejaVuSans-6f" transform="scale(0.015625)"/>
       <path d="M 3122 3366 
L 3122 2828 
Q 2878 2963 2633 3030 
Q 2388 3097 2138 3097 
Q 1578 3097 1268 2742 
Q 959 2388 959 1747 
Q 959 1106 1268 751 
Q 1578 397 2138 397 
Q 2388 397 2633 464 
Q 2878 531 3122 666 
L 3122 134 
Q 2881 22 2623 -34 
Q 2366 -91 2075 -91 
Q 1284 -91 818 406 
Q 353 903 353 1747 
Q 353 2603 823 3093 
Q 1294 3584 2113 3584 
Q 2378 3584 2631 3529 
Q 2884 3475 3122 3366 
z
" id="DejaVuSans-63" transform="scale(0.015625)"/>
       <path d="M 3513 2113 
L 3513 0 
L 2938 0 
L 2938 2094 
Q 2938 2591 2744 2837 
Q 2550 3084 2163 3084 
Q 1697 3084 1428 2787 
Q 1159 2491 1159 1978 
L 1159 0 
L 581 0 
L 581 4863 
L 1159 4863 
L 1159 2956 
Q 1366 3272 1645 3428 
Q 1925 3584 2291 3584 
Q 2894 3584 3203 3211 
Q 3513 2838 3513 2113 
z
" id="DejaVuSans-68" transform="scale(0.015625)"/>
       <path d="M 2834 3397 
L 2834 2853 
Q 2591 2978 2328 3040 
Q 2066 3103 1784 3103 
Q 1356 3103 1142 2972 
Q 928 2841 928 2578 
Q 928 2378 1081 2264 
Q 1234 2150 1697 2047 
L 1894 2003 
Q 2506 1872 2764 1633 
Q 3022 1394 3022 966 
Q 3022 478 2636 193 
Q 2250 -91 1575 -91 
Q 1294 -91 989 -36 
Q 684 19 347 128 
L 347 722 
Q 666 556 975 473 
Q 1284 391 1588 391 
Q 1994 391 2212 530 
Q 2431 669 2431 922 
Q 2431 1156 2273 1281 
Q 2116 1406 1581 1522 
L 1381 1569 
Q 847 1681 609 1914 
Q 372 2147 372 2553 
Q 372 3047 722 3315 
Q 1072 3584 1716 3584 
Q 2034 3584 2315 3537 
Q 2597 3491 2834 3397 
z
" id="DejaVuSans-73" transform="scale(0.015625)"/>
      </defs>
      <use xlink:href="#DejaVuSans-45"/>
      <use x="63.183594" xlink:href="#DejaVuSans-70"/>
      <use x="126.660156" xlink:href="#DejaVuSans-6f"/>
      <use x="187.841797" xlink:href="#DejaVuSans-63"/>
      <use x="242.822266" xlink:href="#DejaVuSans-68"/>
      <use x="306.201172" xlink:href="#DejaVuSans-73"/>
     </g>
    </g>
   </g>
   <g id="matplotlib.axis_2">
    <g id="ytick_1">
     <g id="line2d_11">
      <defs>
       <path d="M 0 0 
L -3.5 0 
" id="mb8b24aea0d" style="stroke:#000000;stroke-width:0.8;"/>
      </defs>
      <g>
       <use style="stroke:#000000;stroke-width:0.8;" x="57.6" xlink:href="#mb8b24aea0d" y="283.841173"/>
      </g>
     </g>
     <g id="text_12">
      <!-- 30 -->
      <g transform="translate(37.875 287.640392)scale(0.1 -0.1)">
       <use xlink:href="#DejaVuSans-33"/>
       <use x="63.623047" xlink:href="#DejaVuSans-30"/>
      </g>
     </g>
    </g>
    <g id="ytick_2">
     <g id="line2d_12">
      <g>
       <use style="stroke:#000000;stroke-width:0.8;" x="57.6" xlink:href="#mb8b24aea0d" y="247.849742"/>
      </g>
     </g>
     <g id="text_13">
      <!-- 40 -->
      <g transform="translate(37.875 251.648961)scale(0.1 -0.1)">
       <use xlink:href="#DejaVuSans-34"/>
       <use x="63.623047" xlink:href="#DejaVuSans-30"/>
      </g>
     </g>
    </g>
    <g id="ytick_3">
     <g id="line2d_13">
      <g>
       <use style="stroke:#000000;stroke-width:0.8;" x="57.6" xlink:href="#mb8b24aea0d" y="211.858312"/>
      </g>
     </g>
     <g id="text_14">
      <!-- 50 -->
      <g transform="translate(37.875 215.657531)scale(0.1 -0.1)">
       <use xlink:href="#DejaVuSans-35"/>
       <use x="63.623047" xlink:href="#DejaVuSans-30"/>
      </g>
     </g>
    </g>
    <g id="ytick_4">
     <g id="line2d_14">
      <g>
       <use style="stroke:#000000;stroke-width:0.8;" x="57.6" xlink:href="#mb8b24aea0d" y="175.866881"/>
      </g>
     </g>
     <g id="text_15">
      <!-- 60 -->
      <g transform="translate(37.875 179.6661)scale(0.1 -0.1)">
       <use xlink:href="#DejaVuSans-36"/>
       <use x="63.623047" xlink:href="#DejaVuSans-30"/>
      </g>
     </g>
    </g>
    <g id="ytick_5">
     <g id="line2d_15">
      <g>
       <use style="stroke:#000000;stroke-width:0.8;" x="57.6" xlink:href="#mb8b24aea0d" y="139.875451"/>
      </g>
     </g>
     <g id="text_16">
      <!-- 70 -->
      <g transform="translate(37.875 143.674669)scale(0.1 -0.1)">
       <use xlink:href="#DejaVuSans-37"/>
       <use x="63.623047" xlink:href="#DejaVuSans-30"/>
      </g>
     </g>
    </g>
    <g id="ytick_6">
     <g id="line2d_16">
      <g>
       <use style="stroke:#000000;stroke-width:0.8;" x="57.6" xlink:href="#mb8b24aea0d" y="103.88402"/>
      </g>
     </g>
     <g id="text_17">
      <!-- 80 -->
      <g transform="translate(37.875 107.683239)scale(0.1 -0.1)">
       <use xlink:href="#DejaVuSans-38"/>
       <use x="63.623047" xlink:href="#DejaVuSans-30"/>
      </g>
     </g>
    </g>
    <g id="ytick_7">
     <g id="line2d_17">
      <g>
       <use style="stroke:#000000;stroke-width:0.8;" x="57.6" xlink:href="#mb8b24aea0d" y="67.892589"/>
      </g>
     </g>
     <g id="text_18">
      <!-- 90 -->
      <g transform="translate(37.875 71.691808)scale(0.1 -0.1)">
       <use xlink:href="#DejaVuSans-39"/>
       <use x="63.623047" xlink:href="#DejaVuSans-30"/>
      </g>
     </g>
    </g>
    <g id="text_19">
     <!-- Accuracy -->
     <g transform="translate(31.795312 197.356125)rotate(-90)scale(0.1 -0.1)">
      <defs>
       <path d="M 2188 4044 
L 1331 1722 
L 3047 1722 
L 2188 4044 
z
M 1831 4666 
L 2547 4666 
L 4325 0 
L 3669 0 
L 3244 1197 
L 1141 1197 
L 716 0 
L 50 0 
L 1831 4666 
z
" id="DejaVuSans-41" transform="scale(0.015625)"/>
       <path d="M 544 1381 
L 544 3500 
L 1119 3500 
L 1119 1403 
Q 1119 906 1312 657 
Q 1506 409 1894 409 
Q 2359 409 2629 706 
Q 2900 1003 2900 1516 
L 2900 3500 
L 3475 3500 
L 3475 0 
L 2900 0 
L 2900 538 
Q 2691 219 2414 64 
Q 2138 -91 1772 -91 
Q 1169 -91 856 284 
Q 544 659 544 1381 
z
M 1991 3584 
L 1991 3584 
z
" id="DejaVuSans-75" transform="scale(0.015625)"/>
       <path d="M 2631 2963 
Q 2534 3019 2420 3045 
Q 2306 3072 2169 3072 
Q 1681 3072 1420 2755 
Q 1159 2438 1159 1844 
L 1159 0 
L 581 0 
L 581 3500 
L 1159 3500 
L 1159 2956 
Q 1341 3275 1631 3429 
Q 1922 3584 2338 3584 
Q 2397 3584 2469 3576 
Q 2541 3569 2628 3553 
L 2631 2963 
z
" id="DejaVuSans-72" transform="scale(0.015625)"/>
       <path d="M 2194 1759 
Q 1497 1759 1228 1600 
Q 959 1441 959 1056 
Q 959 750 1161 570 
Q 1363 391 1709 391 
Q 2188 391 2477 730 
Q 2766 1069 2766 1631 
L 2766 1759 
L 2194 1759 
z
M 3341 1997 
L 3341 0 
L 2766 0 
L 2766 531 
Q 2569 213 2275 61 
Q 1981 -91 1556 -91 
Q 1019 -91 701 211 
Q 384 513 384 1019 
Q 384 1609 779 1909 
Q 1175 2209 1959 2209 
L 2766 2209 
L 2766 2266 
Q 2766 2663 2505 2880 
Q 2244 3097 1772 3097 
Q 1472 3097 1187 3025 
Q 903 2953 641 2809 
L 641 3341 
Q 956 3463 1253 3523 
Q 1550 3584 1831 3584 
Q 2591 3584 2966 3190 
Q 3341 2797 3341 1997 
z
" id="DejaVuSans-61" transform="scale(0.015625)"/>
       <path d="M 2059 -325 
Q 1816 -950 1584 -1140 
Q 1353 -1331 966 -1331 
L 506 -1331 
L 506 -850 
L 844 -850 
Q 1081 -850 1212 -737 
Q 1344 -625 1503 -206 
L 1606 56 
L 191 3500 
L 800 3500 
L 1894 763 
L 2988 3500 
L 3597 3500 
L 2059 -325 
z
" id="DejaVuSans-79" transform="scale(0.015625)"/>
      </defs>
      <use xlink:href="#DejaVuSans-41"/>
      <use x="66.658203" xlink:href="#DejaVuSans-63"/>
      <use x="121.638672" xlink:href="#DejaVuSans-63"/>
      <use x="176.619141" xlink:href="#DejaVuSans-75"/>
      <use x="239.998047" xlink:href="#DejaVuSans-72"/>
      <use x="281.111328" xlink:href="#DejaVuSans-61"/>
      <use x="342.390625" xlink:href="#DejaVuSans-63"/>
      <use x="397.371094" xlink:href="#DejaVuSans-79"/>
     </g>
    </g>
   </g>
   <g id="line2d_18">
    <path clip-path="url(#p7e01605595)" d="M 73.832727 295.488 
L 74.883389 254.313803 
L 75.934051 230.026786 
L 76.984713 208.475117 
L 78.035375 195.431823 
L 79.086037 185.102282 
L 80.136699 177.80322 
L 81.187361 168.351871 
L 82.238023 161.808628 
L 83.288685 157.81358 
L 84.339347 182.770038 
L 85.390009 173.2683 
L 86.440671 167.883982 
L 87.491333 159.757117 
L 88.541995 156.481897 
L 90.643319 148.61417 
L 91.693981 144.957441 
L 92.744643 142.092523 
L 93.795305 140.537693 
L 94.845966 136.542644 
L 95.896628 134.138417 
L 96.94729 130.64005 
L 97.997952 127.99108 
L 99.048614 126.033146 
L 100.099276 123.297798 
L 101.149938 121.829347 
L 102.2006 121.404648 
L 103.251262 119.295551 
L 104.301924 119.187576 
L 105.352586 142.898731 
L 106.403248 140.840021 
L 107.45391 138.378207 
L 108.504572 136.722601 
L 109.555234 135.311737 
L 110.605896 133.404191 
L 111.656558 132.353242 
L 112.70722 130.25854 
L 113.757882 128.962849 
L 114.808544 127.998279 
L 115.859206 127.659959 
L 121.112515 120.907967 
L 122.163177 119.237964 
L 123.213839 117.308824 
L 124.264501 116.761754 
L 125.315163 114.681449 
L 126.365825 114.25675 
L 127.416487 113.976017 
L 128.467149 111.686962 
L 129.517811 109.966572 
L 130.568473 109.577864 
L 131.619135 108.102216 
L 133.720459 105.489238 
L 134.771121 104.855789 
L 136.872445 101.976474 
L 137.923107 101.335827 
L 138.973769 101.486991 
L 140.024431 99.932161 
L 141.075093 99.924963 
L 142.125755 99.01078 
L 143.176417 97.571123 
L 144.227079 98.571685 
L 145.277741 97.851856 
L 146.328402 97.578321 
L 147.379064 123.700902 
L 148.429726 122.383615 
L 149.480388 122.095684 
L 150.53105 121.217493 
L 151.581712 120.756803 
L 152.632374 119.684258 
L 153.683036 119.806629 
L 154.733698 117.812704 
L 155.78436 117.704729 
L 156.835022 116.81934 
L 157.885684 116.934513 
L 158.936346 116.121106 
L 159.987008 116.459426 
L 161.03767 115.422873 
L 162.088332 115.451666 
L 163.138994 114.220759 
L 164.189656 114.55188 
L 165.240318 113.356965 
L 166.29098 112.961059 
L 167.341642 112.737912 
L 168.392304 111.967695 
L 169.442966 110.218512 
L 170.493628 111.406229 
L 171.544289 110.211313 
L 172.594951 111.514203 
L 173.645613 108.843639 
L 174.696275 109.390709 
L 175.746937 107.879069 
L 176.797599 107.296008 
L 177.848261 106.417817 
L 178.898923 106.432213 
L 179.949585 105.251694 
L 181.000247 106.266653 
L 183.101571 104.711823 
L 184.152233 103.495313 
L 185.202895 103.67527 
L 186.253557 102.62432 
L 187.304219 102.293199 
L 188.354881 102.098845 
L 189.405543 100.990309 
L 190.456205 100.248886 
L 191.506867 100.328067 
L 192.557529 99.55785 
L 193.608191 99.190737 
L 194.658853 98.535693 
L 195.709515 98.434917 
L 196.760177 96.642544 
L 197.810838 95.922716 
L 198.8615 96.181854 
L 199.912162 94.007971 
L 200.962824 93.842411 
L 202.013486 94.547843 
L 203.064148 93.504091 
L 204.11481 93.504091 
L 205.165472 91.992451 
L 207.266796 91.40939 
L 208.317458 90.538398 
L 209.36812 90.056112 
L 210.418782 91.40939 
L 211.469444 88.93318 
L 212.520106 88.033394 
L 213.570768 88.911585 
L 214.62143 88.026196 
L 215.672092 87.450333 
L 216.722754 86.248219 
L 217.773416 86.37059 
L 218.824078 85.801925 
L 219.87474 85.564382 
L 220.925402 86.025072 
L 221.976064 85.283649 
L 223.026726 84.894941 
L 224.077387 85.283649 
L 226.178711 83.865586 
L 228.280035 85.585977 
L 229.330697 85.146881 
L 230.381359 84.966924 
L 231.432021 112.111661 
L 232.482683 112.737912 
L 233.533345 112.28442 
L 234.584007 112.298816 
L 235.634669 111.708557 
L 236.685331 111.9461 
L 237.735993 110.052951 
L 238.786655 111.103901 
L 239.837317 108.872432 
L 241.938641 110.679202 
L 242.989303 109.448295 
L 244.039965 109.455493 
L 245.090627 108.555708 
L 246.141289 108.627691 
L 247.191951 108.404544 
L 248.242613 109.297131 
L 249.293274 108.037431 
L 250.343936 107.987043 
L 251.394598 106.662558 
L 252.44526 108.174199 
L 253.495922 107.080059 
L 254.546584 106.15148 
L 255.597246 106.597774 
L 256.647908 106.892904 
L 257.69857 106.676955 
L 258.749232 106.835317 
L 259.799894 106.23786 
L 260.850556 105.98592 
L 261.901218 104.920573 
L 262.95188 104.84859 
L 264.002542 105.661997 
L 265.053204 105.2301 
L 266.103866 105.813161 
L 267.154528 104.229538 
L 268.20519 104.035184 
L 269.255852 104.308719 
L 270.306514 102.991433 
L 271.357176 102.501949 
L 272.407838 102.437164 
L 273.4585 103.049019 
L 274.509162 102.717898 
L 275.559823 102.58113 
L 276.610485 103.624882 
L 277.661147 102.804277 
L 278.711809 103.149795 
L 279.762471 101.890095 
L 280.813133 101.220654 
L 281.863795 101.803715 
L 282.914457 100.277679 
L 283.965119 101.119878 
L 285.015781 101.27824 
L 286.066443 100.212894 
L 287.117105 100.234489 
L 288.167767 99.111556 
L 289.218429 100.695179 
L 290.269091 99.975351 
L 291.319753 100.292075 
L 292.370415 98.701254 
L 293.421077 99.816988 
L 294.471739 98.456512 
L 295.522401 98.04621 
L 296.573063 98.600478 
L 297.623725 98.694056 
L 298.674387 96.764915 
L 299.725049 97.959831 
L 300.775711 97.067243 
L 301.826372 97.923839 
L 302.877034 96.8297 
L 303.927696 96.07388 
L 306.02902 96.772113 
L 307.079682 95.94431 
L 308.130344 95.57 
L 309.181006 94.634222 
L 310.231668 96.102673 
L 311.28233 94.274308 
L 312.332992 94.490257 
L 313.383654 94.583834 
L 314.434316 93.828014 
L 315.484978 93.223358 
L 316.53564 93.187367 
L 317.586302 92.661892 
L 318.636964 93.208962 
L 319.687626 91.834089 
L 320.738288 92.345167 
L 321.78895 92.474736 
L 322.839612 90.329647 
L 323.890274 91.027881 
L 324.940936 91.416588 
L 325.991598 90.257664 
L 327.042259 90.675165 
L 328.092921 89.091542 
L 329.143583 88.897188 
L 330.194245 89.60262 
L 331.244907 88.285334 
L 332.295569 88.940378 
L 333.346231 89.746586 
L 334.396893 87.385548 
L 335.447555 88.069385 
L 336.498217 87.529514 
L 337.548879 87.572704 
L 338.599541 86.507357 
L 339.650203 86.039469 
L 340.700865 86.010676 
L 341.751527 85.600373 
L 342.802189 85.917098 
L 343.852851 85.729942 
L 344.903513 85.15408 
L 345.954175 84.81576 
L 347.004837 84.225501 
L 348.055499 83.937569 
L 349.106161 83.361706 
L 350.156823 83.743215 
L 351.207485 83.016189 
L 352.258147 83.728819 
L 353.308808 82.605886 
L 354.35947 82.850628 
L 355.410132 82.404334 
L 356.460794 81.022263 
L 357.511456 81.670109 
L 359.61278 81.446962 
L 360.663442 80.244848 
L 361.714104 80.662349 
L 362.764766 79.697779 
L 363.815428 80.115279 
L 364.86609 79.381054 
L 365.916752 79.935322 
L 366.967414 79.964115 
L 368.018076 78.690019 
L 369.068738 79.064329 
L 370.1194 77.732647 
L 371.170062 77.97019 
L 372.220724 77.322344 
L 373.271386 78.085363 
L 375.37271 76.516136 
L 376.423372 76.796869 
L 377.474034 76.508938 
L 378.524695 77.264758 
L 379.575357 76.87605 
L 380.626019 76.789671 
L 382.727343 75.486781 
L 383.778005 75.61635 
L 384.828667 76.645705 
L 385.879329 75.983463 
L 386.929991 75.666738 
L 387.980653 75.522773 
L 389.031315 74.939711 
L 390.081977 75.4076 
L 391.132639 76.62411 
L 392.183301 75.86829 
L 393.233963 76.75368 
L 394.284625 75.170057 
L 395.335287 75.61635 
L 396.385949 75.796308 
L 398.487273 74.874927 
L 398.487273 74.874927 
" style="fill:none;stroke:#1f77b4;stroke-linecap:square;stroke-width:1.5;"/>
   </g>
   <g id="line2d_19">
    <path clip-path="url(#p7e01605595)" d="M 73.832727 280.529961 
L 74.883389 249.001468 
L 75.934051 208.583092 
L 76.984713 195.590185 
L 78.035375 174.643173 
L 79.086037 160.570523 
L 80.136699 138.759716 
L 81.187361 133.864882 
L 82.238023 134.296779 
L 83.288685 127.602373 
L 84.339347 191.955051 
L 85.390009 145.88602 
L 86.440671 144.410371 
L 87.491333 133.900873 
L 88.541995 127.098493 
L 89.592657 125.26293 
L 90.643319 110.110537 
L 91.693981 115.905158 
L 92.744643 127.53039 
L 93.795305 105.683592 
L 94.845966 98.377331 
L 95.896628 96.865691 
L 96.94729 86.896065 
L 97.997952 96.32582 
L 99.048614 98.809228 
L 100.099276 85.564382 
L 101.149938 88.839602 
L 102.2006 85.52839 
L 103.251262 85.420416 
L 104.301924 84.412656 
L 105.352586 112.162049 
L 106.403248 120.188138 
L 107.45391 114.465501 
L 108.504572 106.691352 
L 109.555234 108.131009 
L 110.605896 92.402754 
L 111.656558 101.61656 
L 112.70722 89.955336 
L 113.757882 94.274308 
L 114.808544 94.058359 
L 115.859206 92.906634 
L 116.909868 92.258788 
L 117.96053 88.155765 
L 119.011192 87.112013 
L 120.061853 97.153622 
L 121.112515 96.469785 
L 122.163177 85.888305 
L 123.213839 85.240459 
L 124.264501 79.22989 
L 125.315163 76.278593 
L 126.365825 80.48959 
L 127.416487 73.18333 
L 129.517811 74.802944 
L 130.568473 73.867167 
L 131.619135 71.383758 
L 132.669797 83.800802 
L 133.720459 74.515013 
L 134.771121 69.800135 
L 135.821783 69.296255 
L 136.872445 66.021035 
L 137.923107 66.416941 
L 138.973769 68.468452 
L 140.024431 69.296255 
L 141.075093 66.812846 
L 143.176417 67.640649 
L 144.227079 65.733104 
L 145.277741 67.064786 
L 146.328402 66.093018 
L 147.379064 86.572142 
L 148.429726 88.227748 
L 149.480388 75.486781 
L 150.53105 106.799326 
L 151.581712 80.057693 
L 152.632374 84.412656 
L 153.683036 84.124725 
L 154.733698 78.582044 
L 155.78436 80.093684 
L 156.835022 82.325153 
L 157.885684 82.00123 
L 158.936346 77.21437 
L 159.987008 81.569333 
L 161.03767 80.417607 
L 162.088332 82.829033 
L 163.138994 83.872785 
L 164.189656 79.73377 
L 165.240318 74.047124 
L 166.29098 75.090876 
L 167.341642 80.525582 
L 168.392304 80.23765 
L 169.442966 69.440221 
L 171.544289 79.409847 
L 172.594951 74.19109 
L 173.645613 74.263073 
L 174.696275 69.764144 
L 175.746937 75.846696 
L 176.797599 73.003373 
L 177.848261 75.810704 
L 178.898923 73.759193 
L 179.949585 70.447981 
L 181.000247 68.252504 
L 182.050909 69.116298 
L 183.101571 73.723201 
L 184.152233 64.617369 
L 185.202895 68.432461 
L 186.253557 71.41975 
L 187.304219 66.920821 
L 188.354881 66.740864 
L 189.405543 67.136769 
L 190.456205 64.653361 
L 191.506867 66.596898 
L 192.557529 70.699921 
L 193.608191 66.165001 
L 195.709515 64.401421 
L 196.760177 65.157241 
L 197.810838 66.992804 
L 198.8615 64.005515 
L 199.912162 64.509395 
L 200.962824 67.136769 
L 202.013486 61.37814 
L 204.11481 61.558098 
L 205.165472 61.989995 
L 206.216134 61.018226 
L 207.266796 64.905301 
L 208.317458 59.002706 
L 209.36812 60.11844 
L 210.418782 60.550338 
L 211.469444 60.766286 
L 212.520106 58.426843 
L 213.570768 58.642792 
L 214.62143 57.203134 
L 215.672092 58.35486 
L 216.722754 57.886972 
L 217.773416 57.09516 
L 218.824078 57.707015 
L 219.87474 57.239126 
L 220.925402 57.203134 
L 221.976064 57.3471 
L 224.077387 56.627272 
L 225.128049 57.3471 
L 226.178711 56.807229 
L 227.229373 57.09516 
L 228.280035 56.519297 
L 229.330697 57.131152 
L 230.381359 56.84322 
L 231.432021 75.846696 
L 232.482683 83.296922 
L 233.533345 79.769761 
L 234.584007 80.813513 
L 235.634669 76.818464 
L 236.685331 76.782473 
L 237.735993 73.219321 
L 238.786655 73.507253 
L 239.837317 77.178378 
L 240.887979 83.404896 
L 241.938641 75.558764 
L 244.039965 76.890447 
L 245.090627 72.103587 
L 246.141289 71.743672 
L 247.191951 68.540435 
L 248.242613 74.910918 
L 249.293274 74.44303 
L 250.343936 73.363287 
L 251.394598 77.358336 
L 252.44526 75.486781 
L 253.495922 69.296255 
L 254.546584 69.476212 
L 255.597246 76.45855 
L 256.647908 70.447981 
L 257.69857 73.68721 
L 258.749232 75.666738 
L 259.799894 75.918678 
L 260.850556 73.219321 
L 261.901218 66.884829 
L 262.95188 73.111347 
L 264.002542 71.851647 
L 265.053204 74.119107 
L 266.103866 70.052075 
L 267.154528 69.584187 
L 268.20519 69.368238 
L 269.255852 66.992804 
L 270.306514 69.008324 
L 271.357176 71.599707 
L 272.407838 70.304015 
L 273.4585 67.532675 
L 274.509162 68.252504 
L 275.559823 67.820607 
L 276.610485 70.41199 
L 277.661147 70.196041 
L 278.711809 76.314584 
L 279.762471 66.380949 
L 280.813133 67.424701 
L 281.863795 67.604658 
L 282.914457 67.100778 
L 283.965119 68.864358 
L 285.015781 64.653361 
L 286.066443 71.16781 
L 287.117105 67.568667 
L 288.167767 70.052075 
L 290.269091 66.165001 
L 292.370415 69.224272 
L 293.421077 74.766953 
L 294.471739 63.897541 
L 295.522401 63.789566 
L 296.573063 62.313918 
L 297.623725 69.008324 
L 298.674387 70.735912 
L 299.725049 66.057026 
L 301.826372 63.753575 
L 302.877034 65.337198 
L 303.927696 65.049266 
L 306.02902 67.568667 
L 307.079682 62.745815 
L 308.130344 63.681592 
L 309.181006 64.041506 
L 310.231668 62.277926 
L 311.28233 62.925772 
L 312.332992 63.105729 
L 313.383654 61.414132 
L 314.434316 63.681592 
L 315.484978 63.285686 
L 316.53564 61.234175 
L 317.586302 62.313918 
L 318.636964 62.277926 
L 319.687626 62.889781 
L 320.738288 61.989995 
L 321.78895 62.3859 
L 322.839612 61.414132 
L 323.890274 61.306158 
L 324.940936 62.529866 
L 325.991598 62.061978 
L 327.042259 62.169952 
L 328.092921 62.781806 
L 329.143583 63.105729 
L 330.194245 59.974475 
L 331.244907 57.85098 
L 332.295569 59.398612 
L 333.346231 61.702063 
L 334.396893 60.658312 
L 335.447555 61.522106 
L 336.498217 57.85098 
L 337.548879 57.023177 
L 338.599541 58.750766 
L 339.650203 59.722535 
L 340.700865 57.958955 
L 342.802189 58.282877 
L 343.852851 60.910252 
L 344.903513 58.678783 
L 345.954175 61.846029 
L 347.004837 57.383092 
L 348.055499 59.470595 
L 349.106161 57.671023 
L 350.156823 59.11068 
L 351.207485 55.83546 
L 352.258147 57.85098 
L 353.308808 56.303349 
L 354.35947 56.735246 
L 355.410132 57.635032 
L 356.460794 55.943434 
L 357.511456 56.123392 
L 358.562118 56.771237 
L 359.61278 55.259597 
L 360.663442 55.871452 
L 361.714104 55.475546 
L 362.764766 55.511537 
L 363.815428 56.231366 
L 364.86609 55.115632 
L 365.916752 55.403563 
L 366.967414 54.035889 
L 368.018076 55.691494 
L 369.068738 55.151623 
L 371.170062 54.539769 
L 372.220724 55.691494 
L 373.271386 55.547529 
L 374.322048 55.043649 
L 375.37271 54.683734 
L 376.423372 54.57576 
L 377.474034 54.791709 
L 378.524695 55.403563 
L 379.575357 54.143863 
L 380.626019 54.431794 
L 382.727343 54.395803 
L 383.778005 54.287829 
L 384.828667 54.32382 
L 385.879329 54.07188 
L 386.929991 54.431794 
L 387.980653 53.963906 
L 390.081977 53.675974 
L 391.132639 53.675974 
L 392.183301 53.855931 
L 393.233963 53.568 
L 394.284625 53.963906 
L 395.335287 53.639983 
L 396.385949 54.359811 
L 397.436611 53.711966 
L 398.487273 53.747957 
L 398.487273 53.747957 
" style="fill:none;stroke:#ff7f0e;stroke-linecap:square;stroke-width:1.5;"/>
   </g>
   <g id="patch_3">
    <path d="M 57.6 307.584 
L 57.6 41.472 
" style="fill:none;stroke:#000000;stroke-linecap:square;stroke-linejoin:miter;stroke-width:0.8;"/>
   </g>
   <g id="patch_4">
    <path d="M 414.72 307.584 
L 414.72 41.472 
" style="fill:none;stroke:#000000;stroke-linecap:square;stroke-linejoin:miter;stroke-width:0.8;"/>
   </g>
   <g id="patch_5">
    <path d="M 57.6 307.584 
L 414.72 307.584 
" style="fill:none;stroke:#000000;stroke-linecap:square;stroke-linejoin:miter;stroke-width:0.8;"/>
   </g>
   <g id="patch_6">
    <path d="M 57.6 41.472 
L 414.72 41.472 
" style="fill:none;stroke:#000000;stroke-linecap:square;stroke-linejoin:miter;stroke-width:0.8;"/>
   </g>
   <g id="text_20">
    <!-- Training and Validation Accuracy -->
    <g transform="translate(138.4575 35.472)scale(0.12 -0.12)">
     <defs>
      <path d="M -19 4666 
L 3928 4666 
L 3928 4134 
L 2272 4134 
L 2272 0 
L 1638 0 
L 1638 4134 
L -19 4134 
L -19 4666 
z
" id="DejaVuSans-54" transform="scale(0.015625)"/>
      <path d="M 603 3500 
L 1178 3500 
L 1178 0 
L 603 0 
L 603 3500 
z
M 603 4863 
L 1178 4863 
L 1178 4134 
L 603 4134 
L 603 4863 
z
" id="DejaVuSans-69" transform="scale(0.015625)"/>
      <path d="M 3513 2113 
L 3513 0 
L 2938 0 
L 2938 2094 
Q 2938 2591 2744 2837 
Q 2550 3084 2163 3084 
Q 1697 3084 1428 2787 
Q 1159 2491 1159 1978 
L 1159 0 
L 581 0 
L 581 3500 
L 1159 3500 
L 1159 2956 
Q 1366 3272 1645 3428 
Q 1925 3584 2291 3584 
Q 2894 3584 3203 3211 
Q 3513 2838 3513 2113 
z
" id="DejaVuSans-6e" transform="scale(0.015625)"/>
      <path d="M 2906 1791 
Q 2906 2416 2648 2759 
Q 2391 3103 1925 3103 
Q 1463 3103 1205 2759 
Q 947 2416 947 1791 
Q 947 1169 1205 825 
Q 1463 481 1925 481 
Q 2391 481 2648 825 
Q 2906 1169 2906 1791 
z
M 3481 434 
Q 3481 -459 3084 -895 
Q 2688 -1331 1869 -1331 
Q 1566 -1331 1297 -1286 
Q 1028 -1241 775 -1147 
L 775 -588 
Q 1028 -725 1275 -790 
Q 1522 -856 1778 -856 
Q 2344 -856 2625 -561 
Q 2906 -266 2906 331 
L 2906 616 
Q 2728 306 2450 153 
Q 2172 0 1784 0 
Q 1141 0 747 490 
Q 353 981 353 1791 
Q 353 2603 747 3093 
Q 1141 3584 1784 3584 
Q 2172 3584 2450 3431 
Q 2728 3278 2906 2969 
L 2906 3500 
L 3481 3500 
L 3481 434 
z
" id="DejaVuSans-67" transform="scale(0.015625)"/>
      <path id="DejaVuSans-20" transform="scale(0.015625)"/>
      <path d="M 2906 2969 
L 2906 4863 
L 3481 4863 
L 3481 0 
L 2906 0 
L 2906 525 
Q 2725 213 2448 61 
Q 2172 -91 1784 -91 
Q 1150 -91 751 415 
Q 353 922 353 1747 
Q 353 2572 751 3078 
Q 1150 3584 1784 3584 
Q 2172 3584 2448 3432 
Q 2725 3281 2906 2969 
z
M 947 1747 
Q 947 1113 1208 752 
Q 1469 391 1925 391 
Q 2381 391 2643 752 
Q 2906 1113 2906 1747 
Q 2906 2381 2643 2742 
Q 2381 3103 1925 3103 
Q 1469 3103 1208 2742 
Q 947 2381 947 1747 
z
" id="DejaVuSans-64" transform="scale(0.015625)"/>
      <path d="M 1831 0 
L 50 4666 
L 709 4666 
L 2188 738 
L 3669 4666 
L 4325 4666 
L 2547 0 
L 1831 0 
z
" id="DejaVuSans-56" transform="scale(0.015625)"/>
      <path d="M 603 4863 
L 1178 4863 
L 1178 0 
L 603 0 
L 603 4863 
z
" id="DejaVuSans-6c" transform="scale(0.015625)"/>
      <path d="M 1172 4494 
L 1172 3500 
L 2356 3500 
L 2356 3053 
L 1172 3053 
L 1172 1153 
Q 1172 725 1289 603 
Q 1406 481 1766 481 
L 2356 481 
L 2356 0 
L 1766 0 
Q 1100 0 847 248 
Q 594 497 594 1153 
L 594 3053 
L 172 3053 
L 172 3500 
L 594 3500 
L 594 4494 
L 1172 4494 
z
" id="DejaVuSans-74" transform="scale(0.015625)"/>
     </defs>
     <use xlink:href="#DejaVuSans-54"/>
     <use x="46.333984" xlink:href="#DejaVuSans-72"/>
     <use x="87.447266" xlink:href="#DejaVuSans-61"/>
     <use x="148.726562" xlink:href="#DejaVuSans-69"/>
     <use x="176.509766" xlink:href="#DejaVuSans-6e"/>
     <use x="239.888672" xlink:href="#DejaVuSans-69"/>
     <use x="267.671875" xlink:href="#DejaVuSans-6e"/>
     <use x="331.050781" xlink:href="#DejaVuSans-67"/>
     <use x="394.527344" xlink:href="#DejaVuSans-20"/>
     <use x="426.314453" xlink:href="#DejaVuSans-61"/>
     <use x="487.59375" xlink:href="#DejaVuSans-6e"/>
     <use x="550.972656" xlink:href="#DejaVuSans-64"/>
     <use x="614.449219" xlink:href="#DejaVuSans-20"/>
     <use x="646.236328" xlink:href="#DejaVuSans-56"/>
     <use x="706.894531" xlink:href="#DejaVuSans-61"/>
     <use x="768.173828" xlink:href="#DejaVuSans-6c"/>
     <use x="795.957031" xlink:href="#DejaVuSans-69"/>
     <use x="823.740234" xlink:href="#DejaVuSans-64"/>
     <use x="887.216797" xlink:href="#DejaVuSans-61"/>
     <use x="948.496094" xlink:href="#DejaVuSans-74"/>
     <use x="987.705078" xlink:href="#DejaVuSans-69"/>
     <use x="1015.488281" xlink:href="#DejaVuSans-6f"/>
     <use x="1076.669922" xlink:href="#DejaVuSans-6e"/>
     <use x="1140.048828" xlink:href="#DejaVuSans-20"/>
     <use x="1171.835938" xlink:href="#DejaVuSans-41"/>
     <use x="1238.494141" xlink:href="#DejaVuSans-63"/>
     <use x="1293.474609" xlink:href="#DejaVuSans-63"/>
     <use x="1348.455078" xlink:href="#DejaVuSans-75"/>
     <use x="1411.833984" xlink:href="#DejaVuSans-72"/>
     <use x="1452.947266" xlink:href="#DejaVuSans-61"/>
     <use x="1514.226562" xlink:href="#DejaVuSans-63"/>
     <use x="1569.207031" xlink:href="#DejaVuSans-79"/>
    </g>
   </g>
   <g id="legend_1">
    <g id="patch_7">
     <path d="M 277.504375 302.584 
L 407.72 302.584 
Q 409.72 302.584 409.72 300.584 
L 409.72 272.22775 
Q 409.72 270.22775 407.72 270.22775 
L 277.504375 270.22775 
Q 275.504375 270.22775 275.504375 272.22775 
L 275.504375 300.584 
Q 275.504375 302.584 277.504375 302.584 
z
" style="fill:#ffffff;opacity:0.8;stroke:#cccccc;stroke-linejoin:miter;"/>
    </g>
    <g id="line2d_20">
     <path d="M 279.504375 278.326187 
L 299.504375 278.326187 
" style="fill:none;stroke:#1f77b4;stroke-linecap:square;stroke-width:1.5;"/>
    </g>
    <g id="line2d_21"/>
    <g id="text_21">
     <!-- Train Accuracy -->
     <g transform="translate(307.504375 281.826187)scale(0.1 -0.1)">
      <use xlink:href="#DejaVuSans-54"/>
      <use x="46.333984" xlink:href="#DejaVuSans-72"/>
      <use x="87.447266" xlink:href="#DejaVuSans-61"/>
      <use x="148.726562" xlink:href="#DejaVuSans-69"/>
      <use x="176.509766" xlink:href="#DejaVuSans-6e"/>
      <use x="239.888672" xlink:href="#DejaVuSans-20"/>
      <use x="271.675781" xlink:href="#DejaVuSans-41"/>
      <use x="338.333984" xlink:href="#DejaVuSans-63"/>
      <use x="393.314453" xlink:href="#DejaVuSans-63"/>
      <use x="448.294922" xlink:href="#DejaVuSans-75"/>
      <use x="511.673828" xlink:href="#DejaVuSans-72"/>
      <use x="552.787109" xlink:href="#DejaVuSans-61"/>
      <use x="614.066406" xlink:href="#DejaVuSans-63"/>
      <use x="669.046875" xlink:href="#DejaVuSans-79"/>
     </g>
    </g>
    <g id="line2d_22">
     <path d="M 279.504375 293.004312 
L 299.504375 293.004312 
" style="fill:none;stroke:#ff7f0e;stroke-linecap:square;stroke-width:1.5;"/>
    </g>
    <g id="line2d_23"/>
    <g id="text_22">
     <!-- Validation Accuracy -->
     <g transform="translate(307.504375 296.504312)scale(0.1 -0.1)">
      <use xlink:href="#DejaVuSans-56"/>
      <use x="60.658203" xlink:href="#DejaVuSans-61"/>
      <use x="121.9375" xlink:href="#DejaVuSans-6c"/>
      <use x="149.720703" xlink:href="#DejaVuSans-69"/>
      <use x="177.503906" xlink:href="#DejaVuSans-64"/>
      <use x="240.980469" xlink:href="#DejaVuSans-61"/>
      <use x="302.259766" xlink:href="#DejaVuSans-74"/>
      <use x="341.46875" xlink:href="#DejaVuSans-69"/>
      <use x="369.251953" xlink:href="#DejaVuSans-6f"/>
      <use x="430.433594" xlink:href="#DejaVuSans-6e"/>
      <use x="493.8125" xlink:href="#DejaVuSans-20"/>
      <use x="525.599609" xlink:href="#DejaVuSans-41"/>
      <use x="592.257812" xlink:href="#DejaVuSans-63"/>
      <use x="647.238281" xlink:href="#DejaVuSans-63"/>
      <use x="702.21875" xlink:href="#DejaVuSans-75"/>
      <use x="765.597656" xlink:href="#DejaVuSans-72"/>
      <use x="806.710938" xlink:href="#DejaVuSans-61"/>
      <use x="867.990234" xlink:href="#DejaVuSans-63"/>
      <use x="922.970703" xlink:href="#DejaVuSans-79"/>
     </g>
    </g>
   </g>
  </g>
 </g>
 <defs>
  <clipPath id="p7e01605595">
   <rect height="266.112" width="357.12" x="57.6" y="41.472"/>
  </clipPath>
 </defs>
</svg>
