<?xml version="1.0" encoding="utf-8" standalone="no"?>
<!DOCTYPE svg PUBLIC "-//W3C//DTD SVG 1.1//EN"
  "http://www.w3.org/Graphics/SVG/1.1/DTD/svg11.dtd">
<svg height="345.6pt" version="1.1" viewBox="0 0 460.8 345.6" width="460.8pt" xmlns="http://www.w3.org/2000/svg" xmlns:xlink="http://www.w3.org/1999/xlink">
 <metadata>
  <rdf:RDF xmlns:cc="http://creativecommons.org/ns#" xmlns:dc="http://purl.org/dc/elements/1.1/" xmlns:rdf="http://www.w3.org/1999/02/22-rdf-syntax-ns#">
   <cc:Work>
    <dc:type rdf:resource="http://purl.org/dc/dcmitype/StillImage"/>
    <dc:date>2023-09-04T18:32:13.408283</dc:date>
    <dc:format>image/svg+xml</dc:format>
    <dc:creator>
     <cc:Agent>
      <dc:title>Matplotlib v3.4.3, https://matplotlib.org/</dc:title>
     </cc:Agent>
    </dc:creator>
   </cc:Work>
  </rdf:RDF>
 </metadata>
 <defs>
  <style type="text/css">*{stroke-linecap:butt;stroke-linejoin:round;}</style>
 </defs>
 <g id="figure_1">
  <g id="patch_1">
   <path d="M 0 345.6 
L 460.8 345.6 
L 460.8 0 
L 0 0 
z
" style="fill:#ffffff;"/>
  </g>
  <g id="axes_1">
   <g id="patch_2">
    <path d="M 57.6 307.584 
L 414.72 307.584 
L 414.72 41.472 
L 57.6 41.472 
z
" style="fill:#ffffff;"/>
   </g>
   <g id="matplotlib.axis_1">
    <g id="xtick_1">
     <g id="line2d_1">
      <defs>
       <path d="M 0 0 
L 0 3.5 
" id="m248850e870" style="stroke:#000000;stroke-width:0.8;"/>
      </defs>
      <g>
       <use style="stroke:#000000;stroke-width:0.8;" x="73.832727" xlink:href="#m248850e870" y="307.584"/>
      </g>
     </g>
     <g id="text_1">
      <!-- 1 -->
      <g transform="translate(70.651477 322.182437)scale(0.1 -0.1)">
       <defs>
        <path d="M 794 531 
L 1825 531 
L 1825 4091 
L 703 3866 
L 703 4441 
L 1819 4666 
L 2450 4666 
L 2450 531 
L 3481 531 
L 3481 0 
L 794 0 
L 794 531 
z
" id="DejaVuSans-31" transform="scale(0.015625)"/>
       </defs>
       <use xlink:href="#DejaVuSans-31"/>
      </g>
     </g>
    </g>
    <g id="xtick_2">
     <g id="line2d_2">
      <g>
       <use style="stroke:#000000;stroke-width:0.8;" x="109.555234" xlink:href="#m248850e870" y="307.584"/>
      </g>
     </g>
     <g id="text_2">
      <!-- 35 -->
      <g transform="translate(103.192734 322.182437)scale(0.1 -0.1)">
       <defs>
        <path d="M 2597 2516 
Q 3050 2419 3304 2112 
Q 3559 1806 3559 1356 
Q 3559 666 3084 287 
Q 2609 -91 1734 -91 
Q 1441 -91 1130 -33 
Q 819 25 488 141 
L 488 750 
Q 750 597 1062 519 
Q 1375 441 1716 441 
Q 2309 441 2620 675 
Q 2931 909 2931 1356 
Q 2931 1769 2642 2001 
Q 2353 2234 1838 2234 
L 1294 2234 
L 1294 2753 
L 1863 2753 
Q 2328 2753 2575 2939 
Q 2822 3125 2822 3475 
Q 2822 3834 2567 4026 
Q 2313 4219 1838 4219 
Q 1578 4219 1281 4162 
Q 984 4106 628 3988 
L 628 4550 
Q 988 4650 1302 4700 
Q 1616 4750 1894 4750 
Q 2613 4750 3031 4423 
Q 3450 4097 3450 3541 
Q 3450 3153 3228 2886 
Q 3006 2619 2597 2516 
z
" id="DejaVuSans-33" transform="scale(0.015625)"/>
        <path d="M 691 4666 
L 3169 4666 
L 3169 4134 
L 1269 4134 
L 1269 2991 
Q 1406 3038 1543 3061 
Q 1681 3084 1819 3084 
Q 2600 3084 3056 2656 
Q 3513 2228 3513 1497 
Q 3513 744 3044 326 
Q 2575 -91 1722 -91 
Q 1428 -91 1123 -41 
Q 819 9 494 109 
L 494 744 
Q 775 591 1075 516 
Q 1375 441 1709 441 
Q 2250 441 2565 725 
Q 2881 1009 2881 1497 
Q 2881 1984 2565 2268 
Q 2250 2553 1709 2553 
Q 1456 2553 1204 2497 
Q 953 2441 691 2322 
L 691 4666 
z
" id="DejaVuSans-35" transform="scale(0.015625)"/>
       </defs>
       <use xlink:href="#DejaVuSans-33"/>
       <use x="63.623047" xlink:href="#DejaVuSans-35"/>
      </g>
     </g>
    </g>
    <g id="xtick_3">
     <g id="line2d_3">
      <g>
       <use style="stroke:#000000;stroke-width:0.8;" x="145.277741" xlink:href="#m248850e870" y="307.584"/>
      </g>
     </g>
     <g id="text_3">
      <!-- 69 -->
      <g transform="translate(138.915241 322.182437)scale(0.1 -0.1)">
       <defs>
        <path d="M 2113 2584 
Q 1688 2584 1439 2293 
Q 1191 2003 1191 1497 
Q 1191 994 1439 701 
Q 1688 409 2113 409 
Q 2538 409 2786 701 
Q 3034 994 3034 1497 
Q 3034 2003 2786 2293 
Q 2538 2584 2113 2584 
z
M 3366 4563 
L 3366 3988 
Q 3128 4100 2886 4159 
Q 2644 4219 2406 4219 
Q 1781 4219 1451 3797 
Q 1122 3375 1075 2522 
Q 1259 2794 1537 2939 
Q 1816 3084 2150 3084 
Q 2853 3084 3261 2657 
Q 3669 2231 3669 1497 
Q 3669 778 3244 343 
Q 2819 -91 2113 -91 
Q 1303 -91 875 529 
Q 447 1150 447 2328 
Q 447 3434 972 4092 
Q 1497 4750 2381 4750 
Q 2619 4750 2861 4703 
Q 3103 4656 3366 4563 
z
" id="DejaVuSans-36" transform="scale(0.015625)"/>
        <path d="M 703 97 
L 703 672 
Q 941 559 1184 500 
Q 1428 441 1663 441 
Q 2288 441 2617 861 
Q 2947 1281 2994 2138 
Q 2813 1869 2534 1725 
Q 2256 1581 1919 1581 
Q 1219 1581 811 2004 
Q 403 2428 403 3163 
Q 403 3881 828 4315 
Q 1253 4750 1959 4750 
Q 2769 4750 3195 4129 
Q 3622 3509 3622 2328 
Q 3622 1225 3098 567 
Q 2575 -91 1691 -91 
Q 1453 -91 1209 -44 
Q 966 3 703 97 
z
M 1959 2075 
Q 2384 2075 2632 2365 
Q 2881 2656 2881 3163 
Q 2881 3666 2632 3958 
Q 2384 4250 1959 4250 
Q 1534 4250 1286 3958 
Q 1038 3666 1038 3163 
Q 1038 2656 1286 2365 
Q 1534 2075 1959 2075 
z
" id="DejaVuSans-39" transform="scale(0.015625)"/>
       </defs>
       <use xlink:href="#DejaVuSans-36"/>
       <use x="63.623047" xlink:href="#DejaVuSans-39"/>
      </g>
     </g>
    </g>
    <g id="xtick_4">
     <g id="line2d_4">
      <g>
       <use style="stroke:#000000;stroke-width:0.8;" x="182.050909" xlink:href="#m248850e870" y="307.584"/>
      </g>
     </g>
     <g id="text_4">
      <!-- 104 -->
      <g transform="translate(172.507159 322.182437)scale(0.1 -0.1)">
       <defs>
        <path d="M 2034 4250 
Q 1547 4250 1301 3770 
Q 1056 3291 1056 2328 
Q 1056 1369 1301 889 
Q 1547 409 2034 409 
Q 2525 409 2770 889 
Q 3016 1369 3016 2328 
Q 3016 3291 2770 3770 
Q 2525 4250 2034 4250 
z
M 2034 4750 
Q 2819 4750 3233 4129 
Q 3647 3509 3647 2328 
Q 3647 1150 3233 529 
Q 2819 -91 2034 -91 
Q 1250 -91 836 529 
Q 422 1150 422 2328 
Q 422 3509 836 4129 
Q 1250 4750 2034 4750 
z
" id="DejaVuSans-30" transform="scale(0.015625)"/>
        <path d="M 2419 4116 
L 825 1625 
L 2419 1625 
L 2419 4116 
z
M 2253 4666 
L 3047 4666 
L 3047 1625 
L 3713 1625 
L 3713 1100 
L 3047 1100 
L 3047 0 
L 2419 0 
L 2419 1100 
L 313 1100 
L 313 1709 
L 2253 4666 
z
" id="DejaVuSans-34" transform="scale(0.015625)"/>
       </defs>
       <use xlink:href="#DejaVuSans-31"/>
       <use x="63.623047" xlink:href="#DejaVuSans-30"/>
       <use x="127.246094" xlink:href="#DejaVuSans-34"/>
      </g>
     </g>
    </g>
    <g id="xtick_5">
     <g id="line2d_5">
      <g>
       <use style="stroke:#000000;stroke-width:0.8;" x="217.773416" xlink:href="#m248850e870" y="307.584"/>
      </g>
     </g>
     <g id="text_5">
      <!-- 138 -->
      <g transform="translate(208.229666 322.182437)scale(0.1 -0.1)">
       <defs>
        <path d="M 2034 2216 
Q 1584 2216 1326 1975 
Q 1069 1734 1069 1313 
Q 1069 891 1326 650 
Q 1584 409 2034 409 
Q 2484 409 2743 651 
Q 3003 894 3003 1313 
Q 3003 1734 2745 1975 
Q 2488 2216 2034 2216 
z
M 1403 2484 
Q 997 2584 770 2862 
Q 544 3141 544 3541 
Q 544 4100 942 4425 
Q 1341 4750 2034 4750 
Q 2731 4750 3128 4425 
Q 3525 4100 3525 3541 
Q 3525 3141 3298 2862 
Q 3072 2584 2669 2484 
Q 3125 2378 3379 2068 
Q 3634 1759 3634 1313 
Q 3634 634 3220 271 
Q 2806 -91 2034 -91 
Q 1263 -91 848 271 
Q 434 634 434 1313 
Q 434 1759 690 2068 
Q 947 2378 1403 2484 
z
M 1172 3481 
Q 1172 3119 1398 2916 
Q 1625 2713 2034 2713 
Q 2441 2713 2670 2916 
Q 2900 3119 2900 3481 
Q 2900 3844 2670 4047 
Q 2441 4250 2034 4250 
Q 1625 4250 1398 4047 
Q 1172 3844 1172 3481 
z
" id="DejaVuSans-38" transform="scale(0.015625)"/>
       </defs>
       <use xlink:href="#DejaVuSans-31"/>
       <use x="63.623047" xlink:href="#DejaVuSans-33"/>
       <use x="127.246094" xlink:href="#DejaVuSans-38"/>
      </g>
     </g>
    </g>
    <g id="xtick_6">
     <g id="line2d_6">
      <g>
       <use style="stroke:#000000;stroke-width:0.8;" x="253.495922" xlink:href="#m248850e870" y="307.584"/>
      </g>
     </g>
     <g id="text_6">
      <!-- 172 -->
      <g transform="translate(243.952172 322.182437)scale(0.1 -0.1)">
       <defs>
        <path d="M 525 4666 
L 3525 4666 
L 3525 4397 
L 1831 0 
L 1172 0 
L 2766 4134 
L 525 4134 
L 525 4666 
z
" id="DejaVuSans-37" transform="scale(0.015625)"/>
        <path d="M 1228 531 
L 3431 531 
L 3431 0 
L 469 0 
L 469 531 
Q 828 903 1448 1529 
Q 2069 2156 2228 2338 
Q 2531 2678 2651 2914 
Q 2772 3150 2772 3378 
Q 2772 3750 2511 3984 
Q 2250 4219 1831 4219 
Q 1534 4219 1204 4116 
Q 875 4013 500 3803 
L 500 4441 
Q 881 4594 1212 4672 
Q 1544 4750 1819 4750 
Q 2544 4750 2975 4387 
Q 3406 4025 3406 3419 
Q 3406 3131 3298 2873 
Q 3191 2616 2906 2266 
Q 2828 2175 2409 1742 
Q 1991 1309 1228 531 
z
" id="DejaVuSans-32" transform="scale(0.015625)"/>
       </defs>
       <use xlink:href="#DejaVuSans-31"/>
       <use x="63.623047" xlink:href="#DejaVuSans-37"/>
       <use x="127.246094" xlink:href="#DejaVuSans-32"/>
      </g>
     </g>
    </g>
    <g id="xtick_7">
     <g id="line2d_7">
      <g>
       <use style="stroke:#000000;stroke-width:0.8;" x="290.269091" xlink:href="#m248850e870" y="307.584"/>
      </g>
     </g>
     <g id="text_7">
      <!-- 207 -->
      <g transform="translate(280.725341 322.182437)scale(0.1 -0.1)">
       <use xlink:href="#DejaVuSans-32"/>
       <use x="63.623047" xlink:href="#DejaVuSans-30"/>
       <use x="127.246094" xlink:href="#DejaVuSans-37"/>
      </g>
     </g>
    </g>
    <g id="xtick_8">
     <g id="line2d_8">
      <g>
       <use style="stroke:#000000;stroke-width:0.8;" x="325.991598" xlink:href="#m248850e870" y="307.584"/>
      </g>
     </g>
     <g id="text_8">
      <!-- 241 -->
      <g transform="translate(316.447848 322.182437)scale(0.1 -0.1)">
       <use xlink:href="#DejaVuSans-32"/>
       <use x="63.623047" xlink:href="#DejaVuSans-34"/>
       <use x="127.246094" xlink:href="#DejaVuSans-31"/>
      </g>
     </g>
    </g>
    <g id="xtick_9">
     <g id="line2d_9">
      <g>
       <use style="stroke:#000000;stroke-width:0.8;" x="361.714104" xlink:href="#m248850e870" y="307.584"/>
      </g>
     </g>
     <g id="text_9">
      <!-- 275 -->
      <g transform="translate(352.170354 322.182437)scale(0.1 -0.1)">
       <use xlink:href="#DejaVuSans-32"/>
       <use x="63.623047" xlink:href="#DejaVuSans-37"/>
       <use x="127.246094" xlink:href="#DejaVuSans-35"/>
      </g>
     </g>
    </g>
    <g id="xtick_10">
     <g id="line2d_10">
      <g>
       <use style="stroke:#000000;stroke-width:0.8;" x="398.487273" xlink:href="#m248850e870" y="307.584"/>
      </g>
     </g>
     <g id="text_10">
      <!-- 310 -->
      <g transform="translate(388.943523 322.182437)scale(0.1 -0.1)">
       <use xlink:href="#DejaVuSans-33"/>
       <use x="63.623047" xlink:href="#DejaVuSans-31"/>
       <use x="127.246094" xlink:href="#DejaVuSans-30"/>
      </g>
     </g>
    </g>
    <g id="text_11">
     <!-- Epochs -->
     <g transform="translate(218.244375 335.860562)scale(0.1 -0.1)">
      <defs>
       <path d="M 628 4666 
L 3578 4666 
L 3578 4134 
L 1259 4134 
L 1259 2753 
L 3481 2753 
L 3481 2222 
L 1259 2222 
L 1259 531 
L 3634 531 
L 3634 0 
L 628 0 
L 628 4666 
z
" id="DejaVuSans-45" transform="scale(0.015625)"/>
       <path d="M 1159 525 
L 1159 -1331 
L 581 -1331 
L 581 3500 
L 1159 3500 
L 1159 2969 
Q 1341 3281 1617 3432 
Q 1894 3584 2278 3584 
Q 2916 3584 3314 3078 
Q 3713 2572 3713 1747 
Q 3713 922 3314 415 
Q 2916 -91 2278 -91 
Q 1894 -91 1617 61 
Q 1341 213 1159 525 
z
M 3116 1747 
Q 3116 2381 2855 2742 
Q 2594 3103 2138 3103 
Q 1681 3103 1420 2742 
Q 1159 2381 1159 1747 
Q 1159 1113 1420 752 
Q 1681 391 2138 391 
Q 2594 391 2855 752 
Q 3116 1113 3116 1747 
z
" id="DejaVuSans-70" transform="scale(0.015625)"/>
       <path d="M 1959 3097 
Q 1497 3097 1228 2736 
Q 959 2375 959 1747 
Q 959 1119 1226 758 
Q 1494 397 1959 397 
Q 2419 397 2687 759 
Q 2956 1122 2956 1747 
Q 2956 2369 2687 2733 
Q 2419 3097 1959 3097 
z
M 1959 3584 
Q 2709 3584 3137 3096 
Q 3566 2609 3566 1747 
Q 3566 888 3137 398 
Q 2709 -91 1959 -91 
Q 1206 -91 779 398 
Q 353 888 353 1747 
Q 353 2609 779 3096 
Q 1206 3584 1959 3584 
z
" id="DejaVuSans-6f" transform="scale(0.015625)"/>
       <path d="M 3122 3366 
L 3122 2828 
Q 2878 2963 2633 3030 
Q 2388 3097 2138 3097 
Q 1578 3097 1268 2742 
Q 959 2388 959 1747 
Q 959 1106 1268 751 
Q 1578 397 2138 397 
Q 2388 397 2633 464 
Q 2878 531 3122 666 
L 3122 134 
Q 2881 22 2623 -34 
Q 2366 -91 2075 -91 
Q 1284 -91 818 406 
Q 353 903 353 1747 
Q 353 2603 823 3093 
Q 1294 3584 2113 3584 
Q 2378 3584 2631 3529 
Q 2884 3475 3122 3366 
z
" id="DejaVuSans-63" transform="scale(0.015625)"/>
       <path d="M 3513 2113 
L 3513 0 
L 2938 0 
L 2938 2094 
Q 2938 2591 2744 2837 
Q 2550 3084 2163 3084 
Q 1697 3084 1428 2787 
Q 1159 2491 1159 1978 
L 1159 0 
L 581 0 
L 581 4863 
L 1159 4863 
L 1159 2956 
Q 1366 3272 1645 3428 
Q 1925 3584 2291 3584 
Q 2894 3584 3203 3211 
Q 3513 2838 3513 2113 
z
" id="DejaVuSans-68" transform="scale(0.015625)"/>
       <path d="M 2834 3397 
L 2834 2853 
Q 2591 2978 2328 3040 
Q 2066 3103 1784 3103 
Q 1356 3103 1142 2972 
Q 928 2841 928 2578 
Q 928 2378 1081 2264 
Q 1234 2150 1697 2047 
L 1894 2003 
Q 2506 1872 2764 1633 
Q 3022 1394 3022 966 
Q 3022 478 2636 193 
Q 2250 -91 1575 -91 
Q 1294 -91 989 -36 
Q 684 19 347 128 
L 347 722 
Q 666 556 975 473 
Q 1284 391 1588 391 
Q 1994 391 2212 530 
Q 2431 669 2431 922 
Q 2431 1156 2273 1281 
Q 2116 1406 1581 1522 
L 1381 1569 
Q 847 1681 609 1914 
Q 372 2147 372 2553 
Q 372 3047 722 3315 
Q 1072 3584 1716 3584 
Q 2034 3584 2315 3537 
Q 2597 3491 2834 3397 
z
" id="DejaVuSans-73" transform="scale(0.015625)"/>
      </defs>
      <use xlink:href="#DejaVuSans-45"/>
      <use x="63.183594" xlink:href="#DejaVuSans-70"/>
      <use x="126.660156" xlink:href="#DejaVuSans-6f"/>
      <use x="187.841797" xlink:href="#DejaVuSans-63"/>
      <use x="242.822266" xlink:href="#DejaVuSans-68"/>
      <use x="306.201172" xlink:href="#DejaVuSans-73"/>
     </g>
    </g>
   </g>
   <g id="matplotlib.axis_2">
    <g id="ytick_1">
     <g id="line2d_11">
      <defs>
       <path d="M 0 0 
L -3.5 0 
" id="maffca63d70" style="stroke:#000000;stroke-width:0.8;"/>
      </defs>
      <g>
       <use style="stroke:#000000;stroke-width:0.8;" x="57.6" xlink:href="#maffca63d70" y="306.342786"/>
      </g>
     </g>
     <g id="text_12">
      <!-- 0 -->
      <g transform="translate(44.2375 310.142005)scale(0.1 -0.1)">
       <use xlink:href="#DejaVuSans-30"/>
      </g>
     </g>
    </g>
    <g id="ytick_2">
     <g id="line2d_12">
      <g>
       <use style="stroke:#000000;stroke-width:0.8;" x="57.6" xlink:href="#maffca63d70" y="252.962969"/>
      </g>
     </g>
     <g id="text_13">
      <!-- 20 -->
      <g transform="translate(37.875 256.762187)scale(0.1 -0.1)">
       <use xlink:href="#DejaVuSans-32"/>
       <use x="63.623047" xlink:href="#DejaVuSans-30"/>
      </g>
     </g>
    </g>
    <g id="ytick_3">
     <g id="line2d_13">
      <g>
       <use style="stroke:#000000;stroke-width:0.8;" x="57.6" xlink:href="#maffca63d70" y="199.583152"/>
      </g>
     </g>
     <g id="text_14">
      <!-- 40 -->
      <g transform="translate(37.875 203.38237)scale(0.1 -0.1)">
       <use xlink:href="#DejaVuSans-34"/>
       <use x="63.623047" xlink:href="#DejaVuSans-30"/>
      </g>
     </g>
    </g>
    <g id="ytick_4">
     <g id="line2d_14">
      <g>
       <use style="stroke:#000000;stroke-width:0.8;" x="57.6" xlink:href="#maffca63d70" y="146.203335"/>
      </g>
     </g>
     <g id="text_15">
      <!-- 60 -->
      <g transform="translate(37.875 150.002553)scale(0.1 -0.1)">
       <use xlink:href="#DejaVuSans-36"/>
       <use x="63.623047" xlink:href="#DejaVuSans-30"/>
      </g>
     </g>
    </g>
    <g id="ytick_5">
     <g id="line2d_15">
      <g>
       <use style="stroke:#000000;stroke-width:0.8;" x="57.6" xlink:href="#maffca63d70" y="92.823517"/>
      </g>
     </g>
     <g id="text_16">
      <!-- 80 -->
      <g transform="translate(37.875 96.622736)scale(0.1 -0.1)">
       <use xlink:href="#DejaVuSans-38"/>
       <use x="63.623047" xlink:href="#DejaVuSans-30"/>
      </g>
     </g>
    </g>
    <g id="text_17">
     <!-- Accuracy -->
     <g transform="translate(31.795312 197.356125)rotate(-90)scale(0.1 -0.1)">
      <defs>
       <path d="M 2188 4044 
L 1331 1722 
L 3047 1722 
L 2188 4044 
z
M 1831 4666 
L 2547 4666 
L 4325 0 
L 3669 0 
L 3244 1197 
L 1141 1197 
L 716 0 
L 50 0 
L 1831 4666 
z
" id="DejaVuSans-41" transform="scale(0.015625)"/>
       <path d="M 544 1381 
L 544 3500 
L 1119 3500 
L 1119 1403 
Q 1119 906 1312 657 
Q 1506 409 1894 409 
Q 2359 409 2629 706 
Q 2900 1003 2900 1516 
L 2900 3500 
L 3475 3500 
L 3475 0 
L 2900 0 
L 2900 538 
Q 2691 219 2414 64 
Q 2138 -91 1772 -91 
Q 1169 -91 856 284 
Q 544 659 544 1381 
z
M 1991 3584 
L 1991 3584 
z
" id="DejaVuSans-75" transform="scale(0.015625)"/>
       <path d="M 2631 2963 
Q 2534 3019 2420 3045 
Q 2306 3072 2169 3072 
Q 1681 3072 1420 2755 
Q 1159 2438 1159 1844 
L 1159 0 
L 581 0 
L 581 3500 
L 1159 3500 
L 1159 2956 
Q 1341 3275 1631 3429 
Q 1922 3584 2338 3584 
Q 2397 3584 2469 3576 
Q 2541 3569 2628 3553 
L 2631 2963 
z
" id="DejaVuSans-72" transform="scale(0.015625)"/>
       <path d="M 2194 1759 
Q 1497 1759 1228 1600 
Q 959 1441 959 1056 
Q 959 750 1161 570 
Q 1363 391 1709 391 
Q 2188 391 2477 730 
Q 2766 1069 2766 1631 
L 2766 1759 
L 2194 1759 
z
M 3341 1997 
L 3341 0 
L 2766 0 
L 2766 531 
Q 2569 213 2275 61 
Q 1981 -91 1556 -91 
Q 1019 -91 701 211 
Q 384 513 384 1019 
Q 384 1609 779 1909 
Q 1175 2209 1959 2209 
L 2766 2209 
L 2766 2266 
Q 2766 2663 2505 2880 
Q 2244 3097 1772 3097 
Q 1472 3097 1187 3025 
Q 903 2953 641 2809 
L 641 3341 
Q 956 3463 1253 3523 
Q 1550 3584 1831 3584 
Q 2591 3584 2966 3190 
Q 3341 2797 3341 1997 
z
" id="DejaVuSans-61" transform="scale(0.015625)"/>
       <path d="M 2059 -325 
Q 1816 -950 1584 -1140 
Q 1353 -1331 966 -1331 
L 506 -1331 
L 506 -850 
L 844 -850 
Q 1081 -850 1212 -737 
Q 1344 -625 1503 -206 
L 1606 56 
L 191 3500 
L 800 3500 
L 1894 763 
L 2988 3500 
L 3597 3500 
L 2059 -325 
z
" id="DejaVuSans-79" transform="scale(0.015625)"/>
      </defs>
      <use xlink:href="#DejaVuSans-41"/>
      <use x="66.658203" xlink:href="#DejaVuSans-63"/>
      <use x="121.638672" xlink:href="#DejaVuSans-63"/>
      <use x="176.619141" xlink:href="#DejaVuSans-75"/>
      <use x="239.998047" xlink:href="#DejaVuSans-72"/>
      <use x="281.111328" xlink:href="#DejaVuSans-61"/>
      <use x="342.390625" xlink:href="#DejaVuSans-63"/>
      <use x="397.371094" xlink:href="#DejaVuSans-79"/>
     </g>
    </g>
   </g>
   <g id="line2d_16">
    <path clip-path="url(#p75df9a9e0d)" d="M 73.832727 295.488 
L 74.883389 278.90556 
L 75.934051 264.535713 
L 78.035375 241.806587 
L 80.136699 223.262438 
L 81.187361 214.935187 
L 82.238023 207.894389 
L 83.288685 203.298387 
L 84.339347 229.539905 
L 85.390009 221.30073 
L 88.541995 202.962094 
L 90.643319 193.052131 
L 92.744643 182.883276 
L 93.795305 178.626235 
L 94.845966 173.424372 
L 95.896628 169.719813 
L 96.94729 164.536633 
L 97.997952 160.116784 
L 99.048614 155.123102 
L 101.149938 146.961328 
L 102.2006 144.068142 
L 103.251262 141.655374 
L 104.301924 139.976579 
L 105.352586 182.13062 
L 107.45391 174.641432 
L 108.504572 172.137919 
L 109.555234 168.508091 
L 110.605896 165.641595 
L 111.656558 163.356939 
L 114.808544 155.600851 
L 115.859206 153.334878 
L 116.909868 151.386515 
L 117.96053 148.221092 
L 120.061853 143.488971 
L 123.213839 134.401057 
L 124.264501 132.188464 
L 126.365825 125.935018 
L 127.416487 123.41816 
L 128.467149 119.753635 
L 130.568473 113.865841 
L 132.669797 106.787678 
L 133.720459 104.180074 
L 134.771121 100.603626 
L 135.821783 98.567186 
L 137.923107 92.687399 
L 140.024431 88.841383 
L 141.075093 87.114546 
L 142.125755 85.072768 
L 143.176417 84.320113 
L 145.277741 83.695569 
L 146.328402 82.414453 
L 147.379064 147.994227 
L 149.480388 142.805709 
L 150.53105 140.66251 
L 151.581712 139.52285 
L 152.632374 137.075386 
L 153.683036 135.812953 
L 154.733698 134.347677 
L 155.78436 132.506073 
L 156.835022 131.283676 
L 157.885684 129.706302 
L 158.936346 127.661855 
L 162.088332 124.515115 
L 163.138994 123.17795 
L 164.189656 122.118361 
L 165.240318 120.287433 
L 166.29098 119.262541 
L 167.341642 118.008115 
L 168.392304 117.020589 
L 169.442966 115.485919 
L 170.493628 114.407647 
L 171.544289 112.840949 
L 172.594951 112.349855 
L 173.645613 110.620348 
L 175.746937 108.212919 
L 176.797599 106.280569 
L 177.848261 105.66937 
L 178.898923 103.723676 
L 181.000247 101.735278 
L 182.050909 100.181925 
L 183.101571 98.137478 
L 184.152233 97.091234 
L 185.202895 95.297672 
L 186.253557 94.45694 
L 187.304219 93.29326 
L 188.354881 91.929406 
L 189.405543 89.786206 
L 190.456205 89.735495 
L 191.506867 86.530037 
L 192.557529 86.10033 
L 194.658853 84.373492 
L 195.709515 81.824606 
L 196.760177 81.197393 
L 198.8615 78.789964 
L 199.912162 77.217928 
L 202.013486 75.870088 
L 203.064148 74.212644 
L 204.11481 73.622797 
L 205.165472 72.904839 
L 206.216134 71.829235 
L 207.266796 70.395987 
L 210.418782 68.338195 
L 211.469444 67.620237 
L 212.520106 67.038397 
L 213.570768 65.41565 
L 214.62143 65.730591 
L 215.672092 64.985943 
L 216.722754 64.815127 
L 217.773416 64.222611 
L 218.824078 63.448604 
L 219.87474 63.421914 
L 223.026726 62.154144 
L 224.077387 62.036708 
L 225.128049 62.391684 
L 226.178711 61.489565 
L 227.229373 61.735112 
L 228.280035 61.478889 
L 229.330697 61.577642 
L 230.381359 61.228004 
L 231.432021 125.24108 
L 232.482683 127.990141 
L 233.533345 124.52846 
L 234.584007 121.976905 
L 235.634669 121.093469 
L 237.735993 116.625578 
L 238.786655 114.933438 
L 239.837317 113.732392 
L 240.887979 113.545562 
L 241.938641 113.823138 
L 242.989303 111.634565 
L 244.039965 110.222669 
L 245.090627 109.720899 
L 247.191951 108.930877 
L 248.242613 108.389072 
L 249.293274 108.21025 
L 250.343936 106.416688 
L 251.394598 106.744974 
L 252.44526 105.656026 
L 254.546584 104.759245 
L 255.597246 104.681844 
L 256.647908 103.870471 
L 257.69857 103.704993 
L 258.749232 103.080449 
L 259.799894 103.141836 
L 260.850556 102.434554 
L 261.901218 102.509285 
L 262.95188 100.891877 
L 264.002542 100.881201 
L 265.053204 101.217494 
L 266.103866 100.019117 
L 267.154528 99.736204 
L 268.20519 98.983548 
L 270.306514 98.020043 
L 271.357176 97.846558 
L 272.407838 96.613484 
L 273.4585 96.7843 
L 274.509162 96.210467 
L 275.559823 96.434662 
L 277.661147 96.106376 
L 278.711809 94.95871 
L 279.762471 94.254097 
L 280.813133 94.168689 
L 281.863795 93.63756 
L 282.914457 92.596653 
L 283.965119 92.385803 
L 285.015781 91.948088 
L 286.066443 90.776401 
L 287.117105 91.683858 
L 288.167767 89.970366 
L 289.218429 90.381391 
L 290.269091 89.594039 
L 291.319753 89.004192 
L 293.421077 88.291571 
L 294.471739 88.088728 
L 295.522401 87.594964 
L 296.573063 86.65548 
L 298.674387 85.748023 
L 299.725049 85.01405 
L 300.775711 84.899284 
L 302.877034 83.831687 
L 304.978358 83.193798 
L 306.02902 81.829944 
L 307.079682 81.944711 
L 308.130344 81.282801 
L 309.181006 81.250773 
L 310.231668 80.847756 
L 312.332992 79.443866 
L 313.383654 78.512389 
L 314.434316 78.394953 
L 315.484978 78.077343 
L 317.586302 77.255294 
L 318.636964 76.852276 
L 319.687626 75.776673 
L 321.78895 75.226861 
L 322.839612 74.324742 
L 324.940936 73.69486 
L 329.143583 71.92265 
L 330.194245 70.903096 
L 331.244907 71.250064 
L 332.295569 70.270545 
L 333.346231 70.17713 
L 334.396893 69.421806 
L 335.447555 68.346202 
L 336.498217 68.474314 
L 337.548879 68.065958 
L 338.599541 66.947651 
L 339.650203 67.465435 
L 340.700865 67.009038 
L 342.802189 65.607818 
L 343.852851 65.252842 
L 344.903513 65.28487 
L 345.954175 64.654988 
L 347.004837 64.158556 
L 348.055499 63.814256 
L 349.106161 62.482429 
L 350.156823 63.056262 
L 352.258147 61.809844 
L 353.308808 61.566966 
L 354.35947 61.532269 
L 355.410132 61.081209 
L 356.460794 60.437982 
L 357.511456 60.117704 
L 358.562118 60.291188 
L 359.61278 59.35971 
L 360.663442 59.311668 
L 361.714104 59.09548 
L 363.815428 58.30279 
L 364.86609 58.412218 
L 365.916752 57.801019 
L 366.967414 57.451382 
L 369.068738 57.136441 
L 370.1194 56.640008 
L 371.170062 56.773458 
L 372.220724 56.415813 
L 375.37271 55.828635 
L 376.423372 55.959416 
L 377.474034 55.428287 
L 379.575357 54.966551 
L 380.626019 54.966551 
L 381.676681 54.342007 
L 382.727343 54.672962 
L 383.778005 54.518161 
L 384.828667 54.696983 
L 385.879329 54.245924 
L 386.929991 54.544851 
L 387.980653 53.99237 
L 389.031315 53.800202 
L 390.081977 54.045749 
L 393.233963 53.656077 
L 395.335287 53.808209 
L 396.385949 53.568 
L 397.436611 53.75216 
L 398.487273 54.107136 
L 398.487273 54.107136 
" style="fill:none;stroke:#1f77b4;stroke-linecap:square;stroke-width:1.5;"/>
   </g>
   <g id="line2d_17">
    <path clip-path="url(#p75df9a9e0d)" d="M 73.832727 285.764866 
L 74.883389 278.318382 
L 75.934051 266.147784 
L 76.984713 260.169244 
L 78.035375 234.493552 
L 79.086037 239.004147 
L 81.187361 217.62553 
L 82.238023 211.78044 
L 83.288685 207.083016 
L 84.339347 244.315438 
L 85.390009 236.335156 
L 86.440671 210.152355 
L 87.491333 227.554176 
L 88.541995 210.526014 
L 89.592657 202.038623 
L 90.643319 204.120436 
L 91.693981 192.670465 
L 92.744643 182.928649 
L 93.795305 175.935893 
L 94.845966 185.811159 
L 95.896628 169.316795 
L 96.94729 172.119236 
L 97.997952 161.256443 
L 99.048614 165.927177 
L 100.099276 155.758322 
L 101.149938 156.26543 
L 102.2006 155.197834 
L 103.251262 154.450516 
L 104.301924 152.955881 
L 105.352586 207.803643 
L 106.403248 190.321753 
L 107.45391 192.697155 
L 108.504572 177.884256 
L 109.555234 176.950109 
L 111.656558 164.886271 
L 112.70722 170.597911 
L 113.757882 162.24397 
L 114.808544 172.252685 
L 115.859206 157.946894 
L 116.909868 169.530315 
L 117.96053 158.640832 
L 119.011192 160.776025 
L 120.061853 155.331283 
L 121.112515 154.530586 
L 122.163177 151.247727 
L 123.213839 152.155184 
L 124.264501 144.014762 
L 125.315163 149.459503 
L 126.365825 151.461247 
L 127.416487 152.822432 
L 128.467149 140.785283 
L 129.517811 138.8903 
L 130.568473 138.570021 
L 131.619135 136.541588 
L 132.669797 140.011276 
L 133.720459 135.714201 
L 134.771121 133.845907 
L 135.821783 135.473991 
L 136.872445 132.698241 
L 137.923107 132.85838 
L 138.973769 133.258729 
L 140.024431 132.591481 
L 141.075093 133.098589 
L 143.176417 132.057683 
L 144.227079 131.817474 
L 145.277741 130.616428 
L 146.328402 131.150226 
L 147.379064 163.605155 
L 148.429726 164.138953 
L 149.480388 155.251214 
L 150.53105 156.051911 
L 151.581712 162.991287 
L 152.632374 164.352472 
L 153.683036 151.701456 
L 154.733698 153.676509 
L 155.78436 156.905988 
L 156.835022 158.026964 
L 157.885684 153.27616 
L 158.936346 158.747592 
L 159.987008 156.905988 
L 161.03767 152.528843 
L 162.088332 149.406124 
L 163.138994 153.30285 
L 164.189656 146.176645 
L 165.240318 149.459503 
L 166.29098 145.082358 
L 167.341642 144.228281 
L 168.392304 143.801243 
L 169.442966 148.391907 
L 170.493628 147.858109 
L 171.544289 144.842149 
L 172.594951 148.552047 
L 173.645613 146.043195 
L 174.696275 145.162428 
L 175.746937 146.416854 
L 176.797599 153.142711 
L 177.848261 148.285147 
L 178.898923 141.906259 
L 179.949585 147.297621 
L 181.000247 143.320824 
L 182.050909 141.212322 
L 183.101571 137.929463 
L 184.152233 142.493437 
L 185.202895 142.226538 
L 186.253557 141.372461 
L 187.304219 140.731903 
L 188.354881 137.102076 
L 190.456205 141.69274 
L 191.506867 134.433085 
L 192.557529 139.904516 
L 193.608191 136.247999 
L 194.658853 137.715944 
L 195.709515 132.724931 
L 196.760177 136.408138 
L 197.810838 137.182145 
L 198.8615 133.632388 
L 199.912162 135.287162 
L 200.962824 131.470505 
L 202.013486 133.178659 
L 203.064148 131.737404 
L 204.11481 131.844164 
L 205.165472 129.015033 
L 206.216134 129.762351 
L 207.266796 129.575522 
L 208.317458 127.360259 
L 209.36812 128.641375 
L 210.418782 128.774824 
L 211.469444 127.867367 
L 212.520106 128.214336 
L 213.570768 125.999074 
L 214.62143 127.03998 
L 215.672092 125.972384 
L 216.722754 127.787298 
L 217.773416 125.331826 
L 218.824078 125.785555 
L 219.87474 125.545345 
L 220.925402 125.545345 
L 221.976064 126.506182 
L 223.026726 125.225066 
L 224.077387 124.904788 
L 225.128049 125.198377 
L 226.178711 124.798028 
L 227.229373 124.824718 
L 228.280035 125.038237 
L 229.330697 124.717958 
L 230.381359 125.331826 
L 231.432021 160.989544 
L 232.482683 158.240483 
L 233.533345 159.735118 
L 234.584007 159.975327 
L 235.634669 161.416582 
L 236.685331 152.875812 
L 237.735993 151.861595 
L 238.786655 153.569749 
L 239.837317 156.29212 
L 240.887979 148.899015 
L 241.938641 159.09456 
L 244.039965 147.911489 
L 245.090627 151.674766 
L 246.141289 152.448773 
L 247.191951 148.738876 
L 248.242613 150.820689 
L 249.293274 143.454274 
L 250.343936 147.804729 
L 251.394598 150.36696 
L 252.44526 155.598182 
L 253.495922 142.386678 
L 254.546584 152.555533 
L 255.597246 151.354487 
L 256.647908 152.101804 
L 257.69857 149.326054 
L 258.749232 147.004032 
L 259.799894 146.283404 
L 260.850556 148.125008 
L 261.901218 147.778039 
L 262.95188 147.137481 
L 264.002542 148.952395 
L 265.053204 145.509397 
L 266.103866 143.267445 
L 267.154528 143.801243 
L 268.20519 141.265701 
L 269.255852 144.922219 
L 270.306514 145.856366 
L 271.357176 143.774553 
L 272.407838 146.069885 
L 273.4585 142.760336 
L 274.509162 144.041452 
L 275.559823 144.57525 
L 276.610485 144.68201 
L 277.661147 145.322568 
L 278.711809 141.505911 
L 279.762471 143.133995 
L 280.813133 144.254971 
L 281.863795 141.372461 
L 282.914457 146.603683 
L 283.965119 144.73539 
L 285.015781 143.908002 
L 286.066443 146.230024 
L 287.117105 142.626887 
L 288.167767 145.109048 
L 289.218429 144.388421 
L 290.269091 146.256714 
L 291.319753 142.039709 
L 292.370415 139.851136 
L 293.421077 141.852879 
L 294.471739 142.787026 
L 295.522401 139.797757 
L 296.573063 142.039709 
L 297.623725 142.466747 
L 298.674387 140.945423 
L 299.725049 140.705213 
L 300.775711 144.041452 
L 302.877034 137.929463 
L 303.927696 141.82619 
L 304.978358 142.760336 
L 306.02902 138.089602 
L 307.079682 140.358245 
L 308.130344 141.532601 
L 309.181006 139.957896 
L 310.231668 138.036223 
L 311.28233 140.811973 
L 312.332992 136.274689 
L 314.434316 136.354758 
L 315.484978 136.995316 
L 316.53564 139.263958 
L 317.586302 136.514898 
L 318.636964 139.771067 
L 319.687626 136.728417 
L 320.738288 139.077129 
L 321.78895 133.819217 
L 322.839612 135.340542 
L 323.890274 136.648347 
L 324.940936 137.422355 
L 325.991598 134.780054 
L 328.092921 136.274689 
L 329.143583 135.340542 
L 330.194245 133.232039 
L 331.244907 133.659078 
L 332.295569 134.673294 
L 333.346231 132.93845 
L 334.396893 135.393922 
L 335.447555 131.577265 
L 336.498217 132.96514 
L 338.599541 130.963397 
L 339.650203 131.070156 
L 340.700865 131.016777 
L 341.751527 131.764094 
L 343.852851 130.482978 
L 344.903513 129.628901 
L 345.954175 129.388692 
L 347.004837 129.735661 
L 348.055499 130.349529 
L 349.106161 129.842421 
L 350.156823 127.760608 
L 351.207485 128.107577 
L 352.258147 131.070156 
L 353.308808 127.01329 
L 354.35947 128.107577 
L 355.410132 127.09336 
L 356.460794 128.187646 
L 357.511456 127.920747 
L 358.562118 127.06667 
L 359.61278 126.746391 
L 360.663442 125.785555 
L 361.714104 126.559562 
L 362.764766 124.798028 
L 363.815428 127.440329 
L 365.916752 124.851408 
L 366.967414 125.331826 
L 369.068738 125.758865 
L 370.1194 124.531129 
L 371.170062 124.798028 
L 372.220724 123.730432 
L 374.322048 125.305136 
L 376.423372 125.491966 
L 377.474034 125.011547 
L 378.524695 124.21085 
L 380.626019 123.650362 
L 381.676681 124.23754 
L 382.727343 124.10409 
L 383.778005 123.250013 
L 384.828667 123.463532 
L 385.879329 123.436843 
L 386.929991 123.783811 
L 389.031315 123.783811 
L 391.132639 123.276703 
L 392.183301 123.570292 
L 393.233963 123.490222 
L 394.284625 123.116564 
L 395.335287 123.250013 
L 396.385949 123.516912 
L 397.436611 123.570292 
L 398.487273 123.330083 
L 398.487273 123.330083 
" style="fill:none;stroke:#ff7f0e;stroke-linecap:square;stroke-width:1.5;"/>
   </g>
   <g id="patch_3">
    <path d="M 57.6 307.584 
L 57.6 41.472 
" style="fill:none;stroke:#000000;stroke-linecap:square;stroke-linejoin:miter;stroke-width:0.8;"/>
   </g>
   <g id="patch_4">
    <path d="M 414.72 307.584 
L 414.72 41.472 
" style="fill:none;stroke:#000000;stroke-linecap:square;stroke-linejoin:miter;stroke-width:0.8;"/>
   </g>
   <g id="patch_5">
    <path d="M 57.6 307.584 
L 414.72 307.584 
" style="fill:none;stroke:#000000;stroke-linecap:square;stroke-linejoin:miter;stroke-width:0.8;"/>
   </g>
   <g id="patch_6">
    <path d="M 57.6 41.472 
L 414.72 41.472 
" style="fill:none;stroke:#000000;stroke-linecap:square;stroke-linejoin:miter;stroke-width:0.8;"/>
   </g>
   <g id="text_18">
    <!-- Training and Validation Accuracy -->
    <g transform="translate(138.4575 35.472)scale(0.12 -0.12)">
     <defs>
      <path d="M -19 4666 
L 3928 4666 
L 3928 4134 
L 2272 4134 
L 2272 0 
L 1638 0 
L 1638 4134 
L -19 4134 
L -19 4666 
z
" id="DejaVuSans-54" transform="scale(0.015625)"/>
      <path d="M 603 3500 
L 1178 3500 
L 1178 0 
L 603 0 
L 603 3500 
z
M 603 4863 
L 1178 4863 
L 1178 4134 
L 603 4134 
L 603 4863 
z
" id="DejaVuSans-69" transform="scale(0.015625)"/>
      <path d="M 3513 2113 
L 3513 0 
L 2938 0 
L 2938 2094 
Q 2938 2591 2744 2837 
Q 2550 3084 2163 3084 
Q 1697 3084 1428 2787 
Q 1159 2491 1159 1978 
L 1159 0 
L 581 0 
L 581 3500 
L 1159 3500 
L 1159 2956 
Q 1366 3272 1645 3428 
Q 1925 3584 2291 3584 
Q 2894 3584 3203 3211 
Q 3513 2838 3513 2113 
z
" id="DejaVuSans-6e" transform="scale(0.015625)"/>
      <path d="M 2906 1791 
Q 2906 2416 2648 2759 
Q 2391 3103 1925 3103 
Q 1463 3103 1205 2759 
Q 947 2416 947 1791 
Q 947 1169 1205 825 
Q 1463 481 1925 481 
Q 2391 481 2648 825 
Q 2906 1169 2906 1791 
z
M 3481 434 
Q 3481 -459 3084 -895 
Q 2688 -1331 1869 -1331 
Q 1566 -1331 1297 -1286 
Q 1028 -1241 775 -1147 
L 775 -588 
Q 1028 -725 1275 -790 
Q 1522 -856 1778 -856 
Q 2344 -856 2625 -561 
Q 2906 -266 2906 331 
L 2906 616 
Q 2728 306 2450 153 
Q 2172 0 1784 0 
Q 1141 0 747 490 
Q 353 981 353 1791 
Q 353 2603 747 3093 
Q 1141 3584 1784 3584 
Q 2172 3584 2450 3431 
Q 2728 3278 2906 2969 
L 2906 3500 
L 3481 3500 
L 3481 434 
z
" id="DejaVuSans-67" transform="scale(0.015625)"/>
      <path id="DejaVuSans-20" transform="scale(0.015625)"/>
      <path d="M 2906 2969 
L 2906 4863 
L 3481 4863 
L 3481 0 
L 2906 0 
L 2906 525 
Q 2725 213 2448 61 
Q 2172 -91 1784 -91 
Q 1150 -91 751 415 
Q 353 922 353 1747 
Q 353 2572 751 3078 
Q 1150 3584 1784 3584 
Q 2172 3584 2448 3432 
Q 2725 3281 2906 2969 
z
M 947 1747 
Q 947 1113 1208 752 
Q 1469 391 1925 391 
Q 2381 391 2643 752 
Q 2906 1113 2906 1747 
Q 2906 2381 2643 2742 
Q 2381 3103 1925 3103 
Q 1469 3103 1208 2742 
Q 947 2381 947 1747 
z
" id="DejaVuSans-64" transform="scale(0.015625)"/>
      <path d="M 1831 0 
L 50 4666 
L 709 4666 
L 2188 738 
L 3669 4666 
L 4325 4666 
L 2547 0 
L 1831 0 
z
" id="DejaVuSans-56" transform="scale(0.015625)"/>
      <path d="M 603 4863 
L 1178 4863 
L 1178 0 
L 603 0 
L 603 4863 
z
" id="DejaVuSans-6c" transform="scale(0.015625)"/>
      <path d="M 1172 4494 
L 1172 3500 
L 2356 3500 
L 2356 3053 
L 1172 3053 
L 1172 1153 
Q 1172 725 1289 603 
Q 1406 481 1766 481 
L 2356 481 
L 2356 0 
L 1766 0 
Q 1100 0 847 248 
Q 594 497 594 1153 
L 594 3053 
L 172 3053 
L 172 3500 
L 594 3500 
L 594 4494 
L 1172 4494 
z
" id="DejaVuSans-74" transform="scale(0.015625)"/>
     </defs>
     <use xlink:href="#DejaVuSans-54"/>
     <use x="46.333984" xlink:href="#DejaVuSans-72"/>
     <use x="87.447266" xlink:href="#DejaVuSans-61"/>
     <use x="148.726562" xlink:href="#DejaVuSans-69"/>
     <use x="176.509766" xlink:href="#DejaVuSans-6e"/>
     <use x="239.888672" xlink:href="#DejaVuSans-69"/>
     <use x="267.671875" xlink:href="#DejaVuSans-6e"/>
     <use x="331.050781" xlink:href="#DejaVuSans-67"/>
     <use x="394.527344" xlink:href="#DejaVuSans-20"/>
     <use x="426.314453" xlink:href="#DejaVuSans-61"/>
     <use x="487.59375" xlink:href="#DejaVuSans-6e"/>
     <use x="550.972656" xlink:href="#DejaVuSans-64"/>
     <use x="614.449219" xlink:href="#DejaVuSans-20"/>
     <use x="646.236328" xlink:href="#DejaVuSans-56"/>
     <use x="706.894531" xlink:href="#DejaVuSans-61"/>
     <use x="768.173828" xlink:href="#DejaVuSans-6c"/>
     <use x="795.957031" xlink:href="#DejaVuSans-69"/>
     <use x="823.740234" xlink:href="#DejaVuSans-64"/>
     <use x="887.216797" xlink:href="#DejaVuSans-61"/>
     <use x="948.496094" xlink:href="#DejaVuSans-74"/>
     <use x="987.705078" xlink:href="#DejaVuSans-69"/>
     <use x="1015.488281" xlink:href="#DejaVuSans-6f"/>
     <use x="1076.669922" xlink:href="#DejaVuSans-6e"/>
     <use x="1140.048828" xlink:href="#DejaVuSans-20"/>
     <use x="1171.835938" xlink:href="#DejaVuSans-41"/>
     <use x="1238.494141" xlink:href="#DejaVuSans-63"/>
     <use x="1293.474609" xlink:href="#DejaVuSans-63"/>
     <use x="1348.455078" xlink:href="#DejaVuSans-75"/>
     <use x="1411.833984" xlink:href="#DejaVuSans-72"/>
     <use x="1452.947266" xlink:href="#DejaVuSans-61"/>
     <use x="1514.226562" xlink:href="#DejaVuSans-63"/>
     <use x="1569.207031" xlink:href="#DejaVuSans-79"/>
    </g>
   </g>
   <g id="legend_1">
    <g id="patch_7">
     <path d="M 64.6 78.82825 
L 194.815625 78.82825 
Q 196.815625 78.82825 196.815625 76.82825 
L 196.815625 48.472 
Q 196.815625 46.472 194.815625 46.472 
L 64.6 46.472 
Q 62.6 46.472 62.6 48.472 
L 62.6 76.82825 
Q 62.6 78.82825 64.6 78.82825 
z
" style="fill:#ffffff;opacity:0.8;stroke:#cccccc;stroke-linejoin:miter;"/>
    </g>
    <g id="line2d_18">
     <path d="M 66.6 54.570437 
L 86.6 54.570437 
" style="fill:none;stroke:#1f77b4;stroke-linecap:square;stroke-width:1.5;"/>
    </g>
    <g id="line2d_19"/>
    <g id="text_19">
     <!-- Train Accuracy -->
     <g transform="translate(94.6 58.070437)scale(0.1 -0.1)">
      <use xlink:href="#DejaVuSans-54"/>
      <use x="46.333984" xlink:href="#DejaVuSans-72"/>
      <use x="87.447266" xlink:href="#DejaVuSans-61"/>
      <use x="148.726562" xlink:href="#DejaVuSans-69"/>
      <use x="176.509766" xlink:href="#DejaVuSans-6e"/>
      <use x="239.888672" xlink:href="#DejaVuSans-20"/>
      <use x="271.675781" xlink:href="#DejaVuSans-41"/>
      <use x="338.333984" xlink:href="#DejaVuSans-63"/>
      <use x="393.314453" xlink:href="#DejaVuSans-63"/>
      <use x="448.294922" xlink:href="#DejaVuSans-75"/>
      <use x="511.673828" xlink:href="#DejaVuSans-72"/>
      <use x="552.787109" xlink:href="#DejaVuSans-61"/>
      <use x="614.066406" xlink:href="#DejaVuSans-63"/>
      <use x="669.046875" xlink:href="#DejaVuSans-79"/>
     </g>
    </g>
    <g id="line2d_20">
     <path d="M 66.6 69.248562 
L 86.6 69.248562 
" style="fill:none;stroke:#ff7f0e;stroke-linecap:square;stroke-width:1.5;"/>
    </g>
    <g id="line2d_21"/>
    <g id="text_20">
     <!-- Validation Accuracy -->
     <g transform="translate(94.6 72.748562)scale(0.1 -0.1)">
      <use xlink:href="#DejaVuSans-56"/>
      <use x="60.658203" xlink:href="#DejaVuSans-61"/>
      <use x="121.9375" xlink:href="#DejaVuSans-6c"/>
      <use x="149.720703" xlink:href="#DejaVuSans-69"/>
      <use x="177.503906" xlink:href="#DejaVuSans-64"/>
      <use x="240.980469" xlink:href="#DejaVuSans-61"/>
      <use x="302.259766" xlink:href="#DejaVuSans-74"/>
      <use x="341.46875" xlink:href="#DejaVuSans-69"/>
      <use x="369.251953" xlink:href="#DejaVuSans-6f"/>
      <use x="430.433594" xlink:href="#DejaVuSans-6e"/>
      <use x="493.8125" xlink:href="#DejaVuSans-20"/>
      <use x="525.599609" xlink:href="#DejaVuSans-41"/>
      <use x="592.257812" xlink:href="#DejaVuSans-63"/>
      <use x="647.238281" xlink:href="#DejaVuSans-63"/>
      <use x="702.21875" xlink:href="#DejaVuSans-75"/>
      <use x="765.597656" xlink:href="#DejaVuSans-72"/>
      <use x="806.710938" xlink:href="#DejaVuSans-61"/>
      <use x="867.990234" xlink:href="#DejaVuSans-63"/>
      <use x="922.970703" xlink:href="#DejaVuSans-79"/>
     </g>
    </g>
   </g>
  </g>
 </g>
 <defs>
  <clipPath id="p75df9a9e0d">
   <rect height="266.112" width="357.12" x="57.6" y="41.472"/>
  </clipPath>
 </defs>
</svg>
