<?xml version="1.0" encoding="utf-8" standalone="no"?>
<!DOCTYPE svg PUBLIC "-//W3C//DTD SVG 1.1//EN"
  "http://www.w3.org/Graphics/SVG/1.1/DTD/svg11.dtd">
<svg height="345.6pt" version="1.1" viewBox="0 0 460.8 345.6" width="460.8pt" xmlns="http://www.w3.org/2000/svg" xmlns:xlink="http://www.w3.org/1999/xlink">
 <metadata>
  <rdf:RDF xmlns:cc="http://creativecommons.org/ns#" xmlns:dc="http://purl.org/dc/elements/1.1/" xmlns:rdf="http://www.w3.org/1999/02/22-rdf-syntax-ns#">
   <cc:Work>
    <dc:type rdf:resource="http://purl.org/dc/dcmitype/StillImage"/>
    <dc:date>2023-09-06T03:30:32.979762</dc:date>
    <dc:format>image/svg+xml</dc:format>
    <dc:creator>
     <cc:Agent>
      <dc:title>Matplotlib v3.4.3, https://matplotlib.org/</dc:title>
     </cc:Agent>
    </dc:creator>
   </cc:Work>
  </rdf:RDF>
 </metadata>
 <defs>
  <style type="text/css">*{stroke-linecap:butt;stroke-linejoin:round;}</style>
 </defs>
 <g id="figure_1">
  <g id="patch_1">
   <path d="M 0 345.6 
L 460.8 345.6 
L 460.8 0 
L 0 0 
z
" style="fill:#ffffff;"/>
  </g>
  <g id="axes_1">
   <g id="patch_2">
    <path d="M 57.6 307.584 
L 414.72 307.584 
L 414.72 41.472 
L 57.6 41.472 
z
" style="fill:#ffffff;"/>
   </g>
   <g id="matplotlib.axis_1">
    <g id="xtick_1">
     <g id="line2d_1">
      <defs>
       <path d="M 0 0 
L 0 3.5 
" id="ma6c97b64b2" style="stroke:#000000;stroke-width:0.8;"/>
      </defs>
      <g>
       <use style="stroke:#000000;stroke-width:0.8;" x="73.832727" xlink:href="#ma6c97b64b2" y="307.584"/>
      </g>
     </g>
     <g id="text_1">
      <!-- 1 -->
      <g transform="translate(70.651477 322.182437)scale(0.1 -0.1)">
       <defs>
        <path d="M 794 531 
L 1825 531 
L 1825 4091 
L 703 3866 
L 703 4441 
L 1819 4666 
L 2450 4666 
L 2450 531 
L 3481 531 
L 3481 0 
L 794 0 
L 794 531 
z
" id="DejaVuSans-31" transform="scale(0.015625)"/>
       </defs>
       <use xlink:href="#DejaVuSans-31"/>
      </g>
     </g>
    </g>
    <g id="xtick_2">
     <g id="line2d_2">
      <g>
       <use style="stroke:#000000;stroke-width:0.8;" x="109.710992" xlink:href="#ma6c97b64b2" y="307.584"/>
      </g>
     </g>
     <g id="text_2">
      <!-- 42 -->
      <g transform="translate(103.348492 322.182437)scale(0.1 -0.1)">
       <defs>
        <path d="M 2419 4116 
L 825 1625 
L 2419 1625 
L 2419 4116 
z
M 2253 4666 
L 3047 4666 
L 3047 1625 
L 3713 1625 
L 3713 1100 
L 3047 1100 
L 3047 0 
L 2419 0 
L 2419 1100 
L 313 1100 
L 313 1709 
L 2253 4666 
z
" id="DejaVuSans-34" transform="scale(0.015625)"/>
        <path d="M 1228 531 
L 3431 531 
L 3431 0 
L 469 0 
L 469 531 
Q 828 903 1448 1529 
Q 2069 2156 2228 2338 
Q 2531 2678 2651 2914 
Q 2772 3150 2772 3378 
Q 2772 3750 2511 3984 
Q 2250 4219 1831 4219 
Q 1534 4219 1204 4116 
Q 875 4013 500 3803 
L 500 4441 
Q 881 4594 1212 4672 
Q 1544 4750 1819 4750 
Q 2544 4750 2975 4387 
Q 3406 4025 3406 3419 
Q 3406 3131 3298 2873 
Q 3191 2616 2906 2266 
Q 2828 2175 2409 1742 
Q 1991 1309 1228 531 
z
" id="DejaVuSans-32" transform="scale(0.015625)"/>
       </defs>
       <use xlink:href="#DejaVuSans-34"/>
       <use x="63.623047" xlink:href="#DejaVuSans-32"/>
      </g>
     </g>
    </g>
    <g id="xtick_3">
     <g id="line2d_3">
      <g>
       <use style="stroke:#000000;stroke-width:0.8;" x="145.589258" xlink:href="#ma6c97b64b2" y="307.584"/>
      </g>
     </g>
     <g id="text_3">
      <!-- 83 -->
      <g transform="translate(139.226758 322.182437)scale(0.1 -0.1)">
       <defs>
        <path d="M 2034 2216 
Q 1584 2216 1326 1975 
Q 1069 1734 1069 1313 
Q 1069 891 1326 650 
Q 1584 409 2034 409 
Q 2484 409 2743 651 
Q 3003 894 3003 1313 
Q 3003 1734 2745 1975 
Q 2488 2216 2034 2216 
z
M 1403 2484 
Q 997 2584 770 2862 
Q 544 3141 544 3541 
Q 544 4100 942 4425 
Q 1341 4750 2034 4750 
Q 2731 4750 3128 4425 
Q 3525 4100 3525 3541 
Q 3525 3141 3298 2862 
Q 3072 2584 2669 2484 
Q 3125 2378 3379 2068 
Q 3634 1759 3634 1313 
Q 3634 634 3220 271 
Q 2806 -91 2034 -91 
Q 1263 -91 848 271 
Q 434 634 434 1313 
Q 434 1759 690 2068 
Q 947 2378 1403 2484 
z
M 1172 3481 
Q 1172 3119 1398 2916 
Q 1625 2713 2034 2713 
Q 2441 2713 2670 2916 
Q 2900 3119 2900 3481 
Q 2900 3844 2670 4047 
Q 2441 4250 2034 4250 
Q 1625 4250 1398 4047 
Q 1172 3844 1172 3481 
z
" id="DejaVuSans-38" transform="scale(0.015625)"/>
        <path d="M 2597 2516 
Q 3050 2419 3304 2112 
Q 3559 1806 3559 1356 
Q 3559 666 3084 287 
Q 2609 -91 1734 -91 
Q 1441 -91 1130 -33 
Q 819 25 488 141 
L 488 750 
Q 750 597 1062 519 
Q 1375 441 1716 441 
Q 2309 441 2620 675 
Q 2931 909 2931 1356 
Q 2931 1769 2642 2001 
Q 2353 2234 1838 2234 
L 1294 2234 
L 1294 2753 
L 1863 2753 
Q 2328 2753 2575 2939 
Q 2822 3125 2822 3475 
Q 2822 3834 2567 4026 
Q 2313 4219 1838 4219 
Q 1578 4219 1281 4162 
Q 984 4106 628 3988 
L 628 4550 
Q 988 4650 1302 4700 
Q 1616 4750 1894 4750 
Q 2613 4750 3031 4423 
Q 3450 4097 3450 3541 
Q 3450 3153 3228 2886 
Q 3006 2619 2597 2516 
z
" id="DejaVuSans-33" transform="scale(0.015625)"/>
       </defs>
       <use xlink:href="#DejaVuSans-38"/>
       <use x="63.623047" xlink:href="#DejaVuSans-33"/>
      </g>
     </g>
    </g>
    <g id="xtick_4">
     <g id="line2d_4">
      <g>
       <use style="stroke:#000000;stroke-width:0.8;" x="181.467523" xlink:href="#ma6c97b64b2" y="307.584"/>
      </g>
     </g>
     <g id="text_4">
      <!-- 124 -->
      <g transform="translate(171.923773 322.182437)scale(0.1 -0.1)">
       <use xlink:href="#DejaVuSans-31"/>
       <use x="63.623047" xlink:href="#DejaVuSans-32"/>
       <use x="127.246094" xlink:href="#DejaVuSans-34"/>
      </g>
     </g>
    </g>
    <g id="xtick_5">
     <g id="line2d_5">
      <g>
       <use style="stroke:#000000;stroke-width:0.8;" x="217.345788" xlink:href="#ma6c97b64b2" y="307.584"/>
      </g>
     </g>
     <g id="text_5">
      <!-- 165 -->
      <g transform="translate(207.802038 322.182437)scale(0.1 -0.1)">
       <defs>
        <path d="M 2113 2584 
Q 1688 2584 1439 2293 
Q 1191 2003 1191 1497 
Q 1191 994 1439 701 
Q 1688 409 2113 409 
Q 2538 409 2786 701 
Q 3034 994 3034 1497 
Q 3034 2003 2786 2293 
Q 2538 2584 2113 2584 
z
M 3366 4563 
L 3366 3988 
Q 3128 4100 2886 4159 
Q 2644 4219 2406 4219 
Q 1781 4219 1451 3797 
Q 1122 3375 1075 2522 
Q 1259 2794 1537 2939 
Q 1816 3084 2150 3084 
Q 2853 3084 3261 2657 
Q 3669 2231 3669 1497 
Q 3669 778 3244 343 
Q 2819 -91 2113 -91 
Q 1303 -91 875 529 
Q 447 1150 447 2328 
Q 447 3434 972 4092 
Q 1497 4750 2381 4750 
Q 2619 4750 2861 4703 
Q 3103 4656 3366 4563 
z
" id="DejaVuSans-36" transform="scale(0.015625)"/>
        <path d="M 691 4666 
L 3169 4666 
L 3169 4134 
L 1269 4134 
L 1269 2991 
Q 1406 3038 1543 3061 
Q 1681 3084 1819 3084 
Q 2600 3084 3056 2656 
Q 3513 2228 3513 1497 
Q 3513 744 3044 326 
Q 2575 -91 1722 -91 
Q 1428 -91 1123 -41 
Q 819 9 494 109 
L 494 744 
Q 775 591 1075 516 
Q 1375 441 1709 441 
Q 2250 441 2565 725 
Q 2881 1009 2881 1497 
Q 2881 1984 2565 2268 
Q 2250 2553 1709 2553 
Q 1456 2553 1204 2497 
Q 953 2441 691 2322 
L 691 4666 
z
" id="DejaVuSans-35" transform="scale(0.015625)"/>
       </defs>
       <use xlink:href="#DejaVuSans-31"/>
       <use x="63.623047" xlink:href="#DejaVuSans-36"/>
       <use x="127.246094" xlink:href="#DejaVuSans-35"/>
      </g>
     </g>
    </g>
    <g id="xtick_6">
     <g id="line2d_6">
      <g>
       <use style="stroke:#000000;stroke-width:0.8;" x="254.099133" xlink:href="#ma6c97b64b2" y="307.584"/>
      </g>
     </g>
     <g id="text_6">
      <!-- 207 -->
      <g transform="translate(244.555383 322.182437)scale(0.1 -0.1)">
       <defs>
        <path d="M 2034 4250 
Q 1547 4250 1301 3770 
Q 1056 3291 1056 2328 
Q 1056 1369 1301 889 
Q 1547 409 2034 409 
Q 2525 409 2770 889 
Q 3016 1369 3016 2328 
Q 3016 3291 2770 3770 
Q 2525 4250 2034 4250 
z
M 2034 4750 
Q 2819 4750 3233 4129 
Q 3647 3509 3647 2328 
Q 3647 1150 3233 529 
Q 2819 -91 2034 -91 
Q 1250 -91 836 529 
Q 422 1150 422 2328 
Q 422 3509 836 4129 
Q 1250 4750 2034 4750 
z
" id="DejaVuSans-30" transform="scale(0.015625)"/>
        <path d="M 525 4666 
L 3525 4666 
L 3525 4397 
L 1831 0 
L 1172 0 
L 2766 4134 
L 525 4134 
L 525 4666 
z
" id="DejaVuSans-37" transform="scale(0.015625)"/>
       </defs>
       <use xlink:href="#DejaVuSans-32"/>
       <use x="63.623047" xlink:href="#DejaVuSans-30"/>
       <use x="127.246094" xlink:href="#DejaVuSans-37"/>
      </g>
     </g>
    </g>
    <g id="xtick_7">
     <g id="line2d_7">
      <g>
       <use style="stroke:#000000;stroke-width:0.8;" x="289.977398" xlink:href="#ma6c97b64b2" y="307.584"/>
      </g>
     </g>
     <g id="text_7">
      <!-- 248 -->
      <g transform="translate(280.433648 322.182437)scale(0.1 -0.1)">
       <use xlink:href="#DejaVuSans-32"/>
       <use x="63.623047" xlink:href="#DejaVuSans-34"/>
       <use x="127.246094" xlink:href="#DejaVuSans-38"/>
      </g>
     </g>
    </g>
    <g id="xtick_8">
     <g id="line2d_8">
      <g>
       <use style="stroke:#000000;stroke-width:0.8;" x="325.855663" xlink:href="#ma6c97b64b2" y="307.584"/>
      </g>
     </g>
     <g id="text_8">
      <!-- 289 -->
      <g transform="translate(316.311913 322.182437)scale(0.1 -0.1)">
       <defs>
        <path d="M 703 97 
L 703 672 
Q 941 559 1184 500 
Q 1428 441 1663 441 
Q 2288 441 2617 861 
Q 2947 1281 2994 2138 
Q 2813 1869 2534 1725 
Q 2256 1581 1919 1581 
Q 1219 1581 811 2004 
Q 403 2428 403 3163 
Q 403 3881 828 4315 
Q 1253 4750 1959 4750 
Q 2769 4750 3195 4129 
Q 3622 3509 3622 2328 
Q 3622 1225 3098 567 
Q 2575 -91 1691 -91 
Q 1453 -91 1209 -44 
Q 966 3 703 97 
z
M 1959 2075 
Q 2384 2075 2632 2365 
Q 2881 2656 2881 3163 
Q 2881 3666 2632 3958 
Q 2384 4250 1959 4250 
Q 1534 4250 1286 3958 
Q 1038 3666 1038 3163 
Q 1038 2656 1286 2365 
Q 1534 2075 1959 2075 
z
" id="DejaVuSans-39" transform="scale(0.015625)"/>
       </defs>
       <use xlink:href="#DejaVuSans-32"/>
       <use x="63.623047" xlink:href="#DejaVuSans-38"/>
       <use x="127.246094" xlink:href="#DejaVuSans-39"/>
      </g>
     </g>
    </g>
    <g id="xtick_9">
     <g id="line2d_9">
      <g>
       <use style="stroke:#000000;stroke-width:0.8;" x="361.733928" xlink:href="#ma6c97b64b2" y="307.584"/>
      </g>
     </g>
     <g id="text_9">
      <!-- 330 -->
      <g transform="translate(352.190178 322.182437)scale(0.1 -0.1)">
       <use xlink:href="#DejaVuSans-33"/>
       <use x="63.623047" xlink:href="#DejaVuSans-33"/>
       <use x="127.246094" xlink:href="#DejaVuSans-30"/>
      </g>
     </g>
    </g>
    <g id="xtick_10">
     <g id="line2d_10">
      <g>
       <use style="stroke:#000000;stroke-width:0.8;" x="398.487273" xlink:href="#ma6c97b64b2" y="307.584"/>
      </g>
     </g>
     <g id="text_10">
      <!-- 372 -->
      <g transform="translate(388.943523 322.182437)scale(0.1 -0.1)">
       <use xlink:href="#DejaVuSans-33"/>
       <use x="63.623047" xlink:href="#DejaVuSans-37"/>
       <use x="127.246094" xlink:href="#DejaVuSans-32"/>
      </g>
     </g>
    </g>
    <g id="text_11">
     <!-- Epochs -->
     <g transform="translate(218.244375 335.860562)scale(0.1 -0.1)">
      <defs>
       <path d="M 628 4666 
L 3578 4666 
L 3578 4134 
L 1259 4134 
L 1259 2753 
L 3481 2753 
L 3481 2222 
L 1259 2222 
L 1259 531 
L 3634 531 
L 3634 0 
L 628 0 
L 628 4666 
z
" id="DejaVuSans-45" transform="scale(0.015625)"/>
       <path d="M 1159 525 
L 1159 -1331 
L 581 -1331 
L 581 3500 
L 1159 3500 
L 1159 2969 
Q 1341 3281 1617 3432 
Q 1894 3584 2278 3584 
Q 2916 3584 3314 3078 
Q 3713 2572 3713 1747 
Q 3713 922 3314 415 
Q 2916 -91 2278 -91 
Q 1894 -91 1617 61 
Q 1341 213 1159 525 
z
M 3116 1747 
Q 3116 2381 2855 2742 
Q 2594 3103 2138 3103 
Q 1681 3103 1420 2742 
Q 1159 2381 1159 1747 
Q 1159 1113 1420 752 
Q 1681 391 2138 391 
Q 2594 391 2855 752 
Q 3116 1113 3116 1747 
z
" id="DejaVuSans-70" transform="scale(0.015625)"/>
       <path d="M 1959 3097 
Q 1497 3097 1228 2736 
Q 959 2375 959 1747 
Q 959 1119 1226 758 
Q 1494 397 1959 397 
Q 2419 397 2687 759 
Q 2956 1122 2956 1747 
Q 2956 2369 2687 2733 
Q 2419 3097 1959 3097 
z
M 1959 3584 
Q 2709 3584 3137 3096 
Q 3566 2609 3566 1747 
Q 3566 888 3137 398 
Q 2709 -91 1959 -91 
Q 1206 -91 779 398 
Q 353 888 353 1747 
Q 353 2609 779 3096 
Q 1206 3584 1959 3584 
z
" id="DejaVuSans-6f" transform="scale(0.015625)"/>
       <path d="M 3122 3366 
L 3122 2828 
Q 2878 2963 2633 3030 
Q 2388 3097 2138 3097 
Q 1578 3097 1268 2742 
Q 959 2388 959 1747 
Q 959 1106 1268 751 
Q 1578 397 2138 397 
Q 2388 397 2633 464 
Q 2878 531 3122 666 
L 3122 134 
Q 2881 22 2623 -34 
Q 2366 -91 2075 -91 
Q 1284 -91 818 406 
Q 353 903 353 1747 
Q 353 2603 823 3093 
Q 1294 3584 2113 3584 
Q 2378 3584 2631 3529 
Q 2884 3475 3122 3366 
z
" id="DejaVuSans-63" transform="scale(0.015625)"/>
       <path d="M 3513 2113 
L 3513 0 
L 2938 0 
L 2938 2094 
Q 2938 2591 2744 2837 
Q 2550 3084 2163 3084 
Q 1697 3084 1428 2787 
Q 1159 2491 1159 1978 
L 1159 0 
L 581 0 
L 581 4863 
L 1159 4863 
L 1159 2956 
Q 1366 3272 1645 3428 
Q 1925 3584 2291 3584 
Q 2894 3584 3203 3211 
Q 3513 2838 3513 2113 
z
" id="DejaVuSans-68" transform="scale(0.015625)"/>
       <path d="M 2834 3397 
L 2834 2853 
Q 2591 2978 2328 3040 
Q 2066 3103 1784 3103 
Q 1356 3103 1142 2972 
Q 928 2841 928 2578 
Q 928 2378 1081 2264 
Q 1234 2150 1697 2047 
L 1894 2003 
Q 2506 1872 2764 1633 
Q 3022 1394 3022 966 
Q 3022 478 2636 193 
Q 2250 -91 1575 -91 
Q 1294 -91 989 -36 
Q 684 19 347 128 
L 347 722 
Q 666 556 975 473 
Q 1284 391 1588 391 
Q 1994 391 2212 530 
Q 2431 669 2431 922 
Q 2431 1156 2273 1281 
Q 2116 1406 1581 1522 
L 1381 1569 
Q 847 1681 609 1914 
Q 372 2147 372 2553 
Q 372 3047 722 3315 
Q 1072 3584 1716 3584 
Q 2034 3584 2315 3537 
Q 2597 3491 2834 3397 
z
" id="DejaVuSans-73" transform="scale(0.015625)"/>
      </defs>
      <use xlink:href="#DejaVuSans-45"/>
      <use x="63.183594" xlink:href="#DejaVuSans-70"/>
      <use x="126.660156" xlink:href="#DejaVuSans-6f"/>
      <use x="187.841797" xlink:href="#DejaVuSans-63"/>
      <use x="242.822266" xlink:href="#DejaVuSans-68"/>
      <use x="306.201172" xlink:href="#DejaVuSans-73"/>
     </g>
    </g>
   </g>
   <g id="matplotlib.axis_2">
    <g id="ytick_1">
     <g id="line2d_11">
      <defs>
       <path d="M 0 0 
L -3.5 0 
" id="mb87e874ba8" style="stroke:#000000;stroke-width:0.8;"/>
      </defs>
      <g>
       <use style="stroke:#000000;stroke-width:0.8;" x="57.6" xlink:href="#mb87e874ba8" y="305.411856"/>
      </g>
     </g>
     <g id="text_12">
      <!-- 0 -->
      <g transform="translate(44.2375 309.211075)scale(0.1 -0.1)">
       <use xlink:href="#DejaVuSans-30"/>
      </g>
     </g>
    </g>
    <g id="ytick_2">
     <g id="line2d_12">
      <g>
       <use style="stroke:#000000;stroke-width:0.8;" x="57.6" xlink:href="#mb87e874ba8" y="246.812174"/>
      </g>
     </g>
     <g id="text_13">
      <!-- 20 -->
      <g transform="translate(37.875 250.611392)scale(0.1 -0.1)">
       <use xlink:href="#DejaVuSans-32"/>
       <use x="63.623047" xlink:href="#DejaVuSans-30"/>
      </g>
     </g>
    </g>
    <g id="ytick_3">
     <g id="line2d_13">
      <g>
       <use style="stroke:#000000;stroke-width:0.8;" x="57.6" xlink:href="#mb87e874ba8" y="188.212491"/>
      </g>
     </g>
     <g id="text_14">
      <!-- 40 -->
      <g transform="translate(37.875 192.01171)scale(0.1 -0.1)">
       <use xlink:href="#DejaVuSans-34"/>
       <use x="63.623047" xlink:href="#DejaVuSans-30"/>
      </g>
     </g>
    </g>
    <g id="ytick_4">
     <g id="line2d_14">
      <g>
       <use style="stroke:#000000;stroke-width:0.8;" x="57.6" xlink:href="#mb87e874ba8" y="129.612808"/>
      </g>
     </g>
     <g id="text_15">
      <!-- 60 -->
      <g transform="translate(37.875 133.412027)scale(0.1 -0.1)">
       <use xlink:href="#DejaVuSans-36"/>
       <use x="63.623047" xlink:href="#DejaVuSans-30"/>
      </g>
     </g>
    </g>
    <g id="ytick_5">
     <g id="line2d_15">
      <g>
       <use style="stroke:#000000;stroke-width:0.8;" x="57.6" xlink:href="#mb87e874ba8" y="71.013126"/>
      </g>
     </g>
     <g id="text_16">
      <!-- 80 -->
      <g transform="translate(37.875 74.812344)scale(0.1 -0.1)">
       <use xlink:href="#DejaVuSans-38"/>
       <use x="63.623047" xlink:href="#DejaVuSans-30"/>
      </g>
     </g>
    </g>
    <g id="text_17">
     <!-- Accuracy -->
     <g transform="translate(31.795312 197.356125)rotate(-90)scale(0.1 -0.1)">
      <defs>
       <path d="M 2188 4044 
L 1331 1722 
L 3047 1722 
L 2188 4044 
z
M 1831 4666 
L 2547 4666 
L 4325 0 
L 3669 0 
L 3244 1197 
L 1141 1197 
L 716 0 
L 50 0 
L 1831 4666 
z
" id="DejaVuSans-41" transform="scale(0.015625)"/>
       <path d="M 544 1381 
L 544 3500 
L 1119 3500 
L 1119 1403 
Q 1119 906 1312 657 
Q 1506 409 1894 409 
Q 2359 409 2629 706 
Q 2900 1003 2900 1516 
L 2900 3500 
L 3475 3500 
L 3475 0 
L 2900 0 
L 2900 538 
Q 2691 219 2414 64 
Q 2138 -91 1772 -91 
Q 1169 -91 856 284 
Q 544 659 544 1381 
z
M 1991 3584 
L 1991 3584 
z
" id="DejaVuSans-75" transform="scale(0.015625)"/>
       <path d="M 2631 2963 
Q 2534 3019 2420 3045 
Q 2306 3072 2169 3072 
Q 1681 3072 1420 2755 
Q 1159 2438 1159 1844 
L 1159 0 
L 581 0 
L 581 3500 
L 1159 3500 
L 1159 2956 
Q 1341 3275 1631 3429 
Q 1922 3584 2338 3584 
Q 2397 3584 2469 3576 
Q 2541 3569 2628 3553 
L 2631 2963 
z
" id="DejaVuSans-72" transform="scale(0.015625)"/>
       <path d="M 2194 1759 
Q 1497 1759 1228 1600 
Q 959 1441 959 1056 
Q 959 750 1161 570 
Q 1363 391 1709 391 
Q 2188 391 2477 730 
Q 2766 1069 2766 1631 
L 2766 1759 
L 2194 1759 
z
M 3341 1997 
L 3341 0 
L 2766 0 
L 2766 531 
Q 2569 213 2275 61 
Q 1981 -91 1556 -91 
Q 1019 -91 701 211 
Q 384 513 384 1019 
Q 384 1609 779 1909 
Q 1175 2209 1959 2209 
L 2766 2209 
L 2766 2266 
Q 2766 2663 2505 2880 
Q 2244 3097 1772 3097 
Q 1472 3097 1187 3025 
Q 903 2953 641 2809 
L 641 3341 
Q 956 3463 1253 3523 
Q 1550 3584 1831 3584 
Q 2591 3584 2966 3190 
Q 3341 2797 3341 1997 
z
" id="DejaVuSans-61" transform="scale(0.015625)"/>
       <path d="M 2059 -325 
Q 1816 -950 1584 -1140 
Q 1353 -1331 966 -1331 
L 506 -1331 
L 506 -850 
L 844 -850 
Q 1081 -850 1212 -737 
Q 1344 -625 1503 -206 
L 1606 56 
L 191 3500 
L 800 3500 
L 1894 763 
L 2988 3500 
L 3597 3500 
L 2059 -325 
z
" id="DejaVuSans-79" transform="scale(0.015625)"/>
      </defs>
      <use xlink:href="#DejaVuSans-41"/>
      <use x="66.658203" xlink:href="#DejaVuSans-63"/>
      <use x="121.638672" xlink:href="#DejaVuSans-63"/>
      <use x="176.619141" xlink:href="#DejaVuSans-75"/>
      <use x="239.998047" xlink:href="#DejaVuSans-72"/>
      <use x="281.111328" xlink:href="#DejaVuSans-61"/>
      <use x="342.390625" xlink:href="#DejaVuSans-63"/>
      <use x="397.371094" xlink:href="#DejaVuSans-79"/>
     </g>
    </g>
   </g>
   <g id="line2d_16">
    <path clip-path="url(#p95891e099f)" d="M 73.832727 295.488 
L 74.707807 283.926283 
L 76.457966 264.948775 
L 78.208125 248.121876 
L 79.083205 242.569557 
L 79.958285 233.410426 
L 80.833364 227.515298 
L 81.708444 226.724202 
L 82.583524 217.96941 
L 83.458603 216.12352 
L 84.333683 241.318453 
L 85.208763 228.99787 
L 86.083842 228.209704 
L 86.958922 220.664995 
L 87.834001 216.05906 
L 88.709081 214.702477 
L 89.584161 208.227213 
L 90.45924 206.053164 
L 92.2094 196.864734 
L 93.084479 196.829574 
L 93.959559 191.019416 
L 95.709718 180.491983 
L 96.584798 183.600696 
L 97.459877 183.518656 
L 98.334957 178.777942 
L 99.210037 172.818354 
L 100.085116 171.347502 
L 100.960196 165.399634 
L 101.835276 167.945791 
L 102.710355 159.431257 
L 103.585435 163.653364 
L 104.460515 160.362992 
L 105.335594 194.409407 
L 106.210674 195.100884 
L 107.085753 185.276647 
L 107.960833 181.315308 
L 108.835913 184.040193 
L 109.710992 181.438368 
L 110.586072 181.02817 
L 111.461152 175.590119 
L 112.336231 177.113711 
L 113.211311 175.593049 
L 114.086391 171.936429 
L 114.96147 166.082321 
L 115.83655 168.461468 
L 116.71163 162.665959 
L 117.586709 167.286544 
L 118.461789 160.887459 
L 119.336868 163.055647 
L 120.211948 155.590048 
L 121.087028 158.643091 
L 121.962107 154.693472 
L 122.837187 151.543739 
L 123.712267 151.139402 
L 124.587346 152.144386 
L 125.462426 142.671748 
L 126.337506 145.87422 
L 127.212585 141.306375 
L 128.087665 139.923422 
L 128.962744 136.372282 
L 129.837824 137.972053 
L 130.712904 132.709801 
L 131.587983 133.471597 
L 132.463063 134.063454 
L 133.338143 128.273805 
L 134.213222 124.359347 
L 135.088302 123.7294 
L 135.963382 122.621866 
L 137.713541 122.290778 
L 138.58862 117.514904 
L 139.4637 121.84542 
L 140.33878 121.739941 
L 141.213859 125.291082 
L 142.088939 113.114068 
L 142.964019 115.323276 
L 143.839098 115.390665 
L 144.714178 110.83747 
L 145.589258 117.227765 
L 146.464337 110.210453 
L 147.339417 155.241379 
L 148.214496 148.001389 
L 149.089576 150.459645 
L 149.964656 148.361777 
L 150.839735 151.974447 
L 151.714815 148.918474 
L 152.589895 142.870986 
L 153.464974 146.132059 
L 154.340054 147.652721 
L 155.215134 140.805348 
L 156.090213 141.508544 
L 156.965293 144.02833 
L 158.715452 139.495645 
L 159.590532 133.386628 
L 160.465611 134.444352 
L 161.340691 138.127342 
L 162.215771 130.468364 
L 163.09085 128.534574 
L 163.96593 131.898196 
L 164.84101 133.357328 
L 165.716089 127.084232 
L 166.591169 132.668782 
L 167.466248 129.22605 
L 168.341328 126.914293 
L 169.216408 126.167147 
L 170.091487 121.90402 
L 170.966567 120.585527 
L 171.841647 120.814066 
L 172.716726 118.918366 
L 173.591806 119.920421 
L 174.466886 120.512277 
L 175.341965 116.811708 
L 177.092124 112.235072 
L 177.967204 112.63062 
L 178.842284 109.170309 
L 179.717363 115.197286 
L 180.592443 112.235072 
L 181.467523 115.639714 
L 182.342602 107.450408 
L 183.217682 109.598087 
L 184.092762 108.824571 
L 184.967841 100.230927 
L 185.842921 105.481459 
L 186.718 106.703262 
L 187.59308 105.953186 
L 188.46816 104.731383 
L 189.343239 101.288652 
L 190.218319 99.357792 
L 191.093399 102.557335 
L 191.968478 104.722593 
L 192.843558 102.853263 
L 193.718638 99.243523 
L 194.593717 94.745997 
L 195.468797 101.215402 
L 196.343877 95.299764 
L 197.218956 93.635533 
L 198.094036 95.191355 
L 198.969115 94.942306 
L 199.844195 94.956956 
L 200.719275 88.58424 
L 201.594354 98.308858 
L 202.469434 88.238502 
L 203.344514 89.196607 
L 204.219593 97.274573 
L 205.094673 87.766775 
L 205.969753 86.334013 
L 206.844832 92.823927 
L 207.719912 86.588921 
L 208.594991 85.654256 
L 209.470071 86.515672 
L 210.345151 96.01175 
L 211.22023 85.241128 
L 212.09531 85.695276 
L 212.97039 83.606197 
L 213.845469 85.762666 
L 214.720549 88.762969 
L 215.595629 87.784355 
L 216.470708 86.008784 
L 217.345788 78.540255 
L 218.220867 87.640785 
L 219.095947 82.393184 
L 219.971027 85.642536 
L 220.846106 80.392005 
L 221.721186 83.629637 
L 222.596266 78.569555 
L 223.471345 81.030741 
L 224.346425 84.95399 
L 225.221505 79.222941 
L 226.096584 81.625528 
L 226.971664 79.615559 
L 227.846743 83.614987 
L 228.721823 81.168451 
L 229.596903 81.868717 
L 230.471982 82.322864 
L 231.347062 115.926852 
L 232.222142 117.875292 
L 233.097221 114.218672 
L 233.972301 117.526624 
L 234.847381 108.848011 
L 235.72246 118.859766 
L 236.59754 114.414981 
L 237.472619 113.720574 
L 238.347699 117.391844 
L 239.222779 114.148352 
L 240.097858 114.5732 
L 241.848018 113.711784 
L 242.723097 107.699457 
L 243.598177 108.490553 
L 244.473257 112.437241 
L 245.348336 108.557942 
L 246.223416 109.729936 
L 247.098495 112.891389 
L 247.973575 104.666923 
L 248.848655 111.253528 
L 249.723734 104.669853 
L 250.598814 101.191962 
L 251.473894 108.159464 
L 252.348973 100.397936 
L 253.224053 107.13104 
L 254.099133 106.345804 
L 254.974212 104.414945 
L 255.849292 107.403528 
L 256.724371 108.742531 
L 257.599451 105.578148 
L 258.474531 104.936482 
L 259.34961 103.653149 
L 260.22469 97.599802 
L 261.09977 103.099382 
L 261.974849 105.32324 
L 262.849929 106.421984 
L 263.725009 104.239146 
L 264.600088 104.819282 
L 265.475168 103.656079 
L 266.350247 99.77092 
L 267.225327 99.72404 
L 268.100407 98.094969 
L 268.975486 100.954633 
L 269.850566 100.585455 
L 270.725646 97.91038 
L 271.600725 102.709694 
L 272.475805 96.146529 
L 273.350885 92.31704 
L 274.225964 96.06156 
L 275.101044 98.845045 
L 275.976123 98.792305 
L 276.851203 92.607109 
L 277.726283 90.884278 
L 278.601362 89.618525 
L 279.476442 92.522139 
L 280.351522 90.257261 
L 281.226601 93.972481 
L 282.101681 95.583972 
L 282.976761 86.585991 
L 283.85184 95.036065 
L 284.72692 94.11605 
L 285.602 92.217421 
L 287.352159 95.173775 
L 288.227238 90.878418 
L 289.102318 94.977466 
L 289.977398 89.603875 
L 290.852477 86.87899 
L 291.727557 92.674498 
L 292.602637 93.568143 
L 293.477716 92.202771 
L 294.352796 96.823356 
L 295.227876 81.736867 
L 296.978035 95.282184 
L 297.853114 84.816281 
L 298.728194 90.014073 
L 299.603274 84.274234 
L 300.478353 86.164073 
L 301.353433 82.029866 
L 302.228513 79.545239 
L 303.103592 82.756502 
L 303.978672 79.835308 
L 304.853752 89.662475 
L 305.728831 85.973625 
L 306.603911 91.602124 
L 307.47899 79.38409 
L 308.35407 83.705817 
L 309.22915 86.076174 
L 310.104229 80.476974 
L 311.854389 83.360079 
L 312.729468 82.355094 
L 313.604548 80.934052 
L 314.479628 87.558746 
L 315.354707 83.647217 
L 316.229787 82.659812 
L 317.104866 77.045963 
L 317.979946 85.293868 
L 318.855026 80.532644 
L 319.730105 81.543489 
L 320.605185 85.809545 
L 321.480265 73.711641 
L 322.355344 84.828001 
L 323.230424 79.958367 
L 324.105504 76.398436 
L 324.980583 85.188389 
L 325.855663 82.583633 
L 326.730742 81.019021 
L 327.605822 73.474312 
L 328.480902 78.786373 
L 329.355981 78.692614 
L 330.231061 75.507721 
L 331.106141 75.70989 
L 331.98122 79.961297 
L 332.8563 78.103687 
L 333.73138 82.548473 
L 334.606459 78.012858 
L 335.481539 72.290599 
L 336.356618 74.731275 
L 337.231698 71.927281 
L 338.106778 81.162591 
L 338.981857 73.401063 
L 339.856937 76.606465 
L 340.732017 71.423323 
L 341.607096 76.254867 
L 342.482176 70.781657 
L 343.357256 78.241396 
L 344.232335 76.125948 
L 345.107415 75.6425 
L 345.982494 76.943413 
L 346.857574 70.432989 
L 347.732654 71.183065 
L 348.607733 72.176329 
L 349.482813 71.306124 
L 350.357893 69.058826 
L 351.232972 73.553422 
L 352.108052 70.17515 
L 352.983132 70.863696 
L 353.858211 66.035082 
L 354.733291 74.883635 
L 355.60837 77.954258 
L 356.48345 66.040942 
L 357.35853 69.811832 
L 358.233609 64.73417 
L 359.108689 72.768186 
L 359.983769 67.705173 
L 360.858848 66.275341 
L 361.733928 72.601177 
L 362.609008 68.188621 
L 363.484087 65.138507 
L 364.359167 66.369101 
L 365.234247 70.761147 
L 366.109326 74.066169 
L 366.984406 68.874237 
L 367.859485 71.827661 
L 368.734565 67.186566 
L 369.609645 67.233446 
L 370.484724 68.792198 
L 371.359804 69.129146 
L 372.234884 67.963012 
L 373.109963 69.073476 
L 373.985043 61.470167 
L 374.860123 71.273894 
L 375.735202 62.996689 
L 376.610282 71.561033 
L 377.485361 70.348019 
L 378.360441 66.026293 
L 379.235521 69.855782 
L 380.1106 68.37907 
L 380.98568 62.82089 
L 381.86076 64.992008 
L 382.735839 61.771956 
L 383.610919 70.052091 
L 384.485999 71.077585 
L 385.361078 69.665333 
L 386.236158 66.52732 
L 387.111237 66.272411 
L 387.986317 69.530554 
L 388.861397 71.868681 
L 389.736476 68.613469 
L 390.611556 63.178348 
L 391.486636 68.806847 
L 392.361715 70.860766 
L 393.236795 53.568 
L 394.111875 73.529982 
L 394.986954 69.811832 
L 395.862034 70.810957 
L 396.737113 69.577433 
L 397.612193 62.571841 
L 398.487273 64.769329 
L 398.487273 64.769329 
" style="fill:none;stroke:#1f77b4;stroke-linecap:square;stroke-width:1.5;"/>
   </g>
   <g id="line2d_17">
    <path clip-path="url(#p95891e099f)" d="M 73.832727 287.070156 
L 74.707807 270.310646 
L 75.582887 260.290101 
L 76.457966 240.13181 
L 77.333046 237.875722 
L 78.208125 233.803044 
L 79.083205 206.026794 
L 79.958285 204.708302 
L 80.833364 195.77185 
L 81.708444 184.813709 
L 82.583524 178.719342 
L 83.458603 176.668353 
L 84.333683 218.039729 
L 85.208763 205.645896 
L 86.083842 198.701834 
L 86.958922 190.468579 
L 87.834001 181.180529 
L 88.709081 191.552673 
L 89.584161 177.195751 
L 90.45924 175.760058 
L 91.33432 165.505114 
L 92.2094 161.871934 
L 93.084479 161.022238 
L 93.959559 151.558389 
L 94.834639 146.313718 
L 95.709718 148.804204 
L 96.584798 139.779853 
L 97.459877 138.49066 
L 98.334957 136.351772 
L 99.210037 131.780996 
L 100.085116 129.964406 
L 100.960196 126.126127 
L 101.835276 124.983433 
L 102.710355 122.844545 
L 103.585435 121.994849 
L 104.460515 122.170649 
L 105.335594 162.135632 
L 106.210674 159.674445 
L 107.085753 146.020719 
L 107.960833 155.367369 
L 108.835913 153.111281 
L 109.710992 152.847582 
L 110.586072 141.625743 
L 111.461152 137.963263 
L 112.336231 139.926352 
L 113.211311 138.666459 
L 114.086391 134.593781 
L 114.96147 138.49066 
L 115.83655 132.865091 
L 116.71163 136.908469 
L 117.586709 133.656186 
L 118.461789 132.572092 
L 119.336868 128.352915 
L 120.211948 126.565625 
L 121.087028 125.65733 
L 121.962107 127.796218 
L 122.837187 124.192338 
L 123.712267 123.75284 
L 124.587346 122.551546 
L 125.462426 117.658473 
L 126.337506 116.545079 
L 127.212585 117.013876 
L 128.087665 115.548884 
L 128.962744 112.208702 
L 129.837824 112.6775 
L 130.712904 110.714411 
L 131.587983 109.483817 
L 133.338143 110.187013 
L 134.213222 108.048125 
L 135.088302 109.04432 
L 135.963382 106.788232 
L 136.838461 105.997136 
L 137.713541 104.268445 
L 138.58862 104.268445 
L 139.4637 104.385645 
L 140.33878 102.598354 
L 141.213859 103.213651 
L 142.088939 102.510455 
L 142.964019 101.57286 
L 143.839098 101.54356 
L 144.714178 101.865858 
L 145.589258 101.133362 
L 146.464337 101.016163 
L 147.339417 144.965925 
L 148.214496 133.626886 
L 149.089576 127.093022 
L 149.964656 131.1364 
L 150.839735 132.103295 
L 151.714815 123.225443 
L 152.589895 120.03176 
L 153.464974 127.591119 
L 154.340054 127.35672 
L 155.215134 127.796218 
L 156.090213 127.239521 
L 156.965293 117.511974 
L 157.840372 120.793556 
L 158.715452 120.588457 
L 159.590532 122.082749 
L 160.465611 121.93625 
L 161.340691 116.046982 
L 162.215771 127.151622 
L 163.09085 121.438152 
L 163.96593 119.914561 
L 164.84101 119.885261 
L 165.716089 118.976966 
L 166.591169 119.211365 
L 167.466248 119.006266 
L 168.341328 115.871183 
L 169.216408 120.236859 
L 170.091487 115.402385 
L 170.966567 117.336175 
L 171.841647 114.288991 
L 172.716726 117.658473 
L 173.591806 113.439296 
L 174.466886 112.501701 
L 175.341965 115.197286 
L 176.217045 114.58199 
L 177.092124 113.380696 
L 177.967204 115.666084 
L 178.842284 114.992187 
L 179.717363 112.062203 
L 180.592443 113.234197 
L 181.467523 110.362812 
L 182.342602 112.150103 
L 183.217682 110.362812 
L 184.092762 109.073619 
L 184.967841 109.395918 
L 185.842921 109.483817 
L 186.718 108.282524 
L 187.59308 108.516922 
L 188.46816 111.798505 
L 189.343239 106.671032 
L 190.218319 108.780621 
L 191.093399 108.399723 
L 191.968478 109.542417 
L 192.843558 110.245613 
L 193.718638 107.16913 
L 194.593717 108.106725 
L 195.468797 108.692721 
L 197.218956 104.707943 
L 198.094036 105.469739 
L 198.969115 107.05193 
L 199.844195 104.180546 
L 200.719275 102.949953 
L 201.594354 106.964031 
L 202.469434 104.737243 
L 203.344514 103.067152 
L 204.219593 102.539755 
L 205.094673 101.191962 
L 205.969753 102.656954 
L 206.844832 102.979252 
L 207.719912 102.569055 
L 208.594991 100.693865 
L 209.470071 100.664565 
L 210.345151 100.752464 
L 211.22023 99.66837 
L 212.09531 99.111673 
L 212.97039 100.459466 
L 213.845469 99.72697 
L 214.720549 100.225067 
L 215.595629 100.430166 
L 216.470708 99.932069 
L 217.345788 100.371567 
L 219.095947 98.467077 
L 219.971027 98.760075 
L 220.846106 99.375372 
L 221.721186 98.261978 
L 222.596266 98.760075 
L 223.471345 100.225067 
L 224.346425 98.320578 
L 225.221505 98.554976 
L 226.096584 98.232678 
L 226.971664 98.144779 
L 227.846743 98.584276 
L 228.721823 98.261978 
L 230.471982 98.467077 
L 231.347062 124.631835 
L 232.222142 125.042033 
L 233.097221 126.653524 
L 234.847381 120.764256 
L 235.72246 122.463647 
L 236.59754 121.84835 
L 237.472619 119.182065 
L 238.347699 117.892872 
L 239.222779 120.354058 
L 240.097858 121.672551 
L 240.972938 116.046982 
L 241.848018 120.676357 
L 242.723097 117.101776 
L 243.598177 119.211365 
L 244.473257 116.632979 
L 245.348336 115.519585 
L 246.223416 121.262353 
L 247.098495 114.49409 
L 247.973575 119.621562 
L 248.848655 121.086554 
L 249.723734 117.511974 
L 250.598814 114.611289 
L 251.473894 116.984577 
L 252.348973 113.790894 
L 253.224053 115.050787 
L 254.099133 118.566768 
L 254.974212 116.164181 
L 255.849292 115.695384 
L 256.724371 114.845688 
L 258.474531 115.255886 
L 259.34961 115.197286 
L 260.22469 116.222781 
L 261.09977 114.406191 
L 261.974849 117.248275 
L 262.849929 115.431685 
L 263.725009 119.650862 
L 264.600088 113.702994 
L 265.475168 114.962888 
L 266.350247 119.680162 
L 267.225327 113.878793 
L 268.100407 116.779478 
L 268.975486 113.497895 
L 269.850566 112.208702 
L 270.725646 111.153908 
L 272.475805 112.941198 
L 273.350885 111.593406 
L 274.225964 114.58199 
L 275.101044 110.74371 
L 275.976123 113.732294 
L 276.851203 111.388307 
L 277.726283 107.667227 
L 278.601362 110.099114 
L 279.476442 110.480012 
L 280.351522 110.626511 
L 281.226601 113.146297 
L 282.101681 110.80231 
L 282.976761 110.011214 
L 283.85184 110.187013 
L 284.72692 109.659616 
L 285.602 110.948809 
L 286.477079 110.274913 
L 287.352159 110.978109 
L 288.227238 109.864715 
L 289.102318 111.153908 
L 289.977398 111.036709 
L 290.852477 108.048125 
L 291.727557 107.901626 
L 292.602637 110.274913 
L 293.477716 110.304213 
L 294.352796 109.366618 
L 295.227876 109.220119 
L 296.102955 108.223924 
L 296.978035 114.992187 
L 297.853114 109.718216 
L 298.728194 106.846831 
L 299.603274 108.018825 
L 300.478353 108.048125 
L 301.353433 108.692721 
L 302.228513 107.403528 
L 303.103592 106.846831 
L 303.978672 105.674838 
L 304.853752 107.637927 
L 305.728831 105.176741 
L 306.603911 106.143635 
L 307.47899 105.938536 
L 308.35407 105.23534 
L 309.22915 106.143635 
L 310.104229 106.788232 
L 310.979309 104.707943 
L 311.854389 105.000941 
L 312.729468 107.13983 
L 313.604548 105.059541 
L 314.479628 104.502844 
L 315.354707 105.645538 
L 316.229787 104.239146 
L 317.979946 103.828948 
L 318.855026 103.155051 
L 320.605185 103.565249 
L 321.480265 104.268445 
L 322.355344 101.924458 
L 323.230424 102.129557 
L 324.105504 103.535949 
L 324.980583 103.096452 
L 325.855663 103.770348 
L 326.730742 102.158857 
L 327.605822 103.711748 
L 328.480902 104.414945 
L 329.355981 102.158857 
L 330.231061 101.777959 
L 331.106141 101.983058 
L 331.98122 99.75627 
L 332.8563 100.723165 
L 333.73138 101.367761 
L 334.606459 100.957563 
L 335.481539 102.188157 
L 336.356618 100.752464 
L 337.231698 100.723165 
L 338.106778 102.276056 
L 338.981857 99.404672 
L 339.856937 101.074763 
L 340.732017 100.254367 
L 341.607096 100.693865 
L 342.482176 100.605965 
L 343.357256 99.81487 
L 344.232335 99.639071 
L 345.107415 100.986863 
L 345.982494 100.605965 
L 346.857574 101.953758 
L 347.732654 99.609771 
L 348.607733 99.580471 
L 349.482813 99.228873 
L 351.232972 98.965174 
L 352.108052 97.793181 
L 352.983132 98.379177 
L 353.858211 99.72697 
L 354.733291 98.847975 
L 355.60837 98.467077 
L 356.48345 99.140973 
L 358.233609 97.82248 
L 359.108689 98.906574 
L 359.983769 99.199573 
L 360.858848 97.412283 
L 361.733928 99.140973 
L 362.609008 97.119284 
L 363.484087 96.796986 
L 364.359167 98.086179 
L 365.234247 97.96898 
L 366.109326 97.734581 
L 366.984406 97.734581 
L 367.859485 97.588082 
L 368.734565 96.826286 
L 369.609645 97.470882 
L 370.484724 96.826286 
L 371.359804 98.379177 
L 372.234884 96.826286 
L 373.109963 97.177884 
L 373.985043 96.709086 
L 376.610282 96.884885 
L 377.485361 96.152389 
L 378.360441 97.646681 
L 379.235521 96.855586 
L 380.1106 97.763881 
L 380.98568 96.679787 
L 381.86076 97.177884 
L 382.735839 97.119284 
L 383.610919 96.796986 
L 384.485999 97.177884 
L 385.361078 97.177884 
L 386.236158 96.591887 
L 387.111237 96.562587 
L 387.986317 97.060684 
L 388.861397 97.060684 
L 389.736476 96.709086 
L 390.611556 96.533287 
L 391.486636 97.236484 
L 392.361715 96.562587 
L 393.236795 96.445388 
L 394.111875 97.002085 
L 395.862034 96.298889 
L 396.737113 96.621187 
L 397.612193 96.738386 
L 398.487273 96.503988 
L 398.487273 96.503988 
" style="fill:none;stroke:#ff7f0e;stroke-linecap:square;stroke-width:1.5;"/>
   </g>
   <g id="patch_3">
    <path d="M 57.6 307.584 
L 57.6 41.472 
" style="fill:none;stroke:#000000;stroke-linecap:square;stroke-linejoin:miter;stroke-width:0.8;"/>
   </g>
   <g id="patch_4">
    <path d="M 414.72 307.584 
L 414.72 41.472 
" style="fill:none;stroke:#000000;stroke-linecap:square;stroke-linejoin:miter;stroke-width:0.8;"/>
   </g>
   <g id="patch_5">
    <path d="M 57.6 307.584 
L 414.72 307.584 
" style="fill:none;stroke:#000000;stroke-linecap:square;stroke-linejoin:miter;stroke-width:0.8;"/>
   </g>
   <g id="patch_6">
    <path d="M 57.6 41.472 
L 414.72 41.472 
" style="fill:none;stroke:#000000;stroke-linecap:square;stroke-linejoin:miter;stroke-width:0.8;"/>
   </g>
   <g id="text_18">
    <!-- Training and Validation Accuracy -->
    <g transform="translate(138.4575 35.472)scale(0.12 -0.12)">
     <defs>
      <path d="M -19 4666 
L 3928 4666 
L 3928 4134 
L 2272 4134 
L 2272 0 
L 1638 0 
L 1638 4134 
L -19 4134 
L -19 4666 
z
" id="DejaVuSans-54" transform="scale(0.015625)"/>
      <path d="M 603 3500 
L 1178 3500 
L 1178 0 
L 603 0 
L 603 3500 
z
M 603 4863 
L 1178 4863 
L 1178 4134 
L 603 4134 
L 603 4863 
z
" id="DejaVuSans-69" transform="scale(0.015625)"/>
      <path d="M 3513 2113 
L 3513 0 
L 2938 0 
L 2938 2094 
Q 2938 2591 2744 2837 
Q 2550 3084 2163 3084 
Q 1697 3084 1428 2787 
Q 1159 2491 1159 1978 
L 1159 0 
L 581 0 
L 581 3500 
L 1159 3500 
L 1159 2956 
Q 1366 3272 1645 3428 
Q 1925 3584 2291 3584 
Q 2894 3584 3203 3211 
Q 3513 2838 3513 2113 
z
" id="DejaVuSans-6e" transform="scale(0.015625)"/>
      <path d="M 2906 1791 
Q 2906 2416 2648 2759 
Q 2391 3103 1925 3103 
Q 1463 3103 1205 2759 
Q 947 2416 947 1791 
Q 947 1169 1205 825 
Q 1463 481 1925 481 
Q 2391 481 2648 825 
Q 2906 1169 2906 1791 
z
M 3481 434 
Q 3481 -459 3084 -895 
Q 2688 -1331 1869 -1331 
Q 1566 -1331 1297 -1286 
Q 1028 -1241 775 -1147 
L 775 -588 
Q 1028 -725 1275 -790 
Q 1522 -856 1778 -856 
Q 2344 -856 2625 -561 
Q 2906 -266 2906 331 
L 2906 616 
Q 2728 306 2450 153 
Q 2172 0 1784 0 
Q 1141 0 747 490 
Q 353 981 353 1791 
Q 353 2603 747 3093 
Q 1141 3584 1784 3584 
Q 2172 3584 2450 3431 
Q 2728 3278 2906 2969 
L 2906 3500 
L 3481 3500 
L 3481 434 
z
" id="DejaVuSans-67" transform="scale(0.015625)"/>
      <path id="DejaVuSans-20" transform="scale(0.015625)"/>
      <path d="M 2906 2969 
L 2906 4863 
L 3481 4863 
L 3481 0 
L 2906 0 
L 2906 525 
Q 2725 213 2448 61 
Q 2172 -91 1784 -91 
Q 1150 -91 751 415 
Q 353 922 353 1747 
Q 353 2572 751 3078 
Q 1150 3584 1784 3584 
Q 2172 3584 2448 3432 
Q 2725 3281 2906 2969 
z
M 947 1747 
Q 947 1113 1208 752 
Q 1469 391 1925 391 
Q 2381 391 2643 752 
Q 2906 1113 2906 1747 
Q 2906 2381 2643 2742 
Q 2381 3103 1925 3103 
Q 1469 3103 1208 2742 
Q 947 2381 947 1747 
z
" id="DejaVuSans-64" transform="scale(0.015625)"/>
      <path d="M 1831 0 
L 50 4666 
L 709 4666 
L 2188 738 
L 3669 4666 
L 4325 4666 
L 2547 0 
L 1831 0 
z
" id="DejaVuSans-56" transform="scale(0.015625)"/>
      <path d="M 603 4863 
L 1178 4863 
L 1178 0 
L 603 0 
L 603 4863 
z
" id="DejaVuSans-6c" transform="scale(0.015625)"/>
      <path d="M 1172 4494 
L 1172 3500 
L 2356 3500 
L 2356 3053 
L 1172 3053 
L 1172 1153 
Q 1172 725 1289 603 
Q 1406 481 1766 481 
L 2356 481 
L 2356 0 
L 1766 0 
Q 1100 0 847 248 
Q 594 497 594 1153 
L 594 3053 
L 172 3053 
L 172 3500 
L 594 3500 
L 594 4494 
L 1172 4494 
z
" id="DejaVuSans-74" transform="scale(0.015625)"/>
     </defs>
     <use xlink:href="#DejaVuSans-54"/>
     <use x="46.333984" xlink:href="#DejaVuSans-72"/>
     <use x="87.447266" xlink:href="#DejaVuSans-61"/>
     <use x="148.726562" xlink:href="#DejaVuSans-69"/>
     <use x="176.509766" xlink:href="#DejaVuSans-6e"/>
     <use x="239.888672" xlink:href="#DejaVuSans-69"/>
     <use x="267.671875" xlink:href="#DejaVuSans-6e"/>
     <use x="331.050781" xlink:href="#DejaVuSans-67"/>
     <use x="394.527344" xlink:href="#DejaVuSans-20"/>
     <use x="426.314453" xlink:href="#DejaVuSans-61"/>
     <use x="487.59375" xlink:href="#DejaVuSans-6e"/>
     <use x="550.972656" xlink:href="#DejaVuSans-64"/>
     <use x="614.449219" xlink:href="#DejaVuSans-20"/>
     <use x="646.236328" xlink:href="#DejaVuSans-56"/>
     <use x="706.894531" xlink:href="#DejaVuSans-61"/>
     <use x="768.173828" xlink:href="#DejaVuSans-6c"/>
     <use x="795.957031" xlink:href="#DejaVuSans-69"/>
     <use x="823.740234" xlink:href="#DejaVuSans-64"/>
     <use x="887.216797" xlink:href="#DejaVuSans-61"/>
     <use x="948.496094" xlink:href="#DejaVuSans-74"/>
     <use x="987.705078" xlink:href="#DejaVuSans-69"/>
     <use x="1015.488281" xlink:href="#DejaVuSans-6f"/>
     <use x="1076.669922" xlink:href="#DejaVuSans-6e"/>
     <use x="1140.048828" xlink:href="#DejaVuSans-20"/>
     <use x="1171.835938" xlink:href="#DejaVuSans-41"/>
     <use x="1238.494141" xlink:href="#DejaVuSans-63"/>
     <use x="1293.474609" xlink:href="#DejaVuSans-63"/>
     <use x="1348.455078" xlink:href="#DejaVuSans-75"/>
     <use x="1411.833984" xlink:href="#DejaVuSans-72"/>
     <use x="1452.947266" xlink:href="#DejaVuSans-61"/>
     <use x="1514.226562" xlink:href="#DejaVuSans-63"/>
     <use x="1569.207031" xlink:href="#DejaVuSans-79"/>
    </g>
   </g>
   <g id="legend_1">
    <g id="patch_7">
     <path d="M 64.6 78.82825 
L 194.815625 78.82825 
Q 196.815625 78.82825 196.815625 76.82825 
L 196.815625 48.472 
Q 196.815625 46.472 194.815625 46.472 
L 64.6 46.472 
Q 62.6 46.472 62.6 48.472 
L 62.6 76.82825 
Q 62.6 78.82825 64.6 78.82825 
z
" style="fill:#ffffff;opacity:0.8;stroke:#cccccc;stroke-linejoin:miter;"/>
    </g>
    <g id="line2d_18">
     <path d="M 66.6 54.570437 
L 86.6 54.570437 
" style="fill:none;stroke:#1f77b4;stroke-linecap:square;stroke-width:1.5;"/>
    </g>
    <g id="line2d_19"/>
    <g id="text_19">
     <!-- Train Accuracy -->
     <g transform="translate(94.6 58.070437)scale(0.1 -0.1)">
      <use xlink:href="#DejaVuSans-54"/>
      <use x="46.333984" xlink:href="#DejaVuSans-72"/>
      <use x="87.447266" xlink:href="#DejaVuSans-61"/>
      <use x="148.726562" xlink:href="#DejaVuSans-69"/>
      <use x="176.509766" xlink:href="#DejaVuSans-6e"/>
      <use x="239.888672" xlink:href="#DejaVuSans-20"/>
      <use x="271.675781" xlink:href="#DejaVuSans-41"/>
      <use x="338.333984" xlink:href="#DejaVuSans-63"/>
      <use x="393.314453" xlink:href="#DejaVuSans-63"/>
      <use x="448.294922" xlink:href="#DejaVuSans-75"/>
      <use x="511.673828" xlink:href="#DejaVuSans-72"/>
      <use x="552.787109" xlink:href="#DejaVuSans-61"/>
      <use x="614.066406" xlink:href="#DejaVuSans-63"/>
      <use x="669.046875" xlink:href="#DejaVuSans-79"/>
     </g>
    </g>
    <g id="line2d_20">
     <path d="M 66.6 69.248562 
L 86.6 69.248562 
" style="fill:none;stroke:#ff7f0e;stroke-linecap:square;stroke-width:1.5;"/>
    </g>
    <g id="line2d_21"/>
    <g id="text_20">
     <!-- Validation Accuracy -->
     <g transform="translate(94.6 72.748562)scale(0.1 -0.1)">
      <use xlink:href="#DejaVuSans-56"/>
      <use x="60.658203" xlink:href="#DejaVuSans-61"/>
      <use x="121.9375" xlink:href="#DejaVuSans-6c"/>
      <use x="149.720703" xlink:href="#DejaVuSans-69"/>
      <use x="177.503906" xlink:href="#DejaVuSans-64"/>
      <use x="240.980469" xlink:href="#DejaVuSans-61"/>
      <use x="302.259766" xlink:href="#DejaVuSans-74"/>
      <use x="341.46875" xlink:href="#DejaVuSans-69"/>
      <use x="369.251953" xlink:href="#DejaVuSans-6f"/>
      <use x="430.433594" xlink:href="#DejaVuSans-6e"/>
      <use x="493.8125" xlink:href="#DejaVuSans-20"/>
      <use x="525.599609" xlink:href="#DejaVuSans-41"/>
      <use x="592.257812" xlink:href="#DejaVuSans-63"/>
      <use x="647.238281" xlink:href="#DejaVuSans-63"/>
      <use x="702.21875" xlink:href="#DejaVuSans-75"/>
      <use x="765.597656" xlink:href="#DejaVuSans-72"/>
      <use x="806.710938" xlink:href="#DejaVuSans-61"/>
      <use x="867.990234" xlink:href="#DejaVuSans-63"/>
      <use x="922.970703" xlink:href="#DejaVuSans-79"/>
     </g>
    </g>
   </g>
  </g>
 </g>
 <defs>
  <clipPath id="p95891e099f">
   <rect height="266.112" width="357.12" x="57.6" y="41.472"/>
  </clipPath>
 </defs>
</svg>
