<?xml version="1.0" encoding="utf-8" standalone="no"?>
<!DOCTYPE svg PUBLIC "-//W3C//DTD SVG 1.1//EN"
  "http://www.w3.org/Graphics/SVG/1.1/DTD/svg11.dtd">
<svg height="345.6pt" version="1.1" viewBox="0 0 460.8 345.6" width="460.8pt" xmlns="http://www.w3.org/2000/svg" xmlns:xlink="http://www.w3.org/1999/xlink">
 <metadata>
  <rdf:RDF xmlns:cc="http://creativecommons.org/ns#" xmlns:dc="http://purl.org/dc/elements/1.1/" xmlns:rdf="http://www.w3.org/1999/02/22-rdf-syntax-ns#">
   <cc:Work>
    <dc:type rdf:resource="http://purl.org/dc/dcmitype/StillImage"/>
    <dc:date>2023-08-02T06:52:48.149565</dc:date>
    <dc:format>image/svg+xml</dc:format>
    <dc:creator>
     <cc:Agent>
      <dc:title>Matplotlib v3.4.3, https://matplotlib.org/</dc:title>
     </cc:Agent>
    </dc:creator>
   </cc:Work>
  </rdf:RDF>
 </metadata>
 <defs>
  <style type="text/css">*{stroke-linecap:butt;stroke-linejoin:round;}</style>
 </defs>
 <g id="figure_1">
  <g id="patch_1">
   <path d="M 0 345.6 
L 460.8 345.6 
L 460.8 0 
L 0 0 
z
" style="fill:#ffffff;"/>
  </g>
  <g id="axes_1">
   <g id="patch_2">
    <path d="M 57.6 307.584 
L 414.72 307.584 
L 414.72 41.472 
L 57.6 41.472 
z
" style="fill:#ffffff;"/>
   </g>
   <g id="matplotlib.axis_1">
    <g id="xtick_1">
     <g id="line2d_1">
      <defs>
       <path d="M 0 0 
L 0 3.5 
" id="m55e1d9d5f3" style="stroke:#000000;stroke-width:0.8;"/>
      </defs>
      <g>
       <use style="stroke:#000000;stroke-width:0.8;" x="73.832727" xlink:href="#m55e1d9d5f3" y="307.584"/>
      </g>
     </g>
     <g id="text_1">
      <!-- 1 -->
      <g transform="translate(70.651477 322.182437)scale(0.1 -0.1)">
       <defs>
        <path d="M 794 531 
L 1825 531 
L 1825 4091 
L 703 3866 
L 703 4441 
L 1819 4666 
L 2450 4666 
L 2450 531 
L 3481 531 
L 3481 0 
L 794 0 
L 794 531 
z
" id="DejaVuSans-31" transform="scale(0.015625)"/>
       </defs>
       <use xlink:href="#DejaVuSans-31"/>
      </g>
     </g>
    </g>
    <g id="xtick_2">
     <g id="line2d_2">
      <g>
       <use style="stroke:#000000;stroke-width:0.8;" x="109.664165" xlink:href="#m55e1d9d5f3" y="307.584"/>
      </g>
     </g>
     <g id="text_2">
      <!-- 34 -->
      <g transform="translate(103.301665 322.182437)scale(0.1 -0.1)">
       <defs>
        <path d="M 2597 2516 
Q 3050 2419 3304 2112 
Q 3559 1806 3559 1356 
Q 3559 666 3084 287 
Q 2609 -91 1734 -91 
Q 1441 -91 1130 -33 
Q 819 25 488 141 
L 488 750 
Q 750 597 1062 519 
Q 1375 441 1716 441 
Q 2309 441 2620 675 
Q 2931 909 2931 1356 
Q 2931 1769 2642 2001 
Q 2353 2234 1838 2234 
L 1294 2234 
L 1294 2753 
L 1863 2753 
Q 2328 2753 2575 2939 
Q 2822 3125 2822 3475 
Q 2822 3834 2567 4026 
Q 2313 4219 1838 4219 
Q 1578 4219 1281 4162 
Q 984 4106 628 3988 
L 628 4550 
Q 988 4650 1302 4700 
Q 1616 4750 1894 4750 
Q 2613 4750 3031 4423 
Q 3450 4097 3450 3541 
Q 3450 3153 3228 2886 
Q 3006 2619 2597 2516 
z
" id="DejaVuSans-33" transform="scale(0.015625)"/>
        <path d="M 2419 4116 
L 825 1625 
L 2419 1625 
L 2419 4116 
z
M 2253 4666 
L 3047 4666 
L 3047 1625 
L 3713 1625 
L 3713 1100 
L 3047 1100 
L 3047 0 
L 2419 0 
L 2419 1100 
L 313 1100 
L 313 1709 
L 2253 4666 
z
" id="DejaVuSans-34" transform="scale(0.015625)"/>
       </defs>
       <use xlink:href="#DejaVuSans-33"/>
       <use x="63.623047" xlink:href="#DejaVuSans-34"/>
      </g>
     </g>
    </g>
    <g id="xtick_3">
     <g id="line2d_3">
      <g>
       <use style="stroke:#000000;stroke-width:0.8;" x="145.495604" xlink:href="#m55e1d9d5f3" y="307.584"/>
      </g>
     </g>
     <g id="text_3">
      <!-- 67 -->
      <g transform="translate(139.133104 322.182437)scale(0.1 -0.1)">
       <defs>
        <path d="M 2113 2584 
Q 1688 2584 1439 2293 
Q 1191 2003 1191 1497 
Q 1191 994 1439 701 
Q 1688 409 2113 409 
Q 2538 409 2786 701 
Q 3034 994 3034 1497 
Q 3034 2003 2786 2293 
Q 2538 2584 2113 2584 
z
M 3366 4563 
L 3366 3988 
Q 3128 4100 2886 4159 
Q 2644 4219 2406 4219 
Q 1781 4219 1451 3797 
Q 1122 3375 1075 2522 
Q 1259 2794 1537 2939 
Q 1816 3084 2150 3084 
Q 2853 3084 3261 2657 
Q 3669 2231 3669 1497 
Q 3669 778 3244 343 
Q 2819 -91 2113 -91 
Q 1303 -91 875 529 
Q 447 1150 447 2328 
Q 447 3434 972 4092 
Q 1497 4750 2381 4750 
Q 2619 4750 2861 4703 
Q 3103 4656 3366 4563 
z
" id="DejaVuSans-36" transform="scale(0.015625)"/>
        <path d="M 525 4666 
L 3525 4666 
L 3525 4397 
L 1831 0 
L 1172 0 
L 2766 4134 
L 525 4134 
L 525 4666 
z
" id="DejaVuSans-37" transform="scale(0.015625)"/>
       </defs>
       <use xlink:href="#DejaVuSans-36"/>
       <use x="63.623047" xlink:href="#DejaVuSans-37"/>
      </g>
     </g>
    </g>
    <g id="xtick_4">
     <g id="line2d_4">
      <g>
       <use style="stroke:#000000;stroke-width:0.8;" x="181.327042" xlink:href="#m55e1d9d5f3" y="307.584"/>
      </g>
     </g>
     <g id="text_4">
      <!-- 100 -->
      <g transform="translate(171.783292 322.182437)scale(0.1 -0.1)">
       <defs>
        <path d="M 2034 4250 
Q 1547 4250 1301 3770 
Q 1056 3291 1056 2328 
Q 1056 1369 1301 889 
Q 1547 409 2034 409 
Q 2525 409 2770 889 
Q 3016 1369 3016 2328 
Q 3016 3291 2770 3770 
Q 2525 4250 2034 4250 
z
M 2034 4750 
Q 2819 4750 3233 4129 
Q 3647 3509 3647 2328 
Q 3647 1150 3233 529 
Q 2819 -91 2034 -91 
Q 1250 -91 836 529 
Q 422 1150 422 2328 
Q 422 3509 836 4129 
Q 1250 4750 2034 4750 
z
" id="DejaVuSans-30" transform="scale(0.015625)"/>
       </defs>
       <use xlink:href="#DejaVuSans-31"/>
       <use x="63.623047" xlink:href="#DejaVuSans-30"/>
       <use x="127.246094" xlink:href="#DejaVuSans-30"/>
      </g>
     </g>
    </g>
    <g id="xtick_5">
     <g id="line2d_5">
      <g>
       <use style="stroke:#000000;stroke-width:0.8;" x="217.15848" xlink:href="#m55e1d9d5f3" y="307.584"/>
      </g>
     </g>
     <g id="text_5">
      <!-- 133 -->
      <g transform="translate(207.61473 322.182437)scale(0.1 -0.1)">
       <use xlink:href="#DejaVuSans-31"/>
       <use x="63.623047" xlink:href="#DejaVuSans-33"/>
       <use x="127.246094" xlink:href="#DejaVuSans-33"/>
      </g>
     </g>
    </g>
    <g id="xtick_6">
     <g id="line2d_6">
      <g>
       <use style="stroke:#000000;stroke-width:0.8;" x="254.075719" xlink:href="#m55e1d9d5f3" y="307.584"/>
      </g>
     </g>
     <g id="text_6">
      <!-- 167 -->
      <g transform="translate(244.531969 322.182437)scale(0.1 -0.1)">
       <use xlink:href="#DejaVuSans-31"/>
       <use x="63.623047" xlink:href="#DejaVuSans-36"/>
       <use x="127.246094" xlink:href="#DejaVuSans-37"/>
      </g>
     </g>
    </g>
    <g id="xtick_7">
     <g id="line2d_7">
      <g>
       <use style="stroke:#000000;stroke-width:0.8;" x="289.907157" xlink:href="#m55e1d9d5f3" y="307.584"/>
      </g>
     </g>
     <g id="text_7">
      <!-- 200 -->
      <g transform="translate(280.363407 322.182437)scale(0.1 -0.1)">
       <defs>
        <path d="M 1228 531 
L 3431 531 
L 3431 0 
L 469 0 
L 469 531 
Q 828 903 1448 1529 
Q 2069 2156 2228 2338 
Q 2531 2678 2651 2914 
Q 2772 3150 2772 3378 
Q 2772 3750 2511 3984 
Q 2250 4219 1831 4219 
Q 1534 4219 1204 4116 
Q 875 4013 500 3803 
L 500 4441 
Q 881 4594 1212 4672 
Q 1544 4750 1819 4750 
Q 2544 4750 2975 4387 
Q 3406 4025 3406 3419 
Q 3406 3131 3298 2873 
Q 3191 2616 2906 2266 
Q 2828 2175 2409 1742 
Q 1991 1309 1228 531 
z
" id="DejaVuSans-32" transform="scale(0.015625)"/>
       </defs>
       <use xlink:href="#DejaVuSans-32"/>
       <use x="63.623047" xlink:href="#DejaVuSans-30"/>
       <use x="127.246094" xlink:href="#DejaVuSans-30"/>
      </g>
     </g>
    </g>
    <g id="xtick_8">
     <g id="line2d_8">
      <g>
       <use style="stroke:#000000;stroke-width:0.8;" x="325.738595" xlink:href="#m55e1d9d5f3" y="307.584"/>
      </g>
     </g>
     <g id="text_8">
      <!-- 233 -->
      <g transform="translate(316.194845 322.182437)scale(0.1 -0.1)">
       <use xlink:href="#DejaVuSans-32"/>
       <use x="63.623047" xlink:href="#DejaVuSans-33"/>
       <use x="127.246094" xlink:href="#DejaVuSans-33"/>
      </g>
     </g>
    </g>
    <g id="xtick_9">
     <g id="line2d_9">
      <g>
       <use style="stroke:#000000;stroke-width:0.8;" x="361.570033" xlink:href="#m55e1d9d5f3" y="307.584"/>
      </g>
     </g>
     <g id="text_9">
      <!-- 266 -->
      <g transform="translate(352.026283 322.182437)scale(0.1 -0.1)">
       <use xlink:href="#DejaVuSans-32"/>
       <use x="63.623047" xlink:href="#DejaVuSans-36"/>
       <use x="127.246094" xlink:href="#DejaVuSans-36"/>
      </g>
     </g>
    </g>
    <g id="xtick_10">
     <g id="line2d_10">
      <g>
       <use style="stroke:#000000;stroke-width:0.8;" x="398.487273" xlink:href="#m55e1d9d5f3" y="307.584"/>
      </g>
     </g>
     <g id="text_10">
      <!-- 300 -->
      <g transform="translate(388.943523 322.182437)scale(0.1 -0.1)">
       <use xlink:href="#DejaVuSans-33"/>
       <use x="63.623047" xlink:href="#DejaVuSans-30"/>
       <use x="127.246094" xlink:href="#DejaVuSans-30"/>
      </g>
     </g>
    </g>
    <g id="text_11">
     <!-- Epochs -->
     <g transform="translate(218.244375 335.860562)scale(0.1 -0.1)">
      <defs>
       <path d="M 628 4666 
L 3578 4666 
L 3578 4134 
L 1259 4134 
L 1259 2753 
L 3481 2753 
L 3481 2222 
L 1259 2222 
L 1259 531 
L 3634 531 
L 3634 0 
L 628 0 
L 628 4666 
z
" id="DejaVuSans-45" transform="scale(0.015625)"/>
       <path d="M 1159 525 
L 1159 -1331 
L 581 -1331 
L 581 3500 
L 1159 3500 
L 1159 2969 
Q 1341 3281 1617 3432 
Q 1894 3584 2278 3584 
Q 2916 3584 3314 3078 
Q 3713 2572 3713 1747 
Q 3713 922 3314 415 
Q 2916 -91 2278 -91 
Q 1894 -91 1617 61 
Q 1341 213 1159 525 
z
M 3116 1747 
Q 3116 2381 2855 2742 
Q 2594 3103 2138 3103 
Q 1681 3103 1420 2742 
Q 1159 2381 1159 1747 
Q 1159 1113 1420 752 
Q 1681 391 2138 391 
Q 2594 391 2855 752 
Q 3116 1113 3116 1747 
z
" id="DejaVuSans-70" transform="scale(0.015625)"/>
       <path d="M 1959 3097 
Q 1497 3097 1228 2736 
Q 959 2375 959 1747 
Q 959 1119 1226 758 
Q 1494 397 1959 397 
Q 2419 397 2687 759 
Q 2956 1122 2956 1747 
Q 2956 2369 2687 2733 
Q 2419 3097 1959 3097 
z
M 1959 3584 
Q 2709 3584 3137 3096 
Q 3566 2609 3566 1747 
Q 3566 888 3137 398 
Q 2709 -91 1959 -91 
Q 1206 -91 779 398 
Q 353 888 353 1747 
Q 353 2609 779 3096 
Q 1206 3584 1959 3584 
z
" id="DejaVuSans-6f" transform="scale(0.015625)"/>
       <path d="M 3122 3366 
L 3122 2828 
Q 2878 2963 2633 3030 
Q 2388 3097 2138 3097 
Q 1578 3097 1268 2742 
Q 959 2388 959 1747 
Q 959 1106 1268 751 
Q 1578 397 2138 397 
Q 2388 397 2633 464 
Q 2878 531 3122 666 
L 3122 134 
Q 2881 22 2623 -34 
Q 2366 -91 2075 -91 
Q 1284 -91 818 406 
Q 353 903 353 1747 
Q 353 2603 823 3093 
Q 1294 3584 2113 3584 
Q 2378 3584 2631 3529 
Q 2884 3475 3122 3366 
z
" id="DejaVuSans-63" transform="scale(0.015625)"/>
       <path d="M 3513 2113 
L 3513 0 
L 2938 0 
L 2938 2094 
Q 2938 2591 2744 2837 
Q 2550 3084 2163 3084 
Q 1697 3084 1428 2787 
Q 1159 2491 1159 1978 
L 1159 0 
L 581 0 
L 581 4863 
L 1159 4863 
L 1159 2956 
Q 1366 3272 1645 3428 
Q 1925 3584 2291 3584 
Q 2894 3584 3203 3211 
Q 3513 2838 3513 2113 
z
" id="DejaVuSans-68" transform="scale(0.015625)"/>
       <path d="M 2834 3397 
L 2834 2853 
Q 2591 2978 2328 3040 
Q 2066 3103 1784 3103 
Q 1356 3103 1142 2972 
Q 928 2841 928 2578 
Q 928 2378 1081 2264 
Q 1234 2150 1697 2047 
L 1894 2003 
Q 2506 1872 2764 1633 
Q 3022 1394 3022 966 
Q 3022 478 2636 193 
Q 2250 -91 1575 -91 
Q 1294 -91 989 -36 
Q 684 19 347 128 
L 347 722 
Q 666 556 975 473 
Q 1284 391 1588 391 
Q 1994 391 2212 530 
Q 2431 669 2431 922 
Q 2431 1156 2273 1281 
Q 2116 1406 1581 1522 
L 1381 1569 
Q 847 1681 609 1914 
Q 372 2147 372 2553 
Q 372 3047 722 3315 
Q 1072 3584 1716 3584 
Q 2034 3584 2315 3537 
Q 2597 3491 2834 3397 
z
" id="DejaVuSans-73" transform="scale(0.015625)"/>
      </defs>
      <use xlink:href="#DejaVuSans-45"/>
      <use x="63.183594" xlink:href="#DejaVuSans-70"/>
      <use x="126.660156" xlink:href="#DejaVuSans-6f"/>
      <use x="187.841797" xlink:href="#DejaVuSans-63"/>
      <use x="242.822266" xlink:href="#DejaVuSans-68"/>
      <use x="306.201172" xlink:href="#DejaVuSans-73"/>
     </g>
    </g>
   </g>
   <g id="matplotlib.axis_2">
    <g id="ytick_1">
     <g id="line2d_11">
      <defs>
       <path d="M 0 0 
L -3.5 0 
" id="mb240f6f1ab" style="stroke:#000000;stroke-width:0.8;"/>
      </defs>
      <g>
       <use style="stroke:#000000;stroke-width:0.8;" x="57.6" xlink:href="#mb240f6f1ab" y="294.899231"/>
      </g>
     </g>
     <g id="text_12">
      <!-- 20 -->
      <g transform="translate(37.875 298.69845)scale(0.1 -0.1)">
       <use xlink:href="#DejaVuSans-32"/>
       <use x="63.623047" xlink:href="#DejaVuSans-30"/>
      </g>
     </g>
    </g>
    <g id="ytick_2">
     <g id="line2d_12">
      <g>
       <use style="stroke:#000000;stroke-width:0.8;" x="57.6" xlink:href="#mb240f6f1ab" y="262.900924"/>
      </g>
     </g>
     <g id="text_13">
      <!-- 30 -->
      <g transform="translate(37.875 266.700143)scale(0.1 -0.1)">
       <use xlink:href="#DejaVuSans-33"/>
       <use x="63.623047" xlink:href="#DejaVuSans-30"/>
      </g>
     </g>
    </g>
    <g id="ytick_3">
     <g id="line2d_13">
      <g>
       <use style="stroke:#000000;stroke-width:0.8;" x="57.6" xlink:href="#mb240f6f1ab" y="230.902617"/>
      </g>
     </g>
     <g id="text_14">
      <!-- 40 -->
      <g transform="translate(37.875 234.701836)scale(0.1 -0.1)">
       <use xlink:href="#DejaVuSans-34"/>
       <use x="63.623047" xlink:href="#DejaVuSans-30"/>
      </g>
     </g>
    </g>
    <g id="ytick_4">
     <g id="line2d_14">
      <g>
       <use style="stroke:#000000;stroke-width:0.8;" x="57.6" xlink:href="#mb240f6f1ab" y="198.90431"/>
      </g>
     </g>
     <g id="text_15">
      <!-- 50 -->
      <g transform="translate(37.875 202.703529)scale(0.1 -0.1)">
       <defs>
        <path d="M 691 4666 
L 3169 4666 
L 3169 4134 
L 1269 4134 
L 1269 2991 
Q 1406 3038 1543 3061 
Q 1681 3084 1819 3084 
Q 2600 3084 3056 2656 
Q 3513 2228 3513 1497 
Q 3513 744 3044 326 
Q 2575 -91 1722 -91 
Q 1428 -91 1123 -41 
Q 819 9 494 109 
L 494 744 
Q 775 591 1075 516 
Q 1375 441 1709 441 
Q 2250 441 2565 725 
Q 2881 1009 2881 1497 
Q 2881 1984 2565 2268 
Q 2250 2553 1709 2553 
Q 1456 2553 1204 2497 
Q 953 2441 691 2322 
L 691 4666 
z
" id="DejaVuSans-35" transform="scale(0.015625)"/>
       </defs>
       <use xlink:href="#DejaVuSans-35"/>
       <use x="63.623047" xlink:href="#DejaVuSans-30"/>
      </g>
     </g>
    </g>
    <g id="ytick_5">
     <g id="line2d_15">
      <g>
       <use style="stroke:#000000;stroke-width:0.8;" x="57.6" xlink:href="#mb240f6f1ab" y="166.906003"/>
      </g>
     </g>
     <g id="text_16">
      <!-- 60 -->
      <g transform="translate(37.875 170.705222)scale(0.1 -0.1)">
       <use xlink:href="#DejaVuSans-36"/>
       <use x="63.623047" xlink:href="#DejaVuSans-30"/>
      </g>
     </g>
    </g>
    <g id="ytick_6">
     <g id="line2d_16">
      <g>
       <use style="stroke:#000000;stroke-width:0.8;" x="57.6" xlink:href="#mb240f6f1ab" y="134.907696"/>
      </g>
     </g>
     <g id="text_17">
      <!-- 70 -->
      <g transform="translate(37.875 138.706915)scale(0.1 -0.1)">
       <use xlink:href="#DejaVuSans-37"/>
       <use x="63.623047" xlink:href="#DejaVuSans-30"/>
      </g>
     </g>
    </g>
    <g id="ytick_7">
     <g id="line2d_17">
      <g>
       <use style="stroke:#000000;stroke-width:0.8;" x="57.6" xlink:href="#mb240f6f1ab" y="102.909389"/>
      </g>
     </g>
     <g id="text_18">
      <!-- 80 -->
      <g transform="translate(37.875 106.708608)scale(0.1 -0.1)">
       <defs>
        <path d="M 2034 2216 
Q 1584 2216 1326 1975 
Q 1069 1734 1069 1313 
Q 1069 891 1326 650 
Q 1584 409 2034 409 
Q 2484 409 2743 651 
Q 3003 894 3003 1313 
Q 3003 1734 2745 1975 
Q 2488 2216 2034 2216 
z
M 1403 2484 
Q 997 2584 770 2862 
Q 544 3141 544 3541 
Q 544 4100 942 4425 
Q 1341 4750 2034 4750 
Q 2731 4750 3128 4425 
Q 3525 4100 3525 3541 
Q 3525 3141 3298 2862 
Q 3072 2584 2669 2484 
Q 3125 2378 3379 2068 
Q 3634 1759 3634 1313 
Q 3634 634 3220 271 
Q 2806 -91 2034 -91 
Q 1263 -91 848 271 
Q 434 634 434 1313 
Q 434 1759 690 2068 
Q 947 2378 1403 2484 
z
M 1172 3481 
Q 1172 3119 1398 2916 
Q 1625 2713 2034 2713 
Q 2441 2713 2670 2916 
Q 2900 3119 2900 3481 
Q 2900 3844 2670 4047 
Q 2441 4250 2034 4250 
Q 1625 4250 1398 4047 
Q 1172 3844 1172 3481 
z
" id="DejaVuSans-38" transform="scale(0.015625)"/>
       </defs>
       <use xlink:href="#DejaVuSans-38"/>
       <use x="63.623047" xlink:href="#DejaVuSans-30"/>
      </g>
     </g>
    </g>
    <g id="ytick_8">
     <g id="line2d_18">
      <g>
       <use style="stroke:#000000;stroke-width:0.8;" x="57.6" xlink:href="#mb240f6f1ab" y="70.911082"/>
      </g>
     </g>
     <g id="text_19">
      <!-- 90 -->
      <g transform="translate(37.875 74.710301)scale(0.1 -0.1)">
       <defs>
        <path d="M 703 97 
L 703 672 
Q 941 559 1184 500 
Q 1428 441 1663 441 
Q 2288 441 2617 861 
Q 2947 1281 2994 2138 
Q 2813 1869 2534 1725 
Q 2256 1581 1919 1581 
Q 1219 1581 811 2004 
Q 403 2428 403 3163 
Q 403 3881 828 4315 
Q 1253 4750 1959 4750 
Q 2769 4750 3195 4129 
Q 3622 3509 3622 2328 
Q 3622 1225 3098 567 
Q 2575 -91 1691 -91 
Q 1453 -91 1209 -44 
Q 966 3 703 97 
z
M 1959 2075 
Q 2384 2075 2632 2365 
Q 2881 2656 2881 3163 
Q 2881 3666 2632 3958 
Q 2384 4250 1959 4250 
Q 1534 4250 1286 3958 
Q 1038 3666 1038 3163 
Q 1038 2656 1286 2365 
Q 1534 2075 1959 2075 
z
" id="DejaVuSans-39" transform="scale(0.015625)"/>
       </defs>
       <use xlink:href="#DejaVuSans-39"/>
       <use x="63.623047" xlink:href="#DejaVuSans-30"/>
      </g>
     </g>
    </g>
    <g id="text_20">
     <!-- Accuracy -->
     <g transform="translate(31.795312 197.356125)rotate(-90)scale(0.1 -0.1)">
      <defs>
       <path d="M 2188 4044 
L 1331 1722 
L 3047 1722 
L 2188 4044 
z
M 1831 4666 
L 2547 4666 
L 4325 0 
L 3669 0 
L 3244 1197 
L 1141 1197 
L 716 0 
L 50 0 
L 1831 4666 
z
" id="DejaVuSans-41" transform="scale(0.015625)"/>
       <path d="M 544 1381 
L 544 3500 
L 1119 3500 
L 1119 1403 
Q 1119 906 1312 657 
Q 1506 409 1894 409 
Q 2359 409 2629 706 
Q 2900 1003 2900 1516 
L 2900 3500 
L 3475 3500 
L 3475 0 
L 2900 0 
L 2900 538 
Q 2691 219 2414 64 
Q 2138 -91 1772 -91 
Q 1169 -91 856 284 
Q 544 659 544 1381 
z
M 1991 3584 
L 1991 3584 
z
" id="DejaVuSans-75" transform="scale(0.015625)"/>
       <path d="M 2631 2963 
Q 2534 3019 2420 3045 
Q 2306 3072 2169 3072 
Q 1681 3072 1420 2755 
Q 1159 2438 1159 1844 
L 1159 0 
L 581 0 
L 581 3500 
L 1159 3500 
L 1159 2956 
Q 1341 3275 1631 3429 
Q 1922 3584 2338 3584 
Q 2397 3584 2469 3576 
Q 2541 3569 2628 3553 
L 2631 2963 
z
" id="DejaVuSans-72" transform="scale(0.015625)"/>
       <path d="M 2194 1759 
Q 1497 1759 1228 1600 
Q 959 1441 959 1056 
Q 959 750 1161 570 
Q 1363 391 1709 391 
Q 2188 391 2477 730 
Q 2766 1069 2766 1631 
L 2766 1759 
L 2194 1759 
z
M 3341 1997 
L 3341 0 
L 2766 0 
L 2766 531 
Q 2569 213 2275 61 
Q 1981 -91 1556 -91 
Q 1019 -91 701 211 
Q 384 513 384 1019 
Q 384 1609 779 1909 
Q 1175 2209 1959 2209 
L 2766 2209 
L 2766 2266 
Q 2766 2663 2505 2880 
Q 2244 3097 1772 3097 
Q 1472 3097 1187 3025 
Q 903 2953 641 2809 
L 641 3341 
Q 956 3463 1253 3523 
Q 1550 3584 1831 3584 
Q 2591 3584 2966 3190 
Q 3341 2797 3341 1997 
z
" id="DejaVuSans-61" transform="scale(0.015625)"/>
       <path d="M 2059 -325 
Q 1816 -950 1584 -1140 
Q 1353 -1331 966 -1331 
L 506 -1331 
L 506 -850 
L 844 -850 
Q 1081 -850 1212 -737 
Q 1344 -625 1503 -206 
L 1606 56 
L 191 3500 
L 800 3500 
L 1894 763 
L 2988 3500 
L 3597 3500 
L 2059 -325 
z
" id="DejaVuSans-79" transform="scale(0.015625)"/>
      </defs>
      <use xlink:href="#DejaVuSans-41"/>
      <use x="66.658203" xlink:href="#DejaVuSans-63"/>
      <use x="121.638672" xlink:href="#DejaVuSans-63"/>
      <use x="176.619141" xlink:href="#DejaVuSans-75"/>
      <use x="239.998047" xlink:href="#DejaVuSans-72"/>
      <use x="281.111328" xlink:href="#DejaVuSans-61"/>
      <use x="342.390625" xlink:href="#DejaVuSans-63"/>
      <use x="397.371094" xlink:href="#DejaVuSans-79"/>
     </g>
    </g>
   </g>
   <g id="line2d_19">
    <path clip-path="url(#p43bf087c21)" d="M 73.832727 295.488 
L 74.918528 270.842904 
L 76.00433 255.541314 
L 77.090131 249.314443 
L 78.175932 241.199672 
L 79.261733 232.016158 
L 80.347534 225.93008 
L 82.519137 217.303337 
L 83.604938 211.95322 
L 84.690739 207.294266 
L 85.77654 208.753389 
L 86.862341 201.873753 
L 87.948142 197.739572 
L 89.033943 196.63243 
L 90.119745 192.632642 
L 91.205546 189.157626 
L 92.291347 187.250527 
L 93.377148 188.581656 
L 94.462949 187.621707 
L 95.54875 182.533976 
L 96.634552 178.950166 
L 97.720353 177.907021 
L 98.806154 180.185301 
L 99.891955 172.192124 
L 100.977756 169.881846 
L 102.063557 173.76644 
L 103.149358 170.956989 
L 104.23516 170.489814 
L 105.320961 175.795133 
L 106.406762 175.09757 
L 107.492563 170.611407 
L 108.578364 169.830649 
L 109.664165 161.191106 
L 110.749967 169.664257 
L 111.835768 164.352538 
L 112.921569 165.338086 
L 114.00737 166.669216 
L 115.093171 163.718972 
L 116.178972 166.528423 
L 117.264773 160.794327 
L 118.350575 158.663239 
L 119.436376 163.834166 
L 120.522177 163.814967 
L 121.607978 162.285448 
L 122.693779 158.157666 
L 123.77958 152.890745 
L 124.865382 156.404159 
L 125.951183 156.218569 
L 127.036984 151.015644 
L 128.122785 150.350079 
L 129.208586 156.890533 
L 130.294387 154.49706 
L 131.380189 151.636411 
L 132.46599 152.167583 
L 133.551791 156.19297 
L 134.637592 146.75347 
L 135.723393 151.233233 
L 137.894995 153.185129 
L 138.980797 153.063536 
L 140.066598 153.748299 
L 141.152399 149.902103 
L 142.2382 148.180594 
L 143.324001 151.790003 
L 144.409802 147.111851 
L 145.495604 154.855441 
L 146.581405 150.375678 
L 147.667206 148.974152 
L 148.753007 151.949995 
L 149.838808 142.222509 
L 150.924609 148.385383 
L 152.01041 153.652305 
L 153.096212 150.71486 
L 154.182013 147.003056 
L 155.267814 139.285065 
L 156.353615 142.728083 
L 157.439416 141.224162 
L 158.525217 141.134567 
L 159.611019 143.502442 
L 160.69682 144.219204 
L 162.868422 138.446709 
L 163.954223 145.665527 
L 165.040024 138.069129 
L 166.125825 143.137661 
L 167.211627 139.797038 
L 168.297428 141.883327 
L 169.383229 144.603183 
L 171.554831 135.125285 
L 172.640632 139.099475 
L 173.726434 141.505747 
L 174.812235 138.689896 
L 175.898036 136.245226 
L 176.983837 146.190299 
L 178.069638 136.098033 
L 179.155439 140.104221 
L 180.24124 140.564997 
L 181.327042 136.405217 
L 182.412843 134.018143 
L 183.498644 136.782797 
L 184.584445 134.741305 
L 185.670246 135.509264 
L 186.756047 141.953724 
L 187.841849 130.907908 
L 188.92765 128.527234 
L 190.013451 138.24192 
L 191.099252 134.27413 
L 192.185053 138.664298 
L 193.270854 129.512782 
L 194.356656 127.631281 
L 195.442457 140.5138 
L 196.528258 134.139737 
L 197.614059 135.048489 
L 198.69986 137.659551 
L 199.785661 131.62467 
L 200.871462 134.677309 
L 201.957264 123.733888 
L 203.043065 129.237596 
L 204.128866 128.97521 
L 205.214667 134.421322 
L 206.300468 133.960546 
L 207.386269 133.243784 
L 208.472071 131.170294 
L 209.557872 133.864552 
L 210.643673 132.802208 
L 211.729474 134.222933 
L 212.815275 125.033019 
L 213.901076 128.853617 
L 214.986877 139.624247 
L 216.072679 130.600724 
L 217.15848 139.150672 
L 219.330082 120.444462 
L 220.415883 131.675867 
L 221.501684 127.151307 
L 222.587486 132.591019 
L 223.673287 125.173811 
L 224.759088 126.434545 
L 225.844889 128.309645 
L 226.93069 131.759063 
L 228.016491 129.967158 
L 230.188094 131.771862 
L 231.273895 131.547874 
L 232.359696 134.018143 
L 233.445497 118.902143 
L 234.531298 125.20581 
L 235.617099 127.612082 
L 236.702901 127.432892 
L 237.788702 122.825136 
L 238.874503 127.202504 
L 239.960304 125.96097 
L 241.046105 132.783009 
L 242.131906 124.476248 
L 243.217708 129.327192 
L 244.303509 134.869298 
L 245.38931 121.474807 
L 246.475111 127.45849 
L 247.560912 127.592883 
L 248.646713 129.1736 
L 249.732514 127.919266 
L 250.818316 126.428145 
L 251.904117 123.676291 
L 252.989918 125.173811 
L 254.075719 128.482436 
L 255.16152 128.802419 
L 256.247321 118.044589 
L 257.333123 128.565632 
L 258.418924 127.989662 
L 259.504725 134.146137 
L 260.590526 120.310069 
L 261.676327 118.594959 
L 262.762128 124.866628 
L 263.847929 120.271671 
L 264.933731 129.237596 
L 266.019532 128.808819 
L 267.105333 119.791696 
L 268.191134 127.906467 
L 269.276935 122.306763 
L 270.362736 124.201063 
L 271.448538 117.372624 
L 272.534339 125.173811 
L 273.62014 121.276418 
L 274.705941 127.164106 
L 275.791742 124.162665 
L 276.877543 120.348467 
L 277.963344 118.972539 
L 279.049146 126.952917 
L 280.134947 124.898626 
L 281.220748 119.273324 
L 282.306549 120.188475 
L 283.39235 118.716553 
L 284.478151 123.055523 
L 285.563953 124.879427 
L 286.649754 118.77415 
L 287.735555 117.839799 
L 288.821356 122.140372 
L 289.907157 116.758257 
L 290.992958 126.594536 
L 292.07876 110.82577 
L 293.164561 114.979151 
L 294.250362 112.272094 
L 295.336163 121.014031 
L 296.421964 117.922995 
L 297.507765 109.091462 
L 298.593566 117.340626 
L 299.679368 112.124902 
L 300.765169 130.632723 
L 301.85097 115.779108 
L 302.936771 109.795425 
L 304.022572 107.798731 
L 305.108373 116.49587 
L 306.194175 116.271882 
L 307.279976 111.376141 
L 308.365777 117.731005 
L 309.451578 115.535921 
L 310.537379 113.603224 
L 311.62318 118.031789 
L 312.708981 116.380677 
L 313.794783 122.415557 
L 314.880584 110.537786 
L 315.966385 109.13626 
L 317.052186 112.214497 
L 318.137987 107.158765 
L 319.223788 110.013013 
L 320.30959 119.068534 
L 321.395391 117.379024 
L 322.481192 119.465313 
L 323.566993 119.708501 
L 324.652794 107.574743 
L 325.738595 114.595171 
L 326.824396 114.563173 
L 327.910198 113.85281 
L 328.995999 118.159782 
L 330.0818 111.753721 
L 331.167601 115.535921 
L 332.253402 111.107356 
L 333.339203 110.588983 
L 334.425005 113.884809 
L 335.510806 116.579066 
L 336.596607 114.063999 
L 337.682408 119.983686 
L 338.768209 120.073281 
L 340.939811 115.004749 
L 342.025613 111.536133 
L 343.111414 111.529733 
L 344.197215 117.027042 
L 345.283016 109.801825 
L 346.368817 114.204792 
L 347.454618 114.24319 
L 348.54042 107.600341 
L 349.626221 119.202927 
L 350.712022 118.249378 
L 351.797823 111.728123 
L 352.883624 113.449632 
L 353.969425 120.726047 
L 355.055227 111.561732 
L 356.141028 117.513417 
L 357.226829 111.548932 
L 358.31263 120.681249 
L 359.398431 115.689513 
L 360.484232 104.278917 
L 361.570033 119.311721 
L 362.655835 111.817718 
L 363.741636 110.870568 
L 364.827437 114.000003 
L 365.913238 110.723376 
L 366.999039 111.683325 
L 368.08484 110.870568 
L 369.170642 107.696336 
L 370.256443 112.080104 
L 371.342244 113.961605 
L 372.428045 112.195298 
L 373.513846 112.297693 
L 374.599647 106.045223 
L 375.685448 123.855481 
L 376.77125 116.777456 
L 377.857051 111.164953 
L 378.942852 110.627381 
L 380.028653 112.400087 
L 381.114454 106.467601 
L 382.200255 113.347237 
L 383.286057 110.352196 
L 384.371858 106.422803 
L 385.457659 110.601782 
L 386.54346 110.806572 
L 387.629261 115.798307 
L 388.715062 116.451073 
L 389.800863 104.714094 
L 390.886665 110.928165 
L 391.972466 110.160206 
L 393.058267 111.004961 
L 394.144068 107.389152 
L 395.229869 119.055735 
L 396.31567 115.081545 
L 397.401472 112.419286 
L 398.487273 107.849928 
L 398.487273 107.849928 
" style="fill:none;stroke:#1f77b4;stroke-linecap:square;stroke-width:1.5;"/>
   </g>
   <g id="line2d_20">
    <path clip-path="url(#p43bf087c21)" d="M 73.832727 262.068968 
L 74.918528 226.678841 
L 76.00433 212.823574 
L 77.090131 203.288078 
L 78.175932 184.53707 
L 79.261733 187.320923 
L 80.347534 174.041626 
L 81.433335 154.522658 
L 82.519137 156.794538 
L 83.604938 149.530923 
L 84.690739 153.946689 
L 85.77654 135.931642 
L 86.862341 138.523505 
L 87.948142 132.411828 
L 89.033943 127.100109 
L 90.119745 148.059 
L 92.291347 124.82823 
L 93.377148 116.732658 
L 94.462949 120.412463 
L 95.54875 117.788602 
L 96.634552 126.748128 
L 97.720353 116.540668 
L 98.806154 108.989068 
L 99.891955 110.684978 
L 100.977756 102.813394 
L 102.063557 110.65298 
L 103.149358 105.213267 
L 104.23516 103.805342 
L 105.320961 104.381311 
L 107.492563 99.965545 
L 108.578364 98.845604 
L 109.664165 94.973809 
L 110.749967 96.125748 
L 111.835768 100.029542 
L 112.921569 97.053699 
L 114.00737 95.357789 
L 115.093171 94.749821 
L 116.178972 88.958128 
L 117.264773 86.718246 
L 118.350575 88.862133 
L 119.436376 95.773767 
L 120.522177 85.88629 
L 121.607978 108.893073 
L 122.693779 90.590041 
L 123.77958 86.430261 
L 124.865382 84.990337 
L 125.951183 84.862344 
L 127.036984 82.974444 
L 128.122785 91.358001 
L 129.208586 85.790295 
L 130.294387 93.43789 
L 131.380189 82.878449 
L 132.46599 82.494469 
L 133.551791 81.214537 
L 134.637592 81.886502 
L 135.723393 79.518627 
L 136.809194 87.77419 
L 137.894995 80.702564 
L 138.980797 80.766561 
L 140.066598 81.310532 
L 141.152399 82.750456 
L 142.2382 78.494681 
L 143.324001 76.766773 
L 144.409802 80.766561 
L 145.495604 79.998602 
L 146.581405 79.518627 
L 147.667206 80.190591 
L 148.753007 82.910447 
L 149.838808 75.390845 
L 150.924609 76.478788 
L 152.01041 79.518627 
L 153.096212 80.350583 
L 154.182013 82.750456 
L 155.267814 77.598729 
L 156.353615 74.974867 
L 157.439416 75.006866 
L 158.525217 78.302691 
L 159.611019 78.1427 
L 160.69682 74.750879 
L 161.782621 77.406739 
L 162.868422 76.606781 
L 163.954223 73.918923 
L 165.040024 79.006654 
L 166.125825 73.662937 
L 167.211627 74.494893 
L 168.297428 76.926764 
L 169.383229 71.775037 
L 170.46903 73.79093 
L 171.554831 71.391057 
L 172.640632 78.494681 
L 173.726434 70.751091 
L 174.812235 76.830769 
L 175.898036 73.278957 
L 176.983837 70.783089 
L 178.069638 77.822717 
L 179.155439 71.039076 
L 180.24124 70.01513 
L 181.327042 70.271116 
L 182.412843 72.383004 
L 183.498644 69.727145 
L 184.584445 69.343165 
L 185.670246 69.535155 
L 186.756047 70.111125 
L 187.841849 78.206696 
L 188.92765 69.215172 
L 190.013451 67.16728 
L 191.099252 71.231065 
L 192.185053 68.479211 
L 193.270854 69.983131 
L 194.356656 70.367111 
L 195.442457 67.967238 
L 196.528258 68.287221 
L 197.614059 66.335324 
L 198.69986 74.814876 
L 199.785661 67.391269 
L 200.871462 65.951345 
L 201.957264 65.599363 
L 203.043065 72.734986 
L 204.128866 65.567365 
L 205.214667 69.183174 
L 206.300468 68.223225 
L 207.386269 66.623309 
L 208.472071 67.231277 
L 209.557872 68.415214 
L 210.643673 65.343377 
L 211.729474 66.399321 
L 212.815275 66.111336 
L 213.901076 66.175333 
L 214.986877 68.095231 
L 216.072679 64.447424 
L 217.15848 64.927399 
L 218.244281 66.431319 
L 219.330082 64.095443 
L 220.415883 64.095443 
L 221.501684 64.479423 
L 222.587486 65.695358 
L 223.673287 63.711463 
L 224.759088 64.991396 
L 225.844889 63.935451 
L 226.93069 67.679253 
L 228.016491 62.495528 
L 229.102292 66.04734 
L 231.273895 62.239541 
L 232.359696 66.879296 
L 233.445497 68.095231 
L 234.531298 63.007501 
L 235.617099 65.119389 
L 236.702901 64.703411 
L 237.788702 64.671413 
L 238.874503 62.463529 
L 239.960304 63.711463 
L 241.046105 65.66336 
L 242.131906 65.599363 
L 243.217708 62.303538 
L 244.303509 65.47137 
L 245.38931 61.663572 
L 246.475111 64.575418 
L 247.560912 62.591523 
L 248.646713 63.39148 
L 249.732514 61.599575 
L 250.818316 61.631573 
L 251.904117 69.471159 
L 252.989918 62.463529 
L 254.075719 61.183597 
L 255.16152 61.983555 
L 256.247321 62.559524 
L 257.333123 61.983555 
L 258.418924 62.111548 
L 259.504725 63.96745 
L 260.590526 61.439584 
L 262.762128 64.607416 
L 263.847929 64.255435 
L 264.933731 62.015553 
L 266.019532 61.983555 
L 267.105333 64.223436 
L 268.191134 59.743673 
L 270.362736 61.407585 
L 271.448538 61.855562 
L 272.534339 60.991607 
L 273.62014 59.935663 
L 274.705941 60.607628 
L 275.791742 61.439584 
L 276.877543 62.015553 
L 277.963344 59.711675 
L 279.049146 62.495528 
L 280.134947 60.223648 
L 281.220748 62.431531 
L 282.306549 60.863614 
L 283.39235 62.335536 
L 284.478151 60.223648 
L 285.563953 59.42369 
L 286.649754 60.415638 
L 287.735555 59.935663 
L 288.821356 59.167704 
L 289.907157 61.055604 
L 290.992958 59.487687 
L 292.07876 56.863826 
L 293.164561 55.999871 
L 294.250362 56.191861 
L 296.421964 55.711887 
L 297.507765 56.063868 
L 299.679368 55.679888 
L 300.765169 55.615892 
L 301.85097 55.199914 
L 302.936771 55.103919 
L 304.022572 55.167915 
L 305.108373 54.975926 
L 306.194175 55.775883 
L 307.279976 56.159863 
L 308.365777 55.583893 
L 309.451578 55.551895 
L 310.537379 55.007924 
L 311.62318 55.4559 
L 312.708981 55.103919 
L 313.794783 55.231912 
L 314.880584 55.967873 
L 315.966385 55.039922 
L 317.052186 55.423902 
L 318.137987 55.487898 
L 319.223788 55.775883 
L 320.30959 54.655942 
L 321.395391 54.815934 
L 322.481192 55.135917 
L 323.566993 54.783936 
L 325.738595 55.4559 
L 326.824396 55.327907 
L 327.910198 54.591946 
L 330.0818 54.783936 
L 331.167601 55.423902 
L 332.253402 55.103919 
L 333.339203 55.135917 
L 334.425005 54.943927 
L 335.510806 55.327907 
L 336.596607 54.687941 
L 337.682408 55.391903 
L 338.768209 54.975926 
L 340.939811 54.943927 
L 342.025613 55.327907 
L 344.197215 54.687941 
L 345.283016 55.423902 
L 346.368817 54.879931 
L 347.454618 54.687941 
L 348.54042 55.64789 
L 349.626221 55.551895 
L 350.712022 55.103919 
L 351.797823 54.367958 
L 352.883624 55.007924 
L 353.969425 54.431954 
L 355.055227 54.527949 
L 357.226829 55.743885 
L 358.31263 54.527949 
L 359.398431 55.199914 
L 360.484232 54.527949 
L 361.570033 55.295909 
L 363.741636 54.943927 
L 364.827437 54.815934 
L 365.913238 55.519897 
L 366.999039 54.815934 
L 368.08484 55.167915 
L 369.170642 54.783936 
L 370.256443 54.527949 
L 371.342244 55.231912 
L 372.428045 55.26391 
L 373.513846 54.687941 
L 374.599647 55.679888 
L 375.685448 54.335959 
L 376.77125 54.687941 
L 377.857051 54.623944 
L 378.942852 54.335959 
L 380.028653 54.559948 
L 381.114454 53.823986 
L 382.200255 54.015976 
L 384.371858 54.015976 
L 385.457659 54.271963 
L 386.54346 53.855985 
L 387.629261 54.14397 
L 388.715062 54.14397 
L 389.800863 53.631997 
L 390.886665 53.919981 
L 393.058267 53.568 
L 394.144068 54.14397 
L 395.229869 54.047975 
L 396.31567 54.591946 
L 397.401472 53.695993 
L 398.487273 53.855985 
L 398.487273 53.855985 
" style="fill:none;stroke:#ff7f0e;stroke-linecap:square;stroke-width:1.5;"/>
   </g>
   <g id="patch_3">
    <path d="M 57.6 307.584 
L 57.6 41.472 
" style="fill:none;stroke:#000000;stroke-linecap:square;stroke-linejoin:miter;stroke-width:0.8;"/>
   </g>
   <g id="patch_4">
    <path d="M 414.72 307.584 
L 414.72 41.472 
" style="fill:none;stroke:#000000;stroke-linecap:square;stroke-linejoin:miter;stroke-width:0.8;"/>
   </g>
   <g id="patch_5">
    <path d="M 57.6 307.584 
L 414.72 307.584 
" style="fill:none;stroke:#000000;stroke-linecap:square;stroke-linejoin:miter;stroke-width:0.8;"/>
   </g>
   <g id="patch_6">
    <path d="M 57.6 41.472 
L 414.72 41.472 
" style="fill:none;stroke:#000000;stroke-linecap:square;stroke-linejoin:miter;stroke-width:0.8;"/>
   </g>
   <g id="text_21">
    <!-- Training and Validation Accuracy -->
    <g transform="translate(138.4575 35.472)scale(0.12 -0.12)">
     <defs>
      <path d="M -19 4666 
L 3928 4666 
L 3928 4134 
L 2272 4134 
L 2272 0 
L 1638 0 
L 1638 4134 
L -19 4134 
L -19 4666 
z
" id="DejaVuSans-54" transform="scale(0.015625)"/>
      <path d="M 603 3500 
L 1178 3500 
L 1178 0 
L 603 0 
L 603 3500 
z
M 603 4863 
L 1178 4863 
L 1178 4134 
L 603 4134 
L 603 4863 
z
" id="DejaVuSans-69" transform="scale(0.015625)"/>
      <path d="M 3513 2113 
L 3513 0 
L 2938 0 
L 2938 2094 
Q 2938 2591 2744 2837 
Q 2550 3084 2163 3084 
Q 1697 3084 1428 2787 
Q 1159 2491 1159 1978 
L 1159 0 
L 581 0 
L 581 3500 
L 1159 3500 
L 1159 2956 
Q 1366 3272 1645 3428 
Q 1925 3584 2291 3584 
Q 2894 3584 3203 3211 
Q 3513 2838 3513 2113 
z
" id="DejaVuSans-6e" transform="scale(0.015625)"/>
      <path d="M 2906 1791 
Q 2906 2416 2648 2759 
Q 2391 3103 1925 3103 
Q 1463 3103 1205 2759 
Q 947 2416 947 1791 
Q 947 1169 1205 825 
Q 1463 481 1925 481 
Q 2391 481 2648 825 
Q 2906 1169 2906 1791 
z
M 3481 434 
Q 3481 -459 3084 -895 
Q 2688 -1331 1869 -1331 
Q 1566 -1331 1297 -1286 
Q 1028 -1241 775 -1147 
L 775 -588 
Q 1028 -725 1275 -790 
Q 1522 -856 1778 -856 
Q 2344 -856 2625 -561 
Q 2906 -266 2906 331 
L 2906 616 
Q 2728 306 2450 153 
Q 2172 0 1784 0 
Q 1141 0 747 490 
Q 353 981 353 1791 
Q 353 2603 747 3093 
Q 1141 3584 1784 3584 
Q 2172 3584 2450 3431 
Q 2728 3278 2906 2969 
L 2906 3500 
L 3481 3500 
L 3481 434 
z
" id="DejaVuSans-67" transform="scale(0.015625)"/>
      <path id="DejaVuSans-20" transform="scale(0.015625)"/>
      <path d="M 2906 2969 
L 2906 4863 
L 3481 4863 
L 3481 0 
L 2906 0 
L 2906 525 
Q 2725 213 2448 61 
Q 2172 -91 1784 -91 
Q 1150 -91 751 415 
Q 353 922 353 1747 
Q 353 2572 751 3078 
Q 1150 3584 1784 3584 
Q 2172 3584 2448 3432 
Q 2725 3281 2906 2969 
z
M 947 1747 
Q 947 1113 1208 752 
Q 1469 391 1925 391 
Q 2381 391 2643 752 
Q 2906 1113 2906 1747 
Q 2906 2381 2643 2742 
Q 2381 3103 1925 3103 
Q 1469 3103 1208 2742 
Q 947 2381 947 1747 
z
" id="DejaVuSans-64" transform="scale(0.015625)"/>
      <path d="M 1831 0 
L 50 4666 
L 709 4666 
L 2188 738 
L 3669 4666 
L 4325 4666 
L 2547 0 
L 1831 0 
z
" id="DejaVuSans-56" transform="scale(0.015625)"/>
      <path d="M 603 4863 
L 1178 4863 
L 1178 0 
L 603 0 
L 603 4863 
z
" id="DejaVuSans-6c" transform="scale(0.015625)"/>
      <path d="M 1172 4494 
L 1172 3500 
L 2356 3500 
L 2356 3053 
L 1172 3053 
L 1172 1153 
Q 1172 725 1289 603 
Q 1406 481 1766 481 
L 2356 481 
L 2356 0 
L 1766 0 
Q 1100 0 847 248 
Q 594 497 594 1153 
L 594 3053 
L 172 3053 
L 172 3500 
L 594 3500 
L 594 4494 
L 1172 4494 
z
" id="DejaVuSans-74" transform="scale(0.015625)"/>
     </defs>
     <use xlink:href="#DejaVuSans-54"/>
     <use x="46.333984" xlink:href="#DejaVuSans-72"/>
     <use x="87.447266" xlink:href="#DejaVuSans-61"/>
     <use x="148.726562" xlink:href="#DejaVuSans-69"/>
     <use x="176.509766" xlink:href="#DejaVuSans-6e"/>
     <use x="239.888672" xlink:href="#DejaVuSans-69"/>
     <use x="267.671875" xlink:href="#DejaVuSans-6e"/>
     <use x="331.050781" xlink:href="#DejaVuSans-67"/>
     <use x="394.527344" xlink:href="#DejaVuSans-20"/>
     <use x="426.314453" xlink:href="#DejaVuSans-61"/>
     <use x="487.59375" xlink:href="#DejaVuSans-6e"/>
     <use x="550.972656" xlink:href="#DejaVuSans-64"/>
     <use x="614.449219" xlink:href="#DejaVuSans-20"/>
     <use x="646.236328" xlink:href="#DejaVuSans-56"/>
     <use x="706.894531" xlink:href="#DejaVuSans-61"/>
     <use x="768.173828" xlink:href="#DejaVuSans-6c"/>
     <use x="795.957031" xlink:href="#DejaVuSans-69"/>
     <use x="823.740234" xlink:href="#DejaVuSans-64"/>
     <use x="887.216797" xlink:href="#DejaVuSans-61"/>
     <use x="948.496094" xlink:href="#DejaVuSans-74"/>
     <use x="987.705078" xlink:href="#DejaVuSans-69"/>
     <use x="1015.488281" xlink:href="#DejaVuSans-6f"/>
     <use x="1076.669922" xlink:href="#DejaVuSans-6e"/>
     <use x="1140.048828" xlink:href="#DejaVuSans-20"/>
     <use x="1171.835938" xlink:href="#DejaVuSans-41"/>
     <use x="1238.494141" xlink:href="#DejaVuSans-63"/>
     <use x="1293.474609" xlink:href="#DejaVuSans-63"/>
     <use x="1348.455078" xlink:href="#DejaVuSans-75"/>
     <use x="1411.833984" xlink:href="#DejaVuSans-72"/>
     <use x="1452.947266" xlink:href="#DejaVuSans-61"/>
     <use x="1514.226562" xlink:href="#DejaVuSans-63"/>
     <use x="1569.207031" xlink:href="#DejaVuSans-79"/>
    </g>
   </g>
   <g id="legend_1">
    <g id="patch_7">
     <path d="M 277.504375 302.584 
L 407.72 302.584 
Q 409.72 302.584 409.72 300.584 
L 409.72 272.22775 
Q 409.72 270.22775 407.72 270.22775 
L 277.504375 270.22775 
Q 275.504375 270.22775 275.504375 272.22775 
L 275.504375 300.584 
Q 275.504375 302.584 277.504375 302.584 
z
" style="fill:#ffffff;opacity:0.8;stroke:#cccccc;stroke-linejoin:miter;"/>
    </g>
    <g id="line2d_21">
     <path d="M 279.504375 278.326187 
L 299.504375 278.326187 
" style="fill:none;stroke:#1f77b4;stroke-linecap:square;stroke-width:1.5;"/>
    </g>
    <g id="line2d_22"/>
    <g id="text_22">
     <!-- Train Accuracy -->
     <g transform="translate(307.504375 281.826187)scale(0.1 -0.1)">
      <use xlink:href="#DejaVuSans-54"/>
      <use x="46.333984" xlink:href="#DejaVuSans-72"/>
      <use x="87.447266" xlink:href="#DejaVuSans-61"/>
      <use x="148.726562" xlink:href="#DejaVuSans-69"/>
      <use x="176.509766" xlink:href="#DejaVuSans-6e"/>
      <use x="239.888672" xlink:href="#DejaVuSans-20"/>
      <use x="271.675781" xlink:href="#DejaVuSans-41"/>
      <use x="338.333984" xlink:href="#DejaVuSans-63"/>
      <use x="393.314453" xlink:href="#DejaVuSans-63"/>
      <use x="448.294922" xlink:href="#DejaVuSans-75"/>
      <use x="511.673828" xlink:href="#DejaVuSans-72"/>
      <use x="552.787109" xlink:href="#DejaVuSans-61"/>
      <use x="614.066406" xlink:href="#DejaVuSans-63"/>
      <use x="669.046875" xlink:href="#DejaVuSans-79"/>
     </g>
    </g>
    <g id="line2d_23">
     <path d="M 279.504375 293.004312 
L 299.504375 293.004312 
" style="fill:none;stroke:#ff7f0e;stroke-linecap:square;stroke-width:1.5;"/>
    </g>
    <g id="line2d_24"/>
    <g id="text_23">
     <!-- Validation Accuracy -->
     <g transform="translate(307.504375 296.504312)scale(0.1 -0.1)">
      <use xlink:href="#DejaVuSans-56"/>
      <use x="60.658203" xlink:href="#DejaVuSans-61"/>
      <use x="121.9375" xlink:href="#DejaVuSans-6c"/>
      <use x="149.720703" xlink:href="#DejaVuSans-69"/>
      <use x="177.503906" xlink:href="#DejaVuSans-64"/>
      <use x="240.980469" xlink:href="#DejaVuSans-61"/>
      <use x="302.259766" xlink:href="#DejaVuSans-74"/>
      <use x="341.46875" xlink:href="#DejaVuSans-69"/>
      <use x="369.251953" xlink:href="#DejaVuSans-6f"/>
      <use x="430.433594" xlink:href="#DejaVuSans-6e"/>
      <use x="493.8125" xlink:href="#DejaVuSans-20"/>
      <use x="525.599609" xlink:href="#DejaVuSans-41"/>
      <use x="592.257812" xlink:href="#DejaVuSans-63"/>
      <use x="647.238281" xlink:href="#DejaVuSans-63"/>
      <use x="702.21875" xlink:href="#DejaVuSans-75"/>
      <use x="765.597656" xlink:href="#DejaVuSans-72"/>
      <use x="806.710938" xlink:href="#DejaVuSans-61"/>
      <use x="867.990234" xlink:href="#DejaVuSans-63"/>
      <use x="922.970703" xlink:href="#DejaVuSans-79"/>
     </g>
    </g>
   </g>
  </g>
 </g>
 <defs>
  <clipPath id="p43bf087c21">
   <rect height="266.112" width="357.12" x="57.6" y="41.472"/>
  </clipPath>
 </defs>
</svg>
