<?xml version="1.0" encoding="utf-8" standalone="no"?>
<!DOCTYPE svg PUBLIC "-//W3C//DTD SVG 1.1//EN"
  "http://www.w3.org/Graphics/SVG/1.1/DTD/svg11.dtd">
<svg height="345.6pt" version="1.1" viewBox="0 0 460.8 345.6" width="460.8pt" xmlns="http://www.w3.org/2000/svg" xmlns:xlink="http://www.w3.org/1999/xlink">
 <metadata>
  <rdf:RDF xmlns:cc="http://creativecommons.org/ns#" xmlns:dc="http://purl.org/dc/elements/1.1/" xmlns:rdf="http://www.w3.org/1999/02/22-rdf-syntax-ns#">
   <cc:Work>
    <dc:type rdf:resource="http://purl.org/dc/dcmitype/StillImage"/>
    <dc:date>2023-07-12T11:37:59.431568</dc:date>
    <dc:format>image/svg+xml</dc:format>
    <dc:creator>
     <cc:Agent>
      <dc:title>Matplotlib v3.4.3, https://matplotlib.org/</dc:title>
     </cc:Agent>
    </dc:creator>
   </cc:Work>
  </rdf:RDF>
 </metadata>
 <defs>
  <style type="text/css">*{stroke-linecap:butt;stroke-linejoin:round;}</style>
 </defs>
 <g id="figure_1">
  <g id="patch_1">
   <path d="M 0 345.6 
L 460.8 345.6 
L 460.8 0 
L 0 0 
z
" style="fill:#ffffff;"/>
  </g>
  <g id="axes_1">
   <g id="patch_2">
    <path d="M 57.6 307.584 
L 414.72 307.584 
L 414.72 41.472 
L 57.6 41.472 
z
" style="fill:#ffffff;"/>
   </g>
   <g id="matplotlib.axis_1">
    <g id="xtick_1">
     <g id="line2d_1">
      <defs>
       <path d="M 0 0 
L 0 3.5 
" id="ma38e513c45" style="stroke:#000000;stroke-width:0.8;"/>
      </defs>
      <g>
       <use style="stroke:#000000;stroke-width:0.8;" x="72.746926" xlink:href="#ma38e513c45" y="307.584"/>
      </g>
     </g>
     <g id="text_1">
      <!-- 0 -->
      <g transform="translate(69.565676 322.182437)scale(0.1 -0.1)">
       <defs>
        <path d="M 2034 4250 
Q 1547 4250 1301 3770 
Q 1056 3291 1056 2328 
Q 1056 1369 1301 889 
Q 1547 409 2034 409 
Q 2525 409 2770 889 
Q 3016 1369 3016 2328 
Q 3016 3291 2770 3770 
Q 2525 4250 2034 4250 
z
M 2034 4750 
Q 2819 4750 3233 4129 
Q 3647 3509 3647 2328 
Q 3647 1150 3233 529 
Q 2819 -91 2034 -91 
Q 1250 -91 836 529 
Q 422 1150 422 2328 
Q 422 3509 836 4129 
Q 1250 4750 2034 4750 
z
" id="DejaVuSans-30" transform="scale(0.015625)"/>
       </defs>
       <use xlink:href="#DejaVuSans-30"/>
      </g>
     </g>
    </g>
    <g id="xtick_2">
     <g id="line2d_2">
      <g>
       <use style="stroke:#000000;stroke-width:0.8;" x="105.320961" xlink:href="#ma38e513c45" y="307.584"/>
      </g>
     </g>
     <g id="text_2">
      <!-- 30 -->
      <g transform="translate(98.958461 322.182437)scale(0.1 -0.1)">
       <defs>
        <path d="M 2597 2516 
Q 3050 2419 3304 2112 
Q 3559 1806 3559 1356 
Q 3559 666 3084 287 
Q 2609 -91 1734 -91 
Q 1441 -91 1130 -33 
Q 819 25 488 141 
L 488 750 
Q 750 597 1062 519 
Q 1375 441 1716 441 
Q 2309 441 2620 675 
Q 2931 909 2931 1356 
Q 2931 1769 2642 2001 
Q 2353 2234 1838 2234 
L 1294 2234 
L 1294 2753 
L 1863 2753 
Q 2328 2753 2575 2939 
Q 2822 3125 2822 3475 
Q 2822 3834 2567 4026 
Q 2313 4219 1838 4219 
Q 1578 4219 1281 4162 
Q 984 4106 628 3988 
L 628 4550 
Q 988 4650 1302 4700 
Q 1616 4750 1894 4750 
Q 2613 4750 3031 4423 
Q 3450 4097 3450 3541 
Q 3450 3153 3228 2886 
Q 3006 2619 2597 2516 
z
" id="DejaVuSans-33" transform="scale(0.015625)"/>
       </defs>
       <use xlink:href="#DejaVuSans-33"/>
       <use x="63.623047" xlink:href="#DejaVuSans-30"/>
      </g>
     </g>
    </g>
    <g id="xtick_3">
     <g id="line2d_3">
      <g>
       <use style="stroke:#000000;stroke-width:0.8;" x="137.894995" xlink:href="#ma38e513c45" y="307.584"/>
      </g>
     </g>
     <g id="text_3">
      <!-- 60 -->
      <g transform="translate(131.532495 322.182437)scale(0.1 -0.1)">
       <defs>
        <path d="M 2113 2584 
Q 1688 2584 1439 2293 
Q 1191 2003 1191 1497 
Q 1191 994 1439 701 
Q 1688 409 2113 409 
Q 2538 409 2786 701 
Q 3034 994 3034 1497 
Q 3034 2003 2786 2293 
Q 2538 2584 2113 2584 
z
M 3366 4563 
L 3366 3988 
Q 3128 4100 2886 4159 
Q 2644 4219 2406 4219 
Q 1781 4219 1451 3797 
Q 1122 3375 1075 2522 
Q 1259 2794 1537 2939 
Q 1816 3084 2150 3084 
Q 2853 3084 3261 2657 
Q 3669 2231 3669 1497 
Q 3669 778 3244 343 
Q 2819 -91 2113 -91 
Q 1303 -91 875 529 
Q 447 1150 447 2328 
Q 447 3434 972 4092 
Q 1497 4750 2381 4750 
Q 2619 4750 2861 4703 
Q 3103 4656 3366 4563 
z
" id="DejaVuSans-36" transform="scale(0.015625)"/>
       </defs>
       <use xlink:href="#DejaVuSans-36"/>
       <use x="63.623047" xlink:href="#DejaVuSans-30"/>
      </g>
     </g>
    </g>
    <g id="xtick_4">
     <g id="line2d_4">
      <g>
       <use style="stroke:#000000;stroke-width:0.8;" x="170.46903" xlink:href="#ma38e513c45" y="307.584"/>
      </g>
     </g>
     <g id="text_4">
      <!-- 90 -->
      <g transform="translate(164.10653 322.182437)scale(0.1 -0.1)">
       <defs>
        <path d="M 703 97 
L 703 672 
Q 941 559 1184 500 
Q 1428 441 1663 441 
Q 2288 441 2617 861 
Q 2947 1281 2994 2138 
Q 2813 1869 2534 1725 
Q 2256 1581 1919 1581 
Q 1219 1581 811 2004 
Q 403 2428 403 3163 
Q 403 3881 828 4315 
Q 1253 4750 1959 4750 
Q 2769 4750 3195 4129 
Q 3622 3509 3622 2328 
Q 3622 1225 3098 567 
Q 2575 -91 1691 -91 
Q 1453 -91 1209 -44 
Q 966 3 703 97 
z
M 1959 2075 
Q 2384 2075 2632 2365 
Q 2881 2656 2881 3163 
Q 2881 3666 2632 3958 
Q 2384 4250 1959 4250 
Q 1534 4250 1286 3958 
Q 1038 3666 1038 3163 
Q 1038 2656 1286 2365 
Q 1534 2075 1959 2075 
z
" id="DejaVuSans-39" transform="scale(0.015625)"/>
       </defs>
       <use xlink:href="#DejaVuSans-39"/>
       <use x="63.623047" xlink:href="#DejaVuSans-30"/>
      </g>
     </g>
    </g>
    <g id="xtick_5">
     <g id="line2d_5">
      <g>
       <use style="stroke:#000000;stroke-width:0.8;" x="203.043065" xlink:href="#ma38e513c45" y="307.584"/>
      </g>
     </g>
     <g id="text_5">
      <!-- 120 -->
      <g transform="translate(193.499315 322.182437)scale(0.1 -0.1)">
       <defs>
        <path d="M 794 531 
L 1825 531 
L 1825 4091 
L 703 3866 
L 703 4441 
L 1819 4666 
L 2450 4666 
L 2450 531 
L 3481 531 
L 3481 0 
L 794 0 
L 794 531 
z
" id="DejaVuSans-31" transform="scale(0.015625)"/>
        <path d="M 1228 531 
L 3431 531 
L 3431 0 
L 469 0 
L 469 531 
Q 828 903 1448 1529 
Q 2069 2156 2228 2338 
Q 2531 2678 2651 2914 
Q 2772 3150 2772 3378 
Q 2772 3750 2511 3984 
Q 2250 4219 1831 4219 
Q 1534 4219 1204 4116 
Q 875 4013 500 3803 
L 500 4441 
Q 881 4594 1212 4672 
Q 1544 4750 1819 4750 
Q 2544 4750 2975 4387 
Q 3406 4025 3406 3419 
Q 3406 3131 3298 2873 
Q 3191 2616 2906 2266 
Q 2828 2175 2409 1742 
Q 1991 1309 1228 531 
z
" id="DejaVuSans-32" transform="scale(0.015625)"/>
       </defs>
       <use xlink:href="#DejaVuSans-31"/>
       <use x="63.623047" xlink:href="#DejaVuSans-32"/>
       <use x="127.246094" xlink:href="#DejaVuSans-30"/>
      </g>
     </g>
    </g>
    <g id="xtick_6">
     <g id="line2d_6">
      <g>
       <use style="stroke:#000000;stroke-width:0.8;" x="235.617099" xlink:href="#ma38e513c45" y="307.584"/>
      </g>
     </g>
     <g id="text_6">
      <!-- 150 -->
      <g transform="translate(226.073349 322.182437)scale(0.1 -0.1)">
       <defs>
        <path d="M 691 4666 
L 3169 4666 
L 3169 4134 
L 1269 4134 
L 1269 2991 
Q 1406 3038 1543 3061 
Q 1681 3084 1819 3084 
Q 2600 3084 3056 2656 
Q 3513 2228 3513 1497 
Q 3513 744 3044 326 
Q 2575 -91 1722 -91 
Q 1428 -91 1123 -41 
Q 819 9 494 109 
L 494 744 
Q 775 591 1075 516 
Q 1375 441 1709 441 
Q 2250 441 2565 725 
Q 2881 1009 2881 1497 
Q 2881 1984 2565 2268 
Q 2250 2553 1709 2553 
Q 1456 2553 1204 2497 
Q 953 2441 691 2322 
L 691 4666 
z
" id="DejaVuSans-35" transform="scale(0.015625)"/>
       </defs>
       <use xlink:href="#DejaVuSans-31"/>
       <use x="63.623047" xlink:href="#DejaVuSans-35"/>
       <use x="127.246094" xlink:href="#DejaVuSans-30"/>
      </g>
     </g>
    </g>
    <g id="xtick_7">
     <g id="line2d_7">
      <g>
       <use style="stroke:#000000;stroke-width:0.8;" x="268.191134" xlink:href="#ma38e513c45" y="307.584"/>
      </g>
     </g>
     <g id="text_7">
      <!-- 180 -->
      <g transform="translate(258.647384 322.182437)scale(0.1 -0.1)">
       <defs>
        <path d="M 2034 2216 
Q 1584 2216 1326 1975 
Q 1069 1734 1069 1313 
Q 1069 891 1326 650 
Q 1584 409 2034 409 
Q 2484 409 2743 651 
Q 3003 894 3003 1313 
Q 3003 1734 2745 1975 
Q 2488 2216 2034 2216 
z
M 1403 2484 
Q 997 2584 770 2862 
Q 544 3141 544 3541 
Q 544 4100 942 4425 
Q 1341 4750 2034 4750 
Q 2731 4750 3128 4425 
Q 3525 4100 3525 3541 
Q 3525 3141 3298 2862 
Q 3072 2584 2669 2484 
Q 3125 2378 3379 2068 
Q 3634 1759 3634 1313 
Q 3634 634 3220 271 
Q 2806 -91 2034 -91 
Q 1263 -91 848 271 
Q 434 634 434 1313 
Q 434 1759 690 2068 
Q 947 2378 1403 2484 
z
M 1172 3481 
Q 1172 3119 1398 2916 
Q 1625 2713 2034 2713 
Q 2441 2713 2670 2916 
Q 2900 3119 2900 3481 
Q 2900 3844 2670 4047 
Q 2441 4250 2034 4250 
Q 1625 4250 1398 4047 
Q 1172 3844 1172 3481 
z
" id="DejaVuSans-38" transform="scale(0.015625)"/>
       </defs>
       <use xlink:href="#DejaVuSans-31"/>
       <use x="63.623047" xlink:href="#DejaVuSans-38"/>
       <use x="127.246094" xlink:href="#DejaVuSans-30"/>
      </g>
     </g>
    </g>
    <g id="xtick_8">
     <g id="line2d_8">
      <g>
       <use style="stroke:#000000;stroke-width:0.8;" x="300.765169" xlink:href="#ma38e513c45" y="307.584"/>
      </g>
     </g>
     <g id="text_8">
      <!-- 210 -->
      <g transform="translate(291.221419 322.182437)scale(0.1 -0.1)">
       <use xlink:href="#DejaVuSans-32"/>
       <use x="63.623047" xlink:href="#DejaVuSans-31"/>
       <use x="127.246094" xlink:href="#DejaVuSans-30"/>
      </g>
     </g>
    </g>
    <g id="xtick_9">
     <g id="line2d_9">
      <g>
       <use style="stroke:#000000;stroke-width:0.8;" x="333.339203" xlink:href="#ma38e513c45" y="307.584"/>
      </g>
     </g>
     <g id="text_9">
      <!-- 240 -->
      <g transform="translate(323.795453 322.182437)scale(0.1 -0.1)">
       <defs>
        <path d="M 2419 4116 
L 825 1625 
L 2419 1625 
L 2419 4116 
z
M 2253 4666 
L 3047 4666 
L 3047 1625 
L 3713 1625 
L 3713 1100 
L 3047 1100 
L 3047 0 
L 2419 0 
L 2419 1100 
L 313 1100 
L 313 1709 
L 2253 4666 
z
" id="DejaVuSans-34" transform="scale(0.015625)"/>
       </defs>
       <use xlink:href="#DejaVuSans-32"/>
       <use x="63.623047" xlink:href="#DejaVuSans-34"/>
       <use x="127.246094" xlink:href="#DejaVuSans-30"/>
      </g>
     </g>
    </g>
    <g id="xtick_10">
     <g id="line2d_10">
      <g>
       <use style="stroke:#000000;stroke-width:0.8;" x="365.913238" xlink:href="#ma38e513c45" y="307.584"/>
      </g>
     </g>
     <g id="text_10">
      <!-- 270 -->
      <g transform="translate(356.369488 322.182437)scale(0.1 -0.1)">
       <defs>
        <path d="M 525 4666 
L 3525 4666 
L 3525 4397 
L 1831 0 
L 1172 0 
L 2766 4134 
L 525 4134 
L 525 4666 
z
" id="DejaVuSans-37" transform="scale(0.015625)"/>
       </defs>
       <use xlink:href="#DejaVuSans-32"/>
       <use x="63.623047" xlink:href="#DejaVuSans-37"/>
       <use x="127.246094" xlink:href="#DejaVuSans-30"/>
      </g>
     </g>
    </g>
    <g id="xtick_11">
     <g id="line2d_11">
      <g>
       <use style="stroke:#000000;stroke-width:0.8;" x="398.487273" xlink:href="#ma38e513c45" y="307.584"/>
      </g>
     </g>
     <g id="text_11">
      <!-- 300 -->
      <g transform="translate(388.943523 322.182437)scale(0.1 -0.1)">
       <use xlink:href="#DejaVuSans-33"/>
       <use x="63.623047" xlink:href="#DejaVuSans-30"/>
       <use x="127.246094" xlink:href="#DejaVuSans-30"/>
      </g>
     </g>
    </g>
    <g id="text_12">
     <!-- Epochs -->
     <g transform="translate(218.244375 335.860562)scale(0.1 -0.1)">
      <defs>
       <path d="M 628 4666 
L 3578 4666 
L 3578 4134 
L 1259 4134 
L 1259 2753 
L 3481 2753 
L 3481 2222 
L 1259 2222 
L 1259 531 
L 3634 531 
L 3634 0 
L 628 0 
L 628 4666 
z
" id="DejaVuSans-45" transform="scale(0.015625)"/>
       <path d="M 1159 525 
L 1159 -1331 
L 581 -1331 
L 581 3500 
L 1159 3500 
L 1159 2969 
Q 1341 3281 1617 3432 
Q 1894 3584 2278 3584 
Q 2916 3584 3314 3078 
Q 3713 2572 3713 1747 
Q 3713 922 3314 415 
Q 2916 -91 2278 -91 
Q 1894 -91 1617 61 
Q 1341 213 1159 525 
z
M 3116 1747 
Q 3116 2381 2855 2742 
Q 2594 3103 2138 3103 
Q 1681 3103 1420 2742 
Q 1159 2381 1159 1747 
Q 1159 1113 1420 752 
Q 1681 391 2138 391 
Q 2594 391 2855 752 
Q 3116 1113 3116 1747 
z
" id="DejaVuSans-70" transform="scale(0.015625)"/>
       <path d="M 1959 3097 
Q 1497 3097 1228 2736 
Q 959 2375 959 1747 
Q 959 1119 1226 758 
Q 1494 397 1959 397 
Q 2419 397 2687 759 
Q 2956 1122 2956 1747 
Q 2956 2369 2687 2733 
Q 2419 3097 1959 3097 
z
M 1959 3584 
Q 2709 3584 3137 3096 
Q 3566 2609 3566 1747 
Q 3566 888 3137 398 
Q 2709 -91 1959 -91 
Q 1206 -91 779 398 
Q 353 888 353 1747 
Q 353 2609 779 3096 
Q 1206 3584 1959 3584 
z
" id="DejaVuSans-6f" transform="scale(0.015625)"/>
       <path d="M 3122 3366 
L 3122 2828 
Q 2878 2963 2633 3030 
Q 2388 3097 2138 3097 
Q 1578 3097 1268 2742 
Q 959 2388 959 1747 
Q 959 1106 1268 751 
Q 1578 397 2138 397 
Q 2388 397 2633 464 
Q 2878 531 3122 666 
L 3122 134 
Q 2881 22 2623 -34 
Q 2366 -91 2075 -91 
Q 1284 -91 818 406 
Q 353 903 353 1747 
Q 353 2603 823 3093 
Q 1294 3584 2113 3584 
Q 2378 3584 2631 3529 
Q 2884 3475 3122 3366 
z
" id="DejaVuSans-63" transform="scale(0.015625)"/>
       <path d="M 3513 2113 
L 3513 0 
L 2938 0 
L 2938 2094 
Q 2938 2591 2744 2837 
Q 2550 3084 2163 3084 
Q 1697 3084 1428 2787 
Q 1159 2491 1159 1978 
L 1159 0 
L 581 0 
L 581 4863 
L 1159 4863 
L 1159 2956 
Q 1366 3272 1645 3428 
Q 1925 3584 2291 3584 
Q 2894 3584 3203 3211 
Q 3513 2838 3513 2113 
z
" id="DejaVuSans-68" transform="scale(0.015625)"/>
       <path d="M 2834 3397 
L 2834 2853 
Q 2591 2978 2328 3040 
Q 2066 3103 1784 3103 
Q 1356 3103 1142 2972 
Q 928 2841 928 2578 
Q 928 2378 1081 2264 
Q 1234 2150 1697 2047 
L 1894 2003 
Q 2506 1872 2764 1633 
Q 3022 1394 3022 966 
Q 3022 478 2636 193 
Q 2250 -91 1575 -91 
Q 1294 -91 989 -36 
Q 684 19 347 128 
L 347 722 
Q 666 556 975 473 
Q 1284 391 1588 391 
Q 1994 391 2212 530 
Q 2431 669 2431 922 
Q 2431 1156 2273 1281 
Q 2116 1406 1581 1522 
L 1381 1569 
Q 847 1681 609 1914 
Q 372 2147 372 2553 
Q 372 3047 722 3315 
Q 1072 3584 1716 3584 
Q 2034 3584 2315 3537 
Q 2597 3491 2834 3397 
z
" id="DejaVuSans-73" transform="scale(0.015625)"/>
      </defs>
      <use xlink:href="#DejaVuSans-45"/>
      <use x="63.183594" xlink:href="#DejaVuSans-70"/>
      <use x="126.660156" xlink:href="#DejaVuSans-6f"/>
      <use x="187.841797" xlink:href="#DejaVuSans-63"/>
      <use x="242.822266" xlink:href="#DejaVuSans-68"/>
      <use x="306.201172" xlink:href="#DejaVuSans-73"/>
     </g>
    </g>
   </g>
   <g id="matplotlib.axis_2">
    <g id="ytick_1">
     <g id="line2d_12">
      <defs>
       <path d="M 0 0 
L -3.5 0 
" id="me376e13f3f" style="stroke:#000000;stroke-width:0.8;"/>
      </defs>
      <g>
       <use style="stroke:#000000;stroke-width:0.8;" x="57.6" xlink:href="#me376e13f3f" y="291.09095"/>
      </g>
     </g>
     <g id="text_13">
      <!-- 20 -->
      <g transform="translate(37.875 294.890169)scale(0.1 -0.1)">
       <use xlink:href="#DejaVuSans-32"/>
       <use x="63.623047" xlink:href="#DejaVuSans-30"/>
      </g>
     </g>
    </g>
    <g id="ytick_2">
     <g id="line2d_13">
      <g>
       <use style="stroke:#000000;stroke-width:0.8;" x="57.6" xlink:href="#me376e13f3f" y="259.457496"/>
      </g>
     </g>
     <g id="text_14">
      <!-- 30 -->
      <g transform="translate(37.875 263.256715)scale(0.1 -0.1)">
       <use xlink:href="#DejaVuSans-33"/>
       <use x="63.623047" xlink:href="#DejaVuSans-30"/>
      </g>
     </g>
    </g>
    <g id="ytick_3">
     <g id="line2d_14">
      <g>
       <use style="stroke:#000000;stroke-width:0.8;" x="57.6" xlink:href="#me376e13f3f" y="227.824043"/>
      </g>
     </g>
     <g id="text_15">
      <!-- 40 -->
      <g transform="translate(37.875 231.623261)scale(0.1 -0.1)">
       <use xlink:href="#DejaVuSans-34"/>
       <use x="63.623047" xlink:href="#DejaVuSans-30"/>
      </g>
     </g>
    </g>
    <g id="ytick_4">
     <g id="line2d_15">
      <g>
       <use style="stroke:#000000;stroke-width:0.8;" x="57.6" xlink:href="#me376e13f3f" y="196.190589"/>
      </g>
     </g>
     <g id="text_16">
      <!-- 50 -->
      <g transform="translate(37.875 199.989808)scale(0.1 -0.1)">
       <use xlink:href="#DejaVuSans-35"/>
       <use x="63.623047" xlink:href="#DejaVuSans-30"/>
      </g>
     </g>
    </g>
    <g id="ytick_5">
     <g id="line2d_16">
      <g>
       <use style="stroke:#000000;stroke-width:0.8;" x="57.6" xlink:href="#me376e13f3f" y="164.557135"/>
      </g>
     </g>
     <g id="text_17">
      <!-- 60 -->
      <g transform="translate(37.875 168.356354)scale(0.1 -0.1)">
       <use xlink:href="#DejaVuSans-36"/>
       <use x="63.623047" xlink:href="#DejaVuSans-30"/>
      </g>
     </g>
    </g>
    <g id="ytick_6">
     <g id="line2d_17">
      <g>
       <use style="stroke:#000000;stroke-width:0.8;" x="57.6" xlink:href="#me376e13f3f" y="132.923682"/>
      </g>
     </g>
     <g id="text_18">
      <!-- 70 -->
      <g transform="translate(37.875 136.722901)scale(0.1 -0.1)">
       <use xlink:href="#DejaVuSans-37"/>
       <use x="63.623047" xlink:href="#DejaVuSans-30"/>
      </g>
     </g>
    </g>
    <g id="ytick_7">
     <g id="line2d_18">
      <g>
       <use style="stroke:#000000;stroke-width:0.8;" x="57.6" xlink:href="#me376e13f3f" y="101.290228"/>
      </g>
     </g>
     <g id="text_19">
      <!-- 80 -->
      <g transform="translate(37.875 105.089447)scale(0.1 -0.1)">
       <use xlink:href="#DejaVuSans-38"/>
       <use x="63.623047" xlink:href="#DejaVuSans-30"/>
      </g>
     </g>
    </g>
    <g id="ytick_8">
     <g id="line2d_19">
      <g>
       <use style="stroke:#000000;stroke-width:0.8;" x="57.6" xlink:href="#me376e13f3f" y="69.656775"/>
      </g>
     </g>
     <g id="text_20">
      <!-- 90 -->
      <g transform="translate(37.875 73.455993)scale(0.1 -0.1)">
       <use xlink:href="#DejaVuSans-39"/>
       <use x="63.623047" xlink:href="#DejaVuSans-30"/>
      </g>
     </g>
    </g>
    <g id="text_21">
     <!-- Accuracy -->
     <g transform="translate(31.795312 197.356125)rotate(-90)scale(0.1 -0.1)">
      <defs>
       <path d="M 2188 4044 
L 1331 1722 
L 3047 1722 
L 2188 4044 
z
M 1831 4666 
L 2547 4666 
L 4325 0 
L 3669 0 
L 3244 1197 
L 1141 1197 
L 716 0 
L 50 0 
L 1831 4666 
z
" id="DejaVuSans-41" transform="scale(0.015625)"/>
       <path d="M 544 1381 
L 544 3500 
L 1119 3500 
L 1119 1403 
Q 1119 906 1312 657 
Q 1506 409 1894 409 
Q 2359 409 2629 706 
Q 2900 1003 2900 1516 
L 2900 3500 
L 3475 3500 
L 3475 0 
L 2900 0 
L 2900 538 
Q 2691 219 2414 64 
Q 2138 -91 1772 -91 
Q 1169 -91 856 284 
Q 544 659 544 1381 
z
M 1991 3584 
L 1991 3584 
z
" id="DejaVuSans-75" transform="scale(0.015625)"/>
       <path d="M 2631 2963 
Q 2534 3019 2420 3045 
Q 2306 3072 2169 3072 
Q 1681 3072 1420 2755 
Q 1159 2438 1159 1844 
L 1159 0 
L 581 0 
L 581 3500 
L 1159 3500 
L 1159 2956 
Q 1341 3275 1631 3429 
Q 1922 3584 2338 3584 
Q 2397 3584 2469 3576 
Q 2541 3569 2628 3553 
L 2631 2963 
z
" id="DejaVuSans-72" transform="scale(0.015625)"/>
       <path d="M 2194 1759 
Q 1497 1759 1228 1600 
Q 959 1441 959 1056 
Q 959 750 1161 570 
Q 1363 391 1709 391 
Q 2188 391 2477 730 
Q 2766 1069 2766 1631 
L 2766 1759 
L 2194 1759 
z
M 3341 1997 
L 3341 0 
L 2766 0 
L 2766 531 
Q 2569 213 2275 61 
Q 1981 -91 1556 -91 
Q 1019 -91 701 211 
Q 384 513 384 1019 
Q 384 1609 779 1909 
Q 1175 2209 1959 2209 
L 2766 2209 
L 2766 2266 
Q 2766 2663 2505 2880 
Q 2244 3097 1772 3097 
Q 1472 3097 1187 3025 
Q 903 2953 641 2809 
L 641 3341 
Q 956 3463 1253 3523 
Q 1550 3584 1831 3584 
Q 2591 3584 2966 3190 
Q 3341 2797 3341 1997 
z
" id="DejaVuSans-61" transform="scale(0.015625)"/>
       <path d="M 2059 -325 
Q 1816 -950 1584 -1140 
Q 1353 -1331 966 -1331 
L 506 -1331 
L 506 -850 
L 844 -850 
Q 1081 -850 1212 -737 
Q 1344 -625 1503 -206 
L 1606 56 
L 191 3500 
L 800 3500 
L 1894 763 
L 2988 3500 
L 3597 3500 
L 2059 -325 
z
" id="DejaVuSans-79" transform="scale(0.015625)"/>
      </defs>
      <use xlink:href="#DejaVuSans-41"/>
      <use x="66.658203" xlink:href="#DejaVuSans-63"/>
      <use x="121.638672" xlink:href="#DejaVuSans-63"/>
      <use x="176.619141" xlink:href="#DejaVuSans-75"/>
      <use x="239.998047" xlink:href="#DejaVuSans-72"/>
      <use x="281.111328" xlink:href="#DejaVuSans-61"/>
      <use x="342.390625" xlink:href="#DejaVuSans-63"/>
      <use x="397.371094" xlink:href="#DejaVuSans-79"/>
     </g>
    </g>
   </g>
   <g id="line2d_20">
    <path clip-path="url(#p67bbac8c4c)" d="M 73.832727 295.488 
L 74.918528 274.027865 
L 77.090131 254.23165 
L 78.175932 244.570793 
L 79.261733 235.960167 
L 81.433335 220.307934 
L 82.519137 212.20977 
L 83.604938 206.484115 
L 85.77654 197.917776 
L 86.862341 192.641316 
L 87.948142 189.762671 
L 89.033943 185.90339 
L 90.119745 182.904539 
L 91.205546 180.462436 
L 92.291347 179.007297 
L 93.377148 177.273784 
L 94.462949 176.375394 
L 95.54875 195.810988 
L 96.634552 192.160487 
L 97.720353 192.565395 
L 98.806154 189.876552 
L 99.891955 188.788361 
L 100.977756 186.694226 
L 102.063557 185.523788 
L 103.149358 183.043726 
L 104.23516 181.803694 
L 105.320961 179.216078 
L 106.406762 177.077656 
L 107.492563 175.36945 
L 108.578364 174.135745 
L 109.664165 173.57267 
L 110.749967 170.801579 
L 111.835768 168.530297 
L 112.921569 167.720481 
L 114.00737 164.076307 
L 115.093171 163.9561 
L 116.178972 160.938268 
L 117.264773 158.730253 
L 118.350575 157.863497 
L 119.436376 155.712422 
L 120.522177 152.245395 
L 121.607978 151.220471 
L 122.693779 149.461651 
L 123.77958 147.082816 
L 124.865382 145.912378 
L 125.951183 142.445351 
L 128.122785 138.788524 
L 129.208586 136.80827 
L 130.294387 135.612525 
L 132.46599 131.696304 
L 133.551791 131.278742 
L 134.637592 130.468926 
L 135.723393 130.165245 
L 136.809194 129.646456 
L 137.894995 128.659492 
L 138.980797 161.210316 
L 140.066598 162.798315 
L 141.152399 162.956483 
L 142.2382 161.824005 
L 143.324001 162.21626 
L 144.409802 161.50767 
L 145.495604 161.969519 
L 147.667206 160.43846 
L 148.753007 159.350269 
L 149.838808 159.50211 
L 150.924609 157.983704 
L 152.01041 156.844899 
L 153.096212 156.585505 
L 154.182013 156.04141 
L 155.267814 155.737729 
L 157.439416 153.156439 
L 158.525217 151.340678 
L 159.611019 151.410272 
L 160.69682 150.031054 
L 161.782621 150.1133 
L 162.868422 148.152026 
L 163.954223 147.063836 
L 165.040024 145.203788 
L 166.125825 145.102561 
L 167.211627 145.292362 
L 168.297428 143.495582 
L 169.383229 142.88822 
L 170.46903 141.376141 
L 171.554831 140.427137 
L 172.640632 138.396269 
L 174.812235 136.466629 
L 175.898036 135.878246 
L 178.069638 133.670231 
L 179.155439 131.803858 
L 180.24124 131.297722 
L 182.412843 127.602935 
L 183.498644 127.577628 
L 184.584445 126.230043 
L 187.841849 121.339511 
L 188.92765 121.700132 
L 190.013451 120.447448 
L 191.099252 117.372676 
L 193.270854 115.335482 
L 194.356656 112.608678 
L 195.442457 112.41255 
L 196.528258 111.058639 
L 197.614059 108.597556 
L 198.69986 107.686512 
L 199.785661 106.471788 
L 200.871462 104.061319 
L 201.957264 103.030068 
L 204.128866 99.531408 
L 205.214667 98.17117 
L 206.300468 97.31074 
L 207.386269 95.849274 
L 208.472071 94.596589 
L 209.557872 92.95165 
L 210.643673 91.591411 
L 212.815275 90.079332 
L 213.901076 89.45299 
L 216.072679 87.700496 
L 217.15848 86.346585 
L 218.244281 85.625342 
L 219.330082 85.492481 
L 220.415883 85.555748 
L 221.501684 84.556131 
L 222.587486 84.821852 
L 223.673287 84.056323 
L 224.759088 83.955096 
L 225.844889 138.440556 
L 226.93069 136.397035 
L 228.016491 137.978708 
L 229.102292 138.66199 
L 230.188094 139.914675 
L 231.273895 140.578978 
L 232.359696 139.832428 
L 233.445497 141.395121 
L 234.531298 140.161416 
L 235.617099 140.661225 
L 236.702901 141.458388 
L 237.788702 139.40854 
L 238.874503 140.389177 
L 239.960304 140.180396 
L 241.046105 138.68097 
L 242.131906 138.58607 
L 243.217708 137.795234 
L 245.38931 138.579743 
L 246.475111 137.535839 
L 247.560912 137.219505 
L 248.646713 136.707043 
L 249.732514 136.84623 
L 250.818316 135.827633 
L 251.904117 135.954167 
L 252.989918 134.752095 
L 254.075719 133.916972 
L 255.16152 134.119426 
L 256.247321 134.163713 
L 257.333123 133.176749 
L 258.418924 133.157769 
L 260.590526 132.689594 
L 261.676327 131.721611 
L 262.762128 131.240782 
L 263.847929 131.55079 
L 266.019532 129.77299 
L 267.105333 130.987714 
L 268.191134 128.419078 
L 269.276935 128.520305 
L 270.362736 128.507652 
L 271.448538 127.672528 
L 272.534339 127.628242 
L 273.62014 127.039859 
L 274.705941 125.976975 
L 275.791742 127.337214 
L 276.877543 126.008609 
L 277.963344 125.300019 
L 279.049146 125.407573 
L 280.134947 125.673294 
L 281.220748 123.629773 
L 283.39235 123.984068 
L 284.478151 123.269152 
L 285.563953 122.415048 
L 286.649754 122.687096 
L 287.735555 122.71873 
L 288.821356 120.94093 
L 289.907157 121.181344 
L 290.992958 120.371527 
L 292.07876 118.334333 
L 293.164561 119.087209 
L 294.250362 117.840851 
L 295.336163 117.935751 
L 296.421964 116.79062 
L 297.507765 116.214892 
L 298.593566 115.949171 
L 299.679368 115.544262 
L 300.765169 113.760136 
L 301.85097 114.652199 
L 302.936771 113.766462 
L 304.022572 112.646638 
L 305.108373 112.361937 
L 306.194175 112.792152 
L 307.279976 111.134559 
L 308.365777 111.355993 
L 309.451578 109.62248 
L 310.537379 109.160631 
L 311.62318 108.964504 
L 312.708981 109.495946 
L 313.794783 106.357907 
L 314.880584 105.927692 
L 315.966385 105.212776 
L 317.052186 104.801542 
L 319.223788 103.434976 
L 320.30959 102.156985 
L 321.395391 102.302499 
L 322.481192 101.372475 
L 323.566993 100.208364 
L 324.652794 99.227727 
L 325.738595 99.044253 
L 326.824396 98.278723 
L 327.910198 97.007059 
L 328.995999 96.899505 
L 330.0818 94.906597 
L 331.167601 94.172701 
L 332.253402 94.115761 
L 333.339203 93.192064 
L 334.425005 91.161196 
L 335.510806 91.148543 
L 336.596607 89.744018 
L 337.682408 89.52891 
L 338.768209 88.263572 
L 339.85401 87.529676 
L 340.939811 86.631286 
L 342.025613 85.530442 
L 343.111414 83.942442 
L 344.197215 83.809582 
L 346.368817 82.145662 
L 347.454618 80.272962 
L 348.54042 79.456818 
L 349.626221 78.944357 
L 350.712022 77.811879 
L 351.797823 76.388373 
L 353.969425 74.205665 
L 355.055227 74.667514 
L 356.141028 72.617666 
L 357.226829 71.421921 
L 358.31263 71.364981 
L 359.398431 69.909842 
L 360.484232 69.403707 
L 361.570033 68.334496 
L 362.655835 68.201636 
L 363.741636 67.366512 
L 364.827437 65.569732 
L 365.913238 65.114211 
L 366.999039 64.266434 
L 368.08484 63.975406 
L 369.170642 63.070689 
L 370.256443 61.799025 
L 371.342244 62.058419 
L 373.513846 60.5843 
L 374.599647 59.970611 
L 375.685448 59.692237 
L 376.77125 58.585066 
L 377.857051 58.338325 
L 378.942852 57.952397 
L 381.114454 56.788286 
L 382.200255 56.813592 
L 383.286057 56.573178 
L 384.371858 55.333147 
L 385.457659 55.630501 
L 386.54346 54.687824 
L 387.629261 55.567234 
L 388.715062 54.852318 
L 389.800863 54.757418 
L 390.886665 54.839665 
L 393.058267 54.143729 
L 394.144068 53.60596 
L 395.229869 54.181689 
L 396.31567 53.726167 
L 397.401472 53.568 
L 398.487273 54.042502 
L 398.487273 54.042502 
" style="fill:none;stroke:#1f77b4;stroke-linecap:square;stroke-width:1.5;"/>
   </g>
   <g id="line2d_21">
    <path clip-path="url(#p67bbac8c4c)" d="M 73.832727 274.926255 
L 76.00433 249.176624 
L 77.090131 242.343798 
L 78.175932 230.006751 
L 79.261733 220.263647 
L 81.433335 203.403016 
L 83.604938 192.331308 
L 84.690739 185.909717 
L 85.77654 182.240236 
L 86.862341 181.417766 
L 87.948142 175.533944 
L 89.033943 175.787011 
L 91.205546 171.990997 
L 92.291347 170.630759 
L 93.377148 167.847015 
L 94.462949 168.194983 
L 95.54875 182.36677 
L 96.634552 185.02398 
L 97.720353 178.06462 
L 98.806154 177.621752 
L 99.891955 176.482947 
L 100.977756 174.142072 
L 102.063557 170.820559 
L 103.149358 178.349321 
L 104.23516 168.384783 
L 105.320961 168.384783 
L 106.406762 166.771477 
L 107.492563 169.017452 
L 108.578364 163.196897 
L 109.664165 162.437694 
L 110.749967 166.803111 
L 111.835768 162.500961 
L 112.921569 157.313075 
L 114.00737 156.90184 
L 115.093171 154.845665 
L 116.178972 154.118096 
L 117.264773 154.054829 
L 118.350575 151.77722 
L 119.436376 149.02511 
L 120.522177 149.246544 
L 121.607978 150.227181 
L 122.693779 143.868857 
L 123.77958 145.766864 
L 124.865382 144.596426 
L 125.951183 144.438259 
L 127.036984 139.471807 
L 128.122785 140.294276 
L 129.208586 139.155472 
L 130.294387 139.724874 
L 131.380189 139.50344 
L 132.46599 140.23101 
L 133.551791 137.036031 
L 134.637592 137.700333 
L 135.723393 137.826867 
L 136.809194 137.605433 
L 137.894995 137.004397 
L 138.980797 151.935387 
L 140.066598 153.010925 
L 141.152399 154.687498 
L 142.2382 157.060007 
L 143.324001 151.840487 
L 144.409802 155.857936 
L 145.495604 156.17427 
L 146.581405 153.010925 
L 147.667206 152.093555 
L 148.753007 149.879213 
L 149.838808 150.353715 
L 150.924609 148.740409 
L 152.01041 148.708775 
L 153.096212 151.271085 
L 154.182013 148.329174 
L 155.267814 146.431166 
L 156.353615 148.455708 
L 157.439416 149.594512 
L 158.525217 143.584156 
L 159.611019 142.002483 
L 160.69682 142.919853 
L 161.782621 143.172921 
L 162.868422 143.07802 
L 163.954223 140.768778 
L 165.040024 145.292362 
L 166.125825 140.610611 
L 167.211627 136.94113 
L 168.297428 148.677142 
L 169.383229 139.218739 
L 170.46903 140.041209 
L 171.554831 139.376906 
L 172.640632 145.007661 
L 173.726434 137.067664 
L 174.812235 137.700333 
L 175.898036 133.36655 
L 176.983837 134.916589 
L 178.069638 129.412368 
L 179.155439 136.719696 
L 180.24124 127.830696 
L 181.327042 131.025675 
L 182.412843 127.862329 
L 183.498644 128.684799 
L 184.584445 127.767429 
L 185.670246 131.911411 
L 186.756047 127.039859 
L 187.841849 124.161215 
L 188.92765 125.521454 
L 191.099252 124.034681 
L 192.185053 126.059222 
L 193.270854 125.48982 
L 194.356656 124.793884 
L 195.442457 124.382649 
L 196.528258 120.681535 
L 197.614059 119.004962 
L 198.69986 121.09277 
L 199.785661 117.549823 
L 200.871462 118.403927 
L 201.957264 117.42329 
L 203.043065 120.839702 
L 204.128866 118.973329 
L 205.214667 117.51819 
L 206.300468 119.321297 
L 207.386269 118.403927 
L 208.472071 117.866158 
L 210.643673 117.834524 
L 211.729474 117.328389 
L 213.901076 117.328389 
L 214.986877 117.106955 
L 216.072679 117.549823 
L 217.15848 115.904884 
L 218.244281 116.885521 
L 219.330082 115.87325 
L 220.415883 116.60082 
L 221.501684 116.157951 
L 222.587486 116.379386 
L 224.759088 116.347752 
L 225.844889 140.136109 
L 226.93069 139.819775 
L 228.016491 138.111568 
L 229.102292 133.999219 
L 230.188094 138.459536 
L 232.359696 139.123839 
L 233.445497 134.916589 
L 234.531298 136.719696 
L 235.617099 134.28392 
L 236.702901 134.347187 
L 237.788702 134.631888 
L 238.874503 136.340095 
L 239.960304 137.257465 
L 241.046105 130.393005 
L 242.131906 133.429817 
L 243.217708 135.865593 
L 244.303509 131.436909 
L 245.38931 133.145116 
L 246.475111 130.677707 
L 247.560912 135.359458 
L 248.646713 133.113483 
L 249.732514 132.132845 
L 250.818316 129.317468 
L 251.904117 129.79197 
L 252.989918 130.487906 
L 254.075719 131.025675 
L 255.16152 133.429817 
L 256.247321 128.589899 
L 257.333123 132.670614 
L 258.418924 130.930774 
L 259.504725 130.867507 
L 260.590526 134.948223 
L 261.676327 128.05213 
L 262.762128 127.451094 
L 263.847929 126.280657 
L 264.933731 125.995955 
L 266.019532 126.40719 
L 267.105333 133.050216 
L 268.191134 129.349102 
L 269.276935 127.830696 
L 270.362736 122.706076 
L 271.448538 127.640895 
L 272.534339 125.141852 
L 273.62014 125.268386 
L 274.705941 124.224482 
L 275.791742 125.426553 
L 276.877543 122.642809 
L 277.963344 123.180578 
L 279.049146 125.742888 
L 280.134947 122.326475 
L 281.220748 129.190934 
L 282.306549 122.358108 
L 283.39235 126.154123 
L 284.478151 122.263208 
L 285.563953 123.148945 
L 286.649754 117.739624 
L 287.735555 118.024325 
L 288.821356 126.944959 
L 289.907157 123.370379 
L 290.992958 120.618268 
L 292.07876 124.034681 
L 293.164561 118.182492 
L 294.250362 117.61309 
L 295.336163 118.214126 
L 296.421964 124.57245 
L 297.507765 122.263208 
L 298.593566 117.802891 
L 299.679368 118.403927 
L 300.765169 120.491735 
L 301.85097 120.048866 
L 302.936771 116.758987 
L 304.022572 119.985599 
L 305.108373 120.1754 
L 306.194175 115.746716 
L 307.279976 117.328389 
L 308.365777 117.012055 
L 309.451578 118.720261 
L 310.537379 119.669265 
L 311.62318 115.398748 
L 312.708981 118.182492 
L 313.794783 116.126318 
L 314.880584 117.170222 
L 315.966385 113.722175 
L 317.052186 113.374207 
L 318.137987 114.924247 
L 319.223788 115.398748 
L 320.30959 116.664087 
L 321.395391 114.766079 
L 322.481192 113.21604 
L 323.566993 113.342574 
L 324.652794 116.063051 
L 325.738595 112.140503 
L 326.824396 112.804805 
L 327.910198 110.811898 
L 328.995999 112.077236 
L 330.0818 112.29867 
L 331.167601 115.588549 
L 332.253402 109.54656 
L 333.339203 110.780264 
L 334.425005 112.456837 
L 335.510806 112.678271 
L 336.596607 110.179229 
L 337.682408 109.894528 
L 338.768209 110.147595 
L 339.85401 114.86098 
L 340.939811 112.456837 
L 342.025613 112.709905 
L 343.111414 110.052695 
L 344.197215 107.775086 
L 345.283016 110.622097 
L 346.368817 110.337396 
L 347.454618 110.685364 
L 348.54042 108.91389 
L 349.626221 109.198592 
L 350.712022 108.439389 
L 352.883624 110.021061 
L 353.969425 111.666001 
L 355.055227 108.81899 
L 356.141028 112.520104 
L 357.226829 112.994606 
L 358.31263 111.950702 
L 359.398431 110.115962 
L 360.484232 109.831261 
L 361.570033 109.103691 
L 362.655835 107.458752 
L 363.741636 108.312855 
L 364.827437 109.957794 
L 365.913238 109.831261 
L 368.08484 110.55883 
L 369.170642 108.154688 
L 370.256443 109.673093 
L 371.342244 109.325125 
L 372.428045 109.609826 
L 373.513846 107.205684 
L 374.599647 108.502656 
L 375.685448 108.755723 
L 376.77125 108.755723 
L 377.857051 107.616919 
L 378.942852 108.660823 
L 380.028653 108.629189 
L 381.114454 107.616919 
L 382.200255 108.376122 
L 384.371858 108.091421 
L 385.457659 107.838353 
L 386.54346 107.964887 
L 387.629261 108.344488 
L 388.715062 108.059787 
L 389.800863 107.90162 
L 390.886665 108.028154 
L 391.972466 107.616919 
L 393.058267 107.458752 
L 395.229869 107.490385 
L 396.31567 107.427118 
L 397.401472 107.585285 
L 398.487273 107.585285 
L 398.487273 107.585285 
" style="fill:none;stroke:#ff7f0e;stroke-linecap:square;stroke-width:1.5;"/>
   </g>
   <g id="patch_3">
    <path d="M 57.6 307.584 
L 57.6 41.472 
" style="fill:none;stroke:#000000;stroke-linecap:square;stroke-linejoin:miter;stroke-width:0.8;"/>
   </g>
   <g id="patch_4">
    <path d="M 414.72 307.584 
L 414.72 41.472 
" style="fill:none;stroke:#000000;stroke-linecap:square;stroke-linejoin:miter;stroke-width:0.8;"/>
   </g>
   <g id="patch_5">
    <path d="M 57.6 307.584 
L 414.72 307.584 
" style="fill:none;stroke:#000000;stroke-linecap:square;stroke-linejoin:miter;stroke-width:0.8;"/>
   </g>
   <g id="patch_6">
    <path d="M 57.6 41.472 
L 414.72 41.472 
" style="fill:none;stroke:#000000;stroke-linecap:square;stroke-linejoin:miter;stroke-width:0.8;"/>
   </g>
   <g id="text_22">
    <!-- Training and Validation Accuracy -->
    <g transform="translate(138.4575 35.472)scale(0.12 -0.12)">
     <defs>
      <path d="M -19 4666 
L 3928 4666 
L 3928 4134 
L 2272 4134 
L 2272 0 
L 1638 0 
L 1638 4134 
L -19 4134 
L -19 4666 
z
" id="DejaVuSans-54" transform="scale(0.015625)"/>
      <path d="M 603 3500 
L 1178 3500 
L 1178 0 
L 603 0 
L 603 3500 
z
M 603 4863 
L 1178 4863 
L 1178 4134 
L 603 4134 
L 603 4863 
z
" id="DejaVuSans-69" transform="scale(0.015625)"/>
      <path d="M 3513 2113 
L 3513 0 
L 2938 0 
L 2938 2094 
Q 2938 2591 2744 2837 
Q 2550 3084 2163 3084 
Q 1697 3084 1428 2787 
Q 1159 2491 1159 1978 
L 1159 0 
L 581 0 
L 581 3500 
L 1159 3500 
L 1159 2956 
Q 1366 3272 1645 3428 
Q 1925 3584 2291 3584 
Q 2894 3584 3203 3211 
Q 3513 2838 3513 2113 
z
" id="DejaVuSans-6e" transform="scale(0.015625)"/>
      <path d="M 2906 1791 
Q 2906 2416 2648 2759 
Q 2391 3103 1925 3103 
Q 1463 3103 1205 2759 
Q 947 2416 947 1791 
Q 947 1169 1205 825 
Q 1463 481 1925 481 
Q 2391 481 2648 825 
Q 2906 1169 2906 1791 
z
M 3481 434 
Q 3481 -459 3084 -895 
Q 2688 -1331 1869 -1331 
Q 1566 -1331 1297 -1286 
Q 1028 -1241 775 -1147 
L 775 -588 
Q 1028 -725 1275 -790 
Q 1522 -856 1778 -856 
Q 2344 -856 2625 -561 
Q 2906 -266 2906 331 
L 2906 616 
Q 2728 306 2450 153 
Q 2172 0 1784 0 
Q 1141 0 747 490 
Q 353 981 353 1791 
Q 353 2603 747 3093 
Q 1141 3584 1784 3584 
Q 2172 3584 2450 3431 
Q 2728 3278 2906 2969 
L 2906 3500 
L 3481 3500 
L 3481 434 
z
" id="DejaVuSans-67" transform="scale(0.015625)"/>
      <path id="DejaVuSans-20" transform="scale(0.015625)"/>
      <path d="M 2906 2969 
L 2906 4863 
L 3481 4863 
L 3481 0 
L 2906 0 
L 2906 525 
Q 2725 213 2448 61 
Q 2172 -91 1784 -91 
Q 1150 -91 751 415 
Q 353 922 353 1747 
Q 353 2572 751 3078 
Q 1150 3584 1784 3584 
Q 2172 3584 2448 3432 
Q 2725 3281 2906 2969 
z
M 947 1747 
Q 947 1113 1208 752 
Q 1469 391 1925 391 
Q 2381 391 2643 752 
Q 2906 1113 2906 1747 
Q 2906 2381 2643 2742 
Q 2381 3103 1925 3103 
Q 1469 3103 1208 2742 
Q 947 2381 947 1747 
z
" id="DejaVuSans-64" transform="scale(0.015625)"/>
      <path d="M 1831 0 
L 50 4666 
L 709 4666 
L 2188 738 
L 3669 4666 
L 4325 4666 
L 2547 0 
L 1831 0 
z
" id="DejaVuSans-56" transform="scale(0.015625)"/>
      <path d="M 603 4863 
L 1178 4863 
L 1178 0 
L 603 0 
L 603 4863 
z
" id="DejaVuSans-6c" transform="scale(0.015625)"/>
      <path d="M 1172 4494 
L 1172 3500 
L 2356 3500 
L 2356 3053 
L 1172 3053 
L 1172 1153 
Q 1172 725 1289 603 
Q 1406 481 1766 481 
L 2356 481 
L 2356 0 
L 1766 0 
Q 1100 0 847 248 
Q 594 497 594 1153 
L 594 3053 
L 172 3053 
L 172 3500 
L 594 3500 
L 594 4494 
L 1172 4494 
z
" id="DejaVuSans-74" transform="scale(0.015625)"/>
     </defs>
     <use xlink:href="#DejaVuSans-54"/>
     <use x="46.333984" xlink:href="#DejaVuSans-72"/>
     <use x="87.447266" xlink:href="#DejaVuSans-61"/>
     <use x="148.726562" xlink:href="#DejaVuSans-69"/>
     <use x="176.509766" xlink:href="#DejaVuSans-6e"/>
     <use x="239.888672" xlink:href="#DejaVuSans-69"/>
     <use x="267.671875" xlink:href="#DejaVuSans-6e"/>
     <use x="331.050781" xlink:href="#DejaVuSans-67"/>
     <use x="394.527344" xlink:href="#DejaVuSans-20"/>
     <use x="426.314453" xlink:href="#DejaVuSans-61"/>
     <use x="487.59375" xlink:href="#DejaVuSans-6e"/>
     <use x="550.972656" xlink:href="#DejaVuSans-64"/>
     <use x="614.449219" xlink:href="#DejaVuSans-20"/>
     <use x="646.236328" xlink:href="#DejaVuSans-56"/>
     <use x="706.894531" xlink:href="#DejaVuSans-61"/>
     <use x="768.173828" xlink:href="#DejaVuSans-6c"/>
     <use x="795.957031" xlink:href="#DejaVuSans-69"/>
     <use x="823.740234" xlink:href="#DejaVuSans-64"/>
     <use x="887.216797" xlink:href="#DejaVuSans-61"/>
     <use x="948.496094" xlink:href="#DejaVuSans-74"/>
     <use x="987.705078" xlink:href="#DejaVuSans-69"/>
     <use x="1015.488281" xlink:href="#DejaVuSans-6f"/>
     <use x="1076.669922" xlink:href="#DejaVuSans-6e"/>
     <use x="1140.048828" xlink:href="#DejaVuSans-20"/>
     <use x="1171.835938" xlink:href="#DejaVuSans-41"/>
     <use x="1238.494141" xlink:href="#DejaVuSans-63"/>
     <use x="1293.474609" xlink:href="#DejaVuSans-63"/>
     <use x="1348.455078" xlink:href="#DejaVuSans-75"/>
     <use x="1411.833984" xlink:href="#DejaVuSans-72"/>
     <use x="1452.947266" xlink:href="#DejaVuSans-61"/>
     <use x="1514.226562" xlink:href="#DejaVuSans-63"/>
     <use x="1569.207031" xlink:href="#DejaVuSans-79"/>
    </g>
   </g>
   <g id="legend_1">
    <g id="patch_7">
     <path d="M 64.6 78.82825 
L 194.815625 78.82825 
Q 196.815625 78.82825 196.815625 76.82825 
L 196.815625 48.472 
Q 196.815625 46.472 194.815625 46.472 
L 64.6 46.472 
Q 62.6 46.472 62.6 48.472 
L 62.6 76.82825 
Q 62.6 78.82825 64.6 78.82825 
z
" style="fill:#ffffff;opacity:0.8;stroke:#cccccc;stroke-linejoin:miter;"/>
    </g>
    <g id="line2d_22">
     <path d="M 66.6 54.570437 
L 86.6 54.570437 
" style="fill:none;stroke:#1f77b4;stroke-linecap:square;stroke-width:1.5;"/>
    </g>
    <g id="line2d_23"/>
    <g id="text_23">
     <!-- Train Accuracy -->
     <g transform="translate(94.6 58.070437)scale(0.1 -0.1)">
      <use xlink:href="#DejaVuSans-54"/>
      <use x="46.333984" xlink:href="#DejaVuSans-72"/>
      <use x="87.447266" xlink:href="#DejaVuSans-61"/>
      <use x="148.726562" xlink:href="#DejaVuSans-69"/>
      <use x="176.509766" xlink:href="#DejaVuSans-6e"/>
      <use x="239.888672" xlink:href="#DejaVuSans-20"/>
      <use x="271.675781" xlink:href="#DejaVuSans-41"/>
      <use x="338.333984" xlink:href="#DejaVuSans-63"/>
      <use x="393.314453" xlink:href="#DejaVuSans-63"/>
      <use x="448.294922" xlink:href="#DejaVuSans-75"/>
      <use x="511.673828" xlink:href="#DejaVuSans-72"/>
      <use x="552.787109" xlink:href="#DejaVuSans-61"/>
      <use x="614.066406" xlink:href="#DejaVuSans-63"/>
      <use x="669.046875" xlink:href="#DejaVuSans-79"/>
     </g>
    </g>
    <g id="line2d_24">
     <path d="M 66.6 69.248562 
L 86.6 69.248562 
" style="fill:none;stroke:#ff7f0e;stroke-linecap:square;stroke-width:1.5;"/>
    </g>
    <g id="line2d_25"/>
    <g id="text_24">
     <!-- Validation Accuracy -->
     <g transform="translate(94.6 72.748562)scale(0.1 -0.1)">
      <use xlink:href="#DejaVuSans-56"/>
      <use x="60.658203" xlink:href="#DejaVuSans-61"/>
      <use x="121.9375" xlink:href="#DejaVuSans-6c"/>
      <use x="149.720703" xlink:href="#DejaVuSans-69"/>
      <use x="177.503906" xlink:href="#DejaVuSans-64"/>
      <use x="240.980469" xlink:href="#DejaVuSans-61"/>
      <use x="302.259766" xlink:href="#DejaVuSans-74"/>
      <use x="341.46875" xlink:href="#DejaVuSans-69"/>
      <use x="369.251953" xlink:href="#DejaVuSans-6f"/>
      <use x="430.433594" xlink:href="#DejaVuSans-6e"/>
      <use x="493.8125" xlink:href="#DejaVuSans-20"/>
      <use x="525.599609" xlink:href="#DejaVuSans-41"/>
      <use x="592.257812" xlink:href="#DejaVuSans-63"/>
      <use x="647.238281" xlink:href="#DejaVuSans-63"/>
      <use x="702.21875" xlink:href="#DejaVuSans-75"/>
      <use x="765.597656" xlink:href="#DejaVuSans-72"/>
      <use x="806.710938" xlink:href="#DejaVuSans-61"/>
      <use x="867.990234" xlink:href="#DejaVuSans-63"/>
      <use x="922.970703" xlink:href="#DejaVuSans-79"/>
     </g>
    </g>
   </g>
  </g>
 </g>
 <defs>
  <clipPath id="p67bbac8c4c">
   <rect height="266.112" width="357.12" x="57.6" y="41.472"/>
  </clipPath>
 </defs>
</svg>
