<?xml version="1.0" encoding="utf-8" standalone="no"?>
<!DOCTYPE svg PUBLIC "-//W3C//DTD SVG 1.1//EN"
  "http://www.w3.org/Graphics/SVG/1.1/DTD/svg11.dtd">
<svg height="345.6pt" version="1.1" viewBox="0 0 460.8 345.6" width="460.8pt" xmlns="http://www.w3.org/2000/svg" xmlns:xlink="http://www.w3.org/1999/xlink">
 <metadata>
  <rdf:RDF xmlns:cc="http://creativecommons.org/ns#" xmlns:dc="http://purl.org/dc/elements/1.1/" xmlns:rdf="http://www.w3.org/1999/02/22-rdf-syntax-ns#">
   <cc:Work>
    <dc:type rdf:resource="http://purl.org/dc/dcmitype/StillImage"/>
    <dc:date>2023-07-14T10:39:18.390584</dc:date>
    <dc:format>image/svg+xml</dc:format>
    <dc:creator>
     <cc:Agent>
      <dc:title>Matplotlib v3.4.3, https://matplotlib.org/</dc:title>
     </cc:Agent>
    </dc:creator>
   </cc:Work>
  </rdf:RDF>
 </metadata>
 <defs>
  <style type="text/css">*{stroke-linecap:butt;stroke-linejoin:round;}</style>
 </defs>
 <g id="figure_1">
  <g id="patch_1">
   <path d="M 0 345.6 
L 460.8 345.6 
L 460.8 0 
L 0 0 
z
" style="fill:#ffffff;"/>
  </g>
  <g id="axes_1">
   <g id="patch_2">
    <path d="M 57.6 307.584 
L 414.72 307.584 
L 414.72 41.472 
L 57.6 41.472 
z
" style="fill:#ffffff;"/>
   </g>
   <g id="matplotlib.axis_1">
    <g id="xtick_1">
     <g id="line2d_1">
      <defs>
       <path d="M 0 0 
L 0 3.5 
" id="m93fbe68cde" style="stroke:#000000;stroke-width:0.8;"/>
      </defs>
      <g>
       <use style="stroke:#000000;stroke-width:0.8;" x="72.746926" xlink:href="#m93fbe68cde" y="307.584"/>
      </g>
     </g>
     <g id="text_1">
      <!-- 0 -->
      <g transform="translate(69.565676 322.182437)scale(0.1 -0.1)">
       <defs>
        <path d="M 2034 4250 
Q 1547 4250 1301 3770 
Q 1056 3291 1056 2328 
Q 1056 1369 1301 889 
Q 1547 409 2034 409 
Q 2525 409 2770 889 
Q 3016 1369 3016 2328 
Q 3016 3291 2770 3770 
Q 2525 4250 2034 4250 
z
M 2034 4750 
Q 2819 4750 3233 4129 
Q 3647 3509 3647 2328 
Q 3647 1150 3233 529 
Q 2819 -91 2034 -91 
Q 1250 -91 836 529 
Q 422 1150 422 2328 
Q 422 3509 836 4129 
Q 1250 4750 2034 4750 
z
" id="DejaVuSans-30" transform="scale(0.015625)"/>
       </defs>
       <use xlink:href="#DejaVuSans-30"/>
      </g>
     </g>
    </g>
    <g id="xtick_2">
     <g id="line2d_2">
      <g>
       <use style="stroke:#000000;stroke-width:0.8;" x="105.320961" xlink:href="#m93fbe68cde" y="307.584"/>
      </g>
     </g>
     <g id="text_2">
      <!-- 30 -->
      <g transform="translate(98.958461 322.182437)scale(0.1 -0.1)">
       <defs>
        <path d="M 2597 2516 
Q 3050 2419 3304 2112 
Q 3559 1806 3559 1356 
Q 3559 666 3084 287 
Q 2609 -91 1734 -91 
Q 1441 -91 1130 -33 
Q 819 25 488 141 
L 488 750 
Q 750 597 1062 519 
Q 1375 441 1716 441 
Q 2309 441 2620 675 
Q 2931 909 2931 1356 
Q 2931 1769 2642 2001 
Q 2353 2234 1838 2234 
L 1294 2234 
L 1294 2753 
L 1863 2753 
Q 2328 2753 2575 2939 
Q 2822 3125 2822 3475 
Q 2822 3834 2567 4026 
Q 2313 4219 1838 4219 
Q 1578 4219 1281 4162 
Q 984 4106 628 3988 
L 628 4550 
Q 988 4650 1302 4700 
Q 1616 4750 1894 4750 
Q 2613 4750 3031 4423 
Q 3450 4097 3450 3541 
Q 3450 3153 3228 2886 
Q 3006 2619 2597 2516 
z
" id="DejaVuSans-33" transform="scale(0.015625)"/>
       </defs>
       <use xlink:href="#DejaVuSans-33"/>
       <use x="63.623047" xlink:href="#DejaVuSans-30"/>
      </g>
     </g>
    </g>
    <g id="xtick_3">
     <g id="line2d_3">
      <g>
       <use style="stroke:#000000;stroke-width:0.8;" x="137.894995" xlink:href="#m93fbe68cde" y="307.584"/>
      </g>
     </g>
     <g id="text_3">
      <!-- 60 -->
      <g transform="translate(131.532495 322.182437)scale(0.1 -0.1)">
       <defs>
        <path d="M 2113 2584 
Q 1688 2584 1439 2293 
Q 1191 2003 1191 1497 
Q 1191 994 1439 701 
Q 1688 409 2113 409 
Q 2538 409 2786 701 
Q 3034 994 3034 1497 
Q 3034 2003 2786 2293 
Q 2538 2584 2113 2584 
z
M 3366 4563 
L 3366 3988 
Q 3128 4100 2886 4159 
Q 2644 4219 2406 4219 
Q 1781 4219 1451 3797 
Q 1122 3375 1075 2522 
Q 1259 2794 1537 2939 
Q 1816 3084 2150 3084 
Q 2853 3084 3261 2657 
Q 3669 2231 3669 1497 
Q 3669 778 3244 343 
Q 2819 -91 2113 -91 
Q 1303 -91 875 529 
Q 447 1150 447 2328 
Q 447 3434 972 4092 
Q 1497 4750 2381 4750 
Q 2619 4750 2861 4703 
Q 3103 4656 3366 4563 
z
" id="DejaVuSans-36" transform="scale(0.015625)"/>
       </defs>
       <use xlink:href="#DejaVuSans-36"/>
       <use x="63.623047" xlink:href="#DejaVuSans-30"/>
      </g>
     </g>
    </g>
    <g id="xtick_4">
     <g id="line2d_4">
      <g>
       <use style="stroke:#000000;stroke-width:0.8;" x="170.46903" xlink:href="#m93fbe68cde" y="307.584"/>
      </g>
     </g>
     <g id="text_4">
      <!-- 90 -->
      <g transform="translate(164.10653 322.182437)scale(0.1 -0.1)">
       <defs>
        <path d="M 703 97 
L 703 672 
Q 941 559 1184 500 
Q 1428 441 1663 441 
Q 2288 441 2617 861 
Q 2947 1281 2994 2138 
Q 2813 1869 2534 1725 
Q 2256 1581 1919 1581 
Q 1219 1581 811 2004 
Q 403 2428 403 3163 
Q 403 3881 828 4315 
Q 1253 4750 1959 4750 
Q 2769 4750 3195 4129 
Q 3622 3509 3622 2328 
Q 3622 1225 3098 567 
Q 2575 -91 1691 -91 
Q 1453 -91 1209 -44 
Q 966 3 703 97 
z
M 1959 2075 
Q 2384 2075 2632 2365 
Q 2881 2656 2881 3163 
Q 2881 3666 2632 3958 
Q 2384 4250 1959 4250 
Q 1534 4250 1286 3958 
Q 1038 3666 1038 3163 
Q 1038 2656 1286 2365 
Q 1534 2075 1959 2075 
z
" id="DejaVuSans-39" transform="scale(0.015625)"/>
       </defs>
       <use xlink:href="#DejaVuSans-39"/>
       <use x="63.623047" xlink:href="#DejaVuSans-30"/>
      </g>
     </g>
    </g>
    <g id="xtick_5">
     <g id="line2d_5">
      <g>
       <use style="stroke:#000000;stroke-width:0.8;" x="203.043065" xlink:href="#m93fbe68cde" y="307.584"/>
      </g>
     </g>
     <g id="text_5">
      <!-- 120 -->
      <g transform="translate(193.499315 322.182437)scale(0.1 -0.1)">
       <defs>
        <path d="M 794 531 
L 1825 531 
L 1825 4091 
L 703 3866 
L 703 4441 
L 1819 4666 
L 2450 4666 
L 2450 531 
L 3481 531 
L 3481 0 
L 794 0 
L 794 531 
z
" id="DejaVuSans-31" transform="scale(0.015625)"/>
        <path d="M 1228 531 
L 3431 531 
L 3431 0 
L 469 0 
L 469 531 
Q 828 903 1448 1529 
Q 2069 2156 2228 2338 
Q 2531 2678 2651 2914 
Q 2772 3150 2772 3378 
Q 2772 3750 2511 3984 
Q 2250 4219 1831 4219 
Q 1534 4219 1204 4116 
Q 875 4013 500 3803 
L 500 4441 
Q 881 4594 1212 4672 
Q 1544 4750 1819 4750 
Q 2544 4750 2975 4387 
Q 3406 4025 3406 3419 
Q 3406 3131 3298 2873 
Q 3191 2616 2906 2266 
Q 2828 2175 2409 1742 
Q 1991 1309 1228 531 
z
" id="DejaVuSans-32" transform="scale(0.015625)"/>
       </defs>
       <use xlink:href="#DejaVuSans-31"/>
       <use x="63.623047" xlink:href="#DejaVuSans-32"/>
       <use x="127.246094" xlink:href="#DejaVuSans-30"/>
      </g>
     </g>
    </g>
    <g id="xtick_6">
     <g id="line2d_6">
      <g>
       <use style="stroke:#000000;stroke-width:0.8;" x="235.617099" xlink:href="#m93fbe68cde" y="307.584"/>
      </g>
     </g>
     <g id="text_6">
      <!-- 150 -->
      <g transform="translate(226.073349 322.182437)scale(0.1 -0.1)">
       <defs>
        <path d="M 691 4666 
L 3169 4666 
L 3169 4134 
L 1269 4134 
L 1269 2991 
Q 1406 3038 1543 3061 
Q 1681 3084 1819 3084 
Q 2600 3084 3056 2656 
Q 3513 2228 3513 1497 
Q 3513 744 3044 326 
Q 2575 -91 1722 -91 
Q 1428 -91 1123 -41 
Q 819 9 494 109 
L 494 744 
Q 775 591 1075 516 
Q 1375 441 1709 441 
Q 2250 441 2565 725 
Q 2881 1009 2881 1497 
Q 2881 1984 2565 2268 
Q 2250 2553 1709 2553 
Q 1456 2553 1204 2497 
Q 953 2441 691 2322 
L 691 4666 
z
" id="DejaVuSans-35" transform="scale(0.015625)"/>
       </defs>
       <use xlink:href="#DejaVuSans-31"/>
       <use x="63.623047" xlink:href="#DejaVuSans-35"/>
       <use x="127.246094" xlink:href="#DejaVuSans-30"/>
      </g>
     </g>
    </g>
    <g id="xtick_7">
     <g id="line2d_7">
      <g>
       <use style="stroke:#000000;stroke-width:0.8;" x="268.191134" xlink:href="#m93fbe68cde" y="307.584"/>
      </g>
     </g>
     <g id="text_7">
      <!-- 180 -->
      <g transform="translate(258.647384 322.182437)scale(0.1 -0.1)">
       <defs>
        <path d="M 2034 2216 
Q 1584 2216 1326 1975 
Q 1069 1734 1069 1313 
Q 1069 891 1326 650 
Q 1584 409 2034 409 
Q 2484 409 2743 651 
Q 3003 894 3003 1313 
Q 3003 1734 2745 1975 
Q 2488 2216 2034 2216 
z
M 1403 2484 
Q 997 2584 770 2862 
Q 544 3141 544 3541 
Q 544 4100 942 4425 
Q 1341 4750 2034 4750 
Q 2731 4750 3128 4425 
Q 3525 4100 3525 3541 
Q 3525 3141 3298 2862 
Q 3072 2584 2669 2484 
Q 3125 2378 3379 2068 
Q 3634 1759 3634 1313 
Q 3634 634 3220 271 
Q 2806 -91 2034 -91 
Q 1263 -91 848 271 
Q 434 634 434 1313 
Q 434 1759 690 2068 
Q 947 2378 1403 2484 
z
M 1172 3481 
Q 1172 3119 1398 2916 
Q 1625 2713 2034 2713 
Q 2441 2713 2670 2916 
Q 2900 3119 2900 3481 
Q 2900 3844 2670 4047 
Q 2441 4250 2034 4250 
Q 1625 4250 1398 4047 
Q 1172 3844 1172 3481 
z
" id="DejaVuSans-38" transform="scale(0.015625)"/>
       </defs>
       <use xlink:href="#DejaVuSans-31"/>
       <use x="63.623047" xlink:href="#DejaVuSans-38"/>
       <use x="127.246094" xlink:href="#DejaVuSans-30"/>
      </g>
     </g>
    </g>
    <g id="xtick_8">
     <g id="line2d_8">
      <g>
       <use style="stroke:#000000;stroke-width:0.8;" x="300.765169" xlink:href="#m93fbe68cde" y="307.584"/>
      </g>
     </g>
     <g id="text_8">
      <!-- 210 -->
      <g transform="translate(291.221419 322.182437)scale(0.1 -0.1)">
       <use xlink:href="#DejaVuSans-32"/>
       <use x="63.623047" xlink:href="#DejaVuSans-31"/>
       <use x="127.246094" xlink:href="#DejaVuSans-30"/>
      </g>
     </g>
    </g>
    <g id="xtick_9">
     <g id="line2d_9">
      <g>
       <use style="stroke:#000000;stroke-width:0.8;" x="333.339203" xlink:href="#m93fbe68cde" y="307.584"/>
      </g>
     </g>
     <g id="text_9">
      <!-- 240 -->
      <g transform="translate(323.795453 322.182437)scale(0.1 -0.1)">
       <defs>
        <path d="M 2419 4116 
L 825 1625 
L 2419 1625 
L 2419 4116 
z
M 2253 4666 
L 3047 4666 
L 3047 1625 
L 3713 1625 
L 3713 1100 
L 3047 1100 
L 3047 0 
L 2419 0 
L 2419 1100 
L 313 1100 
L 313 1709 
L 2253 4666 
z
" id="DejaVuSans-34" transform="scale(0.015625)"/>
       </defs>
       <use xlink:href="#DejaVuSans-32"/>
       <use x="63.623047" xlink:href="#DejaVuSans-34"/>
       <use x="127.246094" xlink:href="#DejaVuSans-30"/>
      </g>
     </g>
    </g>
    <g id="xtick_10">
     <g id="line2d_10">
      <g>
       <use style="stroke:#000000;stroke-width:0.8;" x="365.913238" xlink:href="#m93fbe68cde" y="307.584"/>
      </g>
     </g>
     <g id="text_10">
      <!-- 270 -->
      <g transform="translate(356.369488 322.182437)scale(0.1 -0.1)">
       <defs>
        <path d="M 525 4666 
L 3525 4666 
L 3525 4397 
L 1831 0 
L 1172 0 
L 2766 4134 
L 525 4134 
L 525 4666 
z
" id="DejaVuSans-37" transform="scale(0.015625)"/>
       </defs>
       <use xlink:href="#DejaVuSans-32"/>
       <use x="63.623047" xlink:href="#DejaVuSans-37"/>
       <use x="127.246094" xlink:href="#DejaVuSans-30"/>
      </g>
     </g>
    </g>
    <g id="xtick_11">
     <g id="line2d_11">
      <g>
       <use style="stroke:#000000;stroke-width:0.8;" x="398.487273" xlink:href="#m93fbe68cde" y="307.584"/>
      </g>
     </g>
     <g id="text_11">
      <!-- 300 -->
      <g transform="translate(388.943523 322.182437)scale(0.1 -0.1)">
       <use xlink:href="#DejaVuSans-33"/>
       <use x="63.623047" xlink:href="#DejaVuSans-30"/>
       <use x="127.246094" xlink:href="#DejaVuSans-30"/>
      </g>
     </g>
    </g>
    <g id="text_12">
     <!-- Epochs -->
     <g transform="translate(218.244375 335.860562)scale(0.1 -0.1)">
      <defs>
       <path d="M 628 4666 
L 3578 4666 
L 3578 4134 
L 1259 4134 
L 1259 2753 
L 3481 2753 
L 3481 2222 
L 1259 2222 
L 1259 531 
L 3634 531 
L 3634 0 
L 628 0 
L 628 4666 
z
" id="DejaVuSans-45" transform="scale(0.015625)"/>
       <path d="M 1159 525 
L 1159 -1331 
L 581 -1331 
L 581 3500 
L 1159 3500 
L 1159 2969 
Q 1341 3281 1617 3432 
Q 1894 3584 2278 3584 
Q 2916 3584 3314 3078 
Q 3713 2572 3713 1747 
Q 3713 922 3314 415 
Q 2916 -91 2278 -91 
Q 1894 -91 1617 61 
Q 1341 213 1159 525 
z
M 3116 1747 
Q 3116 2381 2855 2742 
Q 2594 3103 2138 3103 
Q 1681 3103 1420 2742 
Q 1159 2381 1159 1747 
Q 1159 1113 1420 752 
Q 1681 391 2138 391 
Q 2594 391 2855 752 
Q 3116 1113 3116 1747 
z
" id="DejaVuSans-70" transform="scale(0.015625)"/>
       <path d="M 1959 3097 
Q 1497 3097 1228 2736 
Q 959 2375 959 1747 
Q 959 1119 1226 758 
Q 1494 397 1959 397 
Q 2419 397 2687 759 
Q 2956 1122 2956 1747 
Q 2956 2369 2687 2733 
Q 2419 3097 1959 3097 
z
M 1959 3584 
Q 2709 3584 3137 3096 
Q 3566 2609 3566 1747 
Q 3566 888 3137 398 
Q 2709 -91 1959 -91 
Q 1206 -91 779 398 
Q 353 888 353 1747 
Q 353 2609 779 3096 
Q 1206 3584 1959 3584 
z
" id="DejaVuSans-6f" transform="scale(0.015625)"/>
       <path d="M 3122 3366 
L 3122 2828 
Q 2878 2963 2633 3030 
Q 2388 3097 2138 3097 
Q 1578 3097 1268 2742 
Q 959 2388 959 1747 
Q 959 1106 1268 751 
Q 1578 397 2138 397 
Q 2388 397 2633 464 
Q 2878 531 3122 666 
L 3122 134 
Q 2881 22 2623 -34 
Q 2366 -91 2075 -91 
Q 1284 -91 818 406 
Q 353 903 353 1747 
Q 353 2603 823 3093 
Q 1294 3584 2113 3584 
Q 2378 3584 2631 3529 
Q 2884 3475 3122 3366 
z
" id="DejaVuSans-63" transform="scale(0.015625)"/>
       <path d="M 3513 2113 
L 3513 0 
L 2938 0 
L 2938 2094 
Q 2938 2591 2744 2837 
Q 2550 3084 2163 3084 
Q 1697 3084 1428 2787 
Q 1159 2491 1159 1978 
L 1159 0 
L 581 0 
L 581 4863 
L 1159 4863 
L 1159 2956 
Q 1366 3272 1645 3428 
Q 1925 3584 2291 3584 
Q 2894 3584 3203 3211 
Q 3513 2838 3513 2113 
z
" id="DejaVuSans-68" transform="scale(0.015625)"/>
       <path d="M 2834 3397 
L 2834 2853 
Q 2591 2978 2328 3040 
Q 2066 3103 1784 3103 
Q 1356 3103 1142 2972 
Q 928 2841 928 2578 
Q 928 2378 1081 2264 
Q 1234 2150 1697 2047 
L 1894 2003 
Q 2506 1872 2764 1633 
Q 3022 1394 3022 966 
Q 3022 478 2636 193 
Q 2250 -91 1575 -91 
Q 1294 -91 989 -36 
Q 684 19 347 128 
L 347 722 
Q 666 556 975 473 
Q 1284 391 1588 391 
Q 1994 391 2212 530 
Q 2431 669 2431 922 
Q 2431 1156 2273 1281 
Q 2116 1406 1581 1522 
L 1381 1569 
Q 847 1681 609 1914 
Q 372 2147 372 2553 
Q 372 3047 722 3315 
Q 1072 3584 1716 3584 
Q 2034 3584 2315 3537 
Q 2597 3491 2834 3397 
z
" id="DejaVuSans-73" transform="scale(0.015625)"/>
      </defs>
      <use xlink:href="#DejaVuSans-45"/>
      <use x="63.183594" xlink:href="#DejaVuSans-70"/>
      <use x="126.660156" xlink:href="#DejaVuSans-6f"/>
      <use x="187.841797" xlink:href="#DejaVuSans-63"/>
      <use x="242.822266" xlink:href="#DejaVuSans-68"/>
      <use x="306.201172" xlink:href="#DejaVuSans-73"/>
     </g>
    </g>
   </g>
   <g id="matplotlib.axis_2">
    <g id="ytick_1">
     <g id="line2d_12">
      <defs>
       <path d="M 0 0 
L -3.5 0 
" id="me4c11b7dcc" style="stroke:#000000;stroke-width:0.8;"/>
      </defs>
      <g>
       <use style="stroke:#000000;stroke-width:0.8;" x="57.6" xlink:href="#me4c11b7dcc" y="281.123182"/>
      </g>
     </g>
     <g id="text_13">
      <!-- 20 -->
      <g transform="translate(37.875 284.9224)scale(0.1 -0.1)">
       <use xlink:href="#DejaVuSans-32"/>
       <use x="63.623047" xlink:href="#DejaVuSans-30"/>
      </g>
     </g>
    </g>
    <g id="ytick_2">
     <g id="line2d_13">
      <g>
       <use style="stroke:#000000;stroke-width:0.8;" x="57.6" xlink:href="#me4c11b7dcc" y="243.714801"/>
      </g>
     </g>
     <g id="text_14">
      <!-- 30 -->
      <g transform="translate(37.875 247.514019)scale(0.1 -0.1)">
       <use xlink:href="#DejaVuSans-33"/>
       <use x="63.623047" xlink:href="#DejaVuSans-30"/>
      </g>
     </g>
    </g>
    <g id="ytick_3">
     <g id="line2d_14">
      <g>
       <use style="stroke:#000000;stroke-width:0.8;" x="57.6" xlink:href="#me4c11b7dcc" y="206.30642"/>
      </g>
     </g>
     <g id="text_15">
      <!-- 40 -->
      <g transform="translate(37.875 210.105638)scale(0.1 -0.1)">
       <use xlink:href="#DejaVuSans-34"/>
       <use x="63.623047" xlink:href="#DejaVuSans-30"/>
      </g>
     </g>
    </g>
    <g id="ytick_4">
     <g id="line2d_15">
      <g>
       <use style="stroke:#000000;stroke-width:0.8;" x="57.6" xlink:href="#me4c11b7dcc" y="168.898039"/>
      </g>
     </g>
     <g id="text_16">
      <!-- 50 -->
      <g transform="translate(37.875 172.697257)scale(0.1 -0.1)">
       <use xlink:href="#DejaVuSans-35"/>
       <use x="63.623047" xlink:href="#DejaVuSans-30"/>
      </g>
     </g>
    </g>
    <g id="ytick_5">
     <g id="line2d_16">
      <g>
       <use style="stroke:#000000;stroke-width:0.8;" x="57.6" xlink:href="#me4c11b7dcc" y="131.489658"/>
      </g>
     </g>
     <g id="text_17">
      <!-- 60 -->
      <g transform="translate(37.875 135.288876)scale(0.1 -0.1)">
       <use xlink:href="#DejaVuSans-36"/>
       <use x="63.623047" xlink:href="#DejaVuSans-30"/>
      </g>
     </g>
    </g>
    <g id="ytick_6">
     <g id="line2d_17">
      <g>
       <use style="stroke:#000000;stroke-width:0.8;" x="57.6" xlink:href="#me4c11b7dcc" y="94.081277"/>
      </g>
     </g>
     <g id="text_18">
      <!-- 70 -->
      <g transform="translate(37.875 97.880495)scale(0.1 -0.1)">
       <use xlink:href="#DejaVuSans-37"/>
       <use x="63.623047" xlink:href="#DejaVuSans-30"/>
      </g>
     </g>
    </g>
    <g id="ytick_7">
     <g id="line2d_18">
      <g>
       <use style="stroke:#000000;stroke-width:0.8;" x="57.6" xlink:href="#me4c11b7dcc" y="56.672896"/>
      </g>
     </g>
     <g id="text_19">
      <!-- 80 -->
      <g transform="translate(37.875 60.472114)scale(0.1 -0.1)">
       <use xlink:href="#DejaVuSans-38"/>
       <use x="63.623047" xlink:href="#DejaVuSans-30"/>
      </g>
     </g>
    </g>
    <g id="text_20">
     <!-- Accuracy -->
     <g transform="translate(31.795312 197.356125)rotate(-90)scale(0.1 -0.1)">
      <defs>
       <path d="M 2188 4044 
L 1331 1722 
L 3047 1722 
L 2188 4044 
z
M 1831 4666 
L 2547 4666 
L 4325 0 
L 3669 0 
L 3244 1197 
L 1141 1197 
L 716 0 
L 50 0 
L 1831 4666 
z
" id="DejaVuSans-41" transform="scale(0.015625)"/>
       <path d="M 544 1381 
L 544 3500 
L 1119 3500 
L 1119 1403 
Q 1119 906 1312 657 
Q 1506 409 1894 409 
Q 2359 409 2629 706 
Q 2900 1003 2900 1516 
L 2900 3500 
L 3475 3500 
L 3475 0 
L 2900 0 
L 2900 538 
Q 2691 219 2414 64 
Q 2138 -91 1772 -91 
Q 1169 -91 856 284 
Q 544 659 544 1381 
z
M 1991 3584 
L 1991 3584 
z
" id="DejaVuSans-75" transform="scale(0.015625)"/>
       <path d="M 2631 2963 
Q 2534 3019 2420 3045 
Q 2306 3072 2169 3072 
Q 1681 3072 1420 2755 
Q 1159 2438 1159 1844 
L 1159 0 
L 581 0 
L 581 3500 
L 1159 3500 
L 1159 2956 
Q 1341 3275 1631 3429 
Q 1922 3584 2338 3584 
Q 2397 3584 2469 3576 
Q 2541 3569 2628 3553 
L 2631 2963 
z
" id="DejaVuSans-72" transform="scale(0.015625)"/>
       <path d="M 2194 1759 
Q 1497 1759 1228 1600 
Q 959 1441 959 1056 
Q 959 750 1161 570 
Q 1363 391 1709 391 
Q 2188 391 2477 730 
Q 2766 1069 2766 1631 
L 2766 1759 
L 2194 1759 
z
M 3341 1997 
L 3341 0 
L 2766 0 
L 2766 531 
Q 2569 213 2275 61 
Q 1981 -91 1556 -91 
Q 1019 -91 701 211 
Q 384 513 384 1019 
Q 384 1609 779 1909 
Q 1175 2209 1959 2209 
L 2766 2209 
L 2766 2266 
Q 2766 2663 2505 2880 
Q 2244 3097 1772 3097 
Q 1472 3097 1187 3025 
Q 903 2953 641 2809 
L 641 3341 
Q 956 3463 1253 3523 
Q 1550 3584 1831 3584 
Q 2591 3584 2966 3190 
Q 3341 2797 3341 1997 
z
" id="DejaVuSans-61" transform="scale(0.015625)"/>
       <path d="M 2059 -325 
Q 1816 -950 1584 -1140 
Q 1353 -1331 966 -1331 
L 506 -1331 
L 506 -850 
L 844 -850 
Q 1081 -850 1212 -737 
Q 1344 -625 1503 -206 
L 1606 56 
L 191 3500 
L 800 3500 
L 1894 763 
L 2988 3500 
L 3597 3500 
L 2059 -325 
z
" id="DejaVuSans-79" transform="scale(0.015625)"/>
      </defs>
      <use xlink:href="#DejaVuSans-41"/>
      <use x="66.658203" xlink:href="#DejaVuSans-63"/>
      <use x="121.638672" xlink:href="#DejaVuSans-63"/>
      <use x="176.619141" xlink:href="#DejaVuSans-75"/>
      <use x="239.998047" xlink:href="#DejaVuSans-72"/>
      <use x="281.111328" xlink:href="#DejaVuSans-61"/>
      <use x="342.390625" xlink:href="#DejaVuSans-63"/>
      <use x="397.371094" xlink:href="#DejaVuSans-79"/>
     </g>
    </g>
   </g>
   <g id="line2d_19">
    <path clip-path="url(#p3806e080b7)" d="M 73.832727 295.488 
L 74.918528 283.951255 
L 76.00433 276.155349 
L 77.090131 271.554118 
L 78.175932 262.366619 
L 79.261733 251.795011 
L 81.433335 227.913501 
L 82.519137 221.658819 
L 83.604938 217.708494 
L 84.690739 211.206918 
L 85.77654 207.256593 
L 86.862341 204.189105 
L 87.948142 199.161419 
L 89.033943 198.435696 
L 90.119745 194.081361 
L 91.205546 190.95402 
L 92.291347 189.188345 
L 93.377148 188.021203 
L 94.462949 187.736899 
L 95.54875 211.132101 
L 96.634552 211.169509 
L 98.806154 210.885206 
L 99.891955 208.700556 
L 100.977756 207.204221 
L 102.063557 208.116985 
L 103.149358 204.959718 
L 104.23516 205.790184 
L 105.320961 203.411011 
L 106.406762 203.081817 
L 107.492563 200.216335 
L 108.578364 200.186409 
L 109.664165 197.7399 
L 110.749967 196.385717 
L 111.835768 194.156178 
L 112.921569 192.644879 
L 114.00737 191.754559 
L 115.093171 191.417884 
L 116.178972 189.293088 
L 117.264773 189.083601 
L 118.350575 183.981098 
L 119.436376 183.180559 
L 120.522177 181.721632 
L 121.607978 179.993364 
L 122.693779 176.925877 
L 123.77958 175.137757 
L 124.865382 172.436872 
L 125.951183 171.284693 
L 127.036984 169.541463 
L 128.122785 167.416667 
L 129.208586 165.980185 
L 130.294387 164.072358 
L 131.380189 161.655776 
L 132.46599 160.481153 
L 133.551791 160.264184 
L 134.637592 159.635724 
L 135.723393 157.787749 
L 136.809194 157.25655 
L 137.894995 157.114399 
L 138.980797 192.15857 
L 140.066598 194.201068 
L 141.152399 195.600141 
L 142.2382 195.540288 
L 143.324001 196.168748 
L 144.409802 196.931879 
L 145.495604 196.17623 
L 146.581405 195.046497 
L 147.667206 193.714759 
L 148.753007 193.662387 
L 150.924609 190.654753 
L 152.01041 190.475193 
L 153.096212 190.467711 
L 154.182013 188.941449 
L 155.267814 188.724481 
L 156.353615 188.32047 
L 157.439416 185.28291 
L 158.525217 184.587114 
L 159.611019 183.375082 
L 160.69682 184.145695 
L 161.782621 182.537134 
L 162.868422 180.606862 
L 165.040024 178.115464 
L 166.125825 178.287542 
L 167.211627 178.287542 
L 168.297428 175.855998 
L 169.383229 174.718783 
L 170.46903 172.908217 
L 171.554831 173.155112 
L 172.640632 171.838337 
L 173.726434 172.227385 
L 174.812235 169.9754 
L 175.898036 169.556426 
L 176.983837 167.768306 
L 178.069638 165.740771 
L 179.155439 165.074902 
L 180.24124 163.122185 
L 181.327042 163.795535 
L 185.670246 159.044671 
L 186.756047 157.002173 
L 187.841849 153.964613 
L 188.92765 154.383587 
L 191.099252 151.136539 
L 192.185053 150.208812 
L 193.270854 147.867047 
L 194.356656 146.63257 
L 195.442457 145.106308 
L 196.528258 145.757214 
L 197.614059 141.993931 
L 198.69986 141.679701 
L 199.785661 139.973878 
L 200.871462 138.829182 
L 201.957264 136.248004 
L 203.043065 136.038517 
L 204.128866 133.734161 
L 205.214667 132.948585 
L 206.300468 130.614302 
L 207.386269 129.918506 
L 208.472071 129.768872 
L 209.557872 127.105395 
L 210.643673 126.035516 
L 211.729474 123.843385 
L 212.815275 122.728615 
L 213.901076 122.070227 
L 214.986877 121.007829 
L 216.072679 120.850714 
L 217.15848 119.070075 
L 218.244281 118.935405 
L 219.330082 119.085039 
L 220.415883 117.783227 
L 221.501684 116.982687 
L 222.587486 117.341808 
L 223.673287 116.586159 
L 224.759088 115.628504 
L 225.844889 169.84073 
L 226.93069 174.284846 
L 228.016491 174.509296 
L 229.102292 175.885924 
L 230.188094 176.058003 
L 232.359696 174.756191 
L 233.445497 175.504359 
L 234.531298 176.102893 
L 235.617099 174.988123 
L 236.702901 173.319709 
L 237.788702 173.671348 
L 238.874503 171.973008 
L 239.960304 171.853301 
L 241.046105 171.254767 
L 242.131906 170.880683 
L 243.217708 169.451683 
L 244.303509 170.768458 
L 245.38931 170.184887 
L 246.475111 170.529044 
L 247.560912 168.224688 
L 248.646713 168.59129 
L 249.732514 169.406793 
L 250.818316 168.853149 
L 252.989918 167.469039 
L 254.075719 165.703363 
L 255.16152 167.334368 
L 256.247321 165.11231 
L 257.333123 165.636028 
L 258.418924 165.314316 
L 259.504725 165.456468 
L 260.590526 164.872897 
L 261.676327 165.486394 
L 262.762128 163.653384 
L 263.847929 163.264336 
L 264.933731 162.486242 
L 266.019532 162.994996 
L 267.105333 162.635876 
L 268.191134 163.024923 
L 270.362736 161.461253 
L 271.448538 160.339001 
L 272.534339 160.95998 
L 273.62014 160.518561 
L 274.705941 161.378954 
L 275.791742 158.902519 
L 276.877543 160.032252 
L 277.963344 158.393765 
L 279.049146 158.50599 
L 280.134947 158.969854 
L 281.220748 157.249069 
L 282.306549 157.144325 
L 283.39235 156.126817 
L 284.478151 156.665498 
L 285.563953 155.475912 
L 286.649754 155.071901 
L 287.735555 155.079383 
L 288.821356 153.620456 
L 289.907157 154.39855 
L 290.992958 154.331215 
L 292.07876 152.550576 
L 293.164561 153.478304 
L 294.250362 152.595466 
L 295.336163 151.525587 
L 296.421964 149.894581 
L 298.593566 151.241283 
L 299.679368 150.702602 
L 300.765169 149.670131 
L 302.936771 148.300984 
L 304.022572 147.88201 
L 305.108373 146.430565 
L 306.194175 146.699905 
L 307.279976 145.532764 
L 308.365777 145.854476 
L 309.451578 144.851931 
L 310.537379 144.425476 
L 311.62318 143.048847 
L 313.794783 142.315643 
L 314.880584 142.70469 
L 315.966385 140.87168 
L 317.052186 141.694664 
L 318.137987 140.789381 
L 319.223788 139.554905 
L 320.30959 139.584831 
L 321.395391 137.325365 
L 322.481192 138.634658 
L 323.566993 136.045998 
L 324.652794 136.644533 
L 325.738595 136.464972 
L 326.824396 134.123208 
L 327.910198 134.160616 
L 328.995999 132.97103 
L 330.0818 133.255333 
L 331.167601 131.616846 
L 332.253402 130.487113 
L 333.339203 129.985841 
L 334.425005 128.781291 
L 335.510806 129.379825 
L 336.596607 127.97327 
L 338.768209 127.352291 
L 339.85401 126.072924 
L 340.939811 125.60906 
L 342.025613 124.628961 
L 343.111414 123.461819 
L 344.197215 122.564018 
L 345.283016 122.324604 
L 346.368817 121.314578 
L 347.454618 121.179908 
L 348.54042 120.491594 
L 349.626221 118.591248 
L 350.712022 118.621175 
L 351.797823 118.239609 
L 352.883624 117.266991 
L 353.969425 115.568651 
L 355.055227 115.3442 
L 356.141028 113.563561 
L 357.226829 113.541116 
L 359.398431 111.206833 
L 360.484232 109.254116 
L 361.570033 108.760325 
L 362.655835 108.797734 
L 363.741636 108.266535 
L 364.827437 106.283891 
L 365.913238 105.558168 
L 366.999039 105.535723 
L 368.08484 105.296309 
L 369.170642 102.804911 
L 370.256443 103.478262 
L 371.342244 103.642859 
L 372.428045 101.353466 
L 373.513846 101.764958 
L 374.599647 98.405685 
L 375.685448 99.535419 
L 376.77125 99.18378 
L 378.942852 96.677418 
L 381.114454 96.295853 
L 382.200255 94.934188 
L 383.286057 94.432915 
L 385.457659 95.772135 
L 386.54346 93.048805 
L 387.629261 92.472716 
L 388.715062 94.492769 
L 389.800863 91.971444 
L 390.886665 92.652276 
L 391.972466 92.951544 
L 393.058267 92.44279 
L 394.144068 91.754475 
L 395.229869 91.50758 
L 396.31567 92.285674 
L 397.401472 90.946454 
L 398.487273 92.106114 
L 398.487273 92.106114 
" style="fill:none;stroke:#1f77b4;stroke-linecap:square;stroke-width:1.5;"/>
   </g>
   <g id="line2d_20">
    <path clip-path="url(#p3806e080b7)" d="M 73.832727 283.592135 
L 74.918528 274.015589 
L 76.00433 258.940012 
L 77.090131 241.769565 
L 78.175932 231.70671 
L 79.261733 214.985164 
L 81.433335 178.661626 
L 82.519137 176.379715 
L 83.604938 175.706364 
L 84.690739 171.554034 
L 85.77654 162.089713 
L 86.862341 159.358901 
L 87.948142 157.301441 
L 89.033943 153.672828 
L 90.119745 147.911937 
L 91.205546 145.555209 
L 93.377148 143.273298 
L 94.462949 143.198481 
L 95.54875 174.471887 
L 96.634552 166.541311 
L 97.720353 172.825919 
L 98.806154 178.324951 
L 99.891955 176.043039 
L 100.977756 161.565996 
L 102.063557 162.538614 
L 103.149358 171.366992 
L 105.320961 154.196545 
L 106.406762 160.967462 
L 107.492563 158.124425 
L 108.578364 158.161833 
L 109.664165 153.111702 
L 110.749967 151.577958 
L 111.835768 148.585288 
L 112.921569 144.84445 
L 114.00737 150.006806 
L 115.093171 143.198481 
L 116.178972 142.52513 
L 117.264773 141.253245 
L 118.350575 140.841753 
L 119.436376 138.297983 
L 120.522177 132.387459 
L 121.607978 134.370103 
L 122.693779 129.619239 
L 123.77958 129.13293 
L 124.865382 127.187694 
L 125.951183 124.307248 
L 127.036984 123.484264 
L 128.122785 124.793557 
L 129.208586 120.491594 
L 130.294387 120.903086 
L 131.380189 118.097457 
L 132.46599 118.396724 
L 133.551791 118.172274 
L 134.637592 118.134866 
L 135.723393 119.107484 
L 136.809194 117.648557 
L 137.894995 117.536332 
L 138.980797 149.258639 
L 140.066598 148.660105 
L 141.152399 149.408272 
L 142.2382 148.286021 
L 143.324001 154.420995 
L 144.409802 155.618063 
L 145.495604 150.867199 
L 146.581405 147.687487 
L 147.667206 153.523194 
L 148.753007 147.537853 
L 149.838808 142.263271 
L 150.924609 154.944713 
L 152.01041 149.445681 
L 153.096212 142.263271 
L 154.182013 146.041518 
L 155.267814 140.654711 
L 156.353615 140.056177 
L 157.439416 138.933925 
L 158.525217 132.686726 
L 159.611019 136.128297 
L 160.69682 134.744187 
L 161.782621 135.754213 
L 162.868422 130.928532 
L 163.954223 138.59725 
L 165.040024 129.768872 
L 166.125825 135.267904 
L 167.211627 127.000652 
L 168.297428 124.980599 
L 169.383229 127.861045 
L 170.46903 123.895756 
L 171.554831 132.088192 
L 172.640632 123.559081 
L 173.726434 122.100154 
L 174.812235 122.773505 
L 175.898036 124.120207 
L 176.983837 118.434133 
L 178.069638 114.169577 
L 179.155439 118.621175 
L 180.24124 117.611148 
L 181.327042 112.673242 
L 182.412843 113.309184 
L 183.498644 116.227038 
L 184.584445 112.523608 
L 185.670246 112.299158 
L 186.756047 108.296461 
L 187.841849 106.089367 
L 188.92765 106.725309 
L 190.013451 105.154157 
L 191.099252 106.201592 
L 192.185053 99.281042 
L 193.270854 102.984471 
L 194.356656 97.971748 
L 195.442457 110.690598 
L 196.528258 96.699863 
L 197.614059 94.043868 
L 198.69986 98.046565 
L 199.785661 93.520151 
L 200.871462 92.771983 
L 201.957264 93.108659 
L 203.043065 90.564889 
L 204.128866 91.200831 
L 205.214667 84.542139 
L 206.300468 85.21549 
L 207.386269 82.335045 
L 208.472071 83.943605 
L 209.557872 81.437244 
L 210.643673 83.569522 
L 211.729474 79.67905 
L 212.815275 81.99837 
L 213.901076 80.726485 
L 214.986877 80.614259 
L 216.072679 77.808631 
L 217.15848 79.080516 
L 218.244281 76.237479 
L 219.330082 77.13528 
L 220.415883 77.060463 
L 221.501684 77.696406 
L 222.587486 77.658997 
L 223.673287 77.284914 
L 224.759088 77.210097 
L 225.844889 129.918506 
L 226.93069 124.793557 
L 228.016491 118.097457 
L 229.102292 126.215076 
L 230.188094 126.364709 
L 231.273895 123.671306 
L 232.359696 130.329998 
L 233.445497 121.127536 
L 234.531298 138.185758 
L 235.617099 124.569107 
L 236.702901 134.108244 
L 237.788702 121.763479 
L 238.874503 119.481567 
L 239.960304 118.770808 
L 241.046105 120.529002 
L 242.131906 121.015311 
L 243.217708 124.793557 
L 244.303509 124.382065 
L 245.38931 117.835599 
L 246.475111 125.953217 
L 247.560912 120.416777 
L 248.646713 119.855651 
L 249.732514 110.466148 
L 250.818316 116.601122 
L 251.904117 113.196959 
L 252.989918 128.684029 
L 254.075719 123.783531 
L 255.16152 118.284499 
L 256.247321 114.506253 
L 257.333123 109.194263 
L 258.418924 122.212379 
L 259.504725 111.812849 
L 260.590526 120.229735 
L 261.676327 115.628504 
L 262.762128 112.299158 
L 263.847929 127.337327 
L 264.933731 111.588399 
L 266.019532 110.129472 
L 267.105333 109.306488 
L 268.191134 116.18963 
L 269.276935 117.311881 
L 270.362736 114.618478 
L 271.448538 134.781595 
L 272.534339 107.548294 
L 273.62014 113.384001 
L 274.705941 109.156854 
L 275.791742 114.206986 
L 276.877543 106.837535 
L 277.963344 104.218948 
L 279.049146 108.707954 
L 280.134947 104.40599 
L 281.220748 109.680572 
L 282.306549 113.907719 
L 283.39235 105.378608 
L 284.478151 111.214315 
L 285.563953 109.306488 
L 286.649754 112.074708 
L 287.735555 110.391331 
L 288.821356 100.25366 
L 289.907157 100.403293 
L 290.992958 105.827508 
L 292.07876 101.600361 
L 293.164561 99.729942 
L 294.250362 100.739968 
L 295.336163 111.438765 
L 296.421964 95.802062 
L 297.507765 98.271015 
L 298.593566 106.126775 
L 299.679368 96.325779 
L 300.765169 95.128711 
L 301.85097 94.866853 
L 302.936771 110.802823 
L 304.022572 100.70256 
L 305.108373 95.203528 
L 306.194175 97.073947 
L 307.279976 96.737272 
L 308.365777 97.784706 
L 309.451578 101.488136 
L 310.537379 97.971748 
L 311.62318 93.819418 
L 312.708981 95.016486 
L 313.794783 93.931643 
L 315.966385 88.91892 
L 317.052186 96.363188 
L 318.137987 92.210858 
L 319.223788 86.674417 
L 320.30959 87.834077 
L 321.395391 87.721852 
L 322.481192 87.085909 
L 323.566993 85.140674 
L 324.652794 84.317689 
L 325.738595 85.739208 
L 326.824396 84.130647 
L 327.910198 83.569522 
L 328.995999 82.335045 
L 330.0818 87.684443 
L 331.167601 82.821354 
L 332.253402 82.260228 
L 333.339203 83.569522 
L 334.425005 80.651668 
L 335.510806 80.464626 
L 336.596607 81.923553 
L 337.682408 77.771223 
L 338.768209 75.152636 
L 339.85401 76.050437 
L 340.939811 75.788578 
L 342.025613 77.733814 
L 343.111414 75.900803 
L 344.197215 77.995673 
L 345.283016 75.264861 
L 346.368817 78.631615 
L 347.454618 76.424521 
L 348.54042 72.571458 
L 349.626221 71.299573 
L 350.712022 74.36706 
L 351.797823 74.59151 
L 352.883624 75.900803 
L 353.969425 71.59884 
L 355.055227 73.319625 
L 356.141028 68.194677 
L 357.226829 64.790514 
L 358.31263 69.27952 
L 359.398431 67.67096 
L 360.484232 66.586117 
L 361.570033 66.361666 
L 362.655835 65.014965 
L 363.741636 65.276823 
L 364.827437 62.246744 
L 365.913238 61.984886 
L 366.999039 63.593446 
L 368.08484 63.144546 
L 369.170642 62.171928 
L 370.256443 61.723027 
L 371.342244 62.022294 
L 372.428045 60.03965 
L 373.513846 59.8152 
L 374.599647 61.274126 
L 375.685448 59.328891 
L 376.77125 55.924728 
L 377.857051 56.485854 
L 378.942852 57.72033 
L 380.028653 57.084388 
L 381.114454 57.645514 
L 382.200255 55.775094 
L 383.286057 55.962136 
L 384.371858 57.795147 
L 385.457659 57.084388 
L 386.54346 55.475827 
L 387.629261 55.101744 
L 388.715062 55.026927 
L 389.800863 54.802477 
L 390.886665 53.568 
L 391.972466 55.139152 
L 393.058267 54.652843 
L 394.144068 53.942084 
L 395.229869 53.568 
L 397.401472 54.203942 
L 398.487273 54.054309 
L 398.487273 54.054309 
" style="fill:none;stroke:#ff7f0e;stroke-linecap:square;stroke-width:1.5;"/>
   </g>
   <g id="patch_3">
    <path d="M 57.6 307.584 
L 57.6 41.472 
" style="fill:none;stroke:#000000;stroke-linecap:square;stroke-linejoin:miter;stroke-width:0.8;"/>
   </g>
   <g id="patch_4">
    <path d="M 414.72 307.584 
L 414.72 41.472 
" style="fill:none;stroke:#000000;stroke-linecap:square;stroke-linejoin:miter;stroke-width:0.8;"/>
   </g>
   <g id="patch_5">
    <path d="M 57.6 307.584 
L 414.72 307.584 
" style="fill:none;stroke:#000000;stroke-linecap:square;stroke-linejoin:miter;stroke-width:0.8;"/>
   </g>
   <g id="patch_6">
    <path d="M 57.6 41.472 
L 414.72 41.472 
" style="fill:none;stroke:#000000;stroke-linecap:square;stroke-linejoin:miter;stroke-width:0.8;"/>
   </g>
   <g id="text_21">
    <!-- Training and Validation Accuracy -->
    <g transform="translate(138.4575 35.472)scale(0.12 -0.12)">
     <defs>
      <path d="M -19 4666 
L 3928 4666 
L 3928 4134 
L 2272 4134 
L 2272 0 
L 1638 0 
L 1638 4134 
L -19 4134 
L -19 4666 
z
" id="DejaVuSans-54" transform="scale(0.015625)"/>
      <path d="M 603 3500 
L 1178 3500 
L 1178 0 
L 603 0 
L 603 3500 
z
M 603 4863 
L 1178 4863 
L 1178 4134 
L 603 4134 
L 603 4863 
z
" id="DejaVuSans-69" transform="scale(0.015625)"/>
      <path d="M 3513 2113 
L 3513 0 
L 2938 0 
L 2938 2094 
Q 2938 2591 2744 2837 
Q 2550 3084 2163 3084 
Q 1697 3084 1428 2787 
Q 1159 2491 1159 1978 
L 1159 0 
L 581 0 
L 581 3500 
L 1159 3500 
L 1159 2956 
Q 1366 3272 1645 3428 
Q 1925 3584 2291 3584 
Q 2894 3584 3203 3211 
Q 3513 2838 3513 2113 
z
" id="DejaVuSans-6e" transform="scale(0.015625)"/>
      <path d="M 2906 1791 
Q 2906 2416 2648 2759 
Q 2391 3103 1925 3103 
Q 1463 3103 1205 2759 
Q 947 2416 947 1791 
Q 947 1169 1205 825 
Q 1463 481 1925 481 
Q 2391 481 2648 825 
Q 2906 1169 2906 1791 
z
M 3481 434 
Q 3481 -459 3084 -895 
Q 2688 -1331 1869 -1331 
Q 1566 -1331 1297 -1286 
Q 1028 -1241 775 -1147 
L 775 -588 
Q 1028 -725 1275 -790 
Q 1522 -856 1778 -856 
Q 2344 -856 2625 -561 
Q 2906 -266 2906 331 
L 2906 616 
Q 2728 306 2450 153 
Q 2172 0 1784 0 
Q 1141 0 747 490 
Q 353 981 353 1791 
Q 353 2603 747 3093 
Q 1141 3584 1784 3584 
Q 2172 3584 2450 3431 
Q 2728 3278 2906 2969 
L 2906 3500 
L 3481 3500 
L 3481 434 
z
" id="DejaVuSans-67" transform="scale(0.015625)"/>
      <path id="DejaVuSans-20" transform="scale(0.015625)"/>
      <path d="M 2906 2969 
L 2906 4863 
L 3481 4863 
L 3481 0 
L 2906 0 
L 2906 525 
Q 2725 213 2448 61 
Q 2172 -91 1784 -91 
Q 1150 -91 751 415 
Q 353 922 353 1747 
Q 353 2572 751 3078 
Q 1150 3584 1784 3584 
Q 2172 3584 2448 3432 
Q 2725 3281 2906 2969 
z
M 947 1747 
Q 947 1113 1208 752 
Q 1469 391 1925 391 
Q 2381 391 2643 752 
Q 2906 1113 2906 1747 
Q 2906 2381 2643 2742 
Q 2381 3103 1925 3103 
Q 1469 3103 1208 2742 
Q 947 2381 947 1747 
z
" id="DejaVuSans-64" transform="scale(0.015625)"/>
      <path d="M 1831 0 
L 50 4666 
L 709 4666 
L 2188 738 
L 3669 4666 
L 4325 4666 
L 2547 0 
L 1831 0 
z
" id="DejaVuSans-56" transform="scale(0.015625)"/>
      <path d="M 603 4863 
L 1178 4863 
L 1178 0 
L 603 0 
L 603 4863 
z
" id="DejaVuSans-6c" transform="scale(0.015625)"/>
      <path d="M 1172 4494 
L 1172 3500 
L 2356 3500 
L 2356 3053 
L 1172 3053 
L 1172 1153 
Q 1172 725 1289 603 
Q 1406 481 1766 481 
L 2356 481 
L 2356 0 
L 1766 0 
Q 1100 0 847 248 
Q 594 497 594 1153 
L 594 3053 
L 172 3053 
L 172 3500 
L 594 3500 
L 594 4494 
L 1172 4494 
z
" id="DejaVuSans-74" transform="scale(0.015625)"/>
     </defs>
     <use xlink:href="#DejaVuSans-54"/>
     <use x="46.333984" xlink:href="#DejaVuSans-72"/>
     <use x="87.447266" xlink:href="#DejaVuSans-61"/>
     <use x="148.726562" xlink:href="#DejaVuSans-69"/>
     <use x="176.509766" xlink:href="#DejaVuSans-6e"/>
     <use x="239.888672" xlink:href="#DejaVuSans-69"/>
     <use x="267.671875" xlink:href="#DejaVuSans-6e"/>
     <use x="331.050781" xlink:href="#DejaVuSans-67"/>
     <use x="394.527344" xlink:href="#DejaVuSans-20"/>
     <use x="426.314453" xlink:href="#DejaVuSans-61"/>
     <use x="487.59375" xlink:href="#DejaVuSans-6e"/>
     <use x="550.972656" xlink:href="#DejaVuSans-64"/>
     <use x="614.449219" xlink:href="#DejaVuSans-20"/>
     <use x="646.236328" xlink:href="#DejaVuSans-56"/>
     <use x="706.894531" xlink:href="#DejaVuSans-61"/>
     <use x="768.173828" xlink:href="#DejaVuSans-6c"/>
     <use x="795.957031" xlink:href="#DejaVuSans-69"/>
     <use x="823.740234" xlink:href="#DejaVuSans-64"/>
     <use x="887.216797" xlink:href="#DejaVuSans-61"/>
     <use x="948.496094" xlink:href="#DejaVuSans-74"/>
     <use x="987.705078" xlink:href="#DejaVuSans-69"/>
     <use x="1015.488281" xlink:href="#DejaVuSans-6f"/>
     <use x="1076.669922" xlink:href="#DejaVuSans-6e"/>
     <use x="1140.048828" xlink:href="#DejaVuSans-20"/>
     <use x="1171.835938" xlink:href="#DejaVuSans-41"/>
     <use x="1238.494141" xlink:href="#DejaVuSans-63"/>
     <use x="1293.474609" xlink:href="#DejaVuSans-63"/>
     <use x="1348.455078" xlink:href="#DejaVuSans-75"/>
     <use x="1411.833984" xlink:href="#DejaVuSans-72"/>
     <use x="1452.947266" xlink:href="#DejaVuSans-61"/>
     <use x="1514.226562" xlink:href="#DejaVuSans-63"/>
     <use x="1569.207031" xlink:href="#DejaVuSans-79"/>
    </g>
   </g>
   <g id="legend_1">
    <g id="patch_7">
     <path d="M 64.6 78.82825 
L 194.815625 78.82825 
Q 196.815625 78.82825 196.815625 76.82825 
L 196.815625 48.472 
Q 196.815625 46.472 194.815625 46.472 
L 64.6 46.472 
Q 62.6 46.472 62.6 48.472 
L 62.6 76.82825 
Q 62.6 78.82825 64.6 78.82825 
z
" style="fill:#ffffff;opacity:0.8;stroke:#cccccc;stroke-linejoin:miter;"/>
    </g>
    <g id="line2d_21">
     <path d="M 66.6 54.570437 
L 86.6 54.570437 
" style="fill:none;stroke:#1f77b4;stroke-linecap:square;stroke-width:1.5;"/>
    </g>
    <g id="line2d_22"/>
    <g id="text_22">
     <!-- Train Accuracy -->
     <g transform="translate(94.6 58.070437)scale(0.1 -0.1)">
      <use xlink:href="#DejaVuSans-54"/>
      <use x="46.333984" xlink:href="#DejaVuSans-72"/>
      <use x="87.447266" xlink:href="#DejaVuSans-61"/>
      <use x="148.726562" xlink:href="#DejaVuSans-69"/>
      <use x="176.509766" xlink:href="#DejaVuSans-6e"/>
      <use x="239.888672" xlink:href="#DejaVuSans-20"/>
      <use x="271.675781" xlink:href="#DejaVuSans-41"/>
      <use x="338.333984" xlink:href="#DejaVuSans-63"/>
      <use x="393.314453" xlink:href="#DejaVuSans-63"/>
      <use x="448.294922" xlink:href="#DejaVuSans-75"/>
      <use x="511.673828" xlink:href="#DejaVuSans-72"/>
      <use x="552.787109" xlink:href="#DejaVuSans-61"/>
      <use x="614.066406" xlink:href="#DejaVuSans-63"/>
      <use x="669.046875" xlink:href="#DejaVuSans-79"/>
     </g>
    </g>
    <g id="line2d_23">
     <path d="M 66.6 69.248562 
L 86.6 69.248562 
" style="fill:none;stroke:#ff7f0e;stroke-linecap:square;stroke-width:1.5;"/>
    </g>
    <g id="line2d_24"/>
    <g id="text_23">
     <!-- Validation Accuracy -->
     <g transform="translate(94.6 72.748562)scale(0.1 -0.1)">
      <use xlink:href="#DejaVuSans-56"/>
      <use x="60.658203" xlink:href="#DejaVuSans-61"/>
      <use x="121.9375" xlink:href="#DejaVuSans-6c"/>
      <use x="149.720703" xlink:href="#DejaVuSans-69"/>
      <use x="177.503906" xlink:href="#DejaVuSans-64"/>
      <use x="240.980469" xlink:href="#DejaVuSans-61"/>
      <use x="302.259766" xlink:href="#DejaVuSans-74"/>
      <use x="341.46875" xlink:href="#DejaVuSans-69"/>
      <use x="369.251953" xlink:href="#DejaVuSans-6f"/>
      <use x="430.433594" xlink:href="#DejaVuSans-6e"/>
      <use x="493.8125" xlink:href="#DejaVuSans-20"/>
      <use x="525.599609" xlink:href="#DejaVuSans-41"/>
      <use x="592.257812" xlink:href="#DejaVuSans-63"/>
      <use x="647.238281" xlink:href="#DejaVuSans-63"/>
      <use x="702.21875" xlink:href="#DejaVuSans-75"/>
      <use x="765.597656" xlink:href="#DejaVuSans-72"/>
      <use x="806.710938" xlink:href="#DejaVuSans-61"/>
      <use x="867.990234" xlink:href="#DejaVuSans-63"/>
      <use x="922.970703" xlink:href="#DejaVuSans-79"/>
     </g>
    </g>
   </g>
  </g>
 </g>
 <defs>
  <clipPath id="p3806e080b7">
   <rect height="266.112" width="357.12" x="57.6" y="41.472"/>
  </clipPath>
 </defs>
</svg>
