<?xml version="1.0" encoding="utf-8" standalone="no"?>
<!DOCTYPE svg PUBLIC "-//W3C//DTD SVG 1.1//EN"
  "http://www.w3.org/Graphics/SVG/1.1/DTD/svg11.dtd">
<svg height="345.6pt" version="1.1" viewBox="0 0 460.8 345.6" width="460.8pt" xmlns="http://www.w3.org/2000/svg" xmlns:xlink="http://www.w3.org/1999/xlink">
 <metadata>
  <rdf:RDF xmlns:cc="http://creativecommons.org/ns#" xmlns:dc="http://purl.org/dc/elements/1.1/" xmlns:rdf="http://www.w3.org/1999/02/22-rdf-syntax-ns#">
   <cc:Work>
    <dc:type rdf:resource="http://purl.org/dc/dcmitype/StillImage"/>
    <dc:date>2023-07-26T18:23:10.735534</dc:date>
    <dc:format>image/svg+xml</dc:format>
    <dc:creator>
     <cc:Agent>
      <dc:title>Matplotlib v3.4.3, https://matplotlib.org/</dc:title>
     </cc:Agent>
    </dc:creator>
   </cc:Work>
  </rdf:RDF>
 </metadata>
 <defs>
  <style type="text/css">*{stroke-linecap:butt;stroke-linejoin:round;}</style>
 </defs>
 <g id="figure_1">
  <g id="patch_1">
   <path d="M 0 345.6 
L 460.8 345.6 
L 460.8 0 
L 0 0 
z
" style="fill:#ffffff;"/>
  </g>
  <g id="axes_1">
   <g id="patch_2">
    <path d="M 57.6 307.584 
L 414.72 307.584 
L 414.72 41.472 
L 57.6 41.472 
z
" style="fill:#ffffff;"/>
   </g>
   <g id="matplotlib.axis_1">
    <g id="xtick_1">
     <g id="line2d_1">
      <defs>
       <path d="M 0 0 
L 0 3.5 
" id="me013e5147e" style="stroke:#000000;stroke-width:0.8;"/>
      </defs>
      <g>
       <use style="stroke:#000000;stroke-width:0.8;" x="73.832727" xlink:href="#me013e5147e" y="307.584"/>
      </g>
     </g>
     <g id="text_1">
      <!-- 1 -->
      <g transform="translate(70.651477 322.182437)scale(0.1 -0.1)">
       <defs>
        <path d="M 794 531 
L 1825 531 
L 1825 4091 
L 703 3866 
L 703 4441 
L 1819 4666 
L 2450 4666 
L 2450 531 
L 3481 531 
L 3481 0 
L 794 0 
L 794 531 
z
" id="DejaVuSans-31" transform="scale(0.015625)"/>
       </defs>
       <use xlink:href="#DejaVuSans-31"/>
      </g>
     </g>
    </g>
    <g id="xtick_2">
     <g id="line2d_2">
      <g>
       <use style="stroke:#000000;stroke-width:0.8;" x="109.555234" xlink:href="#me013e5147e" y="307.584"/>
      </g>
     </g>
     <g id="text_2">
      <!-- 35 -->
      <g transform="translate(103.192734 322.182437)scale(0.1 -0.1)">
       <defs>
        <path d="M 2597 2516 
Q 3050 2419 3304 2112 
Q 3559 1806 3559 1356 
Q 3559 666 3084 287 
Q 2609 -91 1734 -91 
Q 1441 -91 1130 -33 
Q 819 25 488 141 
L 488 750 
Q 750 597 1062 519 
Q 1375 441 1716 441 
Q 2309 441 2620 675 
Q 2931 909 2931 1356 
Q 2931 1769 2642 2001 
Q 2353 2234 1838 2234 
L 1294 2234 
L 1294 2753 
L 1863 2753 
Q 2328 2753 2575 2939 
Q 2822 3125 2822 3475 
Q 2822 3834 2567 4026 
Q 2313 4219 1838 4219 
Q 1578 4219 1281 4162 
Q 984 4106 628 3988 
L 628 4550 
Q 988 4650 1302 4700 
Q 1616 4750 1894 4750 
Q 2613 4750 3031 4423 
Q 3450 4097 3450 3541 
Q 3450 3153 3228 2886 
Q 3006 2619 2597 2516 
z
" id="DejaVuSans-33" transform="scale(0.015625)"/>
        <path d="M 691 4666 
L 3169 4666 
L 3169 4134 
L 1269 4134 
L 1269 2991 
Q 1406 3038 1543 3061 
Q 1681 3084 1819 3084 
Q 2600 3084 3056 2656 
Q 3513 2228 3513 1497 
Q 3513 744 3044 326 
Q 2575 -91 1722 -91 
Q 1428 -91 1123 -41 
Q 819 9 494 109 
L 494 744 
Q 775 591 1075 516 
Q 1375 441 1709 441 
Q 2250 441 2565 725 
Q 2881 1009 2881 1497 
Q 2881 1984 2565 2268 
Q 2250 2553 1709 2553 
Q 1456 2553 1204 2497 
Q 953 2441 691 2322 
L 691 4666 
z
" id="DejaVuSans-35" transform="scale(0.015625)"/>
       </defs>
       <use xlink:href="#DejaVuSans-33"/>
       <use x="63.623047" xlink:href="#DejaVuSans-35"/>
      </g>
     </g>
    </g>
    <g id="xtick_3">
     <g id="line2d_3">
      <g>
       <use style="stroke:#000000;stroke-width:0.8;" x="145.277741" xlink:href="#me013e5147e" y="307.584"/>
      </g>
     </g>
     <g id="text_3">
      <!-- 69 -->
      <g transform="translate(138.915241 322.182437)scale(0.1 -0.1)">
       <defs>
        <path d="M 2113 2584 
Q 1688 2584 1439 2293 
Q 1191 2003 1191 1497 
Q 1191 994 1439 701 
Q 1688 409 2113 409 
Q 2538 409 2786 701 
Q 3034 994 3034 1497 
Q 3034 2003 2786 2293 
Q 2538 2584 2113 2584 
z
M 3366 4563 
L 3366 3988 
Q 3128 4100 2886 4159 
Q 2644 4219 2406 4219 
Q 1781 4219 1451 3797 
Q 1122 3375 1075 2522 
Q 1259 2794 1537 2939 
Q 1816 3084 2150 3084 
Q 2853 3084 3261 2657 
Q 3669 2231 3669 1497 
Q 3669 778 3244 343 
Q 2819 -91 2113 -91 
Q 1303 -91 875 529 
Q 447 1150 447 2328 
Q 447 3434 972 4092 
Q 1497 4750 2381 4750 
Q 2619 4750 2861 4703 
Q 3103 4656 3366 4563 
z
" id="DejaVuSans-36" transform="scale(0.015625)"/>
        <path d="M 703 97 
L 703 672 
Q 941 559 1184 500 
Q 1428 441 1663 441 
Q 2288 441 2617 861 
Q 2947 1281 2994 2138 
Q 2813 1869 2534 1725 
Q 2256 1581 1919 1581 
Q 1219 1581 811 2004 
Q 403 2428 403 3163 
Q 403 3881 828 4315 
Q 1253 4750 1959 4750 
Q 2769 4750 3195 4129 
Q 3622 3509 3622 2328 
Q 3622 1225 3098 567 
Q 2575 -91 1691 -91 
Q 1453 -91 1209 -44 
Q 966 3 703 97 
z
M 1959 2075 
Q 2384 2075 2632 2365 
Q 2881 2656 2881 3163 
Q 2881 3666 2632 3958 
Q 2384 4250 1959 4250 
Q 1534 4250 1286 3958 
Q 1038 3666 1038 3163 
Q 1038 2656 1286 2365 
Q 1534 2075 1959 2075 
z
" id="DejaVuSans-39" transform="scale(0.015625)"/>
       </defs>
       <use xlink:href="#DejaVuSans-36"/>
       <use x="63.623047" xlink:href="#DejaVuSans-39"/>
      </g>
     </g>
    </g>
    <g id="xtick_4">
     <g id="line2d_4">
      <g>
       <use style="stroke:#000000;stroke-width:0.8;" x="182.050909" xlink:href="#me013e5147e" y="307.584"/>
      </g>
     </g>
     <g id="text_4">
      <!-- 104 -->
      <g transform="translate(172.507159 322.182437)scale(0.1 -0.1)">
       <defs>
        <path d="M 2034 4250 
Q 1547 4250 1301 3770 
Q 1056 3291 1056 2328 
Q 1056 1369 1301 889 
Q 1547 409 2034 409 
Q 2525 409 2770 889 
Q 3016 1369 3016 2328 
Q 3016 3291 2770 3770 
Q 2525 4250 2034 4250 
z
M 2034 4750 
Q 2819 4750 3233 4129 
Q 3647 3509 3647 2328 
Q 3647 1150 3233 529 
Q 2819 -91 2034 -91 
Q 1250 -91 836 529 
Q 422 1150 422 2328 
Q 422 3509 836 4129 
Q 1250 4750 2034 4750 
z
" id="DejaVuSans-30" transform="scale(0.015625)"/>
        <path d="M 2419 4116 
L 825 1625 
L 2419 1625 
L 2419 4116 
z
M 2253 4666 
L 3047 4666 
L 3047 1625 
L 3713 1625 
L 3713 1100 
L 3047 1100 
L 3047 0 
L 2419 0 
L 2419 1100 
L 313 1100 
L 313 1709 
L 2253 4666 
z
" id="DejaVuSans-34" transform="scale(0.015625)"/>
       </defs>
       <use xlink:href="#DejaVuSans-31"/>
       <use x="63.623047" xlink:href="#DejaVuSans-30"/>
       <use x="127.246094" xlink:href="#DejaVuSans-34"/>
      </g>
     </g>
    </g>
    <g id="xtick_5">
     <g id="line2d_5">
      <g>
       <use style="stroke:#000000;stroke-width:0.8;" x="217.773416" xlink:href="#me013e5147e" y="307.584"/>
      </g>
     </g>
     <g id="text_5">
      <!-- 138 -->
      <g transform="translate(208.229666 322.182437)scale(0.1 -0.1)">
       <defs>
        <path d="M 2034 2216 
Q 1584 2216 1326 1975 
Q 1069 1734 1069 1313 
Q 1069 891 1326 650 
Q 1584 409 2034 409 
Q 2484 409 2743 651 
Q 3003 894 3003 1313 
Q 3003 1734 2745 1975 
Q 2488 2216 2034 2216 
z
M 1403 2484 
Q 997 2584 770 2862 
Q 544 3141 544 3541 
Q 544 4100 942 4425 
Q 1341 4750 2034 4750 
Q 2731 4750 3128 4425 
Q 3525 4100 3525 3541 
Q 3525 3141 3298 2862 
Q 3072 2584 2669 2484 
Q 3125 2378 3379 2068 
Q 3634 1759 3634 1313 
Q 3634 634 3220 271 
Q 2806 -91 2034 -91 
Q 1263 -91 848 271 
Q 434 634 434 1313 
Q 434 1759 690 2068 
Q 947 2378 1403 2484 
z
M 1172 3481 
Q 1172 3119 1398 2916 
Q 1625 2713 2034 2713 
Q 2441 2713 2670 2916 
Q 2900 3119 2900 3481 
Q 2900 3844 2670 4047 
Q 2441 4250 2034 4250 
Q 1625 4250 1398 4047 
Q 1172 3844 1172 3481 
z
" id="DejaVuSans-38" transform="scale(0.015625)"/>
       </defs>
       <use xlink:href="#DejaVuSans-31"/>
       <use x="63.623047" xlink:href="#DejaVuSans-33"/>
       <use x="127.246094" xlink:href="#DejaVuSans-38"/>
      </g>
     </g>
    </g>
    <g id="xtick_6">
     <g id="line2d_6">
      <g>
       <use style="stroke:#000000;stroke-width:0.8;" x="253.495922" xlink:href="#me013e5147e" y="307.584"/>
      </g>
     </g>
     <g id="text_6">
      <!-- 172 -->
      <g transform="translate(243.952172 322.182437)scale(0.1 -0.1)">
       <defs>
        <path d="M 525 4666 
L 3525 4666 
L 3525 4397 
L 1831 0 
L 1172 0 
L 2766 4134 
L 525 4134 
L 525 4666 
z
" id="DejaVuSans-37" transform="scale(0.015625)"/>
        <path d="M 1228 531 
L 3431 531 
L 3431 0 
L 469 0 
L 469 531 
Q 828 903 1448 1529 
Q 2069 2156 2228 2338 
Q 2531 2678 2651 2914 
Q 2772 3150 2772 3378 
Q 2772 3750 2511 3984 
Q 2250 4219 1831 4219 
Q 1534 4219 1204 4116 
Q 875 4013 500 3803 
L 500 4441 
Q 881 4594 1212 4672 
Q 1544 4750 1819 4750 
Q 2544 4750 2975 4387 
Q 3406 4025 3406 3419 
Q 3406 3131 3298 2873 
Q 3191 2616 2906 2266 
Q 2828 2175 2409 1742 
Q 1991 1309 1228 531 
z
" id="DejaVuSans-32" transform="scale(0.015625)"/>
       </defs>
       <use xlink:href="#DejaVuSans-31"/>
       <use x="63.623047" xlink:href="#DejaVuSans-37"/>
       <use x="127.246094" xlink:href="#DejaVuSans-32"/>
      </g>
     </g>
    </g>
    <g id="xtick_7">
     <g id="line2d_7">
      <g>
       <use style="stroke:#000000;stroke-width:0.8;" x="290.269091" xlink:href="#me013e5147e" y="307.584"/>
      </g>
     </g>
     <g id="text_7">
      <!-- 207 -->
      <g transform="translate(280.725341 322.182437)scale(0.1 -0.1)">
       <use xlink:href="#DejaVuSans-32"/>
       <use x="63.623047" xlink:href="#DejaVuSans-30"/>
       <use x="127.246094" xlink:href="#DejaVuSans-37"/>
      </g>
     </g>
    </g>
    <g id="xtick_8">
     <g id="line2d_8">
      <g>
       <use style="stroke:#000000;stroke-width:0.8;" x="325.991598" xlink:href="#me013e5147e" y="307.584"/>
      </g>
     </g>
     <g id="text_8">
      <!-- 241 -->
      <g transform="translate(316.447848 322.182437)scale(0.1 -0.1)">
       <use xlink:href="#DejaVuSans-32"/>
       <use x="63.623047" xlink:href="#DejaVuSans-34"/>
       <use x="127.246094" xlink:href="#DejaVuSans-31"/>
      </g>
     </g>
    </g>
    <g id="xtick_9">
     <g id="line2d_9">
      <g>
       <use style="stroke:#000000;stroke-width:0.8;" x="361.714104" xlink:href="#me013e5147e" y="307.584"/>
      </g>
     </g>
     <g id="text_9">
      <!-- 275 -->
      <g transform="translate(352.170354 322.182437)scale(0.1 -0.1)">
       <use xlink:href="#DejaVuSans-32"/>
       <use x="63.623047" xlink:href="#DejaVuSans-37"/>
       <use x="127.246094" xlink:href="#DejaVuSans-35"/>
      </g>
     </g>
    </g>
    <g id="xtick_10">
     <g id="line2d_10">
      <g>
       <use style="stroke:#000000;stroke-width:0.8;" x="398.487273" xlink:href="#me013e5147e" y="307.584"/>
      </g>
     </g>
     <g id="text_10">
      <!-- 310 -->
      <g transform="translate(388.943523 322.182437)scale(0.1 -0.1)">
       <use xlink:href="#DejaVuSans-33"/>
       <use x="63.623047" xlink:href="#DejaVuSans-31"/>
       <use x="127.246094" xlink:href="#DejaVuSans-30"/>
      </g>
     </g>
    </g>
    <g id="text_11">
     <!-- Epochs -->
     <g transform="translate(218.244375 335.860562)scale(0.1 -0.1)">
      <defs>
       <path d="M 628 4666 
L 3578 4666 
L 3578 4134 
L 1259 4134 
L 1259 2753 
L 3481 2753 
L 3481 2222 
L 1259 2222 
L 1259 531 
L 3634 531 
L 3634 0 
L 628 0 
L 628 4666 
z
" id="DejaVuSans-45" transform="scale(0.015625)"/>
       <path d="M 1159 525 
L 1159 -1331 
L 581 -1331 
L 581 3500 
L 1159 3500 
L 1159 2969 
Q 1341 3281 1617 3432 
Q 1894 3584 2278 3584 
Q 2916 3584 3314 3078 
Q 3713 2572 3713 1747 
Q 3713 922 3314 415 
Q 2916 -91 2278 -91 
Q 1894 -91 1617 61 
Q 1341 213 1159 525 
z
M 3116 1747 
Q 3116 2381 2855 2742 
Q 2594 3103 2138 3103 
Q 1681 3103 1420 2742 
Q 1159 2381 1159 1747 
Q 1159 1113 1420 752 
Q 1681 391 2138 391 
Q 2594 391 2855 752 
Q 3116 1113 3116 1747 
z
" id="DejaVuSans-70" transform="scale(0.015625)"/>
       <path d="M 1959 3097 
Q 1497 3097 1228 2736 
Q 959 2375 959 1747 
Q 959 1119 1226 758 
Q 1494 397 1959 397 
Q 2419 397 2687 759 
Q 2956 1122 2956 1747 
Q 2956 2369 2687 2733 
Q 2419 3097 1959 3097 
z
M 1959 3584 
Q 2709 3584 3137 3096 
Q 3566 2609 3566 1747 
Q 3566 888 3137 398 
Q 2709 -91 1959 -91 
Q 1206 -91 779 398 
Q 353 888 353 1747 
Q 353 2609 779 3096 
Q 1206 3584 1959 3584 
z
" id="DejaVuSans-6f" transform="scale(0.015625)"/>
       <path d="M 3122 3366 
L 3122 2828 
Q 2878 2963 2633 3030 
Q 2388 3097 2138 3097 
Q 1578 3097 1268 2742 
Q 959 2388 959 1747 
Q 959 1106 1268 751 
Q 1578 397 2138 397 
Q 2388 397 2633 464 
Q 2878 531 3122 666 
L 3122 134 
Q 2881 22 2623 -34 
Q 2366 -91 2075 -91 
Q 1284 -91 818 406 
Q 353 903 353 1747 
Q 353 2603 823 3093 
Q 1294 3584 2113 3584 
Q 2378 3584 2631 3529 
Q 2884 3475 3122 3366 
z
" id="DejaVuSans-63" transform="scale(0.015625)"/>
       <path d="M 3513 2113 
L 3513 0 
L 2938 0 
L 2938 2094 
Q 2938 2591 2744 2837 
Q 2550 3084 2163 3084 
Q 1697 3084 1428 2787 
Q 1159 2491 1159 1978 
L 1159 0 
L 581 0 
L 581 4863 
L 1159 4863 
L 1159 2956 
Q 1366 3272 1645 3428 
Q 1925 3584 2291 3584 
Q 2894 3584 3203 3211 
Q 3513 2838 3513 2113 
z
" id="DejaVuSans-68" transform="scale(0.015625)"/>
       <path d="M 2834 3397 
L 2834 2853 
Q 2591 2978 2328 3040 
Q 2066 3103 1784 3103 
Q 1356 3103 1142 2972 
Q 928 2841 928 2578 
Q 928 2378 1081 2264 
Q 1234 2150 1697 2047 
L 1894 2003 
Q 2506 1872 2764 1633 
Q 3022 1394 3022 966 
Q 3022 478 2636 193 
Q 2250 -91 1575 -91 
Q 1294 -91 989 -36 
Q 684 19 347 128 
L 347 722 
Q 666 556 975 473 
Q 1284 391 1588 391 
Q 1994 391 2212 530 
Q 2431 669 2431 922 
Q 2431 1156 2273 1281 
Q 2116 1406 1581 1522 
L 1381 1569 
Q 847 1681 609 1914 
Q 372 2147 372 2553 
Q 372 3047 722 3315 
Q 1072 3584 1716 3584 
Q 2034 3584 2315 3537 
Q 2597 3491 2834 3397 
z
" id="DejaVuSans-73" transform="scale(0.015625)"/>
      </defs>
      <use xlink:href="#DejaVuSans-45"/>
      <use x="63.183594" xlink:href="#DejaVuSans-70"/>
      <use x="126.660156" xlink:href="#DejaVuSans-6f"/>
      <use x="187.841797" xlink:href="#DejaVuSans-63"/>
      <use x="242.822266" xlink:href="#DejaVuSans-68"/>
      <use x="306.201172" xlink:href="#DejaVuSans-73"/>
     </g>
    </g>
   </g>
   <g id="matplotlib.axis_2">
    <g id="ytick_1">
     <g id="line2d_11">
      <defs>
       <path d="M 0 0 
L -3.5 0 
" id="m9edca6943a" style="stroke:#000000;stroke-width:0.8;"/>
      </defs>
      <g>
       <use style="stroke:#000000;stroke-width:0.8;" x="57.6" xlink:href="#m9edca6943a" y="292.620446"/>
      </g>
     </g>
     <g id="text_12">
      <!-- 10 -->
      <g transform="translate(37.875 296.419665)scale(0.1 -0.1)">
       <use xlink:href="#DejaVuSans-31"/>
       <use x="63.623047" xlink:href="#DejaVuSans-30"/>
      </g>
     </g>
    </g>
    <g id="ytick_2">
     <g id="line2d_12">
      <g>
       <use style="stroke:#000000;stroke-width:0.8;" x="57.6" xlink:href="#m9edca6943a" y="262.750092"/>
      </g>
     </g>
     <g id="text_13">
      <!-- 20 -->
      <g transform="translate(37.875 266.54931)scale(0.1 -0.1)">
       <use xlink:href="#DejaVuSans-32"/>
       <use x="63.623047" xlink:href="#DejaVuSans-30"/>
      </g>
     </g>
    </g>
    <g id="ytick_3">
     <g id="line2d_13">
      <g>
       <use style="stroke:#000000;stroke-width:0.8;" x="57.6" xlink:href="#m9edca6943a" y="232.879737"/>
      </g>
     </g>
     <g id="text_14">
      <!-- 30 -->
      <g transform="translate(37.875 236.678956)scale(0.1 -0.1)">
       <use xlink:href="#DejaVuSans-33"/>
       <use x="63.623047" xlink:href="#DejaVuSans-30"/>
      </g>
     </g>
    </g>
    <g id="ytick_4">
     <g id="line2d_14">
      <g>
       <use style="stroke:#000000;stroke-width:0.8;" x="57.6" xlink:href="#m9edca6943a" y="203.009383"/>
      </g>
     </g>
     <g id="text_15">
      <!-- 40 -->
      <g transform="translate(37.875 206.808602)scale(0.1 -0.1)">
       <use xlink:href="#DejaVuSans-34"/>
       <use x="63.623047" xlink:href="#DejaVuSans-30"/>
      </g>
     </g>
    </g>
    <g id="ytick_5">
     <g id="line2d_15">
      <g>
       <use style="stroke:#000000;stroke-width:0.8;" x="57.6" xlink:href="#m9edca6943a" y="173.139029"/>
      </g>
     </g>
     <g id="text_16">
      <!-- 50 -->
      <g transform="translate(37.875 176.938247)scale(0.1 -0.1)">
       <use xlink:href="#DejaVuSans-35"/>
       <use x="63.623047" xlink:href="#DejaVuSans-30"/>
      </g>
     </g>
    </g>
    <g id="ytick_6">
     <g id="line2d_16">
      <g>
       <use style="stroke:#000000;stroke-width:0.8;" x="57.6" xlink:href="#m9edca6943a" y="143.268674"/>
      </g>
     </g>
     <g id="text_17">
      <!-- 60 -->
      <g transform="translate(37.875 147.067893)scale(0.1 -0.1)">
       <use xlink:href="#DejaVuSans-36"/>
       <use x="63.623047" xlink:href="#DejaVuSans-30"/>
      </g>
     </g>
    </g>
    <g id="ytick_7">
     <g id="line2d_17">
      <g>
       <use style="stroke:#000000;stroke-width:0.8;" x="57.6" xlink:href="#m9edca6943a" y="113.39832"/>
      </g>
     </g>
     <g id="text_18">
      <!-- 70 -->
      <g transform="translate(37.875 117.197539)scale(0.1 -0.1)">
       <use xlink:href="#DejaVuSans-37"/>
       <use x="63.623047" xlink:href="#DejaVuSans-30"/>
      </g>
     </g>
    </g>
    <g id="ytick_8">
     <g id="line2d_18">
      <g>
       <use style="stroke:#000000;stroke-width:0.8;" x="57.6" xlink:href="#m9edca6943a" y="83.527965"/>
      </g>
     </g>
     <g id="text_19">
      <!-- 80 -->
      <g transform="translate(37.875 87.327184)scale(0.1 -0.1)">
       <use xlink:href="#DejaVuSans-38"/>
       <use x="63.623047" xlink:href="#DejaVuSans-30"/>
      </g>
     </g>
    </g>
    <g id="ytick_9">
     <g id="line2d_19">
      <g>
       <use style="stroke:#000000;stroke-width:0.8;" x="57.6" xlink:href="#m9edca6943a" y="53.657611"/>
      </g>
     </g>
     <g id="text_20">
      <!-- 90 -->
      <g transform="translate(37.875 57.45683)scale(0.1 -0.1)">
       <use xlink:href="#DejaVuSans-39"/>
       <use x="63.623047" xlink:href="#DejaVuSans-30"/>
      </g>
     </g>
    </g>
    <g id="text_21">
     <!-- Accuracy -->
     <g transform="translate(31.795312 197.356125)rotate(-90)scale(0.1 -0.1)">
      <defs>
       <path d="M 2188 4044 
L 1331 1722 
L 3047 1722 
L 2188 4044 
z
M 1831 4666 
L 2547 4666 
L 4325 0 
L 3669 0 
L 3244 1197 
L 1141 1197 
L 716 0 
L 50 0 
L 1831 4666 
z
" id="DejaVuSans-41" transform="scale(0.015625)"/>
       <path d="M 544 1381 
L 544 3500 
L 1119 3500 
L 1119 1403 
Q 1119 906 1312 657 
Q 1506 409 1894 409 
Q 2359 409 2629 706 
Q 2900 1003 2900 1516 
L 2900 3500 
L 3475 3500 
L 3475 0 
L 2900 0 
L 2900 538 
Q 2691 219 2414 64 
Q 2138 -91 1772 -91 
Q 1169 -91 856 284 
Q 544 659 544 1381 
z
M 1991 3584 
L 1991 3584 
z
" id="DejaVuSans-75" transform="scale(0.015625)"/>
       <path d="M 2631 2963 
Q 2534 3019 2420 3045 
Q 2306 3072 2169 3072 
Q 1681 3072 1420 2755 
Q 1159 2438 1159 1844 
L 1159 0 
L 581 0 
L 581 3500 
L 1159 3500 
L 1159 2956 
Q 1341 3275 1631 3429 
Q 1922 3584 2338 3584 
Q 2397 3584 2469 3576 
Q 2541 3569 2628 3553 
L 2631 2963 
z
" id="DejaVuSans-72" transform="scale(0.015625)"/>
       <path d="M 2194 1759 
Q 1497 1759 1228 1600 
Q 959 1441 959 1056 
Q 959 750 1161 570 
Q 1363 391 1709 391 
Q 2188 391 2477 730 
Q 2766 1069 2766 1631 
L 2766 1759 
L 2194 1759 
z
M 3341 1997 
L 3341 0 
L 2766 0 
L 2766 531 
Q 2569 213 2275 61 
Q 1981 -91 1556 -91 
Q 1019 -91 701 211 
Q 384 513 384 1019 
Q 384 1609 779 1909 
Q 1175 2209 1959 2209 
L 2766 2209 
L 2766 2266 
Q 2766 2663 2505 2880 
Q 2244 3097 1772 3097 
Q 1472 3097 1187 3025 
Q 903 2953 641 2809 
L 641 3341 
Q 956 3463 1253 3523 
Q 1550 3584 1831 3584 
Q 2591 3584 2966 3190 
Q 3341 2797 3341 1997 
z
" id="DejaVuSans-61" transform="scale(0.015625)"/>
       <path d="M 2059 -325 
Q 1816 -950 1584 -1140 
Q 1353 -1331 966 -1331 
L 506 -1331 
L 506 -850 
L 844 -850 
Q 1081 -850 1212 -737 
Q 1344 -625 1503 -206 
L 1606 56 
L 191 3500 
L 800 3500 
L 1894 763 
L 2988 3500 
L 3597 3500 
L 2059 -325 
z
" id="DejaVuSans-79" transform="scale(0.015625)"/>
      </defs>
      <use xlink:href="#DejaVuSans-41"/>
      <use x="66.658203" xlink:href="#DejaVuSans-63"/>
      <use x="121.638672" xlink:href="#DejaVuSans-63"/>
      <use x="176.619141" xlink:href="#DejaVuSans-75"/>
      <use x="239.998047" xlink:href="#DejaVuSans-72"/>
      <use x="281.111328" xlink:href="#DejaVuSans-61"/>
      <use x="342.390625" xlink:href="#DejaVuSans-63"/>
      <use x="397.371094" xlink:href="#DejaVuSans-79"/>
     </g>
    </g>
   </g>
   <g id="line2d_20">
    <path clip-path="url(#pa4ecb7d406)" d="M 73.832727 285.738316 
L 74.883389 271.902368 
L 75.934051 263.126458 
L 76.984713 262.756066 
L 78.035375 248.095696 
L 82.238023 213.601411 
L 83.288685 208.409943 
L 84.339347 202.543405 
L 85.390009 198.642337 
L 86.440671 194.251395 
L 87.491333 191.234489 
L 88.541995 188.868757 
L 89.592657 202.567302 
L 91.693981 193.170088 
L 92.744643 189.531879 
L 93.795305 185.128989 
L 94.845966 180.110769 
L 95.896628 179.053359 
L 96.94729 174.805794 
L 97.997952 181.49078 
L 99.048614 175.355409 
L 100.099276 171.095896 
L 101.149938 168.156653 
L 103.251262 159.649576 
L 104.301924 157.43917 
L 105.352586 156.322019 
L 106.403248 152.892902 
L 107.45391 150.730289 
L 108.504572 149.98353 
L 109.555234 149.720671 
L 110.605896 166.955865 
L 111.656558 169.548612 
L 112.70722 166.931969 
L 113.757882 174.626572 
L 114.808544 161.089328 
L 115.859206 157.911122 
L 117.96053 153.042254 
L 119.011192 154.822527 
L 120.061853 148.245075 
L 121.112515 151.55471 
L 122.163177 156.118901 
L 123.213839 148.221179 
L 124.264501 142.223212 
L 125.315163 140.311509 
L 126.365825 140.932812 
L 127.416487 140.843201 
L 128.467149 136.876418 
L 129.517811 134.767571 
L 130.568473 132.234565 
L 131.619135 132.282358 
L 132.669797 128.608304 
L 133.720459 129.737404 
L 134.771121 128.106482 
L 135.821783 162.158686 
L 136.872445 158.753466 
L 137.923107 146.673895 
L 138.973769 141.542168 
L 140.024431 138.704484 
L 141.075093 134.576401 
L 142.125755 136.356674 
L 143.176417 131.189103 
L 144.227079 129.181815 
L 145.277741 128.261808 
L 146.328402 126.786213 
L 147.379064 126.714524 
L 148.429726 125.591398 
L 149.480388 124.71321 
L 150.53105 125.274773 
L 151.581712 124.725158 
L 152.632374 144.391799 
L 153.683036 150.813926 
L 154.733698 142.7788 
L 155.78436 137.557462 
L 156.835022 138.190714 
L 157.885684 140.317483 
L 158.936346 135.914593 
L 159.987008 133.996916 
L 161.03767 132.533269 
L 162.088332 132.395865 
L 163.138994 130.717151 
L 164.189656 130.215329 
L 165.240318 129.181815 
L 166.29098 127.288035 
L 167.341642 126.368028 
L 168.392304 126.863876 
L 169.442966 125.316591 
L 170.493628 123.52437 
L 171.544289 122.574493 
L 172.594951 122.574493 
L 173.645613 121.296041 
L 174.696275 122.329556 
L 175.746937 121.540978 
L 176.797599 119.963824 
L 177.848261 119.456028 
L 178.898923 118.040173 
L 179.949585 119.067713 
L 181.000247 118.882517 
L 182.050909 117.102244 
L 183.101571 120.537334 
L 184.152233 117.568221 
L 185.202895 115.256256 
L 186.253557 114.796252 
L 187.304219 119.44408 
L 188.354881 118.243291 
L 189.405543 114.180923 
L 190.456205 111.731554 
L 191.506867 111.468695 
L 192.557529 110.91908 
L 193.608191 110.196218 
L 194.658853 108.523478 
L 195.709515 108.983481 
L 196.760177 108.308411 
L 197.810838 106.157746 
L 198.8615 105.936705 
L 199.912162 104.640332 
L 200.962824 104.658254 
L 202.013486 103.863703 
L 203.064148 102.107326 
L 205.165472 102.184989 
L 206.216134 101.241086 
L 207.266796 99.532501 
L 208.317458 99.478735 
L 209.36812 98.714054 
L 210.418782 98.433272 
L 211.469444 97.531188 
L 212.520106 97.005469 
L 213.570768 97.059236 
L 214.62143 95.810655 
L 215.672092 94.783115 
L 216.722754 94.914545 
L 217.773416 93.504664 
L 218.824078 92.931153 
L 219.87474 93.701808 
L 220.925402 91.586987 
L 221.976064 91.324128 
L 224.077387 90.350354 
L 225.128049 90.165158 
L 226.178711 89.740999 
L 227.229373 90.433991 
L 228.280035 88.940474 
L 229.330697 88.958396 
L 230.381359 88.80307 
L 231.432021 87.900985 
L 233.533345 88.844889 
L 234.584007 88.683589 
L 235.634669 88.355015 
L 236.685331 116.911073 
L 237.735993 118.697321 
L 238.786655 117.747443 
L 239.837317 118.31498 
L 240.887979 116.361459 
L 241.938641 117.084322 
L 242.989303 115.190541 
L 244.039965 114.802226 
L 245.090627 115.913404 
L 246.141289 113.649231 
L 247.191951 114.640927 
L 248.242613 113.702997 
L 249.293274 113.88222 
L 250.343936 113.505853 
L 251.394598 114.640927 
L 252.44526 112.818835 
L 253.495922 112.448443 
L 254.546584 112.538054 
L 255.597246 111.385058 
L 256.647908 111.152069 
L 258.749232 110.363492 
L 259.799894 110.847392 
L 260.850556 110.196218 
L 261.901218 110.202192 
L 262.95188 109.234392 
L 265.053204 108.887896 
L 266.103866 108.224774 
L 267.154528 108.917767 
L 268.20519 107.854382 
L 269.255852 107.842434 
L 270.306514 107.107623 
L 271.357176 106.629697 
L 272.407838 107.872304 
L 273.4585 106.432553 
L 274.509162 106.348916 
L 275.559823 106.426579 
L 276.610485 107.203208 
L 277.661147 106.03229 
L 278.711809 105.87099 
L 279.762471 104.81358 
L 280.813133 104.807606 
L 281.863795 105.440857 
L 282.914457 105.566313 
L 283.965119 104.550721 
L 285.015781 105.058517 
L 286.066443 103.505258 
L 287.117105 103.337984 
L 288.167767 102.262652 
L 289.218429 102.1133 
L 290.269091 101.742908 
L 291.319753 103.49331 
L 292.370415 101.605504 
L 293.421077 101.844467 
L 294.471739 101.491997 
L 295.522401 101.336671 
L 297.623725 100.273286 
L 298.674387 100.595886 
L 299.725049 99.514579 
L 300.775711 100.094064 
L 301.826372 99.729646 
L 302.877034 98.481065 
L 303.927696 98.672235 
L 304.978358 97.979243 
L 306.02902 98.325739 
L 307.079682 98.074828 
L 308.130344 98.050932 
L 309.181006 96.87404 
L 310.231668 96.139229 
L 311.28233 96.599232 
L 312.332992 96.425984 
L 313.383654 95.762863 
L 314.434316 95.900266 
L 315.484978 94.956363 
L 316.53564 95.045974 
L 317.586302 95.004156 
L 318.636964 93.582327 
L 319.687626 93.355312 
L 322.839612 93.152194 
L 323.890274 92.435305 
L 324.940936 92.411409 
L 325.991598 92.130627 
L 327.042259 91.103087 
L 328.092921 90.553473 
L 329.143583 90.756591 
L 330.194245 90.553473 
L 331.244907 89.794766 
L 332.295569 88.886707 
L 333.346231 88.785148 
L 334.396893 88.916577 
L 335.447555 88.617874 
L 336.498217 88.862811 
L 337.548879 88.48047 
L 338.599541 86.986952 
L 339.650203 86.329805 
L 340.700865 86.287986 
L 341.751527 85.708501 
L 342.802189 85.326161 
L 343.852851 85.356031 
L 344.903513 84.734728 
L 345.954175 85.021483 
L 347.004837 83.611602 
L 349.106161 83.486147 
L 350.156823 81.885096 
L 351.207485 82.267436 
L 352.258147 81.132363 
L 353.308808 80.953141 
L 354.35947 81.616263 
L 355.410132 80.051056 
L 357.511456 80.146641 
L 358.562118 79.304297 
L 359.61278 79.119101 
L 360.663442 79.071309 
L 361.714104 78.438057 
L 362.764766 76.84298 
L 363.815428 78.013898 
L 364.86609 77.16558 
L 365.916752 76.795188 
L 366.967414 76.717525 
L 368.018076 75.62427 
L 369.068738 75.899077 
L 370.1194 74.554911 
L 372.220724 74.226337 
L 373.271386 74.823744 
L 374.322048 73.802178 
L 375.37271 74.184519 
L 376.423372 72.691001 
L 377.474034 73.073341 
L 378.524695 73.025549 
L 381.676681 71.800864 
L 382.727343 72.081646 
L 383.778005 71.818787 
L 384.828667 70.582154 
L 386.929991 70.647869 
L 389.031315 70.146047 
L 390.081977 70.594102 
L 391.132639 70.588128 
L 392.183301 69.202143 
L 393.233963 70.169943 
L 394.284625 70.020591 
L 395.335287 69.423184 
L 396.385949 69.805525 
L 397.436611 69.423184 
L 398.487273 69.441106 
L 398.487273 69.441106 
" style="fill:none;stroke:#1f77b4;stroke-linecap:square;stroke-width:1.5;"/>
   </g>
   <g id="line2d_21">
    <path clip-path="url(#pa4ecb7d406)" d="M 73.832727 262.660481 
L 74.883389 261.555277 
L 75.934051 295.488 
L 76.984713 231.057646 
L 78.035375 219.856263 
L 80.136699 201.06781 
L 81.187361 185.863799 
L 82.238023 180.755969 
L 83.288685 172.690973 
L 84.339347 170.928622 
L 85.390009 163.520774 
L 87.491333 154.350576 
L 88.541995 152.886928 
L 89.592657 167.911717 
L 90.643319 163.16233 
L 92.744643 151.751855 
L 93.795305 144.821933 
L 94.845966 139.833583 
L 96.94729 133.68029 
L 97.997952 142.551786 
L 99.048614 135.562123 
L 101.149938 125.704906 
L 102.2006 123.285407 
L 103.251262 118.028225 
L 104.301924 118.685373 
L 105.352586 114.26456 
L 106.403248 111.038562 
L 107.45391 110.739858 
L 108.504572 111.217784 
L 109.555234 110.620377 
L 110.605896 130.125718 
L 111.656558 138.220584 
L 112.70722 220.782244 
L 113.757882 126.182831 
L 114.808544 118.715243 
L 115.859206 120.298372 
L 116.909868 116.863281 
L 119.011192 104.526825 
L 120.061853 108.32036 
L 121.112515 105.064491 
L 122.163177 106.468398 
L 123.213839 105.393065 
L 124.264501 95.177404 
L 125.315163 94.699478 
L 126.365825 100.494327 
L 127.416487 96.282607 
L 128.467149 94.281293 
L 129.517811 94.789089 
L 130.568473 94.102071 
L 131.619135 89.711129 
L 132.669797 86.873445 
L 133.720459 88.337092 
L 134.771121 85.290316 
L 135.821783 129.199737 
L 136.872445 106.916453 
L 138.973769 96.55144 
L 140.024431 94.04233 
L 141.075093 90.66698 
L 142.125755 91.951405 
L 143.176417 89.561777 
L 144.227079 89.561777 
L 145.277741 87.620204 
L 146.328402 88.456574 
L 147.379064 87.889037 
L 148.429726 86.604612 
L 149.480388 86.186427 
L 150.53105 86.246168 
L 151.581712 85.61889 
L 152.632374 117.281466 
L 153.683036 103.989158 
L 154.733698 103.30214 
L 155.78436 95.147533 
L 156.835022 94.072201 
L 157.885684 104.616436 
L 158.936346 94.490385 
L 159.987008 90.278666 
L 161.03767 89.890351 
L 162.088332 92.787775 
L 163.138994 89.561777 
L 164.189656 94.251423 
L 165.240318 87.202019 
L 166.29098 92.33972 
L 167.341642 84.424076 
L 168.392304 87.889037 
L 169.442966 89.591647 
L 170.493628 83.88641 
L 171.544289 86.335779 
L 172.594951 82.751336 
L 173.645613 88.99424 
L 174.696275 81.825355 
L 175.746937 82.990299 
L 176.797599 81.616263 
L 177.848261 82.183799 
L 178.898923 80.988985 
L 179.949585 79.166894 
L 181.000247 82.960429 
L 182.050909 80.033134 
L 183.101571 81.556522 
L 184.152233 77.046099 
L 185.202895 78.83832 
L 186.253557 76.866876 
L 187.304219 82.512373 
L 188.354881 79.316245 
L 189.405543 81.078596 
L 190.456205 78.270783 
L 191.506867 73.043471 
L 192.557529 74.536989 
L 193.608191 75.821414 
L 194.658853 74.447378 
L 195.709515 71.579824 
L 196.760177 72.92399 
L 197.810838 72.98373 
L 198.8615 70.564232 
L 199.912162 71.191509 
L 200.962824 71.549953 
L 202.013486 68.74214 
L 204.11481 70.355139 
L 205.165472 69.996695 
L 206.216134 68.981103 
L 207.266796 67.099271 
L 208.317458 68.204474 
L 209.36812 66.800567 
L 210.418782 66.949919 
L 211.469444 66.770697 
L 212.520106 65.217438 
L 213.570768 66.17329 
L 214.62143 65.426531 
L 215.672092 65.635623 
L 216.722754 65.546012 
L 217.773416 64.978475 
L 218.824078 63.455087 
L 219.87474 63.873272 
L 220.925402 63.514828 
L 221.976064 63.484958 
L 223.026726 63.186254 
L 224.077387 63.126513 
L 225.128049 62.947291 
L 226.178711 63.216124 
L 227.229373 62.678458 
L 228.280035 62.768069 
L 230.381359 62.409625 
L 231.432021 62.618717 
L 232.482683 62.588847 
L 235.634669 62.85768 
L 236.685331 86.664353 
L 238.786655 80.391578 
L 239.837317 86.216297 
L 240.887979 85.290316 
L 241.938641 85.977334 
L 244.039965 76.837006 
L 245.090627 83.438354 
L 246.141289 80.212356 
L 247.191951 78.420135 
L 248.242613 82.363022 
L 249.293274 76.508432 
L 250.343936 80.242226 
L 251.394598 81.3773 
L 252.44526 79.346116 
L 253.495922 80.182486 
L 254.546584 77.494154 
L 255.597246 73.521397 
L 256.647908 76.986358 
L 257.69857 78.091561 
L 258.749232 77.016228 
L 259.799894 74.238285 
L 260.850556 74.088933 
L 261.901218 78.659098 
L 264.002542 74.775952 
L 265.053204 77.613635 
L 266.103866 75.851284 
L 267.154528 79.405857 
L 268.20519 72.714897 
L 269.255852 74.387637 
L 270.306514 73.073341 
L 271.357176 77.225321 
L 272.407838 70.713583 
L 274.509162 75.791544 
L 275.559823 73.849971 
L 276.610485 72.177231 
L 277.661147 72.535675 
L 278.711809 69.459029 
L 279.762471 73.192823 
L 280.813133 68.413566 
L 281.863795 70.38501 
L 282.914457 73.939582 
L 283.965119 70.175917 
L 285.015781 78.061691 
L 286.066443 72.446064 
L 287.117105 73.879841 
L 288.167767 70.265528 
L 289.218429 68.234344 
L 290.269091 68.264214 
L 291.319753 80.242226 
L 292.370415 70.38501 
L 293.421077 70.743454 
L 294.471739 71.699305 
L 295.522401 68.562918 
L 296.573063 69.249936 
L 297.623725 67.756418 
L 298.674387 67.338233 
L 300.775711 67.607067 
L 301.826372 67.636937 
L 302.877034 68.443436 
L 303.927696 67.159011 
L 304.978358 65.575882 
L 306.02902 67.099271 
L 307.079682 68.084992 
L 308.130344 66.949919 
L 309.181006 64.858994 
L 310.231668 65.157697 
L 311.28233 66.442123 
L 313.383654 63.275865 
L 314.434316 65.605753 
L 315.484978 66.979789 
L 316.53564 65.784975 
L 317.586302 66.830437 
L 318.636964 63.514828 
L 319.687626 63.753791 
L 320.738288 64.649901 
L 321.78895 65.36679 
L 322.839612 68.413566 
L 323.890274 66.143419 
L 324.940936 62.82781 
L 325.991598 66.23303 
L 327.042259 61.782347 
L 328.092921 62.170662 
L 329.143583 65.546012 
L 330.194245 64.291457 
L 331.244907 62.529106 
L 332.295569 63.72392 
L 333.346231 64.291457 
L 334.396893 62.230403 
L 335.447555 61.065459 
L 336.498217 61.603125 
L 337.548879 62.738199 
L 338.599541 61.603125 
L 339.650203 62.379755 
L 340.700865 60.34857 
L 341.751527 60.28883 
L 342.802189 60.707015 
L 343.852851 61.453774 
L 344.903513 59.631682 
L 347.004837 61.005718 
L 348.055499 60.886237 
L 349.106161 59.332978 
L 350.156823 58.825182 
L 351.207485 58.61609 
L 352.258147 58.825182 
L 353.308808 59.332978 
L 354.35947 57.092702 
L 355.410132 58.018683 
L 356.460794 58.018683 
L 357.511456 56.883609 
L 358.562118 57.869331 
L 360.663442 57.421276 
L 361.714104 57.630368 
L 362.764766 56.525165 
L 363.815428 57.003091 
L 364.86609 56.94335 
L 365.916752 56.316073 
L 366.967414 56.345943 
L 368.018076 55.599184 
L 369.068738 55.897888 
L 370.1194 56.853739 
L 371.170062 55.987499 
L 372.220724 55.599184 
L 373.271386 55.868017 
L 375.37271 54.703073 
L 376.423372 54.613462 
L 377.474034 54.703073 
L 378.524695 55.061518 
L 379.575357 54.43424 
L 380.626019 54.40437 
L 381.676681 54.075796 
L 382.727343 54.643333 
L 384.828667 54.284889 
L 385.879329 54.613462 
L 387.980653 54.165407 
L 389.031315 53.568 
L 390.081977 54.43424 
L 391.132639 53.59787 
L 392.183301 54.045926 
L 394.284625 54.135537 
L 396.385949 54.165407 
L 397.436611 54.613462 
L 398.487273 54.344629 
L 398.487273 54.344629 
" style="fill:none;stroke:#ff7f0e;stroke-linecap:square;stroke-width:1.5;"/>
   </g>
   <g id="patch_3">
    <path d="M 57.6 307.584 
L 57.6 41.472 
" style="fill:none;stroke:#000000;stroke-linecap:square;stroke-linejoin:miter;stroke-width:0.8;"/>
   </g>
   <g id="patch_4">
    <path d="M 414.72 307.584 
L 414.72 41.472 
" style="fill:none;stroke:#000000;stroke-linecap:square;stroke-linejoin:miter;stroke-width:0.8;"/>
   </g>
   <g id="patch_5">
    <path d="M 57.6 307.584 
L 414.72 307.584 
" style="fill:none;stroke:#000000;stroke-linecap:square;stroke-linejoin:miter;stroke-width:0.8;"/>
   </g>
   <g id="patch_6">
    <path d="M 57.6 41.472 
L 414.72 41.472 
" style="fill:none;stroke:#000000;stroke-linecap:square;stroke-linejoin:miter;stroke-width:0.8;"/>
   </g>
   <g id="text_22">
    <!-- Training and Validation Accuracy -->
    <g transform="translate(138.4575 35.472)scale(0.12 -0.12)">
     <defs>
      <path d="M -19 4666 
L 3928 4666 
L 3928 4134 
L 2272 4134 
L 2272 0 
L 1638 0 
L 1638 4134 
L -19 4134 
L -19 4666 
z
" id="DejaVuSans-54" transform="scale(0.015625)"/>
      <path d="M 603 3500 
L 1178 3500 
L 1178 0 
L 603 0 
L 603 3500 
z
M 603 4863 
L 1178 4863 
L 1178 4134 
L 603 4134 
L 603 4863 
z
" id="DejaVuSans-69" transform="scale(0.015625)"/>
      <path d="M 3513 2113 
L 3513 0 
L 2938 0 
L 2938 2094 
Q 2938 2591 2744 2837 
Q 2550 3084 2163 3084 
Q 1697 3084 1428 2787 
Q 1159 2491 1159 1978 
L 1159 0 
L 581 0 
L 581 3500 
L 1159 3500 
L 1159 2956 
Q 1366 3272 1645 3428 
Q 1925 3584 2291 3584 
Q 2894 3584 3203 3211 
Q 3513 2838 3513 2113 
z
" id="DejaVuSans-6e" transform="scale(0.015625)"/>
      <path d="M 2906 1791 
Q 2906 2416 2648 2759 
Q 2391 3103 1925 3103 
Q 1463 3103 1205 2759 
Q 947 2416 947 1791 
Q 947 1169 1205 825 
Q 1463 481 1925 481 
Q 2391 481 2648 825 
Q 2906 1169 2906 1791 
z
M 3481 434 
Q 3481 -459 3084 -895 
Q 2688 -1331 1869 -1331 
Q 1566 -1331 1297 -1286 
Q 1028 -1241 775 -1147 
L 775 -588 
Q 1028 -725 1275 -790 
Q 1522 -856 1778 -856 
Q 2344 -856 2625 -561 
Q 2906 -266 2906 331 
L 2906 616 
Q 2728 306 2450 153 
Q 2172 0 1784 0 
Q 1141 0 747 490 
Q 353 981 353 1791 
Q 353 2603 747 3093 
Q 1141 3584 1784 3584 
Q 2172 3584 2450 3431 
Q 2728 3278 2906 2969 
L 2906 3500 
L 3481 3500 
L 3481 434 
z
" id="DejaVuSans-67" transform="scale(0.015625)"/>
      <path id="DejaVuSans-20" transform="scale(0.015625)"/>
      <path d="M 2906 2969 
L 2906 4863 
L 3481 4863 
L 3481 0 
L 2906 0 
L 2906 525 
Q 2725 213 2448 61 
Q 2172 -91 1784 -91 
Q 1150 -91 751 415 
Q 353 922 353 1747 
Q 353 2572 751 3078 
Q 1150 3584 1784 3584 
Q 2172 3584 2448 3432 
Q 2725 3281 2906 2969 
z
M 947 1747 
Q 947 1113 1208 752 
Q 1469 391 1925 391 
Q 2381 391 2643 752 
Q 2906 1113 2906 1747 
Q 2906 2381 2643 2742 
Q 2381 3103 1925 3103 
Q 1469 3103 1208 2742 
Q 947 2381 947 1747 
z
" id="DejaVuSans-64" transform="scale(0.015625)"/>
      <path d="M 1831 0 
L 50 4666 
L 709 4666 
L 2188 738 
L 3669 4666 
L 4325 4666 
L 2547 0 
L 1831 0 
z
" id="DejaVuSans-56" transform="scale(0.015625)"/>
      <path d="M 603 4863 
L 1178 4863 
L 1178 0 
L 603 0 
L 603 4863 
z
" id="DejaVuSans-6c" transform="scale(0.015625)"/>
      <path d="M 1172 4494 
L 1172 3500 
L 2356 3500 
L 2356 3053 
L 1172 3053 
L 1172 1153 
Q 1172 725 1289 603 
Q 1406 481 1766 481 
L 2356 481 
L 2356 0 
L 1766 0 
Q 1100 0 847 248 
Q 594 497 594 1153 
L 594 3053 
L 172 3053 
L 172 3500 
L 594 3500 
L 594 4494 
L 1172 4494 
z
" id="DejaVuSans-74" transform="scale(0.015625)"/>
     </defs>
     <use xlink:href="#DejaVuSans-54"/>
     <use x="46.333984" xlink:href="#DejaVuSans-72"/>
     <use x="87.447266" xlink:href="#DejaVuSans-61"/>
     <use x="148.726562" xlink:href="#DejaVuSans-69"/>
     <use x="176.509766" xlink:href="#DejaVuSans-6e"/>
     <use x="239.888672" xlink:href="#DejaVuSans-69"/>
     <use x="267.671875" xlink:href="#DejaVuSans-6e"/>
     <use x="331.050781" xlink:href="#DejaVuSans-67"/>
     <use x="394.527344" xlink:href="#DejaVuSans-20"/>
     <use x="426.314453" xlink:href="#DejaVuSans-61"/>
     <use x="487.59375" xlink:href="#DejaVuSans-6e"/>
     <use x="550.972656" xlink:href="#DejaVuSans-64"/>
     <use x="614.449219" xlink:href="#DejaVuSans-20"/>
     <use x="646.236328" xlink:href="#DejaVuSans-56"/>
     <use x="706.894531" xlink:href="#DejaVuSans-61"/>
     <use x="768.173828" xlink:href="#DejaVuSans-6c"/>
     <use x="795.957031" xlink:href="#DejaVuSans-69"/>
     <use x="823.740234" xlink:href="#DejaVuSans-64"/>
     <use x="887.216797" xlink:href="#DejaVuSans-61"/>
     <use x="948.496094" xlink:href="#DejaVuSans-74"/>
     <use x="987.705078" xlink:href="#DejaVuSans-69"/>
     <use x="1015.488281" xlink:href="#DejaVuSans-6f"/>
     <use x="1076.669922" xlink:href="#DejaVuSans-6e"/>
     <use x="1140.048828" xlink:href="#DejaVuSans-20"/>
     <use x="1171.835938" xlink:href="#DejaVuSans-41"/>
     <use x="1238.494141" xlink:href="#DejaVuSans-63"/>
     <use x="1293.474609" xlink:href="#DejaVuSans-63"/>
     <use x="1348.455078" xlink:href="#DejaVuSans-75"/>
     <use x="1411.833984" xlink:href="#DejaVuSans-72"/>
     <use x="1452.947266" xlink:href="#DejaVuSans-61"/>
     <use x="1514.226562" xlink:href="#DejaVuSans-63"/>
     <use x="1569.207031" xlink:href="#DejaVuSans-79"/>
    </g>
   </g>
   <g id="legend_1">
    <g id="patch_7">
     <path d="M 277.504375 302.584 
L 407.72 302.584 
Q 409.72 302.584 409.72 300.584 
L 409.72 272.22775 
Q 409.72 270.22775 407.72 270.22775 
L 277.504375 270.22775 
Q 275.504375 270.22775 275.504375 272.22775 
L 275.504375 300.584 
Q 275.504375 302.584 277.504375 302.584 
z
" style="fill:#ffffff;opacity:0.8;stroke:#cccccc;stroke-linejoin:miter;"/>
    </g>
    <g id="line2d_22">
     <path d="M 279.504375 278.326187 
L 299.504375 278.326187 
" style="fill:none;stroke:#1f77b4;stroke-linecap:square;stroke-width:1.5;"/>
    </g>
    <g id="line2d_23"/>
    <g id="text_23">
     <!-- Train Accuracy -->
     <g transform="translate(307.504375 281.826187)scale(0.1 -0.1)">
      <use xlink:href="#DejaVuSans-54"/>
      <use x="46.333984" xlink:href="#DejaVuSans-72"/>
      <use x="87.447266" xlink:href="#DejaVuSans-61"/>
      <use x="148.726562" xlink:href="#DejaVuSans-69"/>
      <use x="176.509766" xlink:href="#DejaVuSans-6e"/>
      <use x="239.888672" xlink:href="#DejaVuSans-20"/>
      <use x="271.675781" xlink:href="#DejaVuSans-41"/>
      <use x="338.333984" xlink:href="#DejaVuSans-63"/>
      <use x="393.314453" xlink:href="#DejaVuSans-63"/>
      <use x="448.294922" xlink:href="#DejaVuSans-75"/>
      <use x="511.673828" xlink:href="#DejaVuSans-72"/>
      <use x="552.787109" xlink:href="#DejaVuSans-61"/>
      <use x="614.066406" xlink:href="#DejaVuSans-63"/>
      <use x="669.046875" xlink:href="#DejaVuSans-79"/>
     </g>
    </g>
    <g id="line2d_24">
     <path d="M 279.504375 293.004312 
L 299.504375 293.004312 
" style="fill:none;stroke:#ff7f0e;stroke-linecap:square;stroke-width:1.5;"/>
    </g>
    <g id="line2d_25"/>
    <g id="text_24">
     <!-- Validation Accuracy -->
     <g transform="translate(307.504375 296.504312)scale(0.1 -0.1)">
      <use xlink:href="#DejaVuSans-56"/>
      <use x="60.658203" xlink:href="#DejaVuSans-61"/>
      <use x="121.9375" xlink:href="#DejaVuSans-6c"/>
      <use x="149.720703" xlink:href="#DejaVuSans-69"/>
      <use x="177.503906" xlink:href="#DejaVuSans-64"/>
      <use x="240.980469" xlink:href="#DejaVuSans-61"/>
      <use x="302.259766" xlink:href="#DejaVuSans-74"/>
      <use x="341.46875" xlink:href="#DejaVuSans-69"/>
      <use x="369.251953" xlink:href="#DejaVuSans-6f"/>
      <use x="430.433594" xlink:href="#DejaVuSans-6e"/>
      <use x="493.8125" xlink:href="#DejaVuSans-20"/>
      <use x="525.599609" xlink:href="#DejaVuSans-41"/>
      <use x="592.257812" xlink:href="#DejaVuSans-63"/>
      <use x="647.238281" xlink:href="#DejaVuSans-63"/>
      <use x="702.21875" xlink:href="#DejaVuSans-75"/>
      <use x="765.597656" xlink:href="#DejaVuSans-72"/>
      <use x="806.710938" xlink:href="#DejaVuSans-61"/>
      <use x="867.990234" xlink:href="#DejaVuSans-63"/>
      <use x="922.970703" xlink:href="#DejaVuSans-79"/>
     </g>
    </g>
   </g>
  </g>
 </g>
 <defs>
  <clipPath id="pa4ecb7d406">
   <rect height="266.112" width="357.12" x="57.6" y="41.472"/>
  </clipPath>
 </defs>
</svg>
