<?xml version="1.0" encoding="utf-8" standalone="no"?>
<!DOCTYPE svg PUBLIC "-//W3C//DTD SVG 1.1//EN"
  "http://www.w3.org/Graphics/SVG/1.1/DTD/svg11.dtd">
<svg height="345.6pt" version="1.1" viewBox="0 0 460.8 345.6" width="460.8pt" xmlns="http://www.w3.org/2000/svg" xmlns:xlink="http://www.w3.org/1999/xlink">
 <metadata>
  <rdf:RDF xmlns:cc="http://creativecommons.org/ns#" xmlns:dc="http://purl.org/dc/elements/1.1/" xmlns:rdf="http://www.w3.org/1999/02/22-rdf-syntax-ns#">
   <cc:Work>
    <dc:type rdf:resource="http://purl.org/dc/dcmitype/StillImage"/>
    <dc:date>2023-08-29T13:02:09.471317</dc:date>
    <dc:format>image/svg+xml</dc:format>
    <dc:creator>
     <cc:Agent>
      <dc:title>Matplotlib v3.4.3, https://matplotlib.org/</dc:title>
     </cc:Agent>
    </dc:creator>
   </cc:Work>
  </rdf:RDF>
 </metadata>
 <defs>
  <style type="text/css">*{stroke-linecap:butt;stroke-linejoin:round;}</style>
 </defs>
 <g id="figure_1">
  <g id="patch_1">
   <path d="M 0 345.6 
L 460.8 345.6 
L 460.8 0 
L 0 0 
z
" style="fill:#ffffff;"/>
  </g>
  <g id="axes_1">
   <g id="patch_2">
    <path d="M 57.6 307.584 
L 414.72 307.584 
L 414.72 41.472 
L 57.6 41.472 
z
" style="fill:#ffffff;"/>
   </g>
   <g id="matplotlib.axis_1">
    <g id="xtick_1">
     <g id="line2d_1">
      <defs>
       <path d="M 0 0 
L 0 3.5 
" id="m4798b7f819" style="stroke:#000000;stroke-width:0.8;"/>
      </defs>
      <g>
       <use style="stroke:#000000;stroke-width:0.8;" x="73.832727" xlink:href="#m4798b7f819" y="307.584"/>
      </g>
     </g>
     <g id="text_1">
      <!-- 1 -->
      <g transform="translate(70.651477 322.182437)scale(0.1 -0.1)">
       <defs>
        <path d="M 794 531 
L 1825 531 
L 1825 4091 
L 703 3866 
L 703 4441 
L 1819 4666 
L 2450 4666 
L 2450 531 
L 3481 531 
L 3481 0 
L 794 0 
L 794 531 
z
" id="DejaVuSans-31" transform="scale(0.015625)"/>
       </defs>
       <use xlink:href="#DejaVuSans-31"/>
      </g>
     </g>
    </g>
    <g id="xtick_2">
     <g id="line2d_2">
      <g>
       <use style="stroke:#000000;stroke-width:0.8;" x="109.710992" xlink:href="#m4798b7f819" y="307.584"/>
      </g>
     </g>
     <g id="text_2">
      <!-- 42 -->
      <g transform="translate(103.348492 322.182437)scale(0.1 -0.1)">
       <defs>
        <path d="M 2419 4116 
L 825 1625 
L 2419 1625 
L 2419 4116 
z
M 2253 4666 
L 3047 4666 
L 3047 1625 
L 3713 1625 
L 3713 1100 
L 3047 1100 
L 3047 0 
L 2419 0 
L 2419 1100 
L 313 1100 
L 313 1709 
L 2253 4666 
z
" id="DejaVuSans-34" transform="scale(0.015625)"/>
        <path d="M 1228 531 
L 3431 531 
L 3431 0 
L 469 0 
L 469 531 
Q 828 903 1448 1529 
Q 2069 2156 2228 2338 
Q 2531 2678 2651 2914 
Q 2772 3150 2772 3378 
Q 2772 3750 2511 3984 
Q 2250 4219 1831 4219 
Q 1534 4219 1204 4116 
Q 875 4013 500 3803 
L 500 4441 
Q 881 4594 1212 4672 
Q 1544 4750 1819 4750 
Q 2544 4750 2975 4387 
Q 3406 4025 3406 3419 
Q 3406 3131 3298 2873 
Q 3191 2616 2906 2266 
Q 2828 2175 2409 1742 
Q 1991 1309 1228 531 
z
" id="DejaVuSans-32" transform="scale(0.015625)"/>
       </defs>
       <use xlink:href="#DejaVuSans-34"/>
       <use x="63.623047" xlink:href="#DejaVuSans-32"/>
      </g>
     </g>
    </g>
    <g id="xtick_3">
     <g id="line2d_3">
      <g>
       <use style="stroke:#000000;stroke-width:0.8;" x="145.589258" xlink:href="#m4798b7f819" y="307.584"/>
      </g>
     </g>
     <g id="text_3">
      <!-- 83 -->
      <g transform="translate(139.226758 322.182437)scale(0.1 -0.1)">
       <defs>
        <path d="M 2034 2216 
Q 1584 2216 1326 1975 
Q 1069 1734 1069 1313 
Q 1069 891 1326 650 
Q 1584 409 2034 409 
Q 2484 409 2743 651 
Q 3003 894 3003 1313 
Q 3003 1734 2745 1975 
Q 2488 2216 2034 2216 
z
M 1403 2484 
Q 997 2584 770 2862 
Q 544 3141 544 3541 
Q 544 4100 942 4425 
Q 1341 4750 2034 4750 
Q 2731 4750 3128 4425 
Q 3525 4100 3525 3541 
Q 3525 3141 3298 2862 
Q 3072 2584 2669 2484 
Q 3125 2378 3379 2068 
Q 3634 1759 3634 1313 
Q 3634 634 3220 271 
Q 2806 -91 2034 -91 
Q 1263 -91 848 271 
Q 434 634 434 1313 
Q 434 1759 690 2068 
Q 947 2378 1403 2484 
z
M 1172 3481 
Q 1172 3119 1398 2916 
Q 1625 2713 2034 2713 
Q 2441 2713 2670 2916 
Q 2900 3119 2900 3481 
Q 2900 3844 2670 4047 
Q 2441 4250 2034 4250 
Q 1625 4250 1398 4047 
Q 1172 3844 1172 3481 
z
" id="DejaVuSans-38" transform="scale(0.015625)"/>
        <path d="M 2597 2516 
Q 3050 2419 3304 2112 
Q 3559 1806 3559 1356 
Q 3559 666 3084 287 
Q 2609 -91 1734 -91 
Q 1441 -91 1130 -33 
Q 819 25 488 141 
L 488 750 
Q 750 597 1062 519 
Q 1375 441 1716 441 
Q 2309 441 2620 675 
Q 2931 909 2931 1356 
Q 2931 1769 2642 2001 
Q 2353 2234 1838 2234 
L 1294 2234 
L 1294 2753 
L 1863 2753 
Q 2328 2753 2575 2939 
Q 2822 3125 2822 3475 
Q 2822 3834 2567 4026 
Q 2313 4219 1838 4219 
Q 1578 4219 1281 4162 
Q 984 4106 628 3988 
L 628 4550 
Q 988 4650 1302 4700 
Q 1616 4750 1894 4750 
Q 2613 4750 3031 4423 
Q 3450 4097 3450 3541 
Q 3450 3153 3228 2886 
Q 3006 2619 2597 2516 
z
" id="DejaVuSans-33" transform="scale(0.015625)"/>
       </defs>
       <use xlink:href="#DejaVuSans-38"/>
       <use x="63.623047" xlink:href="#DejaVuSans-33"/>
      </g>
     </g>
    </g>
    <g id="xtick_4">
     <g id="line2d_4">
      <g>
       <use style="stroke:#000000;stroke-width:0.8;" x="181.467523" xlink:href="#m4798b7f819" y="307.584"/>
      </g>
     </g>
     <g id="text_4">
      <!-- 124 -->
      <g transform="translate(171.923773 322.182437)scale(0.1 -0.1)">
       <use xlink:href="#DejaVuSans-31"/>
       <use x="63.623047" xlink:href="#DejaVuSans-32"/>
       <use x="127.246094" xlink:href="#DejaVuSans-34"/>
      </g>
     </g>
    </g>
    <g id="xtick_5">
     <g id="line2d_5">
      <g>
       <use style="stroke:#000000;stroke-width:0.8;" x="217.345788" xlink:href="#m4798b7f819" y="307.584"/>
      </g>
     </g>
     <g id="text_5">
      <!-- 165 -->
      <g transform="translate(207.802038 322.182437)scale(0.1 -0.1)">
       <defs>
        <path d="M 2113 2584 
Q 1688 2584 1439 2293 
Q 1191 2003 1191 1497 
Q 1191 994 1439 701 
Q 1688 409 2113 409 
Q 2538 409 2786 701 
Q 3034 994 3034 1497 
Q 3034 2003 2786 2293 
Q 2538 2584 2113 2584 
z
M 3366 4563 
L 3366 3988 
Q 3128 4100 2886 4159 
Q 2644 4219 2406 4219 
Q 1781 4219 1451 3797 
Q 1122 3375 1075 2522 
Q 1259 2794 1537 2939 
Q 1816 3084 2150 3084 
Q 2853 3084 3261 2657 
Q 3669 2231 3669 1497 
Q 3669 778 3244 343 
Q 2819 -91 2113 -91 
Q 1303 -91 875 529 
Q 447 1150 447 2328 
Q 447 3434 972 4092 
Q 1497 4750 2381 4750 
Q 2619 4750 2861 4703 
Q 3103 4656 3366 4563 
z
" id="DejaVuSans-36" transform="scale(0.015625)"/>
        <path d="M 691 4666 
L 3169 4666 
L 3169 4134 
L 1269 4134 
L 1269 2991 
Q 1406 3038 1543 3061 
Q 1681 3084 1819 3084 
Q 2600 3084 3056 2656 
Q 3513 2228 3513 1497 
Q 3513 744 3044 326 
Q 2575 -91 1722 -91 
Q 1428 -91 1123 -41 
Q 819 9 494 109 
L 494 744 
Q 775 591 1075 516 
Q 1375 441 1709 441 
Q 2250 441 2565 725 
Q 2881 1009 2881 1497 
Q 2881 1984 2565 2268 
Q 2250 2553 1709 2553 
Q 1456 2553 1204 2497 
Q 953 2441 691 2322 
L 691 4666 
z
" id="DejaVuSans-35" transform="scale(0.015625)"/>
       </defs>
       <use xlink:href="#DejaVuSans-31"/>
       <use x="63.623047" xlink:href="#DejaVuSans-36"/>
       <use x="127.246094" xlink:href="#DejaVuSans-35"/>
      </g>
     </g>
    </g>
    <g id="xtick_6">
     <g id="line2d_6">
      <g>
       <use style="stroke:#000000;stroke-width:0.8;" x="254.099133" xlink:href="#m4798b7f819" y="307.584"/>
      </g>
     </g>
     <g id="text_6">
      <!-- 207 -->
      <g transform="translate(244.555383 322.182437)scale(0.1 -0.1)">
       <defs>
        <path d="M 2034 4250 
Q 1547 4250 1301 3770 
Q 1056 3291 1056 2328 
Q 1056 1369 1301 889 
Q 1547 409 2034 409 
Q 2525 409 2770 889 
Q 3016 1369 3016 2328 
Q 3016 3291 2770 3770 
Q 2525 4250 2034 4250 
z
M 2034 4750 
Q 2819 4750 3233 4129 
Q 3647 3509 3647 2328 
Q 3647 1150 3233 529 
Q 2819 -91 2034 -91 
Q 1250 -91 836 529 
Q 422 1150 422 2328 
Q 422 3509 836 4129 
Q 1250 4750 2034 4750 
z
" id="DejaVuSans-30" transform="scale(0.015625)"/>
        <path d="M 525 4666 
L 3525 4666 
L 3525 4397 
L 1831 0 
L 1172 0 
L 2766 4134 
L 525 4134 
L 525 4666 
z
" id="DejaVuSans-37" transform="scale(0.015625)"/>
       </defs>
       <use xlink:href="#DejaVuSans-32"/>
       <use x="63.623047" xlink:href="#DejaVuSans-30"/>
       <use x="127.246094" xlink:href="#DejaVuSans-37"/>
      </g>
     </g>
    </g>
    <g id="xtick_7">
     <g id="line2d_7">
      <g>
       <use style="stroke:#000000;stroke-width:0.8;" x="289.977398" xlink:href="#m4798b7f819" y="307.584"/>
      </g>
     </g>
     <g id="text_7">
      <!-- 248 -->
      <g transform="translate(280.433648 322.182437)scale(0.1 -0.1)">
       <use xlink:href="#DejaVuSans-32"/>
       <use x="63.623047" xlink:href="#DejaVuSans-34"/>
       <use x="127.246094" xlink:href="#DejaVuSans-38"/>
      </g>
     </g>
    </g>
    <g id="xtick_8">
     <g id="line2d_8">
      <g>
       <use style="stroke:#000000;stroke-width:0.8;" x="325.855663" xlink:href="#m4798b7f819" y="307.584"/>
      </g>
     </g>
     <g id="text_8">
      <!-- 289 -->
      <g transform="translate(316.311913 322.182437)scale(0.1 -0.1)">
       <defs>
        <path d="M 703 97 
L 703 672 
Q 941 559 1184 500 
Q 1428 441 1663 441 
Q 2288 441 2617 861 
Q 2947 1281 2994 2138 
Q 2813 1869 2534 1725 
Q 2256 1581 1919 1581 
Q 1219 1581 811 2004 
Q 403 2428 403 3163 
Q 403 3881 828 4315 
Q 1253 4750 1959 4750 
Q 2769 4750 3195 4129 
Q 3622 3509 3622 2328 
Q 3622 1225 3098 567 
Q 2575 -91 1691 -91 
Q 1453 -91 1209 -44 
Q 966 3 703 97 
z
M 1959 2075 
Q 2384 2075 2632 2365 
Q 2881 2656 2881 3163 
Q 2881 3666 2632 3958 
Q 2384 4250 1959 4250 
Q 1534 4250 1286 3958 
Q 1038 3666 1038 3163 
Q 1038 2656 1286 2365 
Q 1534 2075 1959 2075 
z
" id="DejaVuSans-39" transform="scale(0.015625)"/>
       </defs>
       <use xlink:href="#DejaVuSans-32"/>
       <use x="63.623047" xlink:href="#DejaVuSans-38"/>
       <use x="127.246094" xlink:href="#DejaVuSans-39"/>
      </g>
     </g>
    </g>
    <g id="xtick_9">
     <g id="line2d_9">
      <g>
       <use style="stroke:#000000;stroke-width:0.8;" x="361.733928" xlink:href="#m4798b7f819" y="307.584"/>
      </g>
     </g>
     <g id="text_9">
      <!-- 330 -->
      <g transform="translate(352.190178 322.182437)scale(0.1 -0.1)">
       <use xlink:href="#DejaVuSans-33"/>
       <use x="63.623047" xlink:href="#DejaVuSans-33"/>
       <use x="127.246094" xlink:href="#DejaVuSans-30"/>
      </g>
     </g>
    </g>
    <g id="xtick_10">
     <g id="line2d_10">
      <g>
       <use style="stroke:#000000;stroke-width:0.8;" x="398.487273" xlink:href="#m4798b7f819" y="307.584"/>
      </g>
     </g>
     <g id="text_10">
      <!-- 372 -->
      <g transform="translate(388.943523 322.182437)scale(0.1 -0.1)">
       <use xlink:href="#DejaVuSans-33"/>
       <use x="63.623047" xlink:href="#DejaVuSans-37"/>
       <use x="127.246094" xlink:href="#DejaVuSans-32"/>
      </g>
     </g>
    </g>
    <g id="text_11">
     <!-- Epochs -->
     <g transform="translate(218.244375 335.860562)scale(0.1 -0.1)">
      <defs>
       <path d="M 628 4666 
L 3578 4666 
L 3578 4134 
L 1259 4134 
L 1259 2753 
L 3481 2753 
L 3481 2222 
L 1259 2222 
L 1259 531 
L 3634 531 
L 3634 0 
L 628 0 
L 628 4666 
z
" id="DejaVuSans-45" transform="scale(0.015625)"/>
       <path d="M 1159 525 
L 1159 -1331 
L 581 -1331 
L 581 3500 
L 1159 3500 
L 1159 2969 
Q 1341 3281 1617 3432 
Q 1894 3584 2278 3584 
Q 2916 3584 3314 3078 
Q 3713 2572 3713 1747 
Q 3713 922 3314 415 
Q 2916 -91 2278 -91 
Q 1894 -91 1617 61 
Q 1341 213 1159 525 
z
M 3116 1747 
Q 3116 2381 2855 2742 
Q 2594 3103 2138 3103 
Q 1681 3103 1420 2742 
Q 1159 2381 1159 1747 
Q 1159 1113 1420 752 
Q 1681 391 2138 391 
Q 2594 391 2855 752 
Q 3116 1113 3116 1747 
z
" id="DejaVuSans-70" transform="scale(0.015625)"/>
       <path d="M 1959 3097 
Q 1497 3097 1228 2736 
Q 959 2375 959 1747 
Q 959 1119 1226 758 
Q 1494 397 1959 397 
Q 2419 397 2687 759 
Q 2956 1122 2956 1747 
Q 2956 2369 2687 2733 
Q 2419 3097 1959 3097 
z
M 1959 3584 
Q 2709 3584 3137 3096 
Q 3566 2609 3566 1747 
Q 3566 888 3137 398 
Q 2709 -91 1959 -91 
Q 1206 -91 779 398 
Q 353 888 353 1747 
Q 353 2609 779 3096 
Q 1206 3584 1959 3584 
z
" id="DejaVuSans-6f" transform="scale(0.015625)"/>
       <path d="M 3122 3366 
L 3122 2828 
Q 2878 2963 2633 3030 
Q 2388 3097 2138 3097 
Q 1578 3097 1268 2742 
Q 959 2388 959 1747 
Q 959 1106 1268 751 
Q 1578 397 2138 397 
Q 2388 397 2633 464 
Q 2878 531 3122 666 
L 3122 134 
Q 2881 22 2623 -34 
Q 2366 -91 2075 -91 
Q 1284 -91 818 406 
Q 353 903 353 1747 
Q 353 2603 823 3093 
Q 1294 3584 2113 3584 
Q 2378 3584 2631 3529 
Q 2884 3475 3122 3366 
z
" id="DejaVuSans-63" transform="scale(0.015625)"/>
       <path d="M 3513 2113 
L 3513 0 
L 2938 0 
L 2938 2094 
Q 2938 2591 2744 2837 
Q 2550 3084 2163 3084 
Q 1697 3084 1428 2787 
Q 1159 2491 1159 1978 
L 1159 0 
L 581 0 
L 581 4863 
L 1159 4863 
L 1159 2956 
Q 1366 3272 1645 3428 
Q 1925 3584 2291 3584 
Q 2894 3584 3203 3211 
Q 3513 2838 3513 2113 
z
" id="DejaVuSans-68" transform="scale(0.015625)"/>
       <path d="M 2834 3397 
L 2834 2853 
Q 2591 2978 2328 3040 
Q 2066 3103 1784 3103 
Q 1356 3103 1142 2972 
Q 928 2841 928 2578 
Q 928 2378 1081 2264 
Q 1234 2150 1697 2047 
L 1894 2003 
Q 2506 1872 2764 1633 
Q 3022 1394 3022 966 
Q 3022 478 2636 193 
Q 2250 -91 1575 -91 
Q 1294 -91 989 -36 
Q 684 19 347 128 
L 347 722 
Q 666 556 975 473 
Q 1284 391 1588 391 
Q 1994 391 2212 530 
Q 2431 669 2431 922 
Q 2431 1156 2273 1281 
Q 2116 1406 1581 1522 
L 1381 1569 
Q 847 1681 609 1914 
Q 372 2147 372 2553 
Q 372 3047 722 3315 
Q 1072 3584 1716 3584 
Q 2034 3584 2315 3537 
Q 2597 3491 2834 3397 
z
" id="DejaVuSans-73" transform="scale(0.015625)"/>
      </defs>
      <use xlink:href="#DejaVuSans-45"/>
      <use x="63.183594" xlink:href="#DejaVuSans-70"/>
      <use x="126.660156" xlink:href="#DejaVuSans-6f"/>
      <use x="187.841797" xlink:href="#DejaVuSans-63"/>
      <use x="242.822266" xlink:href="#DejaVuSans-68"/>
      <use x="306.201172" xlink:href="#DejaVuSans-73"/>
     </g>
    </g>
   </g>
   <g id="matplotlib.axis_2">
    <g id="ytick_1">
     <g id="line2d_11">
      <defs>
       <path d="M 0 0 
L -3.5 0 
" id="m8cb0b42a08" style="stroke:#000000;stroke-width:0.8;"/>
      </defs>
      <g>
       <use style="stroke:#000000;stroke-width:0.8;" x="57.6" xlink:href="#m8cb0b42a08" y="284.633263"/>
      </g>
     </g>
     <g id="text_12">
      <!-- 10 -->
      <g transform="translate(37.875 288.432482)scale(0.1 -0.1)">
       <use xlink:href="#DejaVuSans-31"/>
       <use x="63.623047" xlink:href="#DejaVuSans-30"/>
      </g>
     </g>
    </g>
    <g id="ytick_2">
     <g id="line2d_12">
      <g>
       <use style="stroke:#000000;stroke-width:0.8;" x="57.6" xlink:href="#m8cb0b42a08" y="254.921391"/>
      </g>
     </g>
     <g id="text_13">
      <!-- 20 -->
      <g transform="translate(37.875 258.72061)scale(0.1 -0.1)">
       <use xlink:href="#DejaVuSans-32"/>
       <use x="63.623047" xlink:href="#DejaVuSans-30"/>
      </g>
     </g>
    </g>
    <g id="ytick_3">
     <g id="line2d_13">
      <g>
       <use style="stroke:#000000;stroke-width:0.8;" x="57.6" xlink:href="#m8cb0b42a08" y="225.20952"/>
      </g>
     </g>
     <g id="text_14">
      <!-- 30 -->
      <g transform="translate(37.875 229.008739)scale(0.1 -0.1)">
       <use xlink:href="#DejaVuSans-33"/>
       <use x="63.623047" xlink:href="#DejaVuSans-30"/>
      </g>
     </g>
    </g>
    <g id="ytick_4">
     <g id="line2d_14">
      <g>
       <use style="stroke:#000000;stroke-width:0.8;" x="57.6" xlink:href="#m8cb0b42a08" y="195.497648"/>
      </g>
     </g>
     <g id="text_15">
      <!-- 40 -->
      <g transform="translate(37.875 199.296867)scale(0.1 -0.1)">
       <use xlink:href="#DejaVuSans-34"/>
       <use x="63.623047" xlink:href="#DejaVuSans-30"/>
      </g>
     </g>
    </g>
    <g id="ytick_5">
     <g id="line2d_15">
      <g>
       <use style="stroke:#000000;stroke-width:0.8;" x="57.6" xlink:href="#m8cb0b42a08" y="165.785777"/>
      </g>
     </g>
     <g id="text_16">
      <!-- 50 -->
      <g transform="translate(37.875 169.584996)scale(0.1 -0.1)">
       <use xlink:href="#DejaVuSans-35"/>
       <use x="63.623047" xlink:href="#DejaVuSans-30"/>
      </g>
     </g>
    </g>
    <g id="ytick_6">
     <g id="line2d_16">
      <g>
       <use style="stroke:#000000;stroke-width:0.8;" x="57.6" xlink:href="#m8cb0b42a08" y="136.073906"/>
      </g>
     </g>
     <g id="text_17">
      <!-- 60 -->
      <g transform="translate(37.875 139.873124)scale(0.1 -0.1)">
       <use xlink:href="#DejaVuSans-36"/>
       <use x="63.623047" xlink:href="#DejaVuSans-30"/>
      </g>
     </g>
    </g>
    <g id="ytick_7">
     <g id="line2d_17">
      <g>
       <use style="stroke:#000000;stroke-width:0.8;" x="57.6" xlink:href="#m8cb0b42a08" y="106.362034"/>
      </g>
     </g>
     <g id="text_18">
      <!-- 70 -->
      <g transform="translate(37.875 110.161253)scale(0.1 -0.1)">
       <use xlink:href="#DejaVuSans-37"/>
       <use x="63.623047" xlink:href="#DejaVuSans-30"/>
      </g>
     </g>
    </g>
    <g id="ytick_8">
     <g id="line2d_18">
      <g>
       <use style="stroke:#000000;stroke-width:0.8;" x="57.6" xlink:href="#m8cb0b42a08" y="76.650163"/>
      </g>
     </g>
     <g id="text_19">
      <!-- 80 -->
      <g transform="translate(37.875 80.449381)scale(0.1 -0.1)">
       <use xlink:href="#DejaVuSans-38"/>
       <use x="63.623047" xlink:href="#DejaVuSans-30"/>
      </g>
     </g>
    </g>
    <g id="ytick_9">
     <g id="line2d_19">
      <g>
       <use style="stroke:#000000;stroke-width:0.8;" x="57.6" xlink:href="#m8cb0b42a08" y="46.938291"/>
      </g>
     </g>
     <g id="text_20">
      <!-- 90 -->
      <g transform="translate(37.875 50.73751)scale(0.1 -0.1)">
       <use xlink:href="#DejaVuSans-39"/>
       <use x="63.623047" xlink:href="#DejaVuSans-30"/>
      </g>
     </g>
    </g>
    <g id="text_21">
     <!-- Accuracy -->
     <g transform="translate(31.795312 197.356125)rotate(-90)scale(0.1 -0.1)">
      <defs>
       <path d="M 2188 4044 
L 1331 1722 
L 3047 1722 
L 2188 4044 
z
M 1831 4666 
L 2547 4666 
L 4325 0 
L 3669 0 
L 3244 1197 
L 1141 1197 
L 716 0 
L 50 0 
L 1831 4666 
z
" id="DejaVuSans-41" transform="scale(0.015625)"/>
       <path d="M 544 1381 
L 544 3500 
L 1119 3500 
L 1119 1403 
Q 1119 906 1312 657 
Q 1506 409 1894 409 
Q 2359 409 2629 706 
Q 2900 1003 2900 1516 
L 2900 3500 
L 3475 3500 
L 3475 0 
L 2900 0 
L 2900 538 
Q 2691 219 2414 64 
Q 2138 -91 1772 -91 
Q 1169 -91 856 284 
Q 544 659 544 1381 
z
M 1991 3584 
L 1991 3584 
z
" id="DejaVuSans-75" transform="scale(0.015625)"/>
       <path d="M 2631 2963 
Q 2534 3019 2420 3045 
Q 2306 3072 2169 3072 
Q 1681 3072 1420 2755 
Q 1159 2438 1159 1844 
L 1159 0 
L 581 0 
L 581 3500 
L 1159 3500 
L 1159 2956 
Q 1341 3275 1631 3429 
Q 1922 3584 2338 3584 
Q 2397 3584 2469 3576 
Q 2541 3569 2628 3553 
L 2631 2963 
z
" id="DejaVuSans-72" transform="scale(0.015625)"/>
       <path d="M 2194 1759 
Q 1497 1759 1228 1600 
Q 959 1441 959 1056 
Q 959 750 1161 570 
Q 1363 391 1709 391 
Q 2188 391 2477 730 
Q 2766 1069 2766 1631 
L 2766 1759 
L 2194 1759 
z
M 3341 1997 
L 3341 0 
L 2766 0 
L 2766 531 
Q 2569 213 2275 61 
Q 1981 -91 1556 -91 
Q 1019 -91 701 211 
Q 384 513 384 1019 
Q 384 1609 779 1909 
Q 1175 2209 1959 2209 
L 2766 2209 
L 2766 2266 
Q 2766 2663 2505 2880 
Q 2244 3097 1772 3097 
Q 1472 3097 1187 3025 
Q 903 2953 641 2809 
L 641 3341 
Q 956 3463 1253 3523 
Q 1550 3584 1831 3584 
Q 2591 3584 2966 3190 
Q 3341 2797 3341 1997 
z
" id="DejaVuSans-61" transform="scale(0.015625)"/>
       <path d="M 2059 -325 
Q 1816 -950 1584 -1140 
Q 1353 -1331 966 -1331 
L 506 -1331 
L 506 -850 
L 844 -850 
Q 1081 -850 1212 -737 
Q 1344 -625 1503 -206 
L 1606 56 
L 191 3500 
L 800 3500 
L 1894 763 
L 2988 3500 
L 3597 3500 
L 2059 -325 
z
" id="DejaVuSans-79" transform="scale(0.015625)"/>
      </defs>
      <use xlink:href="#DejaVuSans-41"/>
      <use x="66.658203" xlink:href="#DejaVuSans-63"/>
      <use x="121.638672" xlink:href="#DejaVuSans-63"/>
      <use x="176.619141" xlink:href="#DejaVuSans-75"/>
      <use x="239.998047" xlink:href="#DejaVuSans-72"/>
      <use x="281.111328" xlink:href="#DejaVuSans-61"/>
      <use x="342.390625" xlink:href="#DejaVuSans-63"/>
      <use x="397.371094" xlink:href="#DejaVuSans-79"/>
     </g>
    </g>
   </g>
   <g id="line2d_20">
    <path clip-path="url(#p9159b2148d)" d="M 73.832727 295.488 
L 75.582887 264.126129 
L 76.457966 248.951286 
L 77.333046 239.780222 
L 78.208125 226.00976 
L 79.083205 219.142356 
L 79.958285 207.624054 
L 81.708444 190.731864 
L 82.583524 183.341531 
L 83.458603 184.246753 
L 84.333683 219.395897 
L 85.208763 205.704667 
L 86.958922 194.004132 
L 87.834001 186.901014 
L 88.709081 181.713321 
L 89.584161 178.670825 
L 90.45924 171.181453 
L 91.33432 165.464889 
L 92.2094 167.415968 
L 93.084479 156.612732 
L 93.959559 160.48716 
L 94.834639 155.162793 
L 95.709718 151.514175 
L 96.584798 148.588546 
L 97.459877 142.725403 
L 99.210037 138.108178 
L 100.085116 132.193535 
L 100.960196 123.713767 
L 101.835276 129.147078 
L 102.710355 128.216106 
L 103.585435 128.142817 
L 104.460515 130.020607 
L 105.335594 163.894121 
L 106.210674 160.9883 
L 107.085753 152.781881 
L 107.960833 157.373356 
L 108.835913 152.247068 
L 109.710992 150.353431 
L 110.586072 146.768198 
L 111.461152 141.879605 
L 112.336231 139.290711 
L 113.211311 140.956556 
L 114.086391 138.294373 
L 114.96147 128.788555 
L 115.83655 137.082128 
L 116.71163 133.265143 
L 117.586709 133.902958 
L 118.461789 126.003562 
L 119.336868 126.304642 
L 120.211948 122.992759 
L 121.087028 118.926194 
L 121.962107 123.830634 
L 122.837187 118.003145 
L 123.712267 115.53706 
L 124.587346 119.017311 
L 125.462426 117.919952 
L 126.337506 115.202306 
L 127.212585 109.614494 
L 128.087665 109.943305 
L 128.962744 107.570317 
L 129.837824 106.280822 
L 130.712904 105.409273 
L 131.587983 111.587362 
L 132.463063 104.403031 
L 133.338143 109.669956 
L 134.213222 99.282685 
L 135.088302 102.644089 
L 135.963382 101.360536 
L 136.838461 95.952975 
L 137.713541 105.159694 
L 139.4637 90.753398 
L 140.33878 96.771042 
L 141.213859 85.508262 
L 142.088939 98.528004 
L 142.964019 98.674582 
L 143.839098 97.533647 
L 144.714178 86.962163 
L 145.589258 90.713782 
L 146.464337 93.096674 
L 147.339417 125.742097 
L 148.214496 125.781713 
L 149.089576 122.455964 
L 149.964656 124.662566 
L 150.839735 120.160227 
L 151.714815 116.365031 
L 152.589895 122.022171 
L 153.464974 116.878056 
L 154.340054 109.410472 
L 155.215134 114.176256 
L 156.090213 110.48208 
L 156.965293 112.244985 
L 157.840372 106.072838 
L 158.715452 107.516835 
L 159.590532 109.836342 
L 160.465611 113.065032 
L 161.340691 104.618938 
L 162.215771 101.988447 
L 163.09085 102.436105 
L 163.96593 107.944686 
L 164.84101 100.938627 
L 165.716089 105.369658 
L 166.591169 98.197212 
L 167.466248 104.886344 
L 168.341328 104.284184 
L 169.216408 103.129382 
L 170.091487 100.197811 
L 170.966567 99.350032 
L 171.841647 109.194566 
L 172.716726 107.857532 
L 173.591806 99.548112 
L 174.466886 92.635149 
L 175.341965 91.531849 
L 176.217045 100.994089 
L 177.092124 92.389531 
L 177.967204 100.839588 
L 178.842284 95.596433 
L 179.717363 89.210361 
L 180.592443 92.341992 
L 181.467523 91.870564 
L 182.342602 96.143131 
L 183.217682 84.822908 
L 184.092762 93.928606 
L 184.967841 88.166484 
L 185.842921 87.094876 
L 186.718 87.774287 
L 187.59308 89.927408 
L 188.46816 78.02087 
L 189.343239 88.13083 
L 190.218319 90.464202 
L 191.093399 80.340377 
L 191.968478 83.828551 
L 192.843558 81.798239 
L 193.718638 87.677228 
L 194.593717 82.473689 
L 195.468797 91.375366 
L 196.343877 88.592354 
L 197.218956 84.139535 
L 198.094036 81.277291 
L 198.969115 80.07297 
L 199.844195 93.06102 
L 200.719275 87.938693 
L 201.594354 81.804182 
L 202.469434 73.060968 
L 203.344514 77.490018 
L 204.219593 83.737434 
L 205.094673 75.729095 
L 205.969753 81.104962 
L 206.844832 74.382156 
L 207.719912 79.609465 
L 208.594991 77.515768 
L 209.470071 71.716011 
L 210.345151 77.462287 
L 211.22023 76.796741 
L 212.09531 75.394341 
L 212.97039 72.482577 
L 213.845469 74.394041 
L 214.720549 69.707489 
L 215.595629 83.979091 
L 216.470708 80.02147 
L 217.345788 73.778015 
L 218.220867 77.004724 
L 219.095947 81.782393 
L 220.846106 70.246264 
L 221.721186 73.249144 
L 222.596266 70.844463 
L 223.471345 70.08582 
L 224.346425 76.097522 
L 225.221505 69.228137 
L 226.096584 69.719373 
L 226.971664 80.288876 
L 227.846743 74.930836 
L 228.721823 67.962411 
L 229.596903 81.421889 
L 230.471982 77.254304 
L 231.347062 92.484609 
L 232.222142 101.037667 
L 233.097221 94.960599 
L 233.972301 94.673384 
L 234.847381 94.205917 
L 235.72246 93.134309 
L 236.59754 98.325963 
L 237.472619 89.162822 
L 238.347699 95.48947 
L 239.222779 88.404179 
L 240.097858 89.564923 
L 240.972938 88.273447 
L 241.848018 88.778549 
L 242.723097 94.796193 
L 243.598177 93.28683 
L 244.473257 88.077348 
L 245.348336 90.153218 
L 246.223416 92.528187 
L 247.098495 96.876024 
L 247.973575 95.354776 
L 248.848655 91.636831 
L 249.723734 86.752199 
L 250.598814 83.796858 
L 251.473894 91.094094 
L 252.348973 94.277226 
L 253.224053 89.899676 
L 254.099133 84.464385 
L 254.974212 87.819845 
L 255.849292 85.401299 
L 256.724371 94.576325 
L 257.599451 82.661865 
L 258.474531 90.127467 
L 259.34961 84.706041 
L 260.22469 86.896797 
L 261.09977 91.383289 
L 261.974849 83.135274 
L 262.849929 86.484792 
L 263.725009 86.233232 
L 264.600088 85.169547 
L 265.475168 88.495295 
L 267.225327 79.910545 
L 268.100407 86.443195 
L 268.975486 79.316308 
L 269.850566 79.795659 
L 270.725646 84.605021 
L 271.600725 83.856282 
L 272.475805 85.85292 
L 274.225964 81.112886 
L 275.101044 83.35118 
L 275.976123 77.34542 
L 276.851203 82.32513 
L 277.726283 79.141998 
L 278.601362 83.444277 
L 279.476442 80.233414 
L 280.351522 81.570448 
L 281.226601 76.846261 
L 282.101681 81.992357 
L 282.976761 80.920749 
L 283.85184 81.013846 
L 284.72692 77.388998 
L 285.602 81.32483 
L 286.477079 80.383954 
L 287.352159 80.986115 
L 288.227238 82.327111 
L 289.102318 80.152202 
L 289.977398 79.514387 
L 290.852477 74.893201 
L 291.727557 75.315109 
L 292.602637 75.911327 
L 293.477716 77.711867 
L 294.352796 80.938576 
L 295.227876 82.537075 
L 296.102955 71.397104 
L 296.978035 76.776933 
L 297.853114 84.648598 
L 298.728194 78.052563 
L 299.603274 79.969969 
L 301.353433 70.277957 
L 302.228513 77.997101 
L 303.103592 81.190137 
L 303.978672 67.391943 
L 304.853752 75.86775 
L 305.728831 72.21319 
L 306.603911 80.883114 
L 307.47899 72.680657 
L 308.35407 78.110006 
L 309.22915 80.076932 
L 310.104229 78.484375 
L 311.854389 68.150587 
L 312.729468 74.134557 
L 313.604548 73.823573 
L 314.479628 75.786537 
L 315.354707 75.307186 
L 316.229787 73.817631 
L 317.104866 75.978674 
L 317.979946 73.676995 
L 318.855026 69.297465 
L 319.730105 76.806645 
L 320.605185 75.939058 
L 321.480265 72.557847 
L 322.355344 74.827834 
L 323.230424 70.297764 
L 324.105504 69.917452 
L 324.980583 66.595665 
L 325.855663 70.323515 
L 326.730742 74.938759 
L 327.605822 71.71205 
L 328.480902 65.900407 
L 329.355981 73.229336 
L 330.231061 66.627358 
L 331.106141 74.144461 
L 331.98122 68.382339 
L 332.8563 70.069973 
L 333.73138 70.052146 
L 334.606459 68.986481 
L 335.481539 66.5818 
L 336.356618 72.223094 
L 337.231698 70.513671 
L 338.106778 65.391344 
L 338.981857 80.193798 
L 339.856937 66.666974 
L 340.732017 68.655688 
L 341.607096 67.90893 
L 342.482176 60.536424 
L 343.357256 60.708753 
L 344.232335 66.777898 
L 345.107415 65.312112 
L 345.982494 68.542783 
L 346.857574 69.652026 
L 347.732654 73.54032 
L 348.607733 68.887441 
L 349.482813 69.804547 
L 350.357893 62.669737 
L 351.232972 66.869014 
L 352.108052 62.572678 
L 352.983132 68.051547 
L 353.858211 62.980721 
L 354.733291 61.205932 
L 355.60837 64.282101 
L 356.48345 64.749568 
L 357.35853 63.782941 
L 358.233609 63.281801 
L 359.108689 61.831862 
L 359.983769 67.738582 
L 360.858848 61.532762 
L 361.733928 63.462053 
L 362.609008 68.18426 
L 363.484087 61.481262 
L 364.359167 65.28042 
L 365.234247 68.087201 
L 366.109326 58.868598 
L 366.984406 68.663612 
L 367.859485 66.205449 
L 368.734565 64.902089 
L 369.609645 62.717276 
L 370.484724 62.374599 
L 371.359804 59.132043 
L 372.234884 63.85425 
L 373.109963 67.538522 
L 373.985043 61.330722 
L 374.860123 66.599627 
L 375.735202 64.810972 
L 376.610282 66.791764 
L 377.485361 59.864936 
L 378.360441 64.008752 
L 379.235521 62.875739 
L 380.1106 59.506413 
L 380.98568 53.568 
L 382.735839 67.195845 
L 383.610919 60.593867 
L 384.485999 60.118477 
L 385.361078 63.63042 
L 386.236158 61.580301 
L 387.111237 53.900773 
L 387.986317 69.174656 
L 388.861397 64.323697 
L 389.736476 56.351012 
L 390.611556 54.659416 
L 391.486636 55.806294 
L 392.361715 55.338828 
L 393.236795 55.14471 
L 394.111875 64.462353 
L 394.986954 56.406474 
L 395.862034 59.371719 
L 396.737113 57.17304 
L 397.612193 61.108873 
L 398.487273 57.862356 
L 398.487273 57.862356 
" style="fill:none;stroke:#1f77b4;stroke-linecap:square;stroke-width:1.5;"/>
   </g>
   <g id="line2d_21">
    <path clip-path="url(#p9159b2148d)" d="M 73.832727 279.19599 
L 74.707807 255.426493 
L 75.582887 242.590965 
L 77.333046 207.352685 
L 79.083205 180.43373 
L 79.958285 169.232354 
L 81.708444 142.521382 
L 82.583524 132.835312 
L 83.458603 130.993176 
L 84.333683 197.636903 
L 85.208763 167.122811 
L 86.083842 161.358708 
L 86.958922 151.375519 
L 87.834001 145.076603 
L 88.709081 146.205654 
L 90.45924 136.073906 
L 91.33432 148.344908 
L 92.2094 122.109326 
L 93.084479 121.485377 
L 93.959559 113.166053 
L 94.834639 113.997985 
L 95.709718 106.213475 
L 96.584798 100.984185 
L 97.459877 100.152253 
L 98.334957 98.636947 
L 99.210037 93.021404 
L 100.085116 90.198776 
L 100.960196 89.723386 
L 101.835276 87.435572 
L 103.585435 84.850639 
L 104.460515 85.236893 
L 105.335594 128.467666 
L 106.210674 118.187359 
L 107.085753 121.485377 
L 107.960833 112.155849 
L 108.835913 115.750985 
L 109.710992 110.135442 
L 110.586072 111.739883 
L 111.461152 113.611731 
L 112.336231 98.369541 
L 113.211311 104.163356 
L 114.086391 100.657355 
L 114.96147 103.004593 
L 115.83655 102.588626 
L 116.71163 95.041811 
L 117.586709 93.675065 
L 118.461789 97.894151 
L 119.336868 96.111438 
L 120.211948 91.862641 
L 121.087028 94.150455 
L 121.962107 90.228488 
L 122.837187 87.792114 
L 123.712267 90.317623 
L 124.587346 85.563724 
L 125.462426 83.781012 
L 126.337506 85.118046 
L 127.212585 84.464385 
L 128.087665 84.137554 
L 128.962744 82.859944 
L 129.837824 79.235095 
L 130.712904 80.958384 
L 131.587983 79.710485 
L 132.463063 77.571231 
L 133.338143 77.184976 
L 134.213222 76.382756 
L 135.088302 76.204484 
L 135.963382 74.184077 
L 136.838461 74.035518 
L 137.713541 73.708687 
L 138.58862 73.084738 
L 139.4637 72.876755 
L 140.33878 72.104246 
L 142.088939 71.153466 
L 142.964019 71.21289 
L 143.839098 70.559229 
L 146.464337 70.380958 
L 147.339417 102.915457 
L 149.089576 90.436471 
L 149.964656 95.457777 
L 150.839735 91.06042 
L 151.714815 93.556217 
L 152.589895 92.427166 
L 153.464974 92.159759 
L 154.340054 89.931369 
L 155.215134 85.65286 
L 156.090213 85.65286 
L 156.965293 86.573928 
L 157.840372 86.336233 
L 158.715452 85.682571 
L 159.590532 85.355741 
L 161.340691 88.089233 
L 162.215771 90.971285 
L 163.09085 84.167266 
L 163.96593 85.118046 
L 164.84101 80.928672 
L 165.716089 83.365046 
L 166.591169 81.106943 
L 167.466248 82.117147 
L 168.341328 81.136655 
L 169.216408 83.721588 
L 170.091487 82.087435 
L 170.966567 83.127351 
L 171.841647 77.660366 
L 172.716726 82.117147 
L 173.591806 79.235095 
L 174.466886 79.532214 
L 175.341965 80.185875 
L 176.217045 77.452383 
L 177.092124 80.869248 
L 177.967204 80.215587 
L 178.842284 76.76901 
L 179.717363 76.471891 
L 180.592443 77.482095 
L 181.467523 75.729095 
L 182.342602 79.413367 
L 183.217682 77.392959 
L 184.092762 76.29362 
L 184.967841 77.303824 
L 185.842921 74.926874 
L 186.718 75.788518 
L 187.59308 75.580535 
L 188.46816 75.223993 
L 189.343239 74.718891 
L 191.093399 76.29362 
L 191.968478 73.91667 
L 192.843558 73.144162 
L 193.718638 72.668772 
L 194.593717 73.322433 
L 195.468797 72.757907 
L 196.343877 73.44128 
L 197.218956 72.074534 
L 198.094036 71.480297 
L 198.969115 73.768111 
L 199.844195 69.45989 
L 200.719275 70.024415 
L 201.594354 70.856348 
L 202.469434 69.370754 
L 203.344514 69.905568 
L 204.219593 69.638161 
L 205.094673 69.133059 
L 205.969753 69.608449 
L 206.844832 69.638161 
L 207.719912 67.736601 
L 208.594991 69.846144 
L 209.470071 68.122855 
L 210.345151 68.865652 
L 211.22023 67.736601 
L 212.97039 67.261211 
L 213.845469 67.439482 
L 214.720549 67.498906 
L 215.595629 66.696686 
L 216.470708 67.498906 
L 217.345788 67.528618 
L 218.220867 66.904669 
L 219.095947 66.785821 
L 219.971027 66.785821 
L 220.846106 66.191584 
L 221.721186 65.775618 
L 222.596266 66.934381 
L 223.471345 65.983601 
L 224.346425 65.894465 
L 225.221505 66.369855 
L 226.096584 66.993804 
L 226.971664 66.251008 
L 227.846743 66.13216 
L 228.721823 65.65677 
L 229.596903 66.310431 
L 230.471982 65.953889 
L 231.347062 89.188572 
L 232.222142 84.434673 
L 233.097221 82.354842 
L 233.972301 87.584131 
L 234.847381 84.07813 
L 235.72246 85.385453 
L 236.59754 81.820028 
L 237.472619 84.286114 
L 238.347699 85.5043 
L 239.222779 84.167266 
L 240.097858 83.691876 
L 240.972938 82.622249 
L 241.848018 82.741096 
L 243.598177 80.215587 
L 244.473257 88.35664 
L 245.348336 80.007604 
L 246.223416 81.285215 
L 247.098495 82.117147 
L 247.973575 79.175672 
L 248.848655 81.463486 
L 249.723734 83.305622 
L 250.598814 80.661265 
L 251.473894 81.968588 
L 252.348973 79.14596 
L 253.224053 79.264807 
L 254.099133 81.136655 
L 254.974212 78.640858 
L 255.849292 82.295418 
L 256.724371 80.780113 
L 257.599451 80.334435 
L 258.474531 80.839536 
L 259.34961 78.67057 
L 260.22469 80.809825 
L 261.09977 78.848841 
L 261.974849 79.651062 
L 262.849929 79.205384 
L 263.725009 80.245299 
L 264.600088 80.037316 
L 265.475168 80.542418 
L 266.350247 79.116248 
L 267.225327 78.016909 
L 268.100407 78.224892 
L 268.975486 77.630654 
L 269.850566 75.877654 
L 270.725646 78.9974 
L 271.600725 78.224892 
L 272.475805 76.323332 
L 273.350885 80.809825 
L 274.225964 77.184976 
L 275.101044 76.501603 
L 275.976123 76.590739 
L 276.851203 76.323332 
L 277.726283 78.284315 
L 278.601362 78.403163 
L 279.476442 76.947281 
L 280.351522 76.323332 
L 282.101681 79.175672 
L 282.976761 80.364146 
L 283.85184 78.314027 
L 284.72692 76.917569 
L 286.477079 76.76901 
L 287.352159 76.798722 
L 288.227238 75.907366 
L 289.102318 77.600942 
L 289.977398 75.4914 
L 290.852477 77.71979 
L 291.727557 76.679874 
L 292.602637 76.323332 
L 293.477716 77.898061 
L 294.352796 78.224892 
L 295.227876 75.34284 
L 296.102955 75.34284 
L 296.978035 76.204484 
L 297.853114 74.808027 
L 298.728194 75.075433 
L 299.603274 75.580535 
L 300.478353 75.134857 
L 301.353433 75.402264 
L 302.228513 76.620451 
L 303.103592 74.124653 
L 303.978672 75.996501 
L 304.853752 75.699383 
L 305.728831 72.817331 
L 306.603911 73.381857 
L 307.47899 74.778315 
L 308.35407 73.827535 
L 309.22915 73.411569 
L 310.104229 74.421772 
L 310.979309 75.045722 
L 311.854389 73.738399 
L 312.729468 75.877654 
L 313.604548 75.402264 
L 315.354707 73.797823 
L 316.229787 74.451484 
L 317.104866 72.728196 
L 317.979946 75.223993 
L 318.855026 73.203585 
L 319.730105 74.986298 
L 320.605185 73.263009 
L 322.355344 73.768111 
L 323.230424 74.273213 
L 324.105504 73.560128 
L 324.980583 74.124653 
L 326.730742 71.064331 
L 327.605822 74.629755 
L 328.480902 73.708687 
L 329.355981 74.54062 
L 330.231061 73.58984 
L 331.106141 70.945483 
L 331.98122 71.747704 
L 332.8563 72.817331 
L 333.73138 73.44128 
L 334.606459 71.896263 
L 335.481539 71.985399 
L 336.356618 72.460789 
L 337.231698 71.539721 
L 338.106778 71.836839 
L 338.981857 70.796924 
L 339.856937 71.836839 
L 340.732017 71.510009 
L 341.607096 71.391161 
L 342.482176 71.599144 
L 343.357256 70.470093 
L 344.232335 70.291822 
L 345.107415 72.490501 
L 345.982494 71.420873 
L 346.857574 72.906467 
L 347.732654 70.648365 
L 348.607733 71.836839 
L 349.482813 70.024415 
L 350.357893 71.123754 
L 351.232972 70.529517 
L 352.108052 70.796924 
L 352.983132 70.915771 
L 353.858211 69.93528 
L 354.733291 70.648365 
L 355.60837 69.816432 
L 356.48345 69.192483 
L 357.35853 68.776517 
L 358.233609 70.856348 
L 359.108689 69.667873 
L 359.983769 69.519313 
L 360.858848 69.816432 
L 361.733928 70.351246 
L 362.609008 70.113551 
L 363.484087 69.549025 
L 364.359167 69.31133 
L 365.234247 69.400466 
L 366.109326 69.103347 
L 366.984406 68.687381 
L 367.859485 69.489602 
L 368.734565 68.83594 
L 369.609645 69.341042 
L 370.484724 69.281618 
L 371.359804 69.638161 
L 372.234884 69.014212 
L 373.109963 69.103347 
L 373.985043 68.152567 
L 374.860123 69.014212 
L 375.735202 69.519313 
L 376.610282 68.83594 
L 377.485361 69.133059 
L 378.360441 69.103347 
L 379.235521 68.83594 
L 380.1106 69.073635 
L 380.98568 69.043923 
L 381.86076 69.31133 
L 382.735839 69.727297 
L 383.610919 69.816432 
L 384.485999 68.657669 
L 385.361078 69.400466 
L 386.236158 67.944584 
L 387.111237 68.865652 
L 387.986317 68.925076 
L 388.861397 68.598245 
L 389.736476 68.895364 
L 390.611556 68.954788 
L 391.486636 68.538822 
L 392.361715 68.390262 
L 393.236795 68.36055 
L 394.111875 69.073635 
L 394.986954 69.014212 
L 395.862034 68.776517 
L 396.737113 68.301127 
L 397.612193 69.697585 
L 398.487273 68.419974 
L 398.487273 68.419974 
" style="fill:none;stroke:#ff7f0e;stroke-linecap:square;stroke-width:1.5;"/>
   </g>
   <g id="patch_3">
    <path d="M 57.6 307.584 
L 57.6 41.472 
" style="fill:none;stroke:#000000;stroke-linecap:square;stroke-linejoin:miter;stroke-width:0.8;"/>
   </g>
   <g id="patch_4">
    <path d="M 414.72 307.584 
L 414.72 41.472 
" style="fill:none;stroke:#000000;stroke-linecap:square;stroke-linejoin:miter;stroke-width:0.8;"/>
   </g>
   <g id="patch_5">
    <path d="M 57.6 307.584 
L 414.72 307.584 
" style="fill:none;stroke:#000000;stroke-linecap:square;stroke-linejoin:miter;stroke-width:0.8;"/>
   </g>
   <g id="patch_6">
    <path d="M 57.6 41.472 
L 414.72 41.472 
" style="fill:none;stroke:#000000;stroke-linecap:square;stroke-linejoin:miter;stroke-width:0.8;"/>
   </g>
   <g id="text_22">
    <!-- Training and Validation Accuracy -->
    <g transform="translate(138.4575 35.472)scale(0.12 -0.12)">
     <defs>
      <path d="M -19 4666 
L 3928 4666 
L 3928 4134 
L 2272 4134 
L 2272 0 
L 1638 0 
L 1638 4134 
L -19 4134 
L -19 4666 
z
" id="DejaVuSans-54" transform="scale(0.015625)"/>
      <path d="M 603 3500 
L 1178 3500 
L 1178 0 
L 603 0 
L 603 3500 
z
M 603 4863 
L 1178 4863 
L 1178 4134 
L 603 4134 
L 603 4863 
z
" id="DejaVuSans-69" transform="scale(0.015625)"/>
      <path d="M 3513 2113 
L 3513 0 
L 2938 0 
L 2938 2094 
Q 2938 2591 2744 2837 
Q 2550 3084 2163 3084 
Q 1697 3084 1428 2787 
Q 1159 2491 1159 1978 
L 1159 0 
L 581 0 
L 581 3500 
L 1159 3500 
L 1159 2956 
Q 1366 3272 1645 3428 
Q 1925 3584 2291 3584 
Q 2894 3584 3203 3211 
Q 3513 2838 3513 2113 
z
" id="DejaVuSans-6e" transform="scale(0.015625)"/>
      <path d="M 2906 1791 
Q 2906 2416 2648 2759 
Q 2391 3103 1925 3103 
Q 1463 3103 1205 2759 
Q 947 2416 947 1791 
Q 947 1169 1205 825 
Q 1463 481 1925 481 
Q 2391 481 2648 825 
Q 2906 1169 2906 1791 
z
M 3481 434 
Q 3481 -459 3084 -895 
Q 2688 -1331 1869 -1331 
Q 1566 -1331 1297 -1286 
Q 1028 -1241 775 -1147 
L 775 -588 
Q 1028 -725 1275 -790 
Q 1522 -856 1778 -856 
Q 2344 -856 2625 -561 
Q 2906 -266 2906 331 
L 2906 616 
Q 2728 306 2450 153 
Q 2172 0 1784 0 
Q 1141 0 747 490 
Q 353 981 353 1791 
Q 353 2603 747 3093 
Q 1141 3584 1784 3584 
Q 2172 3584 2450 3431 
Q 2728 3278 2906 2969 
L 2906 3500 
L 3481 3500 
L 3481 434 
z
" id="DejaVuSans-67" transform="scale(0.015625)"/>
      <path id="DejaVuSans-20" transform="scale(0.015625)"/>
      <path d="M 2906 2969 
L 2906 4863 
L 3481 4863 
L 3481 0 
L 2906 0 
L 2906 525 
Q 2725 213 2448 61 
Q 2172 -91 1784 -91 
Q 1150 -91 751 415 
Q 353 922 353 1747 
Q 353 2572 751 3078 
Q 1150 3584 1784 3584 
Q 2172 3584 2448 3432 
Q 2725 3281 2906 2969 
z
M 947 1747 
Q 947 1113 1208 752 
Q 1469 391 1925 391 
Q 2381 391 2643 752 
Q 2906 1113 2906 1747 
Q 2906 2381 2643 2742 
Q 2381 3103 1925 3103 
Q 1469 3103 1208 2742 
Q 947 2381 947 1747 
z
" id="DejaVuSans-64" transform="scale(0.015625)"/>
      <path d="M 1831 0 
L 50 4666 
L 709 4666 
L 2188 738 
L 3669 4666 
L 4325 4666 
L 2547 0 
L 1831 0 
z
" id="DejaVuSans-56" transform="scale(0.015625)"/>
      <path d="M 603 4863 
L 1178 4863 
L 1178 0 
L 603 0 
L 603 4863 
z
" id="DejaVuSans-6c" transform="scale(0.015625)"/>
      <path d="M 1172 4494 
L 1172 3500 
L 2356 3500 
L 2356 3053 
L 1172 3053 
L 1172 1153 
Q 1172 725 1289 603 
Q 1406 481 1766 481 
L 2356 481 
L 2356 0 
L 1766 0 
Q 1100 0 847 248 
Q 594 497 594 1153 
L 594 3053 
L 172 3053 
L 172 3500 
L 594 3500 
L 594 4494 
L 1172 4494 
z
" id="DejaVuSans-74" transform="scale(0.015625)"/>
     </defs>
     <use xlink:href="#DejaVuSans-54"/>
     <use x="46.333984" xlink:href="#DejaVuSans-72"/>
     <use x="87.447266" xlink:href="#DejaVuSans-61"/>
     <use x="148.726562" xlink:href="#DejaVuSans-69"/>
     <use x="176.509766" xlink:href="#DejaVuSans-6e"/>
     <use x="239.888672" xlink:href="#DejaVuSans-69"/>
     <use x="267.671875" xlink:href="#DejaVuSans-6e"/>
     <use x="331.050781" xlink:href="#DejaVuSans-67"/>
     <use x="394.527344" xlink:href="#DejaVuSans-20"/>
     <use x="426.314453" xlink:href="#DejaVuSans-61"/>
     <use x="487.59375" xlink:href="#DejaVuSans-6e"/>
     <use x="550.972656" xlink:href="#DejaVuSans-64"/>
     <use x="614.449219" xlink:href="#DejaVuSans-20"/>
     <use x="646.236328" xlink:href="#DejaVuSans-56"/>
     <use x="706.894531" xlink:href="#DejaVuSans-61"/>
     <use x="768.173828" xlink:href="#DejaVuSans-6c"/>
     <use x="795.957031" xlink:href="#DejaVuSans-69"/>
     <use x="823.740234" xlink:href="#DejaVuSans-64"/>
     <use x="887.216797" xlink:href="#DejaVuSans-61"/>
     <use x="948.496094" xlink:href="#DejaVuSans-74"/>
     <use x="987.705078" xlink:href="#DejaVuSans-69"/>
     <use x="1015.488281" xlink:href="#DejaVuSans-6f"/>
     <use x="1076.669922" xlink:href="#DejaVuSans-6e"/>
     <use x="1140.048828" xlink:href="#DejaVuSans-20"/>
     <use x="1171.835938" xlink:href="#DejaVuSans-41"/>
     <use x="1238.494141" xlink:href="#DejaVuSans-63"/>
     <use x="1293.474609" xlink:href="#DejaVuSans-63"/>
     <use x="1348.455078" xlink:href="#DejaVuSans-75"/>
     <use x="1411.833984" xlink:href="#DejaVuSans-72"/>
     <use x="1452.947266" xlink:href="#DejaVuSans-61"/>
     <use x="1514.226562" xlink:href="#DejaVuSans-63"/>
     <use x="1569.207031" xlink:href="#DejaVuSans-79"/>
    </g>
   </g>
   <g id="legend_1">
    <g id="patch_7">
     <path d="M 277.504375 302.584 
L 407.72 302.584 
Q 409.72 302.584 409.72 300.584 
L 409.72 272.22775 
Q 409.72 270.22775 407.72 270.22775 
L 277.504375 270.22775 
Q 275.504375 270.22775 275.504375 272.22775 
L 275.504375 300.584 
Q 275.504375 302.584 277.504375 302.584 
z
" style="fill:#ffffff;opacity:0.8;stroke:#cccccc;stroke-linejoin:miter;"/>
    </g>
    <g id="line2d_22">
     <path d="M 279.504375 278.326187 
L 299.504375 278.326187 
" style="fill:none;stroke:#1f77b4;stroke-linecap:square;stroke-width:1.5;"/>
    </g>
    <g id="line2d_23"/>
    <g id="text_23">
     <!-- Train Accuracy -->
     <g transform="translate(307.504375 281.826187)scale(0.1 -0.1)">
      <use xlink:href="#DejaVuSans-54"/>
      <use x="46.333984" xlink:href="#DejaVuSans-72"/>
      <use x="87.447266" xlink:href="#DejaVuSans-61"/>
      <use x="148.726562" xlink:href="#DejaVuSans-69"/>
      <use x="176.509766" xlink:href="#DejaVuSans-6e"/>
      <use x="239.888672" xlink:href="#DejaVuSans-20"/>
      <use x="271.675781" xlink:href="#DejaVuSans-41"/>
      <use x="338.333984" xlink:href="#DejaVuSans-63"/>
      <use x="393.314453" xlink:href="#DejaVuSans-63"/>
      <use x="448.294922" xlink:href="#DejaVuSans-75"/>
      <use x="511.673828" xlink:href="#DejaVuSans-72"/>
      <use x="552.787109" xlink:href="#DejaVuSans-61"/>
      <use x="614.066406" xlink:href="#DejaVuSans-63"/>
      <use x="669.046875" xlink:href="#DejaVuSans-79"/>
     </g>
    </g>
    <g id="line2d_24">
     <path d="M 279.504375 293.004312 
L 299.504375 293.004312 
" style="fill:none;stroke:#ff7f0e;stroke-linecap:square;stroke-width:1.5;"/>
    </g>
    <g id="line2d_25"/>
    <g id="text_24">
     <!-- Validation Accuracy -->
     <g transform="translate(307.504375 296.504312)scale(0.1 -0.1)">
      <use xlink:href="#DejaVuSans-56"/>
      <use x="60.658203" xlink:href="#DejaVuSans-61"/>
      <use x="121.9375" xlink:href="#DejaVuSans-6c"/>
      <use x="149.720703" xlink:href="#DejaVuSans-69"/>
      <use x="177.503906" xlink:href="#DejaVuSans-64"/>
      <use x="240.980469" xlink:href="#DejaVuSans-61"/>
      <use x="302.259766" xlink:href="#DejaVuSans-74"/>
      <use x="341.46875" xlink:href="#DejaVuSans-69"/>
      <use x="369.251953" xlink:href="#DejaVuSans-6f"/>
      <use x="430.433594" xlink:href="#DejaVuSans-6e"/>
      <use x="493.8125" xlink:href="#DejaVuSans-20"/>
      <use x="525.599609" xlink:href="#DejaVuSans-41"/>
      <use x="592.257812" xlink:href="#DejaVuSans-63"/>
      <use x="647.238281" xlink:href="#DejaVuSans-63"/>
      <use x="702.21875" xlink:href="#DejaVuSans-75"/>
      <use x="765.597656" xlink:href="#DejaVuSans-72"/>
      <use x="806.710938" xlink:href="#DejaVuSans-61"/>
      <use x="867.990234" xlink:href="#DejaVuSans-63"/>
      <use x="922.970703" xlink:href="#DejaVuSans-79"/>
     </g>
    </g>
   </g>
  </g>
 </g>
 <defs>
  <clipPath id="p9159b2148d">
   <rect height="266.112" width="357.12" x="57.6" y="41.472"/>
  </clipPath>
 </defs>
</svg>
