<?xml version="1.0" encoding="utf-8" standalone="no"?>
<!DOCTYPE svg PUBLIC "-//W3C//DTD SVG 1.1//EN"
  "http://www.w3.org/Graphics/SVG/1.1/DTD/svg11.dtd">
<svg height="345.6pt" version="1.1" viewBox="0 0 460.8 345.6" width="460.8pt" xmlns="http://www.w3.org/2000/svg" xmlns:xlink="http://www.w3.org/1999/xlink">
 <metadata>
  <rdf:RDF xmlns:cc="http://creativecommons.org/ns#" xmlns:dc="http://purl.org/dc/elements/1.1/" xmlns:rdf="http://www.w3.org/1999/02/22-rdf-syntax-ns#">
   <cc:Work>
    <dc:type rdf:resource="http://purl.org/dc/dcmitype/StillImage"/>
    <dc:date>2023-08-22T00:16:25.118857</dc:date>
    <dc:format>image/svg+xml</dc:format>
    <dc:creator>
     <cc:Agent>
      <dc:title>Matplotlib v3.4.3, https://matplotlib.org/</dc:title>
     </cc:Agent>
    </dc:creator>
   </cc:Work>
  </rdf:RDF>
 </metadata>
 <defs>
  <style type="text/css">*{stroke-linecap:butt;stroke-linejoin:round;}</style>
 </defs>
 <g id="figure_1">
  <g id="patch_1">
   <path d="M 0 345.6 
L 460.8 345.6 
L 460.8 0 
L 0 0 
z
" style="fill:#ffffff;"/>
  </g>
  <g id="axes_1">
   <g id="patch_2">
    <path d="M 57.6 307.584 
L 414.72 307.584 
L 414.72 41.472 
L 57.6 41.472 
z
" style="fill:#ffffff;"/>
   </g>
   <g id="matplotlib.axis_1">
    <g id="xtick_1">
     <g id="line2d_1">
      <defs>
       <path d="M 0 0 
L 0 3.5 
" id="mfaacbc6b7b" style="stroke:#000000;stroke-width:0.8;"/>
      </defs>
      <g>
       <use style="stroke:#000000;stroke-width:0.8;" x="73.832727" xlink:href="#mfaacbc6b7b" y="307.584"/>
      </g>
     </g>
     <g id="text_1">
      <!-- 1 -->
      <g transform="translate(70.651477 322.182437)scale(0.1 -0.1)">
       <defs>
        <path d="M 794 531 
L 1825 531 
L 1825 4091 
L 703 3866 
L 703 4441 
L 1819 4666 
L 2450 4666 
L 2450 531 
L 3481 531 
L 3481 0 
L 794 0 
L 794 531 
z
" id="DejaVuSans-31" transform="scale(0.015625)"/>
       </defs>
       <use xlink:href="#DejaVuSans-31"/>
      </g>
     </g>
    </g>
    <g id="xtick_2">
     <g id="line2d_2">
      <g>
       <use style="stroke:#000000;stroke-width:0.8;" x="109.555234" xlink:href="#mfaacbc6b7b" y="307.584"/>
      </g>
     </g>
     <g id="text_2">
      <!-- 35 -->
      <g transform="translate(103.192734 322.182437)scale(0.1 -0.1)">
       <defs>
        <path d="M 2597 2516 
Q 3050 2419 3304 2112 
Q 3559 1806 3559 1356 
Q 3559 666 3084 287 
Q 2609 -91 1734 -91 
Q 1441 -91 1130 -33 
Q 819 25 488 141 
L 488 750 
Q 750 597 1062 519 
Q 1375 441 1716 441 
Q 2309 441 2620 675 
Q 2931 909 2931 1356 
Q 2931 1769 2642 2001 
Q 2353 2234 1838 2234 
L 1294 2234 
L 1294 2753 
L 1863 2753 
Q 2328 2753 2575 2939 
Q 2822 3125 2822 3475 
Q 2822 3834 2567 4026 
Q 2313 4219 1838 4219 
Q 1578 4219 1281 4162 
Q 984 4106 628 3988 
L 628 4550 
Q 988 4650 1302 4700 
Q 1616 4750 1894 4750 
Q 2613 4750 3031 4423 
Q 3450 4097 3450 3541 
Q 3450 3153 3228 2886 
Q 3006 2619 2597 2516 
z
" id="DejaVuSans-33" transform="scale(0.015625)"/>
        <path d="M 691 4666 
L 3169 4666 
L 3169 4134 
L 1269 4134 
L 1269 2991 
Q 1406 3038 1543 3061 
Q 1681 3084 1819 3084 
Q 2600 3084 3056 2656 
Q 3513 2228 3513 1497 
Q 3513 744 3044 326 
Q 2575 -91 1722 -91 
Q 1428 -91 1123 -41 
Q 819 9 494 109 
L 494 744 
Q 775 591 1075 516 
Q 1375 441 1709 441 
Q 2250 441 2565 725 
Q 2881 1009 2881 1497 
Q 2881 1984 2565 2268 
Q 2250 2553 1709 2553 
Q 1456 2553 1204 2497 
Q 953 2441 691 2322 
L 691 4666 
z
" id="DejaVuSans-35" transform="scale(0.015625)"/>
       </defs>
       <use xlink:href="#DejaVuSans-33"/>
       <use x="63.623047" xlink:href="#DejaVuSans-35"/>
      </g>
     </g>
    </g>
    <g id="xtick_3">
     <g id="line2d_3">
      <g>
       <use style="stroke:#000000;stroke-width:0.8;" x="145.277741" xlink:href="#mfaacbc6b7b" y="307.584"/>
      </g>
     </g>
     <g id="text_3">
      <!-- 69 -->
      <g transform="translate(138.915241 322.182437)scale(0.1 -0.1)">
       <defs>
        <path d="M 2113 2584 
Q 1688 2584 1439 2293 
Q 1191 2003 1191 1497 
Q 1191 994 1439 701 
Q 1688 409 2113 409 
Q 2538 409 2786 701 
Q 3034 994 3034 1497 
Q 3034 2003 2786 2293 
Q 2538 2584 2113 2584 
z
M 3366 4563 
L 3366 3988 
Q 3128 4100 2886 4159 
Q 2644 4219 2406 4219 
Q 1781 4219 1451 3797 
Q 1122 3375 1075 2522 
Q 1259 2794 1537 2939 
Q 1816 3084 2150 3084 
Q 2853 3084 3261 2657 
Q 3669 2231 3669 1497 
Q 3669 778 3244 343 
Q 2819 -91 2113 -91 
Q 1303 -91 875 529 
Q 447 1150 447 2328 
Q 447 3434 972 4092 
Q 1497 4750 2381 4750 
Q 2619 4750 2861 4703 
Q 3103 4656 3366 4563 
z
" id="DejaVuSans-36" transform="scale(0.015625)"/>
        <path d="M 703 97 
L 703 672 
Q 941 559 1184 500 
Q 1428 441 1663 441 
Q 2288 441 2617 861 
Q 2947 1281 2994 2138 
Q 2813 1869 2534 1725 
Q 2256 1581 1919 1581 
Q 1219 1581 811 2004 
Q 403 2428 403 3163 
Q 403 3881 828 4315 
Q 1253 4750 1959 4750 
Q 2769 4750 3195 4129 
Q 3622 3509 3622 2328 
Q 3622 1225 3098 567 
Q 2575 -91 1691 -91 
Q 1453 -91 1209 -44 
Q 966 3 703 97 
z
M 1959 2075 
Q 2384 2075 2632 2365 
Q 2881 2656 2881 3163 
Q 2881 3666 2632 3958 
Q 2384 4250 1959 4250 
Q 1534 4250 1286 3958 
Q 1038 3666 1038 3163 
Q 1038 2656 1286 2365 
Q 1534 2075 1959 2075 
z
" id="DejaVuSans-39" transform="scale(0.015625)"/>
       </defs>
       <use xlink:href="#DejaVuSans-36"/>
       <use x="63.623047" xlink:href="#DejaVuSans-39"/>
      </g>
     </g>
    </g>
    <g id="xtick_4">
     <g id="line2d_4">
      <g>
       <use style="stroke:#000000;stroke-width:0.8;" x="182.050909" xlink:href="#mfaacbc6b7b" y="307.584"/>
      </g>
     </g>
     <g id="text_4">
      <!-- 104 -->
      <g transform="translate(172.507159 322.182437)scale(0.1 -0.1)">
       <defs>
        <path d="M 2034 4250 
Q 1547 4250 1301 3770 
Q 1056 3291 1056 2328 
Q 1056 1369 1301 889 
Q 1547 409 2034 409 
Q 2525 409 2770 889 
Q 3016 1369 3016 2328 
Q 3016 3291 2770 3770 
Q 2525 4250 2034 4250 
z
M 2034 4750 
Q 2819 4750 3233 4129 
Q 3647 3509 3647 2328 
Q 3647 1150 3233 529 
Q 2819 -91 2034 -91 
Q 1250 -91 836 529 
Q 422 1150 422 2328 
Q 422 3509 836 4129 
Q 1250 4750 2034 4750 
z
" id="DejaVuSans-30" transform="scale(0.015625)"/>
        <path d="M 2419 4116 
L 825 1625 
L 2419 1625 
L 2419 4116 
z
M 2253 4666 
L 3047 4666 
L 3047 1625 
L 3713 1625 
L 3713 1100 
L 3047 1100 
L 3047 0 
L 2419 0 
L 2419 1100 
L 313 1100 
L 313 1709 
L 2253 4666 
z
" id="DejaVuSans-34" transform="scale(0.015625)"/>
       </defs>
       <use xlink:href="#DejaVuSans-31"/>
       <use x="63.623047" xlink:href="#DejaVuSans-30"/>
       <use x="127.246094" xlink:href="#DejaVuSans-34"/>
      </g>
     </g>
    </g>
    <g id="xtick_5">
     <g id="line2d_5">
      <g>
       <use style="stroke:#000000;stroke-width:0.8;" x="217.773416" xlink:href="#mfaacbc6b7b" y="307.584"/>
      </g>
     </g>
     <g id="text_5">
      <!-- 138 -->
      <g transform="translate(208.229666 322.182437)scale(0.1 -0.1)">
       <defs>
        <path d="M 2034 2216 
Q 1584 2216 1326 1975 
Q 1069 1734 1069 1313 
Q 1069 891 1326 650 
Q 1584 409 2034 409 
Q 2484 409 2743 651 
Q 3003 894 3003 1313 
Q 3003 1734 2745 1975 
Q 2488 2216 2034 2216 
z
M 1403 2484 
Q 997 2584 770 2862 
Q 544 3141 544 3541 
Q 544 4100 942 4425 
Q 1341 4750 2034 4750 
Q 2731 4750 3128 4425 
Q 3525 4100 3525 3541 
Q 3525 3141 3298 2862 
Q 3072 2584 2669 2484 
Q 3125 2378 3379 2068 
Q 3634 1759 3634 1313 
Q 3634 634 3220 271 
Q 2806 -91 2034 -91 
Q 1263 -91 848 271 
Q 434 634 434 1313 
Q 434 1759 690 2068 
Q 947 2378 1403 2484 
z
M 1172 3481 
Q 1172 3119 1398 2916 
Q 1625 2713 2034 2713 
Q 2441 2713 2670 2916 
Q 2900 3119 2900 3481 
Q 2900 3844 2670 4047 
Q 2441 4250 2034 4250 
Q 1625 4250 1398 4047 
Q 1172 3844 1172 3481 
z
" id="DejaVuSans-38" transform="scale(0.015625)"/>
       </defs>
       <use xlink:href="#DejaVuSans-31"/>
       <use x="63.623047" xlink:href="#DejaVuSans-33"/>
       <use x="127.246094" xlink:href="#DejaVuSans-38"/>
      </g>
     </g>
    </g>
    <g id="xtick_6">
     <g id="line2d_6">
      <g>
       <use style="stroke:#000000;stroke-width:0.8;" x="253.495922" xlink:href="#mfaacbc6b7b" y="307.584"/>
      </g>
     </g>
     <g id="text_6">
      <!-- 172 -->
      <g transform="translate(243.952172 322.182437)scale(0.1 -0.1)">
       <defs>
        <path d="M 525 4666 
L 3525 4666 
L 3525 4397 
L 1831 0 
L 1172 0 
L 2766 4134 
L 525 4134 
L 525 4666 
z
" id="DejaVuSans-37" transform="scale(0.015625)"/>
        <path d="M 1228 531 
L 3431 531 
L 3431 0 
L 469 0 
L 469 531 
Q 828 903 1448 1529 
Q 2069 2156 2228 2338 
Q 2531 2678 2651 2914 
Q 2772 3150 2772 3378 
Q 2772 3750 2511 3984 
Q 2250 4219 1831 4219 
Q 1534 4219 1204 4116 
Q 875 4013 500 3803 
L 500 4441 
Q 881 4594 1212 4672 
Q 1544 4750 1819 4750 
Q 2544 4750 2975 4387 
Q 3406 4025 3406 3419 
Q 3406 3131 3298 2873 
Q 3191 2616 2906 2266 
Q 2828 2175 2409 1742 
Q 1991 1309 1228 531 
z
" id="DejaVuSans-32" transform="scale(0.015625)"/>
       </defs>
       <use xlink:href="#DejaVuSans-31"/>
       <use x="63.623047" xlink:href="#DejaVuSans-37"/>
       <use x="127.246094" xlink:href="#DejaVuSans-32"/>
      </g>
     </g>
    </g>
    <g id="xtick_7">
     <g id="line2d_7">
      <g>
       <use style="stroke:#000000;stroke-width:0.8;" x="290.269091" xlink:href="#mfaacbc6b7b" y="307.584"/>
      </g>
     </g>
     <g id="text_7">
      <!-- 207 -->
      <g transform="translate(280.725341 322.182437)scale(0.1 -0.1)">
       <use xlink:href="#DejaVuSans-32"/>
       <use x="63.623047" xlink:href="#DejaVuSans-30"/>
       <use x="127.246094" xlink:href="#DejaVuSans-37"/>
      </g>
     </g>
    </g>
    <g id="xtick_8">
     <g id="line2d_8">
      <g>
       <use style="stroke:#000000;stroke-width:0.8;" x="325.991598" xlink:href="#mfaacbc6b7b" y="307.584"/>
      </g>
     </g>
     <g id="text_8">
      <!-- 241 -->
      <g transform="translate(316.447848 322.182437)scale(0.1 -0.1)">
       <use xlink:href="#DejaVuSans-32"/>
       <use x="63.623047" xlink:href="#DejaVuSans-34"/>
       <use x="127.246094" xlink:href="#DejaVuSans-31"/>
      </g>
     </g>
    </g>
    <g id="xtick_9">
     <g id="line2d_9">
      <g>
       <use style="stroke:#000000;stroke-width:0.8;" x="361.714104" xlink:href="#mfaacbc6b7b" y="307.584"/>
      </g>
     </g>
     <g id="text_9">
      <!-- 275 -->
      <g transform="translate(352.170354 322.182437)scale(0.1 -0.1)">
       <use xlink:href="#DejaVuSans-32"/>
       <use x="63.623047" xlink:href="#DejaVuSans-37"/>
       <use x="127.246094" xlink:href="#DejaVuSans-35"/>
      </g>
     </g>
    </g>
    <g id="xtick_10">
     <g id="line2d_10">
      <g>
       <use style="stroke:#000000;stroke-width:0.8;" x="398.487273" xlink:href="#mfaacbc6b7b" y="307.584"/>
      </g>
     </g>
     <g id="text_10">
      <!-- 310 -->
      <g transform="translate(388.943523 322.182437)scale(0.1 -0.1)">
       <use xlink:href="#DejaVuSans-33"/>
       <use x="63.623047" xlink:href="#DejaVuSans-31"/>
       <use x="127.246094" xlink:href="#DejaVuSans-30"/>
      </g>
     </g>
    </g>
    <g id="text_11">
     <!-- Epochs -->
     <g transform="translate(218.244375 335.860562)scale(0.1 -0.1)">
      <defs>
       <path d="M 628 4666 
L 3578 4666 
L 3578 4134 
L 1259 4134 
L 1259 2753 
L 3481 2753 
L 3481 2222 
L 1259 2222 
L 1259 531 
L 3634 531 
L 3634 0 
L 628 0 
L 628 4666 
z
" id="DejaVuSans-45" transform="scale(0.015625)"/>
       <path d="M 1159 525 
L 1159 -1331 
L 581 -1331 
L 581 3500 
L 1159 3500 
L 1159 2969 
Q 1341 3281 1617 3432 
Q 1894 3584 2278 3584 
Q 2916 3584 3314 3078 
Q 3713 2572 3713 1747 
Q 3713 922 3314 415 
Q 2916 -91 2278 -91 
Q 1894 -91 1617 61 
Q 1341 213 1159 525 
z
M 3116 1747 
Q 3116 2381 2855 2742 
Q 2594 3103 2138 3103 
Q 1681 3103 1420 2742 
Q 1159 2381 1159 1747 
Q 1159 1113 1420 752 
Q 1681 391 2138 391 
Q 2594 391 2855 752 
Q 3116 1113 3116 1747 
z
" id="DejaVuSans-70" transform="scale(0.015625)"/>
       <path d="M 1959 3097 
Q 1497 3097 1228 2736 
Q 959 2375 959 1747 
Q 959 1119 1226 758 
Q 1494 397 1959 397 
Q 2419 397 2687 759 
Q 2956 1122 2956 1747 
Q 2956 2369 2687 2733 
Q 2419 3097 1959 3097 
z
M 1959 3584 
Q 2709 3584 3137 3096 
Q 3566 2609 3566 1747 
Q 3566 888 3137 398 
Q 2709 -91 1959 -91 
Q 1206 -91 779 398 
Q 353 888 353 1747 
Q 353 2609 779 3096 
Q 1206 3584 1959 3584 
z
" id="DejaVuSans-6f" transform="scale(0.015625)"/>
       <path d="M 3122 3366 
L 3122 2828 
Q 2878 2963 2633 3030 
Q 2388 3097 2138 3097 
Q 1578 3097 1268 2742 
Q 959 2388 959 1747 
Q 959 1106 1268 751 
Q 1578 397 2138 397 
Q 2388 397 2633 464 
Q 2878 531 3122 666 
L 3122 134 
Q 2881 22 2623 -34 
Q 2366 -91 2075 -91 
Q 1284 -91 818 406 
Q 353 903 353 1747 
Q 353 2603 823 3093 
Q 1294 3584 2113 3584 
Q 2378 3584 2631 3529 
Q 2884 3475 3122 3366 
z
" id="DejaVuSans-63" transform="scale(0.015625)"/>
       <path d="M 3513 2113 
L 3513 0 
L 2938 0 
L 2938 2094 
Q 2938 2591 2744 2837 
Q 2550 3084 2163 3084 
Q 1697 3084 1428 2787 
Q 1159 2491 1159 1978 
L 1159 0 
L 581 0 
L 581 4863 
L 1159 4863 
L 1159 2956 
Q 1366 3272 1645 3428 
Q 1925 3584 2291 3584 
Q 2894 3584 3203 3211 
Q 3513 2838 3513 2113 
z
" id="DejaVuSans-68" transform="scale(0.015625)"/>
       <path d="M 2834 3397 
L 2834 2853 
Q 2591 2978 2328 3040 
Q 2066 3103 1784 3103 
Q 1356 3103 1142 2972 
Q 928 2841 928 2578 
Q 928 2378 1081 2264 
Q 1234 2150 1697 2047 
L 1894 2003 
Q 2506 1872 2764 1633 
Q 3022 1394 3022 966 
Q 3022 478 2636 193 
Q 2250 -91 1575 -91 
Q 1294 -91 989 -36 
Q 684 19 347 128 
L 347 722 
Q 666 556 975 473 
Q 1284 391 1588 391 
Q 1994 391 2212 530 
Q 2431 669 2431 922 
Q 2431 1156 2273 1281 
Q 2116 1406 1581 1522 
L 1381 1569 
Q 847 1681 609 1914 
Q 372 2147 372 2553 
Q 372 3047 722 3315 
Q 1072 3584 1716 3584 
Q 2034 3584 2315 3537 
Q 2597 3491 2834 3397 
z
" id="DejaVuSans-73" transform="scale(0.015625)"/>
      </defs>
      <use xlink:href="#DejaVuSans-45"/>
      <use x="63.183594" xlink:href="#DejaVuSans-70"/>
      <use x="126.660156" xlink:href="#DejaVuSans-6f"/>
      <use x="187.841797" xlink:href="#DejaVuSans-63"/>
      <use x="242.822266" xlink:href="#DejaVuSans-68"/>
      <use x="306.201172" xlink:href="#DejaVuSans-73"/>
     </g>
    </g>
   </g>
   <g id="matplotlib.axis_2">
    <g id="ytick_1">
     <g id="line2d_11">
      <defs>
       <path d="M 0 0 
L -3.5 0 
" id="m1e7a1a86e3" style="stroke:#000000;stroke-width:0.8;"/>
      </defs>
      <g>
       <use style="stroke:#000000;stroke-width:0.8;" x="57.6" xlink:href="#m1e7a1a86e3" y="254.906551"/>
      </g>
     </g>
     <g id="text_12">
      <!-- 20 -->
      <g transform="translate(37.875 258.70577)scale(0.1 -0.1)">
       <use xlink:href="#DejaVuSans-32"/>
       <use x="63.623047" xlink:href="#DejaVuSans-30"/>
      </g>
     </g>
    </g>
    <g id="ytick_2">
     <g id="line2d_12">
      <g>
       <use style="stroke:#000000;stroke-width:0.8;" x="57.6" xlink:href="#m1e7a1a86e3" y="198.069787"/>
      </g>
     </g>
     <g id="text_13">
      <!-- 40 -->
      <g transform="translate(37.875 201.869006)scale(0.1 -0.1)">
       <use xlink:href="#DejaVuSans-34"/>
       <use x="63.623047" xlink:href="#DejaVuSans-30"/>
      </g>
     </g>
    </g>
    <g id="ytick_3">
     <g id="line2d_13">
      <g>
       <use style="stroke:#000000;stroke-width:0.8;" x="57.6" xlink:href="#m1e7a1a86e3" y="141.233024"/>
      </g>
     </g>
     <g id="text_14">
      <!-- 60 -->
      <g transform="translate(37.875 145.032243)scale(0.1 -0.1)">
       <use xlink:href="#DejaVuSans-36"/>
       <use x="63.623047" xlink:href="#DejaVuSans-30"/>
      </g>
     </g>
    </g>
    <g id="ytick_4">
     <g id="line2d_14">
      <g>
       <use style="stroke:#000000;stroke-width:0.8;" x="57.6" xlink:href="#m1e7a1a86e3" y="84.396261"/>
      </g>
     </g>
     <g id="text_15">
      <!-- 80 -->
      <g transform="translate(37.875 88.195479)scale(0.1 -0.1)">
       <use xlink:href="#DejaVuSans-38"/>
       <use x="63.623047" xlink:href="#DejaVuSans-30"/>
      </g>
     </g>
    </g>
    <g id="text_16">
     <!-- Accuracy -->
     <g transform="translate(31.795312 197.356125)rotate(-90)scale(0.1 -0.1)">
      <defs>
       <path d="M 2188 4044 
L 1331 1722 
L 3047 1722 
L 2188 4044 
z
M 1831 4666 
L 2547 4666 
L 4325 0 
L 3669 0 
L 3244 1197 
L 1141 1197 
L 716 0 
L 50 0 
L 1831 4666 
z
" id="DejaVuSans-41" transform="scale(0.015625)"/>
       <path d="M 544 1381 
L 544 3500 
L 1119 3500 
L 1119 1403 
Q 1119 906 1312 657 
Q 1506 409 1894 409 
Q 2359 409 2629 706 
Q 2900 1003 2900 1516 
L 2900 3500 
L 3475 3500 
L 3475 0 
L 2900 0 
L 2900 538 
Q 2691 219 2414 64 
Q 2138 -91 1772 -91 
Q 1169 -91 856 284 
Q 544 659 544 1381 
z
M 1991 3584 
L 1991 3584 
z
" id="DejaVuSans-75" transform="scale(0.015625)"/>
       <path d="M 2631 2963 
Q 2534 3019 2420 3045 
Q 2306 3072 2169 3072 
Q 1681 3072 1420 2755 
Q 1159 2438 1159 1844 
L 1159 0 
L 581 0 
L 581 3500 
L 1159 3500 
L 1159 2956 
Q 1341 3275 1631 3429 
Q 1922 3584 2338 3584 
Q 2397 3584 2469 3576 
Q 2541 3569 2628 3553 
L 2631 2963 
z
" id="DejaVuSans-72" transform="scale(0.015625)"/>
       <path d="M 2194 1759 
Q 1497 1759 1228 1600 
Q 959 1441 959 1056 
Q 959 750 1161 570 
Q 1363 391 1709 391 
Q 2188 391 2477 730 
Q 2766 1069 2766 1631 
L 2766 1759 
L 2194 1759 
z
M 3341 1997 
L 3341 0 
L 2766 0 
L 2766 531 
Q 2569 213 2275 61 
Q 1981 -91 1556 -91 
Q 1019 -91 701 211 
Q 384 513 384 1019 
Q 384 1609 779 1909 
Q 1175 2209 1959 2209 
L 2766 2209 
L 2766 2266 
Q 2766 2663 2505 2880 
Q 2244 3097 1772 3097 
Q 1472 3097 1187 3025 
Q 903 2953 641 2809 
L 641 3341 
Q 956 3463 1253 3523 
Q 1550 3584 1831 3584 
Q 2591 3584 2966 3190 
Q 3341 2797 3341 1997 
z
" id="DejaVuSans-61" transform="scale(0.015625)"/>
       <path d="M 2059 -325 
Q 1816 -950 1584 -1140 
Q 1353 -1331 966 -1331 
L 506 -1331 
L 506 -850 
L 844 -850 
Q 1081 -850 1212 -737 
Q 1344 -625 1503 -206 
L 1606 56 
L 191 3500 
L 800 3500 
L 1894 763 
L 2988 3500 
L 3597 3500 
L 2059 -325 
z
" id="DejaVuSans-79" transform="scale(0.015625)"/>
      </defs>
      <use xlink:href="#DejaVuSans-41"/>
      <use x="66.658203" xlink:href="#DejaVuSans-63"/>
      <use x="121.638672" xlink:href="#DejaVuSans-63"/>
      <use x="176.619141" xlink:href="#DejaVuSans-75"/>
      <use x="239.998047" xlink:href="#DejaVuSans-72"/>
      <use x="281.111328" xlink:href="#DejaVuSans-61"/>
      <use x="342.390625" xlink:href="#DejaVuSans-63"/>
      <use x="397.371094" xlink:href="#DejaVuSans-79"/>
     </g>
    </g>
   </g>
   <g id="line2d_15">
    <path clip-path="url(#p18d6a155e5)" d="M 73.832727 295.488 
L 74.883389 283.27378 
L 76.984713 256.839001 
L 78.035375 243.760862 
L 79.086037 232.96756 
L 81.187361 214.325102 
L 82.238023 207.652466 
L 83.288685 202.048361 
L 84.339347 231.279508 
L 85.390009 220.747656 
L 87.491333 205.12323 
L 89.592657 194.631163 
L 90.643319 189.697732 
L 91.693981 183.712821 
L 92.744643 180.876666 
L 93.795305 174.897439 
L 94.845966 171.078008 
L 95.896628 165.991118 
L 96.94729 162.075065 
L 99.048614 153.305153 
L 100.099276 150.372376 
L 101.149938 146.53021 
L 102.2006 144.745536 
L 103.251262 142.659627 
L 104.301924 142.364076 
L 105.352586 177.318685 
L 107.45391 169.28765 
L 108.504572 166.34919 
L 109.555234 164.882801 
L 110.605896 162.171688 
L 111.656558 159.096819 
L 113.757882 154.748806 
L 114.808544 150.571304 
L 116.909868 147.547588 
L 117.96053 145.217281 
L 119.011192 141.562677 
L 120.061853 139.766635 
L 121.112515 138.993655 
L 122.163177 134.4865 
L 123.213839 133.065581 
L 124.264501 131.104713 
L 125.315163 128.848293 
L 126.365825 126.154231 
L 127.416487 122.755392 
L 128.467149 121.2208 
L 130.568473 117.094451 
L 131.619135 115.139266 
L 132.669797 112.143968 
L 133.720459 110.95608 
L 134.771121 107.955099 
L 135.821783 105.86919 
L 136.872445 104.812026 
L 137.923107 102.072494 
L 138.973769 100.128677 
L 140.024431 99.446635 
L 141.075093 97.718798 
L 142.125755 96.820777 
L 143.176417 95.706776 
L 144.227079 95.826134 
L 146.328402 95.394174 
L 147.379064 136.509889 
L 148.429726 136.987318 
L 149.480388 133.918133 
L 150.53105 132.98601 
L 151.581712 131.900427 
L 152.632374 131.218386 
L 153.683036 127.944589 
L 154.733698 128.058262 
L 155.78436 126.921527 
L 156.835022 124.426393 
L 157.885684 122.306382 
L 158.936346 122.067667 
L 159.987008 121.698228 
L 161.03767 120.839993 
L 162.088332 118.617676 
L 163.138994 117.935635 
L 164.189656 115.952032 
L 165.240318 114.582266 
L 166.29098 114.258296 
L 167.341642 113.59899 
L 169.442966 110.4616 
L 170.493628 110.472968 
L 171.544289 108.699661 
L 172.594951 107.886895 
L 173.645613 106.699006 
L 174.696275 104.868863 
L 175.746937 104.334597 
L 176.797599 103.590036 
L 177.848261 102.601076 
L 178.898923 100.464014 
L 179.949585 100.219615 
L 181.000247 97.58239 
L 182.050909 97.315257 
L 183.101571 97.292522 
L 184.152233 94.905378 
L 185.202895 95.411225 
L 186.253557 92.626224 
L 187.304219 93.149122 
L 188.354881 91.006376 
L 189.405543 90.324335 
L 190.456205 89.07961 
L 191.506867 88.403252 
L 192.557529 86.107047 
L 193.608191 85.908118 
L 194.658853 85.396588 
L 195.709515 85.442057 
L 197.810838 81.366861 
L 198.8615 80.29833 
L 199.912162 80.565463 
L 200.962824 78.098747 
L 202.013486 78.542074 
L 203.064148 76.60394 
L 205.165472 75.933266 
L 206.216134 74.557817 
L 207.266796 73.551806 
L 208.317458 73.858725 
L 209.36812 72.307081 
L 210.418782 71.710295 
L 211.469444 71.392009 
L 212.520106 70.903213 
L 214.62143 69.289049 
L 215.672092 69.124222 
L 216.722754 68.311456 
L 217.773416 68.885508 
L 218.824078 67.851079 
L 220.925402 66.651823 
L 221.976064 65.804955 
L 223.026726 66.191445 
L 224.077387 66.356272 
L 225.128049 66.202813 
L 226.178711 66.32217 
L 227.229373 65.083128 
L 228.280035 66.702976 
L 229.330697 66.288068 
L 230.381359 65.498037 
L 231.432021 106.136323 
L 232.482683 110.302457 
L 233.533345 109.256661 
L 234.584007 109.438538 
L 235.634669 107.625446 
L 237.735993 106.5967 
L 238.786655 107.540191 
L 239.837317 103.703709 
L 240.887979 104.902965 
L 241.938641 104.32323 
L 242.989303 103.27175 
L 244.039965 101.862198 
L 246.141289 100.969861 
L 248.242613 98.775962 
L 249.293274 100.338973 
L 250.343936 98.827115 
L 251.394598 97.741533 
L 252.44526 97.502818 
L 253.495922 98.457676 
L 254.546584 96.457022 
L 255.597246 97.201583 
L 256.647908 96.081899 
L 257.69857 95.223664 
L 258.749232 94.047143 
L 259.799894 94.751919 
L 261.901218 93.529928 
L 262.95188 93.251428 
L 265.053204 91.614529 
L 266.103866 91.483805 
L 267.154528 90.761978 
L 268.20519 91.415601 
L 269.255852 90.693774 
L 271.357176 89.579773 
L 272.407838 90.057202 
L 273.4585 89.449049 
L 274.509162 88.596497 
L 275.559823 87.465446 
L 276.610485 87.152844 
L 277.661147 87.391558 
L 278.711809 87.482497 
L 280.813133 87.027803 
L 281.863795 85.584149 
L 282.914457 84.924842 
L 283.965119 85.544363 
L 285.015781 85.629618 
L 286.066443 84.742965 
L 287.117105 83.28226 
L 288.167767 83.071964 
L 289.218429 83.503923 
L 290.269091 82.600219 
L 291.319753 84.345107 
L 292.370415 81.872708 
L 293.421077 81.156565 
L 294.471739 80.957636 
L 295.522401 81.474851 
L 296.573063 80.286963 
L 297.623725 79.434411 
L 298.674387 80.429054 
L 299.725049 78.979717 
L 300.775711 79.371891 
L 301.826372 78.388615 
L 303.927696 78.093063 
L 304.978358 77.166624 
L 306.02902 77.450808 
L 307.079682 77.399655 
L 308.130344 76.308389 
L 309.181006 76.456165 
L 310.231668 75.455838 
L 312.332992 74.370255 
L 313.383654 73.966714 
L 314.434316 72.864081 
L 315.484978 73.523388 
L 316.53564 73.597275 
L 318.636964 72.164989 
L 319.687626 71.914907 
L 320.738288 71.318121 
L 321.78895 70.96005 
L 322.839612 70.175702 
L 323.890274 71.210131 
L 324.940936 69.846049 
L 325.991598 69.857416 
L 327.042259 69.164008 
L 328.092921 68.652477 
L 329.143583 69.021916 
L 330.194245 67.86813 
L 331.244907 68.464916 
L 332.295569 67.65215 
L 333.346231 67.413436 
L 334.396893 65.600343 
L 335.447555 67.055364 
L 336.498217 67.026946 
L 337.548879 66.486996 
L 338.599541 65.407098 
L 339.650203 65.219537 
L 340.700865 64.526128 
L 341.751527 64.742108 
L 343.852851 63.167729 
L 344.903513 62.445902 
L 345.954175 63.23025 
L 347.004837 63.235933 
L 349.106161 62.480005 
L 350.156823 62.718719 
L 351.207485 61.314851 
L 352.258147 61.195494 
L 353.308808 61.525147 
L 354.35947 60.558922 
L 355.410132 59.802993 
L 356.460794 59.945085 
L 357.511456 59.615432 
L 358.562118 60.070126 
L 359.61278 59.808677 
L 360.663442 58.802666 
L 361.714104 58.490064 
L 362.764766 58.734462 
L 363.815428 58.330921 
L 364.86609 57.251022 
L 365.916752 58.387758 
L 366.967414 57.802339 
L 368.018076 56.773593 
L 371.170062 57.017992 
L 372.220724 56.046083 
L 373.271386 55.477715 
L 374.322048 56.784961 
L 375.37271 55.204899 
L 376.423372 55.784634 
L 378.524695 55.443613 
L 379.575357 56.250695 
L 380.626019 55.165113 
L 381.676681 55.273103 
L 382.727343 54.852511 
L 383.778005 54.89798 
L 384.828667 55.301521 
L 385.879329 54.471705 
L 386.929991 54.539909 
L 387.980653 54.807041 
L 389.031315 54.4035 
L 391.132639 54.06248 
L 392.183301 54.733154 
L 393.233963 53.749878 
L 394.284625 54.096582 
L 395.335287 54.687684 
L 396.385949 54.215939 
L 397.436611 53.568 
L 398.487273 54.221623 
L 398.487273 54.221623 
" style="fill:none;stroke:#1f77b4;stroke-linecap:square;stroke-width:1.5;"/>
   </g>
   <g id="line2d_16">
    <path clip-path="url(#p18d6a155e5)" d="M 73.832727 286.394118 
L 74.883389 275.879317 
L 75.934051 261.357524 
L 76.984713 255.361245 
L 78.035375 233.621183 
L 79.086037 248.42716 
L 80.136699 205.515403 
L 81.187361 197.50142 
L 82.238023 197.103562 
L 83.288685 187.924425 
L 84.339347 234.331643 
L 85.390009 210.858059 
L 86.440671 192.386111 
L 87.491333 210.374947 
L 88.541995 191.107284 
L 89.592657 177.921155 
L 90.643319 186.07723 
L 91.693981 167.605282 
L 92.744643 164.791862 
L 93.795305 160.728034 
L 94.845966 151.008947 
L 95.896628 144.898995 
L 96.94729 145.382108 
L 97.997952 140.06787 
L 99.048614 131.030825 
L 100.099276 144.927414 
L 101.149938 138.902717 
L 102.2006 131.798121 
L 103.251262 130.121437 
L 104.301924 132.195979 
L 105.352586 176.07396 
L 106.403248 167.349517 
L 107.45391 149.275426 
L 108.504572 149.502773 
L 109.555234 156.664205 
L 110.605896 158.397727 
L 111.656558 147.399813 
L 112.70722 148.905987 
L 113.757882 144.614811 
L 114.808544 151.435223 
L 115.859206 134.895725 
L 116.909868 136.03246 
L 117.96053 139.243737 
L 119.011192 135.435674 
L 120.061853 128.672099 
L 121.112515 120.06133 
L 122.163177 126.824904 
L 123.213839 119.947656 
L 124.264501 120.828626 
L 125.315163 120.317095 
L 126.365825 119.151941 
L 127.416487 119.833983 
L 128.467149 116.025919 
L 129.517811 113.269336 
L 130.568473 112.530458 
L 131.619135 110.427498 
L 132.669797 107.244639 
L 133.720459 109.660202 
L 134.771121 103.976526 
L 135.821783 103.067137 
L 136.872445 101.589381 
L 137.923107 101.646218 
L 138.973769 100.56632 
L 141.075093 99.116982 
L 142.125755 97.92341 
L 143.176417 98.889635 
L 144.227079 98.605451 
L 145.277741 98.122339 
L 146.328402 98.179176 
L 147.379064 131.940213 
L 148.429726 131.201335 
L 149.480388 130.689804 
L 150.53105 128.530007 
L 151.581712 123.04526 
L 152.632374 123.158933 
L 153.683036 130.661386 
L 154.733698 121.880106 
L 155.78436 120.317095 
L 156.835022 121.28332 
L 157.885684 118.782502 
L 158.936346 120.601279 
L 159.987008 120.544442 
L 161.03767 120.743371 
L 162.088332 113.155663 
L 163.138994 111.734744 
L 164.189656 107.500405 
L 165.240318 112.757805 
L 166.29098 114.121888 
L 167.341642 112.075764 
L 168.392304 106.164741 
L 169.442966 112.67255 
L 170.493628 113.695612 
L 171.544289 109.68862 
L 172.594951 107.955099 
L 173.645613 110.939029 
L 174.696275 102.896627 
L 175.746937 107.329895 
L 176.797599 105.539537 
L 177.848261 110.455917 
L 178.898923 99.51484 
L 179.949585 102.612443 
L 181.000247 102.811372 
L 182.050909 107.187803 
L 184.152233 100.225299 
L 185.202895 98.832798 
L 186.253557 100.168462 
L 187.304219 99.799023 
L 188.354881 100.679993 
L 189.405543 97.92341 
L 190.456205 96.957185 
L 191.506867 97.894992 
L 192.557529 95.507848 
L 193.608191 97.440298 
L 194.658853 96.928767 
L 195.709515 94.683715 
L 196.760177 95.081572 
L 197.810838 93.859582 
L 198.8615 94.570041 
L 199.912162 94.740551 
L 200.962824 93.120704 
L 202.013486 93.376469 
L 203.064148 91.78504 
L 204.11481 91.642948 
L 205.165472 88.772691 
L 206.216134 92.154479 
L 207.266796 90.0231 
L 208.317458 90.534631 
L 209.36812 89.454732 
L 210.418782 89.767335 
L 211.469444 89.113712 
L 212.520106 88.005395 
L 213.570768 88.772691 
L 214.62143 89.312641 
L 215.672092 89.14213 
L 216.722754 88.857946 
L 217.773416 88.062232 
L 218.824078 88.772691 
L 219.87474 87.692793 
L 220.925402 88.857946 
L 221.976064 88.119069 
L 223.026726 87.891721 
L 224.077387 87.493864 
L 225.128049 88.26116 
L 226.178711 87.635956 
L 227.229373 87.522282 
L 228.280035 87.834885 
L 229.330697 87.380191 
L 230.381359 87.380191 
L 231.432021 125.602914 
L 232.482683 128.927865 
L 233.533345 113.155663 
L 234.584007 110.711682 
L 235.634669 109.887549 
L 236.685331 110.995866 
L 237.735993 112.359948 
L 238.786655 106.448925 
L 239.837317 111.62107 
L 240.887979 110.256988 
L 241.938641 114.946021 
L 242.989303 107.926681 
L 244.039965 111.79158 
L 245.090627 111.422142 
L 246.141289 104.516475 
L 247.191951 111.763162 
L 248.242613 108.46663 
L 249.293274 109.034997 
L 250.343936 106.022649 
L 251.394598 111.365305 
L 252.44526 111.308468 
L 253.495922 106.591017 
L 254.546584 108.154028 
L 255.597246 107.017292 
L 256.647908 104.77224 
L 257.69857 104.630148 
L 258.749232 108.949742 
L 259.799894 108.949742 
L 260.850556 104.232291 
L 261.901218 106.022649 
L 262.95188 104.60173 
L 264.002542 106.761527 
L 265.053204 101.845147 
L 266.103866 101.703055 
L 267.154528 105.567955 
L 268.20519 102.612443 
L 269.255852 102.100912 
L 270.306514 103.237648 
L 271.357176 103.464995 
L 272.407838 105.369026 
L 273.4585 104.459638 
L 274.509162 101.163106 
L 275.559823 101.134687 
L 276.610485 101.901984 
L 277.661147 97.610808 
L 278.711809 101.589381 
L 279.762471 102.385096 
L 280.813133 104.999587 
L 281.863795 100.935759 
L 282.914457 102.584025 
L 283.965119 100.679993 
L 285.015781 101.703055 
L 286.066443 99.941115 
L 287.117105 99.51484 
L 288.167767 101.987239 
L 289.218429 99.827442 
L 290.269091 100.708412 
L 291.319753 98.406523 
L 292.370415 97.326624 
L 293.421077 99.884279 
L 294.471739 99.486421 
L 295.522401 100.765248 
L 296.573063 98.292849 
L 297.623725 97.724482 
L 298.674387 96.417236 
L 299.725049 100.850504 
L 300.775711 99.68535 
L 301.826372 96.133052 
L 302.877034 97.241369 
L 303.927696 100.367391 
L 304.978358 95.678358 
L 306.02902 95.337337 
L 307.079682 96.673001 
L 308.130344 96.388818 
L 309.181006 94.825807 
L 311.28233 95.706776 
L 312.332992 94.655296 
L 313.383654 93.348051 
L 314.434316 94.456368 
L 315.484978 94.513204 
L 316.53564 93.660653 
L 317.586302 95.365756 
L 318.636964 93.490143 
L 319.687626 93.319632 
L 320.738288 94.172184 
L 321.78895 93.00703 
L 322.839612 93.234377 
L 323.890274 91.24509 
L 324.940936 91.898713 
L 325.991598 91.159835 
L 327.042259 91.500856 
L 328.092921 92.438663 
L 329.143583 89.85259 
L 330.194245 90.591468 
L 331.244907 91.813458 
L 332.295569 89.881008 
L 333.346231 92.808101 
L 334.396893 90.222029 
L 335.447555 90.136774 
L 336.498217 90.648304 
L 337.548879 90.392539 
L 338.599541 88.317997 
L 339.650203 91.301927 
L 340.700865 88.772691 
L 341.751527 87.778048 
L 342.802189 88.715855 
L 343.852851 88.460089 
L 344.903513 87.891721 
L 345.954175 88.573763 
L 347.004837 87.266517 
L 348.055499 86.300292 
L 349.106161 87.550701 
L 350.156823 87.863303 
L 351.207485 86.982333 
L 352.258147 88.175905 
L 353.308808 86.783405 
L 354.35947 86.1582 
L 355.410132 88.26116 
L 356.460794 86.186619 
L 357.511456 85.902435 
L 358.562118 84.22575 
L 359.61278 85.646669 
L 360.663442 86.072945 
L 361.714104 84.822536 
L 362.764766 84.168913 
L 363.815428 85.476159 
L 364.86609 84.05524 
L 365.916752 84.93621 
L 366.967414 84.964628 
L 368.018076 83.458454 
L 369.068738 83.913148 
L 370.1194 83.430036 
L 371.170062 83.771056 
L 372.220724 83.572127 
L 373.271386 83.742638 
L 374.322048 83.373199 
L 375.37271 83.969985 
L 376.423372 84.140495 
L 377.474034 83.88473 
L 378.524695 83.941566 
L 379.575357 83.657383 
L 381.676681 83.941566 
L 382.727343 83.316362 
L 383.778005 83.373199 
L 384.828667 82.918505 
L 385.879329 83.117433 
L 386.929991 82.662739 
L 387.980653 82.861668 
L 389.031315 82.2933 
L 390.081977 82.605902 
L 391.132639 82.151208 
L 393.233963 83.145852 
L 394.284625 83.032178 
L 395.335287 82.691158 
L 396.385949 81.838606 
L 397.436611 83.316362 
L 398.487273 82.691158 
L 398.487273 82.691158 
" style="fill:none;stroke:#ff7f0e;stroke-linecap:square;stroke-width:1.5;"/>
   </g>
   <g id="patch_3">
    <path d="M 57.6 307.584 
L 57.6 41.472 
" style="fill:none;stroke:#000000;stroke-linecap:square;stroke-linejoin:miter;stroke-width:0.8;"/>
   </g>
   <g id="patch_4">
    <path d="M 414.72 307.584 
L 414.72 41.472 
" style="fill:none;stroke:#000000;stroke-linecap:square;stroke-linejoin:miter;stroke-width:0.8;"/>
   </g>
   <g id="patch_5">
    <path d="M 57.6 307.584 
L 414.72 307.584 
" style="fill:none;stroke:#000000;stroke-linecap:square;stroke-linejoin:miter;stroke-width:0.8;"/>
   </g>
   <g id="patch_6">
    <path d="M 57.6 41.472 
L 414.72 41.472 
" style="fill:none;stroke:#000000;stroke-linecap:square;stroke-linejoin:miter;stroke-width:0.8;"/>
   </g>
   <g id="text_17">
    <!-- Training and Validation Accuracy -->
    <g transform="translate(138.4575 35.472)scale(0.12 -0.12)">
     <defs>
      <path d="M -19 4666 
L 3928 4666 
L 3928 4134 
L 2272 4134 
L 2272 0 
L 1638 0 
L 1638 4134 
L -19 4134 
L -19 4666 
z
" id="DejaVuSans-54" transform="scale(0.015625)"/>
      <path d="M 603 3500 
L 1178 3500 
L 1178 0 
L 603 0 
L 603 3500 
z
M 603 4863 
L 1178 4863 
L 1178 4134 
L 603 4134 
L 603 4863 
z
" id="DejaVuSans-69" transform="scale(0.015625)"/>
      <path d="M 3513 2113 
L 3513 0 
L 2938 0 
L 2938 2094 
Q 2938 2591 2744 2837 
Q 2550 3084 2163 3084 
Q 1697 3084 1428 2787 
Q 1159 2491 1159 1978 
L 1159 0 
L 581 0 
L 581 3500 
L 1159 3500 
L 1159 2956 
Q 1366 3272 1645 3428 
Q 1925 3584 2291 3584 
Q 2894 3584 3203 3211 
Q 3513 2838 3513 2113 
z
" id="DejaVuSans-6e" transform="scale(0.015625)"/>
      <path d="M 2906 1791 
Q 2906 2416 2648 2759 
Q 2391 3103 1925 3103 
Q 1463 3103 1205 2759 
Q 947 2416 947 1791 
Q 947 1169 1205 825 
Q 1463 481 1925 481 
Q 2391 481 2648 825 
Q 2906 1169 2906 1791 
z
M 3481 434 
Q 3481 -459 3084 -895 
Q 2688 -1331 1869 -1331 
Q 1566 -1331 1297 -1286 
Q 1028 -1241 775 -1147 
L 775 -588 
Q 1028 -725 1275 -790 
Q 1522 -856 1778 -856 
Q 2344 -856 2625 -561 
Q 2906 -266 2906 331 
L 2906 616 
Q 2728 306 2450 153 
Q 2172 0 1784 0 
Q 1141 0 747 490 
Q 353 981 353 1791 
Q 353 2603 747 3093 
Q 1141 3584 1784 3584 
Q 2172 3584 2450 3431 
Q 2728 3278 2906 2969 
L 2906 3500 
L 3481 3500 
L 3481 434 
z
" id="DejaVuSans-67" transform="scale(0.015625)"/>
      <path id="DejaVuSans-20" transform="scale(0.015625)"/>
      <path d="M 2906 2969 
L 2906 4863 
L 3481 4863 
L 3481 0 
L 2906 0 
L 2906 525 
Q 2725 213 2448 61 
Q 2172 -91 1784 -91 
Q 1150 -91 751 415 
Q 353 922 353 1747 
Q 353 2572 751 3078 
Q 1150 3584 1784 3584 
Q 2172 3584 2448 3432 
Q 2725 3281 2906 2969 
z
M 947 1747 
Q 947 1113 1208 752 
Q 1469 391 1925 391 
Q 2381 391 2643 752 
Q 2906 1113 2906 1747 
Q 2906 2381 2643 2742 
Q 2381 3103 1925 3103 
Q 1469 3103 1208 2742 
Q 947 2381 947 1747 
z
" id="DejaVuSans-64" transform="scale(0.015625)"/>
      <path d="M 1831 0 
L 50 4666 
L 709 4666 
L 2188 738 
L 3669 4666 
L 4325 4666 
L 2547 0 
L 1831 0 
z
" id="DejaVuSans-56" transform="scale(0.015625)"/>
      <path d="M 603 4863 
L 1178 4863 
L 1178 0 
L 603 0 
L 603 4863 
z
" id="DejaVuSans-6c" transform="scale(0.015625)"/>
      <path d="M 1172 4494 
L 1172 3500 
L 2356 3500 
L 2356 3053 
L 1172 3053 
L 1172 1153 
Q 1172 725 1289 603 
Q 1406 481 1766 481 
L 2356 481 
L 2356 0 
L 1766 0 
Q 1100 0 847 248 
Q 594 497 594 1153 
L 594 3053 
L 172 3053 
L 172 3500 
L 594 3500 
L 594 4494 
L 1172 4494 
z
" id="DejaVuSans-74" transform="scale(0.015625)"/>
     </defs>
     <use xlink:href="#DejaVuSans-54"/>
     <use x="46.333984" xlink:href="#DejaVuSans-72"/>
     <use x="87.447266" xlink:href="#DejaVuSans-61"/>
     <use x="148.726562" xlink:href="#DejaVuSans-69"/>
     <use x="176.509766" xlink:href="#DejaVuSans-6e"/>
     <use x="239.888672" xlink:href="#DejaVuSans-69"/>
     <use x="267.671875" xlink:href="#DejaVuSans-6e"/>
     <use x="331.050781" xlink:href="#DejaVuSans-67"/>
     <use x="394.527344" xlink:href="#DejaVuSans-20"/>
     <use x="426.314453" xlink:href="#DejaVuSans-61"/>
     <use x="487.59375" xlink:href="#DejaVuSans-6e"/>
     <use x="550.972656" xlink:href="#DejaVuSans-64"/>
     <use x="614.449219" xlink:href="#DejaVuSans-20"/>
     <use x="646.236328" xlink:href="#DejaVuSans-56"/>
     <use x="706.894531" xlink:href="#DejaVuSans-61"/>
     <use x="768.173828" xlink:href="#DejaVuSans-6c"/>
     <use x="795.957031" xlink:href="#DejaVuSans-69"/>
     <use x="823.740234" xlink:href="#DejaVuSans-64"/>
     <use x="887.216797" xlink:href="#DejaVuSans-61"/>
     <use x="948.496094" xlink:href="#DejaVuSans-74"/>
     <use x="987.705078" xlink:href="#DejaVuSans-69"/>
     <use x="1015.488281" xlink:href="#DejaVuSans-6f"/>
     <use x="1076.669922" xlink:href="#DejaVuSans-6e"/>
     <use x="1140.048828" xlink:href="#DejaVuSans-20"/>
     <use x="1171.835938" xlink:href="#DejaVuSans-41"/>
     <use x="1238.494141" xlink:href="#DejaVuSans-63"/>
     <use x="1293.474609" xlink:href="#DejaVuSans-63"/>
     <use x="1348.455078" xlink:href="#DejaVuSans-75"/>
     <use x="1411.833984" xlink:href="#DejaVuSans-72"/>
     <use x="1452.947266" xlink:href="#DejaVuSans-61"/>
     <use x="1514.226562" xlink:href="#DejaVuSans-63"/>
     <use x="1569.207031" xlink:href="#DejaVuSans-79"/>
    </g>
   </g>
   <g id="legend_1">
    <g id="patch_7">
     <path d="M 64.6 78.82825 
L 194.815625 78.82825 
Q 196.815625 78.82825 196.815625 76.82825 
L 196.815625 48.472 
Q 196.815625 46.472 194.815625 46.472 
L 64.6 46.472 
Q 62.6 46.472 62.6 48.472 
L 62.6 76.82825 
Q 62.6 78.82825 64.6 78.82825 
z
" style="fill:#ffffff;opacity:0.8;stroke:#cccccc;stroke-linejoin:miter;"/>
    </g>
    <g id="line2d_17">
     <path d="M 66.6 54.570437 
L 86.6 54.570437 
" style="fill:none;stroke:#1f77b4;stroke-linecap:square;stroke-width:1.5;"/>
    </g>
    <g id="line2d_18"/>
    <g id="text_18">
     <!-- Train Accuracy -->
     <g transform="translate(94.6 58.070437)scale(0.1 -0.1)">
      <use xlink:href="#DejaVuSans-54"/>
      <use x="46.333984" xlink:href="#DejaVuSans-72"/>
      <use x="87.447266" xlink:href="#DejaVuSans-61"/>
      <use x="148.726562" xlink:href="#DejaVuSans-69"/>
      <use x="176.509766" xlink:href="#DejaVuSans-6e"/>
      <use x="239.888672" xlink:href="#DejaVuSans-20"/>
      <use x="271.675781" xlink:href="#DejaVuSans-41"/>
      <use x="338.333984" xlink:href="#DejaVuSans-63"/>
      <use x="393.314453" xlink:href="#DejaVuSans-63"/>
      <use x="448.294922" xlink:href="#DejaVuSans-75"/>
      <use x="511.673828" xlink:href="#DejaVuSans-72"/>
      <use x="552.787109" xlink:href="#DejaVuSans-61"/>
      <use x="614.066406" xlink:href="#DejaVuSans-63"/>
      <use x="669.046875" xlink:href="#DejaVuSans-79"/>
     </g>
    </g>
    <g id="line2d_19">
     <path d="M 66.6 69.248562 
L 86.6 69.248562 
" style="fill:none;stroke:#ff7f0e;stroke-linecap:square;stroke-width:1.5;"/>
    </g>
    <g id="line2d_20"/>
    <g id="text_19">
     <!-- Validation Accuracy -->
     <g transform="translate(94.6 72.748562)scale(0.1 -0.1)">
      <use xlink:href="#DejaVuSans-56"/>
      <use x="60.658203" xlink:href="#DejaVuSans-61"/>
      <use x="121.9375" xlink:href="#DejaVuSans-6c"/>
      <use x="149.720703" xlink:href="#DejaVuSans-69"/>
      <use x="177.503906" xlink:href="#DejaVuSans-64"/>
      <use x="240.980469" xlink:href="#DejaVuSans-61"/>
      <use x="302.259766" xlink:href="#DejaVuSans-74"/>
      <use x="341.46875" xlink:href="#DejaVuSans-69"/>
      <use x="369.251953" xlink:href="#DejaVuSans-6f"/>
      <use x="430.433594" xlink:href="#DejaVuSans-6e"/>
      <use x="493.8125" xlink:href="#DejaVuSans-20"/>
      <use x="525.599609" xlink:href="#DejaVuSans-41"/>
      <use x="592.257812" xlink:href="#DejaVuSans-63"/>
      <use x="647.238281" xlink:href="#DejaVuSans-63"/>
      <use x="702.21875" xlink:href="#DejaVuSans-75"/>
      <use x="765.597656" xlink:href="#DejaVuSans-72"/>
      <use x="806.710938" xlink:href="#DejaVuSans-61"/>
      <use x="867.990234" xlink:href="#DejaVuSans-63"/>
      <use x="922.970703" xlink:href="#DejaVuSans-79"/>
     </g>
    </g>
   </g>
  </g>
 </g>
 <defs>
  <clipPath id="p18d6a155e5">
   <rect height="266.112" width="357.12" x="57.6" y="41.472"/>
  </clipPath>
 </defs>
</svg>
