<?xml version="1.0" encoding="utf-8" standalone="no"?>
<!DOCTYPE svg PUBLIC "-//W3C//DTD SVG 1.1//EN"
  "http://www.w3.org/Graphics/SVG/1.1/DTD/svg11.dtd">
<svg height="345.6pt" version="1.1" viewBox="0 0 460.8 345.6" width="460.8pt" xmlns="http://www.w3.org/2000/svg" xmlns:xlink="http://www.w3.org/1999/xlink">
 <metadata>
  <rdf:RDF xmlns:cc="http://creativecommons.org/ns#" xmlns:dc="http://purl.org/dc/elements/1.1/" xmlns:rdf="http://www.w3.org/1999/02/22-rdf-syntax-ns#">
   <cc:Work>
    <dc:type rdf:resource="http://purl.org/dc/dcmitype/StillImage"/>
    <dc:date>2023-08-22T10:38:06.226878</dc:date>
    <dc:format>image/svg+xml</dc:format>
    <dc:creator>
     <cc:Agent>
      <dc:title>Matplotlib v3.4.3, https://matplotlib.org/</dc:title>
     </cc:Agent>
    </dc:creator>
   </cc:Work>
  </rdf:RDF>
 </metadata>
 <defs>
  <style type="text/css">*{stroke-linecap:butt;stroke-linejoin:round;}</style>
 </defs>
 <g id="figure_1">
  <g id="patch_1">
   <path d="M 0 345.6 
L 460.8 345.6 
L 460.8 0 
L 0 0 
z
" style="fill:#ffffff;"/>
  </g>
  <g id="axes_1">
   <g id="patch_2">
    <path d="M 57.6 307.584 
L 414.72 307.584 
L 414.72 41.472 
L 57.6 41.472 
z
" style="fill:#ffffff;"/>
   </g>
   <g id="matplotlib.axis_1">
    <g id="xtick_1">
     <g id="line2d_1">
      <defs>
       <path d="M 0 0 
L 0 3.5 
" id="m84eadfdf54" style="stroke:#000000;stroke-width:0.8;"/>
      </defs>
      <g>
       <use style="stroke:#000000;stroke-width:0.8;" x="73.832727" xlink:href="#m84eadfdf54" y="307.584"/>
      </g>
     </g>
     <g id="text_1">
      <!-- 1 -->
      <g transform="translate(70.651477 322.182437)scale(0.1 -0.1)">
       <defs>
        <path d="M 794 531 
L 1825 531 
L 1825 4091 
L 703 3866 
L 703 4441 
L 1819 4666 
L 2450 4666 
L 2450 531 
L 3481 531 
L 3481 0 
L 794 0 
L 794 531 
z
" id="DejaVuSans-31" transform="scale(0.015625)"/>
       </defs>
       <use xlink:href="#DejaVuSans-31"/>
      </g>
     </g>
    </g>
    <g id="xtick_2">
     <g id="line2d_2">
      <g>
       <use style="stroke:#000000;stroke-width:0.8;" x="109.710992" xlink:href="#m84eadfdf54" y="307.584"/>
      </g>
     </g>
     <g id="text_2">
      <!-- 42 -->
      <g transform="translate(103.348492 322.182437)scale(0.1 -0.1)">
       <defs>
        <path d="M 2419 4116 
L 825 1625 
L 2419 1625 
L 2419 4116 
z
M 2253 4666 
L 3047 4666 
L 3047 1625 
L 3713 1625 
L 3713 1100 
L 3047 1100 
L 3047 0 
L 2419 0 
L 2419 1100 
L 313 1100 
L 313 1709 
L 2253 4666 
z
" id="DejaVuSans-34" transform="scale(0.015625)"/>
        <path d="M 1228 531 
L 3431 531 
L 3431 0 
L 469 0 
L 469 531 
Q 828 903 1448 1529 
Q 2069 2156 2228 2338 
Q 2531 2678 2651 2914 
Q 2772 3150 2772 3378 
Q 2772 3750 2511 3984 
Q 2250 4219 1831 4219 
Q 1534 4219 1204 4116 
Q 875 4013 500 3803 
L 500 4441 
Q 881 4594 1212 4672 
Q 1544 4750 1819 4750 
Q 2544 4750 2975 4387 
Q 3406 4025 3406 3419 
Q 3406 3131 3298 2873 
Q 3191 2616 2906 2266 
Q 2828 2175 2409 1742 
Q 1991 1309 1228 531 
z
" id="DejaVuSans-32" transform="scale(0.015625)"/>
       </defs>
       <use xlink:href="#DejaVuSans-34"/>
       <use x="63.623047" xlink:href="#DejaVuSans-32"/>
      </g>
     </g>
    </g>
    <g id="xtick_3">
     <g id="line2d_3">
      <g>
       <use style="stroke:#000000;stroke-width:0.8;" x="145.589258" xlink:href="#m84eadfdf54" y="307.584"/>
      </g>
     </g>
     <g id="text_3">
      <!-- 83 -->
      <g transform="translate(139.226758 322.182437)scale(0.1 -0.1)">
       <defs>
        <path d="M 2034 2216 
Q 1584 2216 1326 1975 
Q 1069 1734 1069 1313 
Q 1069 891 1326 650 
Q 1584 409 2034 409 
Q 2484 409 2743 651 
Q 3003 894 3003 1313 
Q 3003 1734 2745 1975 
Q 2488 2216 2034 2216 
z
M 1403 2484 
Q 997 2584 770 2862 
Q 544 3141 544 3541 
Q 544 4100 942 4425 
Q 1341 4750 2034 4750 
Q 2731 4750 3128 4425 
Q 3525 4100 3525 3541 
Q 3525 3141 3298 2862 
Q 3072 2584 2669 2484 
Q 3125 2378 3379 2068 
Q 3634 1759 3634 1313 
Q 3634 634 3220 271 
Q 2806 -91 2034 -91 
Q 1263 -91 848 271 
Q 434 634 434 1313 
Q 434 1759 690 2068 
Q 947 2378 1403 2484 
z
M 1172 3481 
Q 1172 3119 1398 2916 
Q 1625 2713 2034 2713 
Q 2441 2713 2670 2916 
Q 2900 3119 2900 3481 
Q 2900 3844 2670 4047 
Q 2441 4250 2034 4250 
Q 1625 4250 1398 4047 
Q 1172 3844 1172 3481 
z
" id="DejaVuSans-38" transform="scale(0.015625)"/>
        <path d="M 2597 2516 
Q 3050 2419 3304 2112 
Q 3559 1806 3559 1356 
Q 3559 666 3084 287 
Q 2609 -91 1734 -91 
Q 1441 -91 1130 -33 
Q 819 25 488 141 
L 488 750 
Q 750 597 1062 519 
Q 1375 441 1716 441 
Q 2309 441 2620 675 
Q 2931 909 2931 1356 
Q 2931 1769 2642 2001 
Q 2353 2234 1838 2234 
L 1294 2234 
L 1294 2753 
L 1863 2753 
Q 2328 2753 2575 2939 
Q 2822 3125 2822 3475 
Q 2822 3834 2567 4026 
Q 2313 4219 1838 4219 
Q 1578 4219 1281 4162 
Q 984 4106 628 3988 
L 628 4550 
Q 988 4650 1302 4700 
Q 1616 4750 1894 4750 
Q 2613 4750 3031 4423 
Q 3450 4097 3450 3541 
Q 3450 3153 3228 2886 
Q 3006 2619 2597 2516 
z
" id="DejaVuSans-33" transform="scale(0.015625)"/>
       </defs>
       <use xlink:href="#DejaVuSans-38"/>
       <use x="63.623047" xlink:href="#DejaVuSans-33"/>
      </g>
     </g>
    </g>
    <g id="xtick_4">
     <g id="line2d_4">
      <g>
       <use style="stroke:#000000;stroke-width:0.8;" x="181.467523" xlink:href="#m84eadfdf54" y="307.584"/>
      </g>
     </g>
     <g id="text_4">
      <!-- 124 -->
      <g transform="translate(171.923773 322.182437)scale(0.1 -0.1)">
       <use xlink:href="#DejaVuSans-31"/>
       <use x="63.623047" xlink:href="#DejaVuSans-32"/>
       <use x="127.246094" xlink:href="#DejaVuSans-34"/>
      </g>
     </g>
    </g>
    <g id="xtick_5">
     <g id="line2d_5">
      <g>
       <use style="stroke:#000000;stroke-width:0.8;" x="217.345788" xlink:href="#m84eadfdf54" y="307.584"/>
      </g>
     </g>
     <g id="text_5">
      <!-- 165 -->
      <g transform="translate(207.802038 322.182437)scale(0.1 -0.1)">
       <defs>
        <path d="M 2113 2584 
Q 1688 2584 1439 2293 
Q 1191 2003 1191 1497 
Q 1191 994 1439 701 
Q 1688 409 2113 409 
Q 2538 409 2786 701 
Q 3034 994 3034 1497 
Q 3034 2003 2786 2293 
Q 2538 2584 2113 2584 
z
M 3366 4563 
L 3366 3988 
Q 3128 4100 2886 4159 
Q 2644 4219 2406 4219 
Q 1781 4219 1451 3797 
Q 1122 3375 1075 2522 
Q 1259 2794 1537 2939 
Q 1816 3084 2150 3084 
Q 2853 3084 3261 2657 
Q 3669 2231 3669 1497 
Q 3669 778 3244 343 
Q 2819 -91 2113 -91 
Q 1303 -91 875 529 
Q 447 1150 447 2328 
Q 447 3434 972 4092 
Q 1497 4750 2381 4750 
Q 2619 4750 2861 4703 
Q 3103 4656 3366 4563 
z
" id="DejaVuSans-36" transform="scale(0.015625)"/>
        <path d="M 691 4666 
L 3169 4666 
L 3169 4134 
L 1269 4134 
L 1269 2991 
Q 1406 3038 1543 3061 
Q 1681 3084 1819 3084 
Q 2600 3084 3056 2656 
Q 3513 2228 3513 1497 
Q 3513 744 3044 326 
Q 2575 -91 1722 -91 
Q 1428 -91 1123 -41 
Q 819 9 494 109 
L 494 744 
Q 775 591 1075 516 
Q 1375 441 1709 441 
Q 2250 441 2565 725 
Q 2881 1009 2881 1497 
Q 2881 1984 2565 2268 
Q 2250 2553 1709 2553 
Q 1456 2553 1204 2497 
Q 953 2441 691 2322 
L 691 4666 
z
" id="DejaVuSans-35" transform="scale(0.015625)"/>
       </defs>
       <use xlink:href="#DejaVuSans-31"/>
       <use x="63.623047" xlink:href="#DejaVuSans-36"/>
       <use x="127.246094" xlink:href="#DejaVuSans-35"/>
      </g>
     </g>
    </g>
    <g id="xtick_6">
     <g id="line2d_6">
      <g>
       <use style="stroke:#000000;stroke-width:0.8;" x="254.099133" xlink:href="#m84eadfdf54" y="307.584"/>
      </g>
     </g>
     <g id="text_6">
      <!-- 207 -->
      <g transform="translate(244.555383 322.182437)scale(0.1 -0.1)">
       <defs>
        <path d="M 2034 4250 
Q 1547 4250 1301 3770 
Q 1056 3291 1056 2328 
Q 1056 1369 1301 889 
Q 1547 409 2034 409 
Q 2525 409 2770 889 
Q 3016 1369 3016 2328 
Q 3016 3291 2770 3770 
Q 2525 4250 2034 4250 
z
M 2034 4750 
Q 2819 4750 3233 4129 
Q 3647 3509 3647 2328 
Q 3647 1150 3233 529 
Q 2819 -91 2034 -91 
Q 1250 -91 836 529 
Q 422 1150 422 2328 
Q 422 3509 836 4129 
Q 1250 4750 2034 4750 
z
" id="DejaVuSans-30" transform="scale(0.015625)"/>
        <path d="M 525 4666 
L 3525 4666 
L 3525 4397 
L 1831 0 
L 1172 0 
L 2766 4134 
L 525 4134 
L 525 4666 
z
" id="DejaVuSans-37" transform="scale(0.015625)"/>
       </defs>
       <use xlink:href="#DejaVuSans-32"/>
       <use x="63.623047" xlink:href="#DejaVuSans-30"/>
       <use x="127.246094" xlink:href="#DejaVuSans-37"/>
      </g>
     </g>
    </g>
    <g id="xtick_7">
     <g id="line2d_7">
      <g>
       <use style="stroke:#000000;stroke-width:0.8;" x="289.977398" xlink:href="#m84eadfdf54" y="307.584"/>
      </g>
     </g>
     <g id="text_7">
      <!-- 248 -->
      <g transform="translate(280.433648 322.182437)scale(0.1 -0.1)">
       <use xlink:href="#DejaVuSans-32"/>
       <use x="63.623047" xlink:href="#DejaVuSans-34"/>
       <use x="127.246094" xlink:href="#DejaVuSans-38"/>
      </g>
     </g>
    </g>
    <g id="xtick_8">
     <g id="line2d_8">
      <g>
       <use style="stroke:#000000;stroke-width:0.8;" x="325.855663" xlink:href="#m84eadfdf54" y="307.584"/>
      </g>
     </g>
     <g id="text_8">
      <!-- 289 -->
      <g transform="translate(316.311913 322.182437)scale(0.1 -0.1)">
       <defs>
        <path d="M 703 97 
L 703 672 
Q 941 559 1184 500 
Q 1428 441 1663 441 
Q 2288 441 2617 861 
Q 2947 1281 2994 2138 
Q 2813 1869 2534 1725 
Q 2256 1581 1919 1581 
Q 1219 1581 811 2004 
Q 403 2428 403 3163 
Q 403 3881 828 4315 
Q 1253 4750 1959 4750 
Q 2769 4750 3195 4129 
Q 3622 3509 3622 2328 
Q 3622 1225 3098 567 
Q 2575 -91 1691 -91 
Q 1453 -91 1209 -44 
Q 966 3 703 97 
z
M 1959 2075 
Q 2384 2075 2632 2365 
Q 2881 2656 2881 3163 
Q 2881 3666 2632 3958 
Q 2384 4250 1959 4250 
Q 1534 4250 1286 3958 
Q 1038 3666 1038 3163 
Q 1038 2656 1286 2365 
Q 1534 2075 1959 2075 
z
" id="DejaVuSans-39" transform="scale(0.015625)"/>
       </defs>
       <use xlink:href="#DejaVuSans-32"/>
       <use x="63.623047" xlink:href="#DejaVuSans-38"/>
       <use x="127.246094" xlink:href="#DejaVuSans-39"/>
      </g>
     </g>
    </g>
    <g id="xtick_9">
     <g id="line2d_9">
      <g>
       <use style="stroke:#000000;stroke-width:0.8;" x="361.733928" xlink:href="#m84eadfdf54" y="307.584"/>
      </g>
     </g>
     <g id="text_9">
      <!-- 330 -->
      <g transform="translate(352.190178 322.182437)scale(0.1 -0.1)">
       <use xlink:href="#DejaVuSans-33"/>
       <use x="63.623047" xlink:href="#DejaVuSans-33"/>
       <use x="127.246094" xlink:href="#DejaVuSans-30"/>
      </g>
     </g>
    </g>
    <g id="xtick_10">
     <g id="line2d_10">
      <g>
       <use style="stroke:#000000;stroke-width:0.8;" x="398.487273" xlink:href="#m84eadfdf54" y="307.584"/>
      </g>
     </g>
     <g id="text_10">
      <!-- 372 -->
      <g transform="translate(388.943523 322.182437)scale(0.1 -0.1)">
       <use xlink:href="#DejaVuSans-33"/>
       <use x="63.623047" xlink:href="#DejaVuSans-37"/>
       <use x="127.246094" xlink:href="#DejaVuSans-32"/>
      </g>
     </g>
    </g>
    <g id="text_11">
     <!-- Epochs -->
     <g transform="translate(218.244375 335.860562)scale(0.1 -0.1)">
      <defs>
       <path d="M 628 4666 
L 3578 4666 
L 3578 4134 
L 1259 4134 
L 1259 2753 
L 3481 2753 
L 3481 2222 
L 1259 2222 
L 1259 531 
L 3634 531 
L 3634 0 
L 628 0 
L 628 4666 
z
" id="DejaVuSans-45" transform="scale(0.015625)"/>
       <path d="M 1159 525 
L 1159 -1331 
L 581 -1331 
L 581 3500 
L 1159 3500 
L 1159 2969 
Q 1341 3281 1617 3432 
Q 1894 3584 2278 3584 
Q 2916 3584 3314 3078 
Q 3713 2572 3713 1747 
Q 3713 922 3314 415 
Q 2916 -91 2278 -91 
Q 1894 -91 1617 61 
Q 1341 213 1159 525 
z
M 3116 1747 
Q 3116 2381 2855 2742 
Q 2594 3103 2138 3103 
Q 1681 3103 1420 2742 
Q 1159 2381 1159 1747 
Q 1159 1113 1420 752 
Q 1681 391 2138 391 
Q 2594 391 2855 752 
Q 3116 1113 3116 1747 
z
" id="DejaVuSans-70" transform="scale(0.015625)"/>
       <path d="M 1959 3097 
Q 1497 3097 1228 2736 
Q 959 2375 959 1747 
Q 959 1119 1226 758 
Q 1494 397 1959 397 
Q 2419 397 2687 759 
Q 2956 1122 2956 1747 
Q 2956 2369 2687 2733 
Q 2419 3097 1959 3097 
z
M 1959 3584 
Q 2709 3584 3137 3096 
Q 3566 2609 3566 1747 
Q 3566 888 3137 398 
Q 2709 -91 1959 -91 
Q 1206 -91 779 398 
Q 353 888 353 1747 
Q 353 2609 779 3096 
Q 1206 3584 1959 3584 
z
" id="DejaVuSans-6f" transform="scale(0.015625)"/>
       <path d="M 3122 3366 
L 3122 2828 
Q 2878 2963 2633 3030 
Q 2388 3097 2138 3097 
Q 1578 3097 1268 2742 
Q 959 2388 959 1747 
Q 959 1106 1268 751 
Q 1578 397 2138 397 
Q 2388 397 2633 464 
Q 2878 531 3122 666 
L 3122 134 
Q 2881 22 2623 -34 
Q 2366 -91 2075 -91 
Q 1284 -91 818 406 
Q 353 903 353 1747 
Q 353 2603 823 3093 
Q 1294 3584 2113 3584 
Q 2378 3584 2631 3529 
Q 2884 3475 3122 3366 
z
" id="DejaVuSans-63" transform="scale(0.015625)"/>
       <path d="M 3513 2113 
L 3513 0 
L 2938 0 
L 2938 2094 
Q 2938 2591 2744 2837 
Q 2550 3084 2163 3084 
Q 1697 3084 1428 2787 
Q 1159 2491 1159 1978 
L 1159 0 
L 581 0 
L 581 4863 
L 1159 4863 
L 1159 2956 
Q 1366 3272 1645 3428 
Q 1925 3584 2291 3584 
Q 2894 3584 3203 3211 
Q 3513 2838 3513 2113 
z
" id="DejaVuSans-68" transform="scale(0.015625)"/>
       <path d="M 2834 3397 
L 2834 2853 
Q 2591 2978 2328 3040 
Q 2066 3103 1784 3103 
Q 1356 3103 1142 2972 
Q 928 2841 928 2578 
Q 928 2378 1081 2264 
Q 1234 2150 1697 2047 
L 1894 2003 
Q 2506 1872 2764 1633 
Q 3022 1394 3022 966 
Q 3022 478 2636 193 
Q 2250 -91 1575 -91 
Q 1294 -91 989 -36 
Q 684 19 347 128 
L 347 722 
Q 666 556 975 473 
Q 1284 391 1588 391 
Q 1994 391 2212 530 
Q 2431 669 2431 922 
Q 2431 1156 2273 1281 
Q 2116 1406 1581 1522 
L 1381 1569 
Q 847 1681 609 1914 
Q 372 2147 372 2553 
Q 372 3047 722 3315 
Q 1072 3584 1716 3584 
Q 2034 3584 2315 3537 
Q 2597 3491 2834 3397 
z
" id="DejaVuSans-73" transform="scale(0.015625)"/>
      </defs>
      <use xlink:href="#DejaVuSans-45"/>
      <use x="63.183594" xlink:href="#DejaVuSans-70"/>
      <use x="126.660156" xlink:href="#DejaVuSans-6f"/>
      <use x="187.841797" xlink:href="#DejaVuSans-63"/>
      <use x="242.822266" xlink:href="#DejaVuSans-68"/>
      <use x="306.201172" xlink:href="#DejaVuSans-73"/>
     </g>
    </g>
   </g>
   <g id="matplotlib.axis_2">
    <g id="ytick_1">
     <g id="line2d_11">
      <defs>
       <path d="M 0 0 
L -3.5 0 
" id="m6768af72fa" style="stroke:#000000;stroke-width:0.8;"/>
      </defs>
      <g>
       <use style="stroke:#000000;stroke-width:0.8;" x="57.6" xlink:href="#m6768af72fa" y="279.171431"/>
      </g>
     </g>
     <g id="text_12">
      <!-- 10 -->
      <g transform="translate(37.875 282.97065)scale(0.1 -0.1)">
       <use xlink:href="#DejaVuSans-31"/>
       <use x="63.623047" xlink:href="#DejaVuSans-30"/>
      </g>
     </g>
    </g>
    <g id="ytick_2">
     <g id="line2d_12">
      <g>
       <use style="stroke:#000000;stroke-width:0.8;" x="57.6" xlink:href="#m6768af72fa" y="248.292232"/>
      </g>
     </g>
     <g id="text_13">
      <!-- 20 -->
      <g transform="translate(37.875 252.09145)scale(0.1 -0.1)">
       <use xlink:href="#DejaVuSans-32"/>
       <use x="63.623047" xlink:href="#DejaVuSans-30"/>
      </g>
     </g>
    </g>
    <g id="ytick_3">
     <g id="line2d_13">
      <g>
       <use style="stroke:#000000;stroke-width:0.8;" x="57.6" xlink:href="#m6768af72fa" y="217.413032"/>
      </g>
     </g>
     <g id="text_14">
      <!-- 30 -->
      <g transform="translate(37.875 221.212251)scale(0.1 -0.1)">
       <use xlink:href="#DejaVuSans-33"/>
       <use x="63.623047" xlink:href="#DejaVuSans-30"/>
      </g>
     </g>
    </g>
    <g id="ytick_4">
     <g id="line2d_14">
      <g>
       <use style="stroke:#000000;stroke-width:0.8;" x="57.6" xlink:href="#m6768af72fa" y="186.533833"/>
      </g>
     </g>
     <g id="text_15">
      <!-- 40 -->
      <g transform="translate(37.875 190.333051)scale(0.1 -0.1)">
       <use xlink:href="#DejaVuSans-34"/>
       <use x="63.623047" xlink:href="#DejaVuSans-30"/>
      </g>
     </g>
    </g>
    <g id="ytick_5">
     <g id="line2d_15">
      <g>
       <use style="stroke:#000000;stroke-width:0.8;" x="57.6" xlink:href="#m6768af72fa" y="155.654633"/>
      </g>
     </g>
     <g id="text_16">
      <!-- 50 -->
      <g transform="translate(37.875 159.453852)scale(0.1 -0.1)">
       <use xlink:href="#DejaVuSans-35"/>
       <use x="63.623047" xlink:href="#DejaVuSans-30"/>
      </g>
     </g>
    </g>
    <g id="ytick_6">
     <g id="line2d_16">
      <g>
       <use style="stroke:#000000;stroke-width:0.8;" x="57.6" xlink:href="#m6768af72fa" y="124.775434"/>
      </g>
     </g>
     <g id="text_17">
      <!-- 60 -->
      <g transform="translate(37.875 128.574653)scale(0.1 -0.1)">
       <use xlink:href="#DejaVuSans-36"/>
       <use x="63.623047" xlink:href="#DejaVuSans-30"/>
      </g>
     </g>
    </g>
    <g id="ytick_7">
     <g id="line2d_17">
      <g>
       <use style="stroke:#000000;stroke-width:0.8;" x="57.6" xlink:href="#m6768af72fa" y="93.896234"/>
      </g>
     </g>
     <g id="text_18">
      <!-- 70 -->
      <g transform="translate(37.875 97.695453)scale(0.1 -0.1)">
       <use xlink:href="#DejaVuSans-37"/>
       <use x="63.623047" xlink:href="#DejaVuSans-30"/>
      </g>
     </g>
    </g>
    <g id="ytick_8">
     <g id="line2d_18">
      <g>
       <use style="stroke:#000000;stroke-width:0.8;" x="57.6" xlink:href="#m6768af72fa" y="63.017035"/>
      </g>
     </g>
     <g id="text_19">
      <!-- 80 -->
      <g transform="translate(37.875 66.816254)scale(0.1 -0.1)">
       <use xlink:href="#DejaVuSans-38"/>
       <use x="63.623047" xlink:href="#DejaVuSans-30"/>
      </g>
     </g>
    </g>
    <g id="text_20">
     <!-- Accuracy -->
     <g transform="translate(31.795312 197.356125)rotate(-90)scale(0.1 -0.1)">
      <defs>
       <path d="M 2188 4044 
L 1331 1722 
L 3047 1722 
L 2188 4044 
z
M 1831 4666 
L 2547 4666 
L 4325 0 
L 3669 0 
L 3244 1197 
L 1141 1197 
L 716 0 
L 50 0 
L 1831 4666 
z
" id="DejaVuSans-41" transform="scale(0.015625)"/>
       <path d="M 544 1381 
L 544 3500 
L 1119 3500 
L 1119 1403 
Q 1119 906 1312 657 
Q 1506 409 1894 409 
Q 2359 409 2629 706 
Q 2900 1003 2900 1516 
L 2900 3500 
L 3475 3500 
L 3475 0 
L 2900 0 
L 2900 538 
Q 2691 219 2414 64 
Q 2138 -91 1772 -91 
Q 1169 -91 856 284 
Q 544 659 544 1381 
z
M 1991 3584 
L 1991 3584 
z
" id="DejaVuSans-75" transform="scale(0.015625)"/>
       <path d="M 2631 2963 
Q 2534 3019 2420 3045 
Q 2306 3072 2169 3072 
Q 1681 3072 1420 2755 
Q 1159 2438 1159 1844 
L 1159 0 
L 581 0 
L 581 3500 
L 1159 3500 
L 1159 2956 
Q 1341 3275 1631 3429 
Q 1922 3584 2338 3584 
Q 2397 3584 2469 3576 
Q 2541 3569 2628 3553 
L 2631 2963 
z
" id="DejaVuSans-72" transform="scale(0.015625)"/>
       <path d="M 2194 1759 
Q 1497 1759 1228 1600 
Q 959 1441 959 1056 
Q 959 750 1161 570 
Q 1363 391 1709 391 
Q 2188 391 2477 730 
Q 2766 1069 2766 1631 
L 2766 1759 
L 2194 1759 
z
M 3341 1997 
L 3341 0 
L 2766 0 
L 2766 531 
Q 2569 213 2275 61 
Q 1981 -91 1556 -91 
Q 1019 -91 701 211 
Q 384 513 384 1019 
Q 384 1609 779 1909 
Q 1175 2209 1959 2209 
L 2766 2209 
L 2766 2266 
Q 2766 2663 2505 2880 
Q 2244 3097 1772 3097 
Q 1472 3097 1187 3025 
Q 903 2953 641 2809 
L 641 3341 
Q 956 3463 1253 3523 
Q 1550 3584 1831 3584 
Q 2591 3584 2966 3190 
Q 3341 2797 3341 1997 
z
" id="DejaVuSans-61" transform="scale(0.015625)"/>
       <path d="M 2059 -325 
Q 1816 -950 1584 -1140 
Q 1353 -1331 966 -1331 
L 506 -1331 
L 506 -850 
L 844 -850 
Q 1081 -850 1212 -737 
Q 1344 -625 1503 -206 
L 1606 56 
L 191 3500 
L 800 3500 
L 1894 763 
L 2988 3500 
L 3597 3500 
L 2059 -325 
z
" id="DejaVuSans-79" transform="scale(0.015625)"/>
      </defs>
      <use xlink:href="#DejaVuSans-41"/>
      <use x="66.658203" xlink:href="#DejaVuSans-63"/>
      <use x="121.638672" xlink:href="#DejaVuSans-63"/>
      <use x="176.619141" xlink:href="#DejaVuSans-75"/>
      <use x="239.998047" xlink:href="#DejaVuSans-72"/>
      <use x="281.111328" xlink:href="#DejaVuSans-61"/>
      <use x="342.390625" xlink:href="#DejaVuSans-63"/>
      <use x="397.371094" xlink:href="#DejaVuSans-79"/>
     </g>
    </g>
   </g>
   <g id="line2d_19">
    <path clip-path="url(#p2af7777ed9)" d="M 73.832727 295.488 
L 74.707807 286.848 
L 76.457966 268.406942 
L 79.958285 235.891145 
L 80.833364 226.905298 
L 81.708444 226.392703 
L 82.583524 216.208743 
L 83.458603 211.169258 
L 84.333683 241.122081 
L 85.208763 229.672074 
L 86.083842 225.602196 
L 86.958922 218.685255 
L 87.834001 218.895234 
L 88.709081 213.936034 
L 89.584161 207.303182 
L 90.45924 204.789615 
L 91.33432 203.61003 
L 92.2094 193.358136 
L 93.084479 193.883082 
L 93.959559 190.214633 
L 94.834639 188.763311 
L 95.709718 183.01978 
L 96.584798 179.684826 
L 97.459877 177.010688 
L 98.334957 177.591217 
L 99.210037 174.663868 
L 100.085116 171.174519 
L 100.960196 165.968286 
L 101.835276 166.845255 
L 102.710355 162.491288 
L 103.585435 160.904097 
L 104.460515 163.769687 
L 105.335594 194.685941 
L 107.085753 183.229758 
L 107.960833 181.358479 
L 108.835913 183.143297 
L 109.710992 180.981753 
L 110.586072 181.469644 
L 111.461152 172.273818 
L 112.336231 177.208315 
L 113.211311 169.321767 
L 114.086391 164.955448 
L 115.83655 165.017207 
L 116.71163 163.040938 
L 117.586709 170.489001 
L 118.461789 165.418636 
L 119.336868 152.325856 
L 120.211948 161.354934 
L 121.087028 158.668443 
L 121.962107 150.578093 
L 122.837187 157.766771 
L 123.712267 157.643254 
L 124.587346 155.00617 
L 125.462426 150.392818 
L 126.337506 148.472132 
L 127.212585 144.210802 
L 128.087665 147.588986 
L 129.837824 139.696263 
L 130.712904 134.378865 
L 131.587983 136.577464 
L 132.463063 136.392189 
L 133.338143 130.877164 
L 134.213222 136.101924 
L 135.088302 129.277621 
L 135.963382 127.381638 
L 136.838461 127.641024 
L 137.713541 129.963139 
L 138.58862 126.22058 
L 139.4637 128.975005 
L 140.33878 118.377264 
L 141.213859 125.355963 
L 142.088939 125.782096 
L 142.964019 124.688972 
L 143.839098 125.887085 
L 144.714178 121.520766 
L 145.589258 120.14973 
L 146.464337 119.958279 
L 147.339417 148.706813 
L 148.214496 149.497321 
L 149.089576 155.524941 
L 149.964656 149.67642 
L 150.839735 148.583297 
L 151.714815 151.442711 
L 152.589895 152.381438 
L 153.464974 145.884455 
L 154.340054 141.042596 
L 155.215134 145.946213 
L 156.965293 141.839279 
L 157.840372 141.406971 
L 158.715452 145.198936 
L 159.590532 142.648315 
L 160.465611 130.197821 
L 161.340691 139.622153 
L 162.215771 133.674819 
L 163.09085 135.052031 
L 163.96593 125.411545 
L 164.84101 134.737064 
L 165.716089 134.385041 
L 166.591169 135.002625 
L 167.466248 133.538951 
L 168.341328 128.783554 
L 169.216408 132.859608 
L 170.091487 136.157507 
L 170.966567 128.233904 
L 171.841647 121.675162 
L 172.716726 123.812003 
L 173.591806 125.108929 
L 174.466886 114.931145 
L 175.341965 125.176863 
L 176.217045 120.612918 
L 177.092124 121.14404 
L 177.967204 123.033847 
L 178.842284 120.853776 
L 179.717363 122.854748 
L 180.592443 124.034333 
L 181.467523 109.459351 
L 182.342602 119.630959 
L 183.217682 115.165827 
L 184.092762 117.58058 
L 184.967841 114.159165 
L 185.842921 113.541581 
L 186.718 106.210859 
L 187.59308 110.311617 
L 188.46816 109.842253 
L 189.343239 111.534433 
L 190.218319 105.840309 
L 191.093399 108.607085 
L 191.968478 102.993247 
L 192.843558 104.456921 
L 193.718638 100.893461 
L 194.593717 106.661695 
L 195.468797 103.71582 
L 196.343877 98.31196 
L 197.218956 102.86973 
L 198.094036 103.252632 
L 198.969115 95.823096 
L 199.844195 102.665927 
L 200.719275 94.699094 
L 201.594354 91.104755 
L 202.469434 91.259151 
L 204.219593 99.275391 
L 205.094673 92.037307 
L 205.969753 93.68008 
L 206.844832 95.736635 
L 207.719912 88.128 
L 208.594991 97.052089 
L 209.470071 93.395991 
L 210.345151 93.247771 
L 211.22023 90.357478 
L 212.09531 93.587442 
L 212.97039 93.167485 
L 213.845469 89.764598 
L 214.720549 92.698122 
L 215.595629 84.860981 
L 216.470708 90.29572 
L 217.345788 87.590702 
L 218.220867 85.670016 
L 219.095947 91.370316 
L 219.971027 91.197392 
L 220.846106 90.839194 
L 221.721186 87.263382 
L 222.596266 78.611031 
L 223.471345 92.204054 
L 224.346425 86.102325 
L 225.221505 97.058264 
L 226.096584 90.728029 
L 226.971664 88.041538 
L 227.846743 89.035848 
L 228.721823 84.243397 
L 229.596903 80.865212 
L 230.471982 95.495777 
L 231.347062 120.322653 
L 232.222142 115.233761 
L 233.097221 113.856549 
L 233.972301 119.044254 
L 234.847381 115.968686 
L 235.72246 114.332089 
L 236.59754 116.672732 
L 237.472619 111.50973 
L 238.347699 114.776749 
L 239.222779 124.985412 
L 240.097858 120.390588 
L 240.972938 111.867929 
L 241.848018 117.376778 
L 243.598177 107.970974 
L 244.473257 104.864526 
L 245.348336 103.623182 
L 246.223416 104.271645 
L 247.098495 106.501124 
L 247.973575 118.939265 
L 248.848655 107.168114 
L 249.723734 110.367199 
L 250.598814 109.589044 
L 251.473894 105.655034 
L 252.348973 112.442282 
L 253.224053 106.340552 
L 254.099133 109.422296 
L 254.974212 104.549558 
L 255.849292 105.846485 
L 256.724371 105.068329 
L 257.599451 111.843225 
L 258.474531 106.853147 
L 259.34961 94.884369 
L 260.22469 104.673075 
L 261.09977 103.264984 
L 261.974849 103.845513 
L 262.849929 94.828786 
L 263.725009 101.708672 
L 264.600088 103.586127 
L 265.475168 109.558164 
L 266.350247 101.035505 
L 267.225327 102.505355 
L 268.100407 98.614576 
L 268.975486 102.431245 
L 269.850566 94.85349 
L 270.725646 97.021209 
L 271.600725 96.638307 
L 272.475805 96.378922 
L 274.225964 102.72151 
L 275.101044 99.479194 
L 275.976123 98.997478 
L 276.851203 97.749959 
L 277.726283 104.93246 
L 278.601362 95.051117 
L 279.476442 97.898179 
L 280.351522 92.364626 
L 281.226601 91.740866 
L 282.101681 100.634076 
L 282.976761 92.222582 
L 283.85184 95.335205 
L 284.72692 93.939465 
L 285.602 100.220294 
L 286.477079 100.084426 
L 287.352159 90.166027 
L 288.227238 94.983182 
L 289.102318 95.427843 
L 289.977398 85.274762 
L 290.852477 88.467671 
L 291.727557 92.420209 
L 292.602637 90.59216 
L 293.477716 92.049658 
L 294.352796 85.639137 
L 295.227876 94.161796 
L 296.102955 86.942239 
L 296.978035 88.121824 
L 297.853114 91.36414 
L 298.728194 93.575091 
L 299.603274 86.485227 
L 300.478353 89.962224 
L 301.353433 94.729973 
L 302.228513 87.448658 
L 303.103592 93.544212 
L 303.978672 82.625327 
L 304.853752 86.837249 
L 305.728831 87.35602 
L 306.603911 88.75176 
L 307.47899 84.793046 
L 308.35407 76.820037 
L 309.22915 84.11988 
L 310.104229 74.442339 
L 310.979309 77.443797 
L 311.854389 82.927943 
L 312.729468 87.68334 
L 313.604548 81.692775 
L 314.479628 81.945984 
L 315.354707 87.794505 
L 316.229787 85.466213 
L 317.104866 89.035848 
L 317.979946 80.179694 
L 318.855026 88.208286 
L 319.730105 74.41146 
L 320.605185 73.577721 
L 321.480265 74.862296 
L 322.355344 92.741352 
L 323.230424 81.223411 
L 324.105504 79.203911 
L 324.980583 86.682853 
L 325.855663 76.035706 
L 326.730742 72.552532 
L 327.605822 79.926485 
L 328.480902 79.327428 
L 329.355981 70.656549 
L 330.231061 75.634276 
L 331.106141 72.015234 
L 331.98122 73.559194 
L 332.8563 77.86993 
L 333.73138 81.606313 
L 334.606459 78.573976 
L 335.481539 74.392932 
L 336.356618 73.503611 
L 337.231698 74.584383 
L 338.106778 85.429158 
L 338.981857 74.911703 
L 339.856937 86.546985 
L 340.732017 77.02384 
L 341.607096 71.928772 
L 342.482176 75.887485 
L 343.357256 73.892689 
L 344.232335 77.493204 
L 345.107415 74.985813 
L 345.982494 79.796792 
L 346.857574 71.570573 
L 347.732654 70.767714 
L 348.607733 78.296063 
L 349.482813 66.123482 
L 350.357893 74.399108 
L 351.232972 71.558222 
L 352.108052 69.612832 
L 352.983132 69.217578 
L 353.858211 71.200023 
L 354.733291 66.975748 
L 355.60837 70.848 
L 356.48345 76.869444 
L 357.35853 77.925513 
L 358.233609 71.873189 
L 359.108689 74.683197 
L 359.983769 66.771946 
L 360.858848 74.386756 
L 361.733928 74.423811 
L 362.609008 70.360109 
L 363.484087 72.194333 
L 364.359167 77.839051 
L 365.234247 75.263726 
L 366.109326 68.38384 
L 366.984406 66.061724 
L 367.859485 65.215634 
L 368.734565 64.962425 
L 369.609645 71.496463 
L 370.484724 76.258036 
L 371.359804 73.954447 
L 372.234884 63.257893 
L 373.109963 66.636077 
L 373.985043 67.865069 
L 374.860123 64.993304 
L 375.735202 75.658979 
L 376.610282 75.912189 
L 377.485361 70.613318 
L 378.360441 66.790473 
L 379.235521 62.257407 
L 380.1106 67.408057 
L 380.98568 67.61186 
L 381.86076 68.414719 
L 382.735839 68.019465 
L 383.610919 77.369687 
L 384.485999 64.882139 
L 386.236158 67.753904 
L 387.111237 60.460237 
L 387.986317 69.050831 
L 388.861397 65.925856 
L 389.736476 60.725798 
L 390.611556 66.024669 
L 391.486636 70.069844 
L 392.361715 70.909758 
L 393.236795 56.964712 
L 394.111875 72.441367 
L 394.986954 68.865555 
L 395.862034 66.889287 
L 396.737113 71.150616 
L 397.612193 62.739122 
L 398.487273 64.740094 
L 398.487273 64.740094 
" style="fill:none;stroke:#1f77b4;stroke-linecap:square;stroke-width:1.5;"/>
   </g>
   <g id="line2d_20">
    <path clip-path="url(#p2af7777ed9)" d="M 73.832727 282.506385 
L 74.707807 269.722396 
L 75.582887 264.874362 
L 76.457966 244.000023 
L 77.333046 239.738693 
L 78.208125 221.396449 
L 79.083205 224.05206 
L 79.958285 202.652775 
L 80.833364 186.472074 
L 81.708444 179.153704 
L 82.583524 163.065641 
L 83.458603 162.170144 
L 84.333683 210.55785 
L 86.083842 195.025613 
L 86.958922 183.445913 
L 87.834001 194.438908 
L 88.709081 169.117964 
L 89.584161 159.23662 
L 90.45924 158.649916 
L 91.33432 151.362425 
L 92.2094 155.592875 
L 93.084479 148.120109 
L 93.959559 134.903811 
L 94.834639 139.59745 
L 95.709718 126.412031 
L 96.584798 121.656635 
L 97.459877 118.970144 
L 98.334957 115.696949 
L 99.210037 108.440337 
L 100.085116 108.378579 
L 100.960196 102.110102 
L 101.835276 101.832189 
L 103.585435 99.608886 
L 104.460515 100.442625 
L 105.335594 152.628472 
L 106.210674 148.892089 
L 107.085753 126.412031 
L 107.960833 141.697235 
L 108.835913 126.689944 
L 109.710992 123.75642 
L 110.586072 131.383583 
L 111.461152 115.079365 
L 112.336231 118.35256 
L 113.211311 116.43805 
L 114.086391 114.152989 
L 114.96147 109.89166 
L 115.83655 103.31439 
L 116.71163 105.198021 
L 117.586709 103.098236 
L 118.461789 104.950988 
L 119.336868 102.635048 
L 120.211948 102.449773 
L 121.087028 98.188443 
L 121.962107 94.637335 
L 122.837187 92.414033 
L 123.712267 91.73469 
L 125.462426 87.288086 
L 126.337506 89.140838 
L 127.212585 84.972146 
L 128.087665 86.145555 
L 128.962744 82.069501 
L 129.837824 79.938836 
L 130.712904 78.950702 
L 131.587983 78.827185 
L 132.463063 81.3284 
L 133.338143 76.7274 
L 134.213222 74.071788 
L 135.088302 74.905527 
L 135.963382 72.496949 
L 136.838461 73.392446 
L 137.713541 71.663211 
L 138.58862 71.570573 
L 139.4637 69.409029 
L 140.33878 70.304526 
L 142.088939 69.501667 
L 142.964019 68.60617 
L 144.714178 69.131117 
L 145.589258 68.266499 
L 146.464337 68.204741 
L 147.339417 100.473504 
L 148.214496 100.041195 
L 149.089576 98.466356 
L 149.964656 95.100523 
L 150.839735 96.984154 
L 151.714815 107.297807 
L 152.589895 94.112389 
L 153.464974 95.59459 
L 154.340054 93.433046 
L 155.215134 90.839194 
L 156.090213 90.870073 
L 156.965293 85.96028 
L 157.840372 86.454347 
L 158.715452 87.627757 
L 159.590532 85.867643 
L 160.465611 87.288086 
L 162.215771 85.713247 
L 163.09085 85.96028 
L 163.96593 84.508958 
L 164.84101 81.081367 
L 165.716089 81.019608 
L 166.591169 78.456635 
L 167.466248 81.204883 
L 168.341328 84.663354 
L 169.216408 77.4685 
L 170.091487 75.801024 
L 170.966567 77.283225 
L 171.841647 74.442339 
L 172.716726 78.858064 
L 173.591806 74.473218 
L 174.466886 77.375863 
L 175.341965 76.69652 
L 176.217045 72.898379 
L 177.092124 72.589587 
L 177.967204 77.283225 
L 178.842284 75.95542 
L 179.717363 71.169144 
L 180.592443 72.558708 
L 181.467523 71.601452 
L 182.342602 76.881796 
L 183.217682 73.114533 
L 184.092762 70.983868 
L 184.967841 72.898379 
L 185.842921 71.076506 
L 186.718 69.625184 
L 187.59308 71.107385 
L 188.46816 67.371002 
L 189.343239 67.648915 
L 190.218319 68.266499 
L 191.093399 68.698808 
L 191.968478 68.204741 
L 193.718638 64.808029 
L 194.593717 65.857921 
L 195.468797 65.610888 
L 196.343877 64.900666 
L 200.719275 63.418465 
L 201.594354 63.819894 
L 202.469434 62.399451 
L 203.344514 61.442196 
L 204.219593 63.572861 
L 205.094673 61.936263 
L 205.969753 61.318679 
L 206.844832 61.627471 
L 207.719912 60.083511 
L 208.594991 60.701095 
L 209.470071 60.454061 
L 210.345151 60.731974 
L 211.22023 59.990873 
L 212.09531 59.929115 
L 212.97039 58.879222 
L 213.845469 58.848343 
L 215.595629 59.867357 
L 217.345788 58.138122 
L 218.220867 58.323397 
L 219.095947 58.755706 
L 219.971027 58.261638 
L 220.846106 58.60131 
L 221.721186 57.613175 
L 222.596266 58.169001 
L 225.221505 58.323397 
L 226.096584 57.644054 
L 226.971664 57.489658 
L 227.846743 58.477793 
L 228.721823 57.767571 
L 229.596903 58.477793 
L 230.471982 57.582296 
L 231.347062 82.316535 
L 232.222142 79.475648 
L 233.097221 82.069501 
L 233.972301 77.221467 
L 234.847381 77.746413 
L 235.72246 76.7274 
L 236.59754 81.945984 
L 237.472619 78.024326 
L 238.347699 75.368715 
L 239.222779 74.689372 
L 240.097858 76.665641 
L 240.972938 75.18344 
L 241.848018 75.584869 
L 242.723097 81.204883 
L 243.598177 73.176292 
L 244.473257 76.171574 
L 245.348336 73.330688 
L 246.223416 74.967285 
L 247.098495 72.373432 
L 247.973575 76.202453 
L 248.848655 74.874648 
L 249.723734 75.615748 
L 250.598814 72.157278 
L 251.473894 73.330688 
L 252.348973 70.829472 
L 253.224053 70.582439 
L 254.099133 71.786728 
L 254.974212 73.515963 
L 255.849292 73.824755 
L 256.724371 70.026613 
L 257.599451 73.701238 
L 258.474531 72.219036 
L 259.34961 69.161996 
L 260.22469 70.705956 
L 261.09977 68.822325 
L 261.974849 68.60617 
L 262.849929 74.565856 
L 263.725009 70.582439 
L 264.600088 71.941124 
L 265.475168 71.107385 
L 266.350247 71.169144 
L 267.225327 70.675076 
L 268.100407 69.933976 
L 268.975486 68.667929 
L 269.850566 71.539694 
L 270.725646 70.15013 
L 272.475805 71.570573 
L 273.350885 66.568143 
L 274.225964 67.06221 
L 275.101044 66.969573 
L 275.976123 67.216606 
L 276.851203 69.254633 
L 277.726283 67.926828 
L 278.601362 66.012317 
L 279.476442 70.489801 
L 280.351522 65.950559 
L 281.226601 70.304526 
L 282.101681 69.038479 
L 282.976761 67.556277 
L 283.85184 68.081224 
L 284.72692 67.46364 
L 285.602 67.154848 
L 287.352159 66.969573 
L 288.227238 67.000452 
L 289.102318 67.895949 
L 289.977398 67.401881 
L 290.852477 64.005169 
L 291.727557 68.050345 
L 292.602637 66.722539 
L 293.477716 64.962425 
L 294.352796 67.556277 
L 295.227876 63.789015 
L 296.102955 62.090659 
L 296.978035 65.981438 
L 297.853114 64.159565 
L 298.728194 64.684512 
L 299.603274 62.028901 
L 300.478353 64.962425 
L 301.353433 63.356706 
L 302.228513 64.622753 
L 303.103592 62.677364 
L 303.978672 63.047914 
L 304.853752 63.109673 
L 305.728831 62.214176 
L 307.47899 64.499237 
L 308.35407 62.986156 
L 309.22915 63.541981 
L 310.104229 61.102525 
L 310.979309 63.294948 
L 311.854389 60.51582 
L 312.729468 62.306813 
L 313.604548 63.387585 
L 314.479628 60.639337 
L 315.354707 60.855491 
L 316.229787 62.152417 
L 317.104866 61.905384 
L 317.979946 61.133404 
L 318.855026 59.836477 
L 319.730105 59.929115 
L 320.605185 61.411317 
L 321.480265 59.496806 
L 322.355344 61.009887 
L 323.230424 60.361424 
L 324.105504 61.164283 
L 324.980583 61.009887 
L 325.855663 58.045484 
L 326.730742 60.176149 
L 327.605822 60.145269 
L 328.480902 59.805598 
L 329.355981 59.126256 
L 330.231061 59.527685 
L 331.106141 58.292518 
L 331.98122 59.404169 
L 332.8563 58.786585 
L 333.73138 60.454061 
L 334.606459 58.848343 
L 335.481539 58.292518 
L 336.356618 60.361424 
L 337.231698 59.959994 
L 338.106778 58.97186 
L 338.981857 56.223611 
L 339.856937 59.651202 
L 340.732017 56.779437 
L 341.607096 57.983726 
L 344.232335 57.613175 
L 345.107415 56.717678 
L 345.982494 58.076363 
L 346.857574 58.416034 
L 347.732654 57.860209 
L 348.607733 57.79845 
L 349.482813 58.138122 
L 350.357893 56.717678 
L 351.232972 56.933833 
L 352.108052 56.347128 
L 352.983132 56.378007 
L 353.858211 56.902954 
L 354.733291 56.748558 
L 355.60837 56.995591 
L 356.48345 55.358994 
L 357.35853 55.791302 
L 358.233609 56.069215 
L 359.108689 55.822182 
L 359.983769 56.316249 
L 360.858848 55.081081 
L 361.733928 55.389873 
L 362.609008 55.544269 
L 363.484087 55.51339 
L 364.359167 55.822182 
L 366.109326 55.48251 
L 366.984406 55.544269 
L 367.859485 55.204598 
L 368.734565 55.853061 
L 369.609645 54.988443 
L 370.484724 55.11196 
L 371.359804 54.401738 
L 373.985043 54.154705 
L 374.860123 53.568 
L 375.735202 55.050202 
L 377.485361 54.33998 
L 378.360441 54.74141 
L 379.235521 54.71053 
L 380.1106 55.081081 
L 380.98568 54.278222 
L 382.735839 54.216463 
L 383.610919 54.432618 
L 384.485999 54.031188 
L 385.361078 54.617893 
L 386.236158 54.401738 
L 387.111237 54.33998 
L 388.861397 54.617893 
L 389.736476 53.815034 
L 390.611556 54.370859 
L 391.486636 54.463497 
L 392.361715 55.081081 
L 393.236795 53.96943 
L 394.986954 54.278222 
L 395.862034 54.617893 
L 396.737113 54.000309 
L 397.612193 54.247342 
L 398.487273 54.216463 
L 398.487273 54.216463 
" style="fill:none;stroke:#ff7f0e;stroke-linecap:square;stroke-width:1.5;"/>
   </g>
   <g id="patch_3">
    <path d="M 57.6 307.584 
L 57.6 41.472 
" style="fill:none;stroke:#000000;stroke-linecap:square;stroke-linejoin:miter;stroke-width:0.8;"/>
   </g>
   <g id="patch_4">
    <path d="M 414.72 307.584 
L 414.72 41.472 
" style="fill:none;stroke:#000000;stroke-linecap:square;stroke-linejoin:miter;stroke-width:0.8;"/>
   </g>
   <g id="patch_5">
    <path d="M 57.6 307.584 
L 414.72 307.584 
" style="fill:none;stroke:#000000;stroke-linecap:square;stroke-linejoin:miter;stroke-width:0.8;"/>
   </g>
   <g id="patch_6">
    <path d="M 57.6 41.472 
L 414.72 41.472 
" style="fill:none;stroke:#000000;stroke-linecap:square;stroke-linejoin:miter;stroke-width:0.8;"/>
   </g>
   <g id="text_21">
    <!-- Training and Validation Accuracy -->
    <g transform="translate(138.4575 35.472)scale(0.12 -0.12)">
     <defs>
      <path d="M -19 4666 
L 3928 4666 
L 3928 4134 
L 2272 4134 
L 2272 0 
L 1638 0 
L 1638 4134 
L -19 4134 
L -19 4666 
z
" id="DejaVuSans-54" transform="scale(0.015625)"/>
      <path d="M 603 3500 
L 1178 3500 
L 1178 0 
L 603 0 
L 603 3500 
z
M 603 4863 
L 1178 4863 
L 1178 4134 
L 603 4134 
L 603 4863 
z
" id="DejaVuSans-69" transform="scale(0.015625)"/>
      <path d="M 3513 2113 
L 3513 0 
L 2938 0 
L 2938 2094 
Q 2938 2591 2744 2837 
Q 2550 3084 2163 3084 
Q 1697 3084 1428 2787 
Q 1159 2491 1159 1978 
L 1159 0 
L 581 0 
L 581 3500 
L 1159 3500 
L 1159 2956 
Q 1366 3272 1645 3428 
Q 1925 3584 2291 3584 
Q 2894 3584 3203 3211 
Q 3513 2838 3513 2113 
z
" id="DejaVuSans-6e" transform="scale(0.015625)"/>
      <path d="M 2906 1791 
Q 2906 2416 2648 2759 
Q 2391 3103 1925 3103 
Q 1463 3103 1205 2759 
Q 947 2416 947 1791 
Q 947 1169 1205 825 
Q 1463 481 1925 481 
Q 2391 481 2648 825 
Q 2906 1169 2906 1791 
z
M 3481 434 
Q 3481 -459 3084 -895 
Q 2688 -1331 1869 -1331 
Q 1566 -1331 1297 -1286 
Q 1028 -1241 775 -1147 
L 775 -588 
Q 1028 -725 1275 -790 
Q 1522 -856 1778 -856 
Q 2344 -856 2625 -561 
Q 2906 -266 2906 331 
L 2906 616 
Q 2728 306 2450 153 
Q 2172 0 1784 0 
Q 1141 0 747 490 
Q 353 981 353 1791 
Q 353 2603 747 3093 
Q 1141 3584 1784 3584 
Q 2172 3584 2450 3431 
Q 2728 3278 2906 2969 
L 2906 3500 
L 3481 3500 
L 3481 434 
z
" id="DejaVuSans-67" transform="scale(0.015625)"/>
      <path id="DejaVuSans-20" transform="scale(0.015625)"/>
      <path d="M 2906 2969 
L 2906 4863 
L 3481 4863 
L 3481 0 
L 2906 0 
L 2906 525 
Q 2725 213 2448 61 
Q 2172 -91 1784 -91 
Q 1150 -91 751 415 
Q 353 922 353 1747 
Q 353 2572 751 3078 
Q 1150 3584 1784 3584 
Q 2172 3584 2448 3432 
Q 2725 3281 2906 2969 
z
M 947 1747 
Q 947 1113 1208 752 
Q 1469 391 1925 391 
Q 2381 391 2643 752 
Q 2906 1113 2906 1747 
Q 2906 2381 2643 2742 
Q 2381 3103 1925 3103 
Q 1469 3103 1208 2742 
Q 947 2381 947 1747 
z
" id="DejaVuSans-64" transform="scale(0.015625)"/>
      <path d="M 1831 0 
L 50 4666 
L 709 4666 
L 2188 738 
L 3669 4666 
L 4325 4666 
L 2547 0 
L 1831 0 
z
" id="DejaVuSans-56" transform="scale(0.015625)"/>
      <path d="M 603 4863 
L 1178 4863 
L 1178 0 
L 603 0 
L 603 4863 
z
" id="DejaVuSans-6c" transform="scale(0.015625)"/>
      <path d="M 1172 4494 
L 1172 3500 
L 2356 3500 
L 2356 3053 
L 1172 3053 
L 1172 1153 
Q 1172 725 1289 603 
Q 1406 481 1766 481 
L 2356 481 
L 2356 0 
L 1766 0 
Q 1100 0 847 248 
Q 594 497 594 1153 
L 594 3053 
L 172 3053 
L 172 3500 
L 594 3500 
L 594 4494 
L 1172 4494 
z
" id="DejaVuSans-74" transform="scale(0.015625)"/>
     </defs>
     <use xlink:href="#DejaVuSans-54"/>
     <use x="46.333984" xlink:href="#DejaVuSans-72"/>
     <use x="87.447266" xlink:href="#DejaVuSans-61"/>
     <use x="148.726562" xlink:href="#DejaVuSans-69"/>
     <use x="176.509766" xlink:href="#DejaVuSans-6e"/>
     <use x="239.888672" xlink:href="#DejaVuSans-69"/>
     <use x="267.671875" xlink:href="#DejaVuSans-6e"/>
     <use x="331.050781" xlink:href="#DejaVuSans-67"/>
     <use x="394.527344" xlink:href="#DejaVuSans-20"/>
     <use x="426.314453" xlink:href="#DejaVuSans-61"/>
     <use x="487.59375" xlink:href="#DejaVuSans-6e"/>
     <use x="550.972656" xlink:href="#DejaVuSans-64"/>
     <use x="614.449219" xlink:href="#DejaVuSans-20"/>
     <use x="646.236328" xlink:href="#DejaVuSans-56"/>
     <use x="706.894531" xlink:href="#DejaVuSans-61"/>
     <use x="768.173828" xlink:href="#DejaVuSans-6c"/>
     <use x="795.957031" xlink:href="#DejaVuSans-69"/>
     <use x="823.740234" xlink:href="#DejaVuSans-64"/>
     <use x="887.216797" xlink:href="#DejaVuSans-61"/>
     <use x="948.496094" xlink:href="#DejaVuSans-74"/>
     <use x="987.705078" xlink:href="#DejaVuSans-69"/>
     <use x="1015.488281" xlink:href="#DejaVuSans-6f"/>
     <use x="1076.669922" xlink:href="#DejaVuSans-6e"/>
     <use x="1140.048828" xlink:href="#DejaVuSans-20"/>
     <use x="1171.835938" xlink:href="#DejaVuSans-41"/>
     <use x="1238.494141" xlink:href="#DejaVuSans-63"/>
     <use x="1293.474609" xlink:href="#DejaVuSans-63"/>
     <use x="1348.455078" xlink:href="#DejaVuSans-75"/>
     <use x="1411.833984" xlink:href="#DejaVuSans-72"/>
     <use x="1452.947266" xlink:href="#DejaVuSans-61"/>
     <use x="1514.226562" xlink:href="#DejaVuSans-63"/>
     <use x="1569.207031" xlink:href="#DejaVuSans-79"/>
    </g>
   </g>
   <g id="legend_1">
    <g id="patch_7">
     <path d="M 277.504375 302.584 
L 407.72 302.584 
Q 409.72 302.584 409.72 300.584 
L 409.72 272.22775 
Q 409.72 270.22775 407.72 270.22775 
L 277.504375 270.22775 
Q 275.504375 270.22775 275.504375 272.22775 
L 275.504375 300.584 
Q 275.504375 302.584 277.504375 302.584 
z
" style="fill:#ffffff;opacity:0.8;stroke:#cccccc;stroke-linejoin:miter;"/>
    </g>
    <g id="line2d_21">
     <path d="M 279.504375 278.326187 
L 299.504375 278.326187 
" style="fill:none;stroke:#1f77b4;stroke-linecap:square;stroke-width:1.5;"/>
    </g>
    <g id="line2d_22"/>
    <g id="text_22">
     <!-- Train Accuracy -->
     <g transform="translate(307.504375 281.826187)scale(0.1 -0.1)">
      <use xlink:href="#DejaVuSans-54"/>
      <use x="46.333984" xlink:href="#DejaVuSans-72"/>
      <use x="87.447266" xlink:href="#DejaVuSans-61"/>
      <use x="148.726562" xlink:href="#DejaVuSans-69"/>
      <use x="176.509766" xlink:href="#DejaVuSans-6e"/>
      <use x="239.888672" xlink:href="#DejaVuSans-20"/>
      <use x="271.675781" xlink:href="#DejaVuSans-41"/>
      <use x="338.333984" xlink:href="#DejaVuSans-63"/>
      <use x="393.314453" xlink:href="#DejaVuSans-63"/>
      <use x="448.294922" xlink:href="#DejaVuSans-75"/>
      <use x="511.673828" xlink:href="#DejaVuSans-72"/>
      <use x="552.787109" xlink:href="#DejaVuSans-61"/>
      <use x="614.066406" xlink:href="#DejaVuSans-63"/>
      <use x="669.046875" xlink:href="#DejaVuSans-79"/>
     </g>
    </g>
    <g id="line2d_23">
     <path d="M 279.504375 293.004312 
L 299.504375 293.004312 
" style="fill:none;stroke:#ff7f0e;stroke-linecap:square;stroke-width:1.5;"/>
    </g>
    <g id="line2d_24"/>
    <g id="text_23">
     <!-- Validation Accuracy -->
     <g transform="translate(307.504375 296.504312)scale(0.1 -0.1)">
      <use xlink:href="#DejaVuSans-56"/>
      <use x="60.658203" xlink:href="#DejaVuSans-61"/>
      <use x="121.9375" xlink:href="#DejaVuSans-6c"/>
      <use x="149.720703" xlink:href="#DejaVuSans-69"/>
      <use x="177.503906" xlink:href="#DejaVuSans-64"/>
      <use x="240.980469" xlink:href="#DejaVuSans-61"/>
      <use x="302.259766" xlink:href="#DejaVuSans-74"/>
      <use x="341.46875" xlink:href="#DejaVuSans-69"/>
      <use x="369.251953" xlink:href="#DejaVuSans-6f"/>
      <use x="430.433594" xlink:href="#DejaVuSans-6e"/>
      <use x="493.8125" xlink:href="#DejaVuSans-20"/>
      <use x="525.599609" xlink:href="#DejaVuSans-41"/>
      <use x="592.257812" xlink:href="#DejaVuSans-63"/>
      <use x="647.238281" xlink:href="#DejaVuSans-63"/>
      <use x="702.21875" xlink:href="#DejaVuSans-75"/>
      <use x="765.597656" xlink:href="#DejaVuSans-72"/>
      <use x="806.710938" xlink:href="#DejaVuSans-61"/>
      <use x="867.990234" xlink:href="#DejaVuSans-63"/>
      <use x="922.970703" xlink:href="#DejaVuSans-79"/>
     </g>
    </g>
   </g>
  </g>
 </g>
 <defs>
  <clipPath id="p2af7777ed9">
   <rect height="266.112" width="357.12" x="57.6" y="41.472"/>
  </clipPath>
 </defs>
</svg>
