<?xml version="1.0" encoding="utf-8" standalone="no"?>
<!DOCTYPE svg PUBLIC "-//W3C//DTD SVG 1.1//EN"
  "http://www.w3.org/Graphics/SVG/1.1/DTD/svg11.dtd">
<svg height="345.6pt" version="1.1" viewBox="0 0 460.8 345.6" width="460.8pt" xmlns="http://www.w3.org/2000/svg" xmlns:xlink="http://www.w3.org/1999/xlink">
 <metadata>
  <rdf:RDF xmlns:cc="http://creativecommons.org/ns#" xmlns:dc="http://purl.org/dc/elements/1.1/" xmlns:rdf="http://www.w3.org/1999/02/22-rdf-syntax-ns#">
   <cc:Work>
    <dc:type rdf:resource="http://purl.org/dc/dcmitype/StillImage"/>
    <dc:date>2023-08-08T17:41:21.884624</dc:date>
    <dc:format>image/svg+xml</dc:format>
    <dc:creator>
     <cc:Agent>
      <dc:title>Matplotlib v3.4.3, https://matplotlib.org/</dc:title>
     </cc:Agent>
    </dc:creator>
   </cc:Work>
  </rdf:RDF>
 </metadata>
 <defs>
  <style type="text/css">*{stroke-linecap:butt;stroke-linejoin:round;}</style>
 </defs>
 <g id="figure_1">
  <g id="patch_1">
   <path d="M 0 345.6 
L 460.8 345.6 
L 460.8 0 
L 0 0 
z
" style="fill:#ffffff;"/>
  </g>
  <g id="axes_1">
   <g id="patch_2">
    <path d="M 57.6 307.584 
L 414.72 307.584 
L 414.72 41.472 
L 57.6 41.472 
z
" style="fill:#ffffff;"/>
   </g>
   <g id="matplotlib.axis_1">
    <g id="xtick_1">
     <g id="line2d_1">
      <defs>
       <path d="M 0 0 
L 0 3.5 
" id="m351b74ba71" style="stroke:#000000;stroke-width:0.8;"/>
      </defs>
      <g>
       <use style="stroke:#000000;stroke-width:0.8;" x="73.832727" xlink:href="#m351b74ba71" y="307.584"/>
      </g>
     </g>
     <g id="text_1">
      <!-- 1 -->
      <g transform="translate(70.651477 322.182437)scale(0.1 -0.1)">
       <defs>
        <path d="M 794 531 
L 1825 531 
L 1825 4091 
L 703 3866 
L 703 4441 
L 1819 4666 
L 2450 4666 
L 2450 531 
L 3481 531 
L 3481 0 
L 794 0 
L 794 531 
z
" id="DejaVuSans-31" transform="scale(0.015625)"/>
       </defs>
       <use xlink:href="#DejaVuSans-31"/>
      </g>
     </g>
    </g>
    <g id="xtick_2">
     <g id="line2d_2">
      <g>
       <use style="stroke:#000000;stroke-width:0.8;" x="109.555234" xlink:href="#m351b74ba71" y="307.584"/>
      </g>
     </g>
     <g id="text_2">
      <!-- 35 -->
      <g transform="translate(103.192734 322.182437)scale(0.1 -0.1)">
       <defs>
        <path d="M 2597 2516 
Q 3050 2419 3304 2112 
Q 3559 1806 3559 1356 
Q 3559 666 3084 287 
Q 2609 -91 1734 -91 
Q 1441 -91 1130 -33 
Q 819 25 488 141 
L 488 750 
Q 750 597 1062 519 
Q 1375 441 1716 441 
Q 2309 441 2620 675 
Q 2931 909 2931 1356 
Q 2931 1769 2642 2001 
Q 2353 2234 1838 2234 
L 1294 2234 
L 1294 2753 
L 1863 2753 
Q 2328 2753 2575 2939 
Q 2822 3125 2822 3475 
Q 2822 3834 2567 4026 
Q 2313 4219 1838 4219 
Q 1578 4219 1281 4162 
Q 984 4106 628 3988 
L 628 4550 
Q 988 4650 1302 4700 
Q 1616 4750 1894 4750 
Q 2613 4750 3031 4423 
Q 3450 4097 3450 3541 
Q 3450 3153 3228 2886 
Q 3006 2619 2597 2516 
z
" id="DejaVuSans-33" transform="scale(0.015625)"/>
        <path d="M 691 4666 
L 3169 4666 
L 3169 4134 
L 1269 4134 
L 1269 2991 
Q 1406 3038 1543 3061 
Q 1681 3084 1819 3084 
Q 2600 3084 3056 2656 
Q 3513 2228 3513 1497 
Q 3513 744 3044 326 
Q 2575 -91 1722 -91 
Q 1428 -91 1123 -41 
Q 819 9 494 109 
L 494 744 
Q 775 591 1075 516 
Q 1375 441 1709 441 
Q 2250 441 2565 725 
Q 2881 1009 2881 1497 
Q 2881 1984 2565 2268 
Q 2250 2553 1709 2553 
Q 1456 2553 1204 2497 
Q 953 2441 691 2322 
L 691 4666 
z
" id="DejaVuSans-35" transform="scale(0.015625)"/>
       </defs>
       <use xlink:href="#DejaVuSans-33"/>
       <use x="63.623047" xlink:href="#DejaVuSans-35"/>
      </g>
     </g>
    </g>
    <g id="xtick_3">
     <g id="line2d_3">
      <g>
       <use style="stroke:#000000;stroke-width:0.8;" x="145.277741" xlink:href="#m351b74ba71" y="307.584"/>
      </g>
     </g>
     <g id="text_3">
      <!-- 69 -->
      <g transform="translate(138.915241 322.182437)scale(0.1 -0.1)">
       <defs>
        <path d="M 2113 2584 
Q 1688 2584 1439 2293 
Q 1191 2003 1191 1497 
Q 1191 994 1439 701 
Q 1688 409 2113 409 
Q 2538 409 2786 701 
Q 3034 994 3034 1497 
Q 3034 2003 2786 2293 
Q 2538 2584 2113 2584 
z
M 3366 4563 
L 3366 3988 
Q 3128 4100 2886 4159 
Q 2644 4219 2406 4219 
Q 1781 4219 1451 3797 
Q 1122 3375 1075 2522 
Q 1259 2794 1537 2939 
Q 1816 3084 2150 3084 
Q 2853 3084 3261 2657 
Q 3669 2231 3669 1497 
Q 3669 778 3244 343 
Q 2819 -91 2113 -91 
Q 1303 -91 875 529 
Q 447 1150 447 2328 
Q 447 3434 972 4092 
Q 1497 4750 2381 4750 
Q 2619 4750 2861 4703 
Q 3103 4656 3366 4563 
z
" id="DejaVuSans-36" transform="scale(0.015625)"/>
        <path d="M 703 97 
L 703 672 
Q 941 559 1184 500 
Q 1428 441 1663 441 
Q 2288 441 2617 861 
Q 2947 1281 2994 2138 
Q 2813 1869 2534 1725 
Q 2256 1581 1919 1581 
Q 1219 1581 811 2004 
Q 403 2428 403 3163 
Q 403 3881 828 4315 
Q 1253 4750 1959 4750 
Q 2769 4750 3195 4129 
Q 3622 3509 3622 2328 
Q 3622 1225 3098 567 
Q 2575 -91 1691 -91 
Q 1453 -91 1209 -44 
Q 966 3 703 97 
z
M 1959 2075 
Q 2384 2075 2632 2365 
Q 2881 2656 2881 3163 
Q 2881 3666 2632 3958 
Q 2384 4250 1959 4250 
Q 1534 4250 1286 3958 
Q 1038 3666 1038 3163 
Q 1038 2656 1286 2365 
Q 1534 2075 1959 2075 
z
" id="DejaVuSans-39" transform="scale(0.015625)"/>
       </defs>
       <use xlink:href="#DejaVuSans-36"/>
       <use x="63.623047" xlink:href="#DejaVuSans-39"/>
      </g>
     </g>
    </g>
    <g id="xtick_4">
     <g id="line2d_4">
      <g>
       <use style="stroke:#000000;stroke-width:0.8;" x="182.050909" xlink:href="#m351b74ba71" y="307.584"/>
      </g>
     </g>
     <g id="text_4">
      <!-- 104 -->
      <g transform="translate(172.507159 322.182437)scale(0.1 -0.1)">
       <defs>
        <path d="M 2034 4250 
Q 1547 4250 1301 3770 
Q 1056 3291 1056 2328 
Q 1056 1369 1301 889 
Q 1547 409 2034 409 
Q 2525 409 2770 889 
Q 3016 1369 3016 2328 
Q 3016 3291 2770 3770 
Q 2525 4250 2034 4250 
z
M 2034 4750 
Q 2819 4750 3233 4129 
Q 3647 3509 3647 2328 
Q 3647 1150 3233 529 
Q 2819 -91 2034 -91 
Q 1250 -91 836 529 
Q 422 1150 422 2328 
Q 422 3509 836 4129 
Q 1250 4750 2034 4750 
z
" id="DejaVuSans-30" transform="scale(0.015625)"/>
        <path d="M 2419 4116 
L 825 1625 
L 2419 1625 
L 2419 4116 
z
M 2253 4666 
L 3047 4666 
L 3047 1625 
L 3713 1625 
L 3713 1100 
L 3047 1100 
L 3047 0 
L 2419 0 
L 2419 1100 
L 313 1100 
L 313 1709 
L 2253 4666 
z
" id="DejaVuSans-34" transform="scale(0.015625)"/>
       </defs>
       <use xlink:href="#DejaVuSans-31"/>
       <use x="63.623047" xlink:href="#DejaVuSans-30"/>
       <use x="127.246094" xlink:href="#DejaVuSans-34"/>
      </g>
     </g>
    </g>
    <g id="xtick_5">
     <g id="line2d_5">
      <g>
       <use style="stroke:#000000;stroke-width:0.8;" x="217.773416" xlink:href="#m351b74ba71" y="307.584"/>
      </g>
     </g>
     <g id="text_5">
      <!-- 138 -->
      <g transform="translate(208.229666 322.182437)scale(0.1 -0.1)">
       <defs>
        <path d="M 2034 2216 
Q 1584 2216 1326 1975 
Q 1069 1734 1069 1313 
Q 1069 891 1326 650 
Q 1584 409 2034 409 
Q 2484 409 2743 651 
Q 3003 894 3003 1313 
Q 3003 1734 2745 1975 
Q 2488 2216 2034 2216 
z
M 1403 2484 
Q 997 2584 770 2862 
Q 544 3141 544 3541 
Q 544 4100 942 4425 
Q 1341 4750 2034 4750 
Q 2731 4750 3128 4425 
Q 3525 4100 3525 3541 
Q 3525 3141 3298 2862 
Q 3072 2584 2669 2484 
Q 3125 2378 3379 2068 
Q 3634 1759 3634 1313 
Q 3634 634 3220 271 
Q 2806 -91 2034 -91 
Q 1263 -91 848 271 
Q 434 634 434 1313 
Q 434 1759 690 2068 
Q 947 2378 1403 2484 
z
M 1172 3481 
Q 1172 3119 1398 2916 
Q 1625 2713 2034 2713 
Q 2441 2713 2670 2916 
Q 2900 3119 2900 3481 
Q 2900 3844 2670 4047 
Q 2441 4250 2034 4250 
Q 1625 4250 1398 4047 
Q 1172 3844 1172 3481 
z
" id="DejaVuSans-38" transform="scale(0.015625)"/>
       </defs>
       <use xlink:href="#DejaVuSans-31"/>
       <use x="63.623047" xlink:href="#DejaVuSans-33"/>
       <use x="127.246094" xlink:href="#DejaVuSans-38"/>
      </g>
     </g>
    </g>
    <g id="xtick_6">
     <g id="line2d_6">
      <g>
       <use style="stroke:#000000;stroke-width:0.8;" x="253.495922" xlink:href="#m351b74ba71" y="307.584"/>
      </g>
     </g>
     <g id="text_6">
      <!-- 172 -->
      <g transform="translate(243.952172 322.182437)scale(0.1 -0.1)">
       <defs>
        <path d="M 525 4666 
L 3525 4666 
L 3525 4397 
L 1831 0 
L 1172 0 
L 2766 4134 
L 525 4134 
L 525 4666 
z
" id="DejaVuSans-37" transform="scale(0.015625)"/>
        <path d="M 1228 531 
L 3431 531 
L 3431 0 
L 469 0 
L 469 531 
Q 828 903 1448 1529 
Q 2069 2156 2228 2338 
Q 2531 2678 2651 2914 
Q 2772 3150 2772 3378 
Q 2772 3750 2511 3984 
Q 2250 4219 1831 4219 
Q 1534 4219 1204 4116 
Q 875 4013 500 3803 
L 500 4441 
Q 881 4594 1212 4672 
Q 1544 4750 1819 4750 
Q 2544 4750 2975 4387 
Q 3406 4025 3406 3419 
Q 3406 3131 3298 2873 
Q 3191 2616 2906 2266 
Q 2828 2175 2409 1742 
Q 1991 1309 1228 531 
z
" id="DejaVuSans-32" transform="scale(0.015625)"/>
       </defs>
       <use xlink:href="#DejaVuSans-31"/>
       <use x="63.623047" xlink:href="#DejaVuSans-37"/>
       <use x="127.246094" xlink:href="#DejaVuSans-32"/>
      </g>
     </g>
    </g>
    <g id="xtick_7">
     <g id="line2d_7">
      <g>
       <use style="stroke:#000000;stroke-width:0.8;" x="290.269091" xlink:href="#m351b74ba71" y="307.584"/>
      </g>
     </g>
     <g id="text_7">
      <!-- 207 -->
      <g transform="translate(280.725341 322.182437)scale(0.1 -0.1)">
       <use xlink:href="#DejaVuSans-32"/>
       <use x="63.623047" xlink:href="#DejaVuSans-30"/>
       <use x="127.246094" xlink:href="#DejaVuSans-37"/>
      </g>
     </g>
    </g>
    <g id="xtick_8">
     <g id="line2d_8">
      <g>
       <use style="stroke:#000000;stroke-width:0.8;" x="325.991598" xlink:href="#m351b74ba71" y="307.584"/>
      </g>
     </g>
     <g id="text_8">
      <!-- 241 -->
      <g transform="translate(316.447848 322.182437)scale(0.1 -0.1)">
       <use xlink:href="#DejaVuSans-32"/>
       <use x="63.623047" xlink:href="#DejaVuSans-34"/>
       <use x="127.246094" xlink:href="#DejaVuSans-31"/>
      </g>
     </g>
    </g>
    <g id="xtick_9">
     <g id="line2d_9">
      <g>
       <use style="stroke:#000000;stroke-width:0.8;" x="361.714104" xlink:href="#m351b74ba71" y="307.584"/>
      </g>
     </g>
     <g id="text_9">
      <!-- 275 -->
      <g transform="translate(352.170354 322.182437)scale(0.1 -0.1)">
       <use xlink:href="#DejaVuSans-32"/>
       <use x="63.623047" xlink:href="#DejaVuSans-37"/>
       <use x="127.246094" xlink:href="#DejaVuSans-35"/>
      </g>
     </g>
    </g>
    <g id="xtick_10">
     <g id="line2d_10">
      <g>
       <use style="stroke:#000000;stroke-width:0.8;" x="398.487273" xlink:href="#m351b74ba71" y="307.584"/>
      </g>
     </g>
     <g id="text_10">
      <!-- 310 -->
      <g transform="translate(388.943523 322.182437)scale(0.1 -0.1)">
       <use xlink:href="#DejaVuSans-33"/>
       <use x="63.623047" xlink:href="#DejaVuSans-31"/>
       <use x="127.246094" xlink:href="#DejaVuSans-30"/>
      </g>
     </g>
    </g>
    <g id="text_11">
     <!-- Epochs -->
     <g transform="translate(218.244375 335.860562)scale(0.1 -0.1)">
      <defs>
       <path d="M 628 4666 
L 3578 4666 
L 3578 4134 
L 1259 4134 
L 1259 2753 
L 3481 2753 
L 3481 2222 
L 1259 2222 
L 1259 531 
L 3634 531 
L 3634 0 
L 628 0 
L 628 4666 
z
" id="DejaVuSans-45" transform="scale(0.015625)"/>
       <path d="M 1159 525 
L 1159 -1331 
L 581 -1331 
L 581 3500 
L 1159 3500 
L 1159 2969 
Q 1341 3281 1617 3432 
Q 1894 3584 2278 3584 
Q 2916 3584 3314 3078 
Q 3713 2572 3713 1747 
Q 3713 922 3314 415 
Q 2916 -91 2278 -91 
Q 1894 -91 1617 61 
Q 1341 213 1159 525 
z
M 3116 1747 
Q 3116 2381 2855 2742 
Q 2594 3103 2138 3103 
Q 1681 3103 1420 2742 
Q 1159 2381 1159 1747 
Q 1159 1113 1420 752 
Q 1681 391 2138 391 
Q 2594 391 2855 752 
Q 3116 1113 3116 1747 
z
" id="DejaVuSans-70" transform="scale(0.015625)"/>
       <path d="M 1959 3097 
Q 1497 3097 1228 2736 
Q 959 2375 959 1747 
Q 959 1119 1226 758 
Q 1494 397 1959 397 
Q 2419 397 2687 759 
Q 2956 1122 2956 1747 
Q 2956 2369 2687 2733 
Q 2419 3097 1959 3097 
z
M 1959 3584 
Q 2709 3584 3137 3096 
Q 3566 2609 3566 1747 
Q 3566 888 3137 398 
Q 2709 -91 1959 -91 
Q 1206 -91 779 398 
Q 353 888 353 1747 
Q 353 2609 779 3096 
Q 1206 3584 1959 3584 
z
" id="DejaVuSans-6f" transform="scale(0.015625)"/>
       <path d="M 3122 3366 
L 3122 2828 
Q 2878 2963 2633 3030 
Q 2388 3097 2138 3097 
Q 1578 3097 1268 2742 
Q 959 2388 959 1747 
Q 959 1106 1268 751 
Q 1578 397 2138 397 
Q 2388 397 2633 464 
Q 2878 531 3122 666 
L 3122 134 
Q 2881 22 2623 -34 
Q 2366 -91 2075 -91 
Q 1284 -91 818 406 
Q 353 903 353 1747 
Q 353 2603 823 3093 
Q 1294 3584 2113 3584 
Q 2378 3584 2631 3529 
Q 2884 3475 3122 3366 
z
" id="DejaVuSans-63" transform="scale(0.015625)"/>
       <path d="M 3513 2113 
L 3513 0 
L 2938 0 
L 2938 2094 
Q 2938 2591 2744 2837 
Q 2550 3084 2163 3084 
Q 1697 3084 1428 2787 
Q 1159 2491 1159 1978 
L 1159 0 
L 581 0 
L 581 4863 
L 1159 4863 
L 1159 2956 
Q 1366 3272 1645 3428 
Q 1925 3584 2291 3584 
Q 2894 3584 3203 3211 
Q 3513 2838 3513 2113 
z
" id="DejaVuSans-68" transform="scale(0.015625)"/>
       <path d="M 2834 3397 
L 2834 2853 
Q 2591 2978 2328 3040 
Q 2066 3103 1784 3103 
Q 1356 3103 1142 2972 
Q 928 2841 928 2578 
Q 928 2378 1081 2264 
Q 1234 2150 1697 2047 
L 1894 2003 
Q 2506 1872 2764 1633 
Q 3022 1394 3022 966 
Q 3022 478 2636 193 
Q 2250 -91 1575 -91 
Q 1294 -91 989 -36 
Q 684 19 347 128 
L 347 722 
Q 666 556 975 473 
Q 1284 391 1588 391 
Q 1994 391 2212 530 
Q 2431 669 2431 922 
Q 2431 1156 2273 1281 
Q 2116 1406 1581 1522 
L 1381 1569 
Q 847 1681 609 1914 
Q 372 2147 372 2553 
Q 372 3047 722 3315 
Q 1072 3584 1716 3584 
Q 2034 3584 2315 3537 
Q 2597 3491 2834 3397 
z
" id="DejaVuSans-73" transform="scale(0.015625)"/>
      </defs>
      <use xlink:href="#DejaVuSans-45"/>
      <use x="63.183594" xlink:href="#DejaVuSans-70"/>
      <use x="126.660156" xlink:href="#DejaVuSans-6f"/>
      <use x="187.841797" xlink:href="#DejaVuSans-63"/>
      <use x="242.822266" xlink:href="#DejaVuSans-68"/>
      <use x="306.201172" xlink:href="#DejaVuSans-73"/>
     </g>
    </g>
   </g>
   <g id="matplotlib.axis_2">
    <g id="ytick_1">
     <g id="line2d_11">
      <defs>
       <path d="M 0 0 
L -3.5 0 
" id="md6b5878a63" style="stroke:#000000;stroke-width:0.8;"/>
      </defs>
      <g>
       <use style="stroke:#000000;stroke-width:0.8;" x="57.6" xlink:href="#md6b5878a63" y="304.699645"/>
      </g>
     </g>
     <g id="text_12">
      <!-- 20 -->
      <g transform="translate(37.875 308.498863)scale(0.1 -0.1)">
       <use xlink:href="#DejaVuSans-32"/>
       <use x="63.623047" xlink:href="#DejaVuSans-30"/>
      </g>
     </g>
    </g>
    <g id="ytick_2">
     <g id="line2d_12">
      <g>
       <use style="stroke:#000000;stroke-width:0.8;" x="57.6" xlink:href="#md6b5878a63" y="272.034238"/>
      </g>
     </g>
     <g id="text_13">
      <!-- 30 -->
      <g transform="translate(37.875 275.833457)scale(0.1 -0.1)">
       <use xlink:href="#DejaVuSans-33"/>
       <use x="63.623047" xlink:href="#DejaVuSans-30"/>
      </g>
     </g>
    </g>
    <g id="ytick_3">
     <g id="line2d_13">
      <g>
       <use style="stroke:#000000;stroke-width:0.8;" x="57.6" xlink:href="#md6b5878a63" y="239.368832"/>
      </g>
     </g>
     <g id="text_14">
      <!-- 40 -->
      <g transform="translate(37.875 243.168051)scale(0.1 -0.1)">
       <use xlink:href="#DejaVuSans-34"/>
       <use x="63.623047" xlink:href="#DejaVuSans-30"/>
      </g>
     </g>
    </g>
    <g id="ytick_4">
     <g id="line2d_14">
      <g>
       <use style="stroke:#000000;stroke-width:0.8;" x="57.6" xlink:href="#md6b5878a63" y="206.703425"/>
      </g>
     </g>
     <g id="text_15">
      <!-- 50 -->
      <g transform="translate(37.875 210.502644)scale(0.1 -0.1)">
       <use xlink:href="#DejaVuSans-35"/>
       <use x="63.623047" xlink:href="#DejaVuSans-30"/>
      </g>
     </g>
    </g>
    <g id="ytick_5">
     <g id="line2d_15">
      <g>
       <use style="stroke:#000000;stroke-width:0.8;" x="57.6" xlink:href="#md6b5878a63" y="174.038019"/>
      </g>
     </g>
     <g id="text_16">
      <!-- 60 -->
      <g transform="translate(37.875 177.837238)scale(0.1 -0.1)">
       <use xlink:href="#DejaVuSans-36"/>
       <use x="63.623047" xlink:href="#DejaVuSans-30"/>
      </g>
     </g>
    </g>
    <g id="ytick_6">
     <g id="line2d_16">
      <g>
       <use style="stroke:#000000;stroke-width:0.8;" x="57.6" xlink:href="#md6b5878a63" y="141.372612"/>
      </g>
     </g>
     <g id="text_17">
      <!-- 70 -->
      <g transform="translate(37.875 145.171831)scale(0.1 -0.1)">
       <use xlink:href="#DejaVuSans-37"/>
       <use x="63.623047" xlink:href="#DejaVuSans-30"/>
      </g>
     </g>
    </g>
    <g id="ytick_7">
     <g id="line2d_17">
      <g>
       <use style="stroke:#000000;stroke-width:0.8;" x="57.6" xlink:href="#md6b5878a63" y="108.707206"/>
      </g>
     </g>
     <g id="text_18">
      <!-- 80 -->
      <g transform="translate(37.875 112.506425)scale(0.1 -0.1)">
       <use xlink:href="#DejaVuSans-38"/>
       <use x="63.623047" xlink:href="#DejaVuSans-30"/>
      </g>
     </g>
    </g>
    <g id="ytick_8">
     <g id="line2d_18">
      <g>
       <use style="stroke:#000000;stroke-width:0.8;" x="57.6" xlink:href="#md6b5878a63" y="76.0418"/>
      </g>
     </g>
     <g id="text_19">
      <!-- 90 -->
      <g transform="translate(37.875 79.841018)scale(0.1 -0.1)">
       <use xlink:href="#DejaVuSans-39"/>
       <use x="63.623047" xlink:href="#DejaVuSans-30"/>
      </g>
     </g>
    </g>
    <g id="ytick_9">
     <g id="line2d_19">
      <g>
       <use style="stroke:#000000;stroke-width:0.8;" x="57.6" xlink:href="#md6b5878a63" y="43.376393"/>
      </g>
     </g>
     <g id="text_20">
      <!-- 100 -->
      <g transform="translate(31.5125 47.175612)scale(0.1 -0.1)">
       <use xlink:href="#DejaVuSans-31"/>
       <use x="63.623047" xlink:href="#DejaVuSans-30"/>
       <use x="127.246094" xlink:href="#DejaVuSans-30"/>
      </g>
     </g>
    </g>
    <g id="text_21">
     <!-- Accuracy -->
     <g transform="translate(25.432812 197.356125)rotate(-90)scale(0.1 -0.1)">
      <defs>
       <path d="M 2188 4044 
L 1331 1722 
L 3047 1722 
L 2188 4044 
z
M 1831 4666 
L 2547 4666 
L 4325 0 
L 3669 0 
L 3244 1197 
L 1141 1197 
L 716 0 
L 50 0 
L 1831 4666 
z
" id="DejaVuSans-41" transform="scale(0.015625)"/>
       <path d="M 544 1381 
L 544 3500 
L 1119 3500 
L 1119 1403 
Q 1119 906 1312 657 
Q 1506 409 1894 409 
Q 2359 409 2629 706 
Q 2900 1003 2900 1516 
L 2900 3500 
L 3475 3500 
L 3475 0 
L 2900 0 
L 2900 538 
Q 2691 219 2414 64 
Q 2138 -91 1772 -91 
Q 1169 -91 856 284 
Q 544 659 544 1381 
z
M 1991 3584 
L 1991 3584 
z
" id="DejaVuSans-75" transform="scale(0.015625)"/>
       <path d="M 2631 2963 
Q 2534 3019 2420 3045 
Q 2306 3072 2169 3072 
Q 1681 3072 1420 2755 
Q 1159 2438 1159 1844 
L 1159 0 
L 581 0 
L 581 3500 
L 1159 3500 
L 1159 2956 
Q 1341 3275 1631 3429 
Q 1922 3584 2338 3584 
Q 2397 3584 2469 3576 
Q 2541 3569 2628 3553 
L 2631 2963 
z
" id="DejaVuSans-72" transform="scale(0.015625)"/>
       <path d="M 2194 1759 
Q 1497 1759 1228 1600 
Q 959 1441 959 1056 
Q 959 750 1161 570 
Q 1363 391 1709 391 
Q 2188 391 2477 730 
Q 2766 1069 2766 1631 
L 2766 1759 
L 2194 1759 
z
M 3341 1997 
L 3341 0 
L 2766 0 
L 2766 531 
Q 2569 213 2275 61 
Q 1981 -91 1556 -91 
Q 1019 -91 701 211 
Q 384 513 384 1019 
Q 384 1609 779 1909 
Q 1175 2209 1959 2209 
L 2766 2209 
L 2766 2266 
Q 2766 2663 2505 2880 
Q 2244 3097 1772 3097 
Q 1472 3097 1187 3025 
Q 903 2953 641 2809 
L 641 3341 
Q 956 3463 1253 3523 
Q 1550 3584 1831 3584 
Q 2591 3584 2966 3190 
Q 3341 2797 3341 1997 
z
" id="DejaVuSans-61" transform="scale(0.015625)"/>
       <path d="M 2059 -325 
Q 1816 -950 1584 -1140 
Q 1353 -1331 966 -1331 
L 506 -1331 
L 506 -850 
L 844 -850 
Q 1081 -850 1212 -737 
Q 1344 -625 1503 -206 
L 1606 56 
L 191 3500 
L 800 3500 
L 1894 763 
L 2988 3500 
L 3597 3500 
L 2059 -325 
z
" id="DejaVuSans-79" transform="scale(0.015625)"/>
      </defs>
      <use xlink:href="#DejaVuSans-41"/>
      <use x="66.658203" xlink:href="#DejaVuSans-63"/>
      <use x="121.638672" xlink:href="#DejaVuSans-63"/>
      <use x="176.619141" xlink:href="#DejaVuSans-75"/>
      <use x="239.998047" xlink:href="#DejaVuSans-72"/>
      <use x="281.111328" xlink:href="#DejaVuSans-61"/>
      <use x="342.390625" xlink:href="#DejaVuSans-63"/>
      <use x="397.371094" xlink:href="#DejaVuSans-79"/>
     </g>
    </g>
   </g>
   <g id="line2d_20">
    <path clip-path="url(#p9b8eafc4a6)" d="M 73.832727 295.488 
L 74.883389 287.132189 
L 75.934051 263.60003 
L 78.035375 231.64673 
L 79.086037 220.867146 
L 80.136699 205.671198 
L 81.187361 205.710397 
L 82.238023 195.17907 
L 83.288685 190.17473 
L 84.339347 187.430836 
L 85.390009 208.212567 
L 86.440671 203.939932 
L 87.491333 190.997898 
L 88.541995 187.496166 
L 89.592657 179.924325 
L 90.643319 178.166926 
L 91.693981 175.690888 
L 92.744643 171.026268 
L 93.795305 164.062004 
L 94.845966 164.205732 
L 95.896628 163.173505 
L 96.94729 167.524537 
L 97.997952 156.601225 
L 99.048614 153.001497 
L 100.099276 152.289391 
L 101.149938 155.974049 
L 102.2006 152.825104 
L 103.251262 146.030699 
L 104.301924 148.042888 
L 105.352586 144.515025 
L 106.403248 163.604688 
L 107.45391 166.276718 
L 108.504572 158.842072 
L 109.555234 162.409134 
L 110.605896 154.144786 
L 111.656558 160.129089 
L 112.70722 159.430049 
L 113.757882 156.130843 
L 114.808544 150.068144 
L 115.859206 157.437459 
L 116.909868 143.528529 
L 117.96053 151.825543 
L 119.011192 147.30465 
L 120.061853 151.413958 
L 121.112515 145.22713 
L 122.163177 153.249754 
L 123.213839 141.411811 
L 124.264501 139.131766 
L 125.315163 136.492401 
L 126.365825 139.327758 
L 127.416487 136.061217 
L 128.467149 132.089104 
L 129.517811 134.506344 
L 130.568473 135.342578 
L 131.619135 132.964537 
L 132.669797 135.943622 
L 133.720459 134.062095 
L 134.771121 125.353497 
L 135.821783 120.995932 
L 136.872445 129.51507 
L 137.923107 130.436234 
L 138.973769 129.057754 
L 140.024431 126.032938 
L 141.075093 122.204552 
L 142.125755 121.923629 
L 143.176417 122.498541 
L 144.227079 115.619206 
L 145.277741 126.046004 
L 146.328402 125.980673 
L 147.379064 125.588688 
L 148.429726 137.772885 
L 149.480388 145.148733 
L 150.53105 138.171403 
L 151.581712 134.101293 
L 152.632374 140.399183 
L 153.683036 145.207531 
L 154.733698 139.700144 
L 155.78436 137.080378 
L 156.835022 130.514631 
L 157.885684 138.92924 
L 158.936346 136.152681 
L 159.987008 141.882193 
L 161.03767 133.454518 
L 162.088332 132.258964 
L 163.138994 132.27203 
L 164.189656 131.716718 
L 165.240318 131.579524 
L 166.29098 128.30645 
L 167.341642 137.452764 
L 168.392304 130.913149 
L 169.442966 130.645293 
L 170.493628 129.456272 
L 171.544289 127.306888 
L 172.594951 131.945376 
L 173.645613 120.891403 
L 174.696275 127.208892 
L 175.746937 130.710624 
L 176.797599 123.426238 
L 177.848261 128.587372 
L 178.898923 123.400106 
L 179.949585 127.248091 
L 181.000247 123.347841 
L 182.050909 118.728953 
L 183.101571 135.963221 
L 185.202895 120.283826 
L 186.253557 125.079108 
L 187.304219 122.622669 
L 188.354881 123.524234 
L 189.405543 122.785996 
L 190.456205 112.823047 
L 191.506867 125.327365 
L 192.557529 117.788189 
L 193.608191 117.42887 
L 194.658853 122.929724 
L 195.709515 110.660597 
L 196.760177 110.170616 
L 197.810838 114.560847 
L 198.8615 113.313028 
L 199.912162 109.484643 
L 200.962824 119.623985 
L 202.013486 119.473724 
L 203.064148 117.350473 
L 204.11481 109.889694 
L 205.165472 110.575667 
L 206.216134 112.790382 
L 207.266796 111.287773 
L 209.36812 106.747282 
L 210.418782 103.173686 
L 211.469444 107.1458 
L 212.520106 104.532567 
L 213.570768 107.1262 
L 214.62143 112.99944 
L 215.672092 103.970722 
L 216.722754 106.675418 
L 217.773416 103.94459 
L 218.824078 102.807834 
L 220.925402 107.028204 
L 221.976064 107.478987 
L 223.026726 110.007289 
L 224.077387 108.654941 
L 225.128049 101.952 
L 226.178711 104.512968 
L 227.229373 106.368363 
L 228.280035 103.598336 
L 229.330697 101.462019 
L 230.381359 107.838306 
L 231.432021 107.407123 
L 232.482683 121.655773 
L 233.533345 130.057316 
L 234.584007 125.771614 
L 235.634669 126.718911 
L 236.685331 121.446715 
L 237.735993 121.087395 
L 238.786655 127.594344 
L 239.837317 121.296454 
L 240.887979 124.445399 
L 241.938641 118.879214 
L 242.989303 123.458904 
L 244.039965 123.609164 
L 245.090627 118.330435 
L 246.141289 117.892718 
L 247.191951 121.623108 
L 248.242613 121.544711 
L 249.293274 119.532522 
L 250.343936 116.318246 
L 251.394598 117.85352 
L 252.44526 118.996809 
L 253.495922 123.863955 
L 254.546584 115.501611 
L 255.597246 118.78775 
L 256.647908 117.618329 
L 257.69857 114.090465 
L 258.749232 114.515115 
L 259.799894 110.621399 
L 261.901218 117.278609 
L 264.002542 114.600045 
L 265.053204 111.692824 
L 266.103866 111.986813 
L 267.154528 111.490299 
L 268.20519 114.247259 
L 269.255852 119.937573 
L 270.306514 111.869217 
L 271.357176 113.920605 
L 272.407838 113.417558 
L 273.4585 110.360076 
L 274.509162 114.018601 
L 275.559823 110.948053 
L 276.610485 110.693263 
L 277.661147 104.643629 
L 278.711809 108.517747 
L 279.762471 108.733338 
L 280.813133 107.799108 
L 281.863795 113.175834 
L 282.914457 111.594828 
L 283.965119 117.487667 
L 285.015781 110.164083 
L 286.066443 106.583955 
L 287.117105 113.639682 
L 289.218429 108.877066 
L 290.269091 108.073497 
L 291.319753 113.44369 
L 292.370415 112.208938 
L 293.421077 114.292991 
L 294.471739 110.151017 
L 295.522401 101.742941 
L 296.573063 110.307811 
L 297.623725 111.921482 
L 298.674387 102.500779 
L 299.725049 105.636658 
L 300.775711 111.764688 
L 301.826372 106.296499 
L 302.877034 110.131418 
L 303.927696 109.059992 
L 304.978358 102.742503 
L 306.02902 102.585709 
L 307.079682 109.961558 
L 308.130344 107.06087 
L 309.181006 103.376212 
L 310.231668 107.492053 
L 311.28233 101.259493 
L 312.332992 111.614427 
L 313.383654 97.921089 
L 314.434316 105.74772 
L 315.484978 110.987251 
L 316.53564 107.361391 
L 317.586302 102.513845 
L 319.687626 108.432817 
L 320.738288 102.252522 
L 321.78895 106.035176 
L 322.839612 98.587463 
L 323.890274 101.540416 
L 324.940936 98.58093 
L 325.991598 101.644945 
L 327.042259 101.592681 
L 328.092921 110.399274 
L 329.143583 101.409754 
L 330.194245 102.788234 
L 331.244907 94.314828 
L 332.295569 106.342231 
L 333.346231 98.136681 
L 334.396893 96.268219 
L 335.447555 96.019962 
L 336.498217 111.777754 
L 337.548879 98.992514 
L 338.599541 94.556552 
L 339.650203 102.383183 
L 340.700865 100.279531 
L 341.751527 96.980325 
L 342.802189 100.965505 
L 343.852851 97.293913 
L 344.903513 98.182412 
L 345.954175 94.582684 
L 347.004837 98.398004 
L 348.055499 100.651917 
L 349.106161 100.109671 
L 350.156823 101.50775 
L 351.207485 99.730752 
L 352.258147 91.681996 
L 353.308808 101.292159 
L 354.35947 101.886669 
L 355.410132 95.732507 
L 356.460794 98.868386 
L 357.511456 100.416726 
L 358.562118 102.664106 
L 359.61278 93.282601 
L 360.663442 96.823531 
L 361.714104 94.95507 
L 362.764766 95.458117 
L 363.815428 91.681996 
L 364.86609 90.087924 
L 365.916752 93.805248 
L 366.967414 95.281724 
L 368.018076 102.330919 
L 369.068738 88.284794 
L 370.1194 100.04434 
L 371.170062 93.543924 
L 372.220724 100.253399 
L 373.271386 97.640166 
L 374.322048 101.533883 
L 375.37271 91.355342 
L 376.423372 105.381868 
L 377.474034 93.785648 
L 378.524695 90.061792 
L 379.575357 92.09358 
L 380.626019 95.601845 
L 381.676681 95.177195 
L 382.727343 96.006896 
L 383.778005 95.013868 
L 384.828667 91.66893 
L 385.879329 95.373187 
L 387.980653 90.793497 
L 389.031315 92.433301 
L 390.081977 93.74645 
L 391.132639 94.752544 
L 393.233963 98.41107 
L 394.284625 86.370601 
L 395.335287 91.276945 
L 396.385949 98.574397 
L 397.436611 96.104892 
L 398.487273 86.141943 
L 398.487273 86.141943 
" style="fill:none;stroke:#1f77b4;stroke-linecap:square;stroke-width:1.5;"/>
   </g>
   <g id="line2d_21">
    <path clip-path="url(#p9b8eafc4a6)" d="M 73.832727 259.980703 
L 74.883389 281.311214 
L 75.934051 237.408907 
L 76.984713 226.335335 
L 78.035375 194.519229 
L 79.086037 179.689134 
L 80.136699 184.490949 
L 81.187361 163.454427 
L 82.238023 156.692688 
L 83.288685 136.799456 
L 84.339347 127.783803 
L 85.390009 156.398699 
L 86.440671 147.481043 
L 87.491333 169.954843 
L 88.541995 142.189248 
L 89.592657 129.580401 
L 90.643319 137.681422 
L 91.693981 178.023198 
L 92.744643 121.806034 
L 93.795305 104.689361 
L 94.845966 101.063501 
L 95.896628 100.312197 
L 96.94729 98.352272 
L 97.997952 95.673709 
L 99.048614 94.007773 
L 100.099276 90.251251 
L 101.149938 85.449437 
L 102.2006 84.763463 
L 103.251262 81.30093 
L 104.301924 81.790911 
L 105.352586 81.104938 
L 106.403248 123.047319 
L 107.45391 113.705013 
L 108.504572 113.509021 
L 109.555234 97.829626 
L 110.605896 99.3649 
L 111.656558 93.419796 
L 112.70722 96.392348 
L 113.757882 92.309172 
L 114.808544 102.141459 
L 115.859206 84.632802 
L 116.909868 89.271289 
L 117.96053 90.577905 
L 119.011192 88.977301 
L 120.061853 81.790911 
L 121.112515 84.110155 
L 122.163177 81.464257 
L 123.213839 86.331403 
L 124.264501 78.524371 
L 125.315163 85.743425 
L 126.365825 83.391516 
L 127.416487 82.901535 
L 128.467149 80.484295 
L 129.517811 75.813142 
L 130.568473 74.89851 
L 131.619135 71.239985 
L 132.669797 72.252612 
L 133.720459 71.043992 
L 134.771121 68.986072 
L 135.821783 72.219947 
L 136.872445 67.712121 
L 137.923107 68.822745 
L 138.973769 67.124144 
L 140.024431 68.626752 
L 141.075093 66.830155 
L 142.125755 66.307509 
L 143.176417 65.262216 
L 144.227079 66.144181 
L 145.277741 65.752197 
L 147.379064 66.928151 
L 148.429726 80.941611 
L 149.480388 83.946828 
L 150.53105 88.715977 
L 151.581712 76.074465 
L 152.632374 80.778284 
L 153.683036 74.996507 
L 154.733698 78.165051 
L 155.78436 78.785694 
L 156.835022 81.72558 
L 157.885684 76.793104 
L 158.936346 76.695108 
L 159.987008 79.079682 
L 161.03767 77.805732 
L 162.088332 73.755221 
L 163.138994 76.368454 
L 164.189656 77.511743 
L 165.240318 76.760439 
L 167.341642 70.260023 
L 168.392304 71.468643 
L 169.442966 77.446412 
L 170.493628 72.448605 
L 171.544289 70.260023 
L 172.594951 69.28006 
L 173.645613 67.385467 
L 174.696275 68.822745 
L 175.746937 67.483463 
L 176.797599 72.187282 
L 177.848261 67.614125 
L 178.898923 68.234767 
L 179.949585 73.003917 
L 182.050909 66.503501 
L 183.101571 76.303123 
L 184.152233 67.287471 
L 185.202895 63.367622 
L 186.253557 66.79749 
L 187.304219 65.196885 
L 188.354881 62.81231 
L 189.405543 66.340174 
L 190.456205 64.576242 
L 191.506867 61.865013 
L 192.557529 64.118926 
L 193.608191 65.098888 
L 194.658853 60.623728 
L 195.709515 60.689059 
L 196.760177 62.191667 
L 197.810838 62.452991 
L 198.8615 61.015713 
L 199.912162 61.799682 
L 200.962824 61.440363 
L 202.013486 60.166412 
L 203.064148 61.309701 
L 204.11481 59.676431 
L 205.165472 60.297074 
L 206.216134 60.460401 
L 207.266796 59.251781 
L 208.317458 58.598473 
L 209.36812 57.324522 
L 210.418782 57.814503 
L 211.469444 57.651176 
L 212.520106 57.912499 
L 213.570768 57.97783 
L 214.62143 57.651176 
L 215.672092 56.76921 
L 216.722754 57.291856 
L 217.773416 57.161195 
L 218.824078 57.55318 
L 219.87474 57.161195 
L 221.976064 57.324522 
L 224.077387 56.703879 
L 226.178711 57.063198 
L 227.229373 56.76921 
L 230.381359 57.095864 
L 231.432021 56.834541 
L 232.482683 77.773066 
L 233.533345 70.42335 
L 234.584007 65.327546 
L 235.634669 65.6542 
L 236.685331 73.820552 
L 237.735993 65.22955 
L 238.786655 69.704711 
L 239.837317 66.046185 
L 240.887979 67.091478 
L 241.938641 66.928151 
L 242.989303 64.478246 
L 244.039965 65.033558 
L 245.090627 70.750004 
L 246.141289 64.216922 
L 247.191951 64.44558 
L 248.242613 65.752197 
L 249.293274 65.850193 
L 250.343936 65.164219 
L 251.394598 72.285278 
L 252.44526 63.432953 
L 253.495922 65.6542 
L 254.546584 66.372839 
L 255.597246 66.340174 
L 256.647908 63.890268 
L 257.69857 64.249588 
L 258.749232 64.837565 
L 259.799894 63.334957 
L 260.850556 62.420325 
L 261.901218 61.767017 
L 262.95188 63.106299 
L 264.002542 62.322329 
L 265.053204 63.138964 
L 266.103866 61.17904 
L 267.154528 64.118926 
L 268.20519 62.420325 
L 269.255852 62.746979 
L 270.306514 61.832348 
L 271.357176 62.518321 
L 272.407838 62.256998 
L 273.4585 61.538359 
L 274.509162 63.530949 
L 275.559823 61.865013 
L 276.610485 63.955599 
L 277.661147 60.166412 
L 278.711809 63.59628 
L 279.762471 60.362405 
L 280.813133 64.44558 
L 281.863795 61.636355 
L 282.914457 59.415108 
L 283.965119 63.334957 
L 285.015781 62.81231 
L 286.066443 59.317112 
L 287.117105 60.754389 
L 288.167767 58.533142 
L 289.218429 59.18645 
L 290.269091 59.088454 
L 291.319753 59.872423 
L 292.370415 58.957792 
L 293.421077 60.983047 
L 294.471739 62.452991 
L 295.522401 61.211705 
L 296.573063 58.467811 
L 297.623725 59.023123 
L 298.674387 61.832348 
L 299.725049 61.309701 
L 300.775711 57.520514 
L 301.826372 57.291856 
L 302.877034 58.075826 
L 303.927696 56.997868 
L 304.978358 58.435146 
L 306.02902 59.18645 
L 307.079682 59.643766 
L 308.130344 58.304484 
L 309.181006 58.467811 
L 310.231668 60.39507 
L 311.28233 57.357187 
L 312.332992 57.55318 
L 313.383654 57.585845 
L 314.434316 57.945164 
L 315.484978 58.696469 
L 316.53564 56.899871 
L 317.586302 57.226526 
L 318.636964 56.736544 
L 319.687626 58.663803 
L 320.738288 55.952575 
L 321.78895 57.520514 
L 322.839612 56.311894 
L 323.890274 57.324522 
L 324.940936 57.945164 
L 325.991598 56.311894 
L 327.042259 55.495259 
L 328.092921 55.56059 
L 329.143583 56.115902 
L 330.194245 56.540552 
L 331.244907 56.573217 
L 332.295569 55.56059 
L 333.346231 55.658586 
L 334.396893 55.233936 
L 335.447555 55.397263 
L 336.498217 56.050571 
L 337.548879 56.540552 
L 338.599541 54.907282 
L 339.650203 55.13594 
L 341.751527 55.887244 
L 342.802189 55.919909 
L 343.852851 54.449966 
L 344.903513 55.005278 
L 347.004837 54.77662 
L 348.055499 55.397263 
L 349.106161 54.939947 
L 350.156823 56.279229 
L 351.207485 55.266601 
L 352.258147 55.691251 
L 353.308808 55.037943 
L 355.410132 55.462594 
L 356.460794 55.103274 
L 357.511456 54.482631 
L 358.562118 54.057981 
L 359.61278 54.841951 
L 360.663442 53.959985 
L 361.714104 53.894654 
L 362.764766 54.384635 
L 363.815428 54.743955 
L 365.916752 54.515297 
L 366.967414 53.568 
L 368.018076 54.678624 
L 370.1194 53.99265 
L 371.170062 54.449966 
L 372.220724 54.417301 
L 373.271386 53.600665 
L 374.322048 54.613293 
L 375.37271 53.731327 
L 376.423372 53.633331 
L 378.524695 54.384635 
L 379.575357 54.253974 
L 380.626019 53.665996 
L 381.676681 53.99265 
L 382.727343 54.025316 
L 383.778005 53.568 
L 384.828667 53.99265 
L 385.879329 53.763992 
L 386.929991 53.665996 
L 389.031315 53.796658 
L 390.081977 53.959985 
L 391.132639 53.796658 
L 392.183301 53.927319 
L 394.284625 53.927319 
L 396.385949 54.188643 
L 397.436611 53.796658 
L 398.487273 53.763992 
L 398.487273 53.763992 
" style="fill:none;stroke:#ff7f0e;stroke-linecap:square;stroke-width:1.5;"/>
   </g>
   <g id="patch_3">
    <path d="M 57.6 307.584 
L 57.6 41.472 
" style="fill:none;stroke:#000000;stroke-linecap:square;stroke-linejoin:miter;stroke-width:0.8;"/>
   </g>
   <g id="patch_4">
    <path d="M 414.72 307.584 
L 414.72 41.472 
" style="fill:none;stroke:#000000;stroke-linecap:square;stroke-linejoin:miter;stroke-width:0.8;"/>
   </g>
   <g id="patch_5">
    <path d="M 57.6 307.584 
L 414.72 307.584 
" style="fill:none;stroke:#000000;stroke-linecap:square;stroke-linejoin:miter;stroke-width:0.8;"/>
   </g>
   <g id="patch_6">
    <path d="M 57.6 41.472 
L 414.72 41.472 
" style="fill:none;stroke:#000000;stroke-linecap:square;stroke-linejoin:miter;stroke-width:0.8;"/>
   </g>
   <g id="text_22">
    <!-- Training and Validation Accuracy -->
    <g transform="translate(138.4575 35.472)scale(0.12 -0.12)">
     <defs>
      <path d="M -19 4666 
L 3928 4666 
L 3928 4134 
L 2272 4134 
L 2272 0 
L 1638 0 
L 1638 4134 
L -19 4134 
L -19 4666 
z
" id="DejaVuSans-54" transform="scale(0.015625)"/>
      <path d="M 603 3500 
L 1178 3500 
L 1178 0 
L 603 0 
L 603 3500 
z
M 603 4863 
L 1178 4863 
L 1178 4134 
L 603 4134 
L 603 4863 
z
" id="DejaVuSans-69" transform="scale(0.015625)"/>
      <path d="M 3513 2113 
L 3513 0 
L 2938 0 
L 2938 2094 
Q 2938 2591 2744 2837 
Q 2550 3084 2163 3084 
Q 1697 3084 1428 2787 
Q 1159 2491 1159 1978 
L 1159 0 
L 581 0 
L 581 3500 
L 1159 3500 
L 1159 2956 
Q 1366 3272 1645 3428 
Q 1925 3584 2291 3584 
Q 2894 3584 3203 3211 
Q 3513 2838 3513 2113 
z
" id="DejaVuSans-6e" transform="scale(0.015625)"/>
      <path d="M 2906 1791 
Q 2906 2416 2648 2759 
Q 2391 3103 1925 3103 
Q 1463 3103 1205 2759 
Q 947 2416 947 1791 
Q 947 1169 1205 825 
Q 1463 481 1925 481 
Q 2391 481 2648 825 
Q 2906 1169 2906 1791 
z
M 3481 434 
Q 3481 -459 3084 -895 
Q 2688 -1331 1869 -1331 
Q 1566 -1331 1297 -1286 
Q 1028 -1241 775 -1147 
L 775 -588 
Q 1028 -725 1275 -790 
Q 1522 -856 1778 -856 
Q 2344 -856 2625 -561 
Q 2906 -266 2906 331 
L 2906 616 
Q 2728 306 2450 153 
Q 2172 0 1784 0 
Q 1141 0 747 490 
Q 353 981 353 1791 
Q 353 2603 747 3093 
Q 1141 3584 1784 3584 
Q 2172 3584 2450 3431 
Q 2728 3278 2906 2969 
L 2906 3500 
L 3481 3500 
L 3481 434 
z
" id="DejaVuSans-67" transform="scale(0.015625)"/>
      <path id="DejaVuSans-20" transform="scale(0.015625)"/>
      <path d="M 2906 2969 
L 2906 4863 
L 3481 4863 
L 3481 0 
L 2906 0 
L 2906 525 
Q 2725 213 2448 61 
Q 2172 -91 1784 -91 
Q 1150 -91 751 415 
Q 353 922 353 1747 
Q 353 2572 751 3078 
Q 1150 3584 1784 3584 
Q 2172 3584 2448 3432 
Q 2725 3281 2906 2969 
z
M 947 1747 
Q 947 1113 1208 752 
Q 1469 391 1925 391 
Q 2381 391 2643 752 
Q 2906 1113 2906 1747 
Q 2906 2381 2643 2742 
Q 2381 3103 1925 3103 
Q 1469 3103 1208 2742 
Q 947 2381 947 1747 
z
" id="DejaVuSans-64" transform="scale(0.015625)"/>
      <path d="M 1831 0 
L 50 4666 
L 709 4666 
L 2188 738 
L 3669 4666 
L 4325 4666 
L 2547 0 
L 1831 0 
z
" id="DejaVuSans-56" transform="scale(0.015625)"/>
      <path d="M 603 4863 
L 1178 4863 
L 1178 0 
L 603 0 
L 603 4863 
z
" id="DejaVuSans-6c" transform="scale(0.015625)"/>
      <path d="M 1172 4494 
L 1172 3500 
L 2356 3500 
L 2356 3053 
L 1172 3053 
L 1172 1153 
Q 1172 725 1289 603 
Q 1406 481 1766 481 
L 2356 481 
L 2356 0 
L 1766 0 
Q 1100 0 847 248 
Q 594 497 594 1153 
L 594 3053 
L 172 3053 
L 172 3500 
L 594 3500 
L 594 4494 
L 1172 4494 
z
" id="DejaVuSans-74" transform="scale(0.015625)"/>
     </defs>
     <use xlink:href="#DejaVuSans-54"/>
     <use x="46.333984" xlink:href="#DejaVuSans-72"/>
     <use x="87.447266" xlink:href="#DejaVuSans-61"/>
     <use x="148.726562" xlink:href="#DejaVuSans-69"/>
     <use x="176.509766" xlink:href="#DejaVuSans-6e"/>
     <use x="239.888672" xlink:href="#DejaVuSans-69"/>
     <use x="267.671875" xlink:href="#DejaVuSans-6e"/>
     <use x="331.050781" xlink:href="#DejaVuSans-67"/>
     <use x="394.527344" xlink:href="#DejaVuSans-20"/>
     <use x="426.314453" xlink:href="#DejaVuSans-61"/>
     <use x="487.59375" xlink:href="#DejaVuSans-6e"/>
     <use x="550.972656" xlink:href="#DejaVuSans-64"/>
     <use x="614.449219" xlink:href="#DejaVuSans-20"/>
     <use x="646.236328" xlink:href="#DejaVuSans-56"/>
     <use x="706.894531" xlink:href="#DejaVuSans-61"/>
     <use x="768.173828" xlink:href="#DejaVuSans-6c"/>
     <use x="795.957031" xlink:href="#DejaVuSans-69"/>
     <use x="823.740234" xlink:href="#DejaVuSans-64"/>
     <use x="887.216797" xlink:href="#DejaVuSans-61"/>
     <use x="948.496094" xlink:href="#DejaVuSans-74"/>
     <use x="987.705078" xlink:href="#DejaVuSans-69"/>
     <use x="1015.488281" xlink:href="#DejaVuSans-6f"/>
     <use x="1076.669922" xlink:href="#DejaVuSans-6e"/>
     <use x="1140.048828" xlink:href="#DejaVuSans-20"/>
     <use x="1171.835938" xlink:href="#DejaVuSans-41"/>
     <use x="1238.494141" xlink:href="#DejaVuSans-63"/>
     <use x="1293.474609" xlink:href="#DejaVuSans-63"/>
     <use x="1348.455078" xlink:href="#DejaVuSans-75"/>
     <use x="1411.833984" xlink:href="#DejaVuSans-72"/>
     <use x="1452.947266" xlink:href="#DejaVuSans-61"/>
     <use x="1514.226562" xlink:href="#DejaVuSans-63"/>
     <use x="1569.207031" xlink:href="#DejaVuSans-79"/>
    </g>
   </g>
   <g id="legend_1">
    <g id="patch_7">
     <path d="M 277.504375 302.584 
L 407.72 302.584 
Q 409.72 302.584 409.72 300.584 
L 409.72 272.22775 
Q 409.72 270.22775 407.72 270.22775 
L 277.504375 270.22775 
Q 275.504375 270.22775 275.504375 272.22775 
L 275.504375 300.584 
Q 275.504375 302.584 277.504375 302.584 
z
" style="fill:#ffffff;opacity:0.8;stroke:#cccccc;stroke-linejoin:miter;"/>
    </g>
    <g id="line2d_22">
     <path d="M 279.504375 278.326187 
L 299.504375 278.326187 
" style="fill:none;stroke:#1f77b4;stroke-linecap:square;stroke-width:1.5;"/>
    </g>
    <g id="line2d_23"/>
    <g id="text_23">
     <!-- Train Accuracy -->
     <g transform="translate(307.504375 281.826187)scale(0.1 -0.1)">
      <use xlink:href="#DejaVuSans-54"/>
      <use x="46.333984" xlink:href="#DejaVuSans-72"/>
      <use x="87.447266" xlink:href="#DejaVuSans-61"/>
      <use x="148.726562" xlink:href="#DejaVuSans-69"/>
      <use x="176.509766" xlink:href="#DejaVuSans-6e"/>
      <use x="239.888672" xlink:href="#DejaVuSans-20"/>
      <use x="271.675781" xlink:href="#DejaVuSans-41"/>
      <use x="338.333984" xlink:href="#DejaVuSans-63"/>
      <use x="393.314453" xlink:href="#DejaVuSans-63"/>
      <use x="448.294922" xlink:href="#DejaVuSans-75"/>
      <use x="511.673828" xlink:href="#DejaVuSans-72"/>
      <use x="552.787109" xlink:href="#DejaVuSans-61"/>
      <use x="614.066406" xlink:href="#DejaVuSans-63"/>
      <use x="669.046875" xlink:href="#DejaVuSans-79"/>
     </g>
    </g>
    <g id="line2d_24">
     <path d="M 279.504375 293.004312 
L 299.504375 293.004312 
" style="fill:none;stroke:#ff7f0e;stroke-linecap:square;stroke-width:1.5;"/>
    </g>
    <g id="line2d_25"/>
    <g id="text_24">
     <!-- Validation Accuracy -->
     <g transform="translate(307.504375 296.504312)scale(0.1 -0.1)">
      <use xlink:href="#DejaVuSans-56"/>
      <use x="60.658203" xlink:href="#DejaVuSans-61"/>
      <use x="121.9375" xlink:href="#DejaVuSans-6c"/>
      <use x="149.720703" xlink:href="#DejaVuSans-69"/>
      <use x="177.503906" xlink:href="#DejaVuSans-64"/>
      <use x="240.980469" xlink:href="#DejaVuSans-61"/>
      <use x="302.259766" xlink:href="#DejaVuSans-74"/>
      <use x="341.46875" xlink:href="#DejaVuSans-69"/>
      <use x="369.251953" xlink:href="#DejaVuSans-6f"/>
      <use x="430.433594" xlink:href="#DejaVuSans-6e"/>
      <use x="493.8125" xlink:href="#DejaVuSans-20"/>
      <use x="525.599609" xlink:href="#DejaVuSans-41"/>
      <use x="592.257812" xlink:href="#DejaVuSans-63"/>
      <use x="647.238281" xlink:href="#DejaVuSans-63"/>
      <use x="702.21875" xlink:href="#DejaVuSans-75"/>
      <use x="765.597656" xlink:href="#DejaVuSans-72"/>
      <use x="806.710938" xlink:href="#DejaVuSans-61"/>
      <use x="867.990234" xlink:href="#DejaVuSans-63"/>
      <use x="922.970703" xlink:href="#DejaVuSans-79"/>
     </g>
    </g>
   </g>
  </g>
 </g>
 <defs>
  <clipPath id="p9b8eafc4a6">
   <rect height="266.112" width="357.12" x="57.6" y="41.472"/>
  </clipPath>
 </defs>
</svg>
