<?xml version="1.0" encoding="utf-8" standalone="no"?>
<!DOCTYPE svg PUBLIC "-//W3C//DTD SVG 1.1//EN"
  "http://www.w3.org/Graphics/SVG/1.1/DTD/svg11.dtd">
<svg height="345.6pt" version="1.1" viewBox="0 0 460.8 345.6" width="460.8pt" xmlns="http://www.w3.org/2000/svg" xmlns:xlink="http://www.w3.org/1999/xlink">
 <metadata>
  <rdf:RDF xmlns:cc="http://creativecommons.org/ns#" xmlns:dc="http://purl.org/dc/elements/1.1/" xmlns:rdf="http://www.w3.org/1999/02/22-rdf-syntax-ns#">
   <cc:Work>
    <dc:type rdf:resource="http://purl.org/dc/dcmitype/StillImage"/>
    <dc:date>2023-07-31T14:46:54.181157</dc:date>
    <dc:format>image/svg+xml</dc:format>
    <dc:creator>
     <cc:Agent>
      <dc:title>Matplotlib v3.4.3, https://matplotlib.org/</dc:title>
     </cc:Agent>
    </dc:creator>
   </cc:Work>
  </rdf:RDF>
 </metadata>
 <defs>
  <style type="text/css">*{stroke-linecap:butt;stroke-linejoin:round;}</style>
 </defs>
 <g id="figure_1">
  <g id="patch_1">
   <path d="M 0 345.6 
L 460.8 345.6 
L 460.8 0 
L 0 0 
z
" style="fill:#ffffff;"/>
  </g>
  <g id="axes_1">
   <g id="patch_2">
    <path d="M 57.6 307.584 
L 414.72 307.584 
L 414.72 41.472 
L 57.6 41.472 
z
" style="fill:#ffffff;"/>
   </g>
   <g id="matplotlib.axis_1">
    <g id="xtick_1">
     <g id="line2d_1">
      <defs>
       <path d="M 0 0 
L 0 3.5 
" id="m74ba3d1c86" style="stroke:#000000;stroke-width:0.8;"/>
      </defs>
      <g>
       <use style="stroke:#000000;stroke-width:0.8;" x="73.832727" xlink:href="#m74ba3d1c86" y="307.584"/>
      </g>
     </g>
     <g id="text_1">
      <!-- 1 -->
      <g transform="translate(70.651477 322.182437)scale(0.1 -0.1)">
       <defs>
        <path d="M 794 531 
L 1825 531 
L 1825 4091 
L 703 3866 
L 703 4441 
L 1819 4666 
L 2450 4666 
L 2450 531 
L 3481 531 
L 3481 0 
L 794 0 
L 794 531 
z
" id="DejaVuSans-31" transform="scale(0.015625)"/>
       </defs>
       <use xlink:href="#DejaVuSans-31"/>
      </g>
     </g>
    </g>
    <g id="xtick_2">
     <g id="line2d_2">
      <g>
       <use style="stroke:#000000;stroke-width:0.8;" x="109.555234" xlink:href="#m74ba3d1c86" y="307.584"/>
      </g>
     </g>
     <g id="text_2">
      <!-- 35 -->
      <g transform="translate(103.192734 322.182437)scale(0.1 -0.1)">
       <defs>
        <path d="M 2597 2516 
Q 3050 2419 3304 2112 
Q 3559 1806 3559 1356 
Q 3559 666 3084 287 
Q 2609 -91 1734 -91 
Q 1441 -91 1130 -33 
Q 819 25 488 141 
L 488 750 
Q 750 597 1062 519 
Q 1375 441 1716 441 
Q 2309 441 2620 675 
Q 2931 909 2931 1356 
Q 2931 1769 2642 2001 
Q 2353 2234 1838 2234 
L 1294 2234 
L 1294 2753 
L 1863 2753 
Q 2328 2753 2575 2939 
Q 2822 3125 2822 3475 
Q 2822 3834 2567 4026 
Q 2313 4219 1838 4219 
Q 1578 4219 1281 4162 
Q 984 4106 628 3988 
L 628 4550 
Q 988 4650 1302 4700 
Q 1616 4750 1894 4750 
Q 2613 4750 3031 4423 
Q 3450 4097 3450 3541 
Q 3450 3153 3228 2886 
Q 3006 2619 2597 2516 
z
" id="DejaVuSans-33" transform="scale(0.015625)"/>
        <path d="M 691 4666 
L 3169 4666 
L 3169 4134 
L 1269 4134 
L 1269 2991 
Q 1406 3038 1543 3061 
Q 1681 3084 1819 3084 
Q 2600 3084 3056 2656 
Q 3513 2228 3513 1497 
Q 3513 744 3044 326 
Q 2575 -91 1722 -91 
Q 1428 -91 1123 -41 
Q 819 9 494 109 
L 494 744 
Q 775 591 1075 516 
Q 1375 441 1709 441 
Q 2250 441 2565 725 
Q 2881 1009 2881 1497 
Q 2881 1984 2565 2268 
Q 2250 2553 1709 2553 
Q 1456 2553 1204 2497 
Q 953 2441 691 2322 
L 691 4666 
z
" id="DejaVuSans-35" transform="scale(0.015625)"/>
       </defs>
       <use xlink:href="#DejaVuSans-33"/>
       <use x="63.623047" xlink:href="#DejaVuSans-35"/>
      </g>
     </g>
    </g>
    <g id="xtick_3">
     <g id="line2d_3">
      <g>
       <use style="stroke:#000000;stroke-width:0.8;" x="145.277741" xlink:href="#m74ba3d1c86" y="307.584"/>
      </g>
     </g>
     <g id="text_3">
      <!-- 69 -->
      <g transform="translate(138.915241 322.182437)scale(0.1 -0.1)">
       <defs>
        <path d="M 2113 2584 
Q 1688 2584 1439 2293 
Q 1191 2003 1191 1497 
Q 1191 994 1439 701 
Q 1688 409 2113 409 
Q 2538 409 2786 701 
Q 3034 994 3034 1497 
Q 3034 2003 2786 2293 
Q 2538 2584 2113 2584 
z
M 3366 4563 
L 3366 3988 
Q 3128 4100 2886 4159 
Q 2644 4219 2406 4219 
Q 1781 4219 1451 3797 
Q 1122 3375 1075 2522 
Q 1259 2794 1537 2939 
Q 1816 3084 2150 3084 
Q 2853 3084 3261 2657 
Q 3669 2231 3669 1497 
Q 3669 778 3244 343 
Q 2819 -91 2113 -91 
Q 1303 -91 875 529 
Q 447 1150 447 2328 
Q 447 3434 972 4092 
Q 1497 4750 2381 4750 
Q 2619 4750 2861 4703 
Q 3103 4656 3366 4563 
z
" id="DejaVuSans-36" transform="scale(0.015625)"/>
        <path d="M 703 97 
L 703 672 
Q 941 559 1184 500 
Q 1428 441 1663 441 
Q 2288 441 2617 861 
Q 2947 1281 2994 2138 
Q 2813 1869 2534 1725 
Q 2256 1581 1919 1581 
Q 1219 1581 811 2004 
Q 403 2428 403 3163 
Q 403 3881 828 4315 
Q 1253 4750 1959 4750 
Q 2769 4750 3195 4129 
Q 3622 3509 3622 2328 
Q 3622 1225 3098 567 
Q 2575 -91 1691 -91 
Q 1453 -91 1209 -44 
Q 966 3 703 97 
z
M 1959 2075 
Q 2384 2075 2632 2365 
Q 2881 2656 2881 3163 
Q 2881 3666 2632 3958 
Q 2384 4250 1959 4250 
Q 1534 4250 1286 3958 
Q 1038 3666 1038 3163 
Q 1038 2656 1286 2365 
Q 1534 2075 1959 2075 
z
" id="DejaVuSans-39" transform="scale(0.015625)"/>
       </defs>
       <use xlink:href="#DejaVuSans-36"/>
       <use x="63.623047" xlink:href="#DejaVuSans-39"/>
      </g>
     </g>
    </g>
    <g id="xtick_4">
     <g id="line2d_4">
      <g>
       <use style="stroke:#000000;stroke-width:0.8;" x="182.050909" xlink:href="#m74ba3d1c86" y="307.584"/>
      </g>
     </g>
     <g id="text_4">
      <!-- 104 -->
      <g transform="translate(172.507159 322.182437)scale(0.1 -0.1)">
       <defs>
        <path d="M 2034 4250 
Q 1547 4250 1301 3770 
Q 1056 3291 1056 2328 
Q 1056 1369 1301 889 
Q 1547 409 2034 409 
Q 2525 409 2770 889 
Q 3016 1369 3016 2328 
Q 3016 3291 2770 3770 
Q 2525 4250 2034 4250 
z
M 2034 4750 
Q 2819 4750 3233 4129 
Q 3647 3509 3647 2328 
Q 3647 1150 3233 529 
Q 2819 -91 2034 -91 
Q 1250 -91 836 529 
Q 422 1150 422 2328 
Q 422 3509 836 4129 
Q 1250 4750 2034 4750 
z
" id="DejaVuSans-30" transform="scale(0.015625)"/>
        <path d="M 2419 4116 
L 825 1625 
L 2419 1625 
L 2419 4116 
z
M 2253 4666 
L 3047 4666 
L 3047 1625 
L 3713 1625 
L 3713 1100 
L 3047 1100 
L 3047 0 
L 2419 0 
L 2419 1100 
L 313 1100 
L 313 1709 
L 2253 4666 
z
" id="DejaVuSans-34" transform="scale(0.015625)"/>
       </defs>
       <use xlink:href="#DejaVuSans-31"/>
       <use x="63.623047" xlink:href="#DejaVuSans-30"/>
       <use x="127.246094" xlink:href="#DejaVuSans-34"/>
      </g>
     </g>
    </g>
    <g id="xtick_5">
     <g id="line2d_5">
      <g>
       <use style="stroke:#000000;stroke-width:0.8;" x="217.773416" xlink:href="#m74ba3d1c86" y="307.584"/>
      </g>
     </g>
     <g id="text_5">
      <!-- 138 -->
      <g transform="translate(208.229666 322.182437)scale(0.1 -0.1)">
       <defs>
        <path d="M 2034 2216 
Q 1584 2216 1326 1975 
Q 1069 1734 1069 1313 
Q 1069 891 1326 650 
Q 1584 409 2034 409 
Q 2484 409 2743 651 
Q 3003 894 3003 1313 
Q 3003 1734 2745 1975 
Q 2488 2216 2034 2216 
z
M 1403 2484 
Q 997 2584 770 2862 
Q 544 3141 544 3541 
Q 544 4100 942 4425 
Q 1341 4750 2034 4750 
Q 2731 4750 3128 4425 
Q 3525 4100 3525 3541 
Q 3525 3141 3298 2862 
Q 3072 2584 2669 2484 
Q 3125 2378 3379 2068 
Q 3634 1759 3634 1313 
Q 3634 634 3220 271 
Q 2806 -91 2034 -91 
Q 1263 -91 848 271 
Q 434 634 434 1313 
Q 434 1759 690 2068 
Q 947 2378 1403 2484 
z
M 1172 3481 
Q 1172 3119 1398 2916 
Q 1625 2713 2034 2713 
Q 2441 2713 2670 2916 
Q 2900 3119 2900 3481 
Q 2900 3844 2670 4047 
Q 2441 4250 2034 4250 
Q 1625 4250 1398 4047 
Q 1172 3844 1172 3481 
z
" id="DejaVuSans-38" transform="scale(0.015625)"/>
       </defs>
       <use xlink:href="#DejaVuSans-31"/>
       <use x="63.623047" xlink:href="#DejaVuSans-33"/>
       <use x="127.246094" xlink:href="#DejaVuSans-38"/>
      </g>
     </g>
    </g>
    <g id="xtick_6">
     <g id="line2d_6">
      <g>
       <use style="stroke:#000000;stroke-width:0.8;" x="253.495922" xlink:href="#m74ba3d1c86" y="307.584"/>
      </g>
     </g>
     <g id="text_6">
      <!-- 172 -->
      <g transform="translate(243.952172 322.182437)scale(0.1 -0.1)">
       <defs>
        <path d="M 525 4666 
L 3525 4666 
L 3525 4397 
L 1831 0 
L 1172 0 
L 2766 4134 
L 525 4134 
L 525 4666 
z
" id="DejaVuSans-37" transform="scale(0.015625)"/>
        <path d="M 1228 531 
L 3431 531 
L 3431 0 
L 469 0 
L 469 531 
Q 828 903 1448 1529 
Q 2069 2156 2228 2338 
Q 2531 2678 2651 2914 
Q 2772 3150 2772 3378 
Q 2772 3750 2511 3984 
Q 2250 4219 1831 4219 
Q 1534 4219 1204 4116 
Q 875 4013 500 3803 
L 500 4441 
Q 881 4594 1212 4672 
Q 1544 4750 1819 4750 
Q 2544 4750 2975 4387 
Q 3406 4025 3406 3419 
Q 3406 3131 3298 2873 
Q 3191 2616 2906 2266 
Q 2828 2175 2409 1742 
Q 1991 1309 1228 531 
z
" id="DejaVuSans-32" transform="scale(0.015625)"/>
       </defs>
       <use xlink:href="#DejaVuSans-31"/>
       <use x="63.623047" xlink:href="#DejaVuSans-37"/>
       <use x="127.246094" xlink:href="#DejaVuSans-32"/>
      </g>
     </g>
    </g>
    <g id="xtick_7">
     <g id="line2d_7">
      <g>
       <use style="stroke:#000000;stroke-width:0.8;" x="290.269091" xlink:href="#m74ba3d1c86" y="307.584"/>
      </g>
     </g>
     <g id="text_7">
      <!-- 207 -->
      <g transform="translate(280.725341 322.182437)scale(0.1 -0.1)">
       <use xlink:href="#DejaVuSans-32"/>
       <use x="63.623047" xlink:href="#DejaVuSans-30"/>
       <use x="127.246094" xlink:href="#DejaVuSans-37"/>
      </g>
     </g>
    </g>
    <g id="xtick_8">
     <g id="line2d_8">
      <g>
       <use style="stroke:#000000;stroke-width:0.8;" x="325.991598" xlink:href="#m74ba3d1c86" y="307.584"/>
      </g>
     </g>
     <g id="text_8">
      <!-- 241 -->
      <g transform="translate(316.447848 322.182437)scale(0.1 -0.1)">
       <use xlink:href="#DejaVuSans-32"/>
       <use x="63.623047" xlink:href="#DejaVuSans-34"/>
       <use x="127.246094" xlink:href="#DejaVuSans-31"/>
      </g>
     </g>
    </g>
    <g id="xtick_9">
     <g id="line2d_9">
      <g>
       <use style="stroke:#000000;stroke-width:0.8;" x="361.714104" xlink:href="#m74ba3d1c86" y="307.584"/>
      </g>
     </g>
     <g id="text_9">
      <!-- 275 -->
      <g transform="translate(352.170354 322.182437)scale(0.1 -0.1)">
       <use xlink:href="#DejaVuSans-32"/>
       <use x="63.623047" xlink:href="#DejaVuSans-37"/>
       <use x="127.246094" xlink:href="#DejaVuSans-35"/>
      </g>
     </g>
    </g>
    <g id="xtick_10">
     <g id="line2d_10">
      <g>
       <use style="stroke:#000000;stroke-width:0.8;" x="398.487273" xlink:href="#m74ba3d1c86" y="307.584"/>
      </g>
     </g>
     <g id="text_10">
      <!-- 310 -->
      <g transform="translate(388.943523 322.182437)scale(0.1 -0.1)">
       <use xlink:href="#DejaVuSans-33"/>
       <use x="63.623047" xlink:href="#DejaVuSans-31"/>
       <use x="127.246094" xlink:href="#DejaVuSans-30"/>
      </g>
     </g>
    </g>
    <g id="text_11">
     <!-- Epochs -->
     <g transform="translate(218.244375 335.860562)scale(0.1 -0.1)">
      <defs>
       <path d="M 628 4666 
L 3578 4666 
L 3578 4134 
L 1259 4134 
L 1259 2753 
L 3481 2753 
L 3481 2222 
L 1259 2222 
L 1259 531 
L 3634 531 
L 3634 0 
L 628 0 
L 628 4666 
z
" id="DejaVuSans-45" transform="scale(0.015625)"/>
       <path d="M 1159 525 
L 1159 -1331 
L 581 -1331 
L 581 3500 
L 1159 3500 
L 1159 2969 
Q 1341 3281 1617 3432 
Q 1894 3584 2278 3584 
Q 2916 3584 3314 3078 
Q 3713 2572 3713 1747 
Q 3713 922 3314 415 
Q 2916 -91 2278 -91 
Q 1894 -91 1617 61 
Q 1341 213 1159 525 
z
M 3116 1747 
Q 3116 2381 2855 2742 
Q 2594 3103 2138 3103 
Q 1681 3103 1420 2742 
Q 1159 2381 1159 1747 
Q 1159 1113 1420 752 
Q 1681 391 2138 391 
Q 2594 391 2855 752 
Q 3116 1113 3116 1747 
z
" id="DejaVuSans-70" transform="scale(0.015625)"/>
       <path d="M 1959 3097 
Q 1497 3097 1228 2736 
Q 959 2375 959 1747 
Q 959 1119 1226 758 
Q 1494 397 1959 397 
Q 2419 397 2687 759 
Q 2956 1122 2956 1747 
Q 2956 2369 2687 2733 
Q 2419 3097 1959 3097 
z
M 1959 3584 
Q 2709 3584 3137 3096 
Q 3566 2609 3566 1747 
Q 3566 888 3137 398 
Q 2709 -91 1959 -91 
Q 1206 -91 779 398 
Q 353 888 353 1747 
Q 353 2609 779 3096 
Q 1206 3584 1959 3584 
z
" id="DejaVuSans-6f" transform="scale(0.015625)"/>
       <path d="M 3122 3366 
L 3122 2828 
Q 2878 2963 2633 3030 
Q 2388 3097 2138 3097 
Q 1578 3097 1268 2742 
Q 959 2388 959 1747 
Q 959 1106 1268 751 
Q 1578 397 2138 397 
Q 2388 397 2633 464 
Q 2878 531 3122 666 
L 3122 134 
Q 2881 22 2623 -34 
Q 2366 -91 2075 -91 
Q 1284 -91 818 406 
Q 353 903 353 1747 
Q 353 2603 823 3093 
Q 1294 3584 2113 3584 
Q 2378 3584 2631 3529 
Q 2884 3475 3122 3366 
z
" id="DejaVuSans-63" transform="scale(0.015625)"/>
       <path d="M 3513 2113 
L 3513 0 
L 2938 0 
L 2938 2094 
Q 2938 2591 2744 2837 
Q 2550 3084 2163 3084 
Q 1697 3084 1428 2787 
Q 1159 2491 1159 1978 
L 1159 0 
L 581 0 
L 581 4863 
L 1159 4863 
L 1159 2956 
Q 1366 3272 1645 3428 
Q 1925 3584 2291 3584 
Q 2894 3584 3203 3211 
Q 3513 2838 3513 2113 
z
" id="DejaVuSans-68" transform="scale(0.015625)"/>
       <path d="M 2834 3397 
L 2834 2853 
Q 2591 2978 2328 3040 
Q 2066 3103 1784 3103 
Q 1356 3103 1142 2972 
Q 928 2841 928 2578 
Q 928 2378 1081 2264 
Q 1234 2150 1697 2047 
L 1894 2003 
Q 2506 1872 2764 1633 
Q 3022 1394 3022 966 
Q 3022 478 2636 193 
Q 2250 -91 1575 -91 
Q 1294 -91 989 -36 
Q 684 19 347 128 
L 347 722 
Q 666 556 975 473 
Q 1284 391 1588 391 
Q 1994 391 2212 530 
Q 2431 669 2431 922 
Q 2431 1156 2273 1281 
Q 2116 1406 1581 1522 
L 1381 1569 
Q 847 1681 609 1914 
Q 372 2147 372 2553 
Q 372 3047 722 3315 
Q 1072 3584 1716 3584 
Q 2034 3584 2315 3537 
Q 2597 3491 2834 3397 
z
" id="DejaVuSans-73" transform="scale(0.015625)"/>
      </defs>
      <use xlink:href="#DejaVuSans-45"/>
      <use x="63.183594" xlink:href="#DejaVuSans-70"/>
      <use x="126.660156" xlink:href="#DejaVuSans-6f"/>
      <use x="187.841797" xlink:href="#DejaVuSans-63"/>
      <use x="242.822266" xlink:href="#DejaVuSans-68"/>
      <use x="306.201172" xlink:href="#DejaVuSans-73"/>
     </g>
    </g>
   </g>
   <g id="matplotlib.axis_2">
    <g id="ytick_1">
     <g id="line2d_11">
      <defs>
       <path d="M 0 0 
L -3.5 0 
" id="md872ca9fd3" style="stroke:#000000;stroke-width:0.8;"/>
      </defs>
      <g>
       <use style="stroke:#000000;stroke-width:0.8;" x="57.6" xlink:href="#md872ca9fd3" y="277.260692"/>
      </g>
     </g>
     <g id="text_12">
      <!-- 30 -->
      <g transform="translate(37.875 281.059911)scale(0.1 -0.1)">
       <use xlink:href="#DejaVuSans-33"/>
       <use x="63.623047" xlink:href="#DejaVuSans-30"/>
      </g>
     </g>
    </g>
    <g id="ytick_2">
     <g id="line2d_12">
      <g>
       <use style="stroke:#000000;stroke-width:0.8;" x="57.6" xlink:href="#md872ca9fd3" y="243.803813"/>
      </g>
     </g>
     <g id="text_13">
      <!-- 40 -->
      <g transform="translate(37.875 247.603032)scale(0.1 -0.1)">
       <use xlink:href="#DejaVuSans-34"/>
       <use x="63.623047" xlink:href="#DejaVuSans-30"/>
      </g>
     </g>
    </g>
    <g id="ytick_3">
     <g id="line2d_13">
      <g>
       <use style="stroke:#000000;stroke-width:0.8;" x="57.6" xlink:href="#md872ca9fd3" y="210.346935"/>
      </g>
     </g>
     <g id="text_14">
      <!-- 50 -->
      <g transform="translate(37.875 214.146153)scale(0.1 -0.1)">
       <use xlink:href="#DejaVuSans-35"/>
       <use x="63.623047" xlink:href="#DejaVuSans-30"/>
      </g>
     </g>
    </g>
    <g id="ytick_4">
     <g id="line2d_14">
      <g>
       <use style="stroke:#000000;stroke-width:0.8;" x="57.6" xlink:href="#md872ca9fd3" y="176.890056"/>
      </g>
     </g>
     <g id="text_15">
      <!-- 60 -->
      <g transform="translate(37.875 180.689274)scale(0.1 -0.1)">
       <use xlink:href="#DejaVuSans-36"/>
       <use x="63.623047" xlink:href="#DejaVuSans-30"/>
      </g>
     </g>
    </g>
    <g id="ytick_5">
     <g id="line2d_15">
      <g>
       <use style="stroke:#000000;stroke-width:0.8;" x="57.6" xlink:href="#md872ca9fd3" y="143.433177"/>
      </g>
     </g>
     <g id="text_16">
      <!-- 70 -->
      <g transform="translate(37.875 147.232395)scale(0.1 -0.1)">
       <use xlink:href="#DejaVuSans-37"/>
       <use x="63.623047" xlink:href="#DejaVuSans-30"/>
      </g>
     </g>
    </g>
    <g id="ytick_6">
     <g id="line2d_16">
      <g>
       <use style="stroke:#000000;stroke-width:0.8;" x="57.6" xlink:href="#md872ca9fd3" y="109.976298"/>
      </g>
     </g>
     <g id="text_17">
      <!-- 80 -->
      <g transform="translate(37.875 113.775517)scale(0.1 -0.1)">
       <use xlink:href="#DejaVuSans-38"/>
       <use x="63.623047" xlink:href="#DejaVuSans-30"/>
      </g>
     </g>
    </g>
    <g id="ytick_7">
     <g id="line2d_17">
      <g>
       <use style="stroke:#000000;stroke-width:0.8;" x="57.6" xlink:href="#md872ca9fd3" y="76.519419"/>
      </g>
     </g>
     <g id="text_18">
      <!-- 90 -->
      <g transform="translate(37.875 80.318638)scale(0.1 -0.1)">
       <use xlink:href="#DejaVuSans-39"/>
       <use x="63.623047" xlink:href="#DejaVuSans-30"/>
      </g>
     </g>
    </g>
    <g id="ytick_8">
     <g id="line2d_18">
      <g>
       <use style="stroke:#000000;stroke-width:0.8;" x="57.6" xlink:href="#md872ca9fd3" y="43.06254"/>
      </g>
     </g>
     <g id="text_19">
      <!-- 100 -->
      <g transform="translate(31.5125 46.861759)scale(0.1 -0.1)">
       <use xlink:href="#DejaVuSans-31"/>
       <use x="63.623047" xlink:href="#DejaVuSans-30"/>
       <use x="127.246094" xlink:href="#DejaVuSans-30"/>
      </g>
     </g>
    </g>
    <g id="text_20">
     <!-- Accuracy -->
     <g transform="translate(25.432812 197.356125)rotate(-90)scale(0.1 -0.1)">
      <defs>
       <path d="M 2188 4044 
L 1331 1722 
L 3047 1722 
L 2188 4044 
z
M 1831 4666 
L 2547 4666 
L 4325 0 
L 3669 0 
L 3244 1197 
L 1141 1197 
L 716 0 
L 50 0 
L 1831 4666 
z
" id="DejaVuSans-41" transform="scale(0.015625)"/>
       <path d="M 544 1381 
L 544 3500 
L 1119 3500 
L 1119 1403 
Q 1119 906 1312 657 
Q 1506 409 1894 409 
Q 2359 409 2629 706 
Q 2900 1003 2900 1516 
L 2900 3500 
L 3475 3500 
L 3475 0 
L 2900 0 
L 2900 538 
Q 2691 219 2414 64 
Q 2138 -91 1772 -91 
Q 1169 -91 856 284 
Q 544 659 544 1381 
z
M 1991 3584 
L 1991 3584 
z
" id="DejaVuSans-75" transform="scale(0.015625)"/>
       <path d="M 2631 2963 
Q 2534 3019 2420 3045 
Q 2306 3072 2169 3072 
Q 1681 3072 1420 2755 
Q 1159 2438 1159 1844 
L 1159 0 
L 581 0 
L 581 3500 
L 1159 3500 
L 1159 2956 
Q 1341 3275 1631 3429 
Q 1922 3584 2338 3584 
Q 2397 3584 2469 3576 
Q 2541 3569 2628 3553 
L 2631 2963 
z
" id="DejaVuSans-72" transform="scale(0.015625)"/>
       <path d="M 2194 1759 
Q 1497 1759 1228 1600 
Q 959 1441 959 1056 
Q 959 750 1161 570 
Q 1363 391 1709 391 
Q 2188 391 2477 730 
Q 2766 1069 2766 1631 
L 2766 1759 
L 2194 1759 
z
M 3341 1997 
L 3341 0 
L 2766 0 
L 2766 531 
Q 2569 213 2275 61 
Q 1981 -91 1556 -91 
Q 1019 -91 701 211 
Q 384 513 384 1019 
Q 384 1609 779 1909 
Q 1175 2209 1959 2209 
L 2766 2209 
L 2766 2266 
Q 2766 2663 2505 2880 
Q 2244 3097 1772 3097 
Q 1472 3097 1187 3025 
Q 903 2953 641 2809 
L 641 3341 
Q 956 3463 1253 3523 
Q 1550 3584 1831 3584 
Q 2591 3584 2966 3190 
Q 3341 2797 3341 1997 
z
" id="DejaVuSans-61" transform="scale(0.015625)"/>
       <path d="M 2059 -325 
Q 1816 -950 1584 -1140 
Q 1353 -1331 966 -1331 
L 506 -1331 
L 506 -850 
L 844 -850 
Q 1081 -850 1212 -737 
Q 1344 -625 1503 -206 
L 1606 56 
L 191 3500 
L 800 3500 
L 1894 763 
L 2988 3500 
L 3597 3500 
L 2059 -325 
z
" id="DejaVuSans-79" transform="scale(0.015625)"/>
      </defs>
      <use xlink:href="#DejaVuSans-41"/>
      <use x="66.658203" xlink:href="#DejaVuSans-63"/>
      <use x="121.638672" xlink:href="#DejaVuSans-63"/>
      <use x="176.619141" xlink:href="#DejaVuSans-75"/>
      <use x="239.998047" xlink:href="#DejaVuSans-72"/>
      <use x="281.111328" xlink:href="#DejaVuSans-61"/>
      <use x="342.390625" xlink:href="#DejaVuSans-63"/>
      <use x="397.371094" xlink:href="#DejaVuSans-79"/>
     </g>
    </g>
   </g>
   <g id="line2d_19">
    <path clip-path="url(#p201388aa3f)" d="M 73.832727 295.488 
L 74.883389 275.393799 
L 75.934051 238.878961 
L 76.984713 214.60265 
L 78.035375 198.161939 
L 80.136699 171.925055 
L 82.238023 155.497727 
L 83.288685 148.712672 
L 84.339347 144.236142 
L 85.390009 172.393451 
L 86.440671 164.644838 
L 88.541995 152.680658 
L 89.592657 149.033858 
L 90.643319 144.202685 
L 91.693981 140.843614 
L 93.795305 133.509866 
L 94.845966 130.304697 
L 95.896628 127.976099 
L 96.94729 124.275768 
L 99.048614 119.190322 
L 100.099276 115.663967 
L 101.149938 114.640187 
L 102.2006 111.608994 
L 103.251262 109.006048 
L 104.301924 108.343602 
L 105.352586 108.169626 
L 106.403248 133.750756 
L 107.45391 132.198357 
L 108.504572 129.240769 
L 109.555234 127.132985 
L 110.605896 125.69434 
L 111.656558 124.536732 
L 112.70722 121.80665 
L 113.757882 119.779163 
L 114.808544 118.969507 
L 115.859206 117.035699 
L 116.909868 116.754662 
L 117.96053 116.085524 
L 119.011192 113.462505 
L 120.061853 111.528697 
L 121.112515 110.846177 
L 122.163177 108.156244 
L 123.213839 107.841749 
L 124.264501 106.797894 
L 125.315163 104.449221 
L 126.365825 104.201641 
L 127.416487 102.461883 
L 128.467149 101.946647 
L 129.517811 99.62474 
L 130.568473 98.84854 
L 131.619135 97.061943 
L 132.669797 96.787596 
L 133.720459 95.456012 
L 134.771121 93.609193 
L 135.821783 92.81961 
L 137.923107 90.430789 
L 138.973769 89.855331 
L 140.024431 87.633794 
L 141.075093 88.015203 
L 142.125755 88.041968 
L 143.176417 86.362433 
L 144.227079 86.315593 
L 145.277741 85.713369 
L 146.328402 85.392183 
L 147.379064 86.482877 
L 148.429726 110.056594 
L 149.480388 110.056594 
L 150.53105 109.01274 
L 151.581712 107.386735 
L 152.632374 108.156244 
L 153.683036 106.797894 
L 154.733698 106.851425 
L 155.78436 105.566681 
L 156.835022 104.844013 
L 157.885684 103.244774 
L 158.936346 103.632874 
L 159.987008 102.548871 
L 161.03767 101.016546 
L 162.088332 102.180845 
L 163.138994 101.177139 
L 164.189656 100.508001 
L 165.240318 98.520662 
L 166.29098 99.62474 
L 167.341642 98.554119 
L 168.392304 97.838142 
L 169.442966 96.573472 
L 170.493628 97.884982 
L 171.544289 96.044853 
L 172.594951 95.449321 
L 173.645613 95.810655 
L 174.696275 94.505837 
L 175.746937 94.71327 
L 176.797599 92.853067 
L 177.848261 94.064206 
L 178.898923 92.485042 
L 179.949585 91.668694 
L 181.000247 92.244152 
L 182.050909 91.682076 
L 183.101571 90.778741 
L 184.152233 90.497703 
L 186.253557 89.60775 
L 187.304219 88.048659 
L 188.354881 87.379522 
L 189.405543 87.473201 
L 191.506867 85.827123 
L 192.557529 85.974333 
L 193.608191 85.298504 
L 194.658853 85.800357 
L 195.709515 84.314872 
L 196.760177 83.799636 
L 197.810838 83.505215 
L 198.8615 82.401138 
L 199.912162 82.267311 
L 200.962824 81.43758 
L 202.013486 79.871798 
L 203.064148 79.303031 
L 204.11481 78.874783 
L 205.165472 79.952095 
L 206.216134 78.767721 
L 207.266796 78.526832 
L 208.317458 77.30231 
L 209.36812 77.509743 
L 210.418782 77.034655 
L 211.469444 75.682997 
L 212.520106 76.626481 
L 213.570768 75.763293 
L 214.62143 75.234675 
L 215.672092 75.020551 
L 216.722754 74.96702 
L 217.773416 74.786353 
L 218.824078 73.862943 
L 220.925402 73.407929 
L 221.976064 72.578199 
L 223.026726 73.300867 
L 224.077387 73.341015 
L 225.128049 72.531359 
L 226.178711 72.109802 
L 227.229373 72.658495 
L 228.280035 72.143259 
L 229.330697 71.982666 
L 230.381359 72.350692 
L 231.432021 72.451062 
L 232.482683 94.264948 
L 233.533345 97.610635 
L 234.584007 95.88426 
L 235.634669 96.011397 
L 236.685331 95.215123 
L 237.735993 96.12515 
L 238.786655 95.422556 
L 239.837317 95.469395 
L 240.887979 95.39579 
L 241.938641 94.505837 
L 242.989303 94.218108 
L 245.090627 92.859759 
L 246.141289 93.281315 
L 247.191951 93.0605 
L 248.242613 93.321464 
L 249.293274 93.027043 
L 250.343936 92.431511 
L 251.394598 92.505116 
L 252.44526 92.117016 
L 253.495922 92.210695 
L 254.546584 91.695459 
L 255.597246 90.932642 
L 256.647908 91.053087 
L 257.69857 91.387656 
L 258.749232 90.91926 
L 259.799894 90.798815 
L 260.850556 91.561632 
L 261.901218 88.965378 
L 262.95188 90.497703 
L 265.053204 88.309623 
L 266.103866 89.105897 
L 267.154528 88.844933 
L 268.20519 89.46054 
L 269.255852 88.918538 
L 270.306514 88.563895 
L 271.357176 88.008511 
L 272.407838 88.088808 
L 273.4585 87.392905 
L 274.509162 88.898464 
L 275.559823 87.46651 
L 276.610485 87.145324 
L 277.661147 87.245694 
L 278.711809 86.081395 
L 279.762471 86.489569 
L 280.813133 85.880654 
L 281.863795 86.355741 
L 282.914457 86.663545 
L 283.965119 85.686604 
L 285.015781 86.215222 
L 286.066443 85.044232 
L 287.117105 84.763194 
L 288.167767 85.800357 
L 289.218429 85.137911 
L 290.269091 84.863565 
L 291.319753 83.96692 
L 292.370415 84.100748 
L 293.421077 85.265047 
L 294.471739 83.659117 
L 295.522401 83.826401 
L 296.573063 82.949831 
L 297.623725 83.726031 
L 298.674387 83.123807 
L 299.725049 83.953537 
L 300.775711 82.046495 
L 301.826372 82.066569 
L 302.877034 82.882917 
L 303.927696 81.805606 
L 304.978358 80.94911 
L 307.079682 81.685161 
L 308.130344 80.895579 
L 309.181006 81.09632 
L 310.231668 80.674763 
L 311.28233 80.467331 
L 312.332992 80.112688 
L 313.383654 80.092614 
L 314.434316 79.14913 
L 315.484978 79.918638 
L 316.53564 78.981845 
L 317.586302 78.881475 
L 318.636964 77.315693 
L 319.687626 77.703792 
L 322.839612 77.924608 
L 323.890274 77.556582 
L 324.940936 77.001198 
L 325.991598 77.027963 
L 327.042259 75.682997 
L 328.092921 76.833914 
L 329.143583 75.301589 
L 331.244907 75.335045 
L 332.295569 75.087465 
L 333.346231 75.348428 
L 334.396893 73.99677 
L 335.447555 74.612377 
L 336.498217 73.341015 
L 337.548879 73.635436 
L 338.599541 73.789338 
L 339.650203 73.635436 
L 340.700865 73.059978 
L 341.751527 72.7321 
L 342.802189 72.58489 
L 343.852851 73.575214 
L 345.954175 71.909061 
L 347.004837 72.016123 
L 348.055499 71.400516 
L 349.106161 71.500887 
L 350.156823 71.199775 
L 351.207485 71.413899 
L 352.258147 70.497181 
L 353.308808 70.764836 
L 354.35947 70.78491 
L 355.410132 69.573771 
L 356.460794 70.329896 
L 357.511456 69.225819 
L 358.562118 69.453326 
L 359.61278 69.513548 
L 361.714104 68.764114 
L 362.764766 67.847396 
L 363.815428 67.847396 
L 364.86609 68.322484 
L 365.916752 67.171567 
L 366.967414 67.599815 
L 369.068738 66.997591 
L 370.1194 66.877146 
L 371.170062 67.405765 
L 372.220724 66.736628 
L 373.271386 66.388676 
L 374.322048 66.950752 
L 375.37271 65.592402 
L 377.474034 66.576035 
L 378.524695 65.886823 
L 379.575357 66.294997 
L 380.626019 66.2147 
L 381.676681 65.987193 
L 384.828667 65.947045 
L 385.879329 66.154478 
L 386.929991 65.525489 
L 387.980653 65.993885 
L 389.031315 65.746304 
L 391.132639 64.842968 
L 392.183301 65.257833 
L 393.233963 65.33813 
L 394.284625 65.057092 
L 395.335287 64.106917 
L 396.385949 65.244451 
L 397.436611 64.869734 
L 398.487273 65.719538 
L 398.487273 65.719538 
" style="fill:none;stroke:#1f77b4;stroke-linecap:square;stroke-width:1.5;"/>
   </g>
   <g id="line2d_20">
    <path clip-path="url(#p201388aa3f)" d="M 73.832727 261.234847 
L 74.883389 251.599266 
L 75.934051 196.897269 
L 76.984713 256.049031 
L 78.035375 174.882643 
L 79.086037 151.596655 
L 80.136699 140.355144 
L 82.238023 112.786676 
L 83.288685 113.92421 
L 84.339347 108.203083 
L 85.390009 151.697026 
L 86.440671 145.775158 
L 87.491333 133.931423 
L 88.541995 138.213904 
L 89.592657 115.898165 
L 90.643319 136.674887 
L 91.693981 101.076768 
L 92.744643 126.370169 
L 93.795305 102.783069 
L 94.845966 97.764537 
L 95.896628 94.151194 
L 96.94729 89.36686 
L 97.997952 91.909583 
L 100.099276 89.099205 
L 101.149938 84.047217 
L 102.2006 83.344622 
L 103.251262 80.065848 
L 104.301924 80.935727 
L 105.352586 79.764736 
L 107.45391 117.437182 
L 108.504572 93.114031 
L 109.555234 130.920304 
L 110.605896 93.080574 
L 111.656558 96.459719 
L 112.70722 94.351935 
L 113.757882 111.950254 
L 114.808544 102.615784 
L 115.859206 86.723767 
L 116.909868 93.883539 
L 117.96053 83.177338 
L 119.011192 108.403825 
L 120.061853 78.426461 
L 121.112515 86.355741 
L 122.163177 86.422655 
L 123.213839 78.694116 
L 124.264501 79.563995 
L 125.315163 73.374472 
L 126.365825 72.136568 
L 127.416487 73.876325 
L 128.467149 75.047316 
L 129.517811 73.842869 
L 130.568473 73.675584 
L 131.619135 68.088285 
L 132.669797 67.486062 
L 133.720459 69.694216 
L 134.771121 69.292733 
L 135.821783 65.344821 
L 136.872445 64.274201 
L 137.923107 64.675684 
L 140.024431 63.069754 
L 141.075093 62.835555 
L 142.125755 62.233332 
L 143.176417 62.233332 
L 144.227079 62.099504 
L 145.277741 62.099504 
L 146.328402 62.367159 
L 147.379064 61.49728 
L 148.429726 94.51922 
L 149.480388 78.459918 
L 150.53105 97.597253 
L 151.581712 81.069554 
L 152.632374 86.389198 
L 153.683036 76.352135 
L 154.733698 77.958065 
L 155.78436 74.746204 
L 156.835022 80.166219 
L 157.885684 82.541657 
L 158.936346 79.028685 
L 159.987008 78.091892 
L 161.03767 76.151393 
L 162.088332 69.125449 
L 163.138994 84.482156 
L 164.189656 74.913489 
L 165.240318 70.965577 
L 166.29098 75.883738 
L 167.341642 69.125449 
L 168.392304 74.813118 
L 169.442966 73.374472 
L 170.493628 68.556682 
L 171.544289 69.727673 
L 172.594951 73.173731 
L 173.645613 67.586432 
L 174.696275 73.006447 
L 175.746937 70.664465 
L 176.797599 65.512106 
L 177.848261 66.683097 
L 178.898923 70.095698 
L 179.949585 68.623596 
L 181.000247 66.515812 
L 182.050909 68.556682 
L 183.101571 64.006546 
L 184.152233 64.876425 
L 185.202895 64.642227 
L 186.253557 62.668271 
L 187.304219 65.746304 
L 188.354881 62.902469 
L 189.405543 64.006546 
L 190.456205 62.534444 
L 191.506867 61.597651 
L 192.557529 63.437779 
L 193.608191 64.541856 
L 194.658853 62.03259 
L 195.709515 62.233332 
L 196.760177 62.5679 
L 197.810838 60.694315 
L 198.8615 63.337409 
L 199.912162 60.8616 
L 200.962824 58.954558 
L 202.013486 60.828143 
L 203.064148 60.527031 
L 204.11481 60.96197 
L 205.165472 59.857893 
L 206.216134 59.121842 
L 207.266796 59.155299 
L 208.317458 58.452704 
L 209.36812 58.553075 
L 210.418782 57.616282 
L 211.469444 58.218506 
L 212.520106 57.281714 
L 214.62143 56.880231 
L 215.672092 57.817024 
L 216.722754 57.616282 
L 217.773416 56.813317 
L 218.824078 57.080972 
L 219.87474 56.579119 
L 220.925402 56.746403 
L 221.976064 56.545662 
L 223.026726 56.77986 
L 224.077387 56.177637 
L 226.178711 56.545662 
L 227.229373 56.746403 
L 228.280035 56.378378 
L 229.330697 56.344921 
L 230.381359 56.579119 
L 231.432021 56.211093 
L 232.482683 80.400417 
L 233.533345 72.337309 
L 234.584007 68.25557 
L 235.634669 76.753617 
L 236.685331 69.627302 
L 237.735993 69.393104 
L 238.786655 68.523225 
L 239.837317 69.828043 
L 240.887979 72.270395 
L 241.938641 67.352234 
L 242.989303 67.619889 
L 244.039965 70.530638 
L 245.090627 71.90237 
L 246.141289 67.82063 
L 247.191951 72.53805 
L 248.242613 70.296439 
L 249.293274 69.025078 
L 250.343936 65.645933 
L 251.394598 64.709141 
L 252.44526 66.281614 
L 253.495922 64.976796 
L 254.546584 66.080873 
L 256.647908 66.013959 
L 257.69857 69.058535 
L 258.749232 68.857794 
L 259.799894 69.961871 
L 260.850556 68.088285 
L 261.901218 69.225819 
L 262.95188 64.274201 
L 264.002542 65.411735 
L 265.053204 62.869012 
L 266.103866 64.976796 
L 267.154528 63.237038 
L 268.20519 69.359647 
L 269.255852 69.526931 
L 270.306514 64.909882 
L 271.357176 64.709141 
L 272.407838 64.809511 
L 273.4585 66.448898 
L 274.509162 64.709141 
L 275.559823 67.82063 
L 276.610485 65.077166 
L 277.661147 63.973089 
L 278.711809 66.716553 
L 279.762471 62.701728 
L 280.813133 68.891251 
L 281.863795 66.515812 
L 282.914457 62.367159 
L 283.965119 62.768642 
L 285.015781 62.601357 
L 286.066443 63.303952 
L 287.117105 61.965677 
L 288.167767 63.00284 
L 289.218429 63.303952 
L 290.269091 62.300245 
L 291.319753 63.270495 
L 292.370415 62.668271 
L 293.421077 61.798392 
L 294.471739 64.441486 
L 295.522401 65.980502 
L 296.573063 61.196168 
L 297.623725 64.709141 
L 298.674387 61.39691 
L 299.725049 62.802099 
L 300.775711 59.924807 
L 301.826372 61.229625 
L 302.877034 60.928513 
L 303.927696 62.199875 
L 304.978358 64.474943 
L 306.02902 59.991721 
L 308.130344 61.229625 
L 309.181006 60.192462 
L 310.231668 62.969383 
L 311.28233 60.560488 
L 312.332992 59.021471 
L 313.383654 59.021471 
L 314.434316 59.35604 
L 315.484978 60.32629 
L 316.53564 60.025178 
L 317.586302 59.523324 
L 318.636964 58.753816 
L 319.687626 58.954558 
L 320.738288 61.162712 
L 321.78895 59.590238 
L 322.839612 59.389497 
L 324.940936 59.824436 
L 325.991598 58.419247 
L 327.042259 59.422954 
L 328.092921 58.28542 
L 329.143583 57.783567 
L 330.194245 59.35604 
L 332.295569 57.415541 
L 333.346231 57.817024 
L 334.396893 56.278007 
L 335.447555 57.549369 
L 336.498217 56.612576 
L 337.548879 57.582825 
L 338.599541 56.813317 
L 339.650203 56.913688 
L 340.700865 57.448998 
L 341.751527 57.047515 
L 342.802189 57.817024 
L 343.852851 57.014059 
L 344.903513 56.445292 
L 345.954175 56.478748 
L 347.004837 57.515912 
L 348.055499 56.612576 
L 350.156823 56.278007 
L 351.207485 54.939732 
L 352.258147 55.475042 
L 353.308808 55.140473 
L 355.410132 55.374671 
L 356.460794 55.140473 
L 358.562118 55.909982 
L 359.61278 55.843068 
L 360.663442 54.772448 
L 361.714104 55.07356 
L 362.764766 55.508499 
L 363.815428 54.672077 
L 365.916752 55.107016 
L 366.967414 54.906275 
L 368.018076 54.973189 
L 370.1194 54.772448 
L 373.271386 53.802198 
L 375.37271 54.370965 
L 376.423372 54.471336 
L 377.474034 54.304051 
L 378.524695 53.735284 
L 379.575357 54.203681 
L 380.626019 53.668371 
L 381.676681 54.10331 
L 382.727343 54.069853 
L 383.778005 53.634914 
L 384.828667 53.936026 
L 385.879329 53.768741 
L 387.980653 53.869112 
L 389.031315 53.936026 
L 390.081977 53.802198 
L 391.132639 53.969483 
L 392.183301 53.601457 
L 393.233963 53.601457 
L 394.284625 53.768741 
L 398.487273 53.668371 
L 398.487273 53.668371 
" style="fill:none;stroke:#ff7f0e;stroke-linecap:square;stroke-width:1.5;"/>
   </g>
   <g id="patch_3">
    <path d="M 57.6 307.584 
L 57.6 41.472 
" style="fill:none;stroke:#000000;stroke-linecap:square;stroke-linejoin:miter;stroke-width:0.8;"/>
   </g>
   <g id="patch_4">
    <path d="M 414.72 307.584 
L 414.72 41.472 
" style="fill:none;stroke:#000000;stroke-linecap:square;stroke-linejoin:miter;stroke-width:0.8;"/>
   </g>
   <g id="patch_5">
    <path d="M 57.6 307.584 
L 414.72 307.584 
" style="fill:none;stroke:#000000;stroke-linecap:square;stroke-linejoin:miter;stroke-width:0.8;"/>
   </g>
   <g id="patch_6">
    <path d="M 57.6 41.472 
L 414.72 41.472 
" style="fill:none;stroke:#000000;stroke-linecap:square;stroke-linejoin:miter;stroke-width:0.8;"/>
   </g>
   <g id="text_21">
    <!-- Training and Validation Accuracy -->
    <g transform="translate(138.4575 35.472)scale(0.12 -0.12)">
     <defs>
      <path d="M -19 4666 
L 3928 4666 
L 3928 4134 
L 2272 4134 
L 2272 0 
L 1638 0 
L 1638 4134 
L -19 4134 
L -19 4666 
z
" id="DejaVuSans-54" transform="scale(0.015625)"/>
      <path d="M 603 3500 
L 1178 3500 
L 1178 0 
L 603 0 
L 603 3500 
z
M 603 4863 
L 1178 4863 
L 1178 4134 
L 603 4134 
L 603 4863 
z
" id="DejaVuSans-69" transform="scale(0.015625)"/>
      <path d="M 3513 2113 
L 3513 0 
L 2938 0 
L 2938 2094 
Q 2938 2591 2744 2837 
Q 2550 3084 2163 3084 
Q 1697 3084 1428 2787 
Q 1159 2491 1159 1978 
L 1159 0 
L 581 0 
L 581 3500 
L 1159 3500 
L 1159 2956 
Q 1366 3272 1645 3428 
Q 1925 3584 2291 3584 
Q 2894 3584 3203 3211 
Q 3513 2838 3513 2113 
z
" id="DejaVuSans-6e" transform="scale(0.015625)"/>
      <path d="M 2906 1791 
Q 2906 2416 2648 2759 
Q 2391 3103 1925 3103 
Q 1463 3103 1205 2759 
Q 947 2416 947 1791 
Q 947 1169 1205 825 
Q 1463 481 1925 481 
Q 2391 481 2648 825 
Q 2906 1169 2906 1791 
z
M 3481 434 
Q 3481 -459 3084 -895 
Q 2688 -1331 1869 -1331 
Q 1566 -1331 1297 -1286 
Q 1028 -1241 775 -1147 
L 775 -588 
Q 1028 -725 1275 -790 
Q 1522 -856 1778 -856 
Q 2344 -856 2625 -561 
Q 2906 -266 2906 331 
L 2906 616 
Q 2728 306 2450 153 
Q 2172 0 1784 0 
Q 1141 0 747 490 
Q 353 981 353 1791 
Q 353 2603 747 3093 
Q 1141 3584 1784 3584 
Q 2172 3584 2450 3431 
Q 2728 3278 2906 2969 
L 2906 3500 
L 3481 3500 
L 3481 434 
z
" id="DejaVuSans-67" transform="scale(0.015625)"/>
      <path id="DejaVuSans-20" transform="scale(0.015625)"/>
      <path d="M 2906 2969 
L 2906 4863 
L 3481 4863 
L 3481 0 
L 2906 0 
L 2906 525 
Q 2725 213 2448 61 
Q 2172 -91 1784 -91 
Q 1150 -91 751 415 
Q 353 922 353 1747 
Q 353 2572 751 3078 
Q 1150 3584 1784 3584 
Q 2172 3584 2448 3432 
Q 2725 3281 2906 2969 
z
M 947 1747 
Q 947 1113 1208 752 
Q 1469 391 1925 391 
Q 2381 391 2643 752 
Q 2906 1113 2906 1747 
Q 2906 2381 2643 2742 
Q 2381 3103 1925 3103 
Q 1469 3103 1208 2742 
Q 947 2381 947 1747 
z
" id="DejaVuSans-64" transform="scale(0.015625)"/>
      <path d="M 1831 0 
L 50 4666 
L 709 4666 
L 2188 738 
L 3669 4666 
L 4325 4666 
L 2547 0 
L 1831 0 
z
" id="DejaVuSans-56" transform="scale(0.015625)"/>
      <path d="M 603 4863 
L 1178 4863 
L 1178 0 
L 603 0 
L 603 4863 
z
" id="DejaVuSans-6c" transform="scale(0.015625)"/>
      <path d="M 1172 4494 
L 1172 3500 
L 2356 3500 
L 2356 3053 
L 1172 3053 
L 1172 1153 
Q 1172 725 1289 603 
Q 1406 481 1766 481 
L 2356 481 
L 2356 0 
L 1766 0 
Q 1100 0 847 248 
Q 594 497 594 1153 
L 594 3053 
L 172 3053 
L 172 3500 
L 594 3500 
L 594 4494 
L 1172 4494 
z
" id="DejaVuSans-74" transform="scale(0.015625)"/>
     </defs>
     <use xlink:href="#DejaVuSans-54"/>
     <use x="46.333984" xlink:href="#DejaVuSans-72"/>
     <use x="87.447266" xlink:href="#DejaVuSans-61"/>
     <use x="148.726562" xlink:href="#DejaVuSans-69"/>
     <use x="176.509766" xlink:href="#DejaVuSans-6e"/>
     <use x="239.888672" xlink:href="#DejaVuSans-69"/>
     <use x="267.671875" xlink:href="#DejaVuSans-6e"/>
     <use x="331.050781" xlink:href="#DejaVuSans-67"/>
     <use x="394.527344" xlink:href="#DejaVuSans-20"/>
     <use x="426.314453" xlink:href="#DejaVuSans-61"/>
     <use x="487.59375" xlink:href="#DejaVuSans-6e"/>
     <use x="550.972656" xlink:href="#DejaVuSans-64"/>
     <use x="614.449219" xlink:href="#DejaVuSans-20"/>
     <use x="646.236328" xlink:href="#DejaVuSans-56"/>
     <use x="706.894531" xlink:href="#DejaVuSans-61"/>
     <use x="768.173828" xlink:href="#DejaVuSans-6c"/>
     <use x="795.957031" xlink:href="#DejaVuSans-69"/>
     <use x="823.740234" xlink:href="#DejaVuSans-64"/>
     <use x="887.216797" xlink:href="#DejaVuSans-61"/>
     <use x="948.496094" xlink:href="#DejaVuSans-74"/>
     <use x="987.705078" xlink:href="#DejaVuSans-69"/>
     <use x="1015.488281" xlink:href="#DejaVuSans-6f"/>
     <use x="1076.669922" xlink:href="#DejaVuSans-6e"/>
     <use x="1140.048828" xlink:href="#DejaVuSans-20"/>
     <use x="1171.835938" xlink:href="#DejaVuSans-41"/>
     <use x="1238.494141" xlink:href="#DejaVuSans-63"/>
     <use x="1293.474609" xlink:href="#DejaVuSans-63"/>
     <use x="1348.455078" xlink:href="#DejaVuSans-75"/>
     <use x="1411.833984" xlink:href="#DejaVuSans-72"/>
     <use x="1452.947266" xlink:href="#DejaVuSans-61"/>
     <use x="1514.226562" xlink:href="#DejaVuSans-63"/>
     <use x="1569.207031" xlink:href="#DejaVuSans-79"/>
    </g>
   </g>
   <g id="legend_1">
    <g id="patch_7">
     <path d="M 277.504375 302.584 
L 407.72 302.584 
Q 409.72 302.584 409.72 300.584 
L 409.72 272.22775 
Q 409.72 270.22775 407.72 270.22775 
L 277.504375 270.22775 
Q 275.504375 270.22775 275.504375 272.22775 
L 275.504375 300.584 
Q 275.504375 302.584 277.504375 302.584 
z
" style="fill:#ffffff;opacity:0.8;stroke:#cccccc;stroke-linejoin:miter;"/>
    </g>
    <g id="line2d_21">
     <path d="M 279.504375 278.326187 
L 299.504375 278.326187 
" style="fill:none;stroke:#1f77b4;stroke-linecap:square;stroke-width:1.5;"/>
    </g>
    <g id="line2d_22"/>
    <g id="text_22">
     <!-- Train Accuracy -->
     <g transform="translate(307.504375 281.826187)scale(0.1 -0.1)">
      <use xlink:href="#DejaVuSans-54"/>
      <use x="46.333984" xlink:href="#DejaVuSans-72"/>
      <use x="87.447266" xlink:href="#DejaVuSans-61"/>
      <use x="148.726562" xlink:href="#DejaVuSans-69"/>
      <use x="176.509766" xlink:href="#DejaVuSans-6e"/>
      <use x="239.888672" xlink:href="#DejaVuSans-20"/>
      <use x="271.675781" xlink:href="#DejaVuSans-41"/>
      <use x="338.333984" xlink:href="#DejaVuSans-63"/>
      <use x="393.314453" xlink:href="#DejaVuSans-63"/>
      <use x="448.294922" xlink:href="#DejaVuSans-75"/>
      <use x="511.673828" xlink:href="#DejaVuSans-72"/>
      <use x="552.787109" xlink:href="#DejaVuSans-61"/>
      <use x="614.066406" xlink:href="#DejaVuSans-63"/>
      <use x="669.046875" xlink:href="#DejaVuSans-79"/>
     </g>
    </g>
    <g id="line2d_23">
     <path d="M 279.504375 293.004312 
L 299.504375 293.004312 
" style="fill:none;stroke:#ff7f0e;stroke-linecap:square;stroke-width:1.5;"/>
    </g>
    <g id="line2d_24"/>
    <g id="text_23">
     <!-- Validation Accuracy -->
     <g transform="translate(307.504375 296.504312)scale(0.1 -0.1)">
      <use xlink:href="#DejaVuSans-56"/>
      <use x="60.658203" xlink:href="#DejaVuSans-61"/>
      <use x="121.9375" xlink:href="#DejaVuSans-6c"/>
      <use x="149.720703" xlink:href="#DejaVuSans-69"/>
      <use x="177.503906" xlink:href="#DejaVuSans-64"/>
      <use x="240.980469" xlink:href="#DejaVuSans-61"/>
      <use x="302.259766" xlink:href="#DejaVuSans-74"/>
      <use x="341.46875" xlink:href="#DejaVuSans-69"/>
      <use x="369.251953" xlink:href="#DejaVuSans-6f"/>
      <use x="430.433594" xlink:href="#DejaVuSans-6e"/>
      <use x="493.8125" xlink:href="#DejaVuSans-20"/>
      <use x="525.599609" xlink:href="#DejaVuSans-41"/>
      <use x="592.257812" xlink:href="#DejaVuSans-63"/>
      <use x="647.238281" xlink:href="#DejaVuSans-63"/>
      <use x="702.21875" xlink:href="#DejaVuSans-75"/>
      <use x="765.597656" xlink:href="#DejaVuSans-72"/>
      <use x="806.710938" xlink:href="#DejaVuSans-61"/>
      <use x="867.990234" xlink:href="#DejaVuSans-63"/>
      <use x="922.970703" xlink:href="#DejaVuSans-79"/>
     </g>
    </g>
   </g>
  </g>
 </g>
 <defs>
  <clipPath id="p201388aa3f">
   <rect height="266.112" width="357.12" x="57.6" y="41.472"/>
  </clipPath>
 </defs>
</svg>
