<?xml version="1.0" encoding="utf-8" standalone="no"?>
<!DOCTYPE svg PUBLIC "-//W3C//DTD SVG 1.1//EN"
  "http://www.w3.org/Graphics/SVG/1.1/DTD/svg11.dtd">
<svg height="345.6pt" version="1.1" viewBox="0 0 460.8 345.6" width="460.8pt" xmlns="http://www.w3.org/2000/svg" xmlns:xlink="http://www.w3.org/1999/xlink">
 <metadata>
  <rdf:RDF xmlns:cc="http://creativecommons.org/ns#" xmlns:dc="http://purl.org/dc/elements/1.1/" xmlns:rdf="http://www.w3.org/1999/02/22-rdf-syntax-ns#">
   <cc:Work>
    <dc:type rdf:resource="http://purl.org/dc/dcmitype/StillImage"/>
    <dc:date>2023-07-28T19:36:09.512768</dc:date>
    <dc:format>image/svg+xml</dc:format>
    <dc:creator>
     <cc:Agent>
      <dc:title>Matplotlib v3.4.3, https://matplotlib.org/</dc:title>
     </cc:Agent>
    </dc:creator>
   </cc:Work>
  </rdf:RDF>
 </metadata>
 <defs>
  <style type="text/css">*{stroke-linecap:butt;stroke-linejoin:round;}</style>
 </defs>
 <g id="figure_1">
  <g id="patch_1">
   <path d="M 0 345.6 
L 460.8 345.6 
L 460.8 0 
L 0 0 
z
" style="fill:#ffffff;"/>
  </g>
  <g id="axes_1">
   <g id="patch_2">
    <path d="M 57.6 307.584 
L 414.72 307.584 
L 414.72 41.472 
L 57.6 41.472 
z
" style="fill:#ffffff;"/>
   </g>
   <g id="matplotlib.axis_1">
    <g id="xtick_1">
     <g id="line2d_1">
      <defs>
       <path d="M 0 0 
L 0 3.5 
" id="m4c7d03ef07" style="stroke:#000000;stroke-width:0.8;"/>
      </defs>
      <g>
       <use style="stroke:#000000;stroke-width:0.8;" x="73.832727" xlink:href="#m4c7d03ef07" y="307.584"/>
      </g>
     </g>
     <g id="text_1">
      <!-- 1 -->
      <g transform="translate(70.651477 322.182437)scale(0.1 -0.1)">
       <defs>
        <path d="M 794 531 
L 1825 531 
L 1825 4091 
L 703 3866 
L 703 4441 
L 1819 4666 
L 2450 4666 
L 2450 531 
L 3481 531 
L 3481 0 
L 794 0 
L 794 531 
z
" id="DejaVuSans-31" transform="scale(0.015625)"/>
       </defs>
       <use xlink:href="#DejaVuSans-31"/>
      </g>
     </g>
    </g>
    <g id="xtick_2">
     <g id="line2d_2">
      <g>
       <use style="stroke:#000000;stroke-width:0.8;" x="109.555234" xlink:href="#m4c7d03ef07" y="307.584"/>
      </g>
     </g>
     <g id="text_2">
      <!-- 35 -->
      <g transform="translate(103.192734 322.182437)scale(0.1 -0.1)">
       <defs>
        <path d="M 2597 2516 
Q 3050 2419 3304 2112 
Q 3559 1806 3559 1356 
Q 3559 666 3084 287 
Q 2609 -91 1734 -91 
Q 1441 -91 1130 -33 
Q 819 25 488 141 
L 488 750 
Q 750 597 1062 519 
Q 1375 441 1716 441 
Q 2309 441 2620 675 
Q 2931 909 2931 1356 
Q 2931 1769 2642 2001 
Q 2353 2234 1838 2234 
L 1294 2234 
L 1294 2753 
L 1863 2753 
Q 2328 2753 2575 2939 
Q 2822 3125 2822 3475 
Q 2822 3834 2567 4026 
Q 2313 4219 1838 4219 
Q 1578 4219 1281 4162 
Q 984 4106 628 3988 
L 628 4550 
Q 988 4650 1302 4700 
Q 1616 4750 1894 4750 
Q 2613 4750 3031 4423 
Q 3450 4097 3450 3541 
Q 3450 3153 3228 2886 
Q 3006 2619 2597 2516 
z
" id="DejaVuSans-33" transform="scale(0.015625)"/>
        <path d="M 691 4666 
L 3169 4666 
L 3169 4134 
L 1269 4134 
L 1269 2991 
Q 1406 3038 1543 3061 
Q 1681 3084 1819 3084 
Q 2600 3084 3056 2656 
Q 3513 2228 3513 1497 
Q 3513 744 3044 326 
Q 2575 -91 1722 -91 
Q 1428 -91 1123 -41 
Q 819 9 494 109 
L 494 744 
Q 775 591 1075 516 
Q 1375 441 1709 441 
Q 2250 441 2565 725 
Q 2881 1009 2881 1497 
Q 2881 1984 2565 2268 
Q 2250 2553 1709 2553 
Q 1456 2553 1204 2497 
Q 953 2441 691 2322 
L 691 4666 
z
" id="DejaVuSans-35" transform="scale(0.015625)"/>
       </defs>
       <use xlink:href="#DejaVuSans-33"/>
       <use x="63.623047" xlink:href="#DejaVuSans-35"/>
      </g>
     </g>
    </g>
    <g id="xtick_3">
     <g id="line2d_3">
      <g>
       <use style="stroke:#000000;stroke-width:0.8;" x="145.277741" xlink:href="#m4c7d03ef07" y="307.584"/>
      </g>
     </g>
     <g id="text_3">
      <!-- 69 -->
      <g transform="translate(138.915241 322.182437)scale(0.1 -0.1)">
       <defs>
        <path d="M 2113 2584 
Q 1688 2584 1439 2293 
Q 1191 2003 1191 1497 
Q 1191 994 1439 701 
Q 1688 409 2113 409 
Q 2538 409 2786 701 
Q 3034 994 3034 1497 
Q 3034 2003 2786 2293 
Q 2538 2584 2113 2584 
z
M 3366 4563 
L 3366 3988 
Q 3128 4100 2886 4159 
Q 2644 4219 2406 4219 
Q 1781 4219 1451 3797 
Q 1122 3375 1075 2522 
Q 1259 2794 1537 2939 
Q 1816 3084 2150 3084 
Q 2853 3084 3261 2657 
Q 3669 2231 3669 1497 
Q 3669 778 3244 343 
Q 2819 -91 2113 -91 
Q 1303 -91 875 529 
Q 447 1150 447 2328 
Q 447 3434 972 4092 
Q 1497 4750 2381 4750 
Q 2619 4750 2861 4703 
Q 3103 4656 3366 4563 
z
" id="DejaVuSans-36" transform="scale(0.015625)"/>
        <path d="M 703 97 
L 703 672 
Q 941 559 1184 500 
Q 1428 441 1663 441 
Q 2288 441 2617 861 
Q 2947 1281 2994 2138 
Q 2813 1869 2534 1725 
Q 2256 1581 1919 1581 
Q 1219 1581 811 2004 
Q 403 2428 403 3163 
Q 403 3881 828 4315 
Q 1253 4750 1959 4750 
Q 2769 4750 3195 4129 
Q 3622 3509 3622 2328 
Q 3622 1225 3098 567 
Q 2575 -91 1691 -91 
Q 1453 -91 1209 -44 
Q 966 3 703 97 
z
M 1959 2075 
Q 2384 2075 2632 2365 
Q 2881 2656 2881 3163 
Q 2881 3666 2632 3958 
Q 2384 4250 1959 4250 
Q 1534 4250 1286 3958 
Q 1038 3666 1038 3163 
Q 1038 2656 1286 2365 
Q 1534 2075 1959 2075 
z
" id="DejaVuSans-39" transform="scale(0.015625)"/>
       </defs>
       <use xlink:href="#DejaVuSans-36"/>
       <use x="63.623047" xlink:href="#DejaVuSans-39"/>
      </g>
     </g>
    </g>
    <g id="xtick_4">
     <g id="line2d_4">
      <g>
       <use style="stroke:#000000;stroke-width:0.8;" x="182.050909" xlink:href="#m4c7d03ef07" y="307.584"/>
      </g>
     </g>
     <g id="text_4">
      <!-- 104 -->
      <g transform="translate(172.507159 322.182437)scale(0.1 -0.1)">
       <defs>
        <path d="M 2034 4250 
Q 1547 4250 1301 3770 
Q 1056 3291 1056 2328 
Q 1056 1369 1301 889 
Q 1547 409 2034 409 
Q 2525 409 2770 889 
Q 3016 1369 3016 2328 
Q 3016 3291 2770 3770 
Q 2525 4250 2034 4250 
z
M 2034 4750 
Q 2819 4750 3233 4129 
Q 3647 3509 3647 2328 
Q 3647 1150 3233 529 
Q 2819 -91 2034 -91 
Q 1250 -91 836 529 
Q 422 1150 422 2328 
Q 422 3509 836 4129 
Q 1250 4750 2034 4750 
z
" id="DejaVuSans-30" transform="scale(0.015625)"/>
        <path d="M 2419 4116 
L 825 1625 
L 2419 1625 
L 2419 4116 
z
M 2253 4666 
L 3047 4666 
L 3047 1625 
L 3713 1625 
L 3713 1100 
L 3047 1100 
L 3047 0 
L 2419 0 
L 2419 1100 
L 313 1100 
L 313 1709 
L 2253 4666 
z
" id="DejaVuSans-34" transform="scale(0.015625)"/>
       </defs>
       <use xlink:href="#DejaVuSans-31"/>
       <use x="63.623047" xlink:href="#DejaVuSans-30"/>
       <use x="127.246094" xlink:href="#DejaVuSans-34"/>
      </g>
     </g>
    </g>
    <g id="xtick_5">
     <g id="line2d_5">
      <g>
       <use style="stroke:#000000;stroke-width:0.8;" x="217.773416" xlink:href="#m4c7d03ef07" y="307.584"/>
      </g>
     </g>
     <g id="text_5">
      <!-- 138 -->
      <g transform="translate(208.229666 322.182437)scale(0.1 -0.1)">
       <defs>
        <path d="M 2034 2216 
Q 1584 2216 1326 1975 
Q 1069 1734 1069 1313 
Q 1069 891 1326 650 
Q 1584 409 2034 409 
Q 2484 409 2743 651 
Q 3003 894 3003 1313 
Q 3003 1734 2745 1975 
Q 2488 2216 2034 2216 
z
M 1403 2484 
Q 997 2584 770 2862 
Q 544 3141 544 3541 
Q 544 4100 942 4425 
Q 1341 4750 2034 4750 
Q 2731 4750 3128 4425 
Q 3525 4100 3525 3541 
Q 3525 3141 3298 2862 
Q 3072 2584 2669 2484 
Q 3125 2378 3379 2068 
Q 3634 1759 3634 1313 
Q 3634 634 3220 271 
Q 2806 -91 2034 -91 
Q 1263 -91 848 271 
Q 434 634 434 1313 
Q 434 1759 690 2068 
Q 947 2378 1403 2484 
z
M 1172 3481 
Q 1172 3119 1398 2916 
Q 1625 2713 2034 2713 
Q 2441 2713 2670 2916 
Q 2900 3119 2900 3481 
Q 2900 3844 2670 4047 
Q 2441 4250 2034 4250 
Q 1625 4250 1398 4047 
Q 1172 3844 1172 3481 
z
" id="DejaVuSans-38" transform="scale(0.015625)"/>
       </defs>
       <use xlink:href="#DejaVuSans-31"/>
       <use x="63.623047" xlink:href="#DejaVuSans-33"/>
       <use x="127.246094" xlink:href="#DejaVuSans-38"/>
      </g>
     </g>
    </g>
    <g id="xtick_6">
     <g id="line2d_6">
      <g>
       <use style="stroke:#000000;stroke-width:0.8;" x="253.495922" xlink:href="#m4c7d03ef07" y="307.584"/>
      </g>
     </g>
     <g id="text_6">
      <!-- 172 -->
      <g transform="translate(243.952172 322.182437)scale(0.1 -0.1)">
       <defs>
        <path d="M 525 4666 
L 3525 4666 
L 3525 4397 
L 1831 0 
L 1172 0 
L 2766 4134 
L 525 4134 
L 525 4666 
z
" id="DejaVuSans-37" transform="scale(0.015625)"/>
        <path d="M 1228 531 
L 3431 531 
L 3431 0 
L 469 0 
L 469 531 
Q 828 903 1448 1529 
Q 2069 2156 2228 2338 
Q 2531 2678 2651 2914 
Q 2772 3150 2772 3378 
Q 2772 3750 2511 3984 
Q 2250 4219 1831 4219 
Q 1534 4219 1204 4116 
Q 875 4013 500 3803 
L 500 4441 
Q 881 4594 1212 4672 
Q 1544 4750 1819 4750 
Q 2544 4750 2975 4387 
Q 3406 4025 3406 3419 
Q 3406 3131 3298 2873 
Q 3191 2616 2906 2266 
Q 2828 2175 2409 1742 
Q 1991 1309 1228 531 
z
" id="DejaVuSans-32" transform="scale(0.015625)"/>
       </defs>
       <use xlink:href="#DejaVuSans-31"/>
       <use x="63.623047" xlink:href="#DejaVuSans-37"/>
       <use x="127.246094" xlink:href="#DejaVuSans-32"/>
      </g>
     </g>
    </g>
    <g id="xtick_7">
     <g id="line2d_7">
      <g>
       <use style="stroke:#000000;stroke-width:0.8;" x="290.269091" xlink:href="#m4c7d03ef07" y="307.584"/>
      </g>
     </g>
     <g id="text_7">
      <!-- 207 -->
      <g transform="translate(280.725341 322.182437)scale(0.1 -0.1)">
       <use xlink:href="#DejaVuSans-32"/>
       <use x="63.623047" xlink:href="#DejaVuSans-30"/>
       <use x="127.246094" xlink:href="#DejaVuSans-37"/>
      </g>
     </g>
    </g>
    <g id="xtick_8">
     <g id="line2d_8">
      <g>
       <use style="stroke:#000000;stroke-width:0.8;" x="325.991598" xlink:href="#m4c7d03ef07" y="307.584"/>
      </g>
     </g>
     <g id="text_8">
      <!-- 241 -->
      <g transform="translate(316.447848 322.182437)scale(0.1 -0.1)">
       <use xlink:href="#DejaVuSans-32"/>
       <use x="63.623047" xlink:href="#DejaVuSans-34"/>
       <use x="127.246094" xlink:href="#DejaVuSans-31"/>
      </g>
     </g>
    </g>
    <g id="xtick_9">
     <g id="line2d_9">
      <g>
       <use style="stroke:#000000;stroke-width:0.8;" x="361.714104" xlink:href="#m4c7d03ef07" y="307.584"/>
      </g>
     </g>
     <g id="text_9">
      <!-- 275 -->
      <g transform="translate(352.170354 322.182437)scale(0.1 -0.1)">
       <use xlink:href="#DejaVuSans-32"/>
       <use x="63.623047" xlink:href="#DejaVuSans-37"/>
       <use x="127.246094" xlink:href="#DejaVuSans-35"/>
      </g>
     </g>
    </g>
    <g id="xtick_10">
     <g id="line2d_10">
      <g>
       <use style="stroke:#000000;stroke-width:0.8;" x="398.487273" xlink:href="#m4c7d03ef07" y="307.584"/>
      </g>
     </g>
     <g id="text_10">
      <!-- 310 -->
      <g transform="translate(388.943523 322.182437)scale(0.1 -0.1)">
       <use xlink:href="#DejaVuSans-33"/>
       <use x="63.623047" xlink:href="#DejaVuSans-31"/>
       <use x="127.246094" xlink:href="#DejaVuSans-30"/>
      </g>
     </g>
    </g>
    <g id="text_11">
     <!-- Epochs -->
     <g transform="translate(218.244375 335.860562)scale(0.1 -0.1)">
      <defs>
       <path d="M 628 4666 
L 3578 4666 
L 3578 4134 
L 1259 4134 
L 1259 2753 
L 3481 2753 
L 3481 2222 
L 1259 2222 
L 1259 531 
L 3634 531 
L 3634 0 
L 628 0 
L 628 4666 
z
" id="DejaVuSans-45" transform="scale(0.015625)"/>
       <path d="M 1159 525 
L 1159 -1331 
L 581 -1331 
L 581 3500 
L 1159 3500 
L 1159 2969 
Q 1341 3281 1617 3432 
Q 1894 3584 2278 3584 
Q 2916 3584 3314 3078 
Q 3713 2572 3713 1747 
Q 3713 922 3314 415 
Q 2916 -91 2278 -91 
Q 1894 -91 1617 61 
Q 1341 213 1159 525 
z
M 3116 1747 
Q 3116 2381 2855 2742 
Q 2594 3103 2138 3103 
Q 1681 3103 1420 2742 
Q 1159 2381 1159 1747 
Q 1159 1113 1420 752 
Q 1681 391 2138 391 
Q 2594 391 2855 752 
Q 3116 1113 3116 1747 
z
" id="DejaVuSans-70" transform="scale(0.015625)"/>
       <path d="M 1959 3097 
Q 1497 3097 1228 2736 
Q 959 2375 959 1747 
Q 959 1119 1226 758 
Q 1494 397 1959 397 
Q 2419 397 2687 759 
Q 2956 1122 2956 1747 
Q 2956 2369 2687 2733 
Q 2419 3097 1959 3097 
z
M 1959 3584 
Q 2709 3584 3137 3096 
Q 3566 2609 3566 1747 
Q 3566 888 3137 398 
Q 2709 -91 1959 -91 
Q 1206 -91 779 398 
Q 353 888 353 1747 
Q 353 2609 779 3096 
Q 1206 3584 1959 3584 
z
" id="DejaVuSans-6f" transform="scale(0.015625)"/>
       <path d="M 3122 3366 
L 3122 2828 
Q 2878 2963 2633 3030 
Q 2388 3097 2138 3097 
Q 1578 3097 1268 2742 
Q 959 2388 959 1747 
Q 959 1106 1268 751 
Q 1578 397 2138 397 
Q 2388 397 2633 464 
Q 2878 531 3122 666 
L 3122 134 
Q 2881 22 2623 -34 
Q 2366 -91 2075 -91 
Q 1284 -91 818 406 
Q 353 903 353 1747 
Q 353 2603 823 3093 
Q 1294 3584 2113 3584 
Q 2378 3584 2631 3529 
Q 2884 3475 3122 3366 
z
" id="DejaVuSans-63" transform="scale(0.015625)"/>
       <path d="M 3513 2113 
L 3513 0 
L 2938 0 
L 2938 2094 
Q 2938 2591 2744 2837 
Q 2550 3084 2163 3084 
Q 1697 3084 1428 2787 
Q 1159 2491 1159 1978 
L 1159 0 
L 581 0 
L 581 4863 
L 1159 4863 
L 1159 2956 
Q 1366 3272 1645 3428 
Q 1925 3584 2291 3584 
Q 2894 3584 3203 3211 
Q 3513 2838 3513 2113 
z
" id="DejaVuSans-68" transform="scale(0.015625)"/>
       <path d="M 2834 3397 
L 2834 2853 
Q 2591 2978 2328 3040 
Q 2066 3103 1784 3103 
Q 1356 3103 1142 2972 
Q 928 2841 928 2578 
Q 928 2378 1081 2264 
Q 1234 2150 1697 2047 
L 1894 2003 
Q 2506 1872 2764 1633 
Q 3022 1394 3022 966 
Q 3022 478 2636 193 
Q 2250 -91 1575 -91 
Q 1294 -91 989 -36 
Q 684 19 347 128 
L 347 722 
Q 666 556 975 473 
Q 1284 391 1588 391 
Q 1994 391 2212 530 
Q 2431 669 2431 922 
Q 2431 1156 2273 1281 
Q 2116 1406 1581 1522 
L 1381 1569 
Q 847 1681 609 1914 
Q 372 2147 372 2553 
Q 372 3047 722 3315 
Q 1072 3584 1716 3584 
Q 2034 3584 2315 3537 
Q 2597 3491 2834 3397 
z
" id="DejaVuSans-73" transform="scale(0.015625)"/>
      </defs>
      <use xlink:href="#DejaVuSans-45"/>
      <use x="63.183594" xlink:href="#DejaVuSans-70"/>
      <use x="126.660156" xlink:href="#DejaVuSans-6f"/>
      <use x="187.841797" xlink:href="#DejaVuSans-63"/>
      <use x="242.822266" xlink:href="#DejaVuSans-68"/>
      <use x="306.201172" xlink:href="#DejaVuSans-73"/>
     </g>
    </g>
   </g>
   <g id="matplotlib.axis_2">
    <g id="ytick_1">
     <g id="line2d_11">
      <defs>
       <path d="M 0 0 
L -3.5 0 
" id="me18a881d14" style="stroke:#000000;stroke-width:0.8;"/>
      </defs>
      <g>
       <use style="stroke:#000000;stroke-width:0.8;" x="57.6" xlink:href="#me18a881d14" y="298.72349"/>
      </g>
     </g>
     <g id="text_12">
      <!-- 20 -->
      <g transform="translate(37.875 302.522709)scale(0.1 -0.1)">
       <use xlink:href="#DejaVuSans-32"/>
       <use x="63.623047" xlink:href="#DejaVuSans-30"/>
      </g>
     </g>
    </g>
    <g id="ytick_2">
     <g id="line2d_12">
      <g>
       <use style="stroke:#000000;stroke-width:0.8;" x="57.6" xlink:href="#me18a881d14" y="266.752247"/>
      </g>
     </g>
     <g id="text_13">
      <!-- 30 -->
      <g transform="translate(37.875 270.551466)scale(0.1 -0.1)">
       <use xlink:href="#DejaVuSans-33"/>
       <use x="63.623047" xlink:href="#DejaVuSans-30"/>
      </g>
     </g>
    </g>
    <g id="ytick_3">
     <g id="line2d_13">
      <g>
       <use style="stroke:#000000;stroke-width:0.8;" x="57.6" xlink:href="#me18a881d14" y="234.781004"/>
      </g>
     </g>
     <g id="text_14">
      <!-- 40 -->
      <g transform="translate(37.875 238.580223)scale(0.1 -0.1)">
       <use xlink:href="#DejaVuSans-34"/>
       <use x="63.623047" xlink:href="#DejaVuSans-30"/>
      </g>
     </g>
    </g>
    <g id="ytick_4">
     <g id="line2d_14">
      <g>
       <use style="stroke:#000000;stroke-width:0.8;" x="57.6" xlink:href="#me18a881d14" y="202.809761"/>
      </g>
     </g>
     <g id="text_15">
      <!-- 50 -->
      <g transform="translate(37.875 206.60898)scale(0.1 -0.1)">
       <use xlink:href="#DejaVuSans-35"/>
       <use x="63.623047" xlink:href="#DejaVuSans-30"/>
      </g>
     </g>
    </g>
    <g id="ytick_5">
     <g id="line2d_15">
      <g>
       <use style="stroke:#000000;stroke-width:0.8;" x="57.6" xlink:href="#me18a881d14" y="170.838519"/>
      </g>
     </g>
     <g id="text_16">
      <!-- 60 -->
      <g transform="translate(37.875 174.637737)scale(0.1 -0.1)">
       <use xlink:href="#DejaVuSans-36"/>
       <use x="63.623047" xlink:href="#DejaVuSans-30"/>
      </g>
     </g>
    </g>
    <g id="ytick_6">
     <g id="line2d_16">
      <g>
       <use style="stroke:#000000;stroke-width:0.8;" x="57.6" xlink:href="#me18a881d14" y="138.867276"/>
      </g>
     </g>
     <g id="text_17">
      <!-- 70 -->
      <g transform="translate(37.875 142.666495)scale(0.1 -0.1)">
       <use xlink:href="#DejaVuSans-37"/>
       <use x="63.623047" xlink:href="#DejaVuSans-30"/>
      </g>
     </g>
    </g>
    <g id="ytick_7">
     <g id="line2d_17">
      <g>
       <use style="stroke:#000000;stroke-width:0.8;" x="57.6" xlink:href="#me18a881d14" y="106.896033"/>
      </g>
     </g>
     <g id="text_18">
      <!-- 80 -->
      <g transform="translate(37.875 110.695252)scale(0.1 -0.1)">
       <use xlink:href="#DejaVuSans-38"/>
       <use x="63.623047" xlink:href="#DejaVuSans-30"/>
      </g>
     </g>
    </g>
    <g id="ytick_8">
     <g id="line2d_18">
      <g>
       <use style="stroke:#000000;stroke-width:0.8;" x="57.6" xlink:href="#me18a881d14" y="74.92479"/>
      </g>
     </g>
     <g id="text_19">
      <!-- 90 -->
      <g transform="translate(37.875 78.724009)scale(0.1 -0.1)">
       <use xlink:href="#DejaVuSans-39"/>
       <use x="63.623047" xlink:href="#DejaVuSans-30"/>
      </g>
     </g>
    </g>
    <g id="ytick_9">
     <g id="line2d_19">
      <g>
       <use style="stroke:#000000;stroke-width:0.8;" x="57.6" xlink:href="#me18a881d14" y="42.953547"/>
      </g>
     </g>
     <g id="text_20">
      <!-- 100 -->
      <g transform="translate(31.5125 46.752766)scale(0.1 -0.1)">
       <use xlink:href="#DejaVuSans-31"/>
       <use x="63.623047" xlink:href="#DejaVuSans-30"/>
       <use x="127.246094" xlink:href="#DejaVuSans-30"/>
      </g>
     </g>
    </g>
    <g id="text_21">
     <!-- Accuracy -->
     <g transform="translate(25.432812 197.356125)rotate(-90)scale(0.1 -0.1)">
      <defs>
       <path d="M 2188 4044 
L 1331 1722 
L 3047 1722 
L 2188 4044 
z
M 1831 4666 
L 2547 4666 
L 4325 0 
L 3669 0 
L 3244 1197 
L 1141 1197 
L 716 0 
L 50 0 
L 1831 4666 
z
" id="DejaVuSans-41" transform="scale(0.015625)"/>
       <path d="M 544 1381 
L 544 3500 
L 1119 3500 
L 1119 1403 
Q 1119 906 1312 657 
Q 1506 409 1894 409 
Q 2359 409 2629 706 
Q 2900 1003 2900 1516 
L 2900 3500 
L 3475 3500 
L 3475 0 
L 2900 0 
L 2900 538 
Q 2691 219 2414 64 
Q 2138 -91 1772 -91 
Q 1169 -91 856 284 
Q 544 659 544 1381 
z
M 1991 3584 
L 1991 3584 
z
" id="DejaVuSans-75" transform="scale(0.015625)"/>
       <path d="M 2631 2963 
Q 2534 3019 2420 3045 
Q 2306 3072 2169 3072 
Q 1681 3072 1420 2755 
Q 1159 2438 1159 1844 
L 1159 0 
L 581 0 
L 581 3500 
L 1159 3500 
L 1159 2956 
Q 1341 3275 1631 3429 
Q 1922 3584 2338 3584 
Q 2397 3584 2469 3576 
Q 2541 3569 2628 3553 
L 2631 2963 
z
" id="DejaVuSans-72" transform="scale(0.015625)"/>
       <path d="M 2194 1759 
Q 1497 1759 1228 1600 
Q 959 1441 959 1056 
Q 959 750 1161 570 
Q 1363 391 1709 391 
Q 2188 391 2477 730 
Q 2766 1069 2766 1631 
L 2766 1759 
L 2194 1759 
z
M 3341 1997 
L 3341 0 
L 2766 0 
L 2766 531 
Q 2569 213 2275 61 
Q 1981 -91 1556 -91 
Q 1019 -91 701 211 
Q 384 513 384 1019 
Q 384 1609 779 1909 
Q 1175 2209 1959 2209 
L 2766 2209 
L 2766 2266 
Q 2766 2663 2505 2880 
Q 2244 3097 1772 3097 
Q 1472 3097 1187 3025 
Q 903 2953 641 2809 
L 641 3341 
Q 956 3463 1253 3523 
Q 1550 3584 1831 3584 
Q 2591 3584 2966 3190 
Q 3341 2797 3341 1997 
z
" id="DejaVuSans-61" transform="scale(0.015625)"/>
       <path d="M 2059 -325 
Q 1816 -950 1584 -1140 
Q 1353 -1331 966 -1331 
L 506 -1331 
L 506 -850 
L 844 -850 
Q 1081 -850 1212 -737 
Q 1344 -625 1503 -206 
L 1606 56 
L 191 3500 
L 800 3500 
L 1894 763 
L 2988 3500 
L 3597 3500 
L 2059 -325 
z
" id="DejaVuSans-79" transform="scale(0.015625)"/>
      </defs>
      <use xlink:href="#DejaVuSans-41"/>
      <use x="66.658203" xlink:href="#DejaVuSans-63"/>
      <use x="121.638672" xlink:href="#DejaVuSans-63"/>
      <use x="176.619141" xlink:href="#DejaVuSans-75"/>
      <use x="239.998047" xlink:href="#DejaVuSans-72"/>
      <use x="281.111328" xlink:href="#DejaVuSans-61"/>
      <use x="342.390625" xlink:href="#DejaVuSans-63"/>
      <use x="397.371094" xlink:href="#DejaVuSans-79"/>
     </g>
    </g>
   </g>
   <g id="line2d_20">
    <path clip-path="url(#pe6f860df16)" d="M 73.832727 295.488 
L 74.883389 281.561327 
L 75.934051 255.971544 
L 76.984713 238.64313 
L 78.035375 230.023683 
L 79.086037 216.186529 
L 80.136699 213.500945 
L 82.238023 191.869202 
L 83.288685 192.94983 
L 84.339347 184.650095 
L 85.390009 211.940748 
L 86.440671 200.05384 
L 87.491333 192.668483 
L 88.541995 191.300114 
L 89.592657 185.858608 
L 90.643319 182.95562 
L 91.693981 184.215287 
L 92.744643 175.966706 
L 93.795305 175.269733 
L 94.845966 167.065912 
L 95.896628 168.415098 
L 96.94729 171.260539 
L 97.997952 170.384527 
L 99.048614 154.78256 
L 100.099276 158.446465 
L 101.149938 157.832617 
L 102.2006 151.073896 
L 103.251262 150.229855 
L 104.301924 144.647676 
L 105.352586 149.788652 
L 106.403248 179.803255 
L 107.45391 167.449567 
L 108.504572 172.545783 
L 109.555234 173.735113 
L 110.605896 172.462658 
L 111.656558 168.760388 
L 112.70722 164.361145 
L 113.757882 164.847108 
L 114.808544 161.061713 
L 115.859206 161.132049 
L 116.909868 162.059215 
L 117.96053 164.495424 
L 119.011192 152.57015 
L 120.061853 157.378625 
L 121.112515 155.748092 
L 122.163177 151.374426 
L 124.264501 155.76088 
L 125.315163 148.70163 
L 126.365825 154.226261 
L 127.416487 146.463643 
L 128.467149 149.641585 
L 129.517811 151.911543 
L 130.568473 143.694933 
L 131.619135 141.028532 
L 132.669797 139.525883 
L 133.720459 134.973178 
L 134.771121 134.340148 
L 135.821783 133.534472 
L 136.872445 134.902842 
L 137.923107 129.576433 
L 138.973769 134.065195 
L 140.024431 133.131635 
L 141.075093 129.960088 
L 142.125755 130.043213 
L 143.176417 127.025127 
L 144.227079 125.337046 
L 145.277741 125.062093 
L 146.328402 119.096259 
L 147.379064 117.465726 
L 148.429726 167.711731 
L 149.480388 164.674463 
L 150.53105 160.377528 
L 151.581712 159.450362 
L 152.632374 159.098678 
L 153.683036 154.040828 
L 154.733698 158.855697 
L 155.78436 152.576545 
L 156.835022 154.168713 
L 157.885684 156.758383 
L 158.936346 155.748092 
L 159.987008 154.526791 
L 161.03767 156.259632 
L 162.088332 152.4039 
L 163.138994 155.63939 
L 164.189656 150.44726 
L 165.240318 152.231255 
L 166.29098 155.147033 
L 167.341642 148.624899 
L 168.392304 145.753881 
L 169.442966 150.65827 
L 170.493628 146.892058 
L 171.544289 149.392209 
L 172.594951 152.378323 
L 174.696275 144.609311 
L 175.746937 147.230953 
L 176.797599 146.431672 
L 177.848261 142.914835 
L 178.898923 148.70163 
L 179.949585 144.654071 
L 181.000247 149.296295 
L 182.050909 144.513397 
L 183.101571 137.223954 
L 184.152233 146.962394 
L 185.202895 146.674653 
L 186.253557 136.942607 
L 187.304219 143.643779 
L 188.354881 138.720208 
L 189.405543 139.282902 
L 190.456205 137.927321 
L 191.506867 141.687139 
L 192.557529 135.024332 
L 193.608191 135.267314 
L 194.658853 129.672346 
L 195.709515 131.245332 
L 196.760177 131.788843 
L 197.810838 131.68014 
L 198.8615 130.215857 
L 199.912162 129.51249 
L 200.962824 125.126036 
L 202.013486 127.786043 
L 203.064148 132.114949 
L 204.11481 131.085475 
L 205.165472 125.241132 
L 206.216134 118.40568 
L 207.266796 123.527473 
L 208.317458 118.904432 
L 209.36812 125.260315 
L 210.418782 121.577228 
L 211.469444 114.268602 
L 212.520106 121.59641 
L 213.570768 119.185779 
L 214.62143 117.881352 
L 215.672092 116.116539 
L 216.722754 112.631674 
L 217.773416 116.314761 
L 218.824078 113.283887 
L 219.87474 113.891341 
L 221.976064 112.286385 
L 223.026726 109.223539 
L 224.077387 110.822102 
L 225.128049 110.745371 
L 226.178711 103.097849 
L 227.229373 110.866861 
L 228.280035 113.936101 
L 230.381359 103.385591 
L 231.432021 106.122329 
L 232.482683 159.693343 
L 233.533345 151.368032 
L 234.584007 147.007154 
L 235.634669 150.223461 
L 236.685331 152.691641 
L 237.735993 149.577642 
L 238.786655 152.35914 
L 239.837317 144.705225 
L 240.887979 150.172307 
L 241.938641 147.365232 
L 242.989303 145.319073 
L 244.039965 144.929023 
L 245.090627 148.343552 
L 246.141289 140.293193 
L 247.191951 149.347449 
L 248.242613 148.522591 
L 249.293274 139.826413 
L 250.343936 145.645179 
L 251.394598 144.705225 
L 252.44526 146.936817 
L 253.495922 142.467238 
L 254.546584 145.785853 
L 255.597246 147.710522 
L 256.647908 142.147525 
L 257.69857 146.738596 
L 259.799894 148.081388 
L 260.850556 143.85479 
L 261.901218 137.402993 
L 262.95188 147.448357 
L 264.002542 144.468638 
L 265.053204 148.394706 
L 267.154528 138.988767 
L 268.20519 145.108062 
L 269.255852 137.837802 
L 270.306514 143.893155 
L 271.357176 141.188388 
L 272.407838 135.823613 
L 273.4585 143.34325 
L 274.509162 146.815327 
L 275.559823 141.29709 
L 276.610485 143.944309 
L 277.661147 138.112754 
L 278.711809 143.925126 
L 279.762471 143.234548 
L 280.813133 140.523386 
L 281.863795 143.758876 
L 283.965119 140.10776 
L 285.015781 139.135834 
L 286.066443 139.967087 
L 287.117105 143.432769 
L 288.167767 138.6179 
L 289.218429 142.87647 
L 291.319753 135.561449 
L 292.370415 139.468335 
L 293.421077 136.571741 
L 294.471739 141.405792 
L 295.522401 139.967087 
L 296.573063 139.391604 
L 297.623725 139.577037 
L 298.674387 132.632883 
L 299.725049 140.612906 
L 300.775711 129.570038 
L 301.826372 136.776357 
L 302.877034 136.571741 
L 303.927696 137.709917 
L 304.978358 133.866973 
L 306.02902 137.415781 
L 307.079682 133.265914 
L 308.130344 138.956795 
L 309.181006 136.578135 
L 310.231668 134.544764 
L 311.28233 133.074087 
L 312.332992 133.783848 
L 313.383654 136.456644 
L 314.434316 131.04711 
L 316.53564 126.513588 
L 317.586302 130.893648 
L 318.636964 123.802426 
L 319.687626 134.519187 
L 320.738288 125.970076 
L 321.78895 125.656758 
L 322.839612 127.364023 
L 323.890274 134.698226 
L 324.940936 132.441056 
L 325.991598 123.668147 
L 327.042259 127.018733 
L 328.092921 123.060693 
L 329.143583 128.994556 
L 330.194245 119.096259 
L 331.244907 123.47632 
L 332.295569 125.062093 
L 333.346231 123.393194 
L 334.396893 119.575828 
L 335.447555 122.069585 
L 336.498217 126.142721 
L 337.548879 121.615593 
L 338.599541 119.799627 
L 339.650203 125.829403 
L 340.700865 122.843289 
L 341.751527 124.083773 
L 342.802189 123.348435 
L 343.852851 117.088465 
L 344.903513 120.15131 
L 345.954175 116.986157 
L 347.004837 117.77265 
L 348.055499 117.568034 
L 349.106161 119.358423 
L 350.156823 117.120436 
L 351.207485 118.70621 
L 352.258147 116.397886 
L 353.308808 112.62528 
L 354.35947 118.885249 
L 355.410132 112.714799 
L 356.460794 116.263607 
L 357.511456 109.613589 
L 358.562118 112.503789 
L 359.61278 108.801519 
L 360.663442 111.762056 
L 361.714104 113.290282 
L 362.764766 111.244122 
L 363.815428 114.211053 
L 364.86609 106.013627 
L 365.916752 104.044198 
L 366.967414 106.902427 
L 368.018076 108.245219 
L 369.068738 109.773445 
L 370.1194 115.784038 
L 371.170062 107.407573 
L 372.220724 103.404773 
L 373.271386 107.810411 
L 374.322048 104.645257 
L 375.37271 106.800119 
L 376.423372 106.403676 
L 377.474034 99.964668 
L 378.524695 103.98665 
L 379.575357 100.648852 
L 380.626019 101.460922 
L 381.676681 99.849571 
L 382.727343 104.594104 
L 383.778005 105.73228 
L 384.828667 109.08926 
L 385.879329 98.449231 
L 386.929991 102.592704 
L 387.980653 106.032809 
L 389.031315 105.566029 
L 390.081977 99.568224 
L 391.132639 106.077569 
L 392.183301 99.574618 
L 393.233963 101.710297 
L 394.284625 98.724183 
L 395.335287 105.73228 
L 396.385949 101.966067 
L 397.436611 96.422254 
L 398.487273 98.135912 
L 398.487273 98.135912 
" style="fill:none;stroke:#1f77b4;stroke-linecap:square;stroke-width:1.5;"/>
   </g>
   <g id="line2d_21">
    <path clip-path="url(#pe6f860df16)" d="M 73.832727 270.748652 
L 74.883389 237.082934 
L 75.934051 229.249979 
L 76.984713 193.026561 
L 78.035375 199.548695 
L 79.086037 160.959405 
L 80.136699 149.385815 
L 81.187361 142.352141 
L 82.238023 124.927814 
L 83.288685 128.412679 
L 84.339347 124.256418 
L 85.390009 148.74639 
L 86.440671 145.197582 
L 87.491333 142.639882 
L 88.541995 137.908138 
L 89.592657 138.19588 
L 90.643319 125.695124 
L 91.693981 119.236933 
L 92.744643 119.908329 
L 93.795305 147.403598 
L 94.845966 143.758876 
L 95.896628 114.984757 
L 96.94729 100.725583 
L 97.997952 103.315254 
L 99.048614 98.615481 
L 100.099276 90.87844 
L 101.149938 89.887332 
L 102.2006 88.384683 
L 104.301924 82.214234 
L 105.352586 80.807499 
L 106.403248 136.117749 
L 107.45391 134.87087 
L 108.504572 108.942193 
L 109.555234 102.260203 
L 110.605896 111.595806 
L 111.656558 102.867656 
L 112.70722 120.483811 
L 113.757882 107.247717 
L 114.808544 98.807309 
L 115.859206 108.814308 
L 116.909868 98.295769 
L 117.96053 92.988542 
L 119.011192 86.274581 
L 120.061853 92.093348 
L 121.112515 91.517865 
L 122.163177 89.439734 
L 123.213839 84.803904 
L 124.264501 85.155588 
L 125.315163 77.322633 
L 126.365825 87.425546 
L 127.416487 78.601483 
L 128.467149 77.962058 
L 129.517811 73.773825 
L 130.568473 76.171669 
L 131.619135 74.253394 
L 132.669797 70.193046 
L 133.720459 73.262286 
L 134.771121 70.352902 
L 135.821783 70.864442 
L 136.872445 66.868037 
L 137.923107 65.39736 
L 138.973769 64.150481 
L 140.024431 63.990625 
L 141.075093 62.615862 
L 142.125755 62.392063 
L 143.176417 61.209127 
L 144.227079 60.76153 
L 145.277741 59.770421 
L 146.328402 60.697587 
L 147.379064 59.674507 
L 148.429726 95.002731 
L 149.480388 100.789526 
L 150.53105 86.626265 
L 151.581712 92.445031 
L 152.632374 88.80031 
L 153.683036 118.277795 
L 154.733698 90.814498 
L 155.78436 96.889034 
L 156.835022 92.317146 
L 157.885684 94.20345 
L 158.936346 83.173371 
L 159.987008 95.386386 
L 161.03767 88.512568 
L 162.088332 87.297661 
L 163.138994 89.215936 
L 164.189656 87.809201 
L 165.240318 86.75415 
L 166.29098 80.295959 
L 167.341642 93.340226 
L 168.392304 81.574809 
L 169.442966 81.223125 
L 170.493628 81.031298 
L 171.544289 83.812796 
L 172.594951 78.409656 
L 173.645613 81.894521 
L 174.696275 77.290662 
L 175.746937 85.922898 
L 176.797599 76.523352 
L 177.848261 74.061567 
L 178.898923 88.576511 
L 181.000247 74.796905 
L 182.050909 84.96376 
L 183.101571 79.81639 
L 184.152233 71.855551 
L 185.202895 81.382981 
L 186.253557 74.92479 
L 187.304219 73.741854 
L 188.354881 73.166372 
L 189.405543 71.631752 
L 190.456205 72.718774 
L 191.506867 70.54473 
L 192.557529 71.088241 
L 193.608191 69.649535 
L 194.658853 74.509164 
L 195.709515 68.786312 
L 196.760177 67.443519 
L 197.810838 68.914197 
L 198.8615 68.434628 
L 199.912162 66.100727 
L 202.013486 65.301446 
L 203.064148 65.685101 
L 204.11481 63.702884 
L 205.165472 63.60697 
L 206.216134 63.766826 
L 207.266796 63.670913 
L 208.317458 61.241098 
L 209.36812 62.456005 
L 210.418782 60.665616 
L 211.469444 62.360092 
L 212.520106 58.779313 
L 213.570768 59.674507 
L 214.62143 59.48268 
L 215.672092 57.724262 
L 216.722754 58.331715 
L 217.773416 58.235801 
L 218.824078 57.084837 
L 219.87474 56.381469 
L 220.925402 56.893009 
L 221.976064 55.646131 
L 225.128049 55.582188 
L 226.178711 54.84685 
L 227.229373 54.59108 
L 228.280035 55.166562 
L 229.330697 54.878821 
L 230.381359 54.814878 
L 231.432021 54.559109 
L 232.482683 109.453732 
L 233.533345 85.187559 
L 234.584007 84.548134 
L 235.634669 89.247907 
L 236.685331 88.256798 
L 237.735993 77.962058 
L 238.786655 86.082754 
L 239.837317 86.178668 
L 240.887979 83.588997 
L 241.938641 90.111131 
L 242.989303 82.62986 
L 244.039965 81.35101 
L 245.090627 80.487786 
L 247.191951 87.00992 
L 248.242613 81.702694 
L 249.293274 77.610375 
L 250.343936 80.008218 
L 251.394598 80.999326 
L 252.44526 79.113023 
L 253.495922 76.363496 
L 254.546584 83.908709 
L 255.597246 73.294257 
L 256.647908 81.446924 
L 257.69857 86.146696 
L 258.749232 81.414952 
L 259.799894 79.592592 
L 260.850556 89.919303 
L 261.901218 80.168074 
L 262.95188 85.123617 
L 264.002542 84.739962 
L 265.053204 80.295959 
L 266.103866 79.144994 
L 267.154528 77.450518 
L 268.20519 76.619266 
L 269.255852 79.081052 
L 270.306514 78.121914 
L 271.357176 82.565917 
L 272.407838 76.395467 
L 273.4585 78.825282 
L 274.509162 85.4753 
L 275.559823 80.295959 
L 276.610485 73.006516 
L 277.661147 70.416845 
L 278.711809 74.093538 
L 279.762471 74.189452 
L 280.813133 71.184155 
L 281.863795 70.960356 
L 282.914457 76.331525 
L 283.965119 86.178668 
L 285.015781 72.303148 
L 286.066443 75.500273 
L 287.117105 70.512759 
L 288.167767 87.041891 
L 289.218429 74.477193 
L 290.269091 70.8005 
L 291.319753 74.637049 
L 292.370415 79.176965 
L 293.421077 75.244503 
L 294.471739 77.354605 
L 295.522401 76.171669 
L 296.573063 73.326228 
L 297.623725 77.898116 
L 298.674387 69.52165 
L 299.725049 81.031298 
L 300.775711 73.581998 
L 301.826372 70.960356 
L 302.877034 72.303148 
L 303.927696 78.217828 
L 304.978358 65.077647 
L 306.02902 73.90171 
L 307.079682 74.828876 
L 308.130344 70.672615 
L 309.181006 68.466599 
L 310.231668 68.914197 
L 311.28233 72.175263 
L 312.332992 68.402657 
L 314.434316 67.187749 
L 315.484978 69.489679 
L 316.53564 70.384874 
L 317.586302 67.539433 
L 318.636964 67.443519 
L 319.687626 68.146887 
L 321.78895 66.740152 
L 322.839612 68.594484 
L 323.890274 64.757935 
L 324.940936 63.702884 
L 325.991598 63.958654 
L 327.042259 64.917791 
L 328.092921 65.685101 
L 329.143583 64.278366 
L 330.194245 70.384874 
L 331.244907 62.136293 
L 332.295569 62.551919 
L 333.346231 64.438223 
L 334.396893 63.319229 
L 336.498217 63.926683 
L 337.548879 62.232207 
L 338.599541 65.781015 
L 339.650203 63.127402 
L 340.700865 62.360092 
L 341.751527 63.223315 
L 342.802189 61.241098 
L 343.852851 61.113213 
L 344.903513 62.551919 
L 345.954175 60.345903 
L 347.004837 64.214424 
L 348.055499 61.816581 
L 349.106161 60.825472 
L 350.156823 60.154076 
L 351.207485 59.674507 
L 352.258147 60.026191 
L 353.308808 60.825472 
L 354.35947 60.026191 
L 355.410132 59.962249 
L 356.460794 58.811284 
L 357.511456 58.107916 
L 358.562118 59.130996 
L 359.61278 59.162967 
L 360.663442 59.003111 
L 361.714104 58.4596 
L 362.764766 59.130996 
L 363.815428 58.907198 
L 364.86609 56.029786 
L 365.916752 58.427629 
L 366.967414 55.933872 
L 368.018076 56.573297 
L 369.068738 56.637239 
L 370.1194 55.837958 
L 371.170062 57.660319 
L 372.220724 58.171859 
L 373.271386 55.486275 
L 374.322048 55.61416 
L 375.37271 56.061757 
L 377.474034 54.527137 
L 380.626019 55.10262 
L 381.676681 55.070648 
L 384.828667 53.919684 
L 385.879329 54.367281 
L 386.929991 54.686993 
L 389.031315 54.175454 
L 390.081977 54.623051 
L 391.132639 54.750936 
L 392.183301 54.175454 
L 393.233963 53.919684 
L 394.284625 54.33531 
L 396.385949 54.047569 
L 397.436611 53.568 
L 398.487273 54.655022 
L 398.487273 54.655022 
" style="fill:none;stroke:#ff7f0e;stroke-linecap:square;stroke-width:1.5;"/>
   </g>
   <g id="patch_3">
    <path d="M 57.6 307.584 
L 57.6 41.472 
" style="fill:none;stroke:#000000;stroke-linecap:square;stroke-linejoin:miter;stroke-width:0.8;"/>
   </g>
   <g id="patch_4">
    <path d="M 414.72 307.584 
L 414.72 41.472 
" style="fill:none;stroke:#000000;stroke-linecap:square;stroke-linejoin:miter;stroke-width:0.8;"/>
   </g>
   <g id="patch_5">
    <path d="M 57.6 307.584 
L 414.72 307.584 
" style="fill:none;stroke:#000000;stroke-linecap:square;stroke-linejoin:miter;stroke-width:0.8;"/>
   </g>
   <g id="patch_6">
    <path d="M 57.6 41.472 
L 414.72 41.472 
" style="fill:none;stroke:#000000;stroke-linecap:square;stroke-linejoin:miter;stroke-width:0.8;"/>
   </g>
   <g id="text_22">
    <!-- Training and Validation Accuracy -->
    <g transform="translate(138.4575 35.472)scale(0.12 -0.12)">
     <defs>
      <path d="M -19 4666 
L 3928 4666 
L 3928 4134 
L 2272 4134 
L 2272 0 
L 1638 0 
L 1638 4134 
L -19 4134 
L -19 4666 
z
" id="DejaVuSans-54" transform="scale(0.015625)"/>
      <path d="M 603 3500 
L 1178 3500 
L 1178 0 
L 603 0 
L 603 3500 
z
M 603 4863 
L 1178 4863 
L 1178 4134 
L 603 4134 
L 603 4863 
z
" id="DejaVuSans-69" transform="scale(0.015625)"/>
      <path d="M 3513 2113 
L 3513 0 
L 2938 0 
L 2938 2094 
Q 2938 2591 2744 2837 
Q 2550 3084 2163 3084 
Q 1697 3084 1428 2787 
Q 1159 2491 1159 1978 
L 1159 0 
L 581 0 
L 581 3500 
L 1159 3500 
L 1159 2956 
Q 1366 3272 1645 3428 
Q 1925 3584 2291 3584 
Q 2894 3584 3203 3211 
Q 3513 2838 3513 2113 
z
" id="DejaVuSans-6e" transform="scale(0.015625)"/>
      <path d="M 2906 1791 
Q 2906 2416 2648 2759 
Q 2391 3103 1925 3103 
Q 1463 3103 1205 2759 
Q 947 2416 947 1791 
Q 947 1169 1205 825 
Q 1463 481 1925 481 
Q 2391 481 2648 825 
Q 2906 1169 2906 1791 
z
M 3481 434 
Q 3481 -459 3084 -895 
Q 2688 -1331 1869 -1331 
Q 1566 -1331 1297 -1286 
Q 1028 -1241 775 -1147 
L 775 -588 
Q 1028 -725 1275 -790 
Q 1522 -856 1778 -856 
Q 2344 -856 2625 -561 
Q 2906 -266 2906 331 
L 2906 616 
Q 2728 306 2450 153 
Q 2172 0 1784 0 
Q 1141 0 747 490 
Q 353 981 353 1791 
Q 353 2603 747 3093 
Q 1141 3584 1784 3584 
Q 2172 3584 2450 3431 
Q 2728 3278 2906 2969 
L 2906 3500 
L 3481 3500 
L 3481 434 
z
" id="DejaVuSans-67" transform="scale(0.015625)"/>
      <path id="DejaVuSans-20" transform="scale(0.015625)"/>
      <path d="M 2906 2969 
L 2906 4863 
L 3481 4863 
L 3481 0 
L 2906 0 
L 2906 525 
Q 2725 213 2448 61 
Q 2172 -91 1784 -91 
Q 1150 -91 751 415 
Q 353 922 353 1747 
Q 353 2572 751 3078 
Q 1150 3584 1784 3584 
Q 2172 3584 2448 3432 
Q 2725 3281 2906 2969 
z
M 947 1747 
Q 947 1113 1208 752 
Q 1469 391 1925 391 
Q 2381 391 2643 752 
Q 2906 1113 2906 1747 
Q 2906 2381 2643 2742 
Q 2381 3103 1925 3103 
Q 1469 3103 1208 2742 
Q 947 2381 947 1747 
z
" id="DejaVuSans-64" transform="scale(0.015625)"/>
      <path d="M 1831 0 
L 50 4666 
L 709 4666 
L 2188 738 
L 3669 4666 
L 4325 4666 
L 2547 0 
L 1831 0 
z
" id="DejaVuSans-56" transform="scale(0.015625)"/>
      <path d="M 603 4863 
L 1178 4863 
L 1178 0 
L 603 0 
L 603 4863 
z
" id="DejaVuSans-6c" transform="scale(0.015625)"/>
      <path d="M 1172 4494 
L 1172 3500 
L 2356 3500 
L 2356 3053 
L 1172 3053 
L 1172 1153 
Q 1172 725 1289 603 
Q 1406 481 1766 481 
L 2356 481 
L 2356 0 
L 1766 0 
Q 1100 0 847 248 
Q 594 497 594 1153 
L 594 3053 
L 172 3053 
L 172 3500 
L 594 3500 
L 594 4494 
L 1172 4494 
z
" id="DejaVuSans-74" transform="scale(0.015625)"/>
     </defs>
     <use xlink:href="#DejaVuSans-54"/>
     <use x="46.333984" xlink:href="#DejaVuSans-72"/>
     <use x="87.447266" xlink:href="#DejaVuSans-61"/>
     <use x="148.726562" xlink:href="#DejaVuSans-69"/>
     <use x="176.509766" xlink:href="#DejaVuSans-6e"/>
     <use x="239.888672" xlink:href="#DejaVuSans-69"/>
     <use x="267.671875" xlink:href="#DejaVuSans-6e"/>
     <use x="331.050781" xlink:href="#DejaVuSans-67"/>
     <use x="394.527344" xlink:href="#DejaVuSans-20"/>
     <use x="426.314453" xlink:href="#DejaVuSans-61"/>
     <use x="487.59375" xlink:href="#DejaVuSans-6e"/>
     <use x="550.972656" xlink:href="#DejaVuSans-64"/>
     <use x="614.449219" xlink:href="#DejaVuSans-20"/>
     <use x="646.236328" xlink:href="#DejaVuSans-56"/>
     <use x="706.894531" xlink:href="#DejaVuSans-61"/>
     <use x="768.173828" xlink:href="#DejaVuSans-6c"/>
     <use x="795.957031" xlink:href="#DejaVuSans-69"/>
     <use x="823.740234" xlink:href="#DejaVuSans-64"/>
     <use x="887.216797" xlink:href="#DejaVuSans-61"/>
     <use x="948.496094" xlink:href="#DejaVuSans-74"/>
     <use x="987.705078" xlink:href="#DejaVuSans-69"/>
     <use x="1015.488281" xlink:href="#DejaVuSans-6f"/>
     <use x="1076.669922" xlink:href="#DejaVuSans-6e"/>
     <use x="1140.048828" xlink:href="#DejaVuSans-20"/>
     <use x="1171.835938" xlink:href="#DejaVuSans-41"/>
     <use x="1238.494141" xlink:href="#DejaVuSans-63"/>
     <use x="1293.474609" xlink:href="#DejaVuSans-63"/>
     <use x="1348.455078" xlink:href="#DejaVuSans-75"/>
     <use x="1411.833984" xlink:href="#DejaVuSans-72"/>
     <use x="1452.947266" xlink:href="#DejaVuSans-61"/>
     <use x="1514.226562" xlink:href="#DejaVuSans-63"/>
     <use x="1569.207031" xlink:href="#DejaVuSans-79"/>
    </g>
   </g>
   <g id="legend_1">
    <g id="patch_7">
     <path d="M 277.504375 302.584 
L 407.72 302.584 
Q 409.72 302.584 409.72 300.584 
L 409.72 272.22775 
Q 409.72 270.22775 407.72 270.22775 
L 277.504375 270.22775 
Q 275.504375 270.22775 275.504375 272.22775 
L 275.504375 300.584 
Q 275.504375 302.584 277.504375 302.584 
z
" style="fill:#ffffff;opacity:0.8;stroke:#cccccc;stroke-linejoin:miter;"/>
    </g>
    <g id="line2d_22">
     <path d="M 279.504375 278.326187 
L 299.504375 278.326187 
" style="fill:none;stroke:#1f77b4;stroke-linecap:square;stroke-width:1.5;"/>
    </g>
    <g id="line2d_23"/>
    <g id="text_23">
     <!-- Train Accuracy -->
     <g transform="translate(307.504375 281.826187)scale(0.1 -0.1)">
      <use xlink:href="#DejaVuSans-54"/>
      <use x="46.333984" xlink:href="#DejaVuSans-72"/>
      <use x="87.447266" xlink:href="#DejaVuSans-61"/>
      <use x="148.726562" xlink:href="#DejaVuSans-69"/>
      <use x="176.509766" xlink:href="#DejaVuSans-6e"/>
      <use x="239.888672" xlink:href="#DejaVuSans-20"/>
      <use x="271.675781" xlink:href="#DejaVuSans-41"/>
      <use x="338.333984" xlink:href="#DejaVuSans-63"/>
      <use x="393.314453" xlink:href="#DejaVuSans-63"/>
      <use x="448.294922" xlink:href="#DejaVuSans-75"/>
      <use x="511.673828" xlink:href="#DejaVuSans-72"/>
      <use x="552.787109" xlink:href="#DejaVuSans-61"/>
      <use x="614.066406" xlink:href="#DejaVuSans-63"/>
      <use x="669.046875" xlink:href="#DejaVuSans-79"/>
     </g>
    </g>
    <g id="line2d_24">
     <path d="M 279.504375 293.004312 
L 299.504375 293.004312 
" style="fill:none;stroke:#ff7f0e;stroke-linecap:square;stroke-width:1.5;"/>
    </g>
    <g id="line2d_25"/>
    <g id="text_24">
     <!-- Validation Accuracy -->
     <g transform="translate(307.504375 296.504312)scale(0.1 -0.1)">
      <use xlink:href="#DejaVuSans-56"/>
      <use x="60.658203" xlink:href="#DejaVuSans-61"/>
      <use x="121.9375" xlink:href="#DejaVuSans-6c"/>
      <use x="149.720703" xlink:href="#DejaVuSans-69"/>
      <use x="177.503906" xlink:href="#DejaVuSans-64"/>
      <use x="240.980469" xlink:href="#DejaVuSans-61"/>
      <use x="302.259766" xlink:href="#DejaVuSans-74"/>
      <use x="341.46875" xlink:href="#DejaVuSans-69"/>
      <use x="369.251953" xlink:href="#DejaVuSans-6f"/>
      <use x="430.433594" xlink:href="#DejaVuSans-6e"/>
      <use x="493.8125" xlink:href="#DejaVuSans-20"/>
      <use x="525.599609" xlink:href="#DejaVuSans-41"/>
      <use x="592.257812" xlink:href="#DejaVuSans-63"/>
      <use x="647.238281" xlink:href="#DejaVuSans-63"/>
      <use x="702.21875" xlink:href="#DejaVuSans-75"/>
      <use x="765.597656" xlink:href="#DejaVuSans-72"/>
      <use x="806.710938" xlink:href="#DejaVuSans-61"/>
      <use x="867.990234" xlink:href="#DejaVuSans-63"/>
      <use x="922.970703" xlink:href="#DejaVuSans-79"/>
     </g>
    </g>
   </g>
  </g>
 </g>
 <defs>
  <clipPath id="pe6f860df16">
   <rect height="266.112" width="357.12" x="57.6" y="41.472"/>
  </clipPath>
 </defs>
</svg>
