<?xml version="1.0" encoding="utf-8" standalone="no"?>
<!DOCTYPE svg PUBLIC "-//W3C//DTD SVG 1.1//EN"
  "http://www.w3.org/Graphics/SVG/1.1/DTD/svg11.dtd">
<svg height="345.6pt" version="1.1" viewBox="0 0 460.8 345.6" width="460.8pt" xmlns="http://www.w3.org/2000/svg" xmlns:xlink="http://www.w3.org/1999/xlink">
 <metadata>
  <rdf:RDF xmlns:cc="http://creativecommons.org/ns#" xmlns:dc="http://purl.org/dc/elements/1.1/" xmlns:rdf="http://www.w3.org/1999/02/22-rdf-syntax-ns#">
   <cc:Work>
    <dc:type rdf:resource="http://purl.org/dc/dcmitype/StillImage"/>
    <dc:date>2023-08-05T03:18:49.763127</dc:date>
    <dc:format>image/svg+xml</dc:format>
    <dc:creator>
     <cc:Agent>
      <dc:title>Matplotlib v3.4.3, https://matplotlib.org/</dc:title>
     </cc:Agent>
    </dc:creator>
   </cc:Work>
  </rdf:RDF>
 </metadata>
 <defs>
  <style type="text/css">*{stroke-linecap:butt;stroke-linejoin:round;}</style>
 </defs>
 <g id="figure_1">
  <g id="patch_1">
   <path d="M 0 345.6 
L 460.8 345.6 
L 460.8 0 
L 0 0 
z
" style="fill:#ffffff;"/>
  </g>
  <g id="axes_1">
   <g id="patch_2">
    <path d="M 57.6 307.584 
L 414.72 307.584 
L 414.72 41.472 
L 57.6 41.472 
z
" style="fill:#ffffff;"/>
   </g>
   <g id="matplotlib.axis_1">
    <g id="xtick_1">
     <g id="line2d_1">
      <defs>
       <path d="M 0 0 
L 0 3.5 
" id="md3bf6f2ca2" style="stroke:#000000;stroke-width:0.8;"/>
      </defs>
      <g>
       <use style="stroke:#000000;stroke-width:0.8;" x="73.832727" xlink:href="#md3bf6f2ca2" y="307.584"/>
      </g>
     </g>
     <g id="text_1">
      <!-- 1 -->
      <g transform="translate(70.651477 322.182437)scale(0.1 -0.1)">
       <defs>
        <path d="M 794 531 
L 1825 531 
L 1825 4091 
L 703 3866 
L 703 4441 
L 1819 4666 
L 2450 4666 
L 2450 531 
L 3481 531 
L 3481 0 
L 794 0 
L 794 531 
z
" id="DejaVuSans-31" transform="scale(0.015625)"/>
       </defs>
       <use xlink:href="#DejaVuSans-31"/>
      </g>
     </g>
    </g>
    <g id="xtick_2">
     <g id="line2d_2">
      <g>
       <use style="stroke:#000000;stroke-width:0.8;" x="109.710992" xlink:href="#md3bf6f2ca2" y="307.584"/>
      </g>
     </g>
     <g id="text_2">
      <!-- 42 -->
      <g transform="translate(103.348492 322.182437)scale(0.1 -0.1)">
       <defs>
        <path d="M 2419 4116 
L 825 1625 
L 2419 1625 
L 2419 4116 
z
M 2253 4666 
L 3047 4666 
L 3047 1625 
L 3713 1625 
L 3713 1100 
L 3047 1100 
L 3047 0 
L 2419 0 
L 2419 1100 
L 313 1100 
L 313 1709 
L 2253 4666 
z
" id="DejaVuSans-34" transform="scale(0.015625)"/>
        <path d="M 1228 531 
L 3431 531 
L 3431 0 
L 469 0 
L 469 531 
Q 828 903 1448 1529 
Q 2069 2156 2228 2338 
Q 2531 2678 2651 2914 
Q 2772 3150 2772 3378 
Q 2772 3750 2511 3984 
Q 2250 4219 1831 4219 
Q 1534 4219 1204 4116 
Q 875 4013 500 3803 
L 500 4441 
Q 881 4594 1212 4672 
Q 1544 4750 1819 4750 
Q 2544 4750 2975 4387 
Q 3406 4025 3406 3419 
Q 3406 3131 3298 2873 
Q 3191 2616 2906 2266 
Q 2828 2175 2409 1742 
Q 1991 1309 1228 531 
z
" id="DejaVuSans-32" transform="scale(0.015625)"/>
       </defs>
       <use xlink:href="#DejaVuSans-34"/>
       <use x="63.623047" xlink:href="#DejaVuSans-32"/>
      </g>
     </g>
    </g>
    <g id="xtick_3">
     <g id="line2d_3">
      <g>
       <use style="stroke:#000000;stroke-width:0.8;" x="145.589258" xlink:href="#md3bf6f2ca2" y="307.584"/>
      </g>
     </g>
     <g id="text_3">
      <!-- 83 -->
      <g transform="translate(139.226758 322.182437)scale(0.1 -0.1)">
       <defs>
        <path d="M 2034 2216 
Q 1584 2216 1326 1975 
Q 1069 1734 1069 1313 
Q 1069 891 1326 650 
Q 1584 409 2034 409 
Q 2484 409 2743 651 
Q 3003 894 3003 1313 
Q 3003 1734 2745 1975 
Q 2488 2216 2034 2216 
z
M 1403 2484 
Q 997 2584 770 2862 
Q 544 3141 544 3541 
Q 544 4100 942 4425 
Q 1341 4750 2034 4750 
Q 2731 4750 3128 4425 
Q 3525 4100 3525 3541 
Q 3525 3141 3298 2862 
Q 3072 2584 2669 2484 
Q 3125 2378 3379 2068 
Q 3634 1759 3634 1313 
Q 3634 634 3220 271 
Q 2806 -91 2034 -91 
Q 1263 -91 848 271 
Q 434 634 434 1313 
Q 434 1759 690 2068 
Q 947 2378 1403 2484 
z
M 1172 3481 
Q 1172 3119 1398 2916 
Q 1625 2713 2034 2713 
Q 2441 2713 2670 2916 
Q 2900 3119 2900 3481 
Q 2900 3844 2670 4047 
Q 2441 4250 2034 4250 
Q 1625 4250 1398 4047 
Q 1172 3844 1172 3481 
z
" id="DejaVuSans-38" transform="scale(0.015625)"/>
        <path d="M 2597 2516 
Q 3050 2419 3304 2112 
Q 3559 1806 3559 1356 
Q 3559 666 3084 287 
Q 2609 -91 1734 -91 
Q 1441 -91 1130 -33 
Q 819 25 488 141 
L 488 750 
Q 750 597 1062 519 
Q 1375 441 1716 441 
Q 2309 441 2620 675 
Q 2931 909 2931 1356 
Q 2931 1769 2642 2001 
Q 2353 2234 1838 2234 
L 1294 2234 
L 1294 2753 
L 1863 2753 
Q 2328 2753 2575 2939 
Q 2822 3125 2822 3475 
Q 2822 3834 2567 4026 
Q 2313 4219 1838 4219 
Q 1578 4219 1281 4162 
Q 984 4106 628 3988 
L 628 4550 
Q 988 4650 1302 4700 
Q 1616 4750 1894 4750 
Q 2613 4750 3031 4423 
Q 3450 4097 3450 3541 
Q 3450 3153 3228 2886 
Q 3006 2619 2597 2516 
z
" id="DejaVuSans-33" transform="scale(0.015625)"/>
       </defs>
       <use xlink:href="#DejaVuSans-38"/>
       <use x="63.623047" xlink:href="#DejaVuSans-33"/>
      </g>
     </g>
    </g>
    <g id="xtick_4">
     <g id="line2d_4">
      <g>
       <use style="stroke:#000000;stroke-width:0.8;" x="181.467523" xlink:href="#md3bf6f2ca2" y="307.584"/>
      </g>
     </g>
     <g id="text_4">
      <!-- 124 -->
      <g transform="translate(171.923773 322.182437)scale(0.1 -0.1)">
       <use xlink:href="#DejaVuSans-31"/>
       <use x="63.623047" xlink:href="#DejaVuSans-32"/>
       <use x="127.246094" xlink:href="#DejaVuSans-34"/>
      </g>
     </g>
    </g>
    <g id="xtick_5">
     <g id="line2d_5">
      <g>
       <use style="stroke:#000000;stroke-width:0.8;" x="217.345788" xlink:href="#md3bf6f2ca2" y="307.584"/>
      </g>
     </g>
     <g id="text_5">
      <!-- 165 -->
      <g transform="translate(207.802038 322.182437)scale(0.1 -0.1)">
       <defs>
        <path d="M 2113 2584 
Q 1688 2584 1439 2293 
Q 1191 2003 1191 1497 
Q 1191 994 1439 701 
Q 1688 409 2113 409 
Q 2538 409 2786 701 
Q 3034 994 3034 1497 
Q 3034 2003 2786 2293 
Q 2538 2584 2113 2584 
z
M 3366 4563 
L 3366 3988 
Q 3128 4100 2886 4159 
Q 2644 4219 2406 4219 
Q 1781 4219 1451 3797 
Q 1122 3375 1075 2522 
Q 1259 2794 1537 2939 
Q 1816 3084 2150 3084 
Q 2853 3084 3261 2657 
Q 3669 2231 3669 1497 
Q 3669 778 3244 343 
Q 2819 -91 2113 -91 
Q 1303 -91 875 529 
Q 447 1150 447 2328 
Q 447 3434 972 4092 
Q 1497 4750 2381 4750 
Q 2619 4750 2861 4703 
Q 3103 4656 3366 4563 
z
" id="DejaVuSans-36" transform="scale(0.015625)"/>
        <path d="M 691 4666 
L 3169 4666 
L 3169 4134 
L 1269 4134 
L 1269 2991 
Q 1406 3038 1543 3061 
Q 1681 3084 1819 3084 
Q 2600 3084 3056 2656 
Q 3513 2228 3513 1497 
Q 3513 744 3044 326 
Q 2575 -91 1722 -91 
Q 1428 -91 1123 -41 
Q 819 9 494 109 
L 494 744 
Q 775 591 1075 516 
Q 1375 441 1709 441 
Q 2250 441 2565 725 
Q 2881 1009 2881 1497 
Q 2881 1984 2565 2268 
Q 2250 2553 1709 2553 
Q 1456 2553 1204 2497 
Q 953 2441 691 2322 
L 691 4666 
z
" id="DejaVuSans-35" transform="scale(0.015625)"/>
       </defs>
       <use xlink:href="#DejaVuSans-31"/>
       <use x="63.623047" xlink:href="#DejaVuSans-36"/>
       <use x="127.246094" xlink:href="#DejaVuSans-35"/>
      </g>
     </g>
    </g>
    <g id="xtick_6">
     <g id="line2d_6">
      <g>
       <use style="stroke:#000000;stroke-width:0.8;" x="254.099133" xlink:href="#md3bf6f2ca2" y="307.584"/>
      </g>
     </g>
     <g id="text_6">
      <!-- 207 -->
      <g transform="translate(244.555383 322.182437)scale(0.1 -0.1)">
       <defs>
        <path d="M 2034 4250 
Q 1547 4250 1301 3770 
Q 1056 3291 1056 2328 
Q 1056 1369 1301 889 
Q 1547 409 2034 409 
Q 2525 409 2770 889 
Q 3016 1369 3016 2328 
Q 3016 3291 2770 3770 
Q 2525 4250 2034 4250 
z
M 2034 4750 
Q 2819 4750 3233 4129 
Q 3647 3509 3647 2328 
Q 3647 1150 3233 529 
Q 2819 -91 2034 -91 
Q 1250 -91 836 529 
Q 422 1150 422 2328 
Q 422 3509 836 4129 
Q 1250 4750 2034 4750 
z
" id="DejaVuSans-30" transform="scale(0.015625)"/>
        <path d="M 525 4666 
L 3525 4666 
L 3525 4397 
L 1831 0 
L 1172 0 
L 2766 4134 
L 525 4134 
L 525 4666 
z
" id="DejaVuSans-37" transform="scale(0.015625)"/>
       </defs>
       <use xlink:href="#DejaVuSans-32"/>
       <use x="63.623047" xlink:href="#DejaVuSans-30"/>
       <use x="127.246094" xlink:href="#DejaVuSans-37"/>
      </g>
     </g>
    </g>
    <g id="xtick_7">
     <g id="line2d_7">
      <g>
       <use style="stroke:#000000;stroke-width:0.8;" x="289.977398" xlink:href="#md3bf6f2ca2" y="307.584"/>
      </g>
     </g>
     <g id="text_7">
      <!-- 248 -->
      <g transform="translate(280.433648 322.182437)scale(0.1 -0.1)">
       <use xlink:href="#DejaVuSans-32"/>
       <use x="63.623047" xlink:href="#DejaVuSans-34"/>
       <use x="127.246094" xlink:href="#DejaVuSans-38"/>
      </g>
     </g>
    </g>
    <g id="xtick_8">
     <g id="line2d_8">
      <g>
       <use style="stroke:#000000;stroke-width:0.8;" x="325.855663" xlink:href="#md3bf6f2ca2" y="307.584"/>
      </g>
     </g>
     <g id="text_8">
      <!-- 289 -->
      <g transform="translate(316.311913 322.182437)scale(0.1 -0.1)">
       <defs>
        <path d="M 703 97 
L 703 672 
Q 941 559 1184 500 
Q 1428 441 1663 441 
Q 2288 441 2617 861 
Q 2947 1281 2994 2138 
Q 2813 1869 2534 1725 
Q 2256 1581 1919 1581 
Q 1219 1581 811 2004 
Q 403 2428 403 3163 
Q 403 3881 828 4315 
Q 1253 4750 1959 4750 
Q 2769 4750 3195 4129 
Q 3622 3509 3622 2328 
Q 3622 1225 3098 567 
Q 2575 -91 1691 -91 
Q 1453 -91 1209 -44 
Q 966 3 703 97 
z
M 1959 2075 
Q 2384 2075 2632 2365 
Q 2881 2656 2881 3163 
Q 2881 3666 2632 3958 
Q 2384 4250 1959 4250 
Q 1534 4250 1286 3958 
Q 1038 3666 1038 3163 
Q 1038 2656 1286 2365 
Q 1534 2075 1959 2075 
z
" id="DejaVuSans-39" transform="scale(0.015625)"/>
       </defs>
       <use xlink:href="#DejaVuSans-32"/>
       <use x="63.623047" xlink:href="#DejaVuSans-38"/>
       <use x="127.246094" xlink:href="#DejaVuSans-39"/>
      </g>
     </g>
    </g>
    <g id="xtick_9">
     <g id="line2d_9">
      <g>
       <use style="stroke:#000000;stroke-width:0.8;" x="361.733928" xlink:href="#md3bf6f2ca2" y="307.584"/>
      </g>
     </g>
     <g id="text_9">
      <!-- 330 -->
      <g transform="translate(352.190178 322.182437)scale(0.1 -0.1)">
       <use xlink:href="#DejaVuSans-33"/>
       <use x="63.623047" xlink:href="#DejaVuSans-33"/>
       <use x="127.246094" xlink:href="#DejaVuSans-30"/>
      </g>
     </g>
    </g>
    <g id="xtick_10">
     <g id="line2d_10">
      <g>
       <use style="stroke:#000000;stroke-width:0.8;" x="398.487273" xlink:href="#md3bf6f2ca2" y="307.584"/>
      </g>
     </g>
     <g id="text_10">
      <!-- 372 -->
      <g transform="translate(388.943523 322.182437)scale(0.1 -0.1)">
       <use xlink:href="#DejaVuSans-33"/>
       <use x="63.623047" xlink:href="#DejaVuSans-37"/>
       <use x="127.246094" xlink:href="#DejaVuSans-32"/>
      </g>
     </g>
    </g>
    <g id="text_11">
     <!-- Epochs -->
     <g transform="translate(218.244375 335.860562)scale(0.1 -0.1)">
      <defs>
       <path d="M 628 4666 
L 3578 4666 
L 3578 4134 
L 1259 4134 
L 1259 2753 
L 3481 2753 
L 3481 2222 
L 1259 2222 
L 1259 531 
L 3634 531 
L 3634 0 
L 628 0 
L 628 4666 
z
" id="DejaVuSans-45" transform="scale(0.015625)"/>
       <path d="M 1159 525 
L 1159 -1331 
L 581 -1331 
L 581 3500 
L 1159 3500 
L 1159 2969 
Q 1341 3281 1617 3432 
Q 1894 3584 2278 3584 
Q 2916 3584 3314 3078 
Q 3713 2572 3713 1747 
Q 3713 922 3314 415 
Q 2916 -91 2278 -91 
Q 1894 -91 1617 61 
Q 1341 213 1159 525 
z
M 3116 1747 
Q 3116 2381 2855 2742 
Q 2594 3103 2138 3103 
Q 1681 3103 1420 2742 
Q 1159 2381 1159 1747 
Q 1159 1113 1420 752 
Q 1681 391 2138 391 
Q 2594 391 2855 752 
Q 3116 1113 3116 1747 
z
" id="DejaVuSans-70" transform="scale(0.015625)"/>
       <path d="M 1959 3097 
Q 1497 3097 1228 2736 
Q 959 2375 959 1747 
Q 959 1119 1226 758 
Q 1494 397 1959 397 
Q 2419 397 2687 759 
Q 2956 1122 2956 1747 
Q 2956 2369 2687 2733 
Q 2419 3097 1959 3097 
z
M 1959 3584 
Q 2709 3584 3137 3096 
Q 3566 2609 3566 1747 
Q 3566 888 3137 398 
Q 2709 -91 1959 -91 
Q 1206 -91 779 398 
Q 353 888 353 1747 
Q 353 2609 779 3096 
Q 1206 3584 1959 3584 
z
" id="DejaVuSans-6f" transform="scale(0.015625)"/>
       <path d="M 3122 3366 
L 3122 2828 
Q 2878 2963 2633 3030 
Q 2388 3097 2138 3097 
Q 1578 3097 1268 2742 
Q 959 2388 959 1747 
Q 959 1106 1268 751 
Q 1578 397 2138 397 
Q 2388 397 2633 464 
Q 2878 531 3122 666 
L 3122 134 
Q 2881 22 2623 -34 
Q 2366 -91 2075 -91 
Q 1284 -91 818 406 
Q 353 903 353 1747 
Q 353 2603 823 3093 
Q 1294 3584 2113 3584 
Q 2378 3584 2631 3529 
Q 2884 3475 3122 3366 
z
" id="DejaVuSans-63" transform="scale(0.015625)"/>
       <path d="M 3513 2113 
L 3513 0 
L 2938 0 
L 2938 2094 
Q 2938 2591 2744 2837 
Q 2550 3084 2163 3084 
Q 1697 3084 1428 2787 
Q 1159 2491 1159 1978 
L 1159 0 
L 581 0 
L 581 4863 
L 1159 4863 
L 1159 2956 
Q 1366 3272 1645 3428 
Q 1925 3584 2291 3584 
Q 2894 3584 3203 3211 
Q 3513 2838 3513 2113 
z
" id="DejaVuSans-68" transform="scale(0.015625)"/>
       <path d="M 2834 3397 
L 2834 2853 
Q 2591 2978 2328 3040 
Q 2066 3103 1784 3103 
Q 1356 3103 1142 2972 
Q 928 2841 928 2578 
Q 928 2378 1081 2264 
Q 1234 2150 1697 2047 
L 1894 2003 
Q 2506 1872 2764 1633 
Q 3022 1394 3022 966 
Q 3022 478 2636 193 
Q 2250 -91 1575 -91 
Q 1294 -91 989 -36 
Q 684 19 347 128 
L 347 722 
Q 666 556 975 473 
Q 1284 391 1588 391 
Q 1994 391 2212 530 
Q 2431 669 2431 922 
Q 2431 1156 2273 1281 
Q 2116 1406 1581 1522 
L 1381 1569 
Q 847 1681 609 1914 
Q 372 2147 372 2553 
Q 372 3047 722 3315 
Q 1072 3584 1716 3584 
Q 2034 3584 2315 3537 
Q 2597 3491 2834 3397 
z
" id="DejaVuSans-73" transform="scale(0.015625)"/>
      </defs>
      <use xlink:href="#DejaVuSans-45"/>
      <use x="63.183594" xlink:href="#DejaVuSans-70"/>
      <use x="126.660156" xlink:href="#DejaVuSans-6f"/>
      <use x="187.841797" xlink:href="#DejaVuSans-63"/>
      <use x="242.822266" xlink:href="#DejaVuSans-68"/>
      <use x="306.201172" xlink:href="#DejaVuSans-73"/>
     </g>
    </g>
   </g>
   <g id="matplotlib.axis_2">
    <g id="ytick_1">
     <g id="line2d_11">
      <defs>
       <path d="M 0 0 
L -3.5 0 
" id="mc318142009" style="stroke:#000000;stroke-width:0.8;"/>
      </defs>
      <g>
       <use style="stroke:#000000;stroke-width:0.8;" x="57.6" xlink:href="#mc318142009" y="284.126926"/>
      </g>
     </g>
     <g id="text_12">
      <!-- 30 -->
      <g transform="translate(37.875 287.926145)scale(0.1 -0.1)">
       <use xlink:href="#DejaVuSans-33"/>
       <use x="63.623047" xlink:href="#DejaVuSans-30"/>
      </g>
     </g>
    </g>
    <g id="ytick_2">
     <g id="line2d_12">
      <g>
       <use style="stroke:#000000;stroke-width:0.8;" x="57.6" xlink:href="#mc318142009" y="249.720281"/>
      </g>
     </g>
     <g id="text_13">
      <!-- 40 -->
      <g transform="translate(37.875 253.5195)scale(0.1 -0.1)">
       <use xlink:href="#DejaVuSans-34"/>
       <use x="63.623047" xlink:href="#DejaVuSans-30"/>
      </g>
     </g>
    </g>
    <g id="ytick_3">
     <g id="line2d_13">
      <g>
       <use style="stroke:#000000;stroke-width:0.8;" x="57.6" xlink:href="#mc318142009" y="215.313637"/>
      </g>
     </g>
     <g id="text_14">
      <!-- 50 -->
      <g transform="translate(37.875 219.112855)scale(0.1 -0.1)">
       <use xlink:href="#DejaVuSans-35"/>
       <use x="63.623047" xlink:href="#DejaVuSans-30"/>
      </g>
     </g>
    </g>
    <g id="ytick_4">
     <g id="line2d_14">
      <g>
       <use style="stroke:#000000;stroke-width:0.8;" x="57.6" xlink:href="#mc318142009" y="180.906992"/>
      </g>
     </g>
     <g id="text_15">
      <!-- 60 -->
      <g transform="translate(37.875 184.706211)scale(0.1 -0.1)">
       <use xlink:href="#DejaVuSans-36"/>
       <use x="63.623047" xlink:href="#DejaVuSans-30"/>
      </g>
     </g>
    </g>
    <g id="ytick_5">
     <g id="line2d_15">
      <g>
       <use style="stroke:#000000;stroke-width:0.8;" x="57.6" xlink:href="#mc318142009" y="146.500347"/>
      </g>
     </g>
     <g id="text_16">
      <!-- 70 -->
      <g transform="translate(37.875 150.299566)scale(0.1 -0.1)">
       <use xlink:href="#DejaVuSans-37"/>
       <use x="63.623047" xlink:href="#DejaVuSans-30"/>
      </g>
     </g>
    </g>
    <g id="ytick_6">
     <g id="line2d_16">
      <g>
       <use style="stroke:#000000;stroke-width:0.8;" x="57.6" xlink:href="#mc318142009" y="112.093703"/>
      </g>
     </g>
     <g id="text_17">
      <!-- 80 -->
      <g transform="translate(37.875 115.892921)scale(0.1 -0.1)">
       <use xlink:href="#DejaVuSans-38"/>
       <use x="63.623047" xlink:href="#DejaVuSans-30"/>
      </g>
     </g>
    </g>
    <g id="ytick_7">
     <g id="line2d_17">
      <g>
       <use style="stroke:#000000;stroke-width:0.8;" x="57.6" xlink:href="#mc318142009" y="77.687058"/>
      </g>
     </g>
     <g id="text_18">
      <!-- 90 -->
      <g transform="translate(37.875 81.486277)scale(0.1 -0.1)">
       <use xlink:href="#DejaVuSans-39"/>
       <use x="63.623047" xlink:href="#DejaVuSans-30"/>
      </g>
     </g>
    </g>
    <g id="ytick_8">
     <g id="line2d_18">
      <g>
       <use style="stroke:#000000;stroke-width:0.8;" x="57.6" xlink:href="#mc318142009" y="43.280413"/>
      </g>
     </g>
     <g id="text_19">
      <!-- 100 -->
      <g transform="translate(31.5125 47.079632)scale(0.1 -0.1)">
       <use xlink:href="#DejaVuSans-31"/>
       <use x="63.623047" xlink:href="#DejaVuSans-30"/>
       <use x="127.246094" xlink:href="#DejaVuSans-30"/>
      </g>
     </g>
    </g>
    <g id="text_20">
     <!-- Accuracy -->
     <g transform="translate(25.432812 197.356125)rotate(-90)scale(0.1 -0.1)">
      <defs>
       <path d="M 2188 4044 
L 1331 1722 
L 3047 1722 
L 2188 4044 
z
M 1831 4666 
L 2547 4666 
L 4325 0 
L 3669 0 
L 3244 1197 
L 1141 1197 
L 716 0 
L 50 0 
L 1831 4666 
z
" id="DejaVuSans-41" transform="scale(0.015625)"/>
       <path d="M 544 1381 
L 544 3500 
L 1119 3500 
L 1119 1403 
Q 1119 906 1312 657 
Q 1506 409 1894 409 
Q 2359 409 2629 706 
Q 2900 1003 2900 1516 
L 2900 3500 
L 3475 3500 
L 3475 0 
L 2900 0 
L 2900 538 
Q 2691 219 2414 64 
Q 2138 -91 1772 -91 
Q 1169 -91 856 284 
Q 544 659 544 1381 
z
M 1991 3584 
L 1991 3584 
z
" id="DejaVuSans-75" transform="scale(0.015625)"/>
       <path d="M 2631 2963 
Q 2534 3019 2420 3045 
Q 2306 3072 2169 3072 
Q 1681 3072 1420 2755 
Q 1159 2438 1159 1844 
L 1159 0 
L 581 0 
L 581 3500 
L 1159 3500 
L 1159 2956 
Q 1341 3275 1631 3429 
Q 1922 3584 2338 3584 
Q 2397 3584 2469 3576 
Q 2541 3569 2628 3553 
L 2631 2963 
z
" id="DejaVuSans-72" transform="scale(0.015625)"/>
       <path d="M 2194 1759 
Q 1497 1759 1228 1600 
Q 959 1441 959 1056 
Q 959 750 1161 570 
Q 1363 391 1709 391 
Q 2188 391 2477 730 
Q 2766 1069 2766 1631 
L 2766 1759 
L 2194 1759 
z
M 3341 1997 
L 3341 0 
L 2766 0 
L 2766 531 
Q 2569 213 2275 61 
Q 1981 -91 1556 -91 
Q 1019 -91 701 211 
Q 384 513 384 1019 
Q 384 1609 779 1909 
Q 1175 2209 1959 2209 
L 2766 2209 
L 2766 2266 
Q 2766 2663 2505 2880 
Q 2244 3097 1772 3097 
Q 1472 3097 1187 3025 
Q 903 2953 641 2809 
L 641 3341 
Q 956 3463 1253 3523 
Q 1550 3584 1831 3584 
Q 2591 3584 2966 3190 
Q 3341 2797 3341 1997 
z
" id="DejaVuSans-61" transform="scale(0.015625)"/>
       <path d="M 2059 -325 
Q 1816 -950 1584 -1140 
Q 1353 -1331 966 -1331 
L 506 -1331 
L 506 -850 
L 844 -850 
Q 1081 -850 1212 -737 
Q 1344 -625 1503 -206 
L 1606 56 
L 191 3500 
L 800 3500 
L 1894 763 
L 2988 3500 
L 3597 3500 
L 2059 -325 
z
" id="DejaVuSans-79" transform="scale(0.015625)"/>
      </defs>
      <use xlink:href="#DejaVuSans-41"/>
      <use x="66.658203" xlink:href="#DejaVuSans-63"/>
      <use x="121.638672" xlink:href="#DejaVuSans-63"/>
      <use x="176.619141" xlink:href="#DejaVuSans-75"/>
      <use x="239.998047" xlink:href="#DejaVuSans-72"/>
      <use x="281.111328" xlink:href="#DejaVuSans-61"/>
      <use x="342.390625" xlink:href="#DejaVuSans-63"/>
      <use x="397.371094" xlink:href="#DejaVuSans-79"/>
     </g>
    </g>
   </g>
   <g id="line2d_19">
    <path clip-path="url(#pf4979a935f)" d="M 73.832727 295.488 
L 74.707807 282.709372 
L 75.582887 241.930617 
L 76.457966 226.832981 
L 77.333046 203.821817 
L 78.208125 195.646798 
L 79.958285 176.28962 
L 80.833364 168.286635 
L 81.708444 163.297671 
L 82.583524 154.48957 
L 83.458603 154.324418 
L 84.333683 150.429586 
L 85.208763 182.028649 
L 86.083842 173.316886 
L 86.958922 168.506837 
L 87.834001 159.788193 
L 88.709081 155.907124 
L 89.584161 155.556176 
L 90.45924 146.238857 
L 91.33432 147.677054 
L 93.084479 137.981262 
L 93.959559 140.754438 
L 94.834639 134.079549 
L 95.709718 133.357009 
L 96.584798 128.987365 
L 97.459877 130.4118 
L 98.334957 124.879212 
L 99.210037 123.145117 
L 100.085116 122.037223 
L 101.835276 114.970098 
L 102.710355 118.445169 
L 103.585435 119.890248 
L 104.460515 120.413229 
L 105.335594 113.566307 
L 106.210674 139.453866 
L 107.085753 141.153555 
L 107.960833 135.64161 
L 109.710992 129.53099 
L 110.586072 128.567604 
L 111.461152 133.246908 
L 112.336231 129.723667 
L 113.211311 126.689001 
L 114.086391 124.259892 
L 114.96147 119.078251 
L 115.83655 120.179264 
L 116.71163 120.908685 
L 117.586709 122.594611 
L 118.461789 116.545922 
L 119.336868 119.319098 
L 120.211948 121.720682 
L 121.087028 114.749896 
L 121.962107 113.263529 
L 122.837187 115.210945 
L 123.712267 113.236003 
L 124.587346 111.894144 
L 125.462426 110.999571 
L 126.337506 105.528915 
L 127.212585 107.132264 
L 128.087665 106.416606 
L 128.962744 105.384407 
L 129.837824 103.058518 
L 130.712904 101.971268 
L 131.587983 103.230551 
L 132.463063 101.269372 
L 133.338143 102.666282 
L 134.213222 101.406999 
L 135.088302 96.246002 
L 135.963382 95.92258 
L 136.838461 96.301053 
L 137.713541 99.287549 
L 138.58862 95.241328 
L 139.4637 95.606038 
L 140.33878 95.372073 
L 141.213859 95.392717 
L 142.088939 95.81936 
L 142.964019 95.537225 
L 143.839098 93.582928 
L 144.714178 90.775346 
L 145.589258 93.431539 
L 146.464337 88.538914 
L 147.339417 94.085265 
L 148.214496 110.077473 
L 149.089576 114.447117 
L 149.964656 111.584484 
L 150.839735 114.268203 
L 151.714815 111.660179 
L 152.589895 109.582018 
L 153.464974 105.831693 
L 154.340054 107.579551 
L 155.215134 108.240158 
L 156.090213 108.756258 
L 156.965293 105.136679 
L 157.840372 104.710037 
L 159.590532 110.201337 
L 160.465611 102.879603 
L 161.340691 104.895833 
L 162.215771 108.075006 
L 163.09085 100.870255 
L 163.96593 104.46919 
L 164.84101 106.898299 
L 165.716089 101.771709 
L 166.591169 99.438939 
L 167.466248 100.780798 
L 168.341328 99.026059 
L 169.216408 101.124864 
L 170.091487 99.370125 
L 170.966567 98.854026 
L 171.841647 97.801182 
L 172.716726 101.138627 
L 173.591806 103.808583 
L 174.466886 97.360777 
L 175.341965 97.925046 
L 176.217045 96.941016 
L 177.092124 94.711466 
L 178.842284 95.901936 
L 179.717363 94.862855 
L 180.592443 92.089679 
L 181.467523 94.883499 
L 182.342602 92.736524 
L 183.217682 95.440887 
L 184.092762 93.424657 
L 184.967841 95.840004 
L 185.842921 94.773398 
L 186.718 91.814426 
L 187.59308 98.076436 
L 188.46816 91.277683 
L 189.343239 88.181085 
L 190.218319 89.633045 
L 191.093399 92.488796 
L 191.968478 86.226787 
L 192.843558 97.463997 
L 193.718638 89.577994 
L 194.593717 88.387524 
L 195.468797 87.568646 
L 196.343877 89.76379 
L 197.218956 82.318192 
L 198.094036 90.809752 
L 198.969115 87.437901 
L 199.844195 88.697184 
L 200.719275 89.041251 
L 201.594354 85.332214 
L 202.469434 87.066309 
L 203.344514 86.151093 
L 204.219593 89.144471 
L 205.094673 82.538395 
L 206.844832 83.563713 
L 207.719912 82.985681 
L 208.594991 84.816115 
L 209.470071 85.063843 
L 210.345151 82.951275 
L 211.22023 83.178358 
L 212.97039 81.471789 
L 213.845469 79.593186 
L 214.720549 81.21718 
L 215.595629 80.756131 
L 216.470708 80.480877 
L 217.345788 81.141485 
L 218.220867 80.948808 
L 219.095947 83.818322 
L 219.971027 87.320918 
L 220.846106 82.270023 
L 221.721186 83.900898 
L 222.596266 79.428034 
L 223.471345 83.267816 
L 224.346425 84.052287 
L 225.221505 78.499055 
L 226.096584 80.790537 
L 226.971664 78.89129 
L 227.846743 83.281578 
L 228.721823 79.579423 
L 229.596903 81.808974 
L 230.471982 78.856884 
L 231.347062 76.854417 
L 232.222142 96.473086 
L 233.097221 94.353637 
L 233.972301 94.126553 
L 234.847381 98.785212 
L 235.72246 93.479708 
L 236.59754 94.195366 
L 237.472619 91.656156 
L 238.347699 93.693029 
L 239.222779 94.780279 
L 240.097858 95.440887 
L 241.848018 91.291445 
L 242.723097 96.411154 
L 243.598177 96.356103 
L 244.473257 93.142523 
L 245.348336 91.614868 
L 246.223416 97.429591 
L 247.098495 91.752494 
L 247.973575 97.663556 
L 248.848655 94.780279 
L 249.723734 91.071243 
L 250.598814 93.982045 
L 251.473894 88.532032 
L 252.348973 96.046444 
L 253.224053 91.979578 
L 254.099133 89.378436 
L 254.974212 92.770931 
L 255.849292 87.740679 
L 256.724371 92.949845 
L 257.599451 94.663296 
L 258.474531 89.750028 
L 259.34961 91.016192 
L 260.22469 88.277423 
L 261.09977 90.961141 
L 261.974849 88.070983 
L 262.849929 90.892328 
L 263.725009 94.31923 
L 264.600088 88.655896 
L 265.475168 90.500092 
L 266.350247 89.45413 
L 267.225327 84.265608 
L 268.100407 86.075398 
L 268.975486 94.869736 
L 269.850566 86.880513 
L 270.725646 89.055013 
L 271.600725 90.506974 
L 272.475805 88.525151 
L 273.350885 92.488796 
L 274.225964 83.536188 
L 275.101044 85.187706 
L 275.976123 86.433227 
L 276.851203 88.57332 
L 277.726283 87.568646 
L 278.601362 89.949586 
L 279.476442 84.540862 
L 280.351522 87.314037 
L 281.226601 84.361947 
L 282.101681 88.043458 
L 282.976761 89.963349 
L 283.85184 85.05008 
L 284.72692 83.439849 
L 285.602 89.584876 
L 286.477079 88.476982 
L 287.352159 81.134604 
L 288.227238 87.609934 
L 289.102318 84.795471 
L 289.977398 84.568387 
L 290.852477 86.619023 
L 291.727557 84.589031 
L 292.602637 83.384798 
L 293.477716 86.467634 
L 294.352796 83.85961 
L 295.227876 87.410376 
L 296.102955 79.40739 
L 296.978035 80.18498 
L 297.853114 82.779241 
L 298.728194 83.563713 
L 299.603274 84.726657 
L 300.478353 86.529566 
L 301.353433 78.347665 
L 302.228513 81.967245 
L 303.103592 81.636941 
L 303.978672 82.779241 
L 304.853752 84.43076 
L 306.603911 82.270023 
L 307.47899 84.196795 
L 308.35407 85.62123 
L 309.22915 86.529566 
L 310.104229 82.937512 
L 310.979309 81.981007 
L 311.854389 85.765738 
L 312.729468 82.916868 
L 313.604548 78.73302 
L 314.479628 79.600067 
L 315.354707 80.143692 
L 316.229787 81.657585 
L 317.104866 81.898431 
L 317.979946 76.118115 
L 318.855026 79.661999 
L 319.730105 79.276645 
L 320.605185 81.093316 
L 321.480265 82.008532 
L 322.355344 79.675762 
L 323.230424 83.44673 
L 324.105504 78.086175 
L 324.980583 80.508403 
L 325.855663 79.428034 
L 326.730742 77.687058 
L 327.605822 77.150314 
L 328.480902 77.755871 
L 329.355981 76.675503 
L 330.231061 77.060857 
L 331.106141 74.817544 
L 331.98122 83.24029 
L 332.8563 77.23289 
L 333.73138 80.873113 
L 334.606459 76.021776 
L 335.481539 78.719257 
L 336.356618 81.024502 
L 337.231698 73.186669 
L 338.106778 80.96257 
L 338.981857 80.797419 
L 339.856937 76.826892 
L 340.732017 79.545017 
L 341.607096 74.927645 
L 342.482176 76.847536 
L 343.357256 76.462181 
L 344.232335 77.23289 
L 345.107415 76.682384 
L 345.982494 75.312999 
L 346.857574 73.186669 
L 347.732654 73.978022 
L 348.607733 76.936993 
L 349.482813 74.85195 
L 350.357893 76.758079 
L 351.232972 72.842602 
L 352.108052 77.494381 
L 352.983132 77.425567 
L 353.858211 76.166284 
L 354.733291 78.705495 
L 355.60837 75.030865 
L 356.48345 75.26483 
L 357.35853 72.133825 
L 358.233609 75.05839 
L 359.108689 73.778463 
L 359.983769 70.558001 
L 360.858848 72.794433 
L 361.733928 72.539824 
L 362.609008 76.076827 
L 363.484087 72.471011 
L 364.359167 75.994251 
L 365.234247 75.361169 
L 366.109326 76.4553 
L 366.984406 76.799366 
L 367.859485 75.209779 
L 368.734565 77.590719 
L 369.609645 70.902068 
L 370.484724 75.746523 
L 371.359804 74.12253 
L 372.234884 70.867661 
L 373.109963 73.750938 
L 373.985043 74.624867 
L 374.860123 73.234838 
L 375.735202 70.578645 
L 376.610282 74.225749 
L 377.485361 73.172906 
L 378.360441 69.629022 
L 379.235521 75.567609 
L 380.1106 73.014636 
L 380.98568 76.365843 
L 381.86076 73.468803 
L 382.735839 72.890772 
L 383.610919 76.228216 
L 384.485999 72.429723 
L 385.361078 70.234579 
L 386.236158 74.975814 
L 387.111237 73.159143 
L 387.986317 71.837928 
L 388.861397 71.101626 
L 389.736476 78.106819 
L 390.611556 71.500743 
L 391.486636 71.259897 
L 392.361715 68.651873 
L 393.236795 73.269245 
L 394.111875 73.91609 
L 394.986954 69.911156 
L 395.862034 73.131618 
L 396.737113 78.292615 
L 397.612193 71.301185 
L 398.487273 71.831047 
L 398.487273 71.831047 
" style="fill:none;stroke:#1f77b4;stroke-linecap:square;stroke-width:1.5;"/>
   </g>
   <g id="line2d_20">
    <path clip-path="url(#pf4979a935f)" d="M 73.832727 249.857908 
L 74.707807 237.677956 
L 75.582887 197.559808 
L 76.457966 186.962561 
L 77.333046 169.552799 
L 78.208125 139.756645 
L 79.083205 149.631352 
L 79.958285 145.915434 
L 80.833364 119.112658 
L 81.708444 120.454517 
L 82.583524 106.554233 
L 83.458603 104.352208 
L 84.333683 99.707311 
L 85.208763 206.333502 
L 86.083842 139.756645 
L 86.958922 118.183679 
L 87.834001 121.486717 
L 88.709081 128.849739 
L 89.584161 111.164723 
L 90.45924 103.526448 
L 91.33432 110.78625 
L 92.2094 103.182382 
L 93.084479 97.574099 
L 95.709718 84.878047 
L 96.584798 83.192121 
L 97.459877 87.630578 
L 98.334957 79.166544 
L 99.210037 80.611623 
L 100.085116 80.370776 
L 100.960196 76.173166 
L 101.835276 74.865713 
L 102.710355 74.315207 
L 103.585435 73.283007 
L 104.460515 71.184202 
L 105.335594 71.493862 
L 106.210674 99.81053 
L 107.085753 89.66057 
L 107.960833 99.294431 
L 108.835913 86.391939 
L 109.710992 88.800404 
L 110.586072 87.458545 
L 111.461152 87.561765 
L 112.336231 82.125515 
L 113.211311 85.738213 
L 114.086391 92.481915 
L 114.96147 80.542809 
L 115.83655 88.559558 
L 116.71163 74.349613 
L 117.586709 79.51061 
L 118.461789 78.168751 
L 119.336868 81.540602 
L 120.211948 73.179787 
L 121.087028 74.005547 
L 121.962107 75.209779 
L 122.837187 77.480618 
L 123.712267 71.287422 
L 124.587346 72.835721 
L 125.462426 70.840136 
L 126.337506 69.188617 
L 127.212585 70.977762 
L 128.087665 67.812351 
L 128.962744 72.113181 
L 129.837824 67.261845 
L 130.712904 66.436085 
L 131.587983 66.986591 
L 132.463063 64.268466 
L 133.338143 65.231853 
L 134.213222 64.853379 
L 135.088302 66.023205 
L 135.963382 64.02762 
L 136.838461 62.892201 
L 137.713541 62.685761 
L 138.58862 60.724582 
L 139.4637 62.238474 
L 140.33878 61.791188 
L 141.213859 60.621362 
L 142.088939 60.999835 
L 142.964019 61.240682 
L 143.839098 61.034242 
L 144.714178 61.412715 
L 145.589258 59.967636 
L 146.464337 60.621362 
L 147.339417 60.793395 
L 148.214496 72.663688 
L 149.089576 77.102145 
L 149.964656 78.203158 
L 150.839735 71.356235 
L 151.714815 75.794692 
L 152.589895 74.90012 
L 153.464974 68.74133 
L 154.340054 76.173166 
L 155.215134 69.807936 
L 156.090213 70.358443 
L 156.965293 76.035539 
L 157.840372 70.392849 
L 158.715452 69.945563 
L 159.590532 71.906742 
L 160.465611 66.883371 
L 161.340691 69.016583 
L 162.215771 67.881164 
L 163.09085 71.321829 
L 163.96593 69.56709 
L 164.84101 66.023205 
L 165.716089 65.025413 
L 166.591169 68.94777 
L 167.466248 70.014376 
L 168.341328 66.676932 
L 169.216408 66.848965 
L 170.091487 64.062027 
L 170.966567 64.853379 
L 171.841647 65.163039 
L 172.716726 64.54372 
L 173.591806 67.949977 
L 174.466886 62.823387 
L 175.341965 63.82118 
L 176.217045 63.855587 
L 177.092124 63.064234 
L 177.967204 62.444914 
L 178.842284 62.307288 
L 179.717363 61.550342 
L 180.592443 62.754574 
L 181.467523 65.059819 
L 182.342602 62.720167 
L 183.217682 62.513728 
L 184.092762 62.995421 
L 184.967841 63.201861 
L 185.842921 60.242889 
L 187.59308 61.171868 
L 188.46816 60.758989 
L 189.343239 60.724582 
L 190.218319 61.103055 
L 191.093399 60.414922 
L 191.968478 62.238474 
L 192.843558 59.348316 
L 193.718638 59.382723 
L 194.593717 59.967636 
L 195.468797 58.866623 
L 196.343877 59.52035 
L 197.218956 59.554756 
L 198.094036 60.002043 
L 198.969115 59.485943 
L 199.844195 59.21069 
L 200.719275 57.800017 
L 201.594354 59.00425 
L 202.469434 58.144084 
L 204.219593 57.834424 
L 205.094673 60.070856 
L 205.969753 57.662391 
L 206.844832 58.28171 
L 208.594991 57.111884 
L 209.470071 56.733411 
L 210.345151 57.696797 
L 211.22023 57.765611 
L 212.09531 57.180698 
L 212.97039 57.111884 
L 213.845469 57.731204 
L 214.720549 57.146291 
L 215.595629 56.871038 
L 216.470708 56.802225 
L 217.345788 56.974258 
L 218.220867 57.352731 
L 219.095947 56.458158 
L 219.971027 56.526971 
L 220.846106 56.802225 
L 221.721186 56.182905 
L 222.596266 56.699005 
L 223.471345 56.492565 
L 224.346425 56.079685 
L 225.221505 55.907652 
L 226.096584 56.561378 
L 226.971664 56.389345 
L 228.721823 56.320532 
L 229.596903 55.804432 
L 230.471982 56.182905 
L 231.347062 56.182905 
L 232.222142 64.062027 
L 233.097221 65.300666 
L 233.972301 64.165247 
L 234.847381 64.199653 
L 235.72246 65.541512 
L 236.59754 61.722375 
L 237.472619 64.853379 
L 238.347699 63.51152 
L 239.222779 63.61474 
L 240.097858 65.541512 
L 240.972938 65.300666 
L 241.848018 61.997628 
L 242.723097 61.653561 
L 243.598177 64.818973 
L 244.473257 61.550342 
L 245.348336 63.442707 
L 246.223416 64.612533 
L 247.098495 62.032035 
L 247.973575 63.786773 
L 248.848655 63.098641 
L 249.723734 63.339487 
L 250.598814 61.791188 
L 252.348973 61.137462 
L 253.224053 62.548134 
L 254.099133 64.302873 
L 254.974212 60.690175 
L 255.849292 61.034242 
L 256.724371 60.793395 
L 257.599451 60.208482 
L 258.474531 63.51152 
L 259.34961 61.963221 
L 260.22469 62.651354 
L 261.974849 60.724582 
L 262.849929 63.4083 
L 263.725009 62.135255 
L 264.600088 60.518142 
L 265.475168 61.206275 
L 266.350247 60.449329 
L 267.225327 63.098641 
L 268.100407 61.447122 
L 268.975486 60.552549 
L 269.850566 61.860001 
L 270.725646 60.311702 
L 271.600725 59.141876 
L 272.475805 59.933229 
L 273.350885 59.485943 
L 274.225964 61.447122 
L 275.101044 61.275088 
L 275.976123 59.692383 
L 276.851203 60.346109 
L 277.726283 59.31391 
L 278.601362 59.485943 
L 279.476442 60.002043 
L 280.351522 57.834424 
L 282.101681 59.348316 
L 282.976761 59.623569 
L 283.85184 60.483736 
L 284.72692 58.28171 
L 285.602 58.316117 
L 286.477079 60.862209 
L 287.352159 60.036449 
L 288.227238 59.589163 
L 289.102318 58.866623 
L 289.977398 60.002043 
L 290.852477 58.59137 
L 291.727557 59.554756 
L 292.602637 60.896615 
L 293.477716 58.006457 
L 294.352796 58.17849 
L 295.227876 57.490357 
L 296.102955 57.215104 
L 296.978035 61.171868 
L 297.853114 57.352731 
L 298.728194 58.419337 
L 299.603274 58.763403 
L 300.478353 58.040864 
L 301.353433 56.836631 
L 302.228513 58.556963 
L 303.103592 59.382723 
L 303.978672 57.043071 
L 304.853752 56.871038 
L 305.728831 59.41713 
L 306.603911 57.111884 
L 307.47899 58.144084 
L 308.35407 57.146291 
L 310.104229 58.109677 
L 310.979309 56.836631 
L 311.854389 57.455951 
L 312.729468 58.832217 
L 313.604548 56.354938 
L 315.354707 58.69459 
L 316.229787 57.421544 
L 317.104866 56.354938 
L 317.979946 56.699005 
L 318.855026 56.871038 
L 319.730105 57.731204 
L 320.605185 57.903237 
L 321.480265 56.423752 
L 322.355344 56.699005 
L 323.230424 58.006457 
L 324.105504 56.389345 
L 324.980583 56.354938 
L 325.855663 55.219519 
L 326.730742 55.391552 
L 327.605822 56.802225 
L 328.480902 56.354938 
L 329.355981 57.215104 
L 330.231061 55.735619 
L 331.106141 56.595785 
L 331.98122 57.008664 
L 332.8563 55.701212 
L 333.73138 55.322739 
L 334.606459 55.942058 
L 335.481539 55.701212 
L 336.356618 55.907652 
L 337.231698 56.251718 
L 338.106778 55.116299 
L 338.981857 55.460365 
L 339.856937 55.185112 
L 340.732017 55.907652 
L 341.607096 55.185112 
L 342.482176 55.185112 
L 344.232335 54.669013 
L 345.107415 55.253926 
L 345.982494 55.632399 
L 346.857574 55.666805 
L 348.607733 54.806639 
L 349.482813 55.047486 
L 350.357893 54.875452 
L 351.232972 55.185112 
L 352.108052 54.428166 
L 352.983132 54.772233 
L 353.858211 55.701212 
L 354.733291 54.978672 
L 355.60837 55.529179 
L 356.48345 54.703419 
L 357.35853 54.496979 
L 358.233609 55.185112 
L 359.108689 53.912066 
L 359.983769 54.428166 
L 360.858848 54.18732 
L 361.733928 55.047486 
L 362.609008 54.0841 
L 363.484087 54.359353 
L 364.359167 54.0841 
L 365.234247 54.496979 
L 366.109326 54.462573 
L 366.984406 54.737826 
L 367.859485 54.049693 
L 368.734565 54.565793 
L 369.609645 54.049693 
L 370.484724 54.428166 
L 371.359804 54.256133 
L 372.234884 53.946473 
L 373.109963 53.946473 
L 373.985043 54.393759 
L 374.860123 54.0841 
L 376.610282 54.18732 
L 377.485361 53.808847 
L 378.360441 53.602407 
L 381.86076 53.740033 
L 382.735839 54.496979 
L 383.610919 53.77444 
L 384.485999 54.049693 
L 385.361078 53.568 
L 386.236158 53.77444 
L 387.986317 53.87766 
L 388.861397 54.049693 
L 389.736476 53.808847 
L 390.611556 54.049693 
L 391.486636 53.808847 
L 392.361715 54.152913 
L 393.236795 53.67122 
L 394.111875 54.152913 
L 394.986954 53.705627 
L 395.862034 54.049693 
L 397.612193 53.568 
L 398.487273 53.946473 
L 398.487273 53.946473 
" style="fill:none;stroke:#ff7f0e;stroke-linecap:square;stroke-width:1.5;"/>
   </g>
   <g id="patch_3">
    <path d="M 57.6 307.584 
L 57.6 41.472 
" style="fill:none;stroke:#000000;stroke-linecap:square;stroke-linejoin:miter;stroke-width:0.8;"/>
   </g>
   <g id="patch_4">
    <path d="M 414.72 307.584 
L 414.72 41.472 
" style="fill:none;stroke:#000000;stroke-linecap:square;stroke-linejoin:miter;stroke-width:0.8;"/>
   </g>
   <g id="patch_5">
    <path d="M 57.6 307.584 
L 414.72 307.584 
" style="fill:none;stroke:#000000;stroke-linecap:square;stroke-linejoin:miter;stroke-width:0.8;"/>
   </g>
   <g id="patch_6">
    <path d="M 57.6 41.472 
L 414.72 41.472 
" style="fill:none;stroke:#000000;stroke-linecap:square;stroke-linejoin:miter;stroke-width:0.8;"/>
   </g>
   <g id="text_21">
    <!-- Training and Validation Accuracy -->
    <g transform="translate(138.4575 35.472)scale(0.12 -0.12)">
     <defs>
      <path d="M -19 4666 
L 3928 4666 
L 3928 4134 
L 2272 4134 
L 2272 0 
L 1638 0 
L 1638 4134 
L -19 4134 
L -19 4666 
z
" id="DejaVuSans-54" transform="scale(0.015625)"/>
      <path d="M 603 3500 
L 1178 3500 
L 1178 0 
L 603 0 
L 603 3500 
z
M 603 4863 
L 1178 4863 
L 1178 4134 
L 603 4134 
L 603 4863 
z
" id="DejaVuSans-69" transform="scale(0.015625)"/>
      <path d="M 3513 2113 
L 3513 0 
L 2938 0 
L 2938 2094 
Q 2938 2591 2744 2837 
Q 2550 3084 2163 3084 
Q 1697 3084 1428 2787 
Q 1159 2491 1159 1978 
L 1159 0 
L 581 0 
L 581 3500 
L 1159 3500 
L 1159 2956 
Q 1366 3272 1645 3428 
Q 1925 3584 2291 3584 
Q 2894 3584 3203 3211 
Q 3513 2838 3513 2113 
z
" id="DejaVuSans-6e" transform="scale(0.015625)"/>
      <path d="M 2906 1791 
Q 2906 2416 2648 2759 
Q 2391 3103 1925 3103 
Q 1463 3103 1205 2759 
Q 947 2416 947 1791 
Q 947 1169 1205 825 
Q 1463 481 1925 481 
Q 2391 481 2648 825 
Q 2906 1169 2906 1791 
z
M 3481 434 
Q 3481 -459 3084 -895 
Q 2688 -1331 1869 -1331 
Q 1566 -1331 1297 -1286 
Q 1028 -1241 775 -1147 
L 775 -588 
Q 1028 -725 1275 -790 
Q 1522 -856 1778 -856 
Q 2344 -856 2625 -561 
Q 2906 -266 2906 331 
L 2906 616 
Q 2728 306 2450 153 
Q 2172 0 1784 0 
Q 1141 0 747 490 
Q 353 981 353 1791 
Q 353 2603 747 3093 
Q 1141 3584 1784 3584 
Q 2172 3584 2450 3431 
Q 2728 3278 2906 2969 
L 2906 3500 
L 3481 3500 
L 3481 434 
z
" id="DejaVuSans-67" transform="scale(0.015625)"/>
      <path id="DejaVuSans-20" transform="scale(0.015625)"/>
      <path d="M 2906 2969 
L 2906 4863 
L 3481 4863 
L 3481 0 
L 2906 0 
L 2906 525 
Q 2725 213 2448 61 
Q 2172 -91 1784 -91 
Q 1150 -91 751 415 
Q 353 922 353 1747 
Q 353 2572 751 3078 
Q 1150 3584 1784 3584 
Q 2172 3584 2448 3432 
Q 2725 3281 2906 2969 
z
M 947 1747 
Q 947 1113 1208 752 
Q 1469 391 1925 391 
Q 2381 391 2643 752 
Q 2906 1113 2906 1747 
Q 2906 2381 2643 2742 
Q 2381 3103 1925 3103 
Q 1469 3103 1208 2742 
Q 947 2381 947 1747 
z
" id="DejaVuSans-64" transform="scale(0.015625)"/>
      <path d="M 1831 0 
L 50 4666 
L 709 4666 
L 2188 738 
L 3669 4666 
L 4325 4666 
L 2547 0 
L 1831 0 
z
" id="DejaVuSans-56" transform="scale(0.015625)"/>
      <path d="M 603 4863 
L 1178 4863 
L 1178 0 
L 603 0 
L 603 4863 
z
" id="DejaVuSans-6c" transform="scale(0.015625)"/>
      <path d="M 1172 4494 
L 1172 3500 
L 2356 3500 
L 2356 3053 
L 1172 3053 
L 1172 1153 
Q 1172 725 1289 603 
Q 1406 481 1766 481 
L 2356 481 
L 2356 0 
L 1766 0 
Q 1100 0 847 248 
Q 594 497 594 1153 
L 594 3053 
L 172 3053 
L 172 3500 
L 594 3500 
L 594 4494 
L 1172 4494 
z
" id="DejaVuSans-74" transform="scale(0.015625)"/>
     </defs>
     <use xlink:href="#DejaVuSans-54"/>
     <use x="46.333984" xlink:href="#DejaVuSans-72"/>
     <use x="87.447266" xlink:href="#DejaVuSans-61"/>
     <use x="148.726562" xlink:href="#DejaVuSans-69"/>
     <use x="176.509766" xlink:href="#DejaVuSans-6e"/>
     <use x="239.888672" xlink:href="#DejaVuSans-69"/>
     <use x="267.671875" xlink:href="#DejaVuSans-6e"/>
     <use x="331.050781" xlink:href="#DejaVuSans-67"/>
     <use x="394.527344" xlink:href="#DejaVuSans-20"/>
     <use x="426.314453" xlink:href="#DejaVuSans-61"/>
     <use x="487.59375" xlink:href="#DejaVuSans-6e"/>
     <use x="550.972656" xlink:href="#DejaVuSans-64"/>
     <use x="614.449219" xlink:href="#DejaVuSans-20"/>
     <use x="646.236328" xlink:href="#DejaVuSans-56"/>
     <use x="706.894531" xlink:href="#DejaVuSans-61"/>
     <use x="768.173828" xlink:href="#DejaVuSans-6c"/>
     <use x="795.957031" xlink:href="#DejaVuSans-69"/>
     <use x="823.740234" xlink:href="#DejaVuSans-64"/>
     <use x="887.216797" xlink:href="#DejaVuSans-61"/>
     <use x="948.496094" xlink:href="#DejaVuSans-74"/>
     <use x="987.705078" xlink:href="#DejaVuSans-69"/>
     <use x="1015.488281" xlink:href="#DejaVuSans-6f"/>
     <use x="1076.669922" xlink:href="#DejaVuSans-6e"/>
     <use x="1140.048828" xlink:href="#DejaVuSans-20"/>
     <use x="1171.835938" xlink:href="#DejaVuSans-41"/>
     <use x="1238.494141" xlink:href="#DejaVuSans-63"/>
     <use x="1293.474609" xlink:href="#DejaVuSans-63"/>
     <use x="1348.455078" xlink:href="#DejaVuSans-75"/>
     <use x="1411.833984" xlink:href="#DejaVuSans-72"/>
     <use x="1452.947266" xlink:href="#DejaVuSans-61"/>
     <use x="1514.226562" xlink:href="#DejaVuSans-63"/>
     <use x="1569.207031" xlink:href="#DejaVuSans-79"/>
    </g>
   </g>
   <g id="legend_1">
    <g id="patch_7">
     <path d="M 277.504375 302.584 
L 407.72 302.584 
Q 409.72 302.584 409.72 300.584 
L 409.72 272.22775 
Q 409.72 270.22775 407.72 270.22775 
L 277.504375 270.22775 
Q 275.504375 270.22775 275.504375 272.22775 
L 275.504375 300.584 
Q 275.504375 302.584 277.504375 302.584 
z
" style="fill:#ffffff;opacity:0.8;stroke:#cccccc;stroke-linejoin:miter;"/>
    </g>
    <g id="line2d_21">
     <path d="M 279.504375 278.326187 
L 299.504375 278.326187 
" style="fill:none;stroke:#1f77b4;stroke-linecap:square;stroke-width:1.5;"/>
    </g>
    <g id="line2d_22"/>
    <g id="text_22">
     <!-- Train Accuracy -->
     <g transform="translate(307.504375 281.826187)scale(0.1 -0.1)">
      <use xlink:href="#DejaVuSans-54"/>
      <use x="46.333984" xlink:href="#DejaVuSans-72"/>
      <use x="87.447266" xlink:href="#DejaVuSans-61"/>
      <use x="148.726562" xlink:href="#DejaVuSans-69"/>
      <use x="176.509766" xlink:href="#DejaVuSans-6e"/>
      <use x="239.888672" xlink:href="#DejaVuSans-20"/>
      <use x="271.675781" xlink:href="#DejaVuSans-41"/>
      <use x="338.333984" xlink:href="#DejaVuSans-63"/>
      <use x="393.314453" xlink:href="#DejaVuSans-63"/>
      <use x="448.294922" xlink:href="#DejaVuSans-75"/>
      <use x="511.673828" xlink:href="#DejaVuSans-72"/>
      <use x="552.787109" xlink:href="#DejaVuSans-61"/>
      <use x="614.066406" xlink:href="#DejaVuSans-63"/>
      <use x="669.046875" xlink:href="#DejaVuSans-79"/>
     </g>
    </g>
    <g id="line2d_23">
     <path d="M 279.504375 293.004312 
L 299.504375 293.004312 
" style="fill:none;stroke:#ff7f0e;stroke-linecap:square;stroke-width:1.5;"/>
    </g>
    <g id="line2d_24"/>
    <g id="text_23">
     <!-- Validation Accuracy -->
     <g transform="translate(307.504375 296.504312)scale(0.1 -0.1)">
      <use xlink:href="#DejaVuSans-56"/>
      <use x="60.658203" xlink:href="#DejaVuSans-61"/>
      <use x="121.9375" xlink:href="#DejaVuSans-6c"/>
      <use x="149.720703" xlink:href="#DejaVuSans-69"/>
      <use x="177.503906" xlink:href="#DejaVuSans-64"/>
      <use x="240.980469" xlink:href="#DejaVuSans-61"/>
      <use x="302.259766" xlink:href="#DejaVuSans-74"/>
      <use x="341.46875" xlink:href="#DejaVuSans-69"/>
      <use x="369.251953" xlink:href="#DejaVuSans-6f"/>
      <use x="430.433594" xlink:href="#DejaVuSans-6e"/>
      <use x="493.8125" xlink:href="#DejaVuSans-20"/>
      <use x="525.599609" xlink:href="#DejaVuSans-41"/>
      <use x="592.257812" xlink:href="#DejaVuSans-63"/>
      <use x="647.238281" xlink:href="#DejaVuSans-63"/>
      <use x="702.21875" xlink:href="#DejaVuSans-75"/>
      <use x="765.597656" xlink:href="#DejaVuSans-72"/>
      <use x="806.710938" xlink:href="#DejaVuSans-61"/>
      <use x="867.990234" xlink:href="#DejaVuSans-63"/>
      <use x="922.970703" xlink:href="#DejaVuSans-79"/>
     </g>
    </g>
   </g>
  </g>
 </g>
 <defs>
  <clipPath id="pf4979a935f">
   <rect height="266.112" width="357.12" x="57.6" y="41.472"/>
  </clipPath>
 </defs>
</svg>
