<?xml version="1.0" encoding="utf-8" standalone="no"?>
<!DOCTYPE svg PUBLIC "-//W3C//DTD SVG 1.1//EN"
  "http://www.w3.org/Graphics/SVG/1.1/DTD/svg11.dtd">
<svg height="345.6pt" version="1.1" viewBox="0 0 460.8 345.6" width="460.8pt" xmlns="http://www.w3.org/2000/svg" xmlns:xlink="http://www.w3.org/1999/xlink">
 <metadata>
  <rdf:RDF xmlns:cc="http://creativecommons.org/ns#" xmlns:dc="http://purl.org/dc/elements/1.1/" xmlns:rdf="http://www.w3.org/1999/02/22-rdf-syntax-ns#">
   <cc:Work>
    <dc:type rdf:resource="http://purl.org/dc/dcmitype/StillImage"/>
    <dc:date>2023-08-01T00:00:03.786511</dc:date>
    <dc:format>image/svg+xml</dc:format>
    <dc:creator>
     <cc:Agent>
      <dc:title>Matplotlib v3.4.3, https://matplotlib.org/</dc:title>
     </cc:Agent>
    </dc:creator>
   </cc:Work>
  </rdf:RDF>
 </metadata>
 <defs>
  <style type="text/css">*{stroke-linecap:butt;stroke-linejoin:round;}</style>
 </defs>
 <g id="figure_1">
  <g id="patch_1">
   <path d="M 0 345.6 
L 460.8 345.6 
L 460.8 0 
L 0 0 
z
" style="fill:#ffffff;"/>
  </g>
  <g id="axes_1">
   <g id="patch_2">
    <path d="M 57.6 307.584 
L 414.72 307.584 
L 414.72 41.472 
L 57.6 41.472 
z
" style="fill:#ffffff;"/>
   </g>
   <g id="matplotlib.axis_1">
    <g id="xtick_1">
     <g id="line2d_1">
      <defs>
       <path d="M 0 0 
L 0 3.5 
" id="m2ca0278926" style="stroke:#000000;stroke-width:0.8;"/>
      </defs>
      <g>
       <use style="stroke:#000000;stroke-width:0.8;" x="73.832727" xlink:href="#m2ca0278926" y="307.584"/>
      </g>
     </g>
     <g id="text_1">
      <!-- 1 -->
      <g transform="translate(70.651477 322.182437)scale(0.1 -0.1)">
       <defs>
        <path d="M 794 531 
L 1825 531 
L 1825 4091 
L 703 3866 
L 703 4441 
L 1819 4666 
L 2450 4666 
L 2450 531 
L 3481 531 
L 3481 0 
L 794 0 
L 794 531 
z
" id="DejaVuSans-31" transform="scale(0.015625)"/>
       </defs>
       <use xlink:href="#DejaVuSans-31"/>
      </g>
     </g>
    </g>
    <g id="xtick_2">
     <g id="line2d_2">
      <g>
       <use style="stroke:#000000;stroke-width:0.8;" x="109.555234" xlink:href="#m2ca0278926" y="307.584"/>
      </g>
     </g>
     <g id="text_2">
      <!-- 35 -->
      <g transform="translate(103.192734 322.182437)scale(0.1 -0.1)">
       <defs>
        <path d="M 2597 2516 
Q 3050 2419 3304 2112 
Q 3559 1806 3559 1356 
Q 3559 666 3084 287 
Q 2609 -91 1734 -91 
Q 1441 -91 1130 -33 
Q 819 25 488 141 
L 488 750 
Q 750 597 1062 519 
Q 1375 441 1716 441 
Q 2309 441 2620 675 
Q 2931 909 2931 1356 
Q 2931 1769 2642 2001 
Q 2353 2234 1838 2234 
L 1294 2234 
L 1294 2753 
L 1863 2753 
Q 2328 2753 2575 2939 
Q 2822 3125 2822 3475 
Q 2822 3834 2567 4026 
Q 2313 4219 1838 4219 
Q 1578 4219 1281 4162 
Q 984 4106 628 3988 
L 628 4550 
Q 988 4650 1302 4700 
Q 1616 4750 1894 4750 
Q 2613 4750 3031 4423 
Q 3450 4097 3450 3541 
Q 3450 3153 3228 2886 
Q 3006 2619 2597 2516 
z
" id="DejaVuSans-33" transform="scale(0.015625)"/>
        <path d="M 691 4666 
L 3169 4666 
L 3169 4134 
L 1269 4134 
L 1269 2991 
Q 1406 3038 1543 3061 
Q 1681 3084 1819 3084 
Q 2600 3084 3056 2656 
Q 3513 2228 3513 1497 
Q 3513 744 3044 326 
Q 2575 -91 1722 -91 
Q 1428 -91 1123 -41 
Q 819 9 494 109 
L 494 744 
Q 775 591 1075 516 
Q 1375 441 1709 441 
Q 2250 441 2565 725 
Q 2881 1009 2881 1497 
Q 2881 1984 2565 2268 
Q 2250 2553 1709 2553 
Q 1456 2553 1204 2497 
Q 953 2441 691 2322 
L 691 4666 
z
" id="DejaVuSans-35" transform="scale(0.015625)"/>
       </defs>
       <use xlink:href="#DejaVuSans-33"/>
       <use x="63.623047" xlink:href="#DejaVuSans-35"/>
      </g>
     </g>
    </g>
    <g id="xtick_3">
     <g id="line2d_3">
      <g>
       <use style="stroke:#000000;stroke-width:0.8;" x="145.277741" xlink:href="#m2ca0278926" y="307.584"/>
      </g>
     </g>
     <g id="text_3">
      <!-- 69 -->
      <g transform="translate(138.915241 322.182437)scale(0.1 -0.1)">
       <defs>
        <path d="M 2113 2584 
Q 1688 2584 1439 2293 
Q 1191 2003 1191 1497 
Q 1191 994 1439 701 
Q 1688 409 2113 409 
Q 2538 409 2786 701 
Q 3034 994 3034 1497 
Q 3034 2003 2786 2293 
Q 2538 2584 2113 2584 
z
M 3366 4563 
L 3366 3988 
Q 3128 4100 2886 4159 
Q 2644 4219 2406 4219 
Q 1781 4219 1451 3797 
Q 1122 3375 1075 2522 
Q 1259 2794 1537 2939 
Q 1816 3084 2150 3084 
Q 2853 3084 3261 2657 
Q 3669 2231 3669 1497 
Q 3669 778 3244 343 
Q 2819 -91 2113 -91 
Q 1303 -91 875 529 
Q 447 1150 447 2328 
Q 447 3434 972 4092 
Q 1497 4750 2381 4750 
Q 2619 4750 2861 4703 
Q 3103 4656 3366 4563 
z
" id="DejaVuSans-36" transform="scale(0.015625)"/>
        <path d="M 703 97 
L 703 672 
Q 941 559 1184 500 
Q 1428 441 1663 441 
Q 2288 441 2617 861 
Q 2947 1281 2994 2138 
Q 2813 1869 2534 1725 
Q 2256 1581 1919 1581 
Q 1219 1581 811 2004 
Q 403 2428 403 3163 
Q 403 3881 828 4315 
Q 1253 4750 1959 4750 
Q 2769 4750 3195 4129 
Q 3622 3509 3622 2328 
Q 3622 1225 3098 567 
Q 2575 -91 1691 -91 
Q 1453 -91 1209 -44 
Q 966 3 703 97 
z
M 1959 2075 
Q 2384 2075 2632 2365 
Q 2881 2656 2881 3163 
Q 2881 3666 2632 3958 
Q 2384 4250 1959 4250 
Q 1534 4250 1286 3958 
Q 1038 3666 1038 3163 
Q 1038 2656 1286 2365 
Q 1534 2075 1959 2075 
z
" id="DejaVuSans-39" transform="scale(0.015625)"/>
       </defs>
       <use xlink:href="#DejaVuSans-36"/>
       <use x="63.623047" xlink:href="#DejaVuSans-39"/>
      </g>
     </g>
    </g>
    <g id="xtick_4">
     <g id="line2d_4">
      <g>
       <use style="stroke:#000000;stroke-width:0.8;" x="182.050909" xlink:href="#m2ca0278926" y="307.584"/>
      </g>
     </g>
     <g id="text_4">
      <!-- 104 -->
      <g transform="translate(172.507159 322.182437)scale(0.1 -0.1)">
       <defs>
        <path d="M 2034 4250 
Q 1547 4250 1301 3770 
Q 1056 3291 1056 2328 
Q 1056 1369 1301 889 
Q 1547 409 2034 409 
Q 2525 409 2770 889 
Q 3016 1369 3016 2328 
Q 3016 3291 2770 3770 
Q 2525 4250 2034 4250 
z
M 2034 4750 
Q 2819 4750 3233 4129 
Q 3647 3509 3647 2328 
Q 3647 1150 3233 529 
Q 2819 -91 2034 -91 
Q 1250 -91 836 529 
Q 422 1150 422 2328 
Q 422 3509 836 4129 
Q 1250 4750 2034 4750 
z
" id="DejaVuSans-30" transform="scale(0.015625)"/>
        <path d="M 2419 4116 
L 825 1625 
L 2419 1625 
L 2419 4116 
z
M 2253 4666 
L 3047 4666 
L 3047 1625 
L 3713 1625 
L 3713 1100 
L 3047 1100 
L 3047 0 
L 2419 0 
L 2419 1100 
L 313 1100 
L 313 1709 
L 2253 4666 
z
" id="DejaVuSans-34" transform="scale(0.015625)"/>
       </defs>
       <use xlink:href="#DejaVuSans-31"/>
       <use x="63.623047" xlink:href="#DejaVuSans-30"/>
       <use x="127.246094" xlink:href="#DejaVuSans-34"/>
      </g>
     </g>
    </g>
    <g id="xtick_5">
     <g id="line2d_5">
      <g>
       <use style="stroke:#000000;stroke-width:0.8;" x="217.773416" xlink:href="#m2ca0278926" y="307.584"/>
      </g>
     </g>
     <g id="text_5">
      <!-- 138 -->
      <g transform="translate(208.229666 322.182437)scale(0.1 -0.1)">
       <defs>
        <path d="M 2034 2216 
Q 1584 2216 1326 1975 
Q 1069 1734 1069 1313 
Q 1069 891 1326 650 
Q 1584 409 2034 409 
Q 2484 409 2743 651 
Q 3003 894 3003 1313 
Q 3003 1734 2745 1975 
Q 2488 2216 2034 2216 
z
M 1403 2484 
Q 997 2584 770 2862 
Q 544 3141 544 3541 
Q 544 4100 942 4425 
Q 1341 4750 2034 4750 
Q 2731 4750 3128 4425 
Q 3525 4100 3525 3541 
Q 3525 3141 3298 2862 
Q 3072 2584 2669 2484 
Q 3125 2378 3379 2068 
Q 3634 1759 3634 1313 
Q 3634 634 3220 271 
Q 2806 -91 2034 -91 
Q 1263 -91 848 271 
Q 434 634 434 1313 
Q 434 1759 690 2068 
Q 947 2378 1403 2484 
z
M 1172 3481 
Q 1172 3119 1398 2916 
Q 1625 2713 2034 2713 
Q 2441 2713 2670 2916 
Q 2900 3119 2900 3481 
Q 2900 3844 2670 4047 
Q 2441 4250 2034 4250 
Q 1625 4250 1398 4047 
Q 1172 3844 1172 3481 
z
" id="DejaVuSans-38" transform="scale(0.015625)"/>
       </defs>
       <use xlink:href="#DejaVuSans-31"/>
       <use x="63.623047" xlink:href="#DejaVuSans-33"/>
       <use x="127.246094" xlink:href="#DejaVuSans-38"/>
      </g>
     </g>
    </g>
    <g id="xtick_6">
     <g id="line2d_6">
      <g>
       <use style="stroke:#000000;stroke-width:0.8;" x="253.495922" xlink:href="#m2ca0278926" y="307.584"/>
      </g>
     </g>
     <g id="text_6">
      <!-- 172 -->
      <g transform="translate(243.952172 322.182437)scale(0.1 -0.1)">
       <defs>
        <path d="M 525 4666 
L 3525 4666 
L 3525 4397 
L 1831 0 
L 1172 0 
L 2766 4134 
L 525 4134 
L 525 4666 
z
" id="DejaVuSans-37" transform="scale(0.015625)"/>
        <path d="M 1228 531 
L 3431 531 
L 3431 0 
L 469 0 
L 469 531 
Q 828 903 1448 1529 
Q 2069 2156 2228 2338 
Q 2531 2678 2651 2914 
Q 2772 3150 2772 3378 
Q 2772 3750 2511 3984 
Q 2250 4219 1831 4219 
Q 1534 4219 1204 4116 
Q 875 4013 500 3803 
L 500 4441 
Q 881 4594 1212 4672 
Q 1544 4750 1819 4750 
Q 2544 4750 2975 4387 
Q 3406 4025 3406 3419 
Q 3406 3131 3298 2873 
Q 3191 2616 2906 2266 
Q 2828 2175 2409 1742 
Q 1991 1309 1228 531 
z
" id="DejaVuSans-32" transform="scale(0.015625)"/>
       </defs>
       <use xlink:href="#DejaVuSans-31"/>
       <use x="63.623047" xlink:href="#DejaVuSans-37"/>
       <use x="127.246094" xlink:href="#DejaVuSans-32"/>
      </g>
     </g>
    </g>
    <g id="xtick_7">
     <g id="line2d_7">
      <g>
       <use style="stroke:#000000;stroke-width:0.8;" x="290.269091" xlink:href="#m2ca0278926" y="307.584"/>
      </g>
     </g>
     <g id="text_7">
      <!-- 207 -->
      <g transform="translate(280.725341 322.182437)scale(0.1 -0.1)">
       <use xlink:href="#DejaVuSans-32"/>
       <use x="63.623047" xlink:href="#DejaVuSans-30"/>
       <use x="127.246094" xlink:href="#DejaVuSans-37"/>
      </g>
     </g>
    </g>
    <g id="xtick_8">
     <g id="line2d_8">
      <g>
       <use style="stroke:#000000;stroke-width:0.8;" x="325.991598" xlink:href="#m2ca0278926" y="307.584"/>
      </g>
     </g>
     <g id="text_8">
      <!-- 241 -->
      <g transform="translate(316.447848 322.182437)scale(0.1 -0.1)">
       <use xlink:href="#DejaVuSans-32"/>
       <use x="63.623047" xlink:href="#DejaVuSans-34"/>
       <use x="127.246094" xlink:href="#DejaVuSans-31"/>
      </g>
     </g>
    </g>
    <g id="xtick_9">
     <g id="line2d_9">
      <g>
       <use style="stroke:#000000;stroke-width:0.8;" x="361.714104" xlink:href="#m2ca0278926" y="307.584"/>
      </g>
     </g>
     <g id="text_9">
      <!-- 275 -->
      <g transform="translate(352.170354 322.182437)scale(0.1 -0.1)">
       <use xlink:href="#DejaVuSans-32"/>
       <use x="63.623047" xlink:href="#DejaVuSans-37"/>
       <use x="127.246094" xlink:href="#DejaVuSans-35"/>
      </g>
     </g>
    </g>
    <g id="xtick_10">
     <g id="line2d_10">
      <g>
       <use style="stroke:#000000;stroke-width:0.8;" x="398.487273" xlink:href="#m2ca0278926" y="307.584"/>
      </g>
     </g>
     <g id="text_10">
      <!-- 310 -->
      <g transform="translate(388.943523 322.182437)scale(0.1 -0.1)">
       <use xlink:href="#DejaVuSans-33"/>
       <use x="63.623047" xlink:href="#DejaVuSans-31"/>
       <use x="127.246094" xlink:href="#DejaVuSans-30"/>
      </g>
     </g>
    </g>
    <g id="text_11">
     <!-- Epochs -->
     <g transform="translate(218.244375 335.860562)scale(0.1 -0.1)">
      <defs>
       <path d="M 628 4666 
L 3578 4666 
L 3578 4134 
L 1259 4134 
L 1259 2753 
L 3481 2753 
L 3481 2222 
L 1259 2222 
L 1259 531 
L 3634 531 
L 3634 0 
L 628 0 
L 628 4666 
z
" id="DejaVuSans-45" transform="scale(0.015625)"/>
       <path d="M 1159 525 
L 1159 -1331 
L 581 -1331 
L 581 3500 
L 1159 3500 
L 1159 2969 
Q 1341 3281 1617 3432 
Q 1894 3584 2278 3584 
Q 2916 3584 3314 3078 
Q 3713 2572 3713 1747 
Q 3713 922 3314 415 
Q 2916 -91 2278 -91 
Q 1894 -91 1617 61 
Q 1341 213 1159 525 
z
M 3116 1747 
Q 3116 2381 2855 2742 
Q 2594 3103 2138 3103 
Q 1681 3103 1420 2742 
Q 1159 2381 1159 1747 
Q 1159 1113 1420 752 
Q 1681 391 2138 391 
Q 2594 391 2855 752 
Q 3116 1113 3116 1747 
z
" id="DejaVuSans-70" transform="scale(0.015625)"/>
       <path d="M 1959 3097 
Q 1497 3097 1228 2736 
Q 959 2375 959 1747 
Q 959 1119 1226 758 
Q 1494 397 1959 397 
Q 2419 397 2687 759 
Q 2956 1122 2956 1747 
Q 2956 2369 2687 2733 
Q 2419 3097 1959 3097 
z
M 1959 3584 
Q 2709 3584 3137 3096 
Q 3566 2609 3566 1747 
Q 3566 888 3137 398 
Q 2709 -91 1959 -91 
Q 1206 -91 779 398 
Q 353 888 353 1747 
Q 353 2609 779 3096 
Q 1206 3584 1959 3584 
z
" id="DejaVuSans-6f" transform="scale(0.015625)"/>
       <path d="M 3122 3366 
L 3122 2828 
Q 2878 2963 2633 3030 
Q 2388 3097 2138 3097 
Q 1578 3097 1268 2742 
Q 959 2388 959 1747 
Q 959 1106 1268 751 
Q 1578 397 2138 397 
Q 2388 397 2633 464 
Q 2878 531 3122 666 
L 3122 134 
Q 2881 22 2623 -34 
Q 2366 -91 2075 -91 
Q 1284 -91 818 406 
Q 353 903 353 1747 
Q 353 2603 823 3093 
Q 1294 3584 2113 3584 
Q 2378 3584 2631 3529 
Q 2884 3475 3122 3366 
z
" id="DejaVuSans-63" transform="scale(0.015625)"/>
       <path d="M 3513 2113 
L 3513 0 
L 2938 0 
L 2938 2094 
Q 2938 2591 2744 2837 
Q 2550 3084 2163 3084 
Q 1697 3084 1428 2787 
Q 1159 2491 1159 1978 
L 1159 0 
L 581 0 
L 581 4863 
L 1159 4863 
L 1159 2956 
Q 1366 3272 1645 3428 
Q 1925 3584 2291 3584 
Q 2894 3584 3203 3211 
Q 3513 2838 3513 2113 
z
" id="DejaVuSans-68" transform="scale(0.015625)"/>
       <path d="M 2834 3397 
L 2834 2853 
Q 2591 2978 2328 3040 
Q 2066 3103 1784 3103 
Q 1356 3103 1142 2972 
Q 928 2841 928 2578 
Q 928 2378 1081 2264 
Q 1234 2150 1697 2047 
L 1894 2003 
Q 2506 1872 2764 1633 
Q 3022 1394 3022 966 
Q 3022 478 2636 193 
Q 2250 -91 1575 -91 
Q 1294 -91 989 -36 
Q 684 19 347 128 
L 347 722 
Q 666 556 975 473 
Q 1284 391 1588 391 
Q 1994 391 2212 530 
Q 2431 669 2431 922 
Q 2431 1156 2273 1281 
Q 2116 1406 1581 1522 
L 1381 1569 
Q 847 1681 609 1914 
Q 372 2147 372 2553 
Q 372 3047 722 3315 
Q 1072 3584 1716 3584 
Q 2034 3584 2315 3537 
Q 2597 3491 2834 3397 
z
" id="DejaVuSans-73" transform="scale(0.015625)"/>
      </defs>
      <use xlink:href="#DejaVuSans-45"/>
      <use x="63.183594" xlink:href="#DejaVuSans-70"/>
      <use x="126.660156" xlink:href="#DejaVuSans-6f"/>
      <use x="187.841797" xlink:href="#DejaVuSans-63"/>
      <use x="242.822266" xlink:href="#DejaVuSans-68"/>
      <use x="306.201172" xlink:href="#DejaVuSans-73"/>
     </g>
    </g>
   </g>
   <g id="matplotlib.axis_2">
    <g id="ytick_1">
     <g id="line2d_11">
      <defs>
       <path d="M 0 0 
L -3.5 0 
" id="m45a1f460c9" style="stroke:#000000;stroke-width:0.8;"/>
      </defs>
      <g>
       <use style="stroke:#000000;stroke-width:0.8;" x="57.6" xlink:href="#m45a1f460c9" y="304.65208"/>
      </g>
     </g>
     <g id="text_12">
      <!-- 20 -->
      <g transform="translate(37.875 308.451299)scale(0.1 -0.1)">
       <use xlink:href="#DejaVuSans-32"/>
       <use x="63.623047" xlink:href="#DejaVuSans-30"/>
      </g>
     </g>
    </g>
    <g id="ytick_2">
     <g id="line2d_12">
      <g>
       <use style="stroke:#000000;stroke-width:0.8;" x="57.6" xlink:href="#m45a1f460c9" y="272.086052"/>
      </g>
     </g>
     <g id="text_13">
      <!-- 30 -->
      <g transform="translate(37.875 275.885271)scale(0.1 -0.1)">
       <use xlink:href="#DejaVuSans-33"/>
       <use x="63.623047" xlink:href="#DejaVuSans-30"/>
      </g>
     </g>
    </g>
    <g id="ytick_3">
     <g id="line2d_13">
      <g>
       <use style="stroke:#000000;stroke-width:0.8;" x="57.6" xlink:href="#m45a1f460c9" y="239.520023"/>
      </g>
     </g>
     <g id="text_14">
      <!-- 40 -->
      <g transform="translate(37.875 243.319242)scale(0.1 -0.1)">
       <use xlink:href="#DejaVuSans-34"/>
       <use x="63.623047" xlink:href="#DejaVuSans-30"/>
      </g>
     </g>
    </g>
    <g id="ytick_4">
     <g id="line2d_14">
      <g>
       <use style="stroke:#000000;stroke-width:0.8;" x="57.6" xlink:href="#m45a1f460c9" y="206.953995"/>
      </g>
     </g>
     <g id="text_15">
      <!-- 50 -->
      <g transform="translate(37.875 210.753213)scale(0.1 -0.1)">
       <use xlink:href="#DejaVuSans-35"/>
       <use x="63.623047" xlink:href="#DejaVuSans-30"/>
      </g>
     </g>
    </g>
    <g id="ytick_5">
     <g id="line2d_15">
      <g>
       <use style="stroke:#000000;stroke-width:0.8;" x="57.6" xlink:href="#m45a1f460c9" y="174.387966"/>
      </g>
     </g>
     <g id="text_16">
      <!-- 60 -->
      <g transform="translate(37.875 178.187185)scale(0.1 -0.1)">
       <use xlink:href="#DejaVuSans-36"/>
       <use x="63.623047" xlink:href="#DejaVuSans-30"/>
      </g>
     </g>
    </g>
    <g id="ytick_6">
     <g id="line2d_16">
      <g>
       <use style="stroke:#000000;stroke-width:0.8;" x="57.6" xlink:href="#m45a1f460c9" y="141.821937"/>
      </g>
     </g>
     <g id="text_17">
      <!-- 70 -->
      <g transform="translate(37.875 145.621156)scale(0.1 -0.1)">
       <use xlink:href="#DejaVuSans-37"/>
       <use x="63.623047" xlink:href="#DejaVuSans-30"/>
      </g>
     </g>
    </g>
    <g id="ytick_7">
     <g id="line2d_17">
      <g>
       <use style="stroke:#000000;stroke-width:0.8;" x="57.6" xlink:href="#m45a1f460c9" y="109.255909"/>
      </g>
     </g>
     <g id="text_18">
      <!-- 80 -->
      <g transform="translate(37.875 113.055128)scale(0.1 -0.1)">
       <use xlink:href="#DejaVuSans-38"/>
       <use x="63.623047" xlink:href="#DejaVuSans-30"/>
      </g>
     </g>
    </g>
    <g id="ytick_8">
     <g id="line2d_18">
      <g>
       <use style="stroke:#000000;stroke-width:0.8;" x="57.6" xlink:href="#m45a1f460c9" y="76.68988"/>
      </g>
     </g>
     <g id="text_19">
      <!-- 90 -->
      <g transform="translate(37.875 80.489099)scale(0.1 -0.1)">
       <use xlink:href="#DejaVuSans-39"/>
       <use x="63.623047" xlink:href="#DejaVuSans-30"/>
      </g>
     </g>
    </g>
    <g id="ytick_9">
     <g id="line2d_19">
      <g>
       <use style="stroke:#000000;stroke-width:0.8;" x="57.6" xlink:href="#m45a1f460c9" y="44.123852"/>
      </g>
     </g>
     <g id="text_20">
      <!-- 100 -->
      <g transform="translate(31.5125 47.92307)scale(0.1 -0.1)">
       <use xlink:href="#DejaVuSans-31"/>
       <use x="63.623047" xlink:href="#DejaVuSans-30"/>
       <use x="127.246094" xlink:href="#DejaVuSans-30"/>
      </g>
     </g>
    </g>
    <g id="text_21">
     <!-- Accuracy -->
     <g transform="translate(25.432812 197.356125)rotate(-90)scale(0.1 -0.1)">
      <defs>
       <path d="M 2188 4044 
L 1331 1722 
L 3047 1722 
L 2188 4044 
z
M 1831 4666 
L 2547 4666 
L 4325 0 
L 3669 0 
L 3244 1197 
L 1141 1197 
L 716 0 
L 50 0 
L 1831 4666 
z
" id="DejaVuSans-41" transform="scale(0.015625)"/>
       <path d="M 544 1381 
L 544 3500 
L 1119 3500 
L 1119 1403 
Q 1119 906 1312 657 
Q 1506 409 1894 409 
Q 2359 409 2629 706 
Q 2900 1003 2900 1516 
L 2900 3500 
L 3475 3500 
L 3475 0 
L 2900 0 
L 2900 538 
Q 2691 219 2414 64 
Q 2138 -91 1772 -91 
Q 1169 -91 856 284 
Q 544 659 544 1381 
z
M 1991 3584 
L 1991 3584 
z
" id="DejaVuSans-75" transform="scale(0.015625)"/>
       <path d="M 2631 2963 
Q 2534 3019 2420 3045 
Q 2306 3072 2169 3072 
Q 1681 3072 1420 2755 
Q 1159 2438 1159 1844 
L 1159 0 
L 581 0 
L 581 3500 
L 1159 3500 
L 1159 2956 
Q 1341 3275 1631 3429 
Q 1922 3584 2338 3584 
Q 2397 3584 2469 3576 
Q 2541 3569 2628 3553 
L 2631 2963 
z
" id="DejaVuSans-72" transform="scale(0.015625)"/>
       <path d="M 2194 1759 
Q 1497 1759 1228 1600 
Q 959 1441 959 1056 
Q 959 750 1161 570 
Q 1363 391 1709 391 
Q 2188 391 2477 730 
Q 2766 1069 2766 1631 
L 2766 1759 
L 2194 1759 
z
M 3341 1997 
L 3341 0 
L 2766 0 
L 2766 531 
Q 2569 213 2275 61 
Q 1981 -91 1556 -91 
Q 1019 -91 701 211 
Q 384 513 384 1019 
Q 384 1609 779 1909 
Q 1175 2209 1959 2209 
L 2766 2209 
L 2766 2266 
Q 2766 2663 2505 2880 
Q 2244 3097 1772 3097 
Q 1472 3097 1187 3025 
Q 903 2953 641 2809 
L 641 3341 
Q 956 3463 1253 3523 
Q 1550 3584 1831 3584 
Q 2591 3584 2966 3190 
Q 3341 2797 3341 1997 
z
" id="DejaVuSans-61" transform="scale(0.015625)"/>
       <path d="M 2059 -325 
Q 1816 -950 1584 -1140 
Q 1353 -1331 966 -1331 
L 506 -1331 
L 506 -850 
L 844 -850 
Q 1081 -850 1212 -737 
Q 1344 -625 1503 -206 
L 1606 56 
L 191 3500 
L 800 3500 
L 1894 763 
L 2988 3500 
L 3597 3500 
L 2059 -325 
z
" id="DejaVuSans-79" transform="scale(0.015625)"/>
      </defs>
      <use xlink:href="#DejaVuSans-41"/>
      <use x="66.658203" xlink:href="#DejaVuSans-63"/>
      <use x="121.638672" xlink:href="#DejaVuSans-63"/>
      <use x="176.619141" xlink:href="#DejaVuSans-75"/>
      <use x="239.998047" xlink:href="#DejaVuSans-72"/>
      <use x="281.111328" xlink:href="#DejaVuSans-61"/>
      <use x="342.390625" xlink:href="#DejaVuSans-63"/>
      <use x="397.371094" xlink:href="#DejaVuSans-79"/>
     </g>
    </g>
   </g>
   <g id="line2d_20">
    <path clip-path="url(#p159d56e10e)" d="M 73.832727 295.488 
L 74.883389 280.729076 
L 75.934051 255.451324 
L 78.035375 226.018148 
L 79.086037 218.163222 
L 80.136699 207.566236 
L 81.187361 203.12423 
L 82.238023 189.433471 
L 83.288685 190.840324 
L 84.339347 186.255027 
L 85.390009 205.638327 
L 86.440671 201.241913 
L 87.491333 199.952299 
L 88.541995 187.342732 
L 89.592657 188.528136 
L 90.643319 182.607632 
L 91.693981 180.992357 
L 92.744643 185.050084 
L 94.845966 164.409735 
L 95.896628 168.291606 
L 96.94729 166.89778 
L 97.997952 161.830505 
L 99.048614 162.08452 
L 100.099276 156.893496 
L 101.149938 156.014213 
L 102.2006 157.746725 
L 103.251262 156.672047 
L 104.301924 151.728523 
L 105.352586 155.11539 
L 106.403248 171.391891 
L 107.45391 167.835681 
L 108.504572 165.393229 
L 109.555234 164.68329 
L 110.605896 165.888233 
L 111.656558 162.169192 
L 112.70722 164.891712 
L 113.757882 159.05588 
L 114.808544 156.717639 
L 115.859206 160.104506 
L 116.909868 152.998598 
L 117.96053 157.219156 
L 119.011192 145.76894 
L 120.061853 155.734145 
L 121.112515 152.790176 
L 122.163177 152.92044 
L 123.213839 151.520101 
L 124.264501 146.47888 
L 125.315163 151.057663 
L 126.365825 147.188819 
L 127.416487 141.939175 
L 128.467149 140.884036 
L 129.517811 140.942655 
L 130.568473 131.192386 
L 131.619135 144.909197 
L 132.669797 139.920081 
L 133.720459 140.675613 
L 134.771121 139.640014 
L 135.821783 131.583178 
L 136.872445 134.807215 
L 137.923107 131.967457 
L 138.973769 127.036961 
L 140.024431 134.162408 
L 141.075093 122.731732 
L 142.125755 127.655715 
L 143.176417 127.623149 
L 144.227079 132.052129 
L 145.277741 131.785087 
L 146.328402 132.449434 
L 147.379064 127.349594 
L 148.429726 147.338623 
L 149.480388 152.210501 
L 150.53105 149.624758 
L 151.581712 147.4754 
L 152.632374 143.528397 
L 153.683036 149.305611 
L 154.733698 148.139747 
L 156.835022 140.004753 
L 157.885684 145.306503 
L 158.936346 138.643493 
L 159.987008 142.890103 
L 161.03767 145.339069 
L 162.088332 141.613515 
L 163.138994 140.910089 
L 164.189656 146.511446 
L 165.240318 139.626987 
L 166.29098 145.163212 
L 167.341642 136.044724 
L 168.392304 135.484588 
L 169.442966 137.386444 
L 170.493628 130.886265 
L 171.544289 132.397329 
L 172.594951 138.78027 
L 173.645613 133.947472 
L 174.696275 141.411606 
L 175.746937 131.596205 
L 176.797599 134.8984 
L 177.848261 133.595759 
L 178.898923 134.064709 
L 179.949585 132.052129 
L 181.000247 126.574523 
L 182.050909 133.387336 
L 184.152233 125.825504 
L 185.202895 124.522863 
L 186.253557 129.909284 
L 187.304219 121.995739 
L 188.354881 122.145543 
L 189.405543 126.196757 
L 190.456205 124.314441 
L 191.506867 125.096025 
L 192.557529 124.431678 
L 193.608191 125.069972 
L 194.658853 115.248058 
L 195.709515 118.810782 
L 196.760177 126.092546 
L 197.810838 122.594954 
L 198.8615 128.215851 
L 199.912162 116.589779 
L 200.962824 119.344865 
L 202.013486 117.683997 
L 203.064148 119.142955 
L 204.11481 120.152502 
L 205.165472 116.010103 
L 206.216134 113.124753 
L 207.266796 119.468615 
L 208.317458 114.857266 
L 209.36812 117.136888 
L 210.418782 112.44738 
L 211.469444 116.882873 
L 212.520106 112.421327 
L 213.570768 112.199878 
L 214.62143 110.793025 
L 215.672092 120.178555 
L 216.722754 105.921148 
L 217.773416 112.59067 
L 218.824078 117.723076 
L 219.87474 111.177305 
L 220.925402 112.037048 
L 221.976064 107.321487 
L 223.026726 110.793025 
L 224.077387 104.318899 
L 225.128049 121.227181 
L 226.178711 108.884656 
L 227.229373 108.435245 
L 228.280035 111.822112 
L 229.330697 110.688814 
L 230.381359 110.90375 
L 231.432021 110.343614 
L 232.482683 133.283125 
L 233.533345 130.000469 
L 234.584007 129.284016 
L 235.634669 135.523668 
L 237.735993 127.036961 
L 238.786655 125.317474 
L 239.837317 135.211034 
L 240.887979 124.718259 
L 241.938641 125.063459 
L 244.039965 133.999577 
L 245.090627 128.385194 
L 246.141289 127.870651 
L 247.191951 123.057392 
L 248.242613 126.509391 
L 249.293274 128.300522 
L 250.343936 131.270544 
L 251.394598 129.557571 
L 252.44526 136.572294 
L 253.495922 123.102984 
L 254.546584 123.343973 
L 255.597246 123.011799 
L 256.647908 123.487263 
L 257.69857 128.912764 
L 258.749232 122.334426 
L 259.799894 127.92927 
L 260.850556 116.993597 
L 261.901218 124.907142 
L 262.95188 128.320062 
L 264.002542 124.509837 
L 265.053204 125.219776 
L 266.103866 123.15509 
L 267.154528 125.753859 
L 269.255852 124.477271 
L 270.306514 120.243687 
L 271.357176 121.12297 
L 272.407838 120.243687 
L 273.4585 126.294455 
L 274.509162 123.728252 
L 275.559823 116.941492 
L 276.610485 122.523309 
L 277.661147 121.767777 
L 278.711809 126.958802 
L 280.813133 118.087816 
L 281.863795 120.178555 
L 282.914457 123.604501 
L 283.965119 125.082999 
L 285.015781 114.629304 
L 286.066443 127.955323 
L 287.117105 116.804714 
L 288.167767 121.943634 
L 289.218429 126.372614 
L 290.269091 112.948897 
L 291.319753 115.124307 
L 292.370415 128.469866 
L 293.421077 119.169008 
L 294.471739 116.941492 
L 295.522401 117.273665 
L 296.573063 122.412584 
L 298.674387 116.049182 
L 299.725049 116.654911 
L 300.775711 119.983159 
L 301.826372 114.727002 
L 302.877034 116.055696 
L 303.927696 115.143847 
L 304.978358 117.469061 
L 306.02902 115.31319 
L 307.079682 111.522504 
L 308.130344 115.606284 
L 309.181006 115.033122 
L 310.231668 107.751358 
L 311.28233 112.681855 
L 312.332992 111.307569 
L 313.383654 112.108693 
L 314.434316 118.921506 
L 315.484978 109.614135 
L 316.53564 110.871184 
L 317.586302 111.555071 
L 318.636964 107.888136 
L 319.687626 106.403125 
L 320.738288 109.549003 
L 321.78895 111.04704 
L 322.839612 117.599325 
L 323.890274 105.771344 
L 324.940936 108.441758 
L 325.991598 108.409192 
L 327.042259 112.440866 
L 328.092921 107.406158 
L 329.143583 103.60896 
L 330.194245 109.54249 
L 331.244907 106.201215 
L 332.295569 105.934174 
L 333.346231 113.092187 
L 334.396893 105.27634 
L 335.447555 104.572914 
L 336.498217 107.354053 
L 338.599541 108.168204 
L 339.650203 106.318453 
L 340.700865 107.875109 
L 341.751527 102.983692 
L 342.802189 104.286333 
L 343.852851 100.619398 
L 344.903513 110.845131 
L 345.954175 101.798288 
L 347.004837 106.097004 
L 348.055499 106.233781 
L 349.106161 104.273307 
L 350.156823 106.904642 
L 351.207485 107.16517 
L 352.258147 107.946755 
L 353.308808 94.770539 
L 355.410132 107.809977 
L 356.460794 103.029284 
L 357.511456 100.638938 
L 358.562118 93.402766 
L 359.61278 97.629837 
L 360.663442 100.19604 
L 361.714104 101.042756 
L 362.764766 105.790883 
L 363.815428 100.638938 
L 364.86609 106.246808 
L 365.916752 98.457014 
L 366.967414 102.058817 
L 368.018076 97.317203 
L 369.068738 99.538206 
L 370.1194 105.048378 
L 371.170062 98.958531 
L 372.220724 101.993685 
L 373.271386 101.615919 
L 374.322048 105.374038 
L 375.37271 97.017595 
L 376.423372 94.705407 
L 377.474034 95.56515 
L 378.524695 102.306318 
L 379.575357 94.340668 
L 381.676681 98.548199 
L 383.778005 100.912492 
L 384.828667 96.151339 
L 385.879329 101.811315 
L 386.929991 101.414009 
L 387.980653 103.791329 
L 389.031315 99.512153 
L 390.081977 94.379747 
L 391.132639 96.972003 
L 392.183301 100.150447 
L 393.233963 97.317203 
L 394.284625 94.093166 
L 395.335287 98.522146 
L 396.385949 97.304176 
L 397.436611 95.819165 
L 398.487273 102.071843 
L 398.487273 102.071843 
" style="fill:none;stroke:#1f77b4;stroke-linecap:square;stroke-width:1.5;"/>
   </g>
   <g id="line2d_21">
    <path clip-path="url(#p159d56e10e)" d="M 73.832727 241.050627 
L 76.984713 185.037057 
L 78.035375 190.50815 
L 79.086037 163.836573 
L 80.136699 149.377256 
L 81.187361 149.735482 
L 82.238023 139.086391 
L 83.288685 121.598434 
L 84.339347 117.36485 
L 85.390009 141.170617 
L 86.440671 144.75288 
L 87.491333 141.333447 
L 88.541995 133.84326 
L 89.592657 128.76296 
L 90.643319 110.167758 
L 91.693981 113.033568 
L 92.744643 112.642776 
L 93.795305 119.677038 
L 94.845966 101.53776 
L 95.896628 103.459156 
L 96.94729 90.888669 
L 97.997952 92.484404 
L 99.048614 92.51697 
L 100.099276 92.386706 
L 101.149938 90.009386 
L 102.2006 81.053728 
L 103.251262 81.411954 
L 104.301924 82.193539 
L 105.352586 82.095841 
L 106.403248 117.52768 
L 107.45391 101.993685 
L 108.504572 105.185155 
L 109.555234 97.27161 
L 110.605896 94.438366 
L 111.656558 112.77304 
L 112.70722 100.202553 
L 113.757882 94.08014 
L 114.808544 94.73146 
L 116.909868 88.120556 
L 119.011192 92.223876 
L 120.061853 93.721913 
L 121.112515 81.379388 
L 122.163177 77.178371 
L 123.213839 77.699427 
L 124.264501 80.695502 
L 125.315163 77.927389 
L 126.365825 77.341201 
L 127.416487 79.816219 
L 128.467149 78.220484 
L 129.517811 72.749391 
L 130.568473 71.186221 
L 131.619135 71.186221 
L 132.669797 71.642146 
L 133.720459 68.646071 
L 134.771121 69.916146 
L 135.821783 66.561845 
L 136.872445 67.864487 
L 137.923107 67.831921 
L 138.973769 67.01777 
L 140.024431 67.864487 
L 141.075093 65.226638 
L 142.125755 65.12894 
L 143.176417 64.738148 
L 144.227079 64.900978 
L 145.277741 64.607884 
L 146.328402 65.226638 
L 147.379064 64.738148 
L 148.429726 82.226105 
L 149.480388 84.766255 
L 150.53105 83.00769 
L 151.581712 79.034634 
L 152.632374 84.342897 
L 153.683036 78.350748 
L 154.733698 78.41588 
L 155.78436 82.421501 
L 156.835022 80.695502 
L 157.885684 88.804443 
L 158.936346 78.025087 
L 159.987008 78.41588 
L 161.03767 81.411954 
L 162.088332 70.958259 
L 163.138994 73.498409 
L 164.189656 70.274373 
L 165.240318 69.948712 
L 166.29098 69.785882 
L 167.341642 70.958259 
L 168.392304 68.580939 
L 169.442966 69.55792 
L 170.493628 71.153655 
L 171.544289 69.134562 
L 172.594951 68.092449 
L 173.645613 67.831921 
L 174.696275 70.241807 
L 175.746937 65.715129 
L 176.797599 68.352977 
L 177.848261 71.674712 
L 178.898923 66.69211 
L 179.949585 65.487166 
L 181.000247 65.617431 
L 182.050909 69.590486 
L 183.101571 64.705582 
L 184.152233 64.412488 
L 185.202895 63.305243 
L 187.304219 63.923997 
L 188.354881 64.054261 
L 189.405543 63.696035 
L 190.456205 64.673016 
L 191.506867 62.067733 
L 192.557529 61.058187 
L 193.608191 61.709507 
L 194.658853 61.709507 
L 195.709515 61.904903 
L 196.760177 62.653922 
L 197.810838 59.429885 
L 198.8615 61.709507 
L 199.912162 60.830224 
L 200.962824 61.383847 
L 202.013486 60.53713 
L 204.11481 59.788111 
L 205.165472 58.713433 
L 206.216134 58.713433 
L 207.266796 58.15981 
L 208.317458 59.169357 
L 209.36812 58.290074 
L 210.418782 58.224942 
L 211.469444 58.518036 
L 212.520106 57.215395 
L 213.570768 57.215395 
L 214.62143 56.954867 
L 216.722754 56.857169 
L 218.824078 56.792037 
L 219.87474 56.336112 
L 220.925402 56.596641 
L 221.976064 56.629207 
L 223.026726 56.173282 
L 224.077387 55.94532 
L 226.178711 56.303546 
L 227.229373 56.27098 
L 228.280035 55.94532 
L 229.330697 56.694339 
L 230.381359 56.238414 
L 231.432021 55.912754 
L 232.482683 74.345126 
L 233.533345 71.707278 
L 234.584007 72.912221 
L 235.634669 66.301317 
L 236.685331 68.027317 
L 237.735993 67.897053 
L 238.786655 70.990825 
L 239.837317 65.780261 
L 240.887979 67.050336 
L 241.938641 69.427656 
L 242.989303 66.69211 
L 245.090627 67.538826 
L 246.141289 64.021695 
L 247.191951 67.082902 
L 248.242613 66.040789 
L 249.293274 66.85494 
L 250.343936 63.533205 
L 251.394598 64.249657 
L 252.44526 62.523658 
L 253.495922 66.724676 
L 254.546584 64.868412 
L 255.597246 64.835846 
L 256.647908 63.142412 
L 257.69857 63.402941 
L 258.749232 65.226638 
L 259.799894 62.035167 
L 260.850556 66.85494 
L 262.95188 62.458526 
L 264.002542 61.676941 
L 265.053204 65.877959 
L 266.103866 61.025621 
L 267.154528 65.649997 
L 268.20519 62.979582 
L 269.255852 61.448979 
L 270.306514 62.816752 
L 271.357176 65.747695 
L 272.407838 62.979582 
L 273.4585 62.42596 
L 274.509162 60.732526 
L 275.559823 61.514111 
L 276.610485 61.448979 
L 277.661147 61.579243 
L 278.711809 60.04864 
L 279.762471 61.676941 
L 280.813133 60.927922 
L 281.863795 60.830224 
L 282.914457 62.42596 
L 283.965119 62.979582 
L 285.015781 60.178904 
L 287.117105 61.839771 
L 288.167767 59.983508 
L 289.218429 59.364753 
L 290.269091 60.927922 
L 291.319753 61.970035 
L 292.370415 60.016074 
L 294.471739 58.876263 
L 295.522401 59.690413 
L 296.573063 61.742073 
L 297.623725 59.820677 
L 299.725049 60.04864 
L 300.775711 58.550602 
L 301.826372 60.081206 
L 302.877034 57.964414 
L 303.927696 60.3743 
L 304.978358 58.387772 
L 306.02902 60.667394 
L 307.079682 59.201923 
L 308.130344 59.918376 
L 309.181006 57.573622 
L 310.231668 58.518036 
L 311.28233 57.83415 
L 312.332992 58.811131 
L 313.383654 57.443357 
L 314.434316 58.192376 
L 315.484978 58.192376 
L 316.53564 57.378225 
L 317.586302 57.117697 
L 318.636964 59.332187 
L 319.687626 60.244036 
L 320.738288 58.029546 
L 321.78895 57.769018 
L 323.890274 58.32264 
L 324.940936 57.508489 
L 325.991598 57.573622 
L 327.042259 57.99698 
L 328.092921 56.303546 
L 329.143583 57.378225 
L 330.194245 55.749924 
L 331.244907 57.150263 
L 332.295569 57.085131 
L 333.346231 56.466377 
L 334.396893 56.173282 
L 335.447555 57.019999 
L 336.498217 56.694339 
L 337.548879 58.094678 
L 338.599541 55.78249 
L 339.650203 58.062112 
L 340.700865 57.866716 
L 341.751527 56.498943 
L 342.802189 57.085131 
L 343.852851 55.78249 
L 344.903513 56.205848 
L 345.954175 55.228867 
L 347.004837 55.066037 
L 348.055499 55.847622 
L 349.106161 54.870641 
L 350.156823 54.577547 
L 351.207485 55.261433 
L 352.258147 55.424264 
L 353.308808 54.805509 
L 354.35947 54.870641 
L 356.460794 55.880188 
L 357.511456 55.652226 
L 359.61278 54.642679 
L 360.663442 54.642679 
L 361.714104 55.228867 
L 362.764766 55.261433 
L 363.815428 54.512415 
L 364.86609 55.000905 
L 365.916752 54.838075 
L 366.967414 54.805509 
L 368.018076 54.642679 
L 369.068738 54.023924 
L 370.1194 54.610113 
L 371.170062 54.838075 
L 372.220724 54.414717 
L 373.271386 54.121622 
L 374.322048 54.349585 
L 375.37271 54.870641 
L 376.423372 54.219321 
L 377.474034 54.382151 
L 379.575357 54.382151 
L 380.626019 54.089056 
L 381.676681 54.414717 
L 382.727343 53.568 
L 383.778005 54.121622 
L 384.828667 53.633132 
L 385.879329 53.958792 
L 387.980653 54.023924 
L 389.031315 53.600566 
L 392.183301 53.763396 
L 393.233963 53.600566 
L 394.284625 53.600566 
L 395.335287 53.763396 
L 396.385949 53.633132 
L 397.436611 53.698264 
L 398.487273 54.023924 
L 398.487273 54.023924 
" style="fill:none;stroke:#ff7f0e;stroke-linecap:square;stroke-width:1.5;"/>
   </g>
   <g id="patch_3">
    <path d="M 57.6 307.584 
L 57.6 41.472 
" style="fill:none;stroke:#000000;stroke-linecap:square;stroke-linejoin:miter;stroke-width:0.8;"/>
   </g>
   <g id="patch_4">
    <path d="M 414.72 307.584 
L 414.72 41.472 
" style="fill:none;stroke:#000000;stroke-linecap:square;stroke-linejoin:miter;stroke-width:0.8;"/>
   </g>
   <g id="patch_5">
    <path d="M 57.6 307.584 
L 414.72 307.584 
" style="fill:none;stroke:#000000;stroke-linecap:square;stroke-linejoin:miter;stroke-width:0.8;"/>
   </g>
   <g id="patch_6">
    <path d="M 57.6 41.472 
L 414.72 41.472 
" style="fill:none;stroke:#000000;stroke-linecap:square;stroke-linejoin:miter;stroke-width:0.8;"/>
   </g>
   <g id="text_22">
    <!-- Training and Validation Accuracy -->
    <g transform="translate(138.4575 35.472)scale(0.12 -0.12)">
     <defs>
      <path d="M -19 4666 
L 3928 4666 
L 3928 4134 
L 2272 4134 
L 2272 0 
L 1638 0 
L 1638 4134 
L -19 4134 
L -19 4666 
z
" id="DejaVuSans-54" transform="scale(0.015625)"/>
      <path d="M 603 3500 
L 1178 3500 
L 1178 0 
L 603 0 
L 603 3500 
z
M 603 4863 
L 1178 4863 
L 1178 4134 
L 603 4134 
L 603 4863 
z
" id="DejaVuSans-69" transform="scale(0.015625)"/>
      <path d="M 3513 2113 
L 3513 0 
L 2938 0 
L 2938 2094 
Q 2938 2591 2744 2837 
Q 2550 3084 2163 3084 
Q 1697 3084 1428 2787 
Q 1159 2491 1159 1978 
L 1159 0 
L 581 0 
L 581 3500 
L 1159 3500 
L 1159 2956 
Q 1366 3272 1645 3428 
Q 1925 3584 2291 3584 
Q 2894 3584 3203 3211 
Q 3513 2838 3513 2113 
z
" id="DejaVuSans-6e" transform="scale(0.015625)"/>
      <path d="M 2906 1791 
Q 2906 2416 2648 2759 
Q 2391 3103 1925 3103 
Q 1463 3103 1205 2759 
Q 947 2416 947 1791 
Q 947 1169 1205 825 
Q 1463 481 1925 481 
Q 2391 481 2648 825 
Q 2906 1169 2906 1791 
z
M 3481 434 
Q 3481 -459 3084 -895 
Q 2688 -1331 1869 -1331 
Q 1566 -1331 1297 -1286 
Q 1028 -1241 775 -1147 
L 775 -588 
Q 1028 -725 1275 -790 
Q 1522 -856 1778 -856 
Q 2344 -856 2625 -561 
Q 2906 -266 2906 331 
L 2906 616 
Q 2728 306 2450 153 
Q 2172 0 1784 0 
Q 1141 0 747 490 
Q 353 981 353 1791 
Q 353 2603 747 3093 
Q 1141 3584 1784 3584 
Q 2172 3584 2450 3431 
Q 2728 3278 2906 2969 
L 2906 3500 
L 3481 3500 
L 3481 434 
z
" id="DejaVuSans-67" transform="scale(0.015625)"/>
      <path id="DejaVuSans-20" transform="scale(0.015625)"/>
      <path d="M 2906 2969 
L 2906 4863 
L 3481 4863 
L 3481 0 
L 2906 0 
L 2906 525 
Q 2725 213 2448 61 
Q 2172 -91 1784 -91 
Q 1150 -91 751 415 
Q 353 922 353 1747 
Q 353 2572 751 3078 
Q 1150 3584 1784 3584 
Q 2172 3584 2448 3432 
Q 2725 3281 2906 2969 
z
M 947 1747 
Q 947 1113 1208 752 
Q 1469 391 1925 391 
Q 2381 391 2643 752 
Q 2906 1113 2906 1747 
Q 2906 2381 2643 2742 
Q 2381 3103 1925 3103 
Q 1469 3103 1208 2742 
Q 947 2381 947 1747 
z
" id="DejaVuSans-64" transform="scale(0.015625)"/>
      <path d="M 1831 0 
L 50 4666 
L 709 4666 
L 2188 738 
L 3669 4666 
L 4325 4666 
L 2547 0 
L 1831 0 
z
" id="DejaVuSans-56" transform="scale(0.015625)"/>
      <path d="M 603 4863 
L 1178 4863 
L 1178 0 
L 603 0 
L 603 4863 
z
" id="DejaVuSans-6c" transform="scale(0.015625)"/>
      <path d="M 1172 4494 
L 1172 3500 
L 2356 3500 
L 2356 3053 
L 1172 3053 
L 1172 1153 
Q 1172 725 1289 603 
Q 1406 481 1766 481 
L 2356 481 
L 2356 0 
L 1766 0 
Q 1100 0 847 248 
Q 594 497 594 1153 
L 594 3053 
L 172 3053 
L 172 3500 
L 594 3500 
L 594 4494 
L 1172 4494 
z
" id="DejaVuSans-74" transform="scale(0.015625)"/>
     </defs>
     <use xlink:href="#DejaVuSans-54"/>
     <use x="46.333984" xlink:href="#DejaVuSans-72"/>
     <use x="87.447266" xlink:href="#DejaVuSans-61"/>
     <use x="148.726562" xlink:href="#DejaVuSans-69"/>
     <use x="176.509766" xlink:href="#DejaVuSans-6e"/>
     <use x="239.888672" xlink:href="#DejaVuSans-69"/>
     <use x="267.671875" xlink:href="#DejaVuSans-6e"/>
     <use x="331.050781" xlink:href="#DejaVuSans-67"/>
     <use x="394.527344" xlink:href="#DejaVuSans-20"/>
     <use x="426.314453" xlink:href="#DejaVuSans-61"/>
     <use x="487.59375" xlink:href="#DejaVuSans-6e"/>
     <use x="550.972656" xlink:href="#DejaVuSans-64"/>
     <use x="614.449219" xlink:href="#DejaVuSans-20"/>
     <use x="646.236328" xlink:href="#DejaVuSans-56"/>
     <use x="706.894531" xlink:href="#DejaVuSans-61"/>
     <use x="768.173828" xlink:href="#DejaVuSans-6c"/>
     <use x="795.957031" xlink:href="#DejaVuSans-69"/>
     <use x="823.740234" xlink:href="#DejaVuSans-64"/>
     <use x="887.216797" xlink:href="#DejaVuSans-61"/>
     <use x="948.496094" xlink:href="#DejaVuSans-74"/>
     <use x="987.705078" xlink:href="#DejaVuSans-69"/>
     <use x="1015.488281" xlink:href="#DejaVuSans-6f"/>
     <use x="1076.669922" xlink:href="#DejaVuSans-6e"/>
     <use x="1140.048828" xlink:href="#DejaVuSans-20"/>
     <use x="1171.835938" xlink:href="#DejaVuSans-41"/>
     <use x="1238.494141" xlink:href="#DejaVuSans-63"/>
     <use x="1293.474609" xlink:href="#DejaVuSans-63"/>
     <use x="1348.455078" xlink:href="#DejaVuSans-75"/>
     <use x="1411.833984" xlink:href="#DejaVuSans-72"/>
     <use x="1452.947266" xlink:href="#DejaVuSans-61"/>
     <use x="1514.226562" xlink:href="#DejaVuSans-63"/>
     <use x="1569.207031" xlink:href="#DejaVuSans-79"/>
    </g>
   </g>
   <g id="legend_1">
    <g id="patch_7">
     <path d="M 277.504375 302.584 
L 407.72 302.584 
Q 409.72 302.584 409.72 300.584 
L 409.72 272.22775 
Q 409.72 270.22775 407.72 270.22775 
L 277.504375 270.22775 
Q 275.504375 270.22775 275.504375 272.22775 
L 275.504375 300.584 
Q 275.504375 302.584 277.504375 302.584 
z
" style="fill:#ffffff;opacity:0.8;stroke:#cccccc;stroke-linejoin:miter;"/>
    </g>
    <g id="line2d_22">
     <path d="M 279.504375 278.326187 
L 299.504375 278.326187 
" style="fill:none;stroke:#1f77b4;stroke-linecap:square;stroke-width:1.5;"/>
    </g>
    <g id="line2d_23"/>
    <g id="text_23">
     <!-- Train Accuracy -->
     <g transform="translate(307.504375 281.826187)scale(0.1 -0.1)">
      <use xlink:href="#DejaVuSans-54"/>
      <use x="46.333984" xlink:href="#DejaVuSans-72"/>
      <use x="87.447266" xlink:href="#DejaVuSans-61"/>
      <use x="148.726562" xlink:href="#DejaVuSans-69"/>
      <use x="176.509766" xlink:href="#DejaVuSans-6e"/>
      <use x="239.888672" xlink:href="#DejaVuSans-20"/>
      <use x="271.675781" xlink:href="#DejaVuSans-41"/>
      <use x="338.333984" xlink:href="#DejaVuSans-63"/>
      <use x="393.314453" xlink:href="#DejaVuSans-63"/>
      <use x="448.294922" xlink:href="#DejaVuSans-75"/>
      <use x="511.673828" xlink:href="#DejaVuSans-72"/>
      <use x="552.787109" xlink:href="#DejaVuSans-61"/>
      <use x="614.066406" xlink:href="#DejaVuSans-63"/>
      <use x="669.046875" xlink:href="#DejaVuSans-79"/>
     </g>
    </g>
    <g id="line2d_24">
     <path d="M 279.504375 293.004312 
L 299.504375 293.004312 
" style="fill:none;stroke:#ff7f0e;stroke-linecap:square;stroke-width:1.5;"/>
    </g>
    <g id="line2d_25"/>
    <g id="text_24">
     <!-- Validation Accuracy -->
     <g transform="translate(307.504375 296.504312)scale(0.1 -0.1)">
      <use xlink:href="#DejaVuSans-56"/>
      <use x="60.658203" xlink:href="#DejaVuSans-61"/>
      <use x="121.9375" xlink:href="#DejaVuSans-6c"/>
      <use x="149.720703" xlink:href="#DejaVuSans-69"/>
      <use x="177.503906" xlink:href="#DejaVuSans-64"/>
      <use x="240.980469" xlink:href="#DejaVuSans-61"/>
      <use x="302.259766" xlink:href="#DejaVuSans-74"/>
      <use x="341.46875" xlink:href="#DejaVuSans-69"/>
      <use x="369.251953" xlink:href="#DejaVuSans-6f"/>
      <use x="430.433594" xlink:href="#DejaVuSans-6e"/>
      <use x="493.8125" xlink:href="#DejaVuSans-20"/>
      <use x="525.599609" xlink:href="#DejaVuSans-41"/>
      <use x="592.257812" xlink:href="#DejaVuSans-63"/>
      <use x="647.238281" xlink:href="#DejaVuSans-63"/>
      <use x="702.21875" xlink:href="#DejaVuSans-75"/>
      <use x="765.597656" xlink:href="#DejaVuSans-72"/>
      <use x="806.710938" xlink:href="#DejaVuSans-61"/>
      <use x="867.990234" xlink:href="#DejaVuSans-63"/>
      <use x="922.970703" xlink:href="#DejaVuSans-79"/>
     </g>
    </g>
   </g>
  </g>
 </g>
 <defs>
  <clipPath id="p159d56e10e">
   <rect height="266.112" width="357.12" x="57.6" y="41.472"/>
  </clipPath>
 </defs>
</svg>
