<?xml version="1.0" encoding="utf-8" standalone="no"?>
<!DOCTYPE svg PUBLIC "-//W3C//DTD SVG 1.1//EN"
  "http://www.w3.org/Graphics/SVG/1.1/DTD/svg11.dtd">
<svg height="345.6pt" version="1.1" viewBox="0 0 460.8 345.6" width="460.8pt" xmlns="http://www.w3.org/2000/svg" xmlns:xlink="http://www.w3.org/1999/xlink">
 <metadata>
  <rdf:RDF xmlns:cc="http://creativecommons.org/ns#" xmlns:dc="http://purl.org/dc/elements/1.1/" xmlns:rdf="http://www.w3.org/1999/02/22-rdf-syntax-ns#">
   <cc:Work>
    <dc:type rdf:resource="http://purl.org/dc/dcmitype/StillImage"/>
    <dc:date>2023-08-19T00:28:44.261302</dc:date>
    <dc:format>image/svg+xml</dc:format>
    <dc:creator>
     <cc:Agent>
      <dc:title>Matplotlib v3.4.3, https://matplotlib.org/</dc:title>
     </cc:Agent>
    </dc:creator>
   </cc:Work>
  </rdf:RDF>
 </metadata>
 <defs>
  <style type="text/css">*{stroke-linecap:butt;stroke-linejoin:round;}</style>
 </defs>
 <g id="figure_1">
  <g id="patch_1">
   <path d="M 0 345.6 
L 460.8 345.6 
L 460.8 0 
L 0 0 
z
" style="fill:#ffffff;"/>
  </g>
  <g id="axes_1">
   <g id="patch_2">
    <path d="M 57.6 307.584 
L 414.72 307.584 
L 414.72 41.472 
L 57.6 41.472 
z
" style="fill:#ffffff;"/>
   </g>
   <g id="matplotlib.axis_1">
    <g id="xtick_1">
     <g id="line2d_1">
      <defs>
       <path d="M 0 0 
L 0 3.5 
" id="me2e0e5bbae" style="stroke:#000000;stroke-width:0.8;"/>
      </defs>
      <g>
       <use style="stroke:#000000;stroke-width:0.8;" x="73.832727" xlink:href="#me2e0e5bbae" y="307.584"/>
      </g>
     </g>
     <g id="text_1">
      <!-- 1 -->
      <g transform="translate(70.651477 322.182437)scale(0.1 -0.1)">
       <defs>
        <path d="M 794 531 
L 1825 531 
L 1825 4091 
L 703 3866 
L 703 4441 
L 1819 4666 
L 2450 4666 
L 2450 531 
L 3481 531 
L 3481 0 
L 794 0 
L 794 531 
z
" id="DejaVuSans-31" transform="scale(0.015625)"/>
       </defs>
       <use xlink:href="#DejaVuSans-31"/>
      </g>
     </g>
    </g>
    <g id="xtick_2">
     <g id="line2d_2">
      <g>
       <use style="stroke:#000000;stroke-width:0.8;" x="109.555234" xlink:href="#me2e0e5bbae" y="307.584"/>
      </g>
     </g>
     <g id="text_2">
      <!-- 35 -->
      <g transform="translate(103.192734 322.182437)scale(0.1 -0.1)">
       <defs>
        <path d="M 2597 2516 
Q 3050 2419 3304 2112 
Q 3559 1806 3559 1356 
Q 3559 666 3084 287 
Q 2609 -91 1734 -91 
Q 1441 -91 1130 -33 
Q 819 25 488 141 
L 488 750 
Q 750 597 1062 519 
Q 1375 441 1716 441 
Q 2309 441 2620 675 
Q 2931 909 2931 1356 
Q 2931 1769 2642 2001 
Q 2353 2234 1838 2234 
L 1294 2234 
L 1294 2753 
L 1863 2753 
Q 2328 2753 2575 2939 
Q 2822 3125 2822 3475 
Q 2822 3834 2567 4026 
Q 2313 4219 1838 4219 
Q 1578 4219 1281 4162 
Q 984 4106 628 3988 
L 628 4550 
Q 988 4650 1302 4700 
Q 1616 4750 1894 4750 
Q 2613 4750 3031 4423 
Q 3450 4097 3450 3541 
Q 3450 3153 3228 2886 
Q 3006 2619 2597 2516 
z
" id="DejaVuSans-33" transform="scale(0.015625)"/>
        <path d="M 691 4666 
L 3169 4666 
L 3169 4134 
L 1269 4134 
L 1269 2991 
Q 1406 3038 1543 3061 
Q 1681 3084 1819 3084 
Q 2600 3084 3056 2656 
Q 3513 2228 3513 1497 
Q 3513 744 3044 326 
Q 2575 -91 1722 -91 
Q 1428 -91 1123 -41 
Q 819 9 494 109 
L 494 744 
Q 775 591 1075 516 
Q 1375 441 1709 441 
Q 2250 441 2565 725 
Q 2881 1009 2881 1497 
Q 2881 1984 2565 2268 
Q 2250 2553 1709 2553 
Q 1456 2553 1204 2497 
Q 953 2441 691 2322 
L 691 4666 
z
" id="DejaVuSans-35" transform="scale(0.015625)"/>
       </defs>
       <use xlink:href="#DejaVuSans-33"/>
       <use x="63.623047" xlink:href="#DejaVuSans-35"/>
      </g>
     </g>
    </g>
    <g id="xtick_3">
     <g id="line2d_3">
      <g>
       <use style="stroke:#000000;stroke-width:0.8;" x="145.277741" xlink:href="#me2e0e5bbae" y="307.584"/>
      </g>
     </g>
     <g id="text_3">
      <!-- 69 -->
      <g transform="translate(138.915241 322.182437)scale(0.1 -0.1)">
       <defs>
        <path d="M 2113 2584 
Q 1688 2584 1439 2293 
Q 1191 2003 1191 1497 
Q 1191 994 1439 701 
Q 1688 409 2113 409 
Q 2538 409 2786 701 
Q 3034 994 3034 1497 
Q 3034 2003 2786 2293 
Q 2538 2584 2113 2584 
z
M 3366 4563 
L 3366 3988 
Q 3128 4100 2886 4159 
Q 2644 4219 2406 4219 
Q 1781 4219 1451 3797 
Q 1122 3375 1075 2522 
Q 1259 2794 1537 2939 
Q 1816 3084 2150 3084 
Q 2853 3084 3261 2657 
Q 3669 2231 3669 1497 
Q 3669 778 3244 343 
Q 2819 -91 2113 -91 
Q 1303 -91 875 529 
Q 447 1150 447 2328 
Q 447 3434 972 4092 
Q 1497 4750 2381 4750 
Q 2619 4750 2861 4703 
Q 3103 4656 3366 4563 
z
" id="DejaVuSans-36" transform="scale(0.015625)"/>
        <path d="M 703 97 
L 703 672 
Q 941 559 1184 500 
Q 1428 441 1663 441 
Q 2288 441 2617 861 
Q 2947 1281 2994 2138 
Q 2813 1869 2534 1725 
Q 2256 1581 1919 1581 
Q 1219 1581 811 2004 
Q 403 2428 403 3163 
Q 403 3881 828 4315 
Q 1253 4750 1959 4750 
Q 2769 4750 3195 4129 
Q 3622 3509 3622 2328 
Q 3622 1225 3098 567 
Q 2575 -91 1691 -91 
Q 1453 -91 1209 -44 
Q 966 3 703 97 
z
M 1959 2075 
Q 2384 2075 2632 2365 
Q 2881 2656 2881 3163 
Q 2881 3666 2632 3958 
Q 2384 4250 1959 4250 
Q 1534 4250 1286 3958 
Q 1038 3666 1038 3163 
Q 1038 2656 1286 2365 
Q 1534 2075 1959 2075 
z
" id="DejaVuSans-39" transform="scale(0.015625)"/>
       </defs>
       <use xlink:href="#DejaVuSans-36"/>
       <use x="63.623047" xlink:href="#DejaVuSans-39"/>
      </g>
     </g>
    </g>
    <g id="xtick_4">
     <g id="line2d_4">
      <g>
       <use style="stroke:#000000;stroke-width:0.8;" x="182.050909" xlink:href="#me2e0e5bbae" y="307.584"/>
      </g>
     </g>
     <g id="text_4">
      <!-- 104 -->
      <g transform="translate(172.507159 322.182437)scale(0.1 -0.1)">
       <defs>
        <path d="M 2034 4250 
Q 1547 4250 1301 3770 
Q 1056 3291 1056 2328 
Q 1056 1369 1301 889 
Q 1547 409 2034 409 
Q 2525 409 2770 889 
Q 3016 1369 3016 2328 
Q 3016 3291 2770 3770 
Q 2525 4250 2034 4250 
z
M 2034 4750 
Q 2819 4750 3233 4129 
Q 3647 3509 3647 2328 
Q 3647 1150 3233 529 
Q 2819 -91 2034 -91 
Q 1250 -91 836 529 
Q 422 1150 422 2328 
Q 422 3509 836 4129 
Q 1250 4750 2034 4750 
z
" id="DejaVuSans-30" transform="scale(0.015625)"/>
        <path d="M 2419 4116 
L 825 1625 
L 2419 1625 
L 2419 4116 
z
M 2253 4666 
L 3047 4666 
L 3047 1625 
L 3713 1625 
L 3713 1100 
L 3047 1100 
L 3047 0 
L 2419 0 
L 2419 1100 
L 313 1100 
L 313 1709 
L 2253 4666 
z
" id="DejaVuSans-34" transform="scale(0.015625)"/>
       </defs>
       <use xlink:href="#DejaVuSans-31"/>
       <use x="63.623047" xlink:href="#DejaVuSans-30"/>
       <use x="127.246094" xlink:href="#DejaVuSans-34"/>
      </g>
     </g>
    </g>
    <g id="xtick_5">
     <g id="line2d_5">
      <g>
       <use style="stroke:#000000;stroke-width:0.8;" x="217.773416" xlink:href="#me2e0e5bbae" y="307.584"/>
      </g>
     </g>
     <g id="text_5">
      <!-- 138 -->
      <g transform="translate(208.229666 322.182437)scale(0.1 -0.1)">
       <defs>
        <path d="M 2034 2216 
Q 1584 2216 1326 1975 
Q 1069 1734 1069 1313 
Q 1069 891 1326 650 
Q 1584 409 2034 409 
Q 2484 409 2743 651 
Q 3003 894 3003 1313 
Q 3003 1734 2745 1975 
Q 2488 2216 2034 2216 
z
M 1403 2484 
Q 997 2584 770 2862 
Q 544 3141 544 3541 
Q 544 4100 942 4425 
Q 1341 4750 2034 4750 
Q 2731 4750 3128 4425 
Q 3525 4100 3525 3541 
Q 3525 3141 3298 2862 
Q 3072 2584 2669 2484 
Q 3125 2378 3379 2068 
Q 3634 1759 3634 1313 
Q 3634 634 3220 271 
Q 2806 -91 2034 -91 
Q 1263 -91 848 271 
Q 434 634 434 1313 
Q 434 1759 690 2068 
Q 947 2378 1403 2484 
z
M 1172 3481 
Q 1172 3119 1398 2916 
Q 1625 2713 2034 2713 
Q 2441 2713 2670 2916 
Q 2900 3119 2900 3481 
Q 2900 3844 2670 4047 
Q 2441 4250 2034 4250 
Q 1625 4250 1398 4047 
Q 1172 3844 1172 3481 
z
" id="DejaVuSans-38" transform="scale(0.015625)"/>
       </defs>
       <use xlink:href="#DejaVuSans-31"/>
       <use x="63.623047" xlink:href="#DejaVuSans-33"/>
       <use x="127.246094" xlink:href="#DejaVuSans-38"/>
      </g>
     </g>
    </g>
    <g id="xtick_6">
     <g id="line2d_6">
      <g>
       <use style="stroke:#000000;stroke-width:0.8;" x="253.495922" xlink:href="#me2e0e5bbae" y="307.584"/>
      </g>
     </g>
     <g id="text_6">
      <!-- 172 -->
      <g transform="translate(243.952172 322.182437)scale(0.1 -0.1)">
       <defs>
        <path d="M 525 4666 
L 3525 4666 
L 3525 4397 
L 1831 0 
L 1172 0 
L 2766 4134 
L 525 4134 
L 525 4666 
z
" id="DejaVuSans-37" transform="scale(0.015625)"/>
        <path d="M 1228 531 
L 3431 531 
L 3431 0 
L 469 0 
L 469 531 
Q 828 903 1448 1529 
Q 2069 2156 2228 2338 
Q 2531 2678 2651 2914 
Q 2772 3150 2772 3378 
Q 2772 3750 2511 3984 
Q 2250 4219 1831 4219 
Q 1534 4219 1204 4116 
Q 875 4013 500 3803 
L 500 4441 
Q 881 4594 1212 4672 
Q 1544 4750 1819 4750 
Q 2544 4750 2975 4387 
Q 3406 4025 3406 3419 
Q 3406 3131 3298 2873 
Q 3191 2616 2906 2266 
Q 2828 2175 2409 1742 
Q 1991 1309 1228 531 
z
" id="DejaVuSans-32" transform="scale(0.015625)"/>
       </defs>
       <use xlink:href="#DejaVuSans-31"/>
       <use x="63.623047" xlink:href="#DejaVuSans-37"/>
       <use x="127.246094" xlink:href="#DejaVuSans-32"/>
      </g>
     </g>
    </g>
    <g id="xtick_7">
     <g id="line2d_7">
      <g>
       <use style="stroke:#000000;stroke-width:0.8;" x="290.269091" xlink:href="#me2e0e5bbae" y="307.584"/>
      </g>
     </g>
     <g id="text_7">
      <!-- 207 -->
      <g transform="translate(280.725341 322.182437)scale(0.1 -0.1)">
       <use xlink:href="#DejaVuSans-32"/>
       <use x="63.623047" xlink:href="#DejaVuSans-30"/>
       <use x="127.246094" xlink:href="#DejaVuSans-37"/>
      </g>
     </g>
    </g>
    <g id="xtick_8">
     <g id="line2d_8">
      <g>
       <use style="stroke:#000000;stroke-width:0.8;" x="325.991598" xlink:href="#me2e0e5bbae" y="307.584"/>
      </g>
     </g>
     <g id="text_8">
      <!-- 241 -->
      <g transform="translate(316.447848 322.182437)scale(0.1 -0.1)">
       <use xlink:href="#DejaVuSans-32"/>
       <use x="63.623047" xlink:href="#DejaVuSans-34"/>
       <use x="127.246094" xlink:href="#DejaVuSans-31"/>
      </g>
     </g>
    </g>
    <g id="xtick_9">
     <g id="line2d_9">
      <g>
       <use style="stroke:#000000;stroke-width:0.8;" x="361.714104" xlink:href="#me2e0e5bbae" y="307.584"/>
      </g>
     </g>
     <g id="text_9">
      <!-- 275 -->
      <g transform="translate(352.170354 322.182437)scale(0.1 -0.1)">
       <use xlink:href="#DejaVuSans-32"/>
       <use x="63.623047" xlink:href="#DejaVuSans-37"/>
       <use x="127.246094" xlink:href="#DejaVuSans-35"/>
      </g>
     </g>
    </g>
    <g id="xtick_10">
     <g id="line2d_10">
      <g>
       <use style="stroke:#000000;stroke-width:0.8;" x="398.487273" xlink:href="#me2e0e5bbae" y="307.584"/>
      </g>
     </g>
     <g id="text_10">
      <!-- 310 -->
      <g transform="translate(388.943523 322.182437)scale(0.1 -0.1)">
       <use xlink:href="#DejaVuSans-33"/>
       <use x="63.623047" xlink:href="#DejaVuSans-31"/>
       <use x="127.246094" xlink:href="#DejaVuSans-30"/>
      </g>
     </g>
    </g>
    <g id="text_11">
     <!-- Epochs -->
     <g transform="translate(218.244375 335.860562)scale(0.1 -0.1)">
      <defs>
       <path d="M 628 4666 
L 3578 4666 
L 3578 4134 
L 1259 4134 
L 1259 2753 
L 3481 2753 
L 3481 2222 
L 1259 2222 
L 1259 531 
L 3634 531 
L 3634 0 
L 628 0 
L 628 4666 
z
" id="DejaVuSans-45" transform="scale(0.015625)"/>
       <path d="M 1159 525 
L 1159 -1331 
L 581 -1331 
L 581 3500 
L 1159 3500 
L 1159 2969 
Q 1341 3281 1617 3432 
Q 1894 3584 2278 3584 
Q 2916 3584 3314 3078 
Q 3713 2572 3713 1747 
Q 3713 922 3314 415 
Q 2916 -91 2278 -91 
Q 1894 -91 1617 61 
Q 1341 213 1159 525 
z
M 3116 1747 
Q 3116 2381 2855 2742 
Q 2594 3103 2138 3103 
Q 1681 3103 1420 2742 
Q 1159 2381 1159 1747 
Q 1159 1113 1420 752 
Q 1681 391 2138 391 
Q 2594 391 2855 752 
Q 3116 1113 3116 1747 
z
" id="DejaVuSans-70" transform="scale(0.015625)"/>
       <path d="M 1959 3097 
Q 1497 3097 1228 2736 
Q 959 2375 959 1747 
Q 959 1119 1226 758 
Q 1494 397 1959 397 
Q 2419 397 2687 759 
Q 2956 1122 2956 1747 
Q 2956 2369 2687 2733 
Q 2419 3097 1959 3097 
z
M 1959 3584 
Q 2709 3584 3137 3096 
Q 3566 2609 3566 1747 
Q 3566 888 3137 398 
Q 2709 -91 1959 -91 
Q 1206 -91 779 398 
Q 353 888 353 1747 
Q 353 2609 779 3096 
Q 1206 3584 1959 3584 
z
" id="DejaVuSans-6f" transform="scale(0.015625)"/>
       <path d="M 3122 3366 
L 3122 2828 
Q 2878 2963 2633 3030 
Q 2388 3097 2138 3097 
Q 1578 3097 1268 2742 
Q 959 2388 959 1747 
Q 959 1106 1268 751 
Q 1578 397 2138 397 
Q 2388 397 2633 464 
Q 2878 531 3122 666 
L 3122 134 
Q 2881 22 2623 -34 
Q 2366 -91 2075 -91 
Q 1284 -91 818 406 
Q 353 903 353 1747 
Q 353 2603 823 3093 
Q 1294 3584 2113 3584 
Q 2378 3584 2631 3529 
Q 2884 3475 3122 3366 
z
" id="DejaVuSans-63" transform="scale(0.015625)"/>
       <path d="M 3513 2113 
L 3513 0 
L 2938 0 
L 2938 2094 
Q 2938 2591 2744 2837 
Q 2550 3084 2163 3084 
Q 1697 3084 1428 2787 
Q 1159 2491 1159 1978 
L 1159 0 
L 581 0 
L 581 4863 
L 1159 4863 
L 1159 2956 
Q 1366 3272 1645 3428 
Q 1925 3584 2291 3584 
Q 2894 3584 3203 3211 
Q 3513 2838 3513 2113 
z
" id="DejaVuSans-68" transform="scale(0.015625)"/>
       <path d="M 2834 3397 
L 2834 2853 
Q 2591 2978 2328 3040 
Q 2066 3103 1784 3103 
Q 1356 3103 1142 2972 
Q 928 2841 928 2578 
Q 928 2378 1081 2264 
Q 1234 2150 1697 2047 
L 1894 2003 
Q 2506 1872 2764 1633 
Q 3022 1394 3022 966 
Q 3022 478 2636 193 
Q 2250 -91 1575 -91 
Q 1294 -91 989 -36 
Q 684 19 347 128 
L 347 722 
Q 666 556 975 473 
Q 1284 391 1588 391 
Q 1994 391 2212 530 
Q 2431 669 2431 922 
Q 2431 1156 2273 1281 
Q 2116 1406 1581 1522 
L 1381 1569 
Q 847 1681 609 1914 
Q 372 2147 372 2553 
Q 372 3047 722 3315 
Q 1072 3584 1716 3584 
Q 2034 3584 2315 3537 
Q 2597 3491 2834 3397 
z
" id="DejaVuSans-73" transform="scale(0.015625)"/>
      </defs>
      <use xlink:href="#DejaVuSans-45"/>
      <use x="63.183594" xlink:href="#DejaVuSans-70"/>
      <use x="126.660156" xlink:href="#DejaVuSans-6f"/>
      <use x="187.841797" xlink:href="#DejaVuSans-63"/>
      <use x="242.822266" xlink:href="#DejaVuSans-68"/>
      <use x="306.201172" xlink:href="#DejaVuSans-73"/>
     </g>
    </g>
   </g>
   <g id="matplotlib.axis_2">
    <g id="ytick_1">
     <g id="line2d_11">
      <defs>
       <path d="M 0 0 
L -3.5 0 
" id="ma9d5422d6a" style="stroke:#000000;stroke-width:0.8;"/>
      </defs>
      <g>
       <use style="stroke:#000000;stroke-width:0.8;" x="57.6" xlink:href="#ma9d5422d6a" y="279.902632"/>
      </g>
     </g>
     <g id="text_12">
      <!-- 30 -->
      <g transform="translate(37.875 283.701851)scale(0.1 -0.1)">
       <use xlink:href="#DejaVuSans-33"/>
       <use x="63.623047" xlink:href="#DejaVuSans-30"/>
      </g>
     </g>
    </g>
    <g id="ytick_2">
     <g id="line2d_12">
      <g>
       <use style="stroke:#000000;stroke-width:0.8;" x="57.6" xlink:href="#ma9d5422d6a" y="245.903138"/>
      </g>
     </g>
     <g id="text_13">
      <!-- 40 -->
      <g transform="translate(37.875 249.702357)scale(0.1 -0.1)">
       <use xlink:href="#DejaVuSans-34"/>
       <use x="63.623047" xlink:href="#DejaVuSans-30"/>
      </g>
     </g>
    </g>
    <g id="ytick_3">
     <g id="line2d_13">
      <g>
       <use style="stroke:#000000;stroke-width:0.8;" x="57.6" xlink:href="#ma9d5422d6a" y="211.903644"/>
      </g>
     </g>
     <g id="text_14">
      <!-- 50 -->
      <g transform="translate(37.875 215.702863)scale(0.1 -0.1)">
       <use xlink:href="#DejaVuSans-35"/>
       <use x="63.623047" xlink:href="#DejaVuSans-30"/>
      </g>
     </g>
    </g>
    <g id="ytick_4">
     <g id="line2d_14">
      <g>
       <use style="stroke:#000000;stroke-width:0.8;" x="57.6" xlink:href="#ma9d5422d6a" y="177.90415"/>
      </g>
     </g>
     <g id="text_15">
      <!-- 60 -->
      <g transform="translate(37.875 181.703369)scale(0.1 -0.1)">
       <use xlink:href="#DejaVuSans-36"/>
       <use x="63.623047" xlink:href="#DejaVuSans-30"/>
      </g>
     </g>
    </g>
    <g id="ytick_5">
     <g id="line2d_15">
      <g>
       <use style="stroke:#000000;stroke-width:0.8;" x="57.6" xlink:href="#ma9d5422d6a" y="143.904656"/>
      </g>
     </g>
     <g id="text_16">
      <!-- 70 -->
      <g transform="translate(37.875 147.703874)scale(0.1 -0.1)">
       <use xlink:href="#DejaVuSans-37"/>
       <use x="63.623047" xlink:href="#DejaVuSans-30"/>
      </g>
     </g>
    </g>
    <g id="ytick_6">
     <g id="line2d_16">
      <g>
       <use style="stroke:#000000;stroke-width:0.8;" x="57.6" xlink:href="#ma9d5422d6a" y="109.905162"/>
      </g>
     </g>
     <g id="text_17">
      <!-- 80 -->
      <g transform="translate(37.875 113.70438)scale(0.1 -0.1)">
       <use xlink:href="#DejaVuSans-38"/>
       <use x="63.623047" xlink:href="#DejaVuSans-30"/>
      </g>
     </g>
    </g>
    <g id="ytick_7">
     <g id="line2d_17">
      <g>
       <use style="stroke:#000000;stroke-width:0.8;" x="57.6" xlink:href="#ma9d5422d6a" y="75.905668"/>
      </g>
     </g>
     <g id="text_18">
      <!-- 90 -->
      <g transform="translate(37.875 79.704886)scale(0.1 -0.1)">
       <use xlink:href="#DejaVuSans-39"/>
       <use x="63.623047" xlink:href="#DejaVuSans-30"/>
      </g>
     </g>
    </g>
    <g id="ytick_8">
     <g id="line2d_18">
      <g>
       <use style="stroke:#000000;stroke-width:0.8;" x="57.6" xlink:href="#ma9d5422d6a" y="41.906174"/>
      </g>
     </g>
     <g id="text_19">
      <!-- 100 -->
      <g transform="translate(31.5125 45.705392)scale(0.1 -0.1)">
       <use xlink:href="#DejaVuSans-31"/>
       <use x="63.623047" xlink:href="#DejaVuSans-30"/>
       <use x="127.246094" xlink:href="#DejaVuSans-30"/>
      </g>
     </g>
    </g>
    <g id="text_20">
     <!-- Accuracy -->
     <g transform="translate(25.432812 197.356125)rotate(-90)scale(0.1 -0.1)">
      <defs>
       <path d="M 2188 4044 
L 1331 1722 
L 3047 1722 
L 2188 4044 
z
M 1831 4666 
L 2547 4666 
L 4325 0 
L 3669 0 
L 3244 1197 
L 1141 1197 
L 716 0 
L 50 0 
L 1831 4666 
z
" id="DejaVuSans-41" transform="scale(0.015625)"/>
       <path d="M 544 1381 
L 544 3500 
L 1119 3500 
L 1119 1403 
Q 1119 906 1312 657 
Q 1506 409 1894 409 
Q 2359 409 2629 706 
Q 2900 1003 2900 1516 
L 2900 3500 
L 3475 3500 
L 3475 0 
L 2900 0 
L 2900 538 
Q 2691 219 2414 64 
Q 2138 -91 1772 -91 
Q 1169 -91 856 284 
Q 544 659 544 1381 
z
M 1991 3584 
L 1991 3584 
z
" id="DejaVuSans-75" transform="scale(0.015625)"/>
       <path d="M 2631 2963 
Q 2534 3019 2420 3045 
Q 2306 3072 2169 3072 
Q 1681 3072 1420 2755 
Q 1159 2438 1159 1844 
L 1159 0 
L 581 0 
L 581 3500 
L 1159 3500 
L 1159 2956 
Q 1341 3275 1631 3429 
Q 1922 3584 2338 3584 
Q 2397 3584 2469 3576 
Q 2541 3569 2628 3553 
L 2631 2963 
z
" id="DejaVuSans-72" transform="scale(0.015625)"/>
       <path d="M 2194 1759 
Q 1497 1759 1228 1600 
Q 959 1441 959 1056 
Q 959 750 1161 570 
Q 1363 391 1709 391 
Q 2188 391 2477 730 
Q 2766 1069 2766 1631 
L 2766 1759 
L 2194 1759 
z
M 3341 1997 
L 3341 0 
L 2766 0 
L 2766 531 
Q 2569 213 2275 61 
Q 1981 -91 1556 -91 
Q 1019 -91 701 211 
Q 384 513 384 1019 
Q 384 1609 779 1909 
Q 1175 2209 1959 2209 
L 2766 2209 
L 2766 2266 
Q 2766 2663 2505 2880 
Q 2244 3097 1772 3097 
Q 1472 3097 1187 3025 
Q 903 2953 641 2809 
L 641 3341 
Q 956 3463 1253 3523 
Q 1550 3584 1831 3584 
Q 2591 3584 2966 3190 
Q 3341 2797 3341 1997 
z
" id="DejaVuSans-61" transform="scale(0.015625)"/>
       <path d="M 2059 -325 
Q 1816 -950 1584 -1140 
Q 1353 -1331 966 -1331 
L 506 -1331 
L 506 -850 
L 844 -850 
Q 1081 -850 1212 -737 
Q 1344 -625 1503 -206 
L 1606 56 
L 191 3500 
L 800 3500 
L 1894 763 
L 2988 3500 
L 3597 3500 
L 2059 -325 
z
" id="DejaVuSans-79" transform="scale(0.015625)"/>
      </defs>
      <use xlink:href="#DejaVuSans-41"/>
      <use x="66.658203" xlink:href="#DejaVuSans-63"/>
      <use x="121.638672" xlink:href="#DejaVuSans-63"/>
      <use x="176.619141" xlink:href="#DejaVuSans-75"/>
      <use x="239.998047" xlink:href="#DejaVuSans-72"/>
      <use x="281.111328" xlink:href="#DejaVuSans-61"/>
      <use x="342.390625" xlink:href="#DejaVuSans-63"/>
      <use x="397.371094" xlink:href="#DejaVuSans-79"/>
     </g>
    </g>
   </g>
   <g id="line2d_19">
    <path clip-path="url(#p6bfa3f2e68)" d="M 73.832727 295.488 
L 74.883389 254.49821 
L 75.934051 227.686209 
L 76.984713 206.994117 
L 79.086037 180.168516 
L 80.136699 169.336277 
L 82.238023 152.574527 
L 83.288685 147.508602 
L 84.339347 178.373343 
L 85.390009 168.295893 
L 86.440671 159.802819 
L 87.491333 155.756879 
L 88.541995 149.66417 
L 89.592657 145.801827 
L 90.643319 140.715503 
L 91.693981 137.907145 
L 92.744643 133.092817 
L 93.795305 131.392842 
L 94.845966 126.932108 
L 95.896628 123.946953 
L 96.94729 120.356606 
L 97.997952 117.697846 
L 99.048614 115.746275 
L 100.099276 113.223512 
L 101.149938 110.408354 
L 102.2006 109.089174 
L 103.251262 106.729609 
L 104.301924 106.348815 
L 105.352586 134.507196 
L 107.45391 129.971663 
L 108.504572 128.033692 
L 110.605896 122.654972 
L 111.656558 122.267378 
L 112.70722 119.261822 
L 113.757882 118.72463 
L 114.808544 116.154269 
L 115.859206 114.70589 
L 116.909868 114.393095 
L 117.96053 112.597922 
L 119.011192 111.428339 
L 120.061853 110.551152 
L 121.112515 108.191587 
L 122.163177 106.607211 
L 123.213839 105.879622 
L 126.365825 100.276505 
L 127.416487 100.6233 
L 128.467149 98.950525 
L 129.517811 98.379333 
L 130.568473 95.550575 
L 131.619135 94.843386 
L 132.669797 92.973414 
L 134.771121 91.470636 
L 135.821783 90.097056 
L 136.872445 89.247069 
L 138.973769 86.581509 
L 140.024431 86.635908 
L 141.075093 86.907904 
L 142.125755 85.860719 
L 143.176417 84.47354 
L 144.227079 83.915948 
L 145.277741 83.80715 
L 146.328402 83.426356 
L 147.379064 109.537967 
L 148.429726 109.463168 
L 149.480388 107.3144 
L 150.53105 108.252786 
L 151.581712 107.226002 
L 152.632374 105.417228 
L 153.683036 105.33563 
L 154.733698 105.519227 
L 155.78436 103.690054 
L 156.835022 102.846867 
L 157.885684 103.254861 
L 158.936346 102.751668 
L 159.987008 101.425688 
L 161.03767 100.317304 
L 162.088332 100.6369 
L 163.138994 99.24972 
L 164.189656 98.882526 
L 166.29098 97.005754 
L 167.341642 96.930955 
L 168.392304 96.414162 
L 169.442966 95.23778 
L 170.493628 95.088182 
L 171.544289 94.816186 
L 172.594951 94.034198 
L 173.645613 93.551405 
L 174.696275 93.435807 
L 175.746937 91.606634 
L 176.797599 91.491036 
L 177.848261 90.974243 
L 178.898923 89.784261 
L 179.949585 89.906659 
L 181.000247 88.696277 
L 182.050909 88.968273 
L 183.101571 87.723892 
L 184.152233 88.859475 
L 185.202895 88.601079 
L 186.253557 87.472295 
L 187.304219 85.79952 
L 188.354881 84.663937 
L 189.405543 84.983533 
L 190.456205 84.432741 
L 191.506867 83.15436 
L 192.557529 82.977562 
L 193.608191 83.052361 
L 194.658853 82.045976 
L 195.709515 80.529599 
L 196.760177 80.930793 
L 197.810838 79.815609 
L 199.912162 80.067206 
L 200.962824 79.210418 
L 202.013486 77.966037 
L 203.064148 78.115635 
L 204.11481 76.660456 
L 205.165472 76.252462 
L 206.216134 75.08968 
L 207.266796 75.307276 
L 208.317458 74.987681 
L 209.36812 74.232892 
L 210.418782 74.940082 
L 211.469444 73.920097 
L 212.520106 72.580517 
L 213.570768 72.818514 
L 214.62143 71.72373 
L 215.672092 72.056925 
L 216.722754 71.03014 
L 217.773416 71.954926 
L 218.824078 71.587732 
L 219.87474 71.628531 
L 220.925402 71.526533 
L 221.976064 70.758144 
L 223.026726 70.34335 
L 224.077387 70.302551 
L 225.128049 70.635746 
L 226.178711 69.574962 
L 227.229373 70.540547 
L 228.280035 69.472963 
L 229.330697 69.568162 
L 230.381359 69.976156 
L 231.432021 95.638974 
L 232.482683 96.686158 
L 233.533345 96.903755 
L 234.584007 95.564175 
L 237.735993 94.272194 
L 238.786655 94.394592 
L 239.837317 93.075412 
L 240.887979 94.034198 
L 241.938641 93.374608 
L 242.989303 92.381822 
L 244.039965 91.89903 
L 245.090627 92.932614 
L 246.141289 92.769417 
L 247.191951 90.947044 
L 248.242613 90.620649 
L 249.293274 90.729447 
L 250.343936 91.314238 
L 251.394598 91.239439 
L 252.44526 90.50505 
L 253.495922 89.451066 
L 254.546584 90.369052 
L 255.597246 90.743047 
L 257.69857 88.431081 
L 258.749232 89.974658 
L 259.799894 88.777876 
L 262.95188 88.016287 
L 264.002542 88.397082 
L 265.053204 87.900689 
L 266.103866 88.573879 
L 267.154528 86.941903 
L 268.20519 86.812705 
L 270.306514 87.288698 
L 271.357176 85.636323 
L 273.4585 85.214729 
L 275.559823 85.16033 
L 276.610485 86.47271 
L 277.661147 85.425526 
L 278.711809 85.065131 
L 279.762471 83.922748 
L 280.813133 84.738736 
L 281.863795 83.922748 
L 282.914457 83.589553 
L 283.965119 83.949948 
L 285.015781 84.187944 
L 286.066443 83.031962 
L 287.117105 83.575953 
L 288.167767 83.507954 
L 289.218429 82.753166 
L 290.269091 82.623968 
L 292.370415 81.066791 
L 293.421077 82.657967 
L 294.471739 81.739981 
L 295.522401 81.345587 
L 296.573063 81.243588 
L 297.623725 81.291187 
L 298.674387 80.448 
L 300.775711 79.836009 
L 301.826372 79.271618 
L 302.877034 79.829209 
L 303.927696 79.938008 
L 304.978358 78.44883 
L 306.02902 78.938422 
L 307.079682 78.197233 
L 308.130344 78.510029 
L 309.181006 78.374031 
L 310.231668 77.299647 
L 311.28233 77.626042 
L 312.332992 78.380831 
L 314.434316 77.143249 
L 315.484978 75.837669 
L 316.53564 76.014466 
L 317.586302 75.511273 
L 318.636964 75.76967 
L 319.687626 75.858068 
L 320.738288 75.07608 
L 321.78895 74.967282 
L 322.839612 74.056095 
L 323.890274 74.817684 
L 324.940936 74.674886 
L 325.991598 74.40969 
L 327.042259 73.580102 
L 328.092921 73.321706 
L 329.143583 72.879713 
L 330.194245 73.484904 
L 331.244907 73.321706 
L 334.396893 71.791729 
L 335.447555 72.172523 
L 336.498217 71.499333 
L 337.548879 71.519733 
L 338.599541 71.111739 
L 339.650203 70.220952 
L 341.751527 69.01737 
L 342.802189 70.030555 
L 343.852851 68.928971 
L 344.903513 69.67016 
L 345.954175 69.581762 
L 347.004837 69.132968 
L 348.055499 67.990585 
L 349.106161 68.561777 
L 350.156823 68.609376 
L 351.207485 68.153783 
L 352.258147 67.847788 
L 353.308808 68.588976 
L 354.35947 67.541792 
L 355.410132 67.69139 
L 356.460794 67.0182 
L 357.511456 67.201797 
L 358.562118 66.596606 
L 359.61278 66.712204 
L 360.663442 65.590221 
L 361.714104 66.215812 
L 364.86609 65.066629 
L 365.916752 65.352225 
L 366.967414 65.127828 
L 368.018076 64.624635 
L 369.068738 65.68542 
L 370.1194 64.148643 
L 371.170062 64.033044 
L 373.271386 64.203042 
L 374.322048 64.080644 
L 376.423372 64.162242 
L 377.474034 63.047059 
L 378.524695 63.434653 
L 379.575357 63.00626 
L 380.626019 63.087858 
L 381.676681 63.319055 
L 384.828667 62.768263 
L 385.879329 62.27867 
L 386.929991 62.530267 
L 387.980653 62.98586 
L 389.031315 62.462268 
L 390.081977 62.870262 
L 391.132639 62.754663 
L 392.183301 62.27187 
L 394.284625 62.462268 
L 395.335287 62.401069 
L 397.436611 61.503482 
L 398.487273 62.380669 
L 398.487273 62.380669 
" style="fill:none;stroke:#1f77b4;stroke-linecap:square;stroke-width:1.5;"/>
   </g>
   <g id="line2d_20">
    <path clip-path="url(#p6bfa3f2e68)" d="M 73.832727 290.952467 
L 74.883389 232.779333 
L 75.934051 204.525754 
L 76.984713 180.760107 
L 78.035375 177.326158 
L 79.086037 155.73648 
L 80.136699 156.960461 
L 81.187361 129.250874 
L 82.238023 137.274754 
L 83.288685 126.224919 
L 84.339347 159.680421 
L 85.390009 147.848597 
L 86.440671 129.148875 
L 87.491333 134.928789 
L 88.541995 136.968759 
L 89.592657 116.05907 
L 90.643319 116.09307 
L 91.693981 110.857147 
L 92.744643 114.393095 
L 93.795305 104.941236 
L 94.845966 99.29732 
L 95.896628 92.225425 
L 96.94729 97.971339 
L 97.997952 88.587479 
L 100.099276 81.311587 
L 101.149938 82.943563 
L 102.2006 80.631597 
L 103.251262 80.291602 
L 104.301924 80.597598 
L 105.352586 132.106831 
L 106.403248 93.041413 
L 107.45391 119.799014 
L 108.504572 93.483406 
L 109.555234 105.757223 
L 111.656558 95.795372 
L 112.70722 92.735417 
L 113.757882 100.487302 
L 114.808544 99.195321 
L 115.859206 85.629523 
L 116.909868 89.811461 
L 117.96053 89.16547 
L 119.011192 85.357527 
L 120.061853 84.235544 
L 121.112515 78.353631 
L 122.163177 79.10162 
L 123.213839 83.657552 
L 124.264501 86.275513 
L 125.315163 87.635493 
L 126.365825 82.331572 
L 127.416487 75.531673 
L 128.467149 74.919682 
L 129.517811 77.571643 
L 130.568473 75.225678 
L 131.619135 69.785759 
L 132.669797 68.527777 
L 133.720459 70.533748 
L 134.771121 71.111739 
L 135.821783 65.569821 
L 136.872445 67.473793 
L 137.923107 66.793803 
L 138.973769 63.937846 
L 140.024431 65.331825 
L 141.075093 65.977815 
L 142.125755 64.31184 
L 143.176417 64.34584 
L 144.227079 64.583836 
L 146.328402 64.583836 
L 147.379064 92.56542 
L 148.429726 79.067621 
L 149.480388 77.707641 
L 150.53105 102.051279 
L 151.581712 81.311587 
L 152.632374 82.603568 
L 153.683036 80.869594 
L 154.733698 87.295498 
L 155.78436 79.577613 
L 156.835022 76.177664 
L 157.885684 73.865698 
L 158.936346 83.181559 
L 159.987008 73.08371 
L 161.03767 80.053606 
L 162.088332 72.743715 
L 163.138994 75.191678 
L 164.189656 67.847788 
L 165.240318 72.063725 
L 166.29098 73.831698 
L 167.341642 70.329751 
L 168.392304 69.105769 
L 169.442966 72.335721 
L 170.493628 72.097724 
L 171.544289 81.923578 
L 172.594951 75.225678 
L 173.645613 77.333646 
L 174.696275 69.207767 
L 175.746937 67.575792 
L 176.797599 64.821833 
L 177.848261 67.473793 
L 178.898923 66.31781 
L 179.949585 64.107843 
L 181.000247 67.099799 
L 182.050909 67.099799 
L 183.101571 66.249811 
L 184.152233 68.629776 
L 185.202895 65.161827 
L 186.253557 67.67779 
L 187.304219 68.289781 
L 188.354881 67.507793 
L 189.405543 68.017785 
L 190.456205 66.045814 
L 191.506867 63.155857 
L 192.557529 62.713864 
L 194.658853 61.353884 
L 195.709515 62.577866 
L 196.760177 63.291855 
L 197.810838 60.231901 
L 198.8615 60.469897 
L 199.912162 60.061903 
L 200.962824 59.993904 
L 202.013486 58.837922 
L 203.064148 59.61991 
L 204.11481 59.687909 
L 205.165472 57.409943 
L 206.216134 59.109918 
L 207.266796 58.769923 
L 208.317458 59.551911 
L 209.36812 58.531926 
L 210.418782 58.769923 
L 211.469444 58.29393 
L 212.520106 57.307944 
L 213.570768 57.477942 
L 214.62143 57.477942 
L 215.672092 57.307944 
L 217.773416 57.477942 
L 218.824078 56.797952 
L 220.925402 56.89995 
L 221.976064 56.525956 
L 224.077387 56.423958 
L 225.128049 56.219961 
L 227.229373 56.355959 
L 228.280035 56.083963 
L 230.381359 56.185961 
L 231.432021 75.565673 
L 232.482683 76.721655 
L 233.533345 72.539718 
L 234.584007 75.021681 
L 235.634669 69.921757 
L 236.685331 71.961726 
L 237.735993 68.085784 
L 238.786655 72.199723 
L 239.837317 68.051784 
L 240.887979 69.03777 
L 241.938641 69.819758 
L 242.989303 74.681686 
L 244.039965 69.479763 
L 245.090627 68.119783 
L 246.141289 72.777714 
L 247.191951 67.337795 
L 248.242613 67.915786 
L 249.293274 69.71776 
L 250.343936 70.601747 
L 251.394598 70.975741 
L 252.44526 69.309766 
L 253.495922 81.073591 
L 254.546584 72.437719 
L 255.597246 69.411764 
L 256.647908 69.275766 
L 257.69857 66.419809 
L 258.749232 67.779789 
L 259.799894 70.329751 
L 260.850556 64.753834 
L 261.901218 66.215812 
L 262.95188 66.113813 
L 264.002542 69.921757 
L 265.053204 69.309766 
L 266.103866 63.63185 
L 267.154528 65.501822 
L 268.20519 72.029725 
L 269.255852 62.645865 
L 270.306514 67.541792 
L 271.357176 64.583836 
L 272.407838 66.249811 
L 273.4585 64.175842 
L 274.509162 66.521807 
L 275.559823 67.67779 
L 276.610485 65.535822 
L 277.661147 68.391779 
L 278.711809 64.515837 
L 279.762471 65.705819 
L 281.863795 66.929801 
L 282.914457 65.229826 
L 283.965119 65.875817 
L 285.015781 64.515837 
L 286.066443 65.297825 
L 287.117105 65.535822 
L 288.167767 66.657805 
L 289.218429 65.569821 
L 290.269091 61.557881 
L 291.319753 62.509867 
L 292.370415 62.917861 
L 293.421077 64.413839 
L 294.471739 61.081888 
L 295.522401 66.35181 
L 296.573063 67.167798 
L 298.674387 63.019859 
L 299.725049 61.387884 
L 300.775711 65.263826 
L 301.826372 62.917861 
L 302.877034 61.183887 
L 303.927696 61.863877 
L 304.978358 61.693879 
L 306.02902 63.869847 
L 307.079682 62.135873 
L 308.130344 61.387884 
L 309.181006 61.761878 
L 310.231668 63.733849 
L 311.28233 60.469897 
L 312.332992 63.597851 
L 313.383654 62.679864 
L 315.484978 59.891906 
L 316.53564 60.707894 
L 317.586302 61.149887 
L 318.636964 59.415913 
L 319.687626 60.673894 
L 320.738288 59.959905 
L 321.78895 59.551911 
L 322.839612 59.449912 
L 323.890274 60.435898 
L 325.991598 60.97989 
L 327.042259 59.755908 
L 328.092921 60.775893 
L 329.143583 59.007919 
L 330.194245 59.415913 
L 331.244907 58.667924 
L 332.295569 58.25993 
L 333.346231 58.021934 
L 334.396893 57.57994 
L 335.447555 59.041919 
L 336.498217 57.511941 
L 337.548879 57.885936 
L 338.599541 57.205946 
L 339.650203 57.171946 
L 341.751527 58.225931 
L 343.852851 56.695953 
L 344.903513 56.627954 
L 345.954175 57.715938 
L 347.004837 56.763952 
L 348.055499 57.851936 
L 349.106161 56.491956 
L 350.156823 57.137947 
L 351.207485 56.593955 
L 352.258147 56.89995 
L 353.308808 56.321959 
L 354.35947 57.205946 
L 355.410132 54.92798 
L 356.460794 55.403973 
L 357.511456 55.505971 
L 358.562118 55.267975 
L 359.61278 55.505971 
L 360.663442 55.267975 
L 361.714104 55.539971 
L 362.764766 55.199976 
L 363.815428 55.471972 
L 364.86609 54.995979 
L 366.967414 54.451987 
L 368.018076 54.587985 
L 369.068738 54.21399 
L 370.1194 54.859981 
L 371.170062 54.791982 
L 372.220724 54.553985 
L 374.322048 54.451987 
L 375.37271 54.281989 
L 376.423372 54.315989 
L 377.474034 54.587985 
L 379.575357 54.009993 
L 380.626019 54.451987 
L 381.676681 53.907995 
L 382.727343 54.315989 
L 383.778005 54.21399 
L 384.828667 53.805996 
L 385.879329 54.179991 
L 387.980653 53.975994 
L 390.081977 53.771997 
L 391.132639 53.941994 
L 392.183301 53.771997 
L 394.284625 53.873995 
L 395.335287 53.703998 
L 397.436611 54.077992 
L 398.487273 53.568 
L 398.487273 53.568 
" style="fill:none;stroke:#ff7f0e;stroke-linecap:square;stroke-width:1.5;"/>
   </g>
   <g id="patch_3">
    <path d="M 57.6 307.584 
L 57.6 41.472 
" style="fill:none;stroke:#000000;stroke-linecap:square;stroke-linejoin:miter;stroke-width:0.8;"/>
   </g>
   <g id="patch_4">
    <path d="M 414.72 307.584 
L 414.72 41.472 
" style="fill:none;stroke:#000000;stroke-linecap:square;stroke-linejoin:miter;stroke-width:0.8;"/>
   </g>
   <g id="patch_5">
    <path d="M 57.6 307.584 
L 414.72 307.584 
" style="fill:none;stroke:#000000;stroke-linecap:square;stroke-linejoin:miter;stroke-width:0.8;"/>
   </g>
   <g id="patch_6">
    <path d="M 57.6 41.472 
L 414.72 41.472 
" style="fill:none;stroke:#000000;stroke-linecap:square;stroke-linejoin:miter;stroke-width:0.8;"/>
   </g>
   <g id="text_21">
    <!-- Training and Validation Accuracy -->
    <g transform="translate(138.4575 35.472)scale(0.12 -0.12)">
     <defs>
      <path d="M -19 4666 
L 3928 4666 
L 3928 4134 
L 2272 4134 
L 2272 0 
L 1638 0 
L 1638 4134 
L -19 4134 
L -19 4666 
z
" id="DejaVuSans-54" transform="scale(0.015625)"/>
      <path d="M 603 3500 
L 1178 3500 
L 1178 0 
L 603 0 
L 603 3500 
z
M 603 4863 
L 1178 4863 
L 1178 4134 
L 603 4134 
L 603 4863 
z
" id="DejaVuSans-69" transform="scale(0.015625)"/>
      <path d="M 3513 2113 
L 3513 0 
L 2938 0 
L 2938 2094 
Q 2938 2591 2744 2837 
Q 2550 3084 2163 3084 
Q 1697 3084 1428 2787 
Q 1159 2491 1159 1978 
L 1159 0 
L 581 0 
L 581 3500 
L 1159 3500 
L 1159 2956 
Q 1366 3272 1645 3428 
Q 1925 3584 2291 3584 
Q 2894 3584 3203 3211 
Q 3513 2838 3513 2113 
z
" id="DejaVuSans-6e" transform="scale(0.015625)"/>
      <path d="M 2906 1791 
Q 2906 2416 2648 2759 
Q 2391 3103 1925 3103 
Q 1463 3103 1205 2759 
Q 947 2416 947 1791 
Q 947 1169 1205 825 
Q 1463 481 1925 481 
Q 2391 481 2648 825 
Q 2906 1169 2906 1791 
z
M 3481 434 
Q 3481 -459 3084 -895 
Q 2688 -1331 1869 -1331 
Q 1566 -1331 1297 -1286 
Q 1028 -1241 775 -1147 
L 775 -588 
Q 1028 -725 1275 -790 
Q 1522 -856 1778 -856 
Q 2344 -856 2625 -561 
Q 2906 -266 2906 331 
L 2906 616 
Q 2728 306 2450 153 
Q 2172 0 1784 0 
Q 1141 0 747 490 
Q 353 981 353 1791 
Q 353 2603 747 3093 
Q 1141 3584 1784 3584 
Q 2172 3584 2450 3431 
Q 2728 3278 2906 2969 
L 2906 3500 
L 3481 3500 
L 3481 434 
z
" id="DejaVuSans-67" transform="scale(0.015625)"/>
      <path id="DejaVuSans-20" transform="scale(0.015625)"/>
      <path d="M 2906 2969 
L 2906 4863 
L 3481 4863 
L 3481 0 
L 2906 0 
L 2906 525 
Q 2725 213 2448 61 
Q 2172 -91 1784 -91 
Q 1150 -91 751 415 
Q 353 922 353 1747 
Q 353 2572 751 3078 
Q 1150 3584 1784 3584 
Q 2172 3584 2448 3432 
Q 2725 3281 2906 2969 
z
M 947 1747 
Q 947 1113 1208 752 
Q 1469 391 1925 391 
Q 2381 391 2643 752 
Q 2906 1113 2906 1747 
Q 2906 2381 2643 2742 
Q 2381 3103 1925 3103 
Q 1469 3103 1208 2742 
Q 947 2381 947 1747 
z
" id="DejaVuSans-64" transform="scale(0.015625)"/>
      <path d="M 1831 0 
L 50 4666 
L 709 4666 
L 2188 738 
L 3669 4666 
L 4325 4666 
L 2547 0 
L 1831 0 
z
" id="DejaVuSans-56" transform="scale(0.015625)"/>
      <path d="M 603 4863 
L 1178 4863 
L 1178 0 
L 603 0 
L 603 4863 
z
" id="DejaVuSans-6c" transform="scale(0.015625)"/>
      <path d="M 1172 4494 
L 1172 3500 
L 2356 3500 
L 2356 3053 
L 1172 3053 
L 1172 1153 
Q 1172 725 1289 603 
Q 1406 481 1766 481 
L 2356 481 
L 2356 0 
L 1766 0 
Q 1100 0 847 248 
Q 594 497 594 1153 
L 594 3053 
L 172 3053 
L 172 3500 
L 594 3500 
L 594 4494 
L 1172 4494 
z
" id="DejaVuSans-74" transform="scale(0.015625)"/>
     </defs>
     <use xlink:href="#DejaVuSans-54"/>
     <use x="46.333984" xlink:href="#DejaVuSans-72"/>
     <use x="87.447266" xlink:href="#DejaVuSans-61"/>
     <use x="148.726562" xlink:href="#DejaVuSans-69"/>
     <use x="176.509766" xlink:href="#DejaVuSans-6e"/>
     <use x="239.888672" xlink:href="#DejaVuSans-69"/>
     <use x="267.671875" xlink:href="#DejaVuSans-6e"/>
     <use x="331.050781" xlink:href="#DejaVuSans-67"/>
     <use x="394.527344" xlink:href="#DejaVuSans-20"/>
     <use x="426.314453" xlink:href="#DejaVuSans-61"/>
     <use x="487.59375" xlink:href="#DejaVuSans-6e"/>
     <use x="550.972656" xlink:href="#DejaVuSans-64"/>
     <use x="614.449219" xlink:href="#DejaVuSans-20"/>
     <use x="646.236328" xlink:href="#DejaVuSans-56"/>
     <use x="706.894531" xlink:href="#DejaVuSans-61"/>
     <use x="768.173828" xlink:href="#DejaVuSans-6c"/>
     <use x="795.957031" xlink:href="#DejaVuSans-69"/>
     <use x="823.740234" xlink:href="#DejaVuSans-64"/>
     <use x="887.216797" xlink:href="#DejaVuSans-61"/>
     <use x="948.496094" xlink:href="#DejaVuSans-74"/>
     <use x="987.705078" xlink:href="#DejaVuSans-69"/>
     <use x="1015.488281" xlink:href="#DejaVuSans-6f"/>
     <use x="1076.669922" xlink:href="#DejaVuSans-6e"/>
     <use x="1140.048828" xlink:href="#DejaVuSans-20"/>
     <use x="1171.835938" xlink:href="#DejaVuSans-41"/>
     <use x="1238.494141" xlink:href="#DejaVuSans-63"/>
     <use x="1293.474609" xlink:href="#DejaVuSans-63"/>
     <use x="1348.455078" xlink:href="#DejaVuSans-75"/>
     <use x="1411.833984" xlink:href="#DejaVuSans-72"/>
     <use x="1452.947266" xlink:href="#DejaVuSans-61"/>
     <use x="1514.226562" xlink:href="#DejaVuSans-63"/>
     <use x="1569.207031" xlink:href="#DejaVuSans-79"/>
    </g>
   </g>
   <g id="legend_1">
    <g id="patch_7">
     <path d="M 277.504375 302.584 
L 407.72 302.584 
Q 409.72 302.584 409.72 300.584 
L 409.72 272.22775 
Q 409.72 270.22775 407.72 270.22775 
L 277.504375 270.22775 
Q 275.504375 270.22775 275.504375 272.22775 
L 275.504375 300.584 
Q 275.504375 302.584 277.504375 302.584 
z
" style="fill:#ffffff;opacity:0.8;stroke:#cccccc;stroke-linejoin:miter;"/>
    </g>
    <g id="line2d_21">
     <path d="M 279.504375 278.326187 
L 299.504375 278.326187 
" style="fill:none;stroke:#1f77b4;stroke-linecap:square;stroke-width:1.5;"/>
    </g>
    <g id="line2d_22"/>
    <g id="text_22">
     <!-- Train Accuracy -->
     <g transform="translate(307.504375 281.826187)scale(0.1 -0.1)">
      <use xlink:href="#DejaVuSans-54"/>
      <use x="46.333984" xlink:href="#DejaVuSans-72"/>
      <use x="87.447266" xlink:href="#DejaVuSans-61"/>
      <use x="148.726562" xlink:href="#DejaVuSans-69"/>
      <use x="176.509766" xlink:href="#DejaVuSans-6e"/>
      <use x="239.888672" xlink:href="#DejaVuSans-20"/>
      <use x="271.675781" xlink:href="#DejaVuSans-41"/>
      <use x="338.333984" xlink:href="#DejaVuSans-63"/>
      <use x="393.314453" xlink:href="#DejaVuSans-63"/>
      <use x="448.294922" xlink:href="#DejaVuSans-75"/>
      <use x="511.673828" xlink:href="#DejaVuSans-72"/>
      <use x="552.787109" xlink:href="#DejaVuSans-61"/>
      <use x="614.066406" xlink:href="#DejaVuSans-63"/>
      <use x="669.046875" xlink:href="#DejaVuSans-79"/>
     </g>
    </g>
    <g id="line2d_23">
     <path d="M 279.504375 293.004312 
L 299.504375 293.004312 
" style="fill:none;stroke:#ff7f0e;stroke-linecap:square;stroke-width:1.5;"/>
    </g>
    <g id="line2d_24"/>
    <g id="text_23">
     <!-- Validation Accuracy -->
     <g transform="translate(307.504375 296.504312)scale(0.1 -0.1)">
      <use xlink:href="#DejaVuSans-56"/>
      <use x="60.658203" xlink:href="#DejaVuSans-61"/>
      <use x="121.9375" xlink:href="#DejaVuSans-6c"/>
      <use x="149.720703" xlink:href="#DejaVuSans-69"/>
      <use x="177.503906" xlink:href="#DejaVuSans-64"/>
      <use x="240.980469" xlink:href="#DejaVuSans-61"/>
      <use x="302.259766" xlink:href="#DejaVuSans-74"/>
      <use x="341.46875" xlink:href="#DejaVuSans-69"/>
      <use x="369.251953" xlink:href="#DejaVuSans-6f"/>
      <use x="430.433594" xlink:href="#DejaVuSans-6e"/>
      <use x="493.8125" xlink:href="#DejaVuSans-20"/>
      <use x="525.599609" xlink:href="#DejaVuSans-41"/>
      <use x="592.257812" xlink:href="#DejaVuSans-63"/>
      <use x="647.238281" xlink:href="#DejaVuSans-63"/>
      <use x="702.21875" xlink:href="#DejaVuSans-75"/>
      <use x="765.597656" xlink:href="#DejaVuSans-72"/>
      <use x="806.710938" xlink:href="#DejaVuSans-61"/>
      <use x="867.990234" xlink:href="#DejaVuSans-63"/>
      <use x="922.970703" xlink:href="#DejaVuSans-79"/>
     </g>
    </g>
   </g>
  </g>
 </g>
 <defs>
  <clipPath id="p6bfa3f2e68">
   <rect height="266.112" width="357.12" x="57.6" y="41.472"/>
  </clipPath>
 </defs>
</svg>
