<?xml version="1.0" encoding="utf-8" standalone="no"?>
<!DOCTYPE svg PUBLIC "-//W3C//DTD SVG 1.1//EN"
  "http://www.w3.org/Graphics/SVG/1.1/DTD/svg11.dtd">
<svg xmlns:xlink="http://www.w3.org/1999/xlink" width="460.8pt" height="345.6pt" viewBox="0 0 460.8 345.6" xmlns="http://www.w3.org/2000/svg" version="1.1">
 <metadata>
  <rdf:RDF xmlns:dc="http://purl.org/dc/elements/1.1/" xmlns:cc="http://creativecommons.org/ns#" xmlns:rdf="http://www.w3.org/1999/02/22-rdf-syntax-ns#">
   <cc:Work>
    <dc:type rdf:resource="http://purl.org/dc/dcmitype/StillImage"/>
    <dc:date>2023-08-24T04:55:36.533973</dc:date>
    <dc:format>image/svg+xml</dc:format>
    <dc:creator>
     <cc:Agent>
      <dc:title>Matplotlib v3.7.0, https://matplotlib.org/</dc:title>
     </cc:Agent>
    </dc:creator>
   </cc:Work>
  </rdf:RDF>
 </metadata>
 <defs>
  <style type="text/css">*{stroke-linejoin: round; stroke-linecap: butt}</style>
 </defs>
 <g id="figure_1">
  <g id="patch_1">
   <path d="M 0 345.6 
L 460.8 345.6 
L 460.8 0 
L 0 0 
z
" style="fill: #ffffff"/>
  </g>
  <g id="axes_1">
   <g id="patch_2">
    <path d="M 57.6 307.584 
L 414.72 307.584 
L 414.72 41.472 
L 57.6 41.472 
z
" style="fill: #ffffff"/>
   </g>
   <g id="matplotlib.axis_1">
    <g id="xtick_1">
     <g id="line2d_1">
      <defs>
       <path id="ma29fca7255" d="M 0 0 
L 0 3.5 
" style="stroke: #000000; stroke-width: 0.8"/>
      </defs>
      <g>
       <use xlink:href="#ma29fca7255" x="73.832727" y="307.584" style="stroke: #000000; stroke-width: 0.8"/>
      </g>
     </g>
     <g id="text_1">
      <!-- 1 -->
      <g transform="translate(70.651477 322.182437) scale(0.1 -0.1)">
       <defs>
        <path id="DejaVuSans-31" d="M 794 531 
L 1825 531 
L 1825 4091 
L 703 3866 
L 703 4441 
L 1819 4666 
L 2450 4666 
L 2450 531 
L 3481 531 
L 3481 0 
L 794 0 
L 794 531 
z
" transform="scale(0.015625)"/>
       </defs>
       <use xlink:href="#DejaVuSans-31"/>
      </g>
     </g>
    </g>
    <g id="xtick_2">
     <g id="line2d_2">
      <g>
       <use xlink:href="#ma29fca7255" x="109.555234" y="307.584" style="stroke: #000000; stroke-width: 0.8"/>
      </g>
     </g>
     <g id="text_2">
      <!-- 35 -->
      <g transform="translate(103.192734 322.182437) scale(0.1 -0.1)">
       <defs>
        <path id="DejaVuSans-33" d="M 2597 2516 
Q 3050 2419 3304 2112 
Q 3559 1806 3559 1356 
Q 3559 666 3084 287 
Q 2609 -91 1734 -91 
Q 1441 -91 1130 -33 
Q 819 25 488 141 
L 488 750 
Q 750 597 1062 519 
Q 1375 441 1716 441 
Q 2309 441 2620 675 
Q 2931 909 2931 1356 
Q 2931 1769 2642 2001 
Q 2353 2234 1838 2234 
L 1294 2234 
L 1294 2753 
L 1863 2753 
Q 2328 2753 2575 2939 
Q 2822 3125 2822 3475 
Q 2822 3834 2567 4026 
Q 2313 4219 1838 4219 
Q 1578 4219 1281 4162 
Q 984 4106 628 3988 
L 628 4550 
Q 988 4650 1302 4700 
Q 1616 4750 1894 4750 
Q 2613 4750 3031 4423 
Q 3450 4097 3450 3541 
Q 3450 3153 3228 2886 
Q 3006 2619 2597 2516 
z
" transform="scale(0.015625)"/>
        <path id="DejaVuSans-35" d="M 691 4666 
L 3169 4666 
L 3169 4134 
L 1269 4134 
L 1269 2991 
Q 1406 3038 1543 3061 
Q 1681 3084 1819 3084 
Q 2600 3084 3056 2656 
Q 3513 2228 3513 1497 
Q 3513 744 3044 326 
Q 2575 -91 1722 -91 
Q 1428 -91 1123 -41 
Q 819 9 494 109 
L 494 744 
Q 775 591 1075 516 
Q 1375 441 1709 441 
Q 2250 441 2565 725 
Q 2881 1009 2881 1497 
Q 2881 1984 2565 2268 
Q 2250 2553 1709 2553 
Q 1456 2553 1204 2497 
Q 953 2441 691 2322 
L 691 4666 
z
" transform="scale(0.015625)"/>
       </defs>
       <use xlink:href="#DejaVuSans-33"/>
       <use xlink:href="#DejaVuSans-35" x="63.623047"/>
      </g>
     </g>
    </g>
    <g id="xtick_3">
     <g id="line2d_3">
      <g>
       <use xlink:href="#ma29fca7255" x="145.277741" y="307.584" style="stroke: #000000; stroke-width: 0.8"/>
      </g>
     </g>
     <g id="text_3">
      <!-- 69 -->
      <g transform="translate(138.915241 322.182437) scale(0.1 -0.1)">
       <defs>
        <path id="DejaVuSans-36" d="M 2113 2584 
Q 1688 2584 1439 2293 
Q 1191 2003 1191 1497 
Q 1191 994 1439 701 
Q 1688 409 2113 409 
Q 2538 409 2786 701 
Q 3034 994 3034 1497 
Q 3034 2003 2786 2293 
Q 2538 2584 2113 2584 
z
M 3366 4563 
L 3366 3988 
Q 3128 4100 2886 4159 
Q 2644 4219 2406 4219 
Q 1781 4219 1451 3797 
Q 1122 3375 1075 2522 
Q 1259 2794 1537 2939 
Q 1816 3084 2150 3084 
Q 2853 3084 3261 2657 
Q 3669 2231 3669 1497 
Q 3669 778 3244 343 
Q 2819 -91 2113 -91 
Q 1303 -91 875 529 
Q 447 1150 447 2328 
Q 447 3434 972 4092 
Q 1497 4750 2381 4750 
Q 2619 4750 2861 4703 
Q 3103 4656 3366 4563 
z
" transform="scale(0.015625)"/>
        <path id="DejaVuSans-39" d="M 703 97 
L 703 672 
Q 941 559 1184 500 
Q 1428 441 1663 441 
Q 2288 441 2617 861 
Q 2947 1281 2994 2138 
Q 2813 1869 2534 1725 
Q 2256 1581 1919 1581 
Q 1219 1581 811 2004 
Q 403 2428 403 3163 
Q 403 3881 828 4315 
Q 1253 4750 1959 4750 
Q 2769 4750 3195 4129 
Q 3622 3509 3622 2328 
Q 3622 1225 3098 567 
Q 2575 -91 1691 -91 
Q 1453 -91 1209 -44 
Q 966 3 703 97 
z
M 1959 2075 
Q 2384 2075 2632 2365 
Q 2881 2656 2881 3163 
Q 2881 3666 2632 3958 
Q 2384 4250 1959 4250 
Q 1534 4250 1286 3958 
Q 1038 3666 1038 3163 
Q 1038 2656 1286 2365 
Q 1534 2075 1959 2075 
z
" transform="scale(0.015625)"/>
       </defs>
       <use xlink:href="#DejaVuSans-36"/>
       <use xlink:href="#DejaVuSans-39" x="63.623047"/>
      </g>
     </g>
    </g>
    <g id="xtick_4">
     <g id="line2d_4">
      <g>
       <use xlink:href="#ma29fca7255" x="182.050909" y="307.584" style="stroke: #000000; stroke-width: 0.8"/>
      </g>
     </g>
     <g id="text_4">
      <!-- 104 -->
      <g transform="translate(172.507159 322.182437) scale(0.1 -0.1)">
       <defs>
        <path id="DejaVuSans-30" d="M 2034 4250 
Q 1547 4250 1301 3770 
Q 1056 3291 1056 2328 
Q 1056 1369 1301 889 
Q 1547 409 2034 409 
Q 2525 409 2770 889 
Q 3016 1369 3016 2328 
Q 3016 3291 2770 3770 
Q 2525 4250 2034 4250 
z
M 2034 4750 
Q 2819 4750 3233 4129 
Q 3647 3509 3647 2328 
Q 3647 1150 3233 529 
Q 2819 -91 2034 -91 
Q 1250 -91 836 529 
Q 422 1150 422 2328 
Q 422 3509 836 4129 
Q 1250 4750 2034 4750 
z
" transform="scale(0.015625)"/>
        <path id="DejaVuSans-34" d="M 2419 4116 
L 825 1625 
L 2419 1625 
L 2419 4116 
z
M 2253 4666 
L 3047 4666 
L 3047 1625 
L 3713 1625 
L 3713 1100 
L 3047 1100 
L 3047 0 
L 2419 0 
L 2419 1100 
L 313 1100 
L 313 1709 
L 2253 4666 
z
" transform="scale(0.015625)"/>
       </defs>
       <use xlink:href="#DejaVuSans-31"/>
       <use xlink:href="#DejaVuSans-30" x="63.623047"/>
       <use xlink:href="#DejaVuSans-34" x="127.246094"/>
      </g>
     </g>
    </g>
    <g id="xtick_5">
     <g id="line2d_5">
      <g>
       <use xlink:href="#ma29fca7255" x="217.773416" y="307.584" style="stroke: #000000; stroke-width: 0.8"/>
      </g>
     </g>
     <g id="text_5">
      <!-- 138 -->
      <g transform="translate(208.229666 322.182437) scale(0.1 -0.1)">
       <defs>
        <path id="DejaVuSans-38" d="M 2034 2216 
Q 1584 2216 1326 1975 
Q 1069 1734 1069 1313 
Q 1069 891 1326 650 
Q 1584 409 2034 409 
Q 2484 409 2743 651 
Q 3003 894 3003 1313 
Q 3003 1734 2745 1975 
Q 2488 2216 2034 2216 
z
M 1403 2484 
Q 997 2584 770 2862 
Q 544 3141 544 3541 
Q 544 4100 942 4425 
Q 1341 4750 2034 4750 
Q 2731 4750 3128 4425 
Q 3525 4100 3525 3541 
Q 3525 3141 3298 2862 
Q 3072 2584 2669 2484 
Q 3125 2378 3379 2068 
Q 3634 1759 3634 1313 
Q 3634 634 3220 271 
Q 2806 -91 2034 -91 
Q 1263 -91 848 271 
Q 434 634 434 1313 
Q 434 1759 690 2068 
Q 947 2378 1403 2484 
z
M 1172 3481 
Q 1172 3119 1398 2916 
Q 1625 2713 2034 2713 
Q 2441 2713 2670 2916 
Q 2900 3119 2900 3481 
Q 2900 3844 2670 4047 
Q 2441 4250 2034 4250 
Q 1625 4250 1398 4047 
Q 1172 3844 1172 3481 
z
" transform="scale(0.015625)"/>
       </defs>
       <use xlink:href="#DejaVuSans-31"/>
       <use xlink:href="#DejaVuSans-33" x="63.623047"/>
       <use xlink:href="#DejaVuSans-38" x="127.246094"/>
      </g>
     </g>
    </g>
    <g id="xtick_6">
     <g id="line2d_6">
      <g>
       <use xlink:href="#ma29fca7255" x="253.495922" y="307.584" style="stroke: #000000; stroke-width: 0.8"/>
      </g>
     </g>
     <g id="text_6">
      <!-- 172 -->
      <g transform="translate(243.952172 322.182437) scale(0.1 -0.1)">
       <defs>
        <path id="DejaVuSans-37" d="M 525 4666 
L 3525 4666 
L 3525 4397 
L 1831 0 
L 1172 0 
L 2766 4134 
L 525 4134 
L 525 4666 
z
" transform="scale(0.015625)"/>
        <path id="DejaVuSans-32" d="M 1228 531 
L 3431 531 
L 3431 0 
L 469 0 
L 469 531 
Q 828 903 1448 1529 
Q 2069 2156 2228 2338 
Q 2531 2678 2651 2914 
Q 2772 3150 2772 3378 
Q 2772 3750 2511 3984 
Q 2250 4219 1831 4219 
Q 1534 4219 1204 4116 
Q 875 4013 500 3803 
L 500 4441 
Q 881 4594 1212 4672 
Q 1544 4750 1819 4750 
Q 2544 4750 2975 4387 
Q 3406 4025 3406 3419 
Q 3406 3131 3298 2873 
Q 3191 2616 2906 2266 
Q 2828 2175 2409 1742 
Q 1991 1309 1228 531 
z
" transform="scale(0.015625)"/>
       </defs>
       <use xlink:href="#DejaVuSans-31"/>
       <use xlink:href="#DejaVuSans-37" x="63.623047"/>
       <use xlink:href="#DejaVuSans-32" x="127.246094"/>
      </g>
     </g>
    </g>
    <g id="xtick_7">
     <g id="line2d_7">
      <g>
       <use xlink:href="#ma29fca7255" x="290.269091" y="307.584" style="stroke: #000000; stroke-width: 0.8"/>
      </g>
     </g>
     <g id="text_7">
      <!-- 207 -->
      <g transform="translate(280.725341 322.182437) scale(0.1 -0.1)">
       <use xlink:href="#DejaVuSans-32"/>
       <use xlink:href="#DejaVuSans-30" x="63.623047"/>
       <use xlink:href="#DejaVuSans-37" x="127.246094"/>
      </g>
     </g>
    </g>
    <g id="xtick_8">
     <g id="line2d_8">
      <g>
       <use xlink:href="#ma29fca7255" x="325.991598" y="307.584" style="stroke: #000000; stroke-width: 0.8"/>
      </g>
     </g>
     <g id="text_8">
      <!-- 241 -->
      <g transform="translate(316.447848 322.182437) scale(0.1 -0.1)">
       <use xlink:href="#DejaVuSans-32"/>
       <use xlink:href="#DejaVuSans-34" x="63.623047"/>
       <use xlink:href="#DejaVuSans-31" x="127.246094"/>
      </g>
     </g>
    </g>
    <g id="xtick_9">
     <g id="line2d_9">
      <g>
       <use xlink:href="#ma29fca7255" x="361.714104" y="307.584" style="stroke: #000000; stroke-width: 0.8"/>
      </g>
     </g>
     <g id="text_9">
      <!-- 275 -->
      <g transform="translate(352.170354 322.182437) scale(0.1 -0.1)">
       <use xlink:href="#DejaVuSans-32"/>
       <use xlink:href="#DejaVuSans-37" x="63.623047"/>
       <use xlink:href="#DejaVuSans-35" x="127.246094"/>
      </g>
     </g>
    </g>
    <g id="xtick_10">
     <g id="line2d_10">
      <g>
       <use xlink:href="#ma29fca7255" x="398.487273" y="307.584" style="stroke: #000000; stroke-width: 0.8"/>
      </g>
     </g>
     <g id="text_10">
      <!-- 310 -->
      <g transform="translate(388.943523 322.182437) scale(0.1 -0.1)">
       <use xlink:href="#DejaVuSans-33"/>
       <use xlink:href="#DejaVuSans-31" x="63.623047"/>
       <use xlink:href="#DejaVuSans-30" x="127.246094"/>
      </g>
     </g>
    </g>
    <g id="text_11">
     <!-- Epochs -->
     <g transform="translate(218.244375 335.860562) scale(0.1 -0.1)">
      <defs>
       <path id="DejaVuSans-45" d="M 628 4666 
L 3578 4666 
L 3578 4134 
L 1259 4134 
L 1259 2753 
L 3481 2753 
L 3481 2222 
L 1259 2222 
L 1259 531 
L 3634 531 
L 3634 0 
L 628 0 
L 628 4666 
z
" transform="scale(0.015625)"/>
       <path id="DejaVuSans-70" d="M 1159 525 
L 1159 -1331 
L 581 -1331 
L 581 3500 
L 1159 3500 
L 1159 2969 
Q 1341 3281 1617 3432 
Q 1894 3584 2278 3584 
Q 2916 3584 3314 3078 
Q 3713 2572 3713 1747 
Q 3713 922 3314 415 
Q 2916 -91 2278 -91 
Q 1894 -91 1617 61 
Q 1341 213 1159 525 
z
M 3116 1747 
Q 3116 2381 2855 2742 
Q 2594 3103 2138 3103 
Q 1681 3103 1420 2742 
Q 1159 2381 1159 1747 
Q 1159 1113 1420 752 
Q 1681 391 2138 391 
Q 2594 391 2855 752 
Q 3116 1113 3116 1747 
z
" transform="scale(0.015625)"/>
       <path id="DejaVuSans-6f" d="M 1959 3097 
Q 1497 3097 1228 2736 
Q 959 2375 959 1747 
Q 959 1119 1226 758 
Q 1494 397 1959 397 
Q 2419 397 2687 759 
Q 2956 1122 2956 1747 
Q 2956 2369 2687 2733 
Q 2419 3097 1959 3097 
z
M 1959 3584 
Q 2709 3584 3137 3096 
Q 3566 2609 3566 1747 
Q 3566 888 3137 398 
Q 2709 -91 1959 -91 
Q 1206 -91 779 398 
Q 353 888 353 1747 
Q 353 2609 779 3096 
Q 1206 3584 1959 3584 
z
" transform="scale(0.015625)"/>
       <path id="DejaVuSans-63" d="M 3122 3366 
L 3122 2828 
Q 2878 2963 2633 3030 
Q 2388 3097 2138 3097 
Q 1578 3097 1268 2742 
Q 959 2388 959 1747 
Q 959 1106 1268 751 
Q 1578 397 2138 397 
Q 2388 397 2633 464 
Q 2878 531 3122 666 
L 3122 134 
Q 2881 22 2623 -34 
Q 2366 -91 2075 -91 
Q 1284 -91 818 406 
Q 353 903 353 1747 
Q 353 2603 823 3093 
Q 1294 3584 2113 3584 
Q 2378 3584 2631 3529 
Q 2884 3475 3122 3366 
z
" transform="scale(0.015625)"/>
       <path id="DejaVuSans-68" d="M 3513 2113 
L 3513 0 
L 2938 0 
L 2938 2094 
Q 2938 2591 2744 2837 
Q 2550 3084 2163 3084 
Q 1697 3084 1428 2787 
Q 1159 2491 1159 1978 
L 1159 0 
L 581 0 
L 581 4863 
L 1159 4863 
L 1159 2956 
Q 1366 3272 1645 3428 
Q 1925 3584 2291 3584 
Q 2894 3584 3203 3211 
Q 3513 2838 3513 2113 
z
" transform="scale(0.015625)"/>
       <path id="DejaVuSans-73" d="M 2834 3397 
L 2834 2853 
Q 2591 2978 2328 3040 
Q 2066 3103 1784 3103 
Q 1356 3103 1142 2972 
Q 928 2841 928 2578 
Q 928 2378 1081 2264 
Q 1234 2150 1697 2047 
L 1894 2003 
Q 2506 1872 2764 1633 
Q 3022 1394 3022 966 
Q 3022 478 2636 193 
Q 2250 -91 1575 -91 
Q 1294 -91 989 -36 
Q 684 19 347 128 
L 347 722 
Q 666 556 975 473 
Q 1284 391 1588 391 
Q 1994 391 2212 530 
Q 2431 669 2431 922 
Q 2431 1156 2273 1281 
Q 2116 1406 1581 1522 
L 1381 1569 
Q 847 1681 609 1914 
Q 372 2147 372 2553 
Q 372 3047 722 3315 
Q 1072 3584 1716 3584 
Q 2034 3584 2315 3537 
Q 2597 3491 2834 3397 
z
" transform="scale(0.015625)"/>
      </defs>
      <use xlink:href="#DejaVuSans-45"/>
      <use xlink:href="#DejaVuSans-70" x="63.183594"/>
      <use xlink:href="#DejaVuSans-6f" x="126.660156"/>
      <use xlink:href="#DejaVuSans-63" x="187.841797"/>
      <use xlink:href="#DejaVuSans-68" x="242.822266"/>
      <use xlink:href="#DejaVuSans-73" x="306.201172"/>
     </g>
    </g>
   </g>
   <g id="matplotlib.axis_2">
    <g id="ytick_1">
     <g id="line2d_11">
      <defs>
       <path id="m3de94653ca" d="M 0 0 
L -3.5 0 
" style="stroke: #000000; stroke-width: 0.8"/>
      </defs>
      <g>
       <use xlink:href="#m3de94653ca" x="57.6" y="284.051757" style="stroke: #000000; stroke-width: 0.8"/>
      </g>
     </g>
     <g id="text_12">
      <!-- 30 -->
      <g transform="translate(37.875 287.850975) scale(0.1 -0.1)">
       <use xlink:href="#DejaVuSans-33"/>
       <use xlink:href="#DejaVuSans-30" x="63.623047"/>
      </g>
     </g>
    </g>
    <g id="ytick_2">
     <g id="line2d_12">
      <g>
       <use xlink:href="#m3de94653ca" x="57.6" y="249.563689" style="stroke: #000000; stroke-width: 0.8"/>
      </g>
     </g>
     <g id="text_13">
      <!-- 40 -->
      <g transform="translate(37.875 253.362908) scale(0.1 -0.1)">
       <use xlink:href="#DejaVuSans-34"/>
       <use xlink:href="#DejaVuSans-30" x="63.623047"/>
      </g>
     </g>
    </g>
    <g id="ytick_3">
     <g id="line2d_13">
      <g>
       <use xlink:href="#m3de94653ca" x="57.6" y="215.075621" style="stroke: #000000; stroke-width: 0.8"/>
      </g>
     </g>
     <g id="text_14">
      <!-- 50 -->
      <g transform="translate(37.875 218.87484) scale(0.1 -0.1)">
       <use xlink:href="#DejaVuSans-35"/>
       <use xlink:href="#DejaVuSans-30" x="63.623047"/>
      </g>
     </g>
    </g>
    <g id="ytick_4">
     <g id="line2d_14">
      <g>
       <use xlink:href="#m3de94653ca" x="57.6" y="180.587554" style="stroke: #000000; stroke-width: 0.8"/>
      </g>
     </g>
     <g id="text_15">
      <!-- 60 -->
      <g transform="translate(37.875 184.386772) scale(0.1 -0.1)">
       <use xlink:href="#DejaVuSans-36"/>
       <use xlink:href="#DejaVuSans-30" x="63.623047"/>
      </g>
     </g>
    </g>
    <g id="ytick_5">
     <g id="line2d_15">
      <g>
       <use xlink:href="#m3de94653ca" x="57.6" y="146.099486" style="stroke: #000000; stroke-width: 0.8"/>
      </g>
     </g>
     <g id="text_16">
      <!-- 70 -->
      <g transform="translate(37.875 149.898705) scale(0.1 -0.1)">
       <use xlink:href="#DejaVuSans-37"/>
       <use xlink:href="#DejaVuSans-30" x="63.623047"/>
      </g>
     </g>
    </g>
    <g id="ytick_6">
     <g id="line2d_16">
      <g>
       <use xlink:href="#m3de94653ca" x="57.6" y="111.611418" style="stroke: #000000; stroke-width: 0.8"/>
      </g>
     </g>
     <g id="text_17">
      <!-- 80 -->
      <g transform="translate(37.875 115.410637) scale(0.1 -0.1)">
       <use xlink:href="#DejaVuSans-38"/>
       <use xlink:href="#DejaVuSans-30" x="63.623047"/>
      </g>
     </g>
    </g>
    <g id="ytick_7">
     <g id="line2d_17">
      <g>
       <use xlink:href="#m3de94653ca" x="57.6" y="77.12335" style="stroke: #000000; stroke-width: 0.8"/>
      </g>
     </g>
     <g id="text_18">
      <!-- 90 -->
      <g transform="translate(37.875 80.922569) scale(0.1 -0.1)">
       <use xlink:href="#DejaVuSans-39"/>
       <use xlink:href="#DejaVuSans-30" x="63.623047"/>
      </g>
     </g>
    </g>
    <g id="ytick_8">
     <g id="line2d_18">
      <g>
       <use xlink:href="#m3de94653ca" x="57.6" y="42.635283" style="stroke: #000000; stroke-width: 0.8"/>
      </g>
     </g>
     <g id="text_19">
      <!-- 100 -->
      <g transform="translate(31.5125 46.434501) scale(0.1 -0.1)">
       <use xlink:href="#DejaVuSans-31"/>
       <use xlink:href="#DejaVuSans-30" x="63.623047"/>
       <use xlink:href="#DejaVuSans-30" x="127.246094"/>
      </g>
     </g>
    </g>
    <g id="text_20">
     <!-- Accuracy -->
     <g transform="translate(25.432812 197.356125) rotate(-90) scale(0.1 -0.1)">
      <defs>
       <path id="DejaVuSans-41" d="M 2188 4044 
L 1331 1722 
L 3047 1722 
L 2188 4044 
z
M 1831 4666 
L 2547 4666 
L 4325 0 
L 3669 0 
L 3244 1197 
L 1141 1197 
L 716 0 
L 50 0 
L 1831 4666 
z
" transform="scale(0.015625)"/>
       <path id="DejaVuSans-75" d="M 544 1381 
L 544 3500 
L 1119 3500 
L 1119 1403 
Q 1119 906 1312 657 
Q 1506 409 1894 409 
Q 2359 409 2629 706 
Q 2900 1003 2900 1516 
L 2900 3500 
L 3475 3500 
L 3475 0 
L 2900 0 
L 2900 538 
Q 2691 219 2414 64 
Q 2138 -91 1772 -91 
Q 1169 -91 856 284 
Q 544 659 544 1381 
z
M 1991 3584 
L 1991 3584 
z
" transform="scale(0.015625)"/>
       <path id="DejaVuSans-72" d="M 2631 2963 
Q 2534 3019 2420 3045 
Q 2306 3072 2169 3072 
Q 1681 3072 1420 2755 
Q 1159 2438 1159 1844 
L 1159 0 
L 581 0 
L 581 3500 
L 1159 3500 
L 1159 2956 
Q 1341 3275 1631 3429 
Q 1922 3584 2338 3584 
Q 2397 3584 2469 3576 
Q 2541 3569 2628 3553 
L 2631 2963 
z
" transform="scale(0.015625)"/>
       <path id="DejaVuSans-61" d="M 2194 1759 
Q 1497 1759 1228 1600 
Q 959 1441 959 1056 
Q 959 750 1161 570 
Q 1363 391 1709 391 
Q 2188 391 2477 730 
Q 2766 1069 2766 1631 
L 2766 1759 
L 2194 1759 
z
M 3341 1997 
L 3341 0 
L 2766 0 
L 2766 531 
Q 2569 213 2275 61 
Q 1981 -91 1556 -91 
Q 1019 -91 701 211 
Q 384 513 384 1019 
Q 384 1609 779 1909 
Q 1175 2209 1959 2209 
L 2766 2209 
L 2766 2266 
Q 2766 2663 2505 2880 
Q 2244 3097 1772 3097 
Q 1472 3097 1187 3025 
Q 903 2953 641 2809 
L 641 3341 
Q 956 3463 1253 3523 
Q 1550 3584 1831 3584 
Q 2591 3584 2966 3190 
Q 3341 2797 3341 1997 
z
" transform="scale(0.015625)"/>
       <path id="DejaVuSans-79" d="M 2059 -325 
Q 1816 -950 1584 -1140 
Q 1353 -1331 966 -1331 
L 506 -1331 
L 506 -850 
L 844 -850 
Q 1081 -850 1212 -737 
Q 1344 -625 1503 -206 
L 1606 56 
L 191 3500 
L 800 3500 
L 1894 763 
L 2988 3500 
L 3597 3500 
L 2059 -325 
z
" transform="scale(0.015625)"/>
      </defs>
      <use xlink:href="#DejaVuSans-41"/>
      <use xlink:href="#DejaVuSans-63" x="66.658203"/>
      <use xlink:href="#DejaVuSans-63" x="121.638672"/>
      <use xlink:href="#DejaVuSans-75" x="176.619141"/>
      <use xlink:href="#DejaVuSans-72" x="239.998047"/>
      <use xlink:href="#DejaVuSans-61" x="281.111328"/>
      <use xlink:href="#DejaVuSans-63" x="342.390625"/>
      <use xlink:href="#DejaVuSans-79" x="397.371094"/>
     </g>
    </g>
   </g>
   <g id="line2d_19">
    <path d="M 73.832727 295.488 
L 74.883389 252.36412 
L 75.934051 223.732126 
L 76.984713 204.722303 
L 78.035375 190.961564 
L 80.136699 166.323289 
L 81.187361 158.280671 
L 82.238023 151.155436 
L 83.288685 146.299517 
L 84.339347 176.255852 
L 85.390009 166.640579 
L 86.440671 160.16372 
L 87.491333 154.611141 
L 91.693981 137.553343 
L 95.896628 123.951249 
L 96.94729 119.971326 
L 99.048614 115.798269 
L 100.099276 112.18392 
L 102.2006 107.803935 
L 103.251262 108.39713 
L 104.301924 105.996761 
L 105.352586 135.573727 
L 106.403248 131.745552 
L 107.45391 129.64178 
L 108.504572 126.786168 
L 110.605896 123.882273 
L 111.656558 121.599162 
L 112.70722 120.585213 
L 113.757882 119.226383 
L 114.808544 116.405259 
L 115.859206 116.89499 
L 116.909868 114.398054 
L 117.96053 112.197715 
L 119.011192 111.425182 
L 120.061853 110.452619 
L 121.112515 108.114328 
L 122.163177 106.624443 
L 123.213839 104.658624 
L 125.315163 102.803166 
L 126.365825 101.133943 
L 127.416487 101.078762 
L 128.467149 98.609416 
L 129.517811 97.388539 
L 130.568473 96.57462 
L 131.619135 94.884705 
L 133.720459 92.15325 
L 134.771121 90.339178 
L 135.821783 89.463181 
L 136.872445 89.23556 
L 137.923107 87.835344 
L 141.075093 85.034913 
L 143.176417 84.331356 
L 144.227079 84.069247 
L 145.277741 83.600209 
L 146.328402 84.72452 
L 147.379064 110.438824 
L 148.429726 108.679932 
L 149.480388 107.941888 
L 150.53105 107.886707 
L 151.581712 105.776037 
L 153.683036 105.769139 
L 154.733698 104.058531 
L 155.78436 102.858346 
L 156.835022 101.899578 
L 157.885684 101.927169 
L 158.936346 101.699547 
L 161.03767 100.389001 
L 163.138994 98.064505 
L 164.189656 97.429925 
L 165.240318 97.505798 
L 166.29098 97.278177 
L 167.341642 96.098685 
L 168.392304 96.657392 
L 170.493628 95.070941 
L 171.544289 93.553466 
L 172.594951 93.353435 
L 173.645613 92.925783 
L 174.696275 91.918731 
L 175.746937 91.98081 
L 177.848261 90.146045 
L 178.898923 89.539055 
L 179.949585 90.30469 
L 181.000247 88.545798 
L 182.050909 88.856191 
L 183.101571 86.145429 
L 184.152233 87.524952 
L 185.202895 86.745521 
L 186.253557 85.455667 
L 187.304219 85.207353 
L 188.354881 83.641595 
L 189.405543 84.124428 
L 190.456205 82.717315 
L 191.506867 82.013758 
L 192.557529 82.606953 
L 194.658853 82.158608 
L 195.709515 80.696314 
L 196.760177 80.841164 
L 197.810838 80.310048 
L 198.8615 79.240918 
L 199.912162 77.709647 
L 200.962824 77.813112 
L 202.013486 77.709647 
L 203.064148 77.337176 
L 204.11481 77.144043 
L 206.216134 75.895575 
L 207.266796 75.054066 
L 208.317458 74.488462 
L 209.36812 74.626414 
L 210.418782 73.633158 
L 211.469444 73.074451 
L 212.520106 72.964089 
L 213.570768 72.646799 
L 215.672092 72.612311 
L 216.722754 71.1983 
L 217.773416 71.446614 
L 218.824078 71.384536 
L 219.87474 71.708724 
L 220.925402 69.680825 
L 221.976064 70.27402 
L 223.026726 69.591156 
L 224.077387 70.646491 
L 225.128049 70.287815 
L 226.178711 70.108477 
L 227.229373 70.549925 
L 229.330697 69.742904 
L 230.381359 70.191249 
L 231.432021 95.064043 
L 232.482683 93.953527 
L 233.533345 94.760548 
L 234.584007 93.994913 
L 235.634669 93.594851 
L 236.685331 94.788139 
L 237.735993 91.684212 
L 238.786655 92.284305 
L 239.837317 93.719008 
L 240.887979 91.960117 
L 241.938641 91.153096 
L 242.989303 90.856499 
L 244.039965 91.635929 
L 245.090627 90.959963 
L 246.141289 90.484028 
L 247.191951 89.311433 
L 248.242613 89.573543 
L 249.293274 90.559901 
L 250.343936 89.787369 
L 251.394598 88.752727 
L 252.44526 88.345768 
L 254.546584 88.387153 
L 255.597246 88.94586 
L 256.647908 88.545798 
L 257.69857 86.917962 
L 258.749232 87.062811 
L 259.799894 88.525105 
L 260.850556 87.345614 
L 261.901218 86.966245 
L 262.95188 86.786907 
L 265.053204 86.117838 
L 266.103866 87.173173 
L 267.154528 86.124736 
L 268.20519 86.297176 
L 269.255852 85.13148 
L 270.306514 85.759162 
L 271.357176 84.593466 
L 272.407838 86.324767 
L 274.509162 85.083196 
L 275.559823 82.951834 
L 276.610485 84.717623 
L 277.661147 83.814035 
L 278.711809 83.786445 
L 279.762471 84.827985 
L 280.813133 82.889755 
L 282.914457 82.227584 
L 283.965119 82.255175 
L 285.015781 83.51054 
L 286.066443 82.379332 
L 287.117105 82.834574 
L 288.167767 81.737854 
L 289.218429 81.234328 
L 290.269091 81.05499 
L 291.319753 81.289509 
L 292.370415 80.723905 
L 293.421077 80.944628 
L 294.471739 79.834112 
L 295.522401 79.613389 
L 296.573063 79.792727 
L 297.623725 79.337484 
L 298.674387 79.268508 
L 299.725049 80.903242 
L 300.775711 79.620286 
L 302.877034 78.130402 
L 303.927696 78.447692 
L 304.978358 78.19248 
L 306.02902 77.399255 
L 307.079682 77.192326 
L 308.130344 78.220071 
L 309.181006 78.199378 
L 310.231668 76.909524 
L 311.28233 77.544105 
L 312.332992 75.695544 
L 313.383654 75.074759 
L 314.434316 76.895729 
L 315.484978 76.447384 
L 316.53564 75.571387 
L 317.586302 75.219609 
L 318.636964 75.081657 
L 319.687626 75.205814 
L 321.78895 74.3781 
L 322.839612 73.881472 
L 324.940936 73.998731 
L 327.042259 73.033065 
L 328.092921 73.798701 
L 330.194245 71.336253 
L 331.244907 73.143427 
L 332.295569 71.570771 
L 333.346231 71.763905 
L 334.396893 70.805136 
L 335.447555 70.915498 
L 336.498217 70.27402 
L 337.548879 70.549925 
L 338.599541 70.632696 
L 339.650203 69.508385 
L 340.700865 69.34974 
L 341.751527 70.136068 
L 342.802189 69.653235 
L 343.852851 68.418562 
L 344.903513 69.115221 
L 345.954175 68.052988 
L 347.004837 69.370433 
L 348.055499 68.791033 
L 350.156823 68.142657 
L 351.207485 67.590848 
L 352.258147 67.245968 
L 353.308808 67.99091 
L 354.35947 67.025244 
L 356.460794 66.652773 
L 357.511456 66.473435 
L 358.562118 66.494128 
L 359.61278 65.804366 
L 360.663442 66.121657 
L 361.714104 66.321687 
L 364.86609 65.1284 
L 365.916752 65.383612 
L 366.967414 65.024936 
L 370.1194 64.617977 
L 371.170062 64.935267 
L 373.271386 63.707492 
L 374.322048 63.852342 
L 375.37271 63.604028 
L 380.626019 63.507461 
L 381.676681 63.1074 
L 382.727343 62.84529 
L 383.778005 62.431433 
L 384.828667 62.50041 
L 385.879329 63.417792 
L 386.929991 63.245352 
L 387.980653 62.569386 
L 389.031315 62.638362 
L 390.081977 62.590079 
L 391.132639 63.272942 
L 392.183301 62.548693 
L 393.233963 62.417638 
L 394.284625 62.465921 
L 395.335287 62.948754 
L 396.385949 61.845136 
L 397.436611 62.35556 
L 398.487273 62.258993 
L 398.487273 62.258993 
" clip-path="url(#p718584726e)" style="fill: none; stroke: #1f77b4; stroke-width: 1.5; stroke-linecap: square"/>
   </g>
   <g id="line2d_20">
    <path d="M 73.832727 252.012342 
L 74.883389 237.492865 
L 75.934051 204.38432 
L 76.984713 175.724736 
L 78.035375 157.204644 
L 79.086037 165.240363 
L 80.136699 137.339517 
L 81.187361 141.20218 
L 83.288685 121.061149 
L 84.339347 179.828816 
L 85.390009 155.859609 
L 86.440671 172.310417 
L 87.491333 166.033589 
L 88.541995 160.65345 
L 89.592657 126.786168 
L 90.643319 166.412958 
L 91.693981 114.301487 
L 92.744643 99.678547 
L 93.795305 116.543212 
L 94.845966 114.43944 
L 95.896628 102.506568 
L 96.94729 103.782627 
L 97.997952 88.469925 
L 99.048614 94.09148 
L 100.099276 86.814497 
L 101.149938 85.572927 
L 102.2006 87.262842 
L 103.251262 86.504105 
L 104.301924 85.228046 
L 105.352586 115.129201 
L 106.403248 125.648062 
L 107.45391 100.33382 
L 108.504572 103.299794 
L 109.555234 100.920117 
L 110.605896 125.889478 
L 111.656558 101.851295 
L 112.70722 89.642519 
L 113.757882 97.540286 
L 114.808544 91.366922 
L 115.859206 97.747215 
L 116.909868 98.264536 
L 117.96053 85.710879 
L 119.011192 89.711495 
L 120.061853 101.368462 
L 121.112515 83.710571 
L 122.163177 89.504567 
L 123.213839 81.261918 
L 124.264501 89.952911 
L 125.315163 85.469463 
L 126.365825 87.12489 
L 127.416487 77.12335 
L 128.467149 76.77847 
L 129.517811 78.778778 
L 130.568473 75.295483 
L 132.669797 78.19248 
L 133.720459 74.295329 
L 134.771121 72.605413 
L 135.821783 69.122119 
L 136.872445 69.777392 
L 137.923107 71.467307 
L 138.973769 68.501333 
L 140.024431 66.673466 
L 141.075093 67.225275 
L 142.125755 69.708416 
L 143.176417 65.88024 
L 144.227079 67.294251 
L 145.277741 68.328893 
L 146.328402 66.880394 
L 147.379064 90.849601 
L 148.429726 80.365229 
L 149.480388 83.469155 
L 150.53105 98.954297 
L 151.581712 81.330895 
L 152.632374 80.020348 
L 153.683036 99.368154 
L 154.733698 77.882088 
L 155.78436 78.813266 
L 156.835022 82.606953 
L 157.885684 74.743674 
L 158.936346 75.812804 
L 159.987008 78.606337 
L 161.03767 75.019578 
L 162.088332 86.021272 
L 163.138994 79.330587 
L 164.189656 80.710109 
L 165.240318 80.296253 
L 166.29098 71.915652 
L 167.341642 75.398947 
L 168.392304 70.398177 
L 169.442966 75.916268 
L 170.493628 73.605567 
L 171.544289 72.743366 
L 172.594951 74.053912 
L 173.645613 70.88101 
L 174.696275 72.295021 
L 175.746937 71.260379 
L 176.797599 69.225583 
L 177.848261 68.328893 
L 178.898923 69.122119 
L 179.949585 71.467307 
L 181.000247 67.949524 
L 182.050909 72.639901 
L 183.101571 68.363381 
L 184.152233 67.294251 
L 185.202895 67.535667 
L 186.253557 65.983704 
L 187.304219 65.018038 
L 188.354881 67.052834 
L 189.405543 67.501179 
L 190.456205 70.363689 
L 191.506867 64.190325 
L 192.557529 68.190941 
L 193.608191 67.501179 
L 194.658853 67.915036 
L 195.709515 68.190941 
L 196.760177 66.638978 
L 197.810838 66.397561 
L 198.8615 66.328585 
L 199.912162 64.500717 
L 200.962824 61.155375 
L 202.013486 60.638054 
L 203.064148 63.293635 
L 204.11481 62.983242 
L 205.165472 60.70703 
L 206.216134 61.534744 
L 207.266796 61.293327 
L 208.317458 58.879162 
L 209.36812 61.258839 
L 210.418782 59.775852 
L 211.469444 60.086245 
L 212.520106 59.844828 
L 213.570768 59.396483 
L 215.672092 60.982935 
L 216.722754 58.706722 
L 217.773416 59.017115 
L 218.824078 58.361841 
L 219.87474 58.223889 
L 220.925402 57.879008 
L 221.976064 59.948293 
L 223.026726 60.189709 
L 224.077387 59.086091 
L 225.128049 57.810032 
L 227.229373 58.948139 
L 229.330697 57.913497 
L 230.381359 59.120579 
L 231.432021 81.986168 
L 232.482683 80.330741 
L 233.533345 75.674851 
L 234.584007 76.640517 
L 235.634669 82.29656 
L 236.685331 69.742904 
L 237.735993 78.675313 
L 238.786655 71.363843 
L 239.837317 73.709032 
L 240.887979 68.949678 
L 241.938641 67.087323 
L 242.989303 70.329201 
L 245.090627 73.536591 
L 246.141289 72.398485 
L 247.191951 80.572157 
L 248.242613 69.949832 
L 249.293274 70.777546 
L 250.343936 67.880548 
L 251.394598 68.880702 
L 252.44526 67.466691 
L 253.495922 67.225275 
L 254.546584 68.880702 
L 255.597246 71.05345 
L 256.647908 69.363535 
L 257.69857 68.156453 
L 258.749232 71.501795 
L 259.799894 71.639747 
L 260.850556 67.708108 
L 261.901218 67.570156 
L 262.95188 65.293943 
L 264.002542 68.225429 
L 265.053204 68.91519 
L 266.103866 67.259763 
L 267.154528 67.466691 
L 268.20519 65.983704 
L 269.255852 67.397715 
L 271.357176 66.294097 
L 272.407838 65.811264 
L 273.4585 67.397715 
L 274.509162 63.224659 
L 275.559823 69.122119 
L 276.610485 66.638978 
L 277.661147 65.121503 
L 278.711809 66.156145 
L 279.762471 62.638362 
L 280.813133 62.155529 
L 281.863795 64.880086 
L 282.914457 64.776622 
L 283.965119 63.983396 
L 285.015781 64.63867 
L 286.066443 61.500256 
L 287.117105 63.190171 
L 288.167767 63.155683 
L 289.218429 63.707492 
L 290.269091 66.742442 
L 291.319753 62.155529 
L 292.370415 64.155837 
L 293.421077 61.293327 
L 294.471739 65.983704 
L 295.522401 63.535052 
L 296.573063 62.293481 
L 297.623725 62.293481 
L 298.674387 61.638208 
L 299.725049 63.086707 
L 300.775711 64.949062 
L 301.826372 61.120887 
L 302.877034 61.086399 
L 303.927696 61.431279 
L 304.978358 60.500102 
L 306.02902 61.224351 
L 307.079682 62.50041 
L 308.130344 63.086707 
L 309.181006 61.293327 
L 310.231668 62.534898 
L 311.28233 59.672388 
L 312.332992 60.53459 
L 313.383654 59.430972 
L 314.434316 62.293481 
L 315.484978 59.086091 
L 316.53564 57.49964 
L 317.586302 58.706722 
L 318.636964 59.224043 
L 319.687626 60.431125 
L 320.738288 59.46546 
L 321.78895 58.327353 
L 322.839612 59.81034 
L 323.890274 61.051911 
L 324.940936 57.49964 
L 325.991598 59.086091 
L 327.042259 59.224043 
L 328.092921 61.051911 
L 329.143583 59.120579 
L 330.194245 57.706568 
L 331.244907 59.120579 
L 332.295569 60.258685 
L 333.346231 58.499794 
L 334.396893 58.879162 
L 335.447555 57.810032 
L 336.498217 56.568462 
L 337.548879 56.016653 
L 339.650203 57.189247 
L 340.700865 56.396022 
L 341.751527 56.60295 
L 342.802189 57.741056 
L 343.852851 56.499486 
L 344.903513 56.809878 
L 345.954175 55.568308 
L 347.004837 55.637284 
L 348.055499 55.395868 
L 349.106161 56.016653 
L 350.156823 55.671772 
L 351.207485 55.878701 
L 355.410132 55.292403 
L 356.460794 55.740748 
L 358.562118 54.63713 
L 359.61278 54.844059 
L 361.714104 54.913035 
L 362.764766 54.395714 
L 363.815428 55.809724 
L 364.86609 55.188939 
L 365.916752 54.740594 
L 366.967414 54.568154 
L 368.018076 54.533666 
L 369.068738 54.016345 
L 370.1194 54.361226 
L 371.170062 53.947369 
L 372.220724 54.188785 
L 373.271386 53.912881 
L 374.322048 53.947369 
L 375.37271 54.46469 
L 376.423372 53.912881 
L 377.474034 54.188785 
L 378.524695 53.74044 
L 381.676681 54.119809 
L 382.727343 53.568 
L 387.980653 54.050833 
L 389.031315 53.809416 
L 390.081977 53.843905 
L 391.132639 53.602488 
L 392.183301 53.981857 
L 394.284625 53.843905 
L 395.335287 53.636976 
L 396.385949 53.843905 
L 398.487273 53.568 
L 398.487273 53.568 
" clip-path="url(#p718584726e)" style="fill: none; stroke: #ff7f0e; stroke-width: 1.5; stroke-linecap: square"/>
   </g>
   <g id="patch_3">
    <path d="M 57.6 307.584 
L 57.6 41.472 
" style="fill: none; stroke: #000000; stroke-width: 0.8; stroke-linejoin: miter; stroke-linecap: square"/>
   </g>
   <g id="patch_4">
    <path d="M 414.72 307.584 
L 414.72 41.472 
" style="fill: none; stroke: #000000; stroke-width: 0.8; stroke-linejoin: miter; stroke-linecap: square"/>
   </g>
   <g id="patch_5">
    <path d="M 57.6 307.584 
L 414.72 307.584 
" style="fill: none; stroke: #000000; stroke-width: 0.8; stroke-linejoin: miter; stroke-linecap: square"/>
   </g>
   <g id="patch_6">
    <path d="M 57.6 41.472 
L 414.72 41.472 
" style="fill: none; stroke: #000000; stroke-width: 0.8; stroke-linejoin: miter; stroke-linecap: square"/>
   </g>
   <g id="text_21">
    <!-- Training and Validation Accuracy -->
    <g transform="translate(138.4575 35.472) scale(0.12 -0.12)">
     <defs>
      <path id="DejaVuSans-54" d="M -19 4666 
L 3928 4666 
L 3928 4134 
L 2272 4134 
L 2272 0 
L 1638 0 
L 1638 4134 
L -19 4134 
L -19 4666 
z
" transform="scale(0.015625)"/>
      <path id="DejaVuSans-69" d="M 603 3500 
L 1178 3500 
L 1178 0 
L 603 0 
L 603 3500 
z
M 603 4863 
L 1178 4863 
L 1178 4134 
L 603 4134 
L 603 4863 
z
" transform="scale(0.015625)"/>
      <path id="DejaVuSans-6e" d="M 3513 2113 
L 3513 0 
L 2938 0 
L 2938 2094 
Q 2938 2591 2744 2837 
Q 2550 3084 2163 3084 
Q 1697 3084 1428 2787 
Q 1159 2491 1159 1978 
L 1159 0 
L 581 0 
L 581 3500 
L 1159 3500 
L 1159 2956 
Q 1366 3272 1645 3428 
Q 1925 3584 2291 3584 
Q 2894 3584 3203 3211 
Q 3513 2838 3513 2113 
z
" transform="scale(0.015625)"/>
      <path id="DejaVuSans-67" d="M 2906 1791 
Q 2906 2416 2648 2759 
Q 2391 3103 1925 3103 
Q 1463 3103 1205 2759 
Q 947 2416 947 1791 
Q 947 1169 1205 825 
Q 1463 481 1925 481 
Q 2391 481 2648 825 
Q 2906 1169 2906 1791 
z
M 3481 434 
Q 3481 -459 3084 -895 
Q 2688 -1331 1869 -1331 
Q 1566 -1331 1297 -1286 
Q 1028 -1241 775 -1147 
L 775 -588 
Q 1028 -725 1275 -790 
Q 1522 -856 1778 -856 
Q 2344 -856 2625 -561 
Q 2906 -266 2906 331 
L 2906 616 
Q 2728 306 2450 153 
Q 2172 0 1784 0 
Q 1141 0 747 490 
Q 353 981 353 1791 
Q 353 2603 747 3093 
Q 1141 3584 1784 3584 
Q 2172 3584 2450 3431 
Q 2728 3278 2906 2969 
L 2906 3500 
L 3481 3500 
L 3481 434 
z
" transform="scale(0.015625)"/>
      <path id="DejaVuSans-20" transform="scale(0.015625)"/>
      <path id="DejaVuSans-64" d="M 2906 2969 
L 2906 4863 
L 3481 4863 
L 3481 0 
L 2906 0 
L 2906 525 
Q 2725 213 2448 61 
Q 2172 -91 1784 -91 
Q 1150 -91 751 415 
Q 353 922 353 1747 
Q 353 2572 751 3078 
Q 1150 3584 1784 3584 
Q 2172 3584 2448 3432 
Q 2725 3281 2906 2969 
z
M 947 1747 
Q 947 1113 1208 752 
Q 1469 391 1925 391 
Q 2381 391 2643 752 
Q 2906 1113 2906 1747 
Q 2906 2381 2643 2742 
Q 2381 3103 1925 3103 
Q 1469 3103 1208 2742 
Q 947 2381 947 1747 
z
" transform="scale(0.015625)"/>
      <path id="DejaVuSans-56" d="M 1831 0 
L 50 4666 
L 709 4666 
L 2188 738 
L 3669 4666 
L 4325 4666 
L 2547 0 
L 1831 0 
z
" transform="scale(0.015625)"/>
      <path id="DejaVuSans-6c" d="M 603 4863 
L 1178 4863 
L 1178 0 
L 603 0 
L 603 4863 
z
" transform="scale(0.015625)"/>
      <path id="DejaVuSans-74" d="M 1172 4494 
L 1172 3500 
L 2356 3500 
L 2356 3053 
L 1172 3053 
L 1172 1153 
Q 1172 725 1289 603 
Q 1406 481 1766 481 
L 2356 481 
L 2356 0 
L 1766 0 
Q 1100 0 847 248 
Q 594 497 594 1153 
L 594 3053 
L 172 3053 
L 172 3500 
L 594 3500 
L 594 4494 
L 1172 4494 
z
" transform="scale(0.015625)"/>
     </defs>
     <use xlink:href="#DejaVuSans-54"/>
     <use xlink:href="#DejaVuSans-72" x="46.333984"/>
     <use xlink:href="#DejaVuSans-61" x="87.447266"/>
     <use xlink:href="#DejaVuSans-69" x="148.726562"/>
     <use xlink:href="#DejaVuSans-6e" x="176.509766"/>
     <use xlink:href="#DejaVuSans-69" x="239.888672"/>
     <use xlink:href="#DejaVuSans-6e" x="267.671875"/>
     <use xlink:href="#DejaVuSans-67" x="331.050781"/>
     <use xlink:href="#DejaVuSans-20" x="394.527344"/>
     <use xlink:href="#DejaVuSans-61" x="426.314453"/>
     <use xlink:href="#DejaVuSans-6e" x="487.59375"/>
     <use xlink:href="#DejaVuSans-64" x="550.972656"/>
     <use xlink:href="#DejaVuSans-20" x="614.449219"/>
     <use xlink:href="#DejaVuSans-56" x="646.236328"/>
     <use xlink:href="#DejaVuSans-61" x="706.894531"/>
     <use xlink:href="#DejaVuSans-6c" x="768.173828"/>
     <use xlink:href="#DejaVuSans-69" x="795.957031"/>
     <use xlink:href="#DejaVuSans-64" x="823.740234"/>
     <use xlink:href="#DejaVuSans-61" x="887.216797"/>
     <use xlink:href="#DejaVuSans-74" x="948.496094"/>
     <use xlink:href="#DejaVuSans-69" x="987.705078"/>
     <use xlink:href="#DejaVuSans-6f" x="1015.488281"/>
     <use xlink:href="#DejaVuSans-6e" x="1076.669922"/>
     <use xlink:href="#DejaVuSans-20" x="1140.048828"/>
     <use xlink:href="#DejaVuSans-41" x="1171.835938"/>
     <use xlink:href="#DejaVuSans-63" x="1238.494141"/>
     <use xlink:href="#DejaVuSans-63" x="1293.474609"/>
     <use xlink:href="#DejaVuSans-75" x="1348.455078"/>
     <use xlink:href="#DejaVuSans-72" x="1411.833984"/>
     <use xlink:href="#DejaVuSans-61" x="1452.947266"/>
     <use xlink:href="#DejaVuSans-63" x="1514.226562"/>
     <use xlink:href="#DejaVuSans-79" x="1569.207031"/>
    </g>
   </g>
   <g id="legend_1">
    <g id="patch_7">
     <path d="M 277.504375 302.584 
L 407.72 302.584 
Q 409.72 302.584 409.72 300.584 
L 409.72 272.22775 
Q 409.72 270.22775 407.72 270.22775 
L 277.504375 270.22775 
Q 275.504375 270.22775 275.504375 272.22775 
L 275.504375 300.584 
Q 275.504375 302.584 277.504375 302.584 
z
" style="fill: #ffffff; opacity: 0.8; stroke: #cccccc; stroke-linejoin: miter"/>
    </g>
    <g id="line2d_21">
     <path d="M 279.504375 278.326187 
L 289.504375 278.326187 
L 299.504375 278.326187 
" style="fill: none; stroke: #1f77b4; stroke-width: 1.5; stroke-linecap: square"/>
    </g>
    <g id="text_22">
     <!-- Train Accuracy -->
     <g transform="translate(307.504375 281.826187) scale(0.1 -0.1)">
      <use xlink:href="#DejaVuSans-54"/>
      <use xlink:href="#DejaVuSans-72" x="46.333984"/>
      <use xlink:href="#DejaVuSans-61" x="87.447266"/>
      <use xlink:href="#DejaVuSans-69" x="148.726562"/>
      <use xlink:href="#DejaVuSans-6e" x="176.509766"/>
      <use xlink:href="#DejaVuSans-20" x="239.888672"/>
      <use xlink:href="#DejaVuSans-41" x="271.675781"/>
      <use xlink:href="#DejaVuSans-63" x="338.333984"/>
      <use xlink:href="#DejaVuSans-63" x="393.314453"/>
      <use xlink:href="#DejaVuSans-75" x="448.294922"/>
      <use xlink:href="#DejaVuSans-72" x="511.673828"/>
      <use xlink:href="#DejaVuSans-61" x="552.787109"/>
      <use xlink:href="#DejaVuSans-63" x="614.066406"/>
      <use xlink:href="#DejaVuSans-79" x="669.046875"/>
     </g>
    </g>
    <g id="line2d_22">
     <path d="M 279.504375 293.004312 
L 289.504375 293.004312 
L 299.504375 293.004312 
" style="fill: none; stroke: #ff7f0e; stroke-width: 1.5; stroke-linecap: square"/>
    </g>
    <g id="text_23">
     <!-- Validation Accuracy -->
     <g transform="translate(307.504375 296.504312) scale(0.1 -0.1)">
      <use xlink:href="#DejaVuSans-56"/>
      <use xlink:href="#DejaVuSans-61" x="60.658203"/>
      <use xlink:href="#DejaVuSans-6c" x="121.9375"/>
      <use xlink:href="#DejaVuSans-69" x="149.720703"/>
      <use xlink:href="#DejaVuSans-64" x="177.503906"/>
      <use xlink:href="#DejaVuSans-61" x="240.980469"/>
      <use xlink:href="#DejaVuSans-74" x="302.259766"/>
      <use xlink:href="#DejaVuSans-69" x="341.46875"/>
      <use xlink:href="#DejaVuSans-6f" x="369.251953"/>
      <use xlink:href="#DejaVuSans-6e" x="430.433594"/>
      <use xlink:href="#DejaVuSans-20" x="493.8125"/>
      <use xlink:href="#DejaVuSans-41" x="525.599609"/>
      <use xlink:href="#DejaVuSans-63" x="592.257812"/>
      <use xlink:href="#DejaVuSans-63" x="647.238281"/>
      <use xlink:href="#DejaVuSans-75" x="702.21875"/>
      <use xlink:href="#DejaVuSans-72" x="765.597656"/>
      <use xlink:href="#DejaVuSans-61" x="806.710938"/>
      <use xlink:href="#DejaVuSans-63" x="867.990234"/>
      <use xlink:href="#DejaVuSans-79" x="922.970703"/>
     </g>
    </g>
   </g>
  </g>
 </g>
 <defs>
  <clipPath id="p718584726e">
   <rect x="57.6" y="41.472" width="357.12" height="266.112"/>
  </clipPath>
 </defs>
</svg>
