<?xml version="1.0" encoding="utf-8" standalone="no"?>
<!DOCTYPE svg PUBLIC "-//W3C//DTD SVG 1.1//EN"
  "http://www.w3.org/Graphics/SVG/1.1/DTD/svg11.dtd">
<svg xmlns:xlink="http://www.w3.org/1999/xlink" width="460.8pt" height="345.6pt" viewBox="0 0 460.8 345.6" xmlns="http://www.w3.org/2000/svg" version="1.1">
 <metadata>
  <rdf:RDF xmlns:dc="http://purl.org/dc/elements/1.1/" xmlns:cc="http://creativecommons.org/ns#" xmlns:rdf="http://www.w3.org/1999/02/22-rdf-syntax-ns#">
   <cc:Work>
    <dc:type rdf:resource="http://purl.org/dc/dcmitype/StillImage"/>
    <dc:date>2023-08-25T01:54:38.858450</dc:date>
    <dc:format>image/svg+xml</dc:format>
    <dc:creator>
     <cc:Agent>
      <dc:title>Matplotlib v3.7.0, https://matplotlib.org/</dc:title>
     </cc:Agent>
    </dc:creator>
   </cc:Work>
  </rdf:RDF>
 </metadata>
 <defs>
  <style type="text/css">*{stroke-linejoin: round; stroke-linecap: butt}</style>
 </defs>
 <g id="figure_1">
  <g id="patch_1">
   <path d="M 0 345.6 
L 460.8 345.6 
L 460.8 0 
L 0 0 
z
" style="fill: #ffffff"/>
  </g>
  <g id="axes_1">
   <g id="patch_2">
    <path d="M 57.6 307.584 
L 414.72 307.584 
L 414.72 41.472 
L 57.6 41.472 
z
" style="fill: #ffffff"/>
   </g>
   <g id="matplotlib.axis_1">
    <g id="xtick_1">
     <g id="line2d_1">
      <defs>
       <path id="m7cc838cc85" d="M 0 0 
L 0 3.5 
" style="stroke: #000000; stroke-width: 0.8"/>
      </defs>
      <g>
       <use xlink:href="#m7cc838cc85" x="73.832727" y="307.584" style="stroke: #000000; stroke-width: 0.8"/>
      </g>
     </g>
     <g id="text_1">
      <!-- 1 -->
      <g transform="translate(70.651477 322.182437) scale(0.1 -0.1)">
       <defs>
        <path id="DejaVuSans-31" d="M 794 531 
L 1825 531 
L 1825 4091 
L 703 3866 
L 703 4441 
L 1819 4666 
L 2450 4666 
L 2450 531 
L 3481 531 
L 3481 0 
L 794 0 
L 794 531 
z
" transform="scale(0.015625)"/>
       </defs>
       <use xlink:href="#DejaVuSans-31"/>
      </g>
     </g>
    </g>
    <g id="xtick_2">
     <g id="line2d_2">
      <g>
       <use xlink:href="#m7cc838cc85" x="109.555234" y="307.584" style="stroke: #000000; stroke-width: 0.8"/>
      </g>
     </g>
     <g id="text_2">
      <!-- 35 -->
      <g transform="translate(103.192734 322.182437) scale(0.1 -0.1)">
       <defs>
        <path id="DejaVuSans-33" d="M 2597 2516 
Q 3050 2419 3304 2112 
Q 3559 1806 3559 1356 
Q 3559 666 3084 287 
Q 2609 -91 1734 -91 
Q 1441 -91 1130 -33 
Q 819 25 488 141 
L 488 750 
Q 750 597 1062 519 
Q 1375 441 1716 441 
Q 2309 441 2620 675 
Q 2931 909 2931 1356 
Q 2931 1769 2642 2001 
Q 2353 2234 1838 2234 
L 1294 2234 
L 1294 2753 
L 1863 2753 
Q 2328 2753 2575 2939 
Q 2822 3125 2822 3475 
Q 2822 3834 2567 4026 
Q 2313 4219 1838 4219 
Q 1578 4219 1281 4162 
Q 984 4106 628 3988 
L 628 4550 
Q 988 4650 1302 4700 
Q 1616 4750 1894 4750 
Q 2613 4750 3031 4423 
Q 3450 4097 3450 3541 
Q 3450 3153 3228 2886 
Q 3006 2619 2597 2516 
z
" transform="scale(0.015625)"/>
        <path id="DejaVuSans-35" d="M 691 4666 
L 3169 4666 
L 3169 4134 
L 1269 4134 
L 1269 2991 
Q 1406 3038 1543 3061 
Q 1681 3084 1819 3084 
Q 2600 3084 3056 2656 
Q 3513 2228 3513 1497 
Q 3513 744 3044 326 
Q 2575 -91 1722 -91 
Q 1428 -91 1123 -41 
Q 819 9 494 109 
L 494 744 
Q 775 591 1075 516 
Q 1375 441 1709 441 
Q 2250 441 2565 725 
Q 2881 1009 2881 1497 
Q 2881 1984 2565 2268 
Q 2250 2553 1709 2553 
Q 1456 2553 1204 2497 
Q 953 2441 691 2322 
L 691 4666 
z
" transform="scale(0.015625)"/>
       </defs>
       <use xlink:href="#DejaVuSans-33"/>
       <use xlink:href="#DejaVuSans-35" x="63.623047"/>
      </g>
     </g>
    </g>
    <g id="xtick_3">
     <g id="line2d_3">
      <g>
       <use xlink:href="#m7cc838cc85" x="145.277741" y="307.584" style="stroke: #000000; stroke-width: 0.8"/>
      </g>
     </g>
     <g id="text_3">
      <!-- 69 -->
      <g transform="translate(138.915241 322.182437) scale(0.1 -0.1)">
       <defs>
        <path id="DejaVuSans-36" d="M 2113 2584 
Q 1688 2584 1439 2293 
Q 1191 2003 1191 1497 
Q 1191 994 1439 701 
Q 1688 409 2113 409 
Q 2538 409 2786 701 
Q 3034 994 3034 1497 
Q 3034 2003 2786 2293 
Q 2538 2584 2113 2584 
z
M 3366 4563 
L 3366 3988 
Q 3128 4100 2886 4159 
Q 2644 4219 2406 4219 
Q 1781 4219 1451 3797 
Q 1122 3375 1075 2522 
Q 1259 2794 1537 2939 
Q 1816 3084 2150 3084 
Q 2853 3084 3261 2657 
Q 3669 2231 3669 1497 
Q 3669 778 3244 343 
Q 2819 -91 2113 -91 
Q 1303 -91 875 529 
Q 447 1150 447 2328 
Q 447 3434 972 4092 
Q 1497 4750 2381 4750 
Q 2619 4750 2861 4703 
Q 3103 4656 3366 4563 
z
" transform="scale(0.015625)"/>
        <path id="DejaVuSans-39" d="M 703 97 
L 703 672 
Q 941 559 1184 500 
Q 1428 441 1663 441 
Q 2288 441 2617 861 
Q 2947 1281 2994 2138 
Q 2813 1869 2534 1725 
Q 2256 1581 1919 1581 
Q 1219 1581 811 2004 
Q 403 2428 403 3163 
Q 403 3881 828 4315 
Q 1253 4750 1959 4750 
Q 2769 4750 3195 4129 
Q 3622 3509 3622 2328 
Q 3622 1225 3098 567 
Q 2575 -91 1691 -91 
Q 1453 -91 1209 -44 
Q 966 3 703 97 
z
M 1959 2075 
Q 2384 2075 2632 2365 
Q 2881 2656 2881 3163 
Q 2881 3666 2632 3958 
Q 2384 4250 1959 4250 
Q 1534 4250 1286 3958 
Q 1038 3666 1038 3163 
Q 1038 2656 1286 2365 
Q 1534 2075 1959 2075 
z
" transform="scale(0.015625)"/>
       </defs>
       <use xlink:href="#DejaVuSans-36"/>
       <use xlink:href="#DejaVuSans-39" x="63.623047"/>
      </g>
     </g>
    </g>
    <g id="xtick_4">
     <g id="line2d_4">
      <g>
       <use xlink:href="#m7cc838cc85" x="182.050909" y="307.584" style="stroke: #000000; stroke-width: 0.8"/>
      </g>
     </g>
     <g id="text_4">
      <!-- 104 -->
      <g transform="translate(172.507159 322.182437) scale(0.1 -0.1)">
       <defs>
        <path id="DejaVuSans-30" d="M 2034 4250 
Q 1547 4250 1301 3770 
Q 1056 3291 1056 2328 
Q 1056 1369 1301 889 
Q 1547 409 2034 409 
Q 2525 409 2770 889 
Q 3016 1369 3016 2328 
Q 3016 3291 2770 3770 
Q 2525 4250 2034 4250 
z
M 2034 4750 
Q 2819 4750 3233 4129 
Q 3647 3509 3647 2328 
Q 3647 1150 3233 529 
Q 2819 -91 2034 -91 
Q 1250 -91 836 529 
Q 422 1150 422 2328 
Q 422 3509 836 4129 
Q 1250 4750 2034 4750 
z
" transform="scale(0.015625)"/>
        <path id="DejaVuSans-34" d="M 2419 4116 
L 825 1625 
L 2419 1625 
L 2419 4116 
z
M 2253 4666 
L 3047 4666 
L 3047 1625 
L 3713 1625 
L 3713 1100 
L 3047 1100 
L 3047 0 
L 2419 0 
L 2419 1100 
L 313 1100 
L 313 1709 
L 2253 4666 
z
" transform="scale(0.015625)"/>
       </defs>
       <use xlink:href="#DejaVuSans-31"/>
       <use xlink:href="#DejaVuSans-30" x="63.623047"/>
       <use xlink:href="#DejaVuSans-34" x="127.246094"/>
      </g>
     </g>
    </g>
    <g id="xtick_5">
     <g id="line2d_5">
      <g>
       <use xlink:href="#m7cc838cc85" x="217.773416" y="307.584" style="stroke: #000000; stroke-width: 0.8"/>
      </g>
     </g>
     <g id="text_5">
      <!-- 138 -->
      <g transform="translate(208.229666 322.182437) scale(0.1 -0.1)">
       <defs>
        <path id="DejaVuSans-38" d="M 2034 2216 
Q 1584 2216 1326 1975 
Q 1069 1734 1069 1313 
Q 1069 891 1326 650 
Q 1584 409 2034 409 
Q 2484 409 2743 651 
Q 3003 894 3003 1313 
Q 3003 1734 2745 1975 
Q 2488 2216 2034 2216 
z
M 1403 2484 
Q 997 2584 770 2862 
Q 544 3141 544 3541 
Q 544 4100 942 4425 
Q 1341 4750 2034 4750 
Q 2731 4750 3128 4425 
Q 3525 4100 3525 3541 
Q 3525 3141 3298 2862 
Q 3072 2584 2669 2484 
Q 3125 2378 3379 2068 
Q 3634 1759 3634 1313 
Q 3634 634 3220 271 
Q 2806 -91 2034 -91 
Q 1263 -91 848 271 
Q 434 634 434 1313 
Q 434 1759 690 2068 
Q 947 2378 1403 2484 
z
M 1172 3481 
Q 1172 3119 1398 2916 
Q 1625 2713 2034 2713 
Q 2441 2713 2670 2916 
Q 2900 3119 2900 3481 
Q 2900 3844 2670 4047 
Q 2441 4250 2034 4250 
Q 1625 4250 1398 4047 
Q 1172 3844 1172 3481 
z
" transform="scale(0.015625)"/>
       </defs>
       <use xlink:href="#DejaVuSans-31"/>
       <use xlink:href="#DejaVuSans-33" x="63.623047"/>
       <use xlink:href="#DejaVuSans-38" x="127.246094"/>
      </g>
     </g>
    </g>
    <g id="xtick_6">
     <g id="line2d_6">
      <g>
       <use xlink:href="#m7cc838cc85" x="253.495922" y="307.584" style="stroke: #000000; stroke-width: 0.8"/>
      </g>
     </g>
     <g id="text_6">
      <!-- 172 -->
      <g transform="translate(243.952172 322.182437) scale(0.1 -0.1)">
       <defs>
        <path id="DejaVuSans-37" d="M 525 4666 
L 3525 4666 
L 3525 4397 
L 1831 0 
L 1172 0 
L 2766 4134 
L 525 4134 
L 525 4666 
z
" transform="scale(0.015625)"/>
        <path id="DejaVuSans-32" d="M 1228 531 
L 3431 531 
L 3431 0 
L 469 0 
L 469 531 
Q 828 903 1448 1529 
Q 2069 2156 2228 2338 
Q 2531 2678 2651 2914 
Q 2772 3150 2772 3378 
Q 2772 3750 2511 3984 
Q 2250 4219 1831 4219 
Q 1534 4219 1204 4116 
Q 875 4013 500 3803 
L 500 4441 
Q 881 4594 1212 4672 
Q 1544 4750 1819 4750 
Q 2544 4750 2975 4387 
Q 3406 4025 3406 3419 
Q 3406 3131 3298 2873 
Q 3191 2616 2906 2266 
Q 2828 2175 2409 1742 
Q 1991 1309 1228 531 
z
" transform="scale(0.015625)"/>
       </defs>
       <use xlink:href="#DejaVuSans-31"/>
       <use xlink:href="#DejaVuSans-37" x="63.623047"/>
       <use xlink:href="#DejaVuSans-32" x="127.246094"/>
      </g>
     </g>
    </g>
    <g id="xtick_7">
     <g id="line2d_7">
      <g>
       <use xlink:href="#m7cc838cc85" x="290.269091" y="307.584" style="stroke: #000000; stroke-width: 0.8"/>
      </g>
     </g>
     <g id="text_7">
      <!-- 207 -->
      <g transform="translate(280.725341 322.182437) scale(0.1 -0.1)">
       <use xlink:href="#DejaVuSans-32"/>
       <use xlink:href="#DejaVuSans-30" x="63.623047"/>
       <use xlink:href="#DejaVuSans-37" x="127.246094"/>
      </g>
     </g>
    </g>
    <g id="xtick_8">
     <g id="line2d_8">
      <g>
       <use xlink:href="#m7cc838cc85" x="325.991598" y="307.584" style="stroke: #000000; stroke-width: 0.8"/>
      </g>
     </g>
     <g id="text_8">
      <!-- 241 -->
      <g transform="translate(316.447848 322.182437) scale(0.1 -0.1)">
       <use xlink:href="#DejaVuSans-32"/>
       <use xlink:href="#DejaVuSans-34" x="63.623047"/>
       <use xlink:href="#DejaVuSans-31" x="127.246094"/>
      </g>
     </g>
    </g>
    <g id="xtick_9">
     <g id="line2d_9">
      <g>
       <use xlink:href="#m7cc838cc85" x="361.714104" y="307.584" style="stroke: #000000; stroke-width: 0.8"/>
      </g>
     </g>
     <g id="text_9">
      <!-- 275 -->
      <g transform="translate(352.170354 322.182437) scale(0.1 -0.1)">
       <use xlink:href="#DejaVuSans-32"/>
       <use xlink:href="#DejaVuSans-37" x="63.623047"/>
       <use xlink:href="#DejaVuSans-35" x="127.246094"/>
      </g>
     </g>
    </g>
    <g id="xtick_10">
     <g id="line2d_10">
      <g>
       <use xlink:href="#m7cc838cc85" x="398.487273" y="307.584" style="stroke: #000000; stroke-width: 0.8"/>
      </g>
     </g>
     <g id="text_10">
      <!-- 310 -->
      <g transform="translate(388.943523 322.182437) scale(0.1 -0.1)">
       <use xlink:href="#DejaVuSans-33"/>
       <use xlink:href="#DejaVuSans-31" x="63.623047"/>
       <use xlink:href="#DejaVuSans-30" x="127.246094"/>
      </g>
     </g>
    </g>
    <g id="text_11">
     <!-- Epochs -->
     <g transform="translate(218.244375 335.860562) scale(0.1 -0.1)">
      <defs>
       <path id="DejaVuSans-45" d="M 628 4666 
L 3578 4666 
L 3578 4134 
L 1259 4134 
L 1259 2753 
L 3481 2753 
L 3481 2222 
L 1259 2222 
L 1259 531 
L 3634 531 
L 3634 0 
L 628 0 
L 628 4666 
z
" transform="scale(0.015625)"/>
       <path id="DejaVuSans-70" d="M 1159 525 
L 1159 -1331 
L 581 -1331 
L 581 3500 
L 1159 3500 
L 1159 2969 
Q 1341 3281 1617 3432 
Q 1894 3584 2278 3584 
Q 2916 3584 3314 3078 
Q 3713 2572 3713 1747 
Q 3713 922 3314 415 
Q 2916 -91 2278 -91 
Q 1894 -91 1617 61 
Q 1341 213 1159 525 
z
M 3116 1747 
Q 3116 2381 2855 2742 
Q 2594 3103 2138 3103 
Q 1681 3103 1420 2742 
Q 1159 2381 1159 1747 
Q 1159 1113 1420 752 
Q 1681 391 2138 391 
Q 2594 391 2855 752 
Q 3116 1113 3116 1747 
z
" transform="scale(0.015625)"/>
       <path id="DejaVuSans-6f" d="M 1959 3097 
Q 1497 3097 1228 2736 
Q 959 2375 959 1747 
Q 959 1119 1226 758 
Q 1494 397 1959 397 
Q 2419 397 2687 759 
Q 2956 1122 2956 1747 
Q 2956 2369 2687 2733 
Q 2419 3097 1959 3097 
z
M 1959 3584 
Q 2709 3584 3137 3096 
Q 3566 2609 3566 1747 
Q 3566 888 3137 398 
Q 2709 -91 1959 -91 
Q 1206 -91 779 398 
Q 353 888 353 1747 
Q 353 2609 779 3096 
Q 1206 3584 1959 3584 
z
" transform="scale(0.015625)"/>
       <path id="DejaVuSans-63" d="M 3122 3366 
L 3122 2828 
Q 2878 2963 2633 3030 
Q 2388 3097 2138 3097 
Q 1578 3097 1268 2742 
Q 959 2388 959 1747 
Q 959 1106 1268 751 
Q 1578 397 2138 397 
Q 2388 397 2633 464 
Q 2878 531 3122 666 
L 3122 134 
Q 2881 22 2623 -34 
Q 2366 -91 2075 -91 
Q 1284 -91 818 406 
Q 353 903 353 1747 
Q 353 2603 823 3093 
Q 1294 3584 2113 3584 
Q 2378 3584 2631 3529 
Q 2884 3475 3122 3366 
z
" transform="scale(0.015625)"/>
       <path id="DejaVuSans-68" d="M 3513 2113 
L 3513 0 
L 2938 0 
L 2938 2094 
Q 2938 2591 2744 2837 
Q 2550 3084 2163 3084 
Q 1697 3084 1428 2787 
Q 1159 2491 1159 1978 
L 1159 0 
L 581 0 
L 581 4863 
L 1159 4863 
L 1159 2956 
Q 1366 3272 1645 3428 
Q 1925 3584 2291 3584 
Q 2894 3584 3203 3211 
Q 3513 2838 3513 2113 
z
" transform="scale(0.015625)"/>
       <path id="DejaVuSans-73" d="M 2834 3397 
L 2834 2853 
Q 2591 2978 2328 3040 
Q 2066 3103 1784 3103 
Q 1356 3103 1142 2972 
Q 928 2841 928 2578 
Q 928 2378 1081 2264 
Q 1234 2150 1697 2047 
L 1894 2003 
Q 2506 1872 2764 1633 
Q 3022 1394 3022 966 
Q 3022 478 2636 193 
Q 2250 -91 1575 -91 
Q 1294 -91 989 -36 
Q 684 19 347 128 
L 347 722 
Q 666 556 975 473 
Q 1284 391 1588 391 
Q 1994 391 2212 530 
Q 2431 669 2431 922 
Q 2431 1156 2273 1281 
Q 2116 1406 1581 1522 
L 1381 1569 
Q 847 1681 609 1914 
Q 372 2147 372 2553 
Q 372 3047 722 3315 
Q 1072 3584 1716 3584 
Q 2034 3584 2315 3537 
Q 2597 3491 2834 3397 
z
" transform="scale(0.015625)"/>
      </defs>
      <use xlink:href="#DejaVuSans-45"/>
      <use xlink:href="#DejaVuSans-70" x="63.183594"/>
      <use xlink:href="#DejaVuSans-6f" x="126.660156"/>
      <use xlink:href="#DejaVuSans-63" x="187.841797"/>
      <use xlink:href="#DejaVuSans-68" x="242.822266"/>
      <use xlink:href="#DejaVuSans-73" x="306.201172"/>
     </g>
    </g>
   </g>
   <g id="matplotlib.axis_2">
    <g id="ytick_1">
     <g id="line2d_11">
      <defs>
       <path id="m76ece389be" d="M 0 0 
L -3.5 0 
" style="stroke: #000000; stroke-width: 0.8"/>
      </defs>
      <g>
       <use xlink:href="#m76ece389be" x="57.6" y="284.781983" style="stroke: #000000; stroke-width: 0.8"/>
      </g>
     </g>
     <g id="text_12">
      <!-- 30 -->
      <g transform="translate(37.875 288.581202) scale(0.1 -0.1)">
       <use xlink:href="#DejaVuSans-33"/>
       <use xlink:href="#DejaVuSans-30" x="63.623047"/>
      </g>
     </g>
    </g>
    <g id="ytick_2">
     <g id="line2d_12">
      <g>
       <use xlink:href="#m76ece389be" x="57.6" y="250.179471" style="stroke: #000000; stroke-width: 0.8"/>
      </g>
     </g>
     <g id="text_13">
      <!-- 40 -->
      <g transform="translate(37.875 253.97869) scale(0.1 -0.1)">
       <use xlink:href="#DejaVuSans-34"/>
       <use xlink:href="#DejaVuSans-30" x="63.623047"/>
      </g>
     </g>
    </g>
    <g id="ytick_3">
     <g id="line2d_13">
      <g>
       <use xlink:href="#m76ece389be" x="57.6" y="215.57696" style="stroke: #000000; stroke-width: 0.8"/>
      </g>
     </g>
     <g id="text_14">
      <!-- 50 -->
      <g transform="translate(37.875 219.376178) scale(0.1 -0.1)">
       <use xlink:href="#DejaVuSans-35"/>
       <use xlink:href="#DejaVuSans-30" x="63.623047"/>
      </g>
     </g>
    </g>
    <g id="ytick_4">
     <g id="line2d_14">
      <g>
       <use xlink:href="#m76ece389be" x="57.6" y="180.974448" style="stroke: #000000; stroke-width: 0.8"/>
      </g>
     </g>
     <g id="text_15">
      <!-- 60 -->
      <g transform="translate(37.875 184.773667) scale(0.1 -0.1)">
       <use xlink:href="#DejaVuSans-36"/>
       <use xlink:href="#DejaVuSans-30" x="63.623047"/>
      </g>
     </g>
    </g>
    <g id="ytick_5">
     <g id="line2d_15">
      <g>
       <use xlink:href="#m76ece389be" x="57.6" y="146.371936" style="stroke: #000000; stroke-width: 0.8"/>
      </g>
     </g>
     <g id="text_16">
      <!-- 70 -->
      <g transform="translate(37.875 150.171155) scale(0.1 -0.1)">
       <use xlink:href="#DejaVuSans-37"/>
       <use xlink:href="#DejaVuSans-30" x="63.623047"/>
      </g>
     </g>
    </g>
    <g id="ytick_6">
     <g id="line2d_16">
      <g>
       <use xlink:href="#m76ece389be" x="57.6" y="111.769425" style="stroke: #000000; stroke-width: 0.8"/>
      </g>
     </g>
     <g id="text_17">
      <!-- 80 -->
      <g transform="translate(37.875 115.568643) scale(0.1 -0.1)">
       <use xlink:href="#DejaVuSans-38"/>
       <use xlink:href="#DejaVuSans-30" x="63.623047"/>
      </g>
     </g>
    </g>
    <g id="ytick_7">
     <g id="line2d_17">
      <g>
       <use xlink:href="#m76ece389be" x="57.6" y="77.166913" style="stroke: #000000; stroke-width: 0.8"/>
      </g>
     </g>
     <g id="text_18">
      <!-- 90 -->
      <g transform="translate(37.875 80.966132) scale(0.1 -0.1)">
       <use xlink:href="#DejaVuSans-39"/>
       <use xlink:href="#DejaVuSans-30" x="63.623047"/>
      </g>
     </g>
    </g>
    <g id="ytick_8">
     <g id="line2d_18">
      <g>
       <use xlink:href="#m76ece389be" x="57.6" y="42.564401" style="stroke: #000000; stroke-width: 0.8"/>
      </g>
     </g>
     <g id="text_19">
      <!-- 100 -->
      <g transform="translate(31.5125 46.36362) scale(0.1 -0.1)">
       <use xlink:href="#DejaVuSans-31"/>
       <use xlink:href="#DejaVuSans-30" x="63.623047"/>
       <use xlink:href="#DejaVuSans-30" x="127.246094"/>
      </g>
     </g>
    </g>
    <g id="text_20">
     <!-- Accuracy -->
     <g transform="translate(25.432812 197.356125) rotate(-90) scale(0.1 -0.1)">
      <defs>
       <path id="DejaVuSans-41" d="M 2188 4044 
L 1331 1722 
L 3047 1722 
L 2188 4044 
z
M 1831 4666 
L 2547 4666 
L 4325 0 
L 3669 0 
L 3244 1197 
L 1141 1197 
L 716 0 
L 50 0 
L 1831 4666 
z
" transform="scale(0.015625)"/>
       <path id="DejaVuSans-75" d="M 544 1381 
L 544 3500 
L 1119 3500 
L 1119 1403 
Q 1119 906 1312 657 
Q 1506 409 1894 409 
Q 2359 409 2629 706 
Q 2900 1003 2900 1516 
L 2900 3500 
L 3475 3500 
L 3475 0 
L 2900 0 
L 2900 538 
Q 2691 219 2414 64 
Q 2138 -91 1772 -91 
Q 1169 -91 856 284 
Q 544 659 544 1381 
z
M 1991 3584 
L 1991 3584 
z
" transform="scale(0.015625)"/>
       <path id="DejaVuSans-72" d="M 2631 2963 
Q 2534 3019 2420 3045 
Q 2306 3072 2169 3072 
Q 1681 3072 1420 2755 
Q 1159 2438 1159 1844 
L 1159 0 
L 581 0 
L 581 3500 
L 1159 3500 
L 1159 2956 
Q 1341 3275 1631 3429 
Q 1922 3584 2338 3584 
Q 2397 3584 2469 3576 
Q 2541 3569 2628 3553 
L 2631 2963 
z
" transform="scale(0.015625)"/>
       <path id="DejaVuSans-61" d="M 2194 1759 
Q 1497 1759 1228 1600 
Q 959 1441 959 1056 
Q 959 750 1161 570 
Q 1363 391 1709 391 
Q 2188 391 2477 730 
Q 2766 1069 2766 1631 
L 2766 1759 
L 2194 1759 
z
M 3341 1997 
L 3341 0 
L 2766 0 
L 2766 531 
Q 2569 213 2275 61 
Q 1981 -91 1556 -91 
Q 1019 -91 701 211 
Q 384 513 384 1019 
Q 384 1609 779 1909 
Q 1175 2209 1959 2209 
L 2766 2209 
L 2766 2266 
Q 2766 2663 2505 2880 
Q 2244 3097 1772 3097 
Q 1472 3097 1187 3025 
Q 903 2953 641 2809 
L 641 3341 
Q 956 3463 1253 3523 
Q 1550 3584 1831 3584 
Q 2591 3584 2966 3190 
Q 3341 2797 3341 1997 
z
" transform="scale(0.015625)"/>
       <path id="DejaVuSans-79" d="M 2059 -325 
Q 1816 -950 1584 -1140 
Q 1353 -1331 966 -1331 
L 506 -1331 
L 506 -850 
L 844 -850 
Q 1081 -850 1212 -737 
Q 1344 -625 1503 -206 
L 1606 56 
L 191 3500 
L 800 3500 
L 1894 763 
L 2988 3500 
L 3597 3500 
L 2059 -325 
z
" transform="scale(0.015625)"/>
      </defs>
      <use xlink:href="#DejaVuSans-41"/>
      <use xlink:href="#DejaVuSans-63" x="66.658203"/>
      <use xlink:href="#DejaVuSans-63" x="121.638672"/>
      <use xlink:href="#DejaVuSans-75" x="176.619141"/>
      <use xlink:href="#DejaVuSans-72" x="239.998047"/>
      <use xlink:href="#DejaVuSans-61" x="281.111328"/>
      <use xlink:href="#DejaVuSans-63" x="342.390625"/>
      <use xlink:href="#DejaVuSans-79" x="397.371094"/>
     </g>
    </g>
   </g>
   <g id="line2d_19">
    <path d="M 73.832727 295.488 
L 74.883389 252.041086 
L 75.934051 227.321052 
L 76.984713 209.140892 
L 78.035375 193.832741 
L 79.086037 181.514247 
L 81.187361 161.811577 
L 82.238023 153.59002 
L 83.288685 148.75951 
L 84.339347 181.797988 
L 85.390009 169.915485 
L 86.440671 164.600539 
L 87.491333 157.700799 
L 89.592657 148.330438 
L 92.744643 135.776647 
L 93.795305 132.420204 
L 94.845966 129.776572 
L 95.896628 125.029107 
L 96.94729 123.458153 
L 97.997952 120.420053 
L 99.048614 115.679508 
L 100.099276 114.039349 
L 101.149938 111.16042 
L 102.2006 109.520261 
L 103.251262 108.316094 
L 104.301924 106.703617 
L 105.352586 136.572505 
L 106.403248 134.129568 
L 108.504572 128.620848 
L 109.555234 127.755785 
L 111.656558 122.939115 
L 113.757882 119.811048 
L 114.808544 118.641483 
L 115.859206 115.734872 
L 116.909868 115.091266 
L 117.96053 113.942462 
L 119.011192 112.25386 
L 120.061853 110.302278 
L 121.112515 109.561784 
L 122.163177 108.087717 
L 123.213839 107.02196 
L 124.264501 104.855843 
L 125.315163 103.139558 
L 126.365825 102.05996 
L 127.416487 100.738144 
L 128.467149 98.682755 
L 129.517811 97.527031 
L 130.568473 95.693098 
L 132.669797 93.644629 
L 134.771121 90.834905 
L 135.821783 91.014838 
L 136.872445 88.246637 
L 137.923107 87.720679 
L 138.973769 86.592637 
L 140.024431 87.305449 
L 141.075093 85.547641 
L 142.125755 85.312344 
L 143.176417 84.71026 
L 144.227079 84.682578 
L 145.277741 82.647951 
L 146.328402 83.409206 
L 147.379064 110.039299 
L 148.429726 108.378378 
L 149.480388 109.471818 
L 150.53105 106.696696 
L 151.581712 105.603257 
L 152.632374 106.371433 
L 153.683036 106.004646 
L 154.733698 105.361039 
L 156.835022 102.385223 
L 157.885684 102.433667 
L 158.936346 101.720855 
L 159.987008 100.461324 
L 161.03767 100.433642 
L 162.088332 98.558186 
L 163.138994 99.270997 
L 164.189656 98.087591 
L 165.240318 98.011466 
L 166.29098 97.347098 
L 167.341642 95.852269 
L 168.392304 95.520085 
L 169.442966 95.58237 
L 170.493628 94.592738 
L 172.594951 93.852244 
L 173.645613 92.018311 
L 174.696275 92.41278 
L 175.746937 92.170562 
L 176.797599 90.426595 
L 177.848261 90.246662 
L 178.898923 89.817591 
L 181.000247 87.374654 
L 182.050909 88.329683 
L 183.101571 87.416177 
L 184.152233 86.246612 
L 186.253557 85.360788 
L 187.304219 85.519959 
L 188.354881 83.969767 
L 189.405543 83.921323 
L 190.456205 83.090863 
L 191.506867 81.865934 
L 192.557529 82.336528 
L 194.658853 81.526829 
L 195.709515 80.371106 
L 197.810838 78.744787 
L 198.8615 79.256905 
L 199.912162 78.253432 
L 200.962824 78.22575 
L 202.013486 77.644428 
L 203.064148 76.703239 
L 204.11481 76.419499 
L 205.165472 75.872779 
L 206.216134 75.06308 
L 207.266796 74.440235 
L 208.317458 74.433315 
L 209.36812 73.222227 
L 210.418782 72.260277 
L 211.469444 72.966168 
L 212.520106 72.924645 
L 213.570768 72.108026 
L 214.62143 72.094185 
L 215.672092 71.422896 
L 216.722754 72.405607 
L 217.773416 71.215281 
L 218.824078 71.166837 
L 219.87474 70.426344 
L 220.925402 69.492076 
L 221.976064 70.37098 
L 223.026726 69.40903 
L 224.077387 70.467867 
L 225.128049 70.267172 
L 226.178711 69.395189 
L 227.229373 69.741214 
L 228.280035 69.775816 
L 229.330697 70.495549 
L 230.381359 69.540519 
L 231.432021 95.340152 
L 232.482683 94.405884 
L 233.533345 93.907608 
L 234.584007 95.160219 
L 235.634669 93.125591 
L 236.685331 91.367784 
L 237.735993 91.388545 
L 238.786655 92.682679 
L 239.837317 91.000997 
L 240.887979 90.419675 
L 241.938641 92.052913 
L 242.989303 91.070202 
L 244.039965 90.883349 
L 245.090627 90.551164 
L 246.141289 89.734545 
L 247.191951 89.720704 
L 248.242613 88.869482 
L 249.293274 88.855641 
L 250.343936 89.021733 
L 251.394598 88.890244 
L 252.44526 88.191273 
L 253.495922 88.357365 
L 254.546584 88.793357 
L 255.597246 87.485382 
L 257.69857 87.381574 
L 258.749232 86.703365 
L 259.799894 87.208562 
L 260.850556 85.360788 
L 261.901218 87.125516 
L 264.002542 86.011315 
L 265.053204 87.104754 
L 266.103866 86.592637 
L 267.154528 85.907507 
L 268.20519 85.083968 
L 270.306514 84.495725 
L 271.357176 84.890194 
L 273.4585 83.838277 
L 274.509162 84.177382 
L 275.559823 83.748311 
L 276.610485 84.038972 
L 277.661147 83.409206 
L 278.711809 82.64103 
L 279.762471 82.308846 
L 280.813133 83.789834 
L 281.863795 82.08047 
L 282.914457 82.897089 
L 283.965119 81.734444 
L 285.015781 80.973189 
L 286.066443 82.156595 
L 287.117105 81.021633 
L 288.167767 80.807097 
L 289.218429 79.706737 
L 290.269091 80.557959 
L 291.319753 80.973189 
L 292.370415 80.530277 
L 293.421077 79.46452 
L 294.471739 80.01816 
L 295.522401 79.063131 
L 296.573063 78.6479 
L 297.623725 78.440285 
L 298.674387 79.215382 
L 299.725049 78.440285 
L 300.775711 80.004319 
L 301.826372 78.703264 
L 302.877034 78.495649 
L 303.927696 76.827808 
L 304.978358 77.13231 
L 306.02902 76.869331 
L 307.079682 76.807047 
L 308.130344 75.61672 
L 309.181006 76.620193 
L 310.231668 76.350294 
L 312.332992 75.284536 
L 314.434316 74.682453 
L 315.484978 73.948879 
L 316.53564 74.211858 
L 317.586302 74.841624 
L 318.636964 74.37103 
L 319.687626 73.284511 
L 320.738288 74.329507 
L 321.78895 72.952327 
L 322.839612 73.499047 
L 323.890274 73.886595 
L 324.940936 72.3018 
L 325.991598 72.0319 
L 327.042259 71.33985 
L 328.092921 71.360611 
L 329.143583 71.879649 
L 330.194245 71.941934 
L 331.244907 70.883097 
L 332.295569 71.326009 
L 333.346231 70.460946 
L 335.447555 70.225649 
L 336.498217 69.83118 
L 337.548879 68.883072 
L 338.599541 70.066478 
L 339.650203 68.924595 
L 340.700865 69.727373 
L 341.751527 68.827708 
L 342.802189 69.076846 
L 343.852851 68.509365 
L 344.903513 68.44708 
L 345.954175 67.097582 
L 347.004837 67.194469 
L 348.055499 67.588938 
L 349.106161 67.47821 
L 350.156823 66.917649 
L 351.207485 67.056059 
L 352.258147 66.744636 
L 353.308808 66.626988 
L 354.35947 65.941858 
L 355.410132 66.675431 
L 356.460794 66.080268 
L 357.511456 65.699641 
L 358.562118 65.519708 
L 359.61278 66.370929 
L 360.663442 64.834578 
L 362.764766 63.997197 
L 363.815428 64.710009 
L 364.86609 63.865707 
L 365.916752 63.789582 
L 366.967414 63.983356 
L 369.068738 63.851866 
L 370.1194 64.474712 
L 371.170062 63.166737 
L 372.220724 63.118293 
L 373.271386 63.20826 
L 374.322048 62.93836 
L 375.37271 62.869155 
L 376.423372 62.280912 
L 377.474034 62.93144 
L 379.575357 62.377799 
L 380.626019 62.599256 
L 381.676681 62.094059 
L 382.727343 61.810318 
L 383.778005 62.744586 
L 384.828667 62.163264 
L 385.879329 61.754954 
L 386.929991 61.927967 
L 387.980653 61.346645 
L 389.031315 61.318963 
L 390.081977 62.052536 
L 391.132639 62.301674 
L 392.183301 61.222076 
L 393.233963 61.41585 
L 395.335287 62.038695 
L 396.385949 60.820686 
L 397.436611 61.42277 
L 398.487273 62.170184 
L 398.487273 62.170184 
" clip-path="url(#pf01f4d1a40)" style="fill: none; stroke: #1f77b4; stroke-width: 1.5; stroke-linecap: square"/>
   </g>
   <g id="line2d_20">
    <path d="M 73.832727 259.487547 
L 74.883389 229.694784 
L 75.934051 194.78085 
L 76.984713 175.472649 
L 78.035375 169.694029 
L 79.086037 154.538129 
L 80.136699 160.974196 
L 81.187361 125.541224 
L 82.238023 127.167542 
L 83.288685 115.264278 
L 84.339347 155.091769 
L 86.440671 133.776622 
L 87.491333 141.389175 
L 88.541995 122.150178 
L 89.592657 119.451182 
L 90.643319 138.863191 
L 91.693981 124.952982 
L 92.744643 106.233023 
L 93.795305 116.544571 
L 94.845966 105.09114 
L 95.896628 99.208713 
L 96.94729 91.492353 
L 97.997952 90.07365 
L 99.048614 92.772646 
L 100.099276 89.450805 
L 101.149938 87.305449 
L 102.2006 83.706788 
L 103.251262 84.502645 
L 104.301924 84.883273 
L 105.352586 118.482312 
L 106.403248 104.918127 
L 107.45391 119.55499 
L 108.504572 94.571976 
L 109.555234 108.897416 
L 110.605896 115.679508 
L 111.656558 118.759132 
L 112.70722 108.932019 
L 113.757882 95.402437 
L 114.808544 84.052813 
L 115.859206 89.104779 
L 116.909868 97.09796 
L 117.96053 99.727751 
L 119.011192 86.648001 
L 120.061853 91.942185 
L 121.112515 83.8798 
L 122.163177 80.661767 
L 123.213839 84.364235 
L 124.264501 84.225825 
L 125.315163 78.551013 
L 126.365825 82.945532 
L 127.416487 74.744737 
L 129.517811 73.187624 
L 130.568473 75.436787 
L 131.619135 71.803524 
L 132.669797 71.042268 
L 133.720459 68.931515 
L 134.771121 72.426369 
L 135.821783 70.419423 
L 136.872445 69.035323 
L 137.923107 69.173733 
L 138.973769 66.647749 
L 140.024431 68.17026 
L 141.075093 67.166787 
L 142.125755 67.443607 
L 143.176417 66.128712 
L 144.227079 67.028377 
L 145.277741 65.955699 
L 146.328402 66.682352 
L 147.379064 93.568503 
L 148.429726 109.797081 
L 149.480388 85.056286 
L 150.53105 79.935114 
L 151.581712 85.194696 
L 152.632374 85.817541 
L 153.683036 81.215407 
L 154.733698 79.000846 
L 155.78436 84.052813 
L 156.835022 85.540721 
L 157.885684 73.429842 
L 158.936346 84.502645 
L 159.987008 77.236118 
L 161.03767 78.654821 
L 162.088332 79.519884 
L 163.138994 77.27072 
L 164.189656 80.973189 
L 165.240318 73.533649 
L 166.29098 74.121892 
L 167.341642 72.391766 
L 168.392304 73.948879 
L 169.442966 77.685951 
L 170.493628 73.845072 
L 172.594951 71.422896 
L 173.645613 78.585616 
L 174.696275 67.789632 
L 175.746937 66.543942 
L 176.797599 72.703189 
L 177.848261 69.761975 
L 178.898923 66.197917 
L 179.949585 67.305197 
L 181.000247 66.440134 
L 182.050909 65.367456 
L 183.101571 71.768921 
L 184.152233 66.578544 
L 185.202895 69.312143 
L 186.253557 68.58549 
L 187.304219 65.229046 
L 188.354881 64.848419 
L 189.405543 66.716954 
L 190.456205 66.370929 
L 191.506867 66.716954 
L 192.557529 62.876076 
L 193.608191 66.128712 
L 194.658853 63.222101 
L 195.709515 63.602728 
L 196.760177 63.118293 
L 197.810838 65.056034 
L 198.8615 65.332854 
L 199.912162 65.194444 
L 200.962824 61.768795 
L 202.013486 61.00754 
L 203.064148 60.107875 
L 205.165472 60.073272 
L 206.216134 61.664988 
L 207.266796 60.142477 
L 208.317458 61.491975 
L 209.36812 60.211682 
L 210.418782 59.519632 
L 212.520106 59.104402 
L 213.570768 59.242812 
L 214.62143 58.792979 
L 215.672092 59.450427 
L 216.722754 58.758377 
L 217.773416 58.516159 
L 218.824078 58.654569 
L 219.87474 59.485029 
L 220.925402 58.827582 
L 223.026726 59.069799 
L 224.077387 58.792979 
L 225.128049 58.689172 
L 226.178711 58.827582 
L 227.229373 58.412352 
L 228.280035 58.654569 
L 229.330697 58.412352 
L 230.381359 58.689172 
L 231.432021 74.813942 
L 232.482683 83.60298 
L 233.533345 75.74821 
L 234.584007 74.77934 
L 235.634669 74.848545 
L 236.685331 74.018084 
L 237.735993 73.602854 
L 238.786655 71.180678 
L 239.837317 80.903984 
L 240.887979 69.312143 
L 241.938641 68.066452 
L 242.989303 75.436787 
L 244.039965 68.17026 
L 245.090627 69.208335 
L 246.141289 75.575197 
L 247.191951 67.06298 
L 248.242613 75.575197 
L 249.293274 66.197917 
L 250.343936 70.419423 
L 251.394598 68.827708 
L 252.44526 76.267248 
L 253.495922 66.301724 
L 254.546584 73.948879 
L 255.597246 69.41595 
L 256.647908 67.270595 
L 257.69857 66.751557 
L 258.749232 67.028377 
L 259.799894 65.298251 
L 260.850556 65.159841 
L 261.901218 70.661641 
L 262.95188 67.75503 
L 265.053204 65.125239 
L 266.103866 67.3398 
L 268.20519 64.017959 
L 269.255852 68.827708 
L 270.306514 69.312143 
L 271.357176 65.402059 
L 272.407838 65.955699 
L 273.4585 65.851892 
L 274.509162 65.056034 
L 275.559823 66.682352 
L 276.610485 67.547415 
L 277.661147 65.402059 
L 278.711809 63.983356 
L 279.762471 65.159841 
L 280.813133 66.647749 
L 281.863795 67.858837 
L 282.914457 63.187498 
L 283.965119 62.080218 
L 285.015781 64.502394 
L 287.117105 65.021431 
L 288.167767 62.945281 
L 289.218429 62.668461 
L 290.269091 63.152896 
L 291.319753 63.464318 
L 292.370415 63.464318 
L 293.421077 64.640804 
L 294.471739 62.149423 
L 295.522401 62.633858 
L 296.573063 63.914151 
L 297.623725 63.152896 
L 298.674387 65.540469 
L 299.725049 60.938335 
L 300.775711 62.218628 
L 301.826372 61.56118 
L 302.877034 61.526578 
L 303.927696 62.011013 
L 304.978358 59.658042 
L 306.02902 63.049088 
L 307.079682 60.557707 
L 308.130344 65.851892 
L 309.181006 64.467791 
L 310.231668 59.796452 
L 311.28233 59.242812 
L 312.332992 61.42277 
L 313.383654 59.035197 
L 314.434316 58.862184 
L 315.484978 59.692645 
L 316.53564 61.941808 
L 318.636964 59.485029 
L 319.687626 62.080218 
L 320.738288 58.792979 
L 321.78895 57.962519 
L 322.839612 58.100929 
L 323.890274 59.485029 
L 324.940936 57.997121 
L 327.042259 58.792979 
L 328.092921 58.896787 
L 329.143583 57.097456 
L 330.194245 57.754904 
L 331.244907 57.720301 
L 332.295569 58.550762 
L 333.346231 57.824109 
L 335.447555 56.959046 
L 336.498217 56.993649 
L 337.548879 58.204737 
L 338.599541 56.301598 
L 339.650203 58.170134 
L 340.700865 57.720301 
L 341.751527 56.855239 
L 342.802189 57.062854 
L 344.903513 55.782561 
L 345.954175 55.782561 
L 347.004837 56.336201 
L 348.055499 55.471138 
L 349.106161 55.747958 
L 350.156823 55.021305 
L 351.207485 54.779088 
L 352.258147 54.709883 
L 353.308808 55.401933 
L 354.35947 55.574946 
L 355.410132 54.9521 
L 356.460794 54.53687 
L 357.511456 54.744485 
L 358.562118 54.052435 
L 359.61278 55.228921 
L 361.714104 54.363858 
L 362.764766 55.021305 
L 363.815428 54.986703 
L 365.916752 54.571473 
L 368.018076 54.744485 
L 369.068738 54.502268 
L 370.1194 54.467665 
L 371.170062 54.052435 
L 372.220724 54.26005 
L 373.271386 53.948628 
L 374.322048 54.26005 
L 375.37271 53.914025 
L 376.423372 53.84482 
L 377.474034 54.294653 
L 378.524695 53.98323 
L 379.575357 54.12164 
L 380.626019 54.052435 
L 381.676681 53.84482 
L 383.778005 54.156243 
L 384.828667 53.810218 
L 385.879329 54.052435 
L 386.929991 53.637205 
L 389.031315 53.568 
L 390.081977 53.84482 
L 391.132639 53.775615 
L 392.183301 54.156243 
L 393.233963 53.70641 
L 398.487273 53.775615 
L 398.487273 53.775615 
" clip-path="url(#pf01f4d1a40)" style="fill: none; stroke: #ff7f0e; stroke-width: 1.5; stroke-linecap: square"/>
   </g>
   <g id="patch_3">
    <path d="M 57.6 307.584 
L 57.6 41.472 
" style="fill: none; stroke: #000000; stroke-width: 0.8; stroke-linejoin: miter; stroke-linecap: square"/>
   </g>
   <g id="patch_4">
    <path d="M 414.72 307.584 
L 414.72 41.472 
" style="fill: none; stroke: #000000; stroke-width: 0.8; stroke-linejoin: miter; stroke-linecap: square"/>
   </g>
   <g id="patch_5">
    <path d="M 57.6 307.584 
L 414.72 307.584 
" style="fill: none; stroke: #000000; stroke-width: 0.8; stroke-linejoin: miter; stroke-linecap: square"/>
   </g>
   <g id="patch_6">
    <path d="M 57.6 41.472 
L 414.72 41.472 
" style="fill: none; stroke: #000000; stroke-width: 0.8; stroke-linejoin: miter; stroke-linecap: square"/>
   </g>
   <g id="text_21">
    <!-- Training and Validation Accuracy -->
    <g transform="translate(138.4575 35.472) scale(0.12 -0.12)">
     <defs>
      <path id="DejaVuSans-54" d="M -19 4666 
L 3928 4666 
L 3928 4134 
L 2272 4134 
L 2272 0 
L 1638 0 
L 1638 4134 
L -19 4134 
L -19 4666 
z
" transform="scale(0.015625)"/>
      <path id="DejaVuSans-69" d="M 603 3500 
L 1178 3500 
L 1178 0 
L 603 0 
L 603 3500 
z
M 603 4863 
L 1178 4863 
L 1178 4134 
L 603 4134 
L 603 4863 
z
" transform="scale(0.015625)"/>
      <path id="DejaVuSans-6e" d="M 3513 2113 
L 3513 0 
L 2938 0 
L 2938 2094 
Q 2938 2591 2744 2837 
Q 2550 3084 2163 3084 
Q 1697 3084 1428 2787 
Q 1159 2491 1159 1978 
L 1159 0 
L 581 0 
L 581 3500 
L 1159 3500 
L 1159 2956 
Q 1366 3272 1645 3428 
Q 1925 3584 2291 3584 
Q 2894 3584 3203 3211 
Q 3513 2838 3513 2113 
z
" transform="scale(0.015625)"/>
      <path id="DejaVuSans-67" d="M 2906 1791 
Q 2906 2416 2648 2759 
Q 2391 3103 1925 3103 
Q 1463 3103 1205 2759 
Q 947 2416 947 1791 
Q 947 1169 1205 825 
Q 1463 481 1925 481 
Q 2391 481 2648 825 
Q 2906 1169 2906 1791 
z
M 3481 434 
Q 3481 -459 3084 -895 
Q 2688 -1331 1869 -1331 
Q 1566 -1331 1297 -1286 
Q 1028 -1241 775 -1147 
L 775 -588 
Q 1028 -725 1275 -790 
Q 1522 -856 1778 -856 
Q 2344 -856 2625 -561 
Q 2906 -266 2906 331 
L 2906 616 
Q 2728 306 2450 153 
Q 2172 0 1784 0 
Q 1141 0 747 490 
Q 353 981 353 1791 
Q 353 2603 747 3093 
Q 1141 3584 1784 3584 
Q 2172 3584 2450 3431 
Q 2728 3278 2906 2969 
L 2906 3500 
L 3481 3500 
L 3481 434 
z
" transform="scale(0.015625)"/>
      <path id="DejaVuSans-20" transform="scale(0.015625)"/>
      <path id="DejaVuSans-64" d="M 2906 2969 
L 2906 4863 
L 3481 4863 
L 3481 0 
L 2906 0 
L 2906 525 
Q 2725 213 2448 61 
Q 2172 -91 1784 -91 
Q 1150 -91 751 415 
Q 353 922 353 1747 
Q 353 2572 751 3078 
Q 1150 3584 1784 3584 
Q 2172 3584 2448 3432 
Q 2725 3281 2906 2969 
z
M 947 1747 
Q 947 1113 1208 752 
Q 1469 391 1925 391 
Q 2381 391 2643 752 
Q 2906 1113 2906 1747 
Q 2906 2381 2643 2742 
Q 2381 3103 1925 3103 
Q 1469 3103 1208 2742 
Q 947 2381 947 1747 
z
" transform="scale(0.015625)"/>
      <path id="DejaVuSans-56" d="M 1831 0 
L 50 4666 
L 709 4666 
L 2188 738 
L 3669 4666 
L 4325 4666 
L 2547 0 
L 1831 0 
z
" transform="scale(0.015625)"/>
      <path id="DejaVuSans-6c" d="M 603 4863 
L 1178 4863 
L 1178 0 
L 603 0 
L 603 4863 
z
" transform="scale(0.015625)"/>
      <path id="DejaVuSans-74" d="M 1172 4494 
L 1172 3500 
L 2356 3500 
L 2356 3053 
L 1172 3053 
L 1172 1153 
Q 1172 725 1289 603 
Q 1406 481 1766 481 
L 2356 481 
L 2356 0 
L 1766 0 
Q 1100 0 847 248 
Q 594 497 594 1153 
L 594 3053 
L 172 3053 
L 172 3500 
L 594 3500 
L 594 4494 
L 1172 4494 
z
" transform="scale(0.015625)"/>
     </defs>
     <use xlink:href="#DejaVuSans-54"/>
     <use xlink:href="#DejaVuSans-72" x="46.333984"/>
     <use xlink:href="#DejaVuSans-61" x="87.447266"/>
     <use xlink:href="#DejaVuSans-69" x="148.726562"/>
     <use xlink:href="#DejaVuSans-6e" x="176.509766"/>
     <use xlink:href="#DejaVuSans-69" x="239.888672"/>
     <use xlink:href="#DejaVuSans-6e" x="267.671875"/>
     <use xlink:href="#DejaVuSans-67" x="331.050781"/>
     <use xlink:href="#DejaVuSans-20" x="394.527344"/>
     <use xlink:href="#DejaVuSans-61" x="426.314453"/>
     <use xlink:href="#DejaVuSans-6e" x="487.59375"/>
     <use xlink:href="#DejaVuSans-64" x="550.972656"/>
     <use xlink:href="#DejaVuSans-20" x="614.449219"/>
     <use xlink:href="#DejaVuSans-56" x="646.236328"/>
     <use xlink:href="#DejaVuSans-61" x="706.894531"/>
     <use xlink:href="#DejaVuSans-6c" x="768.173828"/>
     <use xlink:href="#DejaVuSans-69" x="795.957031"/>
     <use xlink:href="#DejaVuSans-64" x="823.740234"/>
     <use xlink:href="#DejaVuSans-61" x="887.216797"/>
     <use xlink:href="#DejaVuSans-74" x="948.496094"/>
     <use xlink:href="#DejaVuSans-69" x="987.705078"/>
     <use xlink:href="#DejaVuSans-6f" x="1015.488281"/>
     <use xlink:href="#DejaVuSans-6e" x="1076.669922"/>
     <use xlink:href="#DejaVuSans-20" x="1140.048828"/>
     <use xlink:href="#DejaVuSans-41" x="1171.835938"/>
     <use xlink:href="#DejaVuSans-63" x="1238.494141"/>
     <use xlink:href="#DejaVuSans-63" x="1293.474609"/>
     <use xlink:href="#DejaVuSans-75" x="1348.455078"/>
     <use xlink:href="#DejaVuSans-72" x="1411.833984"/>
     <use xlink:href="#DejaVuSans-61" x="1452.947266"/>
     <use xlink:href="#DejaVuSans-63" x="1514.226562"/>
     <use xlink:href="#DejaVuSans-79" x="1569.207031"/>
    </g>
   </g>
   <g id="legend_1">
    <g id="patch_7">
     <path d="M 277.504375 302.584 
L 407.72 302.584 
Q 409.72 302.584 409.72 300.584 
L 409.72 272.22775 
Q 409.72 270.22775 407.72 270.22775 
L 277.504375 270.22775 
Q 275.504375 270.22775 275.504375 272.22775 
L 275.504375 300.584 
Q 275.504375 302.584 277.504375 302.584 
z
" style="fill: #ffffff; opacity: 0.8; stroke: #cccccc; stroke-linejoin: miter"/>
    </g>
    <g id="line2d_21">
     <path d="M 279.504375 278.326187 
L 289.504375 278.326187 
L 299.504375 278.326187 
" style="fill: none; stroke: #1f77b4; stroke-width: 1.5; stroke-linecap: square"/>
    </g>
    <g id="text_22">
     <!-- Train Accuracy -->
     <g transform="translate(307.504375 281.826187) scale(0.1 -0.1)">
      <use xlink:href="#DejaVuSans-54"/>
      <use xlink:href="#DejaVuSans-72" x="46.333984"/>
      <use xlink:href="#DejaVuSans-61" x="87.447266"/>
      <use xlink:href="#DejaVuSans-69" x="148.726562"/>
      <use xlink:href="#DejaVuSans-6e" x="176.509766"/>
      <use xlink:href="#DejaVuSans-20" x="239.888672"/>
      <use xlink:href="#DejaVuSans-41" x="271.675781"/>
      <use xlink:href="#DejaVuSans-63" x="338.333984"/>
      <use xlink:href="#DejaVuSans-63" x="393.314453"/>
      <use xlink:href="#DejaVuSans-75" x="448.294922"/>
      <use xlink:href="#DejaVuSans-72" x="511.673828"/>
      <use xlink:href="#DejaVuSans-61" x="552.787109"/>
      <use xlink:href="#DejaVuSans-63" x="614.066406"/>
      <use xlink:href="#DejaVuSans-79" x="669.046875"/>
     </g>
    </g>
    <g id="line2d_22">
     <path d="M 279.504375 293.004312 
L 289.504375 293.004312 
L 299.504375 293.004312 
" style="fill: none; stroke: #ff7f0e; stroke-width: 1.5; stroke-linecap: square"/>
    </g>
    <g id="text_23">
     <!-- Validation Accuracy -->
     <g transform="translate(307.504375 296.504312) scale(0.1 -0.1)">
      <use xlink:href="#DejaVuSans-56"/>
      <use xlink:href="#DejaVuSans-61" x="60.658203"/>
      <use xlink:href="#DejaVuSans-6c" x="121.9375"/>
      <use xlink:href="#DejaVuSans-69" x="149.720703"/>
      <use xlink:href="#DejaVuSans-64" x="177.503906"/>
      <use xlink:href="#DejaVuSans-61" x="240.980469"/>
      <use xlink:href="#DejaVuSans-74" x="302.259766"/>
      <use xlink:href="#DejaVuSans-69" x="341.46875"/>
      <use xlink:href="#DejaVuSans-6f" x="369.251953"/>
      <use xlink:href="#DejaVuSans-6e" x="430.433594"/>
      <use xlink:href="#DejaVuSans-20" x="493.8125"/>
      <use xlink:href="#DejaVuSans-41" x="525.599609"/>
      <use xlink:href="#DejaVuSans-63" x="592.257812"/>
      <use xlink:href="#DejaVuSans-63" x="647.238281"/>
      <use xlink:href="#DejaVuSans-75" x="702.21875"/>
      <use xlink:href="#DejaVuSans-72" x="765.597656"/>
      <use xlink:href="#DejaVuSans-61" x="806.710938"/>
      <use xlink:href="#DejaVuSans-63" x="867.990234"/>
      <use xlink:href="#DejaVuSans-79" x="922.970703"/>
     </g>
    </g>
   </g>
  </g>
 </g>
 <defs>
  <clipPath id="pf01f4d1a40">
   <rect x="57.6" y="41.472" width="357.12" height="266.112"/>
  </clipPath>
 </defs>
</svg>
