<?xml version="1.0" encoding="utf-8" standalone="no"?>
<!DOCTYPE svg PUBLIC "-//W3C//DTD SVG 1.1//EN"
  "http://www.w3.org/Graphics/SVG/1.1/DTD/svg11.dtd">
<svg height="345.6pt" version="1.1" viewBox="0 0 460.8 345.6" width="460.8pt" xmlns="http://www.w3.org/2000/svg" xmlns:xlink="http://www.w3.org/1999/xlink">
 <metadata>
  <rdf:RDF xmlns:cc="http://creativecommons.org/ns#" xmlns:dc="http://purl.org/dc/elements/1.1/" xmlns:rdf="http://www.w3.org/1999/02/22-rdf-syntax-ns#">
   <cc:Work>
    <dc:type rdf:resource="http://purl.org/dc/dcmitype/StillImage"/>
    <dc:date>2023-07-14T02:09:23.282352</dc:date>
    <dc:format>image/svg+xml</dc:format>
    <dc:creator>
     <cc:Agent>
      <dc:title>Matplotlib v3.4.3, https://matplotlib.org/</dc:title>
     </cc:Agent>
    </dc:creator>
   </cc:Work>
  </rdf:RDF>
 </metadata>
 <defs>
  <style type="text/css">*{stroke-linecap:butt;stroke-linejoin:round;}</style>
 </defs>
 <g id="figure_1">
  <g id="patch_1">
   <path d="M 0 345.6 
L 460.8 345.6 
L 460.8 0 
L 0 0 
z
" style="fill:#ffffff;"/>
  </g>
  <g id="axes_1">
   <g id="patch_2">
    <path d="M 57.6 307.584 
L 414.72 307.584 
L 414.72 41.472 
L 57.6 41.472 
z
" style="fill:#ffffff;"/>
   </g>
   <g id="matplotlib.axis_1">
    <g id="xtick_1">
     <g id="line2d_1">
      <defs>
       <path d="M 0 0 
L 0 3.5 
" id="m40755ef0ca" style="stroke:#000000;stroke-width:0.8;"/>
      </defs>
      <g>
       <use style="stroke:#000000;stroke-width:0.8;" x="72.746926" xlink:href="#m40755ef0ca" y="307.584"/>
      </g>
     </g>
     <g id="text_1">
      <!-- 0 -->
      <g transform="translate(69.565676 322.182437)scale(0.1 -0.1)">
       <defs>
        <path d="M 2034 4250 
Q 1547 4250 1301 3770 
Q 1056 3291 1056 2328 
Q 1056 1369 1301 889 
Q 1547 409 2034 409 
Q 2525 409 2770 889 
Q 3016 1369 3016 2328 
Q 3016 3291 2770 3770 
Q 2525 4250 2034 4250 
z
M 2034 4750 
Q 2819 4750 3233 4129 
Q 3647 3509 3647 2328 
Q 3647 1150 3233 529 
Q 2819 -91 2034 -91 
Q 1250 -91 836 529 
Q 422 1150 422 2328 
Q 422 3509 836 4129 
Q 1250 4750 2034 4750 
z
" id="DejaVuSans-30" transform="scale(0.015625)"/>
       </defs>
       <use xlink:href="#DejaVuSans-30"/>
      </g>
     </g>
    </g>
    <g id="xtick_2">
     <g id="line2d_2">
      <g>
       <use style="stroke:#000000;stroke-width:0.8;" x="105.320961" xlink:href="#m40755ef0ca" y="307.584"/>
      </g>
     </g>
     <g id="text_2">
      <!-- 30 -->
      <g transform="translate(98.958461 322.182437)scale(0.1 -0.1)">
       <defs>
        <path d="M 2597 2516 
Q 3050 2419 3304 2112 
Q 3559 1806 3559 1356 
Q 3559 666 3084 287 
Q 2609 -91 1734 -91 
Q 1441 -91 1130 -33 
Q 819 25 488 141 
L 488 750 
Q 750 597 1062 519 
Q 1375 441 1716 441 
Q 2309 441 2620 675 
Q 2931 909 2931 1356 
Q 2931 1769 2642 2001 
Q 2353 2234 1838 2234 
L 1294 2234 
L 1294 2753 
L 1863 2753 
Q 2328 2753 2575 2939 
Q 2822 3125 2822 3475 
Q 2822 3834 2567 4026 
Q 2313 4219 1838 4219 
Q 1578 4219 1281 4162 
Q 984 4106 628 3988 
L 628 4550 
Q 988 4650 1302 4700 
Q 1616 4750 1894 4750 
Q 2613 4750 3031 4423 
Q 3450 4097 3450 3541 
Q 3450 3153 3228 2886 
Q 3006 2619 2597 2516 
z
" id="DejaVuSans-33" transform="scale(0.015625)"/>
       </defs>
       <use xlink:href="#DejaVuSans-33"/>
       <use x="63.623047" xlink:href="#DejaVuSans-30"/>
      </g>
     </g>
    </g>
    <g id="xtick_3">
     <g id="line2d_3">
      <g>
       <use style="stroke:#000000;stroke-width:0.8;" x="137.894995" xlink:href="#m40755ef0ca" y="307.584"/>
      </g>
     </g>
     <g id="text_3">
      <!-- 60 -->
      <g transform="translate(131.532495 322.182437)scale(0.1 -0.1)">
       <defs>
        <path d="M 2113 2584 
Q 1688 2584 1439 2293 
Q 1191 2003 1191 1497 
Q 1191 994 1439 701 
Q 1688 409 2113 409 
Q 2538 409 2786 701 
Q 3034 994 3034 1497 
Q 3034 2003 2786 2293 
Q 2538 2584 2113 2584 
z
M 3366 4563 
L 3366 3988 
Q 3128 4100 2886 4159 
Q 2644 4219 2406 4219 
Q 1781 4219 1451 3797 
Q 1122 3375 1075 2522 
Q 1259 2794 1537 2939 
Q 1816 3084 2150 3084 
Q 2853 3084 3261 2657 
Q 3669 2231 3669 1497 
Q 3669 778 3244 343 
Q 2819 -91 2113 -91 
Q 1303 -91 875 529 
Q 447 1150 447 2328 
Q 447 3434 972 4092 
Q 1497 4750 2381 4750 
Q 2619 4750 2861 4703 
Q 3103 4656 3366 4563 
z
" id="DejaVuSans-36" transform="scale(0.015625)"/>
       </defs>
       <use xlink:href="#DejaVuSans-36"/>
       <use x="63.623047" xlink:href="#DejaVuSans-30"/>
      </g>
     </g>
    </g>
    <g id="xtick_4">
     <g id="line2d_4">
      <g>
       <use style="stroke:#000000;stroke-width:0.8;" x="170.46903" xlink:href="#m40755ef0ca" y="307.584"/>
      </g>
     </g>
     <g id="text_4">
      <!-- 90 -->
      <g transform="translate(164.10653 322.182437)scale(0.1 -0.1)">
       <defs>
        <path d="M 703 97 
L 703 672 
Q 941 559 1184 500 
Q 1428 441 1663 441 
Q 2288 441 2617 861 
Q 2947 1281 2994 2138 
Q 2813 1869 2534 1725 
Q 2256 1581 1919 1581 
Q 1219 1581 811 2004 
Q 403 2428 403 3163 
Q 403 3881 828 4315 
Q 1253 4750 1959 4750 
Q 2769 4750 3195 4129 
Q 3622 3509 3622 2328 
Q 3622 1225 3098 567 
Q 2575 -91 1691 -91 
Q 1453 -91 1209 -44 
Q 966 3 703 97 
z
M 1959 2075 
Q 2384 2075 2632 2365 
Q 2881 2656 2881 3163 
Q 2881 3666 2632 3958 
Q 2384 4250 1959 4250 
Q 1534 4250 1286 3958 
Q 1038 3666 1038 3163 
Q 1038 2656 1286 2365 
Q 1534 2075 1959 2075 
z
" id="DejaVuSans-39" transform="scale(0.015625)"/>
       </defs>
       <use xlink:href="#DejaVuSans-39"/>
       <use x="63.623047" xlink:href="#DejaVuSans-30"/>
      </g>
     </g>
    </g>
    <g id="xtick_5">
     <g id="line2d_5">
      <g>
       <use style="stroke:#000000;stroke-width:0.8;" x="203.043065" xlink:href="#m40755ef0ca" y="307.584"/>
      </g>
     </g>
     <g id="text_5">
      <!-- 120 -->
      <g transform="translate(193.499315 322.182437)scale(0.1 -0.1)">
       <defs>
        <path d="M 794 531 
L 1825 531 
L 1825 4091 
L 703 3866 
L 703 4441 
L 1819 4666 
L 2450 4666 
L 2450 531 
L 3481 531 
L 3481 0 
L 794 0 
L 794 531 
z
" id="DejaVuSans-31" transform="scale(0.015625)"/>
        <path d="M 1228 531 
L 3431 531 
L 3431 0 
L 469 0 
L 469 531 
Q 828 903 1448 1529 
Q 2069 2156 2228 2338 
Q 2531 2678 2651 2914 
Q 2772 3150 2772 3378 
Q 2772 3750 2511 3984 
Q 2250 4219 1831 4219 
Q 1534 4219 1204 4116 
Q 875 4013 500 3803 
L 500 4441 
Q 881 4594 1212 4672 
Q 1544 4750 1819 4750 
Q 2544 4750 2975 4387 
Q 3406 4025 3406 3419 
Q 3406 3131 3298 2873 
Q 3191 2616 2906 2266 
Q 2828 2175 2409 1742 
Q 1991 1309 1228 531 
z
" id="DejaVuSans-32" transform="scale(0.015625)"/>
       </defs>
       <use xlink:href="#DejaVuSans-31"/>
       <use x="63.623047" xlink:href="#DejaVuSans-32"/>
       <use x="127.246094" xlink:href="#DejaVuSans-30"/>
      </g>
     </g>
    </g>
    <g id="xtick_6">
     <g id="line2d_6">
      <g>
       <use style="stroke:#000000;stroke-width:0.8;" x="235.617099" xlink:href="#m40755ef0ca" y="307.584"/>
      </g>
     </g>
     <g id="text_6">
      <!-- 150 -->
      <g transform="translate(226.073349 322.182437)scale(0.1 -0.1)">
       <defs>
        <path d="M 691 4666 
L 3169 4666 
L 3169 4134 
L 1269 4134 
L 1269 2991 
Q 1406 3038 1543 3061 
Q 1681 3084 1819 3084 
Q 2600 3084 3056 2656 
Q 3513 2228 3513 1497 
Q 3513 744 3044 326 
Q 2575 -91 1722 -91 
Q 1428 -91 1123 -41 
Q 819 9 494 109 
L 494 744 
Q 775 591 1075 516 
Q 1375 441 1709 441 
Q 2250 441 2565 725 
Q 2881 1009 2881 1497 
Q 2881 1984 2565 2268 
Q 2250 2553 1709 2553 
Q 1456 2553 1204 2497 
Q 953 2441 691 2322 
L 691 4666 
z
" id="DejaVuSans-35" transform="scale(0.015625)"/>
       </defs>
       <use xlink:href="#DejaVuSans-31"/>
       <use x="63.623047" xlink:href="#DejaVuSans-35"/>
       <use x="127.246094" xlink:href="#DejaVuSans-30"/>
      </g>
     </g>
    </g>
    <g id="xtick_7">
     <g id="line2d_7">
      <g>
       <use style="stroke:#000000;stroke-width:0.8;" x="268.191134" xlink:href="#m40755ef0ca" y="307.584"/>
      </g>
     </g>
     <g id="text_7">
      <!-- 180 -->
      <g transform="translate(258.647384 322.182437)scale(0.1 -0.1)">
       <defs>
        <path d="M 2034 2216 
Q 1584 2216 1326 1975 
Q 1069 1734 1069 1313 
Q 1069 891 1326 650 
Q 1584 409 2034 409 
Q 2484 409 2743 651 
Q 3003 894 3003 1313 
Q 3003 1734 2745 1975 
Q 2488 2216 2034 2216 
z
M 1403 2484 
Q 997 2584 770 2862 
Q 544 3141 544 3541 
Q 544 4100 942 4425 
Q 1341 4750 2034 4750 
Q 2731 4750 3128 4425 
Q 3525 4100 3525 3541 
Q 3525 3141 3298 2862 
Q 3072 2584 2669 2484 
Q 3125 2378 3379 2068 
Q 3634 1759 3634 1313 
Q 3634 634 3220 271 
Q 2806 -91 2034 -91 
Q 1263 -91 848 271 
Q 434 634 434 1313 
Q 434 1759 690 2068 
Q 947 2378 1403 2484 
z
M 1172 3481 
Q 1172 3119 1398 2916 
Q 1625 2713 2034 2713 
Q 2441 2713 2670 2916 
Q 2900 3119 2900 3481 
Q 2900 3844 2670 4047 
Q 2441 4250 2034 4250 
Q 1625 4250 1398 4047 
Q 1172 3844 1172 3481 
z
" id="DejaVuSans-38" transform="scale(0.015625)"/>
       </defs>
       <use xlink:href="#DejaVuSans-31"/>
       <use x="63.623047" xlink:href="#DejaVuSans-38"/>
       <use x="127.246094" xlink:href="#DejaVuSans-30"/>
      </g>
     </g>
    </g>
    <g id="xtick_8">
     <g id="line2d_8">
      <g>
       <use style="stroke:#000000;stroke-width:0.8;" x="300.765169" xlink:href="#m40755ef0ca" y="307.584"/>
      </g>
     </g>
     <g id="text_8">
      <!-- 210 -->
      <g transform="translate(291.221419 322.182437)scale(0.1 -0.1)">
       <use xlink:href="#DejaVuSans-32"/>
       <use x="63.623047" xlink:href="#DejaVuSans-31"/>
       <use x="127.246094" xlink:href="#DejaVuSans-30"/>
      </g>
     </g>
    </g>
    <g id="xtick_9">
     <g id="line2d_9">
      <g>
       <use style="stroke:#000000;stroke-width:0.8;" x="333.339203" xlink:href="#m40755ef0ca" y="307.584"/>
      </g>
     </g>
     <g id="text_9">
      <!-- 240 -->
      <g transform="translate(323.795453 322.182437)scale(0.1 -0.1)">
       <defs>
        <path d="M 2419 4116 
L 825 1625 
L 2419 1625 
L 2419 4116 
z
M 2253 4666 
L 3047 4666 
L 3047 1625 
L 3713 1625 
L 3713 1100 
L 3047 1100 
L 3047 0 
L 2419 0 
L 2419 1100 
L 313 1100 
L 313 1709 
L 2253 4666 
z
" id="DejaVuSans-34" transform="scale(0.015625)"/>
       </defs>
       <use xlink:href="#DejaVuSans-32"/>
       <use x="63.623047" xlink:href="#DejaVuSans-34"/>
       <use x="127.246094" xlink:href="#DejaVuSans-30"/>
      </g>
     </g>
    </g>
    <g id="xtick_10">
     <g id="line2d_10">
      <g>
       <use style="stroke:#000000;stroke-width:0.8;" x="365.913238" xlink:href="#m40755ef0ca" y="307.584"/>
      </g>
     </g>
     <g id="text_10">
      <!-- 270 -->
      <g transform="translate(356.369488 322.182437)scale(0.1 -0.1)">
       <defs>
        <path d="M 525 4666 
L 3525 4666 
L 3525 4397 
L 1831 0 
L 1172 0 
L 2766 4134 
L 525 4134 
L 525 4666 
z
" id="DejaVuSans-37" transform="scale(0.015625)"/>
       </defs>
       <use xlink:href="#DejaVuSans-32"/>
       <use x="63.623047" xlink:href="#DejaVuSans-37"/>
       <use x="127.246094" xlink:href="#DejaVuSans-30"/>
      </g>
     </g>
    </g>
    <g id="xtick_11">
     <g id="line2d_11">
      <g>
       <use style="stroke:#000000;stroke-width:0.8;" x="398.487273" xlink:href="#m40755ef0ca" y="307.584"/>
      </g>
     </g>
     <g id="text_11">
      <!-- 300 -->
      <g transform="translate(388.943523 322.182437)scale(0.1 -0.1)">
       <use xlink:href="#DejaVuSans-33"/>
       <use x="63.623047" xlink:href="#DejaVuSans-30"/>
       <use x="127.246094" xlink:href="#DejaVuSans-30"/>
      </g>
     </g>
    </g>
    <g id="text_12">
     <!-- Epochs -->
     <g transform="translate(218.244375 335.860562)scale(0.1 -0.1)">
      <defs>
       <path d="M 628 4666 
L 3578 4666 
L 3578 4134 
L 1259 4134 
L 1259 2753 
L 3481 2753 
L 3481 2222 
L 1259 2222 
L 1259 531 
L 3634 531 
L 3634 0 
L 628 0 
L 628 4666 
z
" id="DejaVuSans-45" transform="scale(0.015625)"/>
       <path d="M 1159 525 
L 1159 -1331 
L 581 -1331 
L 581 3500 
L 1159 3500 
L 1159 2969 
Q 1341 3281 1617 3432 
Q 1894 3584 2278 3584 
Q 2916 3584 3314 3078 
Q 3713 2572 3713 1747 
Q 3713 922 3314 415 
Q 2916 -91 2278 -91 
Q 1894 -91 1617 61 
Q 1341 213 1159 525 
z
M 3116 1747 
Q 3116 2381 2855 2742 
Q 2594 3103 2138 3103 
Q 1681 3103 1420 2742 
Q 1159 2381 1159 1747 
Q 1159 1113 1420 752 
Q 1681 391 2138 391 
Q 2594 391 2855 752 
Q 3116 1113 3116 1747 
z
" id="DejaVuSans-70" transform="scale(0.015625)"/>
       <path d="M 1959 3097 
Q 1497 3097 1228 2736 
Q 959 2375 959 1747 
Q 959 1119 1226 758 
Q 1494 397 1959 397 
Q 2419 397 2687 759 
Q 2956 1122 2956 1747 
Q 2956 2369 2687 2733 
Q 2419 3097 1959 3097 
z
M 1959 3584 
Q 2709 3584 3137 3096 
Q 3566 2609 3566 1747 
Q 3566 888 3137 398 
Q 2709 -91 1959 -91 
Q 1206 -91 779 398 
Q 353 888 353 1747 
Q 353 2609 779 3096 
Q 1206 3584 1959 3584 
z
" id="DejaVuSans-6f" transform="scale(0.015625)"/>
       <path d="M 3122 3366 
L 3122 2828 
Q 2878 2963 2633 3030 
Q 2388 3097 2138 3097 
Q 1578 3097 1268 2742 
Q 959 2388 959 1747 
Q 959 1106 1268 751 
Q 1578 397 2138 397 
Q 2388 397 2633 464 
Q 2878 531 3122 666 
L 3122 134 
Q 2881 22 2623 -34 
Q 2366 -91 2075 -91 
Q 1284 -91 818 406 
Q 353 903 353 1747 
Q 353 2603 823 3093 
Q 1294 3584 2113 3584 
Q 2378 3584 2631 3529 
Q 2884 3475 3122 3366 
z
" id="DejaVuSans-63" transform="scale(0.015625)"/>
       <path d="M 3513 2113 
L 3513 0 
L 2938 0 
L 2938 2094 
Q 2938 2591 2744 2837 
Q 2550 3084 2163 3084 
Q 1697 3084 1428 2787 
Q 1159 2491 1159 1978 
L 1159 0 
L 581 0 
L 581 4863 
L 1159 4863 
L 1159 2956 
Q 1366 3272 1645 3428 
Q 1925 3584 2291 3584 
Q 2894 3584 3203 3211 
Q 3513 2838 3513 2113 
z
" id="DejaVuSans-68" transform="scale(0.015625)"/>
       <path d="M 2834 3397 
L 2834 2853 
Q 2591 2978 2328 3040 
Q 2066 3103 1784 3103 
Q 1356 3103 1142 2972 
Q 928 2841 928 2578 
Q 928 2378 1081 2264 
Q 1234 2150 1697 2047 
L 1894 2003 
Q 2506 1872 2764 1633 
Q 3022 1394 3022 966 
Q 3022 478 2636 193 
Q 2250 -91 1575 -91 
Q 1294 -91 989 -36 
Q 684 19 347 128 
L 347 722 
Q 666 556 975 473 
Q 1284 391 1588 391 
Q 1994 391 2212 530 
Q 2431 669 2431 922 
Q 2431 1156 2273 1281 
Q 2116 1406 1581 1522 
L 1381 1569 
Q 847 1681 609 1914 
Q 372 2147 372 2553 
Q 372 3047 722 3315 
Q 1072 3584 1716 3584 
Q 2034 3584 2315 3537 
Q 2597 3491 2834 3397 
z
" id="DejaVuSans-73" transform="scale(0.015625)"/>
      </defs>
      <use xlink:href="#DejaVuSans-45"/>
      <use x="63.183594" xlink:href="#DejaVuSans-70"/>
      <use x="126.660156" xlink:href="#DejaVuSans-6f"/>
      <use x="187.841797" xlink:href="#DejaVuSans-63"/>
      <use x="242.822266" xlink:href="#DejaVuSans-68"/>
      <use x="306.201172" xlink:href="#DejaVuSans-73"/>
     </g>
    </g>
   </g>
   <g id="matplotlib.axis_2">
    <g id="ytick_1">
     <g id="line2d_12">
      <defs>
       <path d="M 0 0 
L -3.5 0 
" id="m92d15ae598" style="stroke:#000000;stroke-width:0.8;"/>
      </defs>
      <g>
       <use style="stroke:#000000;stroke-width:0.8;" x="57.6" xlink:href="#m92d15ae598" y="275.953029"/>
      </g>
     </g>
     <g id="text_13">
      <!-- 20 -->
      <g transform="translate(37.875 279.752248)scale(0.1 -0.1)">
       <use xlink:href="#DejaVuSans-32"/>
       <use x="63.623047" xlink:href="#DejaVuSans-30"/>
      </g>
     </g>
    </g>
    <g id="ytick_2">
     <g id="line2d_13">
      <g>
       <use style="stroke:#000000;stroke-width:0.8;" x="57.6" xlink:href="#m92d15ae598" y="240.473605"/>
      </g>
     </g>
     <g id="text_14">
      <!-- 30 -->
      <g transform="translate(37.875 244.272824)scale(0.1 -0.1)">
       <use xlink:href="#DejaVuSans-33"/>
       <use x="63.623047" xlink:href="#DejaVuSans-30"/>
      </g>
     </g>
    </g>
    <g id="ytick_3">
     <g id="line2d_14">
      <g>
       <use style="stroke:#000000;stroke-width:0.8;" x="57.6" xlink:href="#m92d15ae598" y="204.994181"/>
      </g>
     </g>
     <g id="text_15">
      <!-- 40 -->
      <g transform="translate(37.875 208.7934)scale(0.1 -0.1)">
       <use xlink:href="#DejaVuSans-34"/>
       <use x="63.623047" xlink:href="#DejaVuSans-30"/>
      </g>
     </g>
    </g>
    <g id="ytick_4">
     <g id="line2d_15">
      <g>
       <use style="stroke:#000000;stroke-width:0.8;" x="57.6" xlink:href="#m92d15ae598" y="169.514757"/>
      </g>
     </g>
     <g id="text_16">
      <!-- 50 -->
      <g transform="translate(37.875 173.313976)scale(0.1 -0.1)">
       <use xlink:href="#DejaVuSans-35"/>
       <use x="63.623047" xlink:href="#DejaVuSans-30"/>
      </g>
     </g>
    </g>
    <g id="ytick_5">
     <g id="line2d_16">
      <g>
       <use style="stroke:#000000;stroke-width:0.8;" x="57.6" xlink:href="#m92d15ae598" y="134.035333"/>
      </g>
     </g>
     <g id="text_17">
      <!-- 60 -->
      <g transform="translate(37.875 137.834552)scale(0.1 -0.1)">
       <use xlink:href="#DejaVuSans-36"/>
       <use x="63.623047" xlink:href="#DejaVuSans-30"/>
      </g>
     </g>
    </g>
    <g id="ytick_6">
     <g id="line2d_17">
      <g>
       <use style="stroke:#000000;stroke-width:0.8;" x="57.6" xlink:href="#m92d15ae598" y="98.55591"/>
      </g>
     </g>
     <g id="text_18">
      <!-- 70 -->
      <g transform="translate(37.875 102.355128)scale(0.1 -0.1)">
       <use xlink:href="#DejaVuSans-37"/>
       <use x="63.623047" xlink:href="#DejaVuSans-30"/>
      </g>
     </g>
    </g>
    <g id="ytick_7">
     <g id="line2d_18">
      <g>
       <use style="stroke:#000000;stroke-width:0.8;" x="57.6" xlink:href="#m92d15ae598" y="63.076486"/>
      </g>
     </g>
     <g id="text_19">
      <!-- 80 -->
      <g transform="translate(37.875 66.875704)scale(0.1 -0.1)">
       <use xlink:href="#DejaVuSans-38"/>
       <use x="63.623047" xlink:href="#DejaVuSans-30"/>
      </g>
     </g>
    </g>
    <g id="text_20">
     <!-- Accuracy -->
     <g transform="translate(31.795312 197.356125)rotate(-90)scale(0.1 -0.1)">
      <defs>
       <path d="M 2188 4044 
L 1331 1722 
L 3047 1722 
L 2188 4044 
z
M 1831 4666 
L 2547 4666 
L 4325 0 
L 3669 0 
L 3244 1197 
L 1141 1197 
L 716 0 
L 50 0 
L 1831 4666 
z
" id="DejaVuSans-41" transform="scale(0.015625)"/>
       <path d="M 544 1381 
L 544 3500 
L 1119 3500 
L 1119 1403 
Q 1119 906 1312 657 
Q 1506 409 1894 409 
Q 2359 409 2629 706 
Q 2900 1003 2900 1516 
L 2900 3500 
L 3475 3500 
L 3475 0 
L 2900 0 
L 2900 538 
Q 2691 219 2414 64 
Q 2138 -91 1772 -91 
Q 1169 -91 856 284 
Q 544 659 544 1381 
z
M 1991 3584 
L 1991 3584 
z
" id="DejaVuSans-75" transform="scale(0.015625)"/>
       <path d="M 2631 2963 
Q 2534 3019 2420 3045 
Q 2306 3072 2169 3072 
Q 1681 3072 1420 2755 
Q 1159 2438 1159 1844 
L 1159 0 
L 581 0 
L 581 3500 
L 1159 3500 
L 1159 2956 
Q 1341 3275 1631 3429 
Q 1922 3584 2338 3584 
Q 2397 3584 2469 3576 
Q 2541 3569 2628 3553 
L 2631 2963 
z
" id="DejaVuSans-72" transform="scale(0.015625)"/>
       <path d="M 2194 1759 
Q 1497 1759 1228 1600 
Q 959 1441 959 1056 
Q 959 750 1161 570 
Q 1363 391 1709 391 
Q 2188 391 2477 730 
Q 2766 1069 2766 1631 
L 2766 1759 
L 2194 1759 
z
M 3341 1997 
L 3341 0 
L 2766 0 
L 2766 531 
Q 2569 213 2275 61 
Q 1981 -91 1556 -91 
Q 1019 -91 701 211 
Q 384 513 384 1019 
Q 384 1609 779 1909 
Q 1175 2209 1959 2209 
L 2766 2209 
L 2766 2266 
Q 2766 2663 2505 2880 
Q 2244 3097 1772 3097 
Q 1472 3097 1187 3025 
Q 903 2953 641 2809 
L 641 3341 
Q 956 3463 1253 3523 
Q 1550 3584 1831 3584 
Q 2591 3584 2966 3190 
Q 3341 2797 3341 1997 
z
" id="DejaVuSans-61" transform="scale(0.015625)"/>
       <path d="M 2059 -325 
Q 1816 -950 1584 -1140 
Q 1353 -1331 966 -1331 
L 506 -1331 
L 506 -850 
L 844 -850 
Q 1081 -850 1212 -737 
Q 1344 -625 1503 -206 
L 1606 56 
L 191 3500 
L 800 3500 
L 1894 763 
L 2988 3500 
L 3597 3500 
L 2059 -325 
z
" id="DejaVuSans-79" transform="scale(0.015625)"/>
      </defs>
      <use xlink:href="#DejaVuSans-41"/>
      <use x="66.658203" xlink:href="#DejaVuSans-63"/>
      <use x="121.638672" xlink:href="#DejaVuSans-63"/>
      <use x="176.619141" xlink:href="#DejaVuSans-75"/>
      <use x="239.998047" xlink:href="#DejaVuSans-72"/>
      <use x="281.111328" xlink:href="#DejaVuSans-61"/>
      <use x="342.390625" xlink:href="#DejaVuSans-63"/>
      <use x="397.371094" xlink:href="#DejaVuSans-79"/>
     </g>
    </g>
   </g>
   <g id="line2d_19">
    <path clip-path="url(#pf036567dd9)" d="M 73.832727 295.488 
L 74.918528 280.622121 
L 76.00433 273.682346 
L 77.090131 263.442984 
L 80.347534 229.936216 
L 81.433335 221.641127 
L 82.519137 215.645104 
L 84.690739 205.434126 
L 85.77654 202.602868 
L 89.033943 189.773508 
L 90.119745 188.105976 
L 91.205546 184.841869 
L 92.291347 183.089185 
L 93.377148 181.017187 
L 94.462949 179.9599 
L 95.54875 205.171578 
L 96.634552 203.908511 
L 97.720353 203.82336 
L 98.806154 202.801553 
L 99.891955 201.240458 
L 100.977756 200.225747 
L 102.063557 198.20342 
L 103.149358 199.778706 
L 104.23516 196.592654 
L 105.320961 195.946928 
L 106.406762 194.307779 
L 107.492563 193.009232 
L 108.578364 191.334603 
L 110.749967 188.992961 
L 111.835768 186.885483 
L 112.921569 185.693375 
L 114.00737 184.167759 
L 116.178972 180.414036 
L 117.264773 180.861077 
L 118.350575 178.32075 
L 119.436376 176.213273 
L 120.522177 174.574123 
L 121.607978 171.558372 
L 122.693779 169.57862 
L 123.77958 169.0961 
L 124.865382 166.094541 
L 127.036984 162.007311 
L 128.122785 159.339259 
L 129.208586 158.693533 
L 131.380189 153.953482 
L 132.46599 152.548497 
L 133.551791 152.080168 
L 134.637592 150.441019 
L 135.723393 150.483594 
L 136.809194 149.270198 
L 137.894995 149.64628 
L 138.980797 184.685759 
L 140.066598 186.239758 
L 141.152399 189.042632 
L 142.2382 190.050248 
L 143.324001 189.837371 
L 144.409802 188.496249 
L 145.495604 189.482577 
L 146.581405 188.900715 
L 148.753007 187.254469 
L 149.838808 187.162223 
L 150.924609 184.536745 
L 152.01041 185.168279 
L 153.096212 184.089705 
L 154.182013 184.479978 
L 155.267814 182.847925 
L 156.353615 183.628472 
L 157.439416 181.932556 
L 158.525217 182.117049 
L 159.611019 181.038474 
L 160.69682 180.577242 
L 161.782621 178.930997 
L 162.868422 178.455572 
L 163.954223 177.675025 
L 165.040024 177.249272 
L 166.125825 175.340479 
L 167.211627 175.780424 
L 168.297428 174.261904 
L 169.383229 174.034836 
L 170.46903 171.913166 
L 171.554831 172.970453 
L 172.640632 170.919743 
L 173.726434 170.969414 
L 174.812235 170.33788 
L 175.898036 167.790457 
L 176.983837 167.875608 
L 179.155439 165.079829 
L 180.24124 163.327146 
L 181.327042 163.767091 
L 182.412843 161.872489 
L 183.498644 160.886161 
L 184.584445 158.757396 
L 185.670246 159.168957 
L 186.756047 156.763452 
L 187.841849 156.366083 
L 188.92765 154.719838 
L 190.013451 154.173454 
L 191.099252 152.243374 
L 192.185053 150.760334 
L 193.270854 148.780582 
L 194.356656 147.957459 
L 195.442457 146.637625 
L 196.528258 145.601626 
L 198.69986 141.86919 
L 199.785661 141.017684 
L 201.957264 137.469742 
L 203.043065 136.09314 
L 205.214667 134.432703 
L 206.300468 131.722075 
L 207.386269 130.40224 
L 208.472071 129.905529 
L 209.557872 127.812243 
L 210.643673 127.081366 
L 211.729474 124.54104 
L 212.815275 124.413314 
L 213.901076 123.526328 
L 214.986877 123.214109 
L 216.072679 120.205454 
L 217.15848 121.546576 
L 218.244281 120.084824 
L 219.330082 119.141071 
L 220.415883 118.523729 
L 221.501684 120.460906 
L 223.673287 118.055401 
L 224.759088 118.147647 
L 225.844889 171.565468 
L 226.93069 171.522893 
L 228.016491 173.843247 
L 229.102292 175.11341 
L 230.188094 174.928917 
L 231.273895 175.006972 
L 232.359696 173.30396 
L 233.445497 174.318671 
L 234.531298 172.793056 
L 235.617099 170.990701 
L 236.702901 172.473741 
L 237.788702 171.849303 
L 239.960304 169.060621 
L 241.046105 167.85432 
L 242.131906 167.222787 
L 243.217708 166.342897 
L 244.303509 167.315033 
L 245.38931 167.655636 
L 246.475111 166.37128 
L 247.560912 164.029638 
L 248.646713 164.611501 
L 249.732514 163.469064 
L 250.818316 164.214131 
L 251.904117 161.936352 
L 252.989918 160.921641 
L 254.075719 162.333722 
L 255.16152 160.275915 
L 256.247321 160.084327 
L 258.418924 160.687477 
L 259.504725 158.572903 
L 260.590526 158.62967 
L 261.676327 158.849643 
L 262.762128 158.395506 
L 263.847929 159.530848 
L 264.933731 156.358987 
L 266.019532 157.068575 
L 267.105333 156.628631 
L 268.191134 154.975289 
L 269.276935 154.712742 
L 270.362736 154.911427 
L 271.448538 154.620495 
L 272.534339 153.392907 
L 273.62014 153.804468 
L 274.705941 152.960058 
L 275.791742 153.329044 
L 276.877543 151.980826 
L 277.963344 151.533785 
L 279.049146 151.952443 
L 280.134947 151.015786 
L 281.220748 150.76743 
L 282.306549 150.774526 
L 283.39235 149.52565 
L 284.478151 149.511458 
L 285.563953 147.027899 
L 286.649754 147.772966 
L 287.735555 147.957459 
L 288.821356 146.098338 
L 289.907157 146.779543 
L 290.992958 145.729352 
L 292.07876 144.927517 
L 293.164561 145.374557 
L 294.250362 144.636585 
L 295.336163 144.104394 
L 296.421964 142.883902 
L 297.507765 143.089682 
L 298.593566 141.478917 
L 299.679368 141.620834 
L 300.765169 139.924918 
L 301.85097 142.294943 
L 302.936771 139.328864 
L 304.022572 140.137794 
L 305.108373 139.896534 
L 306.194175 138.711522 
L 307.279976 138.562508 
L 308.365777 136.767249 
L 309.451578 136.802729 
L 310.537379 133.907608 
L 311.62318 135.298401 
L 313.794783 133.744402 
L 314.880584 133.73021 
L 315.966385 131.757554 
L 317.052186 132.00591 
L 318.137987 132.64454 
L 319.223788 130.586733 
L 320.30959 129.444296 
L 321.395391 129.735227 
L 322.481192 128.252187 
L 324.652794 128.429584 
L 325.738595 127.060079 
L 326.824396 126.705284 
L 327.910198 126.059559 
L 330.0818 124.427505 
L 331.167601 123.334739 
L 332.253402 123.29926 
L 333.339203 121.532384 
L 334.425005 120.432522 
L 336.596607 119.510057 
L 337.682408 117.395484 
L 338.768209 117.047785 
L 339.85401 116.820717 
L 340.939811 116.12532 
L 342.025613 116.735566 
L 343.111414 114.507459 
L 344.197215 113.03861 
L 345.283016 112.279351 
L 346.368817 112.889597 
L 347.454618 111.853598 
L 348.54042 110.115106 
L 349.626221 109.327463 
L 351.797823 108.582395 
L 352.883624 107.667026 
L 353.969425 105.921438 
L 356.141028 104.21133 
L 357.226829 103.501741 
L 358.31263 102.93407 
L 359.398431 103.132755 
L 360.484232 100.812401 
L 361.570033 99.755114 
L 362.655835 99.755114 
L 363.741636 99.435799 
L 364.827437 98.974567 
L 365.913238 96.902568 
L 368.08484 95.476296 
L 369.170642 95.007967 
L 370.256443 94.681556 
L 371.342244 93.62427 
L 372.428045 91.878682 
L 373.513846 92.091559 
L 374.599647 90.282108 
L 375.685448 90.338875 
L 376.77125 89.026136 
L 378.942852 87.621151 
L 380.028653 86.670303 
L 381.114454 88.153342 
L 383.286057 85.102112 
L 384.371858 86.024577 
L 387.629261 83.321045 
L 388.715062 84.342852 
L 389.800863 83.48425 
L 390.886665 82.774662 
L 391.972466 83.455867 
L 393.058267 83.590689 
L 394.144068 83.313949 
L 395.229869 81.717375 
L 396.31567 81.873484 
L 397.401472 82.412772 
L 398.487273 82.100553 
L 398.487273 82.100553 
" style="fill:none;stroke:#1f77b4;stroke-linecap:square;stroke-width:1.5;"/>
   </g>
   <g id="line2d_20">
    <path clip-path="url(#pf036567dd9)" d="M 73.832727 275.669194 
L 74.918528 261.193589 
L 76.00433 252.536609 
L 77.090131 242.176618 
L 79.261733 211.415957 
L 80.347534 192.008712 
L 81.433335 187.183511 
L 82.519137 174.943109 
L 84.690739 163.767091 
L 85.77654 165.470103 
L 86.862341 159.438601 
L 87.948142 155.074632 
L 89.033943 155.429426 
L 90.119745 148.510938 
L 91.205546 147.056282 
L 92.291347 147.765871 
L 93.377148 144.785599 
L 94.462949 144.146969 
L 95.54875 170.827496 
L 96.634552 166.073253 
L 97.720353 166.640924 
L 98.806154 166.782842 
L 99.891955 164.263803 
L 100.977756 160.999696 
L 102.063557 162.525311 
L 104.23516 153.513537 
L 105.320961 153.087784 
L 106.406762 155.21655 
L 107.492563 149.397924 
L 108.578364 153.690934 
L 109.664165 147.1982 
L 110.749967 147.588473 
L 111.835768 148.43998 
L 112.921569 146.949844 
L 114.00737 140.776424 
L 116.178972 140.528068 
L 117.264773 141.947245 
L 118.350575 139.392726 
L 119.436376 134.461087 
L 120.522177 132.864512 
L 121.607978 133.538622 
L 123.77958 126.407257 
L 124.865382 125.236436 
L 125.951183 123.036712 
L 127.036984 122.54 
L 128.122785 121.120823 
L 129.208586 118.495346 
L 130.294387 118.672743 
L 131.380189 115.869868 
L 132.46599 116.40206 
L 133.551791 115.053842 
L 134.637592 115.621512 
L 135.723393 115.053842 
L 136.809194 114.628089 
L 137.894995 114.805486 
L 138.980797 146.133817 
L 140.066598 144.07601 
L 141.152399 145.033955 
L 142.2382 152.520113 
L 143.324001 146.204776 
L 144.409802 149.397924 
L 146.581405 142.26656 
L 147.667206 146.240255 
L 148.753007 139.960397 
L 149.838808 145.246831 
L 150.924609 144.856558 
L 152.01041 144.679161 
L 153.096212 144.253408 
L 154.182013 144.998475 
L 155.267814 140.350671 
L 156.353615 138.115467 
L 157.439416 136.341496 
L 158.525217 139.641082 
L 159.611019 142.053683 
L 160.69682 136.447934 
L 161.782621 139.676562 
L 162.868422 134.709443 
L 163.954223 132.545198 
L 165.040024 135.631908 
L 166.125825 137.086564 
L 167.211627 134.567525 
L 168.297428 134.461087 
L 169.383229 132.367801 
L 170.46903 135.915743 
L 171.554831 140.279712 
L 172.640632 127.045887 
L 173.726434 128.819858 
L 174.812235 129.91972 
L 175.898036 129.174652 
L 176.983837 122.610959 
L 178.069638 127.436161 
L 179.155439 125.236436 
L 180.24124 126.194381 
L 181.327042 123.214109 
L 182.412843 118.176031 
L 183.498644 117.750278 
L 184.584445 114.486171 
L 185.670246 114.486171 
L 186.756047 116.543977 
L 187.841849 116.331101 
L 188.92765 113.457268 
L 190.013451 109.377134 
L 191.099252 110.512475 
L 192.185053 112.250967 
L 193.270854 106.006589 
L 194.356656 109.62549 
L 195.442457 104.480973 
L 196.528258 103.984261 
L 197.614059 98.910704 
L 198.69986 96.959335 
L 199.785661 100.223442 
L 200.871462 100.010566 
L 201.957264 97.810842 
L 203.043065 96.710979 
L 204.128866 94.653173 
L 205.214667 94.511255 
L 206.300468 94.866049 
L 207.386269 94.19194 
L 208.472071 90.218245 
L 209.557872 88.870027 
L 210.643673 88.124959 
L 211.729474 87.060576 
L 212.815275 85.499482 
L 213.901076 85.180167 
L 214.986877 84.222222 
L 216.072679 84.044825 
L 217.15848 85.925235 
L 218.244281 82.803045 
L 219.330082 83.086881 
L 220.415883 82.022498 
L 221.501684 81.738663 
L 222.587486 82.128936 
L 223.673287 81.348389 
L 224.759088 81.454827 
L 225.844889 121.688494 
L 226.93069 131.587253 
L 228.016491 130.877665 
L 229.102292 138.399303 
L 230.188094 134.212731 
L 231.273895 129.458488 
L 232.359696 132.793554 
L 233.445497 130.629309 
L 234.531298 132.048486 
L 235.617099 126.974928 
L 236.702901 134.993278 
L 237.788702 123.923698 
L 238.874503 133.112868 
L 239.960304 126.797531 
L 241.046105 126.478216 
L 242.131906 118.708222 
L 243.217708 123.107671 
L 244.303509 120.269317 
L 245.38931 125.768628 
L 246.475111 120.09192 
L 247.560912 132.758074 
L 248.646713 124.278492 
L 249.732514 117.572881 
L 250.818316 119.346852 
L 251.904117 117.892196 
L 252.989918 125.484792 
L 254.075719 117.998634 
L 255.16152 115.940827 
L 256.247321 121.369179 
L 257.333123 112.499323 
L 258.418924 110.051243 
L 259.504725 113.421788 
L 260.590526 116.011786 
L 261.676327 114.734527 
L 262.762128 115.408636 
L 263.847929 118.353428 
L 264.933731 122.752877 
L 266.019532 114.450691 
L 267.105333 113.812062 
L 268.191134 110.22864 
L 269.276935 109.767408 
L 270.362736 108.38371 
L 271.448538 111.151105 
L 272.534339 104.942206 
L 273.62014 107.319327 
L 274.705941 113.350829 
L 275.791742 109.412613 
L 276.877543 107.354807 
L 277.963344 104.161659 
L 279.049146 104.0907 
L 280.134947 106.574259 
L 281.220748 101.855496 
L 282.306549 107.212889 
L 283.39235 111.754255 
L 284.478151 104.800288 
L 285.563953 113.102473 
L 286.649754 101.00399 
L 287.735555 99.442895 
L 288.821356 100.542757 
L 289.907157 104.0907 
L 290.992958 103.310152 
L 292.07876 105.33248 
L 293.164561 99.194539 
L 294.250362 105.084124 
L 295.336163 98.981663 
L 296.421964 101.358784 
L 298.593566 99.833169 
L 299.679368 97.91728 
L 300.765169 99.12358 
L 301.85097 97.739883 
L 302.936771 92.169613 
L 304.022572 97.349609 
L 305.108373 93.198517 
L 306.194175 92.276052 
L 307.279976 94.369338 
L 308.365777 94.972488 
L 309.451578 93.127558 
L 310.537379 92.879202 
L 311.62318 93.730708 
L 312.708981 90.927833 
L 313.794783 96.6755 
L 314.880584 87.344412 
L 315.966385 91.956737 
L 317.052186 90.040848 
L 318.137987 86.138111 
L 319.223788 89.2603 
L 320.30959 85.712358 
L 321.395391 83.15784 
L 322.481192 85.251126 
L 323.566993 85.854276 
L 324.652794 83.72551 
L 325.738595 85.251126 
L 326.824396 85.00277 
L 327.910198 85.357564 
L 328.995999 82.448251 
L 330.0818 77.303735 
L 331.167601 79.148665 
L 332.253402 81.383868 
L 333.339203 80.851677 
L 334.425005 77.58757 
L 335.510806 76.700584 
L 336.596607 74.891134 
L 337.682408 77.764967 
L 338.768209 74.50086 
L 339.85401 76.239352 
L 340.939811 70.775521 
L 342.025613 71.094835 
L 344.197215 76.807023 
L 345.283016 72.549492 
L 346.368817 71.697986 
L 347.454618 71.272233 
L 348.54042 69.037029 
L 349.626221 69.888535 
L 350.712022 71.485109 
L 351.797823 70.20785 
L 352.883624 64.389224 
L 353.969425 67.298537 
L 355.055227 65.950319 
L 356.141028 64.956895 
L 357.226829 65.91484 
L 358.31263 66.269634 
L 359.398431 65.737442 
L 360.484232 66.234154 
L 362.655835 61.834706 
L 363.741636 61.905665 
L 364.827437 62.1895 
L 365.913238 61.302514 
L 366.999039 60.734844 
L 368.08484 58.960872 
L 369.170642 58.677037 
L 370.256443 60.096214 
L 371.342244 58.038407 
L 372.428045 60.876761 
L 373.513846 58.818955 
L 375.685448 58.712516 
L 376.77125 58.996352 
L 377.857051 57.648134 
L 378.942852 56.477313 
L 380.028653 55.909642 
L 381.114454 56.05156 
L 382.200255 55.235533 
L 384.371858 55.519368 
L 386.54346 53.709918 
L 387.629261 54.348547 
L 388.715062 53.568 
L 389.800863 53.851835 
L 390.886665 53.922794 
L 391.972466 53.709918 
L 393.058267 53.674438 
L 396.31567 54.100191 
L 397.401472 53.674438 
L 398.487273 53.674438 
L 398.487273 53.674438 
" style="fill:none;stroke:#ff7f0e;stroke-linecap:square;stroke-width:1.5;"/>
   </g>
   <g id="patch_3">
    <path d="M 57.6 307.584 
L 57.6 41.472 
" style="fill:none;stroke:#000000;stroke-linecap:square;stroke-linejoin:miter;stroke-width:0.8;"/>
   </g>
   <g id="patch_4">
    <path d="M 414.72 307.584 
L 414.72 41.472 
" style="fill:none;stroke:#000000;stroke-linecap:square;stroke-linejoin:miter;stroke-width:0.8;"/>
   </g>
   <g id="patch_5">
    <path d="M 57.6 307.584 
L 414.72 307.584 
" style="fill:none;stroke:#000000;stroke-linecap:square;stroke-linejoin:miter;stroke-width:0.8;"/>
   </g>
   <g id="patch_6">
    <path d="M 57.6 41.472 
L 414.72 41.472 
" style="fill:none;stroke:#000000;stroke-linecap:square;stroke-linejoin:miter;stroke-width:0.8;"/>
   </g>
   <g id="text_21">
    <!-- Training and Validation Accuracy -->
    <g transform="translate(138.4575 35.472)scale(0.12 -0.12)">
     <defs>
      <path d="M -19 4666 
L 3928 4666 
L 3928 4134 
L 2272 4134 
L 2272 0 
L 1638 0 
L 1638 4134 
L -19 4134 
L -19 4666 
z
" id="DejaVuSans-54" transform="scale(0.015625)"/>
      <path d="M 603 3500 
L 1178 3500 
L 1178 0 
L 603 0 
L 603 3500 
z
M 603 4863 
L 1178 4863 
L 1178 4134 
L 603 4134 
L 603 4863 
z
" id="DejaVuSans-69" transform="scale(0.015625)"/>
      <path d="M 3513 2113 
L 3513 0 
L 2938 0 
L 2938 2094 
Q 2938 2591 2744 2837 
Q 2550 3084 2163 3084 
Q 1697 3084 1428 2787 
Q 1159 2491 1159 1978 
L 1159 0 
L 581 0 
L 581 3500 
L 1159 3500 
L 1159 2956 
Q 1366 3272 1645 3428 
Q 1925 3584 2291 3584 
Q 2894 3584 3203 3211 
Q 3513 2838 3513 2113 
z
" id="DejaVuSans-6e" transform="scale(0.015625)"/>
      <path d="M 2906 1791 
Q 2906 2416 2648 2759 
Q 2391 3103 1925 3103 
Q 1463 3103 1205 2759 
Q 947 2416 947 1791 
Q 947 1169 1205 825 
Q 1463 481 1925 481 
Q 2391 481 2648 825 
Q 2906 1169 2906 1791 
z
M 3481 434 
Q 3481 -459 3084 -895 
Q 2688 -1331 1869 -1331 
Q 1566 -1331 1297 -1286 
Q 1028 -1241 775 -1147 
L 775 -588 
Q 1028 -725 1275 -790 
Q 1522 -856 1778 -856 
Q 2344 -856 2625 -561 
Q 2906 -266 2906 331 
L 2906 616 
Q 2728 306 2450 153 
Q 2172 0 1784 0 
Q 1141 0 747 490 
Q 353 981 353 1791 
Q 353 2603 747 3093 
Q 1141 3584 1784 3584 
Q 2172 3584 2450 3431 
Q 2728 3278 2906 2969 
L 2906 3500 
L 3481 3500 
L 3481 434 
z
" id="DejaVuSans-67" transform="scale(0.015625)"/>
      <path id="DejaVuSans-20" transform="scale(0.015625)"/>
      <path d="M 2906 2969 
L 2906 4863 
L 3481 4863 
L 3481 0 
L 2906 0 
L 2906 525 
Q 2725 213 2448 61 
Q 2172 -91 1784 -91 
Q 1150 -91 751 415 
Q 353 922 353 1747 
Q 353 2572 751 3078 
Q 1150 3584 1784 3584 
Q 2172 3584 2448 3432 
Q 2725 3281 2906 2969 
z
M 947 1747 
Q 947 1113 1208 752 
Q 1469 391 1925 391 
Q 2381 391 2643 752 
Q 2906 1113 2906 1747 
Q 2906 2381 2643 2742 
Q 2381 3103 1925 3103 
Q 1469 3103 1208 2742 
Q 947 2381 947 1747 
z
" id="DejaVuSans-64" transform="scale(0.015625)"/>
      <path d="M 1831 0 
L 50 4666 
L 709 4666 
L 2188 738 
L 3669 4666 
L 4325 4666 
L 2547 0 
L 1831 0 
z
" id="DejaVuSans-56" transform="scale(0.015625)"/>
      <path d="M 603 4863 
L 1178 4863 
L 1178 0 
L 603 0 
L 603 4863 
z
" id="DejaVuSans-6c" transform="scale(0.015625)"/>
      <path d="M 1172 4494 
L 1172 3500 
L 2356 3500 
L 2356 3053 
L 1172 3053 
L 1172 1153 
Q 1172 725 1289 603 
Q 1406 481 1766 481 
L 2356 481 
L 2356 0 
L 1766 0 
Q 1100 0 847 248 
Q 594 497 594 1153 
L 594 3053 
L 172 3053 
L 172 3500 
L 594 3500 
L 594 4494 
L 1172 4494 
z
" id="DejaVuSans-74" transform="scale(0.015625)"/>
     </defs>
     <use xlink:href="#DejaVuSans-54"/>
     <use x="46.333984" xlink:href="#DejaVuSans-72"/>
     <use x="87.447266" xlink:href="#DejaVuSans-61"/>
     <use x="148.726562" xlink:href="#DejaVuSans-69"/>
     <use x="176.509766" xlink:href="#DejaVuSans-6e"/>
     <use x="239.888672" xlink:href="#DejaVuSans-69"/>
     <use x="267.671875" xlink:href="#DejaVuSans-6e"/>
     <use x="331.050781" xlink:href="#DejaVuSans-67"/>
     <use x="394.527344" xlink:href="#DejaVuSans-20"/>
     <use x="426.314453" xlink:href="#DejaVuSans-61"/>
     <use x="487.59375" xlink:href="#DejaVuSans-6e"/>
     <use x="550.972656" xlink:href="#DejaVuSans-64"/>
     <use x="614.449219" xlink:href="#DejaVuSans-20"/>
     <use x="646.236328" xlink:href="#DejaVuSans-56"/>
     <use x="706.894531" xlink:href="#DejaVuSans-61"/>
     <use x="768.173828" xlink:href="#DejaVuSans-6c"/>
     <use x="795.957031" xlink:href="#DejaVuSans-69"/>
     <use x="823.740234" xlink:href="#DejaVuSans-64"/>
     <use x="887.216797" xlink:href="#DejaVuSans-61"/>
     <use x="948.496094" xlink:href="#DejaVuSans-74"/>
     <use x="987.705078" xlink:href="#DejaVuSans-69"/>
     <use x="1015.488281" xlink:href="#DejaVuSans-6f"/>
     <use x="1076.669922" xlink:href="#DejaVuSans-6e"/>
     <use x="1140.048828" xlink:href="#DejaVuSans-20"/>
     <use x="1171.835938" xlink:href="#DejaVuSans-41"/>
     <use x="1238.494141" xlink:href="#DejaVuSans-63"/>
     <use x="1293.474609" xlink:href="#DejaVuSans-63"/>
     <use x="1348.455078" xlink:href="#DejaVuSans-75"/>
     <use x="1411.833984" xlink:href="#DejaVuSans-72"/>
     <use x="1452.947266" xlink:href="#DejaVuSans-61"/>
     <use x="1514.226562" xlink:href="#DejaVuSans-63"/>
     <use x="1569.207031" xlink:href="#DejaVuSans-79"/>
    </g>
   </g>
   <g id="legend_1">
    <g id="patch_7">
     <path d="M 64.6 78.82825 
L 194.815625 78.82825 
Q 196.815625 78.82825 196.815625 76.82825 
L 196.815625 48.472 
Q 196.815625 46.472 194.815625 46.472 
L 64.6 46.472 
Q 62.6 46.472 62.6 48.472 
L 62.6 76.82825 
Q 62.6 78.82825 64.6 78.82825 
z
" style="fill:#ffffff;opacity:0.8;stroke:#cccccc;stroke-linejoin:miter;"/>
    </g>
    <g id="line2d_21">
     <path d="M 66.6 54.570437 
L 86.6 54.570437 
" style="fill:none;stroke:#1f77b4;stroke-linecap:square;stroke-width:1.5;"/>
    </g>
    <g id="line2d_22"/>
    <g id="text_22">
     <!-- Train Accuracy -->
     <g transform="translate(94.6 58.070437)scale(0.1 -0.1)">
      <use xlink:href="#DejaVuSans-54"/>
      <use x="46.333984" xlink:href="#DejaVuSans-72"/>
      <use x="87.447266" xlink:href="#DejaVuSans-61"/>
      <use x="148.726562" xlink:href="#DejaVuSans-69"/>
      <use x="176.509766" xlink:href="#DejaVuSans-6e"/>
      <use x="239.888672" xlink:href="#DejaVuSans-20"/>
      <use x="271.675781" xlink:href="#DejaVuSans-41"/>
      <use x="338.333984" xlink:href="#DejaVuSans-63"/>
      <use x="393.314453" xlink:href="#DejaVuSans-63"/>
      <use x="448.294922" xlink:href="#DejaVuSans-75"/>
      <use x="511.673828" xlink:href="#DejaVuSans-72"/>
      <use x="552.787109" xlink:href="#DejaVuSans-61"/>
      <use x="614.066406" xlink:href="#DejaVuSans-63"/>
      <use x="669.046875" xlink:href="#DejaVuSans-79"/>
     </g>
    </g>
    <g id="line2d_23">
     <path d="M 66.6 69.248562 
L 86.6 69.248562 
" style="fill:none;stroke:#ff7f0e;stroke-linecap:square;stroke-width:1.5;"/>
    </g>
    <g id="line2d_24"/>
    <g id="text_23">
     <!-- Validation Accuracy -->
     <g transform="translate(94.6 72.748562)scale(0.1 -0.1)">
      <use xlink:href="#DejaVuSans-56"/>
      <use x="60.658203" xlink:href="#DejaVuSans-61"/>
      <use x="121.9375" xlink:href="#DejaVuSans-6c"/>
      <use x="149.720703" xlink:href="#DejaVuSans-69"/>
      <use x="177.503906" xlink:href="#DejaVuSans-64"/>
      <use x="240.980469" xlink:href="#DejaVuSans-61"/>
      <use x="302.259766" xlink:href="#DejaVuSans-74"/>
      <use x="341.46875" xlink:href="#DejaVuSans-69"/>
      <use x="369.251953" xlink:href="#DejaVuSans-6f"/>
      <use x="430.433594" xlink:href="#DejaVuSans-6e"/>
      <use x="493.8125" xlink:href="#DejaVuSans-20"/>
      <use x="525.599609" xlink:href="#DejaVuSans-41"/>
      <use x="592.257812" xlink:href="#DejaVuSans-63"/>
      <use x="647.238281" xlink:href="#DejaVuSans-63"/>
      <use x="702.21875" xlink:href="#DejaVuSans-75"/>
      <use x="765.597656" xlink:href="#DejaVuSans-72"/>
      <use x="806.710938" xlink:href="#DejaVuSans-61"/>
      <use x="867.990234" xlink:href="#DejaVuSans-63"/>
      <use x="922.970703" xlink:href="#DejaVuSans-79"/>
     </g>
    </g>
   </g>
  </g>
 </g>
 <defs>
  <clipPath id="pf036567dd9">
   <rect height="266.112" width="357.12" x="57.6" y="41.472"/>
  </clipPath>
 </defs>
</svg>
